<?xml version="1.0" encoding="UTF-8"?>
<svg width="460px" height="225px" viewBox="0 0 460 225" version="1.1" xmlns="http://www.w3.org/2000/svg" xmlns:xlink="http://www.w3.org/1999/xlink">
    <title>1</title>
    <defs>
        <radialGradient cx="50.0008519%" cy="49.9991481%" fx="50.0008519%" fy="49.9991481%" r="49.9886355%" id="radialGradient-1">
            <stop stop-color="#FFFFFF" offset="51.5625%"></stop>
            <stop stop-color="#C4C4C4" offset="98.9583%"></stop>
        </radialGradient>
    </defs>
    <g id="ðŸ“è®¾è®¡å¸ˆæ¨¡å¼" stroke="none" stroke-width="1" fill="none" fill-rule="evenodd">
        <g id="æ¦‚è¿°-èµ„æºä¸Žä¸‹è½½" transform="translate(-300.000000, -836.000000)">
            <g id="ç¼–ç»„-10" transform="translate(300.000000, 836.000000)">
                <rect id="çŸ©å½¢" fill="#6788FF" fill-rule="nonzero" x="0" y="0" width="460" height="225"></rect>
                <path d="M276.5,208 C192.829,208 125,204.866 125,201 C125,197.134 192.829,194 276.5,194 C360.171,194 428,197.134 428,201 C428,204.866 360.171,208 276.5,208 Z" id="è·¯å¾„" fill="#5757B0" fill-rule="nonzero"></path>
                <polygon id="è·¯å¾„" fill="#F0F0F0" fill-rule="nonzero" points="239 194 420.203 194 431 72 249.797 72"></polygon>
                <path d="M239,194 L249.797,72 L431,72 L420.203,194 L239,194 Z M240.359,192.764 L250.936,73.2359 L429.641,73.2359 L419.064,192.764 L240.359,192.764 Z" id="å½¢çŠ¶" fill="#61188E"></path>
                <polygon id="è·¯å¾„" fill="#E0E0E0" fill-rule="nonzero" points="423.185 198 420 194.066 430.815 72 434 75.9338"></polygon>
                <path d="M421.286,193.679 L431.786,75.1734 L432.714,76.3205 L422.214,194.827 L421.286,193.679 Z M420,194.066 L430.815,72 L434,75.9338 L423.185,198 L420,194.066 Z" id="å½¢çŠ¶" fill="#61188E"></path>
                <path d="M418.116,190.186 L427.99,76.2332 C428.109,75.0261 427.157,74 425.968,74 L255.907,74 C254.836,74 254.003,74.7846 253.884,75.8711 L244.01,189.764 C243.891,190.971 244.843,191.997 246.032,191.997 L416.093,191.997 C417.105,192.057 417.997,191.212 418.116,190.186 Z" id="è·¯å¾„" fill="#A1A1EA" fill-rule="nonzero"></path>
                <path d="M427.99,76.2332 L418.116,190.186 C417.997,191.212 417.105,192.057 416.093,191.997 L246.032,191.997 C244.843,191.997 243.891,190.971 244.01,189.764 L253.884,75.8711 C254.003,74.7846 254.836,74 255.907,74 L425.968,74 C427.157,74 428.109,75.0261 427.99,76.2332 Z M255.112,75.9977 C255.168,75.5259 255.494,75.2522 255.907,75.2522 L425.968,75.2522 C426.455,75.2522 426.806,75.6667 426.762,76.1086 L426.761,76.116 L416.888,190.054 C416.83,190.493 416.446,190.764 416.166,190.747756 L416.13,190.745 L246.032,190.745 C245.545,190.745 245.194,190.33 245.238,189.888 L245.239,189.881 L255.112,75.9977 Z" id="å½¢çŠ¶" fill="#61188E"></path>
                <polygon id="è·¯å¾„" fill="#E0E0E0" fill-rule="nonzero" points="396 194 422.16 194 424 200 397.84 200"></polygon>
                <path d="M421.312,195.353 L422.322,198.647 L398.688,198.647 L397.678,195.353 L421.312,195.353 Z M422.16,194 L424,200 L397.84,200 L396,194 L422.16,194 Z" id="å½¢çŠ¶" fill="#61188E"></path>
                <polygon id="è·¯å¾„" fill="#F5F5F5" fill-rule="nonzero" points="395.095 194 217 194 218.905 200 397 200"></polygon>
                <path d="M394.217,195.353 L395.263,198.647 L219.783,198.647 L218.737,195.353 L394.217,195.353 Z M395.095,194 L397,200 L218.905,200 L217,194 L395.095,194 Z" id="å½¢çŠ¶" fill="#61188E"></path>
                <polygon id="è·¯å¾„" fill="#E0E0E0" fill-rule="nonzero" points="321.648 194 288 194 288.41 198 322 198"></polygon>
                <path d="M320.546,195.36 L320.658,196.64 L289.495,196.64 L289.364,195.36 L320.546,195.36 Z M321.648,194 L322,198 L288.41,198 L288,194 L321.648,194 Z" id="å½¢çŠ¶" fill="#61188E"></path>
                <path d="M265.715,65 L221.497,65 C217.838,89.1545 234.793,109 259.006,109 C266.752,109 274.681,106.997 282,103.113 L265.715,65 Z" id="è·¯å¾„" fill="#D6DBEE" fill-rule="nonzero"></path>
                <path d="M264.878,66.2591 L280.377,102.533 C273.522,105.975 266.175,107.741 259.006,107.741 C235.943,107.741 219.704,89.1791 222.599,66.2591 L264.878,66.2591 Z M221.497,65 L265.715,65 L282,103.113 C274.681,106.997 266.752,109 259.006,109 C234.793,109 217.838,89.1545 221.497,65 Z" id="å½¢çŠ¶" fill="#61188E"></path>
                <path d="M266,64 L242.817,31 C237.294,35.0432 232.56,40.0973 228.919,45.8054 C225.338,51.5135 222.971,57.6973 222,64 L266,64 Z" id="è·¯å¾„" fill="#E9F5FF" fill-rule="nonzero"></path>
                <path d="M266,64 L222,64 C222.063,63.5883 222.133,63.177 222.208,62.7664 C223.285,56.8914 225.572,51.1406 228.919,45.8054 C232.338,40.4453 236.721,35.6619 241.815,31.7506 C242.146,31.4967 242.48,31.2465 242.817,31 L266,64 Z M263.605,62.7664 L223.488,62.7664 C224.552,57.1292 226.762,51.6003 229.989,46.4552 C233.317,41.2391 237.579,36.5815 242.531,32.7688 L263.605,62.7664 Z" id="å½¢çŠ¶" fill="#61188E"></path>
                <path d="M266.562,63 L273,20 C267.98,20 262.9,20.8897 257.998,22.6097 C253.037,24.3297 248.312,26.88 244,30.0828 L266.562,63 Z" id="è·¯å¾„" fill="#A2A0DB" fill-rule="nonzero"></path>
                <path d="M257.998,22.6097 C262.496,21.0314 267.144,20.1522 271.758,20.0181 C272.172,20.006 272.586,20 273,20 L266.562,63 L244,30.0828 C248.312,26.88 253.037,24.3297 257.998,22.6097 Z M245.688,30.3753 C249.643,27.5683 253.926,25.323 258.398,23.7728 L258.402,23.7713 C262.715,22.2581 267.162,21.4066 271.573,21.255 L265.812,59.7351 L245.688,30.3753 Z" id="å½¢çŠ¶" fill="#61188E"></path>
                <path d="M268,63.4035 L284.084,101 C298.668,93.2772 309.17,78.9091 311.511,63.4035 C315.112,39.5765 298.428,20 274.602,20 L268,63.4035 Z" id="è·¯å¾„" fill="#E9E4FD" fill-rule="nonzero"></path>
                <path d="M310.28,63.2186 C308.065,77.8878 298.326,91.5646 284.69,99.2525 L269.284,63.2408 L275.67,21.2556 C298.145,21.8294 313.716,40.4843 310.28,63.2186 Z M274.602,20 C298.428,20 315.112,39.5765 311.511,63.4035 C309.23,78.5172 299.193,92.5502 285.182,100.402 C284.819,100.605 284.453,100.805 284.084,101 L268,63.4035 L274.602,20 Z" id="å½¢çŠ¶" fill="#61188E"></path>
                <path d="M329.705,115 L383.587,115 C386.996,115 390.046,112.163 390.285,108.722 L392.976,75.2782 C393.275,71.8373 390.704,69 387.295,69 L333.413,69 C330.004,69 326.954,71.8373 326.715,75.2782 L324.024,108.722 C323.725,112.223 326.296,115 329.705,115 Z" id="è·¯å¾„" fill="#FFFFFF" fill-rule="nonzero"></path>
                <path d="M389.048,108.627 L389.048,108.634 C388.854,111.412 386.352,113.748 383.587,113.748 L329.705,113.748 C327.02,113.748 325.024,111.596 325.26,108.829 L325.26,108.826 L327.952,75.3728 L327.952,75.3659 C328.146,72.5882 330.648,70.2524 333.413,70.2524 L387.295,70.2524 C389.973,70.2524 391.976,72.4569 391.74,75.1688 L391.74,75.1728 L389.048,108.627 Z M392.976,75.2782 L390.285,108.722 C390.046,112.163 386.996,115 383.587,115 L329.705,115 C326.296,115 323.725,112.223 324.024,108.722 L326.715,75.2782 C326.954,71.8373 330.004,69 333.413,69 L387.295,69 C390.704,69 393.275,71.8373 392.976,75.2782 Z" id="å½¢çŠ¶" fill="#61188E"></path>
                <path d="M343.348,104.222 C345.408,106.491 348.116,108.164 351.117,109 L352,106.432 C345.467,104.64 341.053,98.4277 341.642,91.0809 C341.995,86.7206 344.055,82.7187 347.115,79.8516 L345.408,78 C337.757,85.2274 336.816,96.9942 343.348,104.222 Z" id="è·¯å¾„" fill="#C44E26" fill-rule="nonzero"></path>
                <path d="M346,78.9672 L347.721,81 C350.808,77.8525 354.904,75.8852 359.237,75.8852 C363.571,75.8852 367.37,77.8525 369.982,81 L372,78.9672 C368.854,75.1639 364.283,73 359.416,73 C354.607,73.0656 349.74,75.1639 346,78.9672 Z" id="è·¯å¾„" fill="#61188E" fill-rule="nonzero"></path>
                <path d="M352,108.372 C358.264,110.073 365.312,108.255 370.431,103.682 C378.262,96.6456 379.225,85.0361 372.6,78 L370.552,79.8177 C373.202,82.6321 374.648,86.5019 374.286,90.8408 C373.563,99.46 365.793,106.437 356.999,106.437 C355.554,106.437 354.168,106.262 352.903,105.91 L352,108.372 Z" id="è·¯å¾„" fill="#ECCE33" fill-rule="nonzero"></path>
                <polygon id="è·¯å¾„" fill="#61188E" fill-rule="nonzero" points="398 34 403 34 403 35 398 35"></polygon>
                <path d="M366.681,63 L419.724,63 C423.083,63 426.089,60.1627 426.325,56.7218 L428.977,23.2782 C429.271,19.8373 426.737,17 423.378,17 L370.276,17 C366.917,17 363.911,19.8373 363.675,23.2782 L361.023,56.7218 C360.729,60.2231 363.263,63 366.681,63 Z" id="è·¯å¾„" fill="#FFFFFF" fill-rule="nonzero"></path>
                <path d="M425.105,56.6272 L425.105,56.6341 C424.915,59.4118 422.448,61.7476 419.724,61.7476 L366.681,61.7476 C363.968,61.7476 362.009,59.5871 362.241,56.8294 L362.242,56.8263 L362.242,56.8232 L364.895,23.3728 L364.895,23.3659 C365.085,20.5882 367.552,18.2524 370.276,18.2524 L423.378,18.2524 C426.017,18.2524 427.991,20.4569 427.759,23.1688 L427.758,23.1728 L425.105,56.6272 Z M428.977,23.2782 L426.325,56.7218 C426.089,60.1627 423.083,63 419.724,63 L366.681,63 C363.263,63 360.729,60.2231 361.023,56.7218 L363.675,23.2782 C363.911,19.8373 366.917,17 370.276,17 L423.378,17 C426.737,17 429.271,19.8373 428.977,23.2782 Z" id="å½¢çŠ¶" fill="#61188E"></path>
                <polygon id="è·¯å¾„" fill="#ECCE33" fill-rule="nonzero" points="408 34 420 34 420 35 408 35"></polygon>
                <polygon id="è·¯å¾„" fill="#E0E0E0" fill-rule="nonzero" points="423.771 34 416 34 416.229 32 424 32"></polygon>
                <polygon id="è·¯å¾„" fill="#ECCE33" fill-rule="nonzero" points="366 34 415.757 34 416 32 366.243 32"></polygon>
                <polygon id="è·¯å¾„" fill="#E0E0E0" fill-rule="nonzero" points="422.758 42 397 42 397.242 39 423 39"></polygon>
                <polygon id="è·¯å¾„" fill="#ECCE33" fill-rule="nonzero" points="365 42 396.76 42 397 39 365.24 39"></polygon>
                <polygon id="è·¯å¾„" fill="#E0E0E0" fill-rule="nonzero" points="421.764 49 379 49 379.236 46 422 46"></polygon>
                <polygon id="è·¯å¾„" fill="#ECCE33" fill-rule="nonzero" points="365 49 378.76 49 379 46 365.24 46"></polygon>
                <polygon id="è·¯å¾„" fill="#E0E0E0" fill-rule="nonzero" points="421.764 56 402 56 402.236 53 422 53"></polygon>
                <polygon id="è·¯å¾„" fill="#ECCE33" fill-rule="nonzero" points="365 56 401.762 56 402 53 365.238 53"></polygon>
                <path d="M292.705,63 L346.587,63 C349.996,63 353.046,60.1627 353.285,56.7218 L355.976,23.2782 C356.275,19.8373 353.704,17 350.295,17 L296.413,17 C293.004,17 289.954,19.8373 289.715,23.2782 L287.024,56.7218 C286.725,60.2231 289.296,63 292.705,63 Z" id="è·¯å¾„" fill="#FFFFFF" fill-rule="nonzero"></path>
                <path d="M352.048,56.6272 L352.048,56.6341 C351.854,59.4118 349.352,61.7476 346.587,61.7476 L292.705,61.7476 C290.02,61.7476 288.024,59.5959 288.26,56.8294 L288.26,56.8263 L288.26,56.8232 L290.952,23.3728 L290.952,23.3659 C291.146,20.5882 293.648,18.2524 296.413,18.2524 L350.295,18.2524 C352.973,18.2524 354.976,20.4569 354.74,23.1688 L354.74,23.1728 L352.048,56.6272 Z M355.976,23.2782 L353.285,56.7218 C353.046,60.1627 349.996,63 346.587,63 L292.705,63 C289.296,63 286.725,60.2231 287.024,56.7218 L289.715,23.2782 C289.954,19.8373 293.004,17 296.413,17 L350.295,17 C353.704,17 356.275,19.8373 355.976,23.2782 Z" id="å½¢çŠ¶" fill="#61188E"></path>
                <polygon id="è·¯å¾„" fill="#E0E0E0" fill-rule="nonzero" points="320 56 320.542 56 322 24 321.492 24"></polygon>
                <polygon id="è·¯å¾„" fill="#ECCE33" fill-rule="nonzero" points="318 43 323.983 43 325 31 319.017 31"></polygon>
                <polygon id="è·¯å¾„" fill="#E0E0E0" fill-rule="nonzero" points="331 56 331.8 56 334 24 333.2 24"></polygon>
                <polygon id="è·¯å¾„" fill="#ECCE33" fill-rule="nonzero" points="330 46 335.224 46 336 35 330.776 35"></polygon>
                <polygon id="è·¯å¾„" fill="#E0E0E0" fill-rule="nonzero" points="343 56 343.763 56 346 24 345.186 24"></polygon>
                <polygon id="è·¯å¾„" fill="#61188E" fill-rule="nonzero" points="342 37 348.306 37 349 29 342.631 29"></polygon>
                <polygon id="è·¯å¾„" fill="#E0E0E0" fill-rule="nonzero" points="307 56 308.067 56 311 24 309.933 24"></polygon>
                <polygon id="è·¯å¾„" fill="#61188E" fill-rule="nonzero" points="306 51 311.512 51 313 31 307.433 31"></polygon>
                <polygon id="è·¯å¾„" fill="#E0E0E0" fill-rule="nonzero" points="295 56 296.067 56 299 24 297.933 24"></polygon>
                <polygon id="è·¯å¾„" fill="#ECCE33" fill-rule="nonzero" points="294 52 299.738 52 301 37 295.205 37"></polygon>
                <path d="M324.058,135.494 C323.343,134.704 322.468,134.081 321.475,133.665 C320.481,133.249 319.408,133 318.295,133 C317.182,133 316.07,133.208 314.996,133.665 C313.923,134.081 312.93,134.704 312.055,135.494 L309.79,137.572 L306.968,134.455 L302.636,138.362 L305.458,141.479 L302,144.597 L305.537,148.545 L308.995,145.428 L310.863,147.506 C312.294,149.086 314.361,150 316.626,150 C318.891,150 321.117,149.127 322.866,147.506 C324.615,145.927 325.727,143.765 325.966,141.521 C326.165,139.235 325.489,137.073 324.058,135.494 Z M319.329,143.516 C319.011,143.807 318.693,144.015 318.335,144.139 C317.977,144.306 317.58,144.347 317.182,144.347 C316.785,144.347 316.427,144.264 316.07,144.139 C315.712,143.973 315.434,143.765 315.195,143.516 C314.361,142.601 313.327,141.438 313.327,141.438 L315.593,139.359 C316.03,138.944 316.586,138.694 317.182,138.57 C317.739,138.445 318.335,138.528 318.852,138.736 C319.368,138.944 319.766,139.318 320.044,139.817 C320.322,140.274 320.441,140.856 320.402,141.438 C320.362,141.812 320.243,142.186 320.084,142.56 C319.885,142.934 319.647,143.267 319.329,143.516 Z" id="å½¢çŠ¶" fill-opacity="0.8" fill="#FFFDFD" fill-rule="nonzero"></path>
                <path d="M258.056,141.535 C257.85,143.2 258.222,144.865 259.008,146.239 C259.835,147.654 261.076,148.737 262.648,149.361 C264.179,149.986 265.957,150.152 267.695,149.861 C269.432,149.528 271.128,148.737 272.493,147.53 L274.892,145.448 L277.788,148.57 L282.338,144.615 L279.401,141.493 L283,138.371 L279.318,134.457 L275.72,137.58 C275.72,137.58 274.685,136.455 273.775,135.498 C272.659,134.291 271.169,133.5 269.515,133.167 C267.819,132.833 266.04,132.999926 264.344,133.666 C262.648,134.291 261.159,135.415 260.042,136.789 C258.925,138.204 258.222,139.869 258.056,141.535 Z M263.848,141.535 C263.93,140.952 264.179,140.41 264.551,139.911 C264.923,139.453 265.461,139.078 266.04,138.828 C266.619,138.62 267.24,138.537 267.819,138.662 C268.398,138.787 268.894,139.037 269.308,139.453 L271.211,141.535 L268.853,143.616 C268.232,144.157 267.405,144.449 266.619,144.449 C265.833,144.449 265.089,144.157 264.551,143.616 C264.303,143.366 264.096,143.033 264.013,142.659 C263.848,142.284 263.806,141.909 263.848,141.535 Z" id="å½¢çŠ¶" fill-opacity="0.8" fill="#FFFDFD" fill-rule="nonzero"></path>
                <path d="M297.143,141.937 L308.842,131.632 C310.632,130.021 311.714,127.815 311.964,125.568 C312.172,123.32 311.465,121.157 310.007,119.546 C308.55,117.934 306.427,117.044 304.095,117.001 C301.764,116.959 299.432,117.85 297.601,119.419 L295.227,121.539 C295.227,121.539 294.52,120.776 293.271,119.419 C291.73,117.85 289.607,116.959 287.275,117.001 C284.944,117.044 282.654,117.934 280.822,119.546 C278.99,121.157 277.824,123.32 277.575,125.568 C277.325,127.815 277.949,130.021 279.365,131.632 L288.857,141.937 L277.158,152.242 C275.368,153.854 274.244,156.059 274.036,158.306 C273.828,160.554 274.535,162.717 275.993,164.328 C277.45,165.94 279.615,166.83 281.946,166.873 C284.278,166.915 286.609,166.025 288.483,164.456 C290.023,163.141 290.897,162.335 290.897,162.335 L292.854,164.456 C293.604,165.261 294.52,165.897 295.56,166.321 C296.601,166.746 297.725,167 298.891,167 C300.057,167 301.264,166.788 302.388,166.364 C303.513,165.94 304.553,165.304 305.469,164.498 C306.385,163.692 307.135,162.759 307.718,161.699 C308.259,160.639 308.634,159.536 308.758,158.391 C308.883,157.246 308.758,156.144 308.425,155.083 C308.092,154.023 307.551,153.09 306.802,152.285 L297.143,141.937 Z M283.986,127.603 C283.653,127.349 283.403,127.01 283.237,126.628 C283.07,126.246 282.987,125.822 282.987,125.398 C282.987,124.974 283.112,124.55 283.32,124.126 C283.528,123.744 283.778,123.363 284.153,123.066 C284.486,122.769 284.902,122.514 285.319,122.387 C285.735,122.218 286.193,122.175 286.651,122.218 C287.067,122.26 287.484,122.387 287.858,122.557 C288.233,122.769 288.524,123.066 288.774,123.405 L290.731,125.525 L287.109,128.706 L290.814,132.692 L294.436,129.512 L297.392,132.692 L301.93,128.706 L298.974,125.525 L301.348,123.405 C301.639,123.066 302.014,122.769 302.43,122.557 C302.846,122.345 303.263,122.218 303.721,122.218 C304.179,122.175 304.595,122.26 305.011,122.387 C305.428,122.557 305.761,122.769 306.052,123.066 C306.344,123.363 306.552,123.744 306.635,124.126 C306.76,124.508 306.76,124.974 306.677,125.398 C306.593,125.822 306.427,126.246 306.177,126.628 C305.927,127.01 305.594,127.349 305.22,127.603 L293.437,137.951 C293.437,137.951 285.069,128.833 283.986,127.603 Z M301.681,160.512 C301.056,161.063 300.223,161.36 299.432,161.36 C298.641,161.36 297.892,161.063 297.351,160.512 L295.394,158.391 L299.016,155.211 L295.311,151.182 L291.689,154.363 L288.733,151.182 L284.194,155.211 L287.15,158.391 L284.736,160.512 C284.444,160.851 284.07,161.148 283.653,161.36 C283.237,161.572 282.779,161.699 282.363,161.699 C281.905,161.741 281.488,161.657 281.072,161.529 C280.656,161.36 280.322,161.148 280.031,160.851 C279.74,160.554 279.531,160.172 279.448,159.791 C279.323,159.409 279.323,158.943 279.407,158.518 C279.49,158.094 279.656,157.67 279.906,157.289 C280.156,156.907 280.489,156.568 280.864,156.313 C282.238,155.126 292.604,146.008 292.604,146.008 L302.139,156.313 C302.638,156.865 302.888,157.628 302.805,158.434 C302.722,159.197 302.305,159.918 301.681,160.512 Z" id="å½¢çŠ¶" fill-opacity="0.8" fill="#FFFDFD" fill-rule="nonzero"></path>
                <path d="M353.441,179 L423.723,179 C428.169,179 432.147,175.299 432.459,170.811 L435.969,127.189 C436.359,122.701 433.005,119 428.559,119 L358.277,119 C353.831,119 349.853,122.701 349.541,127.189 L346.031,170.811 C345.641,175.299 348.995,179 353.441,179 Z" id="è·¯å¾„" fill="#FFFFFF" fill-rule="nonzero"></path>
                <path d="M431.233,170.717 L431.232,170.724 C430.966,174.555 427.53,177.758 423.723,177.758 L353.441,177.758 C349.72,177.758 346.929,174.685 347.256,170.92 L347.256,170.916 L350.767,127.283 L350.768,127.276 C351.034,123.445 354.47,120.242 358.277,120.242 L428.559,120.242 C432.28,120.242 435.071,123.315 434.744,127.08 L434.744,127.084 L431.233,170.717 Z M435.969,127.189 L432.459,170.811 C432.147,175.299 428.169,179 423.723,179 L353.441,179 C348.995,179 345.641,175.299 346.031,170.811 L349.541,127.189 C349.853,122.701 353.831,119 358.277,119 L428.559,119 C433.005,119 436.359,122.701 435.969,127.189 Z" id="å½¢çŠ¶" fill="#61188E"></path>
                <polygon id="è·¯å¾„" fill="#ECCE33" fill-rule="nonzero" points="418.986 148.339 403.718 165.919 386.167 139 375.384 152.891 372.708 148.889 355 170 423 170"></polygon>
                <polygon id="è·¯å¾„" fill="#A1A1EA" fill-rule="nonzero" points="367.986 149.08 375.069 164.491 397.736 128 408.361 151.156 411.824 145.726 423 170 355 170"></polygon>
                <polygon id="è·¯å¾„" fill="#FFFFFF" fill-rule="nonzero" points="46.096 21.6869 49.5835 21.6869 45.7837 43.124 40.3183 43.124 37.1952 27.7859 34.0981 43.124 28.6326 43.124 24.8328 21.6869 28.3203 21.6869 31.3653 40.8401 35.3473 21.6869 39.069 21.6869 43.051 40.8401"></polygon>
                <path d="M52.1951,32.6909 C52.1951,32.1546 52.2818,31.6615 52.4553,31.2116 C52.6462,30.7618 52.8978,30.3725 53.2101,30.0438 C53.5397,29.715 53.9301,29.4641 54.3812,29.2911 C54.8324,29.1008 55.3269,29.0056 55.8647,29.0056 L64.3752,29.0056 C64.7396,29.0056 65.0866,29.0835 65.4163,29.2392 C65.7633,29.3949 66.0669,29.6026 66.3272,29.8621 C66.5874,30.1216 66.7956,30.4244 66.9518,30.7704 C67.1079,31.0992 67.186,31.4452 67.186,31.8086 L67.186,34.8969 C67.186,35.2603 67.1079,35.615 66.9518,35.961 C66.7956,36.2897 66.5874,36.5839 66.3272,36.8434 C66.0669,37.1029 65.7633,37.3106 65.4163,37.4663 C65.0866,37.622 64.7396,37.6998 64.3752,37.6998 L55.6825,37.6998 L55.6825,38.5822 C55.6825,38.9456 55.8127,39.257 56.0729,39.5166 C56.3332,39.7588 56.6368,39.8799 56.9838,39.8799 L66.9778,39.8799 L66.9778,43.124 L56.0729,43.124 C55.5351,43.124 55.0319,43.0202 54.5634,42.8126 C54.095,42.6049 53.6785,42.3281 53.3142,41.9821 C52.9672,41.636 52.6896,41.2208 52.4813,40.7363 C52.2905,40.2692 52.1951,39.7674 52.1951,39.2311 L52.1951,32.6909 Z M63.0219,34.4557 C63.2127,34.4557 63.3689,34.3952 63.4903,34.2741 C63.6118,34.153 63.6725,33.9972 63.6725,33.8069 L63.6725,32.8986 C63.6725,32.7083 63.6118,32.5525 63.4903,32.4314 C63.3689,32.3103 63.2127,32.2498 63.0219,32.2498 L56.5935,32.2498 C56.3505,32.2498 56.1337,32.3449 55.9428,32.5352 C55.7693,32.7082 55.6825,32.9159 55.6825,33.1581 L55.6825,34.4557 L63.0219,34.4557 Z" id="å½¢çŠ¶" fill="#FFFFFF" fill-rule="nonzero"></path>
                <path d="M81.5314,29.0056 C82.0693,29.0056 82.5724,29.1095 83.0409,29.3171 C83.5094,29.5247 83.9171,29.8015 84.2641,30.1476 C84.6111,30.4936 84.8888,30.9089 85.097,31.3933 C85.3052,31.8605 85.4093,32.3622 85.4093,32.8986 L85.4093,39.2311 C85.4093,39.7674 85.3052,40.2692 85.097,40.7363 C84.8888,41.2208 84.6111,41.636 84.2641,41.9821 C83.9171,42.3281 83.5094,42.6049 83.0409,42.8126 C82.5724,43.0202 82.0693,43.124 81.5314,43.124 L70.4183,43.124 L70.4183,21.6869 L73.9318,21.6869 L73.9318,29.0056 L81.5314,29.0056 Z M80.6205,39.8799 C80.9675,39.8799 81.2711,39.7588 81.5314,39.5166 C81.7917,39.257 81.9218,38.9456 81.9218,38.5822 L81.9218,33.5474 C81.9218,33.1841 81.7917,32.8813 81.5314,32.639 C81.2711,32.3795 80.9675,32.2498 80.6205,32.2498 L73.9318,32.2498 L73.9318,39.8799 L80.6205,39.8799 Z" id="å½¢çŠ¶" fill="#FFFFFF" fill-rule="nonzero"></path>
                <path d="M112.716,43.3057 C112.716,44.0323 112.49,44.612 112.039,45.0445 C111.605,45.4944 111.024,45.7193 110.295,45.7193 L108.63,45.7193 L108.63,42.7347 L109.046,42.7347 C109.306,42.7347 109.436,42.6049 109.436,42.3454 L109.436,37.2327 L108.265,37.2327 L108.265,45.0705 L105.272,45.0705 L105.272,37.2327 L104.413,37.2327 L104.413,45.0705 L101.446,45.0705 L101.446,37.2327 L100.457,37.2327 L100.457,45.7193 L97.1781,45.7193 L97.1781,33.9886 L102.409,33.9886 L102.826,32.3017 L97.074,32.3017 L97.074,29.0575 L112.82,29.0575 L112.82,32.3017 L106.391,32.3017 L105.975,33.9886 L112.716,33.9886 L112.716,43.3057 Z M106.704,20.0519 L106.704,24.5677 L109.02,24.5677 L109.02,20.5969 L112.533,20.5969 L112.533,27.8118 L97.3863,27.8118 L97.3863,20.5969 L100.9,20.5969 L100.9,24.5677 L103.19,24.5677 L103.19,20.0519 L106.704,20.0519 Z M93.6125,20 L93.6125,23.1143 L96.6055,23.1143 L96.6055,26.3585 L87.2622,26.3585 L87.2622,23.1143 L90.2552,23.1143 L90.2552,20 L93.6125,20 Z M87.9909,40.1913 C87.9736,38.2189 87.9389,36.2465 87.8868,34.2741 C87.8521,32.3017 87.748,30.3292 87.5745,28.3568 L90.8017,28.3568 C90.9926,30.3119 91.1054,32.2757 91.1401,34.2481 C91.1921,36.2205 91.2095,38.2016 91.1921,40.1913 L87.9909,40.1913 Z M96.1891,28.3568 C96.1544,30.3465 96.0416,32.3276 95.8508,34.3 C95.6773,36.2724 95.443,38.2362 95.1481,40.1913 L91.9469,40.1913 C92.2418,38.2362 92.4934,36.2724 92.7016,34.3 C92.9272,32.3276 93.0573,30.3465 93.092,28.3568 L96.1891,28.3568 Z M87.2622,42.4752 C88.9452,42.406 90.5154,42.2762 91.9729,42.0859 C93.4304,41.8956 94.9312,41.636 96.4754,41.3073 L96.4754,44.4735 C94.9312,44.785 93.4304,45.0359 91.9729,45.2262 C90.5154,45.4165 88.9452,45.5463 87.2622,45.6155 L87.2622,42.4752 Z" id="å½¢çŠ¶" fill="#FFFFFF" fill-rule="nonzero"></path>
                <path d="M118.728,43.124 C118.19,43.124 117.687,43.0202 117.218,42.8126 C116.75,42.6049 116.333,42.3281 115.969,41.9821 C115.622,41.636 115.344,41.2208 115.136,40.7363 C114.928,40.2692 114.824,39.7674 114.824,39.2311 L114.824,21.6869 L118.337,21.6869 L118.337,37.5441 C118.337,38.2708 118.545,38.8418 118.962,39.257 C119.378,39.6723 119.951,39.8799 120.68,39.8799 L126.249,39.8799 C126.978,39.8799 127.55,39.6723 127.967,39.257 C128.383,38.8418 128.591,38.2708 128.591,37.5441 L128.591,21.6869 L132.105,21.6869 L132.105,39.2311 C132.105,39.7674 132.001,40.2692 131.793,40.7363 C131.584,41.2208 131.307,41.636 130.96,41.9821 C130.613,42.3281 130.196,42.6049 129.711,42.8126 C129.242,43.0202 128.739,43.124 128.201,43.124 L118.728,43.124 Z" id="è·¯å¾„" fill="#FFFFFF" fill-rule="nonzero"></path>
                <polygon id="è·¯å¾„" fill="#FFFFFF" fill-rule="nonzero" points="138.867 43.124 135.353 43.124 135.353 21.6869 138.867 21.6869"></polygon>
                <polygon id="è·¯å¾„" fill="#FFFFFF" fill-rule="nonzero" points="151.88 21.8167 144.358 43.8507 140.61 43.8507 148.366 21.8167"></polygon>
                <path d="M157.792,43.124 C157.254,43.124 156.751,43.0202 156.282,42.8126 C155.814,42.6049 155.398,42.3281 155.033,41.9821 C154.686,41.636 154.409,41.2208 154.2,40.7363 C153.992,40.2692 153.888,39.7674 153.888,39.2311 L153.888,21.6869 L157.402,21.6869 L157.402,37.5441 C157.402,38.2708 157.61,38.8418 158.026,39.257 C158.443,39.6723 159.015,39.8799 159.744,39.8799 L165.313,39.8799 C166.042,39.8799 166.615,39.6723 167.031,39.257 C167.448,38.8418 167.656,38.2708 167.656,37.5441 L167.656,21.6869 L171.169,21.6869 L171.169,39.2311 C171.169,39.7674 171.065,40.2692 170.857,40.7363 C170.649,41.2208 170.371,41.636 170.024,41.9821 C169.677,42.3281 169.261,42.6049 168.775,42.8126 C168.306,43.0202 167.803,43.124 167.265,43.124 L157.792,43.124 Z" id="è·¯å¾„" fill="#FFFFFF" fill-rule="nonzero"></path>
                <polygon id="è·¯å¾„" fill="#FFFFFF" fill-rule="nonzero" points="178.139 43.124 174.105 43.124 181.392 32.4055 173.975 21.6869 178.009 21.6869 183.422 29.4468 188.706 21.6869 192.87 21.6869 185.505 32.4055 193 43.124 188.836 43.124 183.448 35.39"></polygon>
                <path d="M38.1061,78.8265 C38.3837,79.6051 38.8174,80.3231 39.4074,80.9806 C39.9973,81.638 40.6913,82.2263 41.4894,82.7454 C42.3223,82.1744 43.0423,81.5083 43.6496,80.747 C44.2569,79.9684 44.682,79.0687 44.9249,78.0479 L34.1501,78.0479 L34.1501,74.7778 L48.5425,74.7778 L48.5425,77.8922 C48.369,79.2763 47.9786,80.5048 47.3713,81.5775 C46.764,82.6502 46.0006,83.6018 45.081,84.4323 C45.8445,84.7091 46.6079,84.9341 47.3713,85.1071 C48.1521,85.2974 48.9329,85.4445 49.7137,85.5483 L49.7137,88.9221 C48.4124,88.801 47.059,88.5588 45.6536,88.1955 C44.2656,87.8321 42.9209,87.3477 41.6196,86.7421 C40.3183,87.365 38.9563,87.8494 37.5335,88.1955 C36.1281,88.5588 34.7487,88.801 33.3954,88.9221 L33.3954,85.5483 C34.1068,85.4618 34.8528,85.332 35.6336,85.159 C36.4317,84.986 37.2299,84.7524 38.028,84.4582 C37.1258,83.697 36.3623,82.8578 35.7377,81.9408 C35.1304,81.0065 34.7227,79.9684 34.5145,78.8265 L38.1061,78.8265 Z M47.4754,63.696 L47.4754,69.9766 C47.4754,70.1669 47.5361,70.3226 47.6576,70.4437 C47.7791,70.5648 47.9352,70.6254 48.1261,70.6254 L49.4013,70.6254 L49.4013,73.8695 L46.3043,73.8695 C45.6449,73.8695 45.0897,73.6446 44.6386,73.1947 C44.1875,72.7449 43.9619,72.1912 43.9619,71.5337 L43.9619,66.9401 L38.4184,66.9401 L38.4184,68.8606 C38.4184,70.3312 37.9846,71.5337 37.1171,72.468 C36.2669,73.4023 35.0263,73.9906 33.3954,74.2328 L33.3954,70.7292 C33.8291,70.5908 34.1848,70.3312 34.4624,69.9506 C34.7574,69.57 34.9049,69.0163 34.9049,68.2896 L34.9049,63.696 L47.4754,63.696 Z M26.7327,72.2604 L24,72.2604 L24,69.0423 L30.2202,69.0423 L30.2202,84.4582 C30.2202,84.8216 30.333,85.1071 30.5585,85.3147 C30.7841,85.5396 31.0704,85.6521 31.4174,85.6521 L32.6406,85.6521 L32.6406,88.8962 L29.3093,88.8962 C28.5806,88.8962 27.9646,88.6453 27.4615,88.1436 C26.9756,87.6418 26.7327,87.0276 26.7327,86.3009 L26.7327,72.2604 Z M30.1942,63.2548 L30.1942,67.7706 L26.6807,67.7706 L26.6807,63.2548 L30.1942,63.2548 Z" id="å½¢çŠ¶" fill="#FFFFFF" fill-rule="nonzero"></path>
                <path d="M75.6615,75.6083 L68.8167,75.6083 L68.8167,89 L65.3292,89 L65.3292,75.6083 L58.4844,75.6083 L58.4844,72.3642 L65.3292,72.3642 L65.3292,63.4364 L68.8167,63.4364 L68.8167,72.3642 L75.6615,72.3642 L75.6615,75.6083 Z M52.4204,72.2604 L50.104,72.2604 L50.104,69.0423 L55.9078,69.0423 L55.9078,84.4582 C55.9078,84.8216 56.0206,85.1071 56.2462,85.3147 C56.4717,85.5396 56.758,85.6521 57.105,85.6521 L58.3022,85.6521 L58.3022,88.8962 L54.9969,88.8962 C54.2682,88.8962 53.6522,88.6453 53.1491,88.1436 C52.6633,87.6418 52.4204,87.0276 52.4204,86.3009 L52.4204,72.2604 Z M55.8818,63.2548 L55.8818,67.7706 L52.3683,67.7706 L52.3683,63.2548 L55.8818,63.2548 Z" id="å½¢çŠ¶" fill="#FFFFFF" fill-rule="nonzero"></path>
                <path d="M86.2541,70.7551 L83.0529,70.7551 L83.0529,74.8816 L86.4363,74.8816 L86.4363,78.1258 L83.157,78.1258 C83.2264,78.7832 83.3479,79.4494 83.5214,80.1241 C83.7122,80.7816 83.9378,81.4131 84.1981,82.0187 C84.4757,82.6242 84.8053,83.1693 85.187,83.6537 C85.5687,84.1382 86.0112,84.5188 86.5144,84.7956 L86.5144,88.7405 C85.4213,88.3598 84.4323,87.7629 83.5474,86.9497 C82.6625,86.1538 81.9078,85.1763 81.2831,84.017 C80.6759,85.1763 79.9298,86.1538 79.0449,86.9497 C78.16,87.7629 77.171,88.3598 76.0779,88.7405 L76.0779,84.7956 C76.5638,84.5188 76.9975,84.1382 77.3792,83.6537 C77.7783,83.1693 78.108,82.6242 78.3682,82.0187 C78.6458,81.4131 78.8714,80.7816 79.0449,80.1241 C79.2184,79.4494 79.3485,78.7832 79.4353,78.1258 L76.156,78.1258 L76.156,74.8816 L79.5394,74.8816 L79.5394,70.7551 L76.3382,70.7551 L76.3382,67.511 L79.5394,67.511 L79.5394,63.67 L83.0529,63.67 L83.0529,67.511 L86.2541,67.511 L86.2541,70.7551 Z M101.323,79.7867 L97.8096,79.7867 L97.8096,66.966 L91.3031,66.966 L91.3031,79.7867 L87.8157,79.7867 L87.8157,63.7219 L101.323,63.7219 L101.323,79.7867 Z M96.3522,68.1858 L96.3522,76.5686 C96.3522,78.0046 96.1266,79.3715 95.6755,80.6691 L98.5123,80.6691 L98.5123,84.4842 C98.5123,84.7783 98.6078,85.0206 98.7986,85.2109 C99.0068,85.4185 99.2584,85.5223 99.5534,85.5223 L101.74,85.5223 L101.74,88.7664 L97.6014,88.7664 C96.8727,88.7664 96.2567,88.5155 95.7536,88.0138 C95.2504,87.512 94.9988,86.8978 94.9988,86.1711 L94.9988,82.2782 C94.218,83.7662 93.1683,85.0725 91.8497,86.1971 C90.531,87.3217 88.9955,88.2301 87.2431,88.9221 L87.2431,85.0552 C88.0412,84.6226 88.7786,84.1209 89.4553,83.5499 C90.1493,82.9616 90.7479,82.3128 91.2511,81.6034 C91.7543,80.8941 92.1446,80.1241 92.4223,79.2936 C92.6999,78.4458 92.8387,77.5375 92.8387,76.5686 L92.8387,68.1858 L96.3522,68.1858 Z" id="å½¢çŠ¶" fill="#FFFFFF" fill-rule="nonzero"></path>
                <path d="M125.97,80.9027 C125.97,81.6294 125.718,82.2436 125.215,82.7454 C124.712,83.2471 124.096,83.498 123.367,83.498 L117.381,83.498 L117.381,80.2539 L121.415,80.2539 C121.71,80.2539 121.953,80.1587 122.144,79.9684 C122.352,79.7608 122.456,79.5099 122.456,79.2158 L122.456,74.2847 L114.831,74.2847 L114.831,84.1728 C114.831,84.5361 114.961,84.8389 115.221,85.0811 C115.481,85.3406 115.785,85.4704 116.132,85.4704 L127.245,85.4704 L127.245,88.7145 L113.92,88.7145 C113.191,88.7145 112.575,88.4636 112.072,87.9619 C111.569,87.4601 111.317,86.8459 111.317,86.1192 L111.317,71.0406 L125.97,71.0406 L125.97,80.9027 Z M111.005,63.2288 L111.005,64.8898 L118.761,64.8898 L118.761,63.2288 L122.274,63.2288 L122.274,64.8898 L127.167,64.8898 L127.167,68.1339 L122.274,68.1339 L122.274,69.7949 L118.761,69.7949 L118.761,68.1339 L111.005,68.1339 L111.005,69.7949 L107.491,69.7949 L107.491,68.1339 L102.598,68.1339 L102.598,64.8898 L107.491,64.8898 L107.491,63.2288 L111.005,63.2288 Z M108.454,81.837 C108.385,82.4253 108.289,83.0568 108.168,83.7316 C108.047,84.389 107.899,85.0292 107.726,85.6521 C107.569,86.2923 107.396,86.8978 107.205,87.4688 C107.031,88.0397 106.849,88.5242 106.658,88.9221 L103.171,88.9221 C103.553,87.7975 103.9,86.621 104.212,85.3926 C104.542,84.1641 104.793,82.9789 104.967,81.837 L108.454,81.837 Z M105.019,80.747 C104.949,80.0203 104.811,79.2677 104.602,78.4891 C104.412,77.6932 104.195,76.906 103.952,76.1274 L107.491,76.1274 C107.717,76.7849 107.925,77.5375 108.116,78.3853 C108.307,79.2331 108.437,80.0203 108.506,80.747 L105.019,80.747 Z M104.889,75.0114 C104.802,74.2847 104.663,73.5407 104.472,72.7795 C104.281,72.0009 104.065,71.2396 103.822,70.4956 L107.361,70.4956 C107.483,70.807 107.595,71.1531 107.699,71.5337 C107.804,71.8971 107.899,72.2777 107.986,72.6757 C108.073,73.0736 108.151,73.4715 108.22,73.8695 C108.289,74.2674 108.341,74.6481 108.376,75.0114 L104.889,75.0114 Z" id="å½¢çŠ¶" fill="#FFFFFF" fill-rule="nonzero"></path>
                <path d="M39.704,99.2288 L39.704,102.2913 L50.063,102.2913 L50.063,105.5354 L47.018,105.5354 C46.428,108.2172 45.604,110.5875 44.545,112.6464 C43.504,114.7054 42.238,116.5048 40.745,118.0446 C42.29,119.0481 43.886,119.8094 45.534,120.3285 C47.183,120.8648 48.805,121.306 50.401,121.6521 L50.401,124.974 C48.007,124.628 45.768,124.083 43.686,123.339 C41.622,122.6123 39.722,121.6348 37.987,120.4063 C36.252,121.6521 34.343,122.6469 32.261,123.3909 C30.179,124.1349 27.923,124.6626 25.494,124.974 L25.494,121.6521 C26.292,121.4791 27.099,121.2887 27.915,121.0811 C28.747,120.8735 29.572,120.6226 30.387,120.3285 C31.203,120.0517 32.009,119.7229 32.808,119.3423 C33.623,118.9616 34.412,118.5204 35.176,118.0187 C33.684,116.4961 32.4,114.7054 31.324,112.6464 C30.266,110.5875 29.442,108.2172 28.852,105.5354 L25.833,105.5354 L25.833,102.2913 L36.191,102.2913 L36.191,99.2288 L39.704,99.2288 Z M32.521,105.5354 C33.129,107.8711 33.892,109.8695 34.812,111.5305 C35.748,113.1741 36.79,114.5756 37.935,115.7348 C39.08,114.5756 40.112,113.1741 41.032,111.5305 C41.969,109.8695 42.741,107.8711 43.348,105.5354 L32.521,105.5354 Z" id="å½¢çŠ¶" fill="#FFFFFF" fill-rule="nonzero"></path>
                <path d="M72.675,99.2548 L72.675,107.5856 L78.687,107.5856 L78.687,124.7145 L63.176,124.7145 L63.176,121.4964 L75.174,121.4964 L75.174,117.7592 L63.462,117.7592 L63.462,114.541 L75.174,114.541 L75.174,110.8297 L63.176,110.8297 L63.176,107.5856 L69.188,107.5856 L69.188,99.2548 L72.675,99.2548 Z M59.714,99.2029 L59.714,102.992 L62.629,102.992 L62.629,106.2361 L60.703,106.2361 C60.807,106.9801 60.92,107.7327 61.042,108.494 C61.181,109.2553 61.328,109.9906 61.484,110.7 C61.658,111.3921 61.84,112.0409 62.031,112.6464 C62.222,113.252 62.43,113.7884 62.655,114.2555 L62.655,120.7437 C62.013,119.9824 61.449,119.0827 60.964,118.0446 C60.495,116.9892 60.079,115.8559 59.714,114.6448 L59.714,124.9221 L56.201,124.9221 L56.201,114.6448 C55.837,115.8559 55.411,116.9892 54.926,118.0446 C54.44,119.0827 53.885,119.9824 53.26,120.7437 L53.26,114.2555 C53.485,113.7884 53.694,113.252 53.885,112.6464 C54.075,112.0409 54.249,111.3921 54.405,110.7 C54.561,109.9906 54.7,109.2553 54.822,108.494 C54.96,107.7327 55.082,106.9801 55.186,106.2361 L53.286,106.2361 L53.286,102.992 L56.201,102.992 L56.201,99.2029 L59.714,99.2029 Z M64.165,106.1842 C64.113,105.2672 64.009,104.2723 63.853,103.1996 C63.714,102.1096 63.549,101.0974 63.358,100.1631 L66.793,100.1631 C66.88,100.5784 66.967,101.0455 67.054,101.5646 C67.14,102.0663 67.219,102.5854 67.288,103.1217 C67.357,103.6581 67.409,104.1945 67.444,104.7308 C67.496,105.2499 67.54,105.7343 67.574,106.1842 L64.165,106.1842 Z M78.505,100.1631 C78.488,100.613 78.453,101.1061 78.401,101.6424 C78.349,102.1615 78.288,102.6892 78.219,103.2256 C78.167,103.7619 78.097,104.2896 78.011,104.8087 C77.924,105.3104 77.837,105.7689 77.75,106.1842 L74.315,106.1842 C74.506,105.2672 74.671,104.2637 74.809,103.1736 C74.966,102.0836 75.07,101.0801 75.122,100.1631 L78.505,100.1631 Z" id="å½¢çŠ¶" fill="#FFFFFF" fill-rule="nonzero"></path>
                <g id="ç¼–ç»„" transform="translate(101.000000, 48.000000)">
                    <path d="M25.3859999,64.5511673 L9,60 L13.556286,76.3915047 L59.6935104,122.528865 C62.9775481,125.812476 68.2892666,125.825339 71.5571227,122.557493 C74.8253937,119.289233 74.8125314,113.977533 71.5289086,110.693506 L25.3859999,64.5511673 Z" id="è·¯å¾„" fill="#ECCE33" fill-rule="nonzero"></path>
                    <path d="M9,60 L13.556286,76.3915047 L59.6935104,122.528865 C62.9775481,125.812476 68.2892666,125.825339 71.5571227,122.557493 C74.8253937,119.289233 74.8125314,113.977533 71.5289086,110.693506 L25.3859999,64.5511673 L9,60 Z M11.7494636,62.7492054 L15.2645665,75.3948866 L61.0461273,121.176252 C63.5891302,123.719246 67.689717,123.719661 70.2045058,121.204881 C72.7197094,118.689686 72.7192945,114.589113 70.1762917,112.046118 L24.3893785,66.259774 L11.7494636,62.7492054 Z" id="å½¢çŠ¶" fill="#61188E"></path>
                    <polygon id="è·¯å¾„" fill="#61188E" fill-rule="nonzero" points="13 76.6666247 24.6666331 65 26 66.3333753 14.333326 78"></polygon>
                    <path d="M11.325608,69 L9,61 L17,63.0855559 C16.471692,65.9739567 14.2275912,68.2871039 11.325608,69 Z" id="è·¯å¾„" fill="#380000"></path>
                    <path d="M12.4651982,66.7516996 L11.4852999,63.3809225 L14.820147,64.2502876 C14.3091847,65.2932748 13.4847498,66.1655685 12.4651982,66.7516996 Z M12.9459136,68.4050832 C12.5544721,68.6008786 12.1434843,68.7644598 11.7165317,68.8933166 C11.5876477,68.9322247 11.4572967,68.9677858 11.325608,69 L9,61 L17,63.0855559 C16.9215995,63.5143813 16.8054011,63.9302374 16.6548566,64.3301956 C16.6091194,64.4519402 16.5601892,64.5715929 16.5082386,64.690409 C15.8041444,66.2948436 14.5363605,67.6114423 12.9459136,68.4050832 Z" id="å½¢çŠ¶" fill="#61188E"></path>
                    <path d="M61.7227721,113.233951 C64.0939755,112.807163 66.5350556,112.966122 68.8296876,113.695926 C71.1243196,114.42573 73.20179,115.70444 74.8775744,117.418218 C76.5533587,119.131996 77.7759908,121.228269 78.4375177,123.52117 C79.0986261,125.814486 79.1785449,128.233231 78.6689056,130.563803 C78.1596848,132.894789 77.0772243,135.06516 75.5177616,136.883255 C73.9578805,138.700935 71.9691157,140.110455 69.727205,140.986386 C67.4857127,141.862317 65.0601143,142.177751 62.6654792,141.90454 C60.2712625,141.631743 57.9816516,140.77858 56,139.421218 L59.8557684,133.912707 C60.9214919,134.642511 62.152911,135.101588 63.4408171,135.248542 C64.7287233,135.395083 66.0337848,135.225361 67.2392616,134.754279 C68.4451568,134.283197 69.5150645,133.525244 70.3540028,132.547066 C71.192941,131.569302 71.7753859,130.401946 72.049453,129.148074 C72.3231016,127.894615 72.2804225,126.593138 71.9247629,125.359963 C71.5691033,124.126374 70.9113423,122.998758 70.0096406,122.076878 C69.1083573,121.154998 67.9907494,120.467417 66.7568198,120.074987 C65.5224718,119.682143 64.2094603,119.596868 62.9336884,119.8262 L61.7227721,113.233951 Z" id="è·¯å¾„" fill="#C8597B" fill-rule="nonzero"></path>
                    <path d="M61.7227721,113.233792 C62.2742536,113.134443 62.8299195,113.066967 63.3864221,113.030953 C65.222044,112.912147 67.0689634,113.135684 68.8296876,113.69577 C71.1243196,114.425578 73.20179,115.704295 74.8775744,117.418082 C76.5533587,119.131869 77.7759908,121.228154 78.4375177,123.521069 C79.0986261,125.814397 79.1785449,128.233155 78.6689056,130.56374 C78.1596848,132.894739 77.0772243,135.065122 75.5177616,136.883226 C73.9578805,138.700917 71.9691157,140.110445 69.727205,140.98638 C67.4857127,141.862316 65.0601143,142.177752 62.6654792,141.90454 C60.8281836,141.695077 59.0528146,141.144098 57.4305884,140.285963 C56.9389413,140.025583 56.4611022,139.737054 56,139.421204 L59.8557684,133.912662 C59.8557684,133.912662 59.8561868,133.912662 59.8561868,133.913076 C60.9219103,134.642884 62.1533294,135.10155 63.4408171,135.248505 C64.7287233,135.395046 66.0337848,135.225324 67.2392616,134.754239 C68.4451568,134.283155 69.5150645,133.525197 70.3540028,132.547014 C71.192941,131.569244 71.7753859,130.401882 72.049453,129.148003 C72.3231016,127.894537 72.2804225,126.593053 71.9247629,125.359871 C71.5691033,124.126275 70.9113423,122.998653 70.0096406,122.076768 C69.1083573,121.154883 67.9907494,120.467299 66.7568198,120.074866 C65.5224718,119.68202 64.2094603,119.596744 62.9336884,119.826077 L61.7227721,113.233792 Z M64.3077897,118.044401 L63.6881051,114.671883 C65.2504968,114.594059 66.8191648,114.795657 68.3175378,115.272123 C70.3498185,115.918726 72.1900431,117.051315 73.6746081,118.5693 C75.1591731,120.087285 76.2420519,121.944302 76.8278442,123.975595 C77.4136365,126.006888 77.48435,128.149536 77.0332899,130.213945 C76.5818114,132.278769 75.6232042,134.201191 74.2415713,135.811488 C72.8599384,137.421786 71.0983774,138.670284 69.1125416,139.446456 C67.1267058,140.222213 64.9781034,140.501635 62.857117,140.259884 C61.2938884,140.081468 59.7808707,139.624044 58.3904509,138.914519 L60.3628972,136.096292 C61.2733857,136.509008 62.2474746,136.778909 63.2491794,136.893161 C64.8107342,137.071163 66.3923733,136.865426 67.8543435,136.294578 C69.3163136,135.723315 70.6130066,134.804328 71.6301931,133.618752 C72.6473795,132.433175 73.3528408,131.017852 73.6850687,129.497797 C74.0172966,127.978157 73.9654121,126.400562 73.5340179,124.905345 C73.1030422,123.410128 72.3055279,122.043238 71.2126069,120.92555 C70.1196859,119.807863 68.7652504,118.974151 67.2689696,118.498513 C66.3086887,118.193012 65.309076,118.040675 64.3077897,118.044401 Z" id="å½¢çŠ¶" fill="#61188E"></path>
                    <path d="M14.3962671,110 C11.6398964,109.950321 8.95347738,109.133105 6.64532461,107.642328 C4.33712998,106.15155 2.50067979,104.047653 1.34662434,101.57158 C0.192568884,99.0955059 -0.232289967,96.3482689 0.120733453,93.6440869 C0.473756873,90.9403188 1.59038758,88.389727 3.34252741,86.2850024 C5.09466725,84.1798637 7.41131804,82.6062881 10.026697,81.7439471 C12.6420761,80.8820202 15.4502302,80.766517 18.1289466,81.4106853 C20.8077049,82.0552675 23.2485607,83.4334399 25.1712887,85.3870583 C27.0940168,87.3406766 28.4210466,89.7906689 29,92.4563499 L22.3748978,93.8635015 C22.0638621,92.4294405 21.3501127,91.1117107 20.3156574,90.0605903 C19.2813695,89.0098839 17.9684472,88.268428 16.5275524,87.9219185 C15.0866575,87.5754089 13.576146,87.6375074 12.1693269,88.1011761 C10.7625079,88.5648448 9.51635571,89.4114541 8.57391337,90.5437165 C7.63142916,91.6759789 7.03079119,93.0479414 6.84086266,94.502288 C6.650976,95.9566345 6.87954328,97.4345785 7.50031694,98.766384 C8.12104874,100.098189 9.10891151,101.230038 10.3504588,102.031936 C11.592048,102.833835 13.0370453,103.273492 14.5197186,103.299987 L14.3962671,110 Z" id="è·¯å¾„" fill="#C8597B" fill-rule="nonzero"></path>
                    <path d="M14.3962671,110 C13.8349796,109.990064 13.2766224,109.947837 12.723791,109.874975 C10.5615696,109.589736 8.48349115,108.829651 6.64532461,107.642328 C4.33712998,106.15155 2.50067979,104.047653 1.34662434,101.57158 C0.192568884,99.0955059 -0.232289967,96.3482689 0.120733453,93.6440869 C0.473756873,90.9403188 1.59038758,88.389727 3.34252741,86.2850024 C5.09466725,84.1798637 7.41131804,82.6062881 10.026697,81.7439471 C12.6420761,80.8820202 15.4502302,80.766517 18.1289466,81.4106853 C20.8077049,82.0552675 23.2485607,83.4334399 25.1712887,85.3870583 C26.7026058,86.9428323 27.8559077,88.8136527 28.5545868,90.8571069 C28.7329196,91.3787342 28.8815301,91.9115392 28.9991628,92.4534519 C28.9995814,92.4542799 28.9995814,92.4555219 29,92.4563499 L22.3748978,93.8635015 C22.0638621,92.4294405 21.3501127,91.1117107 20.3156574,90.0605903 C19.2813695,89.0098839 17.9684472,88.268428 16.5275524,87.9219185 C15.0866575,87.5754089 13.576146,87.6375074 12.1693269,88.1011761 C10.7625079,88.5648448 9.51635571,89.4114541 8.57391337,90.5437165 C7.63142916,91.6759789 7.03079119,93.0479414 6.84086266,94.502288 C6.650976,95.9566345 6.87954328,97.4345785 7.50031694,98.766384 C8.12104874,100.098189 9.10891151,101.230038 10.3504588,102.031936 C11.592048,102.833835 13.0370453,103.273492 14.5197186,103.299987 L14.3962671,110 Z M12.8176877,104.779587 L12.7545178,108.20701 C10.9078114,107.935846 9.13507534,107.272635 7.56093332,106.255875 C5.51634458,104.935662 3.88958185,103.071465 2.86735027,100.87856 C1.84507683,98.685242 1.46869434,96.2513953 1.78140452,93.8564637 C2.09415656,91.4611181 3.08327518,89.2019752 4.635314,87.3373647 C6.18735281,85.4727542 8.23947674,84.0788502 10.5561694,83.3150388 C12.8729039,82.5516414 15.3603941,82.4489719 17.7332238,83.019864 C20.1060536,83.5907561 22.2681494,84.8111983 23.9715198,86.5420901 C25.282642,87.8743096 26.2810541,89.4673428 26.9052186,91.2077563 L23.5160598,91.9272708 C23.0539017,90.8070141 22.3761537,89.7803191 21.5154681,88.9055585 C20.2617389,87.6317115 18.6700985,86.7329395 16.9232752,86.3131537 C15.1764937,85.8929539 13.3453181,85.9683001 11.6398546,86.5300844 C9.93434917,87.0922827 8.42367015,88.1185637 7.28112678,89.4913542 C6.13854155,90.8637307 5.41039151,92.5271421 5.1801916,94.2903251 C4.9499917,96.0535081 5.22703534,97.8452564 5.97959101,99.4598171 C6.73214669,101.074378 7.92969691,102.44634 9.43485012,103.418389 C10.467924,104.08574 11.6172072,104.546097 12.8176877,104.779587 Z" id="å½¢çŠ¶" fill="#61188E"></path>
                    <path d="M66.1508762,129.296655 C58.695814,145.972286 38.9297015,153.537192 22.0017978,146.193413 C5.07355913,138.849633 -2.60589618,119.378159 4.84908223,102.70294 C12.3040606,86.0277208 32.0701732,78.462815 48.9984956,85.8065946 C65.9263993,93.1503743 73.6059383,112.621436 66.1508762,129.296655 Z" id="è·¯å¾„" fill="#C8597B" fill-rule="nonzero"></path>
                    <path d="M22.6769037,144.683072 C38.7579934,151.65927 57.5357375,144.473084 64.6180675,128.631626 C71.6999787,112.790581 64.4044794,94.2931342 48.3233897,87.3165229 C32.2418812,80.3403242 13.4642628,87.5269228 6.38218408,103.367968 C-0.699894638,119.209426 6.59543714,137.706873 22.6769037,144.683072 Z M22.0017978,146.193413 C38.9297015,153.537192 58.695814,145.972286 66.1508762,129.296655 C73.6059383,112.621436 65.9263993,93.1499617 48.9984956,85.8065946 C32.0701732,78.462815 12.3040606,86.0277208 4.84908223,102.70294 C-2.60589618,119.378159 5.07355913,138.849633 22.0017978,146.193413 Z" id="å½¢çŠ¶" fill="#61188E"></path>
                    <path d="M25.6172516,98.3131335 C24.6158358,100.58734 21.9605668,101.618666 19.6868328,100.617252 C17.4128821,99.6158385 16.3812938,96.9605746 17.3827096,94.6868017 C18.3841687,92.4130288 21.039351,91.3812691 23.3131283,92.3826829 C25.5873391,93.3840967 26.6186673,96.0393606 25.6172516,98.3131335 Z" id="è·¯å¾„" fill="#FCB777" fill-rule="nonzero"></path>
                    <path d="M20.3856996,99.0305967 C21.7832598,99.6457509 23.4150039,99.0119556 24.0305928,97.6143114 C24.6457482,96.2171007 24.0119518,94.5849263 22.6143049,93.9697721 C21.2170914,93.3541843 19.5851306,93.9884131 18.9697151,95.3856238 C18.3542562,96.783268 18.9882261,98.4150089 20.3856996,99.0305967 Z M19.6868328,100.617252 C21.9605668,101.618666 24.6158358,100.58734 25.6172516,98.3131335 C26.6186673,96.0393606 25.5873391,93.3840967 23.3131283,92.3826829 C21.039351,91.3812691 18.3841687,92.4130288 17.3827096,94.6868017 C16.3812938,96.9605746 17.4128821,99.6158385 19.6868328,100.617252 Z" id="å½¢çŠ¶" fill="#61188E"></path>
                    <path d="M24.131271,98.7861144 C24.131271,98.7861144 24.131271,98.7861144 24.0654558,97.9535386 C23.9996405,97.1209628 23.9996405,97.1209628 24,97.1209628 L24.0134743,97.1201277 L24.0495259,97.1172049 C24.0809664,97.1146997 24.127079,97.1117769 24.186187,97.1076015 C24.3044029,97.0996682 24.4746004,97.0883946 24.6871377,97.0767035 C25.1109545,97.0529037 25.7032921,97.025346 26.3761171,97.0107321 C27.7075141,96.9815043 29.4086504,97.0007111 30.7509468,97.2124042 C34.714955,97.838715 39.0591828,100.829975 42.3239561,103.53689 C43.9777222,104.907676 45.3937987,106.240048 46.3961193,107.229201 C46.8979085,107.723987 47.2969922,108.134011 47.5715719,108.420862 C47.7086521,108.564496 47.8147111,108.677649 47.8872337,108.755312 C47.9232854,108.794143 47.9509529,108.823788 47.9702364,108.844248 L47.9916159,108.868048 L47.9991616,108.876398 L48,108.876816 C48,108.877234 48,108.877234 47.3795757,109.438408 C46.7587322,110 46.7587322,110 46.7587322,110 L46.7578938,109.999165 L46.7537017,109.994154 L46.7348375,109.974112 C46.7180692,109.955741 46.6924977,109.928183 46.6585421,109.891857 C46.5906307,109.818787 46.489183,109.711062 46.3571332,109.572856 C46.0926145,109.296027 45.7048493,108.897693 45.2160556,108.415851 C44.2380489,107.450498 42.858024,106.152782 41.2512089,104.82041 C37.9944005,102.120175 33.9591273,99.4103375 30.4881049,98.8621068 C29.3021722,98.6746311 27.7263783,98.6516663 26.4130072,98.6804766 C25.7632385,98.694673 25.1910228,98.7213956 24.7810397,98.7443603 C24.5764674,98.7556339 24.412558,98.7660724 24.3006301,98.7740057 C24.2448758,98.7777636 24.2016976,98.7806864 24.1731916,98.7827741 L24.1409128,98.7852793 L24.131271,98.7861144 Z" id="è·¯å¾„" fill="#61188E"></path>
                    <path d="M51.6172523,112.313198 C50.6158385,114.586971 47.9605746,115.618731 45.6868017,114.617317 C43.4130288,113.615903 42.3812691,110.960639 43.3826829,108.686866 C44.3840967,106.41266 47.0393606,105.381334 49.3131335,106.382748 C51.5873399,107.384162 52.6186661,110.038992 51.6172523,112.313198 Z" id="è·¯å¾„" fill="#FCB777" fill-rule="nonzero"></path>
                    <path d="M46.3856238,113.030228 C47.783268,113.645816 49.4150089,113.011587 50.0305967,111.614376 C50.6457509,110.216732 50.0119556,108.584991 48.6143114,107.969403 C47.2171007,107.354249 45.5849263,107.988044 44.9697721,109.385689 C44.3541843,110.782899 44.9879796,112.41464 46.3856238,113.030228 Z M45.6868017,114.617317 C47.9605746,115.618731 50.6158385,114.586971 51.6172523,112.313198 C52.6186661,110.038992 51.5873399,107.384162 49.3131335,106.382748 C47.0393606,105.381334 44.3840967,106.41266 43.3826829,108.686866 C42.3812691,110.960639 43.4130288,113.615903 45.6868017,114.617317 Z" id="å½¢çŠ¶" fill="#61188E"></path>
                    <path d="M55.7237831,117.539187 C53.0944008,103.266837 39.3391468,93.8183457 25,96.4354793 L25,96.4354793 C25,96.4354793 30.557963,110.667819 32.3382351,120.222316 C32.9125966,123.304718 33.2938467,126.972005 33.5462177,130.543598 C34.0932287,138.288581 41.1471838,144.19394 48.8198416,142.793598 L60,140.753513 L55.7237831,117.539187 Z" id="è·¯å¾„" fill="#A1A1EA" fill-rule="nonzero"></path>
                    <path d="M26.2552244,96.2367292 C25.837507,96.2928253 25.4189607,96.3588207 25,96.4355404 C25,96.4355404 25.1657609,96.8603858 25.4496264,97.6123209 C26.8076226,101.213608 30.8654495,112.318571 32.3382351,120.222346 C32.9125966,123.304744 33.2938467,126.972026 33.5462177,130.543614 C34.0932287,138.288587 41.1471838,144.193938 48.8198416,142.793598 L60,140.753516 L55.7237831,117.53922 C53.1710653,103.683898 40.1335559,94.3748339 26.2552244,96.2367292 Z M26.7069229,97.4262964 C39.8239974,95.817246 52.0861601,104.655268 54.5008821,117.762367 L58.5529073,139.75946 L48.59565,141.576396 C41.7132573,142.832783 35.2858784,137.529228 34.7861092,130.456583 C34.5324951,126.865196 34.1475154,123.14553 33.5607218,119.996724 C32.6535952,115.128738 30.7950011,109.112845 29.1792467,104.350039 C28.3690903,101.961005 27.6144638,99.872251 27.0628944,98.3807549 C26.9323577,98.028092 26.8130099,97.7084267 26.7069229,97.4262964 Z" id="å½¢çŠ¶" fill="#61188E"></path>
                    <path d="M94.4311932,87.8324645 C93.7253858,88.7581389 93.9047926,90.0802903 94.8322201,90.7847635 L99.8138186,94.5696219 C100.741668,95.2740951 102.065901,95.0950274 102.771709,94.169353 L114.706269,78.5201035 C116.824114,75.7426587 116.285471,71.7774687 113.502767,69.6632063 L111.880085,68.4303781 C110.952658,67.7259049 109.628425,67.9049726 108.922195,68.830647 L94.4311932,87.8324645 Z" id="è·¯å¾„" fill="#626282" fill-rule="nonzero"></path>
                    <path d="M100.580835,93.5638936 L95.5992368,89.7790353 C95.2281814,89.4971617 95.1564187,88.9683854 95.4388261,88.5980314 L109.93025,69.5962139 C110.212657,69.2262812 110.742013,69.1542328 111.113068,69.4361064 L112.73575,70.6689346 C114.962082,72.3601759 115.393081,75.5324122 113.698637,77.7545365 L101.764076,93.4037861 C101.481668,93.7741401 100.951891,93.8457672 100.580835,93.5638936 Z M94.8322201,90.7847635 C93.9047926,90.0802903 93.7253858,88.7581389 94.4311932,87.8324645 L108.922195,68.830647 C109.628425,67.9049726 110.952658,67.7259049 111.880085,68.4303781 L113.502767,69.6632063 C116.285471,71.7774687 116.824114,75.7426587 114.706269,78.5201035 L102.771709,94.169353 C102.065901,95.0950274 100.741668,95.2740951 99.8138186,94.5696219 L94.8322201,90.7847635 Z" id="å½¢çŠ¶" fill="#61188E"></path>
                    <path d="M91.1583647,153.46259 C94.5854483,152.610776 96.6661776,149.169736 95.805995,145.776417 L92.8011131,133.917751 C92.4569548,132.560423 91.0671009,131.73606 89.6964381,132.07687 L82,133.989545 L86.6659683,152.401729 C86.9525537,153.533117 88.1108362,154.219805 89.2529131,153.936008 L91.1583647,153.46259 Z" id="è·¯å¾„" fill="#626282" fill-rule="nonzero"></path>
                    <path d="M91.560096,134.226042 L94.5649779,146.084709 C95.2532946,148.799364 93.58837,151.552449 90.8470443,152.233647 L88.9415927,152.707065 C88.4848472,152.820668 88.0212783,152.545739 87.9069853,152.093438 L83.5523375,134.909774 L90.0077585,133.305813 C90.69309,133.135197 91.3882301,133.547379 91.560096,134.226042 Z M95.805995,145.776417 C96.6661776,149.169736 94.5854483,152.610776 91.1583647,153.46259 L89.2529131,153.936008 C88.1108362,154.219805 86.9525537,153.533117 86.6659683,152.401729 L82,133.989545 L89.6964381,132.07687 C91.0671009,131.73606 92.4569548,132.560423 92.8011131,133.917751 L95.805995,145.776417 Z" id="å½¢çŠ¶" fill="#61188E"></path>
                    <path d="M63.9431554,40.1194589 C58.3431785,39.2354486 53.196816,43.3634537 52.8001111,49.0034728 C51.7437547,64.0208779 49.441205,90.8568467 45.9381559,100.772758 C40.9621065,114.857272 36.7994057,130.184536 48.8459401,138.469544 C56.5540605,143.770706 81.4255845,143.382139 98.3405803,142.414865 C107.490546,141.891252 114.090801,133.783129 112.850008,124.72803 C111.389054,114.069782 109.185369,100.178309 106.410927,89.2383705 C101.807905,71.0892324 96.1900662,65.901989 92.6533699,51.2014854 C91.6908933,47.2006551 88.5500711,44.0034706 84.4750193,43.3601397 L63.9431554,40.1194589 Z" id="è·¯å¾„" fill="#E9ECFA" fill-rule="nonzero"></path>
                    <path d="M57.6843577,140.23715 C54.0483813,139.551566 51.2598163,138.619917 49.5533624,137.446345 C43.9679245,133.605002 42.1044502,128.15968 42.2544088,121.825377 C42.406029,115.41651 44.6238375,108.232994 47.1133161,101.185766 C48.9186347,96.0755732 50.3812501,86.7499684 51.5244247,76.9446616 C52.6734148,67.0921303 53.5145952,56.607453 54.0433965,49.0904654 C54.3894229,44.1687565 58.8786262,40.5780341 63.7483338,41.3468828 L84.2801977,44.5875636 C87.8031859,45.1439019 90.583443,47.9239363 91.4416547,51.4914606 C93.1726171,58.6869899 95.4003951,63.6513666 97.7232993,68.828668 C97.8134406,69.0299937 97.9039973,69.2317336 97.994554,69.4338878 C100.406769,74.8145861 102.927402,80.5722523 105.202535,89.5432587 C107.959115,100.412775 110.155738,114.247495 111.61503,124.896216 C112.759036,133.243775 106.683013,140.692826 98.2695473,141.174185 C89.8294961,141.656786 79.4325062,141.993158 70.2002915,141.551567 C65.5831456,141.330771 61.2858561,140.916521 57.6843577,140.23715 Z M52.8001111,49.0034728 C53.196816,43.3634537 58.3431785,39.2354486 63.9431554,40.1194589 L84.4750193,43.3601397 C88.5500711,44.0034706 91.6908933,47.2006551 92.6533699,51.2014854 C94.3573314,58.2830958 96.5439851,63.1571659 98.86772,68.3361243 C101.367168,73.907792 104.025298,79.8324011 106.410927,89.2383705 C109.184954,100.178309 111.389054,114.069782 112.850008,124.72803 C114.090801,133.783129 107.490546,141.891252 98.3405803,142.414865 C81.4255845,143.382139 56.5540605,143.770706 48.8459401,138.469544 C36.7994057,130.184536 40.9621065,114.857272 45.9381559,100.772758 C49.441205,90.8568467 51.7437547,64.0208779 52.8001111,49.0034728 Z" id="å½¢çŠ¶" fill="#61188E"></path>
                    <path d="M52.0012154,63.314103 C51.8625055,68.8240156 63.61381,73.5975048 78.2485364,73.9760323 C92.8836781,74.3549809 104.859659,70.1953885 104.998785,64.685897 C105.137495,59.1764054 93.3857747,54.4029163 78.7510484,54.0239677 C64.116322,53.6450191 52.1399254,57.8046115 52.0012154,63.314103 Z" id="è·¯å¾„" fill="#CAE2FF" fill-rule="nonzero"></path>
                    <path d="M65.737096,154.996444 C63.0409516,154.91671 60.9210337,152.706308 61.0022583,150.05967 L61.4828013,134.429057 C61.5253273,133.04646 62.7015947,131.959418 64.1100537,132.001163 L65.7511295,132.049587 C70.4464181,132.188599 74.1376693,136.037496 73.9960579,140.64657 L73.7838535,147.559974 C73.6537242,151.795013 70.0509269,155.124184 65.737096,154.996444 L65.737096,154.996444 Z" id="è·¯å¾„" fill="#626282" fill-rule="nonzero"></path>
                    <path d="M62.7581542,134.466628 L62.2776111,150.09724 C62.2176495,152.05258 63.7834545,153.685648 65.7753693,153.744508 C69.3849707,153.851376 72.3996343,151.065726 72.5085007,147.522403 L72.7211304,140.609 C72.8414788,136.691224 69.7039152,133.419661 65.7128562,133.301523 L64.0717803,133.252681 C63.3675508,133.231808 62.7794171,133.775329 62.7581542,134.466628 Z M61.0022583,150.05967 C60.9210337,152.706308 63.0409516,154.91671 65.737096,154.996444 C70.0509269,155.124184 73.6537242,151.795013 73.7838535,147.559974 L73.9960579,140.64657 C74.1376693,136.037496 70.4464181,132.188599 65.7511295,132.049587 L64.1100537,132.001163 C62.7015947,131.959418 61.5253273,133.04646 61.4828013,134.429057 L61.0022583,150.05967 Z" id="å½¢çŠ¶" fill="#61188E"></path>
                    <path d="M111,119.668177 C110.382473,114.887496 109.572147,109.068901 108.591033,103 L91.1775824,103.443947 C89.3771749,103.490013 87.9550282,104.986957 88.001088,106.787611 L88.094838,110.46556 C88.2326097,115.867114 92.7224193,120.134546 98.1236419,119.996755 L111,119.668177 Z" id="è·¯å¾„" fill="#C44E26"></path>
                    <path d="M111,119.668177 L98.1236419,119.996755 C92.7224193,120.134546 88.2326097,115.867114 88.094838,110.46556 L88.001088,106.787611 C87.9550282,104.986957 89.3771749,103.490013 91.1775824,103.443947 L108.591033,103 C109.490217,108.561766 110.245924,113.913586 110.84144,118.448853 C110.895652,118.862225 110.948641,119.269074 111,119.668177 Z M109.612092,118.480243 L98.092256,118.774169 C93.366441,118.894838 89.4379086,115.160631 89.3172564,110.434169 L89.2235064,106.75622 C89.1945662,105.631067 90.0835607,104.695477 91.2089683,104.666532 L107.553261,104.249899 C108.367663,109.365681 109.05856,114.269884 109.612092,118.480243 Z" id="å½¢çŠ¶" fill="#61188E"></path>
                    <path d="M60.9254327,18.0368924 C60.3153341,16.5387479 58.6997176,15.7117503 57.1258104,16.0920655 L56.5030354,16.2426069 C54.7467528,16.6669491 53.6676306,18.4327274 54.0924915,20.1866208 L57.0751051,32.5004275 C57.499966,34.2541576 59.2681071,35.3319623 61.0239808,34.9076201 L63.4962706,34.3105187 C65.4402444,33.8408425 66.5107794,31.754255 65.7575611,29.9037309 L60.9254327,18.0368924 Z" id="è·¯å¾„" fill="#626282" fill-rule="nonzero"></path>
                    <path d="M56.7913193,17.4335015 L57.4145031,17.2829601 C58.3979396,17.0452631 59.4079555,17.5621111 59.7890626,18.498482 L64.621191,30.3652388 C65.0918502,31.5218674 64.4228681,32.8259336 63.2079867,33.1195833 L60.7356969,33.7170931 C59.6381736,33.9821538 58.5332899,33.3082706 58.2674963,32.2120872 L55.2848827,19.8985255 C55.019498,18.8023421 55.693796,17.6987256 56.7913193,17.4335015 Z M57.1258104,16.0920655 C58.6997176,15.7117503 60.3153341,16.5387479 60.9254327,18.0368924 L65.7575611,29.9037309 C66.5107794,31.754255 65.4402444,33.8408425 63.4962706,34.3105187 L61.0239808,34.9076201 C59.2681071,35.3319623 57.499966,34.2541576 57.0751051,32.5004275 L54.0924915,20.1866208 C53.6676306,18.4327274 54.7467528,16.6669491 56.5030354,16.2426069 L57.1258104,16.0920655 Z" id="å½¢çŠ¶" fill="#61188E"></path>
                    <path d="M115.916343,52.7033357 C116.662053,46.0928681 112.350554,39.9618328 105.85175,38.3901536 L81.6024729,32.5258826 L60.1417198,27.3734509 C52.3686481,25.5072988 44.7114188,30.8427076 43.8199715,38.7461146 L42.0839952,54.1416327 C41.2660394,61.394234 46.5142433,67.9332617 53.8065065,68.7463558 L100.154293,73.9164616 C107.446556,74.7299687 114.020928,69.5103091 114.838884,62.2577078 L115.916343,52.7033357 Z" id="è·¯å¾„" fill="#FFFFFF" fill-rule="nonzero"></path>
                    <path d="M43.3217243,54.2795572 L45.0581159,38.8840392 C45.8656915,31.7218734 52.8050296,26.886503 59.8494148,28.5776892 L105.557368,39.5938963 C111.447066,41.0181531 115.354154,46.5743651 114.678614,52.5649982 L113.601155,62.1193703 C112.860012,68.6922596 106.901806,73.4225761 100.292971,72.6854644 L53.9456005,67.5153586 C47.3367664,66.7782468 42.5805816,60.8524466 43.3217243,54.2795572 Z M81.6024729,32.5258826 L105.85175,38.3901536 C112.350554,39.9618328 116.662053,46.0928681 115.916343,52.7033357 L114.838884,62.2577078 C114.020928,69.5103091 107.446556,74.7299687 100.154293,73.9164616 L53.8065065,68.7463558 C46.5142433,67.9332617 41.2660394,61.394234 42.0839952,54.1416327 L43.8199715,38.7461146 C44.7114188,30.8427076 52.3686481,25.5072988 60.1417198,27.3734509 L81.6024729,32.5258826 Z" id="å½¢çŠ¶" fill="#61188E"></path>
                    <path d="M55.2106716,43.4640364 C56.1141176,47.243874 59.6623972,49.6522401 63.135815,48.8437142 C66.6092328,48.0351883 68.692603,44.3153814 67.789157,40.5359636 C66.8861365,36.756126 63.3378568,34.3477599 59.864439,35.1562858 C56.3910212,35.9648117 54.3076511,39.6841988 55.2106716,43.4640364 Z" id="è·¯å¾„" fill="#FFFFFF" fill-rule="nonzero"></path>
                    <path d="M62.842748,47.6179116 C60.1664384,48.240888 57.2217321,46.3929487 56.4526971,43.1747974 C55.6836622,39.956646 57.4811963,37.0050647 60.157506,36.3820884 C62.8333903,35.759112 65.7780966,37.6066315 66.5471316,40.8247828 C67.3165919,44.0429342 65.5190577,46.9949353 62.842748,47.6179116 Z M63.135815,48.8437142 C59.6623972,49.6522401 56.1141176,47.243874 55.2106716,43.4640364 C54.3076511,39.6841988 56.3910212,35.9648117 59.864439,35.1562858 C63.3378568,34.3477599 66.8861365,36.756126 67.789157,40.5359636 C68.692603,44.3153814 66.6092328,48.0351883 63.135815,48.8437142 Z" id="å½¢çŠ¶" fill="#61188E"></path>
                    <path d="M60.0253186,40.554167 C59.7789052,42.7494132 61.3589206,44.7283455 63.5541669,44.9747589 C65.7494131,45.2207709 67.7283454,43.6407555 67.9747587,41.4455092 C68.2207708,39.2506642 66.6407554,37.2713306 64.4459104,37.0253186 C62.2506642,36.7789052 60.2713306,38.3589207 60.0253186,40.554167 Z" id="è·¯å¾„" fill="#342E2E" fill-rule="nonzero"></path>
                    <path d="M101.009473,66.3326374 C100.91718,67.1560528 101.509647,67.8982324 102.333063,67.9905264 C103.156053,68.0828203 103.898232,67.4903526 103.990526,66.6673626 C104.08282,65.8439472 103.490353,65.1017676 102.667363,65.0094736 C101.843947,64.9171797 101.101767,65.5096474 101.009473,66.3326374 Z" id="è·¯å¾„" fill="#61188E" fill-rule="nonzero"></path>
                    <path d="M48.9253356,20.0368799 C48.3152456,18.5387343 46.6996518,17.7117769 45.1257666,18.0920515 L44.5030003,18.2425931 C42.7467423,18.6669356 41.6676353,20.4327151 42.0924902,22.1866098 L45.0754709,34.5004257 C45.5003259,36.254157 47.2680333,37.3319625 49.0238824,36.90762 L51.4965464,36.3105182 C53.440084,35.8408417 54.511013,33.7542526 53.7573963,31.9037271 L48.9253356,20.0368799 Z" id="è·¯å¾„" fill="#626282" fill-rule="nonzero"></path>
                    <path d="M44.7912802,19.4334885 L45.4144553,19.282947 C46.397878,19.0452498 47.4078797,19.5620982 47.7889815,20.4984699 L52.6210422,32.3652354 C53.0921037,33.5218649 52.422722,34.8259319 51.2078577,35.1195819 L48.7356025,35.7170921 C47.6380946,35.982153 46.5332264,35.3082693 46.2678454,34.2120851 L43.2848647,21.8985143 C43.0194837,20.8023302 43.6937723,19.6987128 44.7912802,19.4334885 Z M45.1257666,18.0920515 C46.6996518,17.7117769 48.3152456,18.5387343 48.9253356,20.0368799 L53.7573963,31.9037271 C54.511013,33.7542526 53.440084,35.8408417 51.4965464,36.3105182 L49.0238824,36.90762 C47.2680333,37.3319625 45.5003259,36.254157 45.0754709,34.5004257 L42.0924902,22.1866098 C41.6676353,20.4327151 42.7467423,18.6669356 44.5030003,18.2425931 L45.1257666,18.0920515 Z" id="å½¢çŠ¶" fill="#61188E"></path>
                    <path d="M65.1056438,27.469132 L79.1320903,0 L80,30.6799413 C79.3135699,33.7128826 75.3735286,35.6723832 71.2604093,34.7855032 C67.1477102,33.8990331 64.4192137,30.5019913 65.1056438,27.469132 Z" id="è·¯å¾„" fill="#C44E26" fill-rule="nonzero"></path>
                    <path d="M79.1320903,0 L80,30.6799413 C79.3135699,33.7128826 75.3735286,35.6723832 71.2604093,34.7855032 C67.1477102,33.8990331 64.4192137,30.5019913 65.1056438,27.469132 L79.1320903,0 Z M78.0112852,4.95234163 L78.7355236,30.549554 C78.4553223,31.5660014 77.6302619,32.4906036 76.3607444,33.0978479 C75.0412359,33.7288735 73.3201196,33.9699671 71.5322088,33.5845454 C69.7442979,33.1991236 68.2874194,32.2728813 67.3632173,31.1584384 C66.4734628,30.0854078 66.1239464,28.9074933 66.3087868,27.8706267 L78.0112852,4.95234163 Z" id="å½¢çŠ¶" fill="#61188E"></path>
                    <path d="M85.0669983,93.3434218 C87.1174978,93.8401629 88.3834547,95.9328441 87.8953599,98.0174585 L87.8953599,98.0174585 C87.4068475,100.102498 85.3488324,101.390203 83.2983329,100.893462 L69.9331345,97.6565782 C67.882635,97.1602617 66.6162605,95.0671559 67.1047729,92.9825415 L67.1047729,92.9825415 C67.5932853,90.8975024 69.6513004,89.6097966 71.7017999,90.1065377 L85.0669983,93.3434218 Z" id="è·¯å¾„" fill="#ECCE33" fill-rule="nonzero"></path>
                    <path d="M70.1264518,96.8307992 L83.4920677,100.067683 C85.0937203,100.455311 86.701636,99.4495165 87.0828426,97.8208849 C87.4644669,96.1922533 86.4753336,94.5572533 84.8732635,94.1692008 L71.5080651,90.9323168 C69.9064124,90.5446889 68.2984968,91.5504835 67.9172901,93.1791151 C67.5356659,94.8077467 68.5247991,96.4427467 70.1264518,96.8307992 Z M87.8953599,98.0174585 C88.3834547,95.9328441 87.1174978,93.8401629 85.0669983,93.3434218 L71.7017999,90.1065377 C69.6513004,89.6097966 67.5932853,90.8975024 67.1047729,92.9825415 C66.6162605,95.0671559 67.882635,97.1602617 69.9331345,97.6565782 L83.2983329,100.893462 C85.3488324,101.390203 87.4068475,100.102498 87.8953599,98.0174585 Z" id="å½¢çŠ¶" fill="#61188E"></path>
                    <path d="M70.2162211,96.4486906 L83.5814195,99.6855747 C84.9755588,100.023104 86.375126,99.1476507 86.7070639,97.730028 C87.0394193,96.3119807 86.1784684,94.8892632 84.7839116,94.5513094 L71.4187132,91.3144253 C70.024574,90.9768961 68.6250068,91.8523493 68.2926514,93.269972 C67.9607134,94.6880193 68.8216644,96.1107368 70.2162211,96.4486906 Z M87.8953599,98.0174585 C88.3834547,95.9328441 87.1174978,93.8401629 85.0669983,93.3434218 L71.7017999,90.1065377 C69.6513004,89.6097966 67.5932853,90.8975024 67.1047729,92.9825415 C66.6162605,95.0671559 67.882635,97.1602617 69.9331345,97.6565782 L83.2983329,100.893462 C85.3488324,101.390203 87.4068475,100.102498 87.8953599,98.0174585 Z" id="å½¢çŠ¶" fill="#61188E"></path>
                    <path d="M83.5814195,99.6855747 L70.2162211,96.4486906 C68.8216644,96.1107368 67.9607134,94.6880193 68.2926514,93.269972 C68.6250068,91.8523493 70.024574,90.9768961 71.4187132,91.3144253 L84.7839116,94.5513094 C86.1784684,94.8892632 87.0394193,96.3119807 86.7070639,97.730028 C86.375126,99.1476507 84.9755588,100.023104 83.5814195,99.6855747 Z M85.0669983,93.3434218 C87.1174978,93.8401629 88.3834547,95.9328441 87.8953599,98.0174585 C87.4068475,100.102498 85.3488324,101.390203 83.2983329,100.893462 L69.9331345,97.6565782 C67.882635,97.1602617 66.6162605,95.0671559 67.1047729,92.9825415 C67.5932853,90.8975024 69.6513004,89.6097966 71.7017999,90.1065377 L85.0669983,93.3434218 Z" id="å½¢çŠ¶" fill="#61188E"></path>
                    <path d="M97.2204812,112.670778 C90.7746569,111.135511 86.7939553,104.665897 88.3292223,98.2200723 C89.8644893,91.7746581 96.3341034,87.7939566 102.779928,89.3292236 C109.225342,90.8644905 113.206043,97.3341047 111.670776,103.779519 C110.13592,110.225343 103.665895,114.206045 97.2204812,112.670778 Z" id="è·¯å¾„" fill="url(#radialGradient-1)" fill-rule="nonzero"></path>
                    <path d="M89.1274135,98.4103912 C87.6971501,104.415283 91.4054986,110.442323 97.41039,111.872587 C103.415281,113.30285 109.442732,109.594501 110.872995,103.58961 C112.303259,97.5847187 108.5945,91.5572679 102.590019,90.1270045 C96.5851276,88.6967411 90.5576769,92.4054999 89.1274135,98.4103912 Z M88.3292223,98.2200723 C86.7939553,104.665897 90.7746569,111.135511 97.2204812,112.670778 C103.665895,114.206045 110.13592,110.225343 111.670776,103.779519 C113.206043,97.3341047 109.225342,90.8644905 102.779928,89.3292236 C96.3341034,87.7939566 89.8644893,91.7746581 88.3292223,98.2200723 Z" id="å½¢çŠ¶" fill="#61188E"></path>
                    <path d="M95.6777572,116.561093 C86.8150621,114.514194 81.3417639,105.88786 83.4526522,97.2938291 C85.5635406,88.6997979 94.4595477,83.3920084 103.322243,85.4389072 C112.184938,87.4858061 117.658236,96.1121396 115.547348,104.706171 C113.436459,113.300202 104.540874,118.607992 95.6777572,116.561093 Z M102.287461,89.6525095 C95.8244989,88.1600642 89.337502,92.0301996 87.7979787,98.297243 C86.2584555,104.564286 90.2499995,110.854636 96.7129611,112.347491 C103.175923,113.839936 109.66292,109.9698 111.202021,103.702757 C112.741545,97.4357136 108.750001,91.1453636 102.287461,89.6525095 Z" id="å½¢çŠ¶" fill="#ECCE33" fill-rule="nonzero"></path>
                    <path d="M84.2732253,97.4831448 C82.2702849,105.638029 87.4635931,113.823171 95.8734128,115.765395 C104.282811,117.707618 112.724256,112.67174 114.727196,104.516855 C116.730137,96.3619709 111.536407,88.1768287 103.127009,86.2346054 C94.7171891,84.2923822 86.2761657,89.3286693 84.2732253,97.4831448 Z M86.9774057,98.1079273 C88.6248769,91.4013282 95.5668575,87.2596904 102.482695,88.8572202 C109.398532,90.454341 113.670066,97.1858824 112.022594,103.892073 C110.375545,110.598672 103.433564,114.74031 96.5173055,113.14278 C89.6014685,111.545659 85.3303562,104.814118 86.9774057,98.1079273 Z M83.4526522,97.2938291 C81.3417639,105.88786 86.8150621,114.514194 95.6777572,116.561093 C104.540874,118.607992 113.436459,113.300202 115.547348,104.706171 C117.658236,96.1121396 112.184938,87.4858061 103.322243,85.4389072 C94.4595477,83.3920084 85.5635406,88.6997979 83.4526522,97.2938291 Z M87.7979787,98.297243 C89.337502,92.0301996 95.8244989,88.1600642 102.287461,89.6525095 C108.750001,91.1453636 112.741545,97.4357136 111.202021,103.702757 C109.66292,109.9698 103.175923,113.839936 96.7129611,112.347491 C90.2499995,110.854636 86.2584555,104.564286 87.7979787,98.297243 Z" id="å½¢çŠ¶" fill="#61188E"></path>
                    <path d="M84.6523081,97.5706471 C82.6995466,105.522314 87.7634017,113.503829 95.9636506,115.397394 C104.163899,117.291369 112.394509,112.380611 114.347692,104.429353 C116.300875,96.4776865 111.236598,88.49658 103.036349,86.6026056 C94.8365222,84.7086313 86.6054913,89.6193895 84.6523081,97.5706471 Z M86.5983229,98.0200162 C88.2951296,91.110608 95.4475244,86.8434413 102.572932,88.48922 C109.698762,90.1349986 114.099327,97.0701668 112.402099,103.979984 C110.70487,110.889392 103.552476,115.156559 96.4270677,113.51078 C89.3016599,111.865001 84.9010944,104.929833 86.5983229,98.0200162 Z M83.4526522,97.2938291 C81.3417639,105.88786 86.8150621,114.514194 95.6777572,116.561093 C104.540874,118.607992 113.436459,113.300202 115.547348,104.706171 C117.658236,96.1121396 112.184938,87.4858061 103.322243,85.4389072 C94.4595477,83.3920084 85.5635406,88.6997979 83.4526522,97.2938291 Z M87.7979787,98.297243 C89.337502,92.0301996 95.8244989,88.1600642 102.287461,89.6525095 C108.750001,91.1453636 112.741545,97.4357136 111.202021,103.702757 C109.66292,109.9698 103.175923,113.839936 96.7129611,112.347491 C90.2499995,110.854636 86.2584555,104.564286 87.7979787,98.297243 Z" id="å½¢çŠ¶" fill="#61188E"></path>
                    <path d="M95.9636506,115.397394 C87.7634017,113.503829 82.6995466,105.522314 84.6523081,97.5706471 C86.6054913,89.6193895 94.8365222,84.7086313 103.036349,86.6026056 C111.236598,88.49658 116.300875,96.4776865 114.347692,104.429353 C112.394509,112.380611 104.163899,117.291369 95.9636506,115.397394 Z M102.572932,88.48922 C95.4475244,86.8434413 88.2951296,91.110608 86.5983229,98.0200162 C84.9010944,104.929833 89.3016599,111.865001 96.4270677,113.51078 C103.552476,115.156559 110.70487,110.889392 112.402099,103.979984 C114.099327,97.0701668 109.698762,90.1349986 102.572932,88.48922 Z M95.6777572,116.561093 C86.8150621,114.514194 81.3417639,105.88786 83.4526522,97.2938291 C85.5635406,88.6997979 94.4595477,83.3920084 103.322243,85.4389072 C112.184938,87.4858061 117.658236,96.1121396 115.547348,104.706171 C113.436459,113.300202 104.540874,118.607992 95.6777572,116.561093 Z M102.287461,89.6525095 C95.8244989,88.1600642 89.337502,92.0301996 87.7979787,98.297243 C86.2584555,104.564286 90.2499995,110.854636 96.7129611,112.347491 C103.175923,113.839936 109.66292,109.9698 111.202021,103.702757 C112.741545,97.4357136 108.750001,91.1453636 102.287461,89.6525095 Z" id="å½¢çŠ¶" fill="#61188E"></path>
                    <path d="M69.4170343,76.8079835 C68.7268484,75.8962185 67.4467042,75.7314316 66.5585074,76.4399316 L61.7870979,80.2463411 C60.8989012,80.954841 60.7383738,82.2685354 61.4285598,83.1807186 L73.0830869,98.5757443 C75.1540522,101.311457 78.9936699,101.805818 81.6586677,99.6799 L83.2126046,98.439816 C84.1012089,97.7313161 84.2617362,96.4176218 83.5711428,95.5054386 L69.4170343,76.8079835 Z" id="è·¯å¾„" fill="#626282" fill-rule="nonzero"></path>
                    <path d="M62.5371761,81.2371536 L67.3085855,77.430744 C67.6638642,77.147595 68.175596,77.2132588 68.4518333,77.5779648 L82.6063492,96.2754199 C82.8821791,96.6401259 82.8182127,97.1658546 82.462934,97.4494218 L80.9085896,98.6890876 C78.7765098,100.389655 75.7048972,99.9944171 74.0478805,97.805763 L62.3937608,82.4107373 C62.1175234,82.0460313 62.1818973,81.5203026 62.5371761,81.2371536 Z M66.5585074,76.4399316 C67.4467042,75.7314316 68.7268484,75.8962185 69.4170343,76.8079835 L83.5711428,95.5054386 C84.2617362,96.4176218 84.1012089,97.7313161 83.2126046,98.439816 L81.6586677,99.6799 C78.9936699,101.805818 75.1540522,101.311457 73.0830869,98.5757443 L61.4285598,83.1807186 C60.7383738,82.2685354 60.8989012,80.954841 61.7870979,80.2463411 L66.5585074,76.4399316 Z" id="å½¢çŠ¶" fill="#61188E"></path>
                    <path d="M77.4734119,66.8376456 C76.5533719,66.4339943 75.3463629,65.8562795 74.1797904,65.1547372 C72.9558242,64.4188228 71.9492587,63.6247403 71.2492282,63.0139754 C70.8996478,62.7090337 70.6278969,62.451684 70.4452802,62.2718917 C70.3544067,62.1824363 70.2852733,62.1123702 70.2404887,62.0656594 C70.217879,62.0423041 70.2013566,62.025118 70.1909213,62.0136607 L70.1796165,62.0022033 L70.1778773,62 C70.1778773,62 70.1778773,62 69.5887212,62.5587661 C68.9995652,63.1175323 69,63.1175323 69,63.1175323 L69.0008696,63.1188543 L69.0026088,63.1206169 L69.0073916,63.1259049 L69.0247837,63.144413 C69.0395669,63.1598363 69.0604374,63.1818697 69.0873951,63.2100724 C69.1417453,63.2660371 69.2200096,63.3457979 69.3217531,63.4458294 C69.5243706,63.6454517 69.8200357,63.9252754 70.1965738,64.2535726 C70.9487804,64.9092855 72.0323058,65.7646207 73.3562764,66.5609065 C74.6019827,67.3100409 75.8750815,67.9181618 76.8325145,68.3381177 C77.3121005,68.5487567 77.7155963,68.7131256 77.9999565,68.8254958 C78.1425714,68.8814605 78.255185,68.9246459 78.3330145,68.9541706 C78.3721466,68.9687126 78.4025827,68.98017 78.4234532,68.9876613 L78.4478021,68.9964747 L78.4543241,68.9991187 L78.4569329,69 C78.4569329,69 78.4573677,69.0004407 78.7286839,68.2301542 C79,67.4598678 79,67.4603085 79,67.4603085 L78.9991304,67.4598678 L78.9947824,67.4581051 L78.9756511,67.4510545 C78.9578243,67.4444444 78.9313014,67.4347498 78.8956476,67.4215297 C78.824775,67.394649 78.719553,67.3545483 78.5851994,67.3012276 C78.316492,67.1954674 77.9321275,67.0385899 77.4734119,66.8376456 Z" id="è·¯å¾„" fill="#61188E"></path>
                </g>
            </g>
        </g>
    </g>
</svg>