<?xml version="1.0" encoding="UTF-8"?>
<svg width="460px" height="225px" viewBox="0 0 460 225" version="1.1" xmlns="http://www.w3.org/2000/svg" xmlns:xlink="http://www.w3.org/1999/xlink">
    <title>2</title>
    <g id="ðŸ“è®¾è®¡å¸ˆæ¨¡å¼" stroke="none" stroke-width="1" fill="none" fill-rule="evenodd">
        <g id="æ¦‚è¿°-èµ„æºä¸Žä¸‹è½½" transform="translate(-820.000000, -836.000000)">
            <g id="2" transform="translate(820.000000, 836.000000)">
                <rect id="çŸ©å½¢" fill="#FFFFFF" fill-rule="nonzero" x="0" y="0" width="460" height="225"></rect>
                <polygon id="è·¯å¾„" fill="#55ADF5" fill-rule="nonzero" points="460 0 0 0 0 225 460 225"></polygon>
                <polygon id="è·¯å¾„" fill="#E9E4FD" fill-rule="nonzero" points="216.335 15.8077 317.986 15.8077 317.986 70.8804 216.335 70.8804"></polygon>
                <path d="M315.622,18.1765 L218.699,18.1765 L218.699,68.5117 L315.622,68.5117 L315.622,18.1765 Z M216.335,15.8077 L216.335,70.8804 L317.986,70.8804 L317.986,15.8077 L216.335,15.8077 Z" id="å½¢çŠ¶" fill="#61188E"></path>
                <polygon id="è·¯å¾„" fill="#61188E" fill-rule="nonzero" points="212.777 12.2383 220.401 12.2383 220.401 19.8873 212.777 19.8873"></polygon>
                <polygon id="è·¯å¾„" fill="#61188E" fill-rule="nonzero" points="312.395 65.7811 321.544 65.7811 321.544 73.4301 312.395 73.4301"></polygon>
                <path d="M233.107,43.5991 C233.107,45.9929 231.628,47.9335 229.804,47.9335 C227.979,47.9335 226.5,45.9929 226.5,43.5991 C226.5,41.2052 227.979,39.2646 229.804,39.2646 C231.628,39.2646 233.107,41.2052 233.107,43.5991 Z" id="è·¯å¾„" fill="#FFFFFF" fill-rule="nonzero"></path>
                <path d="M231.688,45.0521 C232.005,44.7339 232.26,44.2279 232.26,43.5991 C232.26,42.9703 232.005,42.4643 231.688,42.1461 C231.376,41.833 231.06,41.7415 230.82,41.7415 C230.58,41.7415 230.264,41.833 229.952,42.1461 C229.635,42.4643 229.38,42.9703 229.38,43.5991 C229.38,44.2279 229.635,44.7339 229.952,45.0521 C230.264,45.3651 230.58,45.4567 230.82,45.4567 C231.06,45.4567 231.376,45.3651 231.688,45.0521 Z M230.82,47.9335 C233.206,47.9335 235.14,45.9929 235.14,43.5991 C235.14,41.2052 233.206,39.2646 230.82,39.2646 C228.434,39.2646 226.5,41.2052 226.5,43.5991 C226.5,45.9929 228.434,47.9335 230.82,47.9335 Z" id="å½¢çŠ¶" fill="#61188E"></path>
                <path d="M264.111,61.7018 C264.111,59.4487 265.843,57.6223 267.981,57.6223 L281.079,57.6223 C283.217,57.6223 284.949,59.4487 284.949,61.7018 L284.949,61.7018 C284.949,63.9548 283.217,65.7812 281.079,65.7812 L267.981,65.7812 C265.843,65.7812 264.111,63.9548 264.111,61.7018 L264.111,61.7018 Z" id="è·¯å¾„" fill="#C44E26" fill-rule="nonzero"></path>
                <path d="M281.079,60.1327 L267.981,60.1327 C267.159,60.1327 266.492,60.8352 266.492,61.7018 C266.492,62.5683 267.159,63.2708 267.981,63.2708 L281.079,63.2708 C281.901,63.2708 282.568,62.5683 282.568,61.7018 C282.568,60.8352 281.901,60.1327 281.079,60.1327 Z M267.981,57.6223 C265.843,57.6223 264.111,59.4487 264.111,61.7018 C264.111,63.9548 265.843,65.7812 267.981,65.7812 L281.079,65.7812 C283.217,65.7812 284.949,63.9548 284.949,61.7018 C284.949,59.4487 283.217,57.6223 281.079,57.6223 L267.981,57.6223 Z" id="å½¢çŠ¶" fill="#61188E"></path>
                <path d="M305.984,60.1327 L292.885,60.1327 C292.063,60.1327 291.397,60.8352 291.397,61.7018 C291.397,62.5683 292.063,63.2708 292.885,63.2708 L305.984,63.2708 C306.806,63.2708 307.472,62.5683 307.472,61.7018 C307.472,60.8352 306.806,60.1327 305.984,60.1327 Z M292.885,57.6223 C290.748,57.6223 289.015,59.4487 289.015,61.7018 C289.015,63.9548 290.748,65.7812 292.885,65.7812 L305.984,65.7812 C308.121,65.7812 309.854,63.9548 309.854,61.7018 C309.854,59.4487 308.121,57.6223 305.984,57.6223 L292.885,57.6223 Z" id="å½¢çŠ¶" fill="#61188E"></path>
                <path d="M223.451,28.0462 C223.451,26.3564 224.766,24.9866 226.389,24.9866 L276.929,24.9866 C278.551,24.9866 279.867,26.3564 279.867,28.0462 L279.867,28.0462 C279.867,29.7359 278.551,31.1058 276.929,31.1058 L226.389,31.1058 C224.766,31.1058 223.451,29.7359 223.451,28.0462 L223.451,28.0462 Z" id="è·¯å¾„" fill="#FFFFFF" fill-rule="nonzero"></path>
                <path d="M237.682,42.8343 C237.682,41.1445 238.999,39.7747 240.624,39.7747 L290.647,39.7747 C292.272,39.7747 293.59,41.1445 293.59,42.8343 L293.59,42.8343 C293.59,44.524 292.272,45.8938 290.647,45.8938 L240.624,45.8938 C238.999,45.8938 237.682,44.524 237.682,42.8343 L237.682,42.8343 Z" id="è·¯å¾„" fill="#FFFFFF" fill-rule="nonzero"></path>
                <path d="M145.179,142.271 C145.179,149.533 143.033,156.631 139.012,162.669 C134.991,168.707 129.276,173.413 122.589,176.191 C115.902,178.97 108.544,179.697 101.446,178.281 C94.3473,176.864 87.8268,173.367 82.709,168.233 C77.5912,163.098 74.1059,156.556 72.6939,149.434 C71.2819,142.312 72.0066,134.93 74.7763,128.221 C77.5461,121.512 82.2364,115.778 88.2544,111.744 C94.2723,107.709 101.347,105.556 108.585,105.556 L108.585,142.271 L145.179,142.271 Z" id="è·¯å¾„" fill="#E9ECFA" fill-rule="nonzero"></path>
                <path d="M108.585,142.271 L108.585,105.556 C107.789,105.556 106.996,105.582 106.205,105.634 C99.8045,106.052 93.6106,108.153 88.2544,111.744 C82.2364,115.778 77.5461,121.512 74.7763,128.221 C72.0066,134.93 71.2819,142.312 72.6939,149.434 C74.1059,156.556 77.5912,163.098 82.709,168.233 C87.8268,173.367 94.3473,176.864 101.446,178.281 C108.544,179.697 115.902,178.97 122.589,176.191 C129.276,173.413 134.991,168.707 139.012,162.669 C142.595,157.29 144.689,151.068 145.103,144.64 C145.154,143.853 145.179,143.063 145.179,142.271 L108.585,142.271 Z M142.718,144.64 L106.205,144.64 L106.205,108.008 C100.28,108.423 94.548,110.38 89.5841,113.708 C83.9578,117.48 79.5698,122.843 76.9779,129.121 C74.3858,135.399 73.7073,142.309 75.029,148.975 C76.3506,155.642 79.6124,161.762 84.3988,166.564 C89.185,171.366 95.2806,174.634 101.914,175.958 C108.547,177.282 115.423,176.603 121.672,174.006 C127.922,171.408 133.266,167.009 137.028,161.36 C140.352,156.37 142.307,150.603 142.718,144.64 Z" id="å½¢çŠ¶" fill="#61188E"></path>
                <polygon id="è·¯å¾„" fill="#61188E" fill-rule="nonzero" points="105.027 90.7686 111.2 85.1586 116.791 91.3515 110.619 96.9614"></polygon>
                <polygon id="è·¯å¾„" fill="#61188E" fill-rule="nonzero" points="52.1689 137.682 58.3415 132.072 63.9329 138.265 57.7604 143.875"></polygon>
                <polygon id="è·¯å¾„" fill="#61188E" points="111.226 92.3437 59.327 138.38 57.7598 136.602 109.659 90.5651"></polygon>
                <path d="M346.956,210.857 C346.956,205.928 294.619,201.933 230.058,201.933 C165.496,201.933 113.159,205.928 113.159,210.857 C113.159,215.785 165.496,219.781 230.058,219.781 C294.619,219.781 346.956,215.785 346.956,210.857 Z" id="è·¯å¾„" fill="#207EEA" fill-rule="nonzero"></path>
                <polygon id="è·¯å¾„" fill="#FFFFFF" fill-rule="nonzero" points="132.981 34.1654 264.111 34.1654 264.111 197.344 132.981 197.344"></polygon>
                <path d="M261.737,36.0795 L135.354,36.0795 L135.354,195.43 L261.737,195.43 L261.737,36.0795 Z M132.981,34.1654 L132.981,197.344 L264.111,197.344 L264.111,34.1654 L132.981,34.1654 Z" id="å½¢çŠ¶" fill="#61188E"></path>
                <path d="M149.245,176.947 C149.245,173.285 152.165,170.317 155.768,170.317 L171.185,170.317 C174.787,170.317 177.707,173.285 177.707,176.947 C177.707,180.608 174.787,183.576 171.185,183.576 L155.768,183.576 C152.165,183.576 149.245,180.608 149.245,176.947 Z" id="è·¯å¾„" fill="#ECCE33" fill-rule="nonzero"></path>
                <path d="M171.185,172.728 L155.768,172.728 C153.475,172.728 151.617,174.617 151.617,176.947 C151.617,179.276 153.475,181.165 155.768,181.165 L171.185,181.165 C173.477,181.165 175.336,179.276 175.336,176.947 C175.336,174.617 173.477,172.728 171.185,172.728 Z M155.768,170.317 C152.165,170.317 149.245,173.285 149.245,176.947 C149.245,180.608 152.165,183.576 155.768,183.576 L171.185,183.576 C174.787,183.576 177.707,180.608 177.707,176.947 C177.707,173.285 174.787,170.317 171.185,170.317 L155.768,170.317 Z" id="å½¢çŠ¶" fill="#61188E"></path>
                <path d="M183.298,176.947 C183.298,173.285 186.21,170.317 189.802,170.317 L205.765,170.317 C209.357,170.317 212.269,173.285 212.269,176.947 L212.269,176.947 C212.269,180.608 209.357,183.576 205.765,183.576 L189.802,183.576 C186.21,183.576 183.298,180.608 183.298,176.947 L183.298,176.947 Z" id="è·¯å¾„" fill="#FFF8F8" fill-rule="nonzero"></path>
                <path d="M205.765,172.728 L189.802,172.728 C187.516,172.728 185.663,174.617 185.663,176.947 C185.663,179.276 187.516,181.165 189.802,181.165 L205.765,181.165 C208.051,181.165 209.904,179.276 209.904,176.947 C209.904,174.617 208.051,172.728 205.765,172.728 Z M189.802,170.317 C186.21,170.317 183.298,173.285 183.298,176.947 C183.298,180.608 186.21,183.576 189.802,183.576 L205.765,183.576 C209.357,183.576 212.269,180.608 212.269,176.947 C212.269,173.285 209.357,170.317 205.765,170.317 L189.802,170.317 Z" id="å½¢çŠ¶" fill="#61188E"></path>
                <path d="M139.589,48.1887 C139.589,44.3867 142.638,41.3046 146.398,41.3046 L251.203,41.3046 C254.964,41.3046 258.012,44.3867 258.012,48.1887 L258.012,48.1887 C258.012,51.9906 254.964,55.0727 251.203,55.0727 L146.398,55.0727 C142.638,55.0727 139.589,51.9906 139.589,48.1887 L139.589,48.1887 Z" id="è·¯å¾„" fill="#E9ECFA" fill-rule="nonzero"></path>
                <path d="M251.203,43.699 L146.398,43.699 C143.946,43.699 141.957,45.7091 141.957,48.1887 C141.957,50.6682 143.946,52.6783 146.398,52.6783 L251.203,52.6783 C253.656,52.6783 255.644,50.6682 255.644,48.1887 C255.644,45.7091 253.656,43.699 251.203,43.699 Z M146.398,41.3046 C142.638,41.3046 139.589,44.3867 139.589,48.1887 C139.589,51.9906 142.638,55.0727 146.398,55.0727 L251.203,55.0727 C254.964,55.0727 258.012,51.9906 258.012,48.1887 C258.012,44.3867 254.964,41.3046 251.203,41.3046 L146.398,41.3046 Z" id="å½¢çŠ¶" fill="#61188E"></path>
                <path d="M152.295,48.1886 C152.295,50.0192 150.816,51.5031 148.991,51.5031 C147.167,51.5031 145.688,50.0192 145.688,48.1886 C145.688,46.358 147.167,44.874 148.991,44.874 C150.816,44.874 152.295,46.358 152.295,48.1886 Z" id="è·¯å¾„" fill="#FC7777" fill-rule="nonzero"></path>
                <path d="M162.46,48.1886 C162.46,50.0192 160.981,51.5031 159.156,51.5031 C157.332,51.5031 155.853,50.0192 155.853,48.1886 C155.853,46.358 157.332,44.874 159.156,44.874 C160.981,44.874 162.46,46.358 162.46,48.1886 Z" id="è·¯å¾„" fill="#FCB777" fill-rule="nonzero"></path>
                <path d="M172.625,48.1886 C172.625,50.0192 171.146,51.5031 169.321,51.5031 C167.497,51.5031 166.018,50.0192 166.018,48.1886 C166.018,46.358 167.497,44.874 169.321,44.874 C171.146,44.874 172.625,46.358 172.625,48.1886 Z" id="è·¯å¾„" fill="#79D57D" fill-rule="nonzero"></path>
                <path d="M328.396,173.752 C332.2,160.684 345.842,153.183 358.867,156.999 L358.867,156.999 C358.867,156.999 352.356,169.75 349.791,178.496 C349.587,179.193 349.39,179.923 349.201,180.679 C346.488,191.514 335.89,199.015 325.201,195.884 L322.211,195.008 L328.396,173.752 Z" id="è·¯å¾„" fill="#A1A1EA" fill-rule="nonzero"></path>
                <path d="M357.103,156.552 C357.692,156.678 358.28,156.827 358.867,156.999 C358.867,156.999 358.562,157.596 358.059,158.619 C356.235,162.328 351.801,171.642 349.791,178.496 C349.587,179.193 349.39,179.923 349.201,180.679 C346.488,191.514 335.89,199.015 325.201,195.884 L322.211,195.008 L328.396,173.752 C332.028,161.273 344.632,153.871 357.103,156.552 Z M356.286,158.201 C344.863,155.983 333.426,162.822 330.1,174.251 L324.411,193.798 L325.698,194.175 C335.233,196.968 344.962,190.302 347.48,180.245 C347.674,179.47 347.877,178.716 348.089,177.994 C349.408,173.493 351.722,168.023 353.677,163.728 C354.659,161.57 355.56,159.688 356.216,158.345 C356.24,158.296 356.263,158.248 356.286,158.201 Z" id="å½¢çŠ¶" fill="#61188E"></path>
                <path d="M297.253,125.181 C298.711,125.919 299.297,127.703 298.562,129.166 L296.913,132.447 C296.177,133.911 294.399,134.499 292.94,133.761 L279.031,126.723 C275.488,124.931 274.065,120.597 275.851,117.043 L275.851,117.043 C276.447,115.859 277.887,115.382 279.067,115.98 L297.253,125.181 Z" id="è·¯å¾„" fill="#626282" fill-rule="nonzero"></path>
                <path d="M295.328,131.646 L296.977,128.365 C297.271,127.779 297.037,127.066 296.454,126.77 L278.268,117.57 C277.963,117.415 277.59,117.538 277.436,117.845 C276.091,120.521 277.163,123.784 279.83,125.134 L293.739,132.171 C294.323,132.466 295.034,132.231 295.328,131.646 Z M298.562,129.166 C299.297,127.703 298.711,125.919 297.253,125.181 L279.067,115.98 C277.887,115.382 276.447,115.859 275.851,117.043 C274.065,120.597 275.488,124.931 279.031,126.723 L292.94,133.761 C294.399,134.499 296.177,133.911 296.913,132.447 L298.562,129.166 Z" id="å½¢çŠ¶" fill="#61188E"></path>
                <path d="M307.344,206.658 C303.636,207.966 299.572,206.01 298.268,202.289 L295.415,194.15 C294.765,192.295 295.737,190.262 297.586,189.609 L303.192,187.632 L308.796,203.622 C309.23,204.863 308.581,206.222 307.344,206.658 L307.344,206.658 Z" id="è·¯å¾„" fill="#626282" fill-rule="nonzero"></path>
                <path d="M297.089,193.559 L299.942,201.699 C300.921,204.492 303.971,205.96 306.756,204.978 C307.067,204.868 307.231,204.526 307.122,204.213 L302.106,189.902 L298.175,191.289 C297.25,191.615 296.764,192.632 297.089,193.559 Z M298.268,202.289 C299.572,206.01 303.636,207.966 307.344,206.658 C308.581,206.222 309.23,204.863 308.796,203.622 L303.192,187.632 L297.586,189.609 C295.737,190.262 294.765,192.295 295.415,194.15 L298.268,202.289 Z" id="å½¢çŠ¶" fill="#61188E"></path>
                <path d="M336.593,92.7305 C337.721,91.6628 339.457,91.5836 340.677,92.5442 L340.677,92.5442 C342.038,93.6159 342.275,95.5915 341.207,96.9568 L335.235,104.589 C333.921,106.269 331.499,106.561 329.824,105.243 L329.824,105.243 C327.971,103.783 327.846,101.012 329.559,99.3896 L336.593,92.7305 Z" id="è·¯å¾„" fill="#626282" fill-rule="nonzero"></path>
                <path d="M333.839,103.49 L339.811,95.8574 C340.274,95.2656 340.171,94.4093 339.581,93.9447 C339.052,93.5283 338.3,93.5627 337.811,94.0255 L330.777,100.685 C329.853,101.56 329.92,103.055 330.92,103.842 C331.823,104.554 333.13,104.396 333.839,103.49 Z M340.677,92.5442 C339.457,91.5836 337.721,91.6628 336.593,92.7305 L329.559,99.3896 C327.846,101.012 327.971,103.783 329.824,105.243 C331.499,106.561 333.921,106.269 335.235,104.589 L341.207,96.9568 C342.275,95.5915 342.038,93.6159 340.677,92.5442 Z" id="å½¢çŠ¶" fill="#61188E"></path>
                <path d="M322.778,101.825 C330.662,101.395 337.254,107.768 337.119,115.689 L335.959,183.712 C335.82,191.849 328.66,198.057 320.615,197.016 L296.192,193.857 C282.525,192.089 273.245,179.017 276.776,165.652 C278.78,158.071 281.141,149.953 283.618,143.153 C289.094,128.124 294.318,123.26 298.745,112.337 C300.958,106.877 305.815,102.749 311.682,102.429 L322.778,101.825 Z" id="è·¯å¾„" fill="#E9ECFA" fill-rule="nonzero"></path>
                <path d="M334.184,183.681 L335.344,115.658 C335.462,108.77 329.73,103.229 322.874,103.603 L311.778,104.207 C306.723,104.482 302.394,108.06 300.389,113.008 C298.421,117.865 296.289,121.57 294.114,125.349 C293.782,125.926 293.449,126.505 293.115,127.09 C290.598,131.503 287.976,136.38 285.285,143.765 C282.835,150.49 280.489,158.549 278.492,166.108 C275.251,178.374 283.753,190.452 296.419,192.091 L320.842,195.25 C327.838,196.155 334.063,190.757 334.184,183.681 Z M337.119,115.689 C337.254,107.768 330.662,101.395 322.778,101.825 L311.682,102.429 C305.815,102.749 300.958,106.877 298.745,112.337 C296.826,117.073 294.757,120.67 292.582,124.45 C289.741,129.389 286.72,134.64 283.618,143.153 C281.141,149.953 278.78,158.071 276.776,165.652 C273.245,179.017 282.525,192.089 296.192,193.857 L320.615,197.016 C328.66,198.057 335.82,191.849 335.959,183.712 L337.119,115.689 Z" id="å½¢çŠ¶" fill="#61188E"></path>
                <path d="M336.061,134.017 C334.701,138.183 324.798,138.669 313.941,135.103 C303.085,131.536 295.387,125.267 296.747,121.101 C298.107,116.934 308.01,116.448 318.866,120.015 C329.722,123.581 337.42,129.85 336.061,134.017 Z" id="è·¯å¾„" fill="#CAE2FF" fill-rule="nonzero"></path>
                <path d="M282.409,106.735 C285.305,97.8624 294.323,92.5323 303.462,94.2921 L318.189,97.1279 L334.156,100.23 C342.195,101.792 347.047,110.072 344.499,117.879 L340.95,128.755 C339.12,134.362 333.106,137.419 327.517,135.583 L290.901,123.553 C283.927,121.262 280.125,113.732 282.409,106.735 L282.409,106.735 Z" id="è·¯å¾„" fill="#FFFFFF" fill-rule="nonzero"></path>
                <path d="M339.263,128.201 L342.813,117.325 C345.029,110.536 340.809,103.336 333.819,101.978 L303.128,96.0407 C294.866,94.4498 286.713,99.2683 284.095,107.289 C282.117,113.352 285.411,119.876 291.454,121.861 L328.07,133.891 C332.727,135.421 337.738,132.873 339.263,128.201 Z M318.189,97.1279 L303.462,94.2921 C294.323,92.5323 285.305,97.8624 282.409,106.735 C280.125,113.732 283.927,121.262 290.901,123.553 L327.517,135.583 C333.106,137.419 339.12,134.362 340.95,128.755 L344.499,117.879 C347.047,110.072 342.195,101.792 334.156,100.23 L318.189,97.1279 Z" id="å½¢çŠ¶" fill="#61188E"></path>
                <path d="M331.792,115.015 C329.783,117.613 326.251,118.237 323.902,116.409 C321.554,114.581 321.279,110.994 323.287,108.396 C325.296,105.798 328.828,105.174 331.177,107.002 C333.525,108.83 333.8,112.417 331.792,115.015 Z" id="è·¯å¾„" fill="#FFFFFF" fill-rule="nonzero"></path>
                <path d="M324.99,115.003 C326.439,116.13 328.879,115.877 330.39,113.924 C331.9,111.97 331.537,109.536 330.089,108.408 C328.64,107.281 326.2,107.534 324.689,109.487 C323.179,111.44 323.542,113.875 324.99,115.003 Z M323.902,116.409 C326.251,118.237 329.783,117.613 331.792,115.015 C333.8,112.417 333.525,108.83 331.177,107.002 C328.828,105.174 325.296,105.798 323.287,108.396 C321.279,110.994 321.554,114.581 323.902,116.409 Z" id="å½¢çŠ¶" fill="#61188E"></path>
                <path d="M329.564,111.695 C328.958,113.554 326.964,114.568 325.11,113.959 C323.257,113.35 322.247,111.349 322.854,109.49 C323.461,107.631 325.455,106.618 327.308,107.226 C329.161,107.835 330.171,109.836 329.564,111.695 Z" id="è·¯å¾„" fill="#342E2E" fill-rule="nonzero"></path>
                <path d="M288.528,116.179 C288.313,116.837 287.608,117.196 286.952,116.98 C286.296,116.765 285.939,116.057 286.154,115.399 C286.368,114.741 287.074,114.383 287.73,114.598 C288.385,114.813 288.743,115.521 288.528,116.179 Z" id="è·¯å¾„" fill="#61188E" fill-rule="nonzero"></path>
                <path d="M347.339,97.3977 C348.466,96.3301 350.203,96.2509 351.423,97.2114 L351.423,97.2114 C352.783,98.2831 353.021,100.259 351.952,101.624 L345.981,109.256 C344.667,110.936 342.244,111.229 340.57,109.91 L340.57,109.91 C338.717,108.451 338.591,105.679 340.305,104.057 L347.339,97.3977 Z" id="è·¯å¾„" fill="#626282" fill-rule="nonzero"></path>
                <path d="M344.585,108.157 L350.556,100.525 C351.019,99.9328 350.917,99.0765 350.327,98.6119 C349.798,98.1956 349.045,98.2299 348.557,98.6927 L341.523,105.352 C340.598,106.227 340.666,107.722 341.666,108.51 C342.569,109.221 343.876,109.063 344.585,108.157 Z M351.423,97.2114 C350.203,96.2509 348.466,96.3301 347.339,97.3977 L340.305,104.057 C338.591,105.679 338.717,108.451 340.57,109.91 C342.244,111.229 344.667,110.936 345.981,109.256 L351.952,101.624 C353.021,100.259 352.783,98.2831 351.423,97.2114 Z" id="å½¢çŠ¶" fill="#61188E"></path>
                <path d="M326.992,208.758 C329.41,208.379 331.063,206.105 330.685,203.68 L328.505,189.698 C328.278,188.243 326.919,187.248 325.468,187.475 L325.468,187.475 C320.634,188.234 317.328,192.781 318.084,197.631 L318.894,202.831 C319.499,206.711 323.125,209.365 326.992,208.758 L326.992,208.758 Z" id="è·¯å¾„" fill="#626282" fill-rule="nonzero"></path>
                <path d="M326.752,189.973 L328.931,203.955 C329.158,205.409 328.167,206.772 326.718,206.999 C323.819,207.454 321.101,205.465 320.648,202.556 L319.837,197.356 C319.232,193.477 321.876,189.841 325.742,189.234 C326.225,189.159 326.676,189.49 326.752,189.973 Z M330.685,203.68 C331.063,206.105 329.41,208.379 326.992,208.758 C323.125,209.365 319.499,206.711 318.894,202.831 L318.084,197.631 C317.328,192.781 320.634,188.234 325.468,187.475 C326.919,187.248 328.278,188.243 328.505,189.698 L330.685,203.68 Z" id="å½¢çŠ¶" fill="#61188E"></path>
                <path d="M276.263,168.019 C277.454,163.207 278.852,157.849 280.379,152.544 L298.893,154.939 C301.06,155.219 302.59,157.209 302.311,159.383 C301.473,165.905 295.523,170.511 289.022,169.67 L276.263,168.019 Z" id="è·¯å¾„" fill="#C44E26"></path>
                <path d="M276.263,168.019 L289.022,169.67 C295.523,170.511 301.473,165.905 302.311,159.383 C302.59,157.209 301.06,155.219 298.893,154.939 L280.379,152.544 C279.034,157.218 277.789,161.933 276.697,166.28 C276.55,166.867 276.405,167.447 276.263,168.019 Z M278.47,166.51 L289.249,167.904 C294.778,168.619 299.838,164.703 300.551,159.156 C300.705,157.957 299.861,156.86 298.666,156.705 L281.665,154.506 C280.508,158.597 279.43,162.691 278.47,166.51 Z" id="å½¢çŠ¶" fill="#61188E"></path>
                <path d="M324.716,142.035 C326.335,141.815 327.825,142.954 328.044,144.578 L328.534,148.219 C328.753,149.843 327.618,151.338 325.999,151.557 L310.585,153.647 C306.653,154.18 303.035,151.415 302.504,147.47 L302.504,147.47 C302.327,146.155 303.246,144.945 304.556,144.768 L324.716,142.035 Z" id="è·¯å¾„" fill="#626282" fill-rule="nonzero"></path>
                <path d="M326.775,148.458 L326.285,144.816 C326.197,144.167 325.602,143.711 324.954,143.799 L304.794,146.532 C304.455,146.578 304.217,146.891 304.263,147.232 C304.663,150.202 307.387,152.284 310.347,151.883 L325.761,149.793 C326.409,149.705 326.863,149.107 326.775,148.458 Z M328.044,144.578 C327.825,142.954 326.335,141.815 324.716,142.035 L304.556,144.768 C303.246,144.945 302.327,146.155 302.504,147.47 C303.035,151.415 306.653,154.18 310.585,153.647 L325.999,151.557 C327.618,151.338 328.753,149.843 328.534,148.219 L328.044,144.578 Z" id="å½¢çŠ¶" fill="#61188E"></path>
                <path d="M328.996,98.895 L318.456,74.4823 L316.305,100.999 C316.743,103.656 319.97,105.53 323.474,104.949 C326.979,104.368 329.433,101.551 328.996,98.895 Z" id="è·¯å¾„" fill="#C44E26" fill-rule="nonzero"></path>
                <path d="M318.456,74.4823 L316.305,100.999 C316.743,103.656 319.97,105.53 323.474,104.949 C326.979,104.368 329.433,101.551 328.996,98.895 L318.456,74.4823 Z M319.649,81.7252 L318.094,100.889 C318.258,101.509 318.744,102.151 319.605,102.634 C320.541,103.158 321.815,103.42 323.185,103.193 C324.555,102.965 325.678,102.306 326.395,101.508 C327.056,100.773 327.31,100.008 327.266,99.3683 L319.649,81.7252 Z" id="å½¢çŠ¶" fill="#61188E"></path>
                <path d="M265.981,105.153 L248.925,100.401 L253.668,117.518 L301.691,165.7 C305.109,169.13 310.638,169.143 314.039,165.73 C317.441,162.317 317.428,156.77 314.01,153.34 L265.981,105.153 Z" id="è·¯å¾„" fill="#ECCE33" fill-rule="nonzero"></path>
                <path d="M248.925,100.401 L253.668,117.518 L301.691,165.7 C305.109,169.13 310.638,169.143 314.039,165.73 C317.441,162.317 317.428,156.77 314.01,153.34 L265.981,105.153 L248.925,100.401 Z M251.787,103.271 L255.446,116.477 L303.099,164.288 C305.746,166.943 310.014,166.944 312.632,164.317 C315.249,161.691 315.249,157.409 312.602,154.753 L264.944,106.937 L251.787,103.271 Z" id="å½¢çŠ¶" fill="#61188E"></path>
                <polygon id="è·¯å¾„" fill="#61188E" fill-rule="nonzero" points="253.676 117.528 265.995 105.169 267.403 106.581 255.084 118.941"></polygon>
                <path d="M252.523,107.39 L251.2,102.682 L255.749,103.909 C255.449,105.609 254.173,106.97 252.523,107.39 Z" id="è·¯å¾„" fill="#380000"></path>
                <path d="M254.359,106.408 C253.898,106.821 253.35,107.138 252.745,107.327 C252.672,107.35 252.598,107.371 252.523,107.39 L251.2,102.682 L255.749,103.909 C255.705,104.162 255.639,104.407 255.553,104.642 C255.401,105.061 255.186,105.45 254.921,105.798 C254.753,106.019 254.565,106.223 254.359,106.408 Z" id="è·¯å¾„" fill="#61188E"></path>
                <path d="M317.509,127.267 C318.383,127.772 319.742,128.251 321.645,128.033 C323.561,127.814 324.355,127.125 324.697,126.654 C324.879,126.403 324.966,126.169 325.008,126.007 C325.029,125.926 325.038,125.864 325.042,125.83 C325.044,125.813 325.045,125.804 325.045,125.802 C325.045,125.802 325.045,125.803 325.045,125.807 L325.044,125.814 L325.044,125.819 L325.044,125.822 L325.044,125.823 C325.044,125.824 325.044,125.825 326.061,125.83 C327.077,125.835 327.077,125.835 327.077,125.836 L327.077,125.838 L327.077,125.841 L327.077,125.849 L327.077,125.868 C327.076,125.882 327.075,125.899 327.074,125.918 C327.072,125.957 327.068,126.007 327.062,126.065 C327.048,126.182 327.023,126.338 326.975,126.52 C326.881,126.885 326.697,127.363 326.34,127.854 C325.603,128.87 324.247,129.789 321.876,130.06 C319.492,130.332 317.7,129.732 316.494,129.035 C315.897,128.69 315.449,128.324 315.145,128.039 C314.993,127.896 314.876,127.773 314.794,127.68 C314.753,127.634 314.721,127.596 314.697,127.566 C314.685,127.552 314.675,127.54 314.667,127.53 L314.657,127.517 L314.653,127.512 L314.652,127.51 L314.651,127.509 C314.651,127.508 314.65,127.508 315.458,126.889 C316.266,126.27 316.266,126.269 316.265,126.269 L316.265,126.268 L316.264,126.267 L316.262,126.265 C316.261,126.264 316.261,126.263 316.261,126.263 L316.267,126.27 C316.274,126.28 316.289,126.298 316.312,126.323 C316.357,126.373 316.431,126.453 316.535,126.55 C316.743,126.746 317.067,127.012 317.509,127.267 Z" id="è·¯å¾„" fill="#61188E"></path>
                <polygon id="è·¯å¾„" fill="#7A409D" fill-rule="nonzero" points="163.543 71.638 166.947 71.638 163.238 92.4536 157.903 92.4536 154.855 77.5601 151.831 92.4536 146.497 92.4536 142.788 71.638 146.192 71.638 149.164 90.236 153.051 71.638 156.684 71.638 160.57 90.236"></polygon>
                <path d="M169.496,82.323 C169.496,81.8022 169.581,81.3234 169.75,80.8866 C169.936,80.4498 170.182,80.0718 170.487,79.7526 C170.809,79.4334 171.19,79.1898 171.63,79.0218 C172.07,78.837 172.553,78.7446 173.078,78.7446 L181.385,78.7446 C181.741,78.7446 182.08,78.8202 182.401,78.9714 C182.74,79.1226 183.036,79.3242 183.29,79.5762 C183.545,79.8282 183.748,80.1222 183.9,80.4582 C184.053,80.7774 184.129,81.1134 184.129,81.4662 L184.129,84.4651 C184.129,84.8179 184.053,85.1623 183.9,85.4983 C183.748,85.8175 183.545,86.1031 183.29,86.3551 C183.036,86.6071 182.74,86.8087 182.401,86.9599 C182.08,87.1111 181.741,87.1867 181.385,87.1867 L172.9,87.1867 L172.9,88.0435 C172.9,88.3963 173.027,88.6987 173.281,88.9507 C173.535,89.186 173.832,89.3036 174.17,89.3036 L183.926,89.3036 L183.926,92.4536 L173.281,92.4536 C172.756,92.4536 172.265,92.3528 171.808,92.1512 C171.351,91.9496 170.944,91.6808 170.588,91.3448 C170.25,91.0088 169.979,90.6056 169.775,90.1352 C169.589,89.6816 169.496,89.1944 169.496,88.6735 L169.496,82.323 Z M180.064,84.0367 C180.25,84.0367 180.403,83.9779 180.521,83.8603 C180.64,83.7427 180.699,83.5914 180.699,83.4066 L180.699,82.5246 C180.699,82.3398 180.64,82.1886 180.521,82.071 C180.403,81.9534 180.25,81.8946 180.064,81.8946 L173.789,81.8946 C173.552,81.8946 173.341,81.987 173.154,82.1718 C172.985,82.3398 172.9,82.5414 172.9,82.7766 L172.9,84.0367 L180.064,84.0367 Z" id="å½¢çŠ¶" fill="#7A409D" fill-rule="nonzero"></path>
                <path d="M198.131,78.7446 C198.657,78.7446 199.148,78.8454 199.605,79.047 C200.062,79.2486 200.46,79.5174 200.799,79.8534 C201.138,80.1894 201.409,80.5926 201.612,81.063 C201.815,81.5166 201.917,82.0038 201.917,82.5246 L201.917,88.6735 C201.917,89.1944 201.815,89.6816 201.612,90.1352 C201.409,90.6056 201.138,91.0088 200.799,91.3448 C200.46,91.6808 200.062,91.9496 199.605,92.1512 C199.148,92.3528 198.657,92.4536 198.131,92.4536 L187.284,92.4536 L187.284,71.638 L190.713,71.638 L190.713,78.7446 L198.131,78.7446 Z M197.242,89.3036 C197.581,89.3036 197.877,89.186 198.131,88.9507 C198.386,88.6987 198.513,88.3963 198.513,88.0435 L198.513,83.1546 C198.513,82.8018 198.386,82.5078 198.131,82.2726 C197.877,82.0206 197.581,81.8946 197.242,81.8946 L190.713,81.8946 L190.713,89.3036 L197.242,89.3036 Z" id="å½¢çŠ¶" fill="#7A409D" fill-rule="nonzero"></path>
                <path d="M228.571,92.63 C228.571,93.3356 228.35,93.8984 227.91,94.3184 C227.487,94.7553 226.919,94.9737 226.208,94.9737 L224.582,94.9737 L224.582,92.0756 L224.989,92.0756 C225.243,92.0756 225.37,91.9496 225.37,91.6976 L225.37,86.7331 L224.227,86.7331 L224.227,94.3436 L221.305,94.3436 L221.305,86.7331 L220.467,86.7331 L220.467,94.3436 L217.571,94.3436 L217.571,86.7331 L216.605,86.7331 L216.605,94.9737 L213.404,94.9737 L213.404,83.583 L218.511,83.583 L218.917,81.945 L213.303,81.945 L213.303,78.795 L228.672,78.795 L228.672,81.945 L222.397,81.945 L221.991,83.583 L228.571,83.583 L228.571,92.63 Z M222.702,70.0504 L222.702,74.4353 L224.963,74.4353 L224.963,70.5796 L228.393,70.5796 L228.393,77.5853 L213.608,77.5853 L213.608,70.5796 L217.037,70.5796 L217.037,74.4353 L219.273,74.4353 L219.273,70.0504 L222.702,70.0504 Z M209.924,70 L209.924,73.0241 L212.845,73.0241 L212.845,76.1741 L203.725,76.1741 L203.725,73.0241 L206.647,73.0241 L206.647,70 L209.924,70 Z M204.437,89.606 C204.42,87.6907 204.386,85.7755 204.335,83.8603 C204.301,81.945 204.2,80.0298 204.03,78.1145 L207.18,78.1145 C207.367,80.013 207.477,81.9198 207.511,83.8351 C207.561,85.7503 207.578,87.6739 207.561,89.606 L204.437,89.606 Z M212.439,78.1145 C212.405,80.0466 212.295,81.9702 212.109,83.8855 C211.939,85.8007 211.711,87.7075 211.423,89.606 L208.298,89.606 C208.586,87.7075 208.832,85.8007 209.035,83.8855 C209.255,81.9702 209.382,80.0466 209.416,78.1145 L212.439,78.1145 Z M203.725,91.8236 C205.368,91.7564 206.901,91.6304 208.324,91.4456 C209.746,91.2608 211.211,91.0088 212.718,90.6896 L212.718,93.764 C211.211,94.0664 209.746,94.31 208.324,94.4948 C206.901,94.6797 205.368,94.8057 203.725,94.8729 L203.725,91.8236 Z" id="å½¢çŠ¶" fill="#7A409D" fill-rule="nonzero"></path>
                <path d="M154.982,115.613 C155.405,115.613 155.794,115.697 156.15,115.865 C156.523,116.016 156.844,116.226 157.115,116.495 C157.403,116.764 157.624,117.083 157.776,117.452 C157.945,117.805 158.03,118.192 158.03,118.612 L158.03,120.93 C158.03,121.35 157.945,121.737 157.776,122.089 C157.624,122.459 157.403,122.778 157.115,123.047 C156.844,123.333 156.523,123.551 156.15,123.702 C155.794,123.87 155.405,123.954 154.982,123.954 L146.446,123.954 C146.022,123.954 145.624,123.87 145.252,123.702 C144.896,123.551 144.574,123.333 144.286,123.047 C144.015,122.778 143.795,122.459 143.626,122.089 C143.473,121.737 143.397,121.35 143.397,120.93 L143.397,119.796 L146.827,119.796 L146.827,120.199 C146.827,120.418 146.895,120.603 147.03,120.754 C147.182,120.888 147.369,120.955 147.589,120.955 L153.838,120.955 C154.059,120.955 154.236,120.888 154.372,120.754 C154.524,120.603 154.6,120.418 154.6,120.199 L154.6,119.342 C154.6,119.141 154.524,118.964 154.372,118.813 C154.236,118.662 154.059,118.586 153.838,118.586 L146.446,118.586 C146.022,118.586 145.624,118.511 145.252,118.36 C144.896,118.192 144.574,117.973 144.286,117.704 C144.015,117.436 143.795,117.125 143.626,116.772 C143.473,116.402 143.397,116.008 143.397,115.588 L143.397,113.269 C143.397,112.849 143.473,112.463 143.626,112.11 C143.795,111.74 144.015,111.421 144.286,111.152 C144.574,110.867 144.896,110.648 145.252,110.497 C145.624,110.329 146.022,110.245 146.446,110.245 L154.982,110.245 C155.405,110.245 155.794,110.329 156.15,110.497 C156.523,110.648 156.844,110.867 157.115,111.152 C157.403,111.421 157.624,111.74 157.776,112.11 C157.945,112.463 158.03,112.849 158.03,113.269 L158.03,114.403 L154.6,114.403 L154.6,114 C154.6,113.782 154.524,113.605 154.372,113.471 C154.236,113.32 154.059,113.244 153.838,113.244 L147.589,113.244 C147.369,113.244 147.182,113.32 147.03,113.471 C146.895,113.605 146.827,113.782 146.827,114 L146.827,114.857 C146.827,115.058 146.895,115.235 147.03,115.386 C147.182,115.537 147.369,115.613 147.589,115.613 L154.982,115.613 Z" id="è·¯å¾„" fill="#7A409D" fill-rule="nonzero"></path>
                <path d="M168.451,115.94 C168.891,116.058 169.348,116.234 169.823,116.47 C170.297,116.688 170.678,116.957 170.966,117.276 L176.682,123.954 L172.49,123.954 L168.146,118.864 C167.858,118.528 167.502,118.259 167.079,118.057 C166.655,117.856 166.122,117.755 165.478,117.755 L164.31,117.755 L164.31,123.954 L160.88,123.954 L160.88,103.139 L164.31,103.139 L164.31,114.605 L165.326,114.605 C165.817,114.605 166.232,114.546 166.571,114.428 C166.91,114.294 167.248,114.059 167.587,113.723 L171.067,110.245 L175.259,110.245 L170.686,114.907 C170.381,115.21 170.026,115.453 169.619,115.638 C169.213,115.806 168.823,115.907 168.451,115.94 Z" id="è·¯å¾„" fill="#7A409D" fill-rule="nonzero"></path>
                <path d="M178.378,113.824 C178.378,113.303 178.462,112.824 178.632,112.387 C178.818,111.95 179.063,111.572 179.368,111.253 C179.69,110.934 180.071,110.69 180.512,110.522 C180.952,110.338 181.435,110.245 181.96,110.245 L190.267,110.245 C190.622,110.245 190.961,110.321 191.283,110.472 C191.622,110.623 191.918,110.825 192.172,111.077 C192.426,111.329 192.629,111.623 192.782,111.959 C192.934,112.278 193.01,112.614 193.01,112.967 L193.01,115.966 C193.01,116.318 192.934,116.663 192.782,116.999 C192.629,117.318 192.426,117.604 192.172,117.856 C191.918,118.108 191.622,118.309 191.283,118.46 C190.961,118.612 190.622,118.687 190.267,118.687 L181.782,118.687 L181.782,119.544 C181.782,119.897 181.909,120.199 182.163,120.451 C182.417,120.687 182.713,120.804 183.052,120.804 L192.807,120.804 L192.807,123.954 L182.163,123.954 C181.638,123.954 181.147,123.853 180.689,123.652 C180.232,123.45 179.826,123.181 179.47,122.845 C179.131,122.509 178.86,122.106 178.657,121.636 C178.471,121.182 178.378,120.695 178.378,120.174 L178.378,113.824 Z M188.946,115.537 C189.132,115.537 189.284,115.478 189.403,115.361 C189.522,115.243 189.581,115.092 189.581,114.907 L189.581,114.025 C189.581,113.84 189.522,113.689 189.403,113.572 C189.284,113.454 189.132,113.395 188.946,113.395 L182.671,113.395 C182.434,113.395 182.222,113.488 182.036,113.672 C181.866,113.84 181.782,114.042 181.782,114.277 L181.782,115.537 L188.946,115.537 Z" id="å½¢çŠ¶" fill="#7A409D" fill-rule="nonzero"></path>
                <path d="M199.646,110.245 L199.646,105.759 L203.075,105.759 L203.075,110.245 L210.62,110.245 L210.62,113.395 L203.075,113.395 L203.075,119.796 C203.075,120.082 203.169,120.325 203.355,120.527 C203.558,120.712 203.804,120.804 204.092,120.804 L206.048,120.804 C206.336,120.804 206.573,120.712 206.759,120.527 C206.962,120.325 207.064,120.082 207.064,119.796 L207.064,118.057 L210.316,118.057 L210.316,120.678 C210.316,121.132 210.231,121.552 210.062,121.938 C209.892,122.341 209.655,122.694 209.35,122.997 C209.062,123.299 208.715,123.534 208.309,123.702 C207.919,123.87 207.496,123.954 207.038,123.954 L202.948,123.954 C202.491,123.954 202.059,123.87 201.653,123.702 C201.263,123.534 200.916,123.299 200.611,122.997 C200.306,122.694 200.069,122.341 199.9,121.938 C199.73,121.552 199.646,121.132 199.646,120.678 L199.646,113.395 L195.556,113.395 L195.556,110.245 L199.646,110.245 Z" id="è·¯å¾„" fill="#7A409D" fill-rule="nonzero"></path>
                <path d="M225.836,110.245 L225.836,113.395 L217.884,113.395 C217.528,113.395 217.224,113.521 216.969,113.773 C216.732,114.008 216.614,114.302 216.614,114.655 L216.614,119.544 C216.614,119.897 216.732,120.199 216.969,120.451 C217.224,120.687 217.528,120.804 217.884,120.804 L225.836,120.804 L225.836,123.954 L216.995,123.954 C216.47,123.954 215.97,123.853 215.496,123.652 C215.039,123.45 214.641,123.181 214.302,122.845 C213.963,122.509 213.692,122.106 213.489,121.636 C213.286,121.182 213.184,120.695 213.184,120.174 L213.184,114.025 C213.184,113.504 213.286,113.017 213.489,112.564 C213.692,112.093 213.963,111.69 214.302,111.354 C214.641,111.018 215.039,110.749 215.496,110.548 C215.97,110.346 216.47,110.245 216.995,110.245 L225.836,110.245 Z" id="è·¯å¾„" fill="#7A409D" fill-rule="nonzero"></path>
                <path d="M239.57,123.954 L239.57,114.655 C239.57,114.302 239.443,114.008 239.189,113.773 C238.952,113.521 238.664,113.395 238.326,113.395 L231.797,113.395 L231.797,123.954 L228.367,123.954 L228.367,103.139 L231.797,103.139 L231.797,110.245 L239.215,110.245 C239.74,110.245 240.231,110.346 240.688,110.548 C241.145,110.749 241.543,111.018 241.882,111.354 C242.221,111.69 242.492,112.093 242.695,112.564 C242.898,113.017 243,113.504 243,114.025 L243,123.954 L239.57,123.954 Z" id="è·¯å¾„" fill="#7A409D" fill-rule="nonzero"></path>
                <path d="M148.376,132.951 L148.376,136.63 L151.298,136.63 L151.298,139.78 L149.24,139.78 C149.359,140.502 149.486,141.233 149.621,141.973 C149.774,142.712 149.935,143.426 150.104,144.115 C150.29,144.787 150.485,145.417 150.688,146.005 C150.891,146.593 151.103,147.113 151.323,147.567 L151.323,153.867 C150.68,153.111 150.112,152.212 149.621,151.171 C149.147,150.129 148.732,149.003 148.376,147.794 L148.376,157.924 L144.947,157.924 L144.947,147.794 C144.574,149.003 144.142,150.129 143.651,151.171 C143.177,152.212 142.627,153.111 142,153.867 L142,147.567 C142.22,147.113 142.432,146.593 142.635,146.005 C142.838,145.417 143.025,144.787 143.194,144.115 C143.38,143.426 143.541,142.712 143.677,141.973 C143.829,141.233 143.956,140.502 144.058,139.78 L142.025,139.78 L142.025,136.63 L144.947,136.63 L144.947,132.951 L148.376,132.951 Z M166.286,149.079 L152.594,149.079 L152.594,138.444 L166.286,138.444 L166.286,149.079 Z M161.129,149.583 L161.129,150.515 L167.049,150.515 L167.049,153.54 L161.942,153.54 C162.23,153.876 162.577,154.136 162.984,154.321 C163.39,154.506 163.822,154.64 164.279,154.724 C164.737,154.825 165.202,154.884 165.677,154.9 C166.151,154.934 166.608,154.959 167.049,154.976 L167.049,158 C166.456,158 165.821,157.975 165.143,157.924 C164.466,157.874 163.78,157.765 163.085,157.597 C162.408,157.429 161.748,157.185 161.104,156.866 C160.477,156.564 159.918,156.152 159.427,155.631 C158.936,156.152 158.369,156.564 157.725,156.866 C157.099,157.185 156.447,157.429 155.769,157.597 C155.092,157.765 154.414,157.874 153.737,157.924 C153.059,157.975 152.433,158 151.857,158 L151.857,154.976 C152.28,154.959 152.729,154.934 153.203,154.9 C153.677,154.884 154.143,154.825 154.6,154.724 C155.058,154.64 155.49,154.506 155.896,154.321 C156.303,154.136 156.65,153.876 156.938,153.54 L151.831,153.54 L151.831,150.515 L157.751,150.515 L157.751,149.583 L161.129,149.583 Z M164.635,133.026 L164.635,133.934 L166.998,133.934 L166.998,136.958 L164.635,136.958 L164.635,137.865 L161.333,137.865 L161.333,136.958 L157.547,136.958 L157.547,137.865 L154.245,137.865 L154.245,136.958 L151.882,136.958 L151.882,133.934 L154.245,133.934 L154.245,133.026 L157.547,133.026 L157.547,133.934 L161.333,133.934 L161.333,133.026 L164.635,133.026 Z M162.984,145.148 L155.896,145.148 L155.896,146.08 L162.984,146.08 L162.984,145.148 Z M155.896,142.376 L162.984,142.376 L162.984,141.443 L155.896,141.443 L155.896,142.376 Z" id="å½¢çŠ¶" fill="#7A409D" fill-rule="nonzero"></path>
                <path d="M185.416,144.77 C185.5,145.677 185.678,146.525 185.949,147.315 C186.22,148.088 186.559,148.819 186.965,149.507 C187.507,148.651 187.939,147.71 188.261,146.685 C188.583,145.66 188.761,144.56 188.794,143.384 L181.478,143.384 L181.478,149.129 C181.478,150.221 181.402,151.238 181.249,152.179 C181.114,153.103 180.868,153.943 180.513,154.699 C180.174,155.455 179.7,156.102 179.09,156.639 C178.497,157.194 177.744,157.63 176.829,157.95 L176.829,153.842 C177.354,153.405 177.693,152.767 177.845,151.927 C177.998,151.087 178.074,150.121 178.074,149.029 L178.074,133.908 L189.099,133.908 C189.641,133.908 190.2,133.858 190.776,133.757 C191.352,133.656 191.885,133.497 192.376,133.278 L192.376,136.428 C191.868,136.68 191.343,136.848 190.801,136.932 C190.259,137.016 189.692,137.058 189.099,137.058 L181.478,137.058 L181.478,140.259 L192.122,140.259 L192.122,143.006 C192.122,144.971 191.86,146.727 191.335,148.273 C190.81,149.801 190.124,151.154 189.277,152.33 C189.768,152.767 190.268,153.136 190.776,153.439 C191.284,153.758 191.784,154.01 192.275,154.195 L192.275,157.899 C191.36,157.614 190.446,157.219 189.531,156.715 C188.617,156.211 187.744,155.589 186.915,154.85 C186.051,155.589 185.162,156.202 184.247,156.69 C183.333,157.194 182.443,157.597 181.58,157.899 L181.58,154.195 C182.071,154.01 182.579,153.75 183.104,153.414 C183.629,153.094 184.146,152.708 184.654,152.254 C183.993,151.263 183.443,150.154 183.002,148.928 C182.562,147.685 182.299,146.299 182.215,144.77 L185.416,144.77 Z M173.857,132.951 L173.857,136.63 L176.804,136.63 L176.804,139.78 L174.746,139.78 C174.865,140.486 174.992,141.191 175.127,141.897 C175.279,142.603 175.44,143.283 175.61,143.938 C175.796,144.593 175.991,145.207 176.194,145.778 C176.397,146.349 176.609,146.861 176.829,147.315 L176.829,153.615 C176.186,152.859 175.618,151.969 175.127,150.944 C174.653,149.902 174.229,148.793 173.857,147.617 L173.857,157.924 L170.427,157.924 L170.427,147.743 C170.055,148.953 169.623,150.087 169.132,151.145 C168.657,152.204 168.099,153.111 167.455,153.867 L167.455,147.567 C167.675,147.113 167.887,146.593 168.09,146.005 C168.293,145.417 168.48,144.787 168.649,144.115 C168.835,143.426 168.996,142.712 169.132,141.973 C169.284,141.233 169.411,140.502 169.513,139.78 L167.48,139.78 L167.48,136.63 L170.427,136.63 L170.427,132.951 L173.857,132.951 Z" id="å½¢çŠ¶" fill="#7A409D" fill-rule="nonzero"></path>
                <path d="M206.882,144.417 L210.286,144.417 L210.286,147.063 L216.663,147.063 L216.663,150.188 L210.286,150.188 L210.286,152.33 L217.45,152.33 L217.45,155.455 L210.286,155.455 L210.286,157.975 L206.882,157.975 L206.882,155.455 L198.905,155.455 L198.905,152.33 L206.882,152.33 L206.882,150.188 L199.82,150.188 L199.82,147.063 L201.446,143.283 L199.058,143.283 L199.058,140.133 L202.792,140.133 L203.503,138.47 L207.06,138.47 L206.349,140.133 L217.298,140.133 L217.298,143.283 L205.028,143.283 L203.427,147.063 L206.882,147.063 L206.882,144.417 Z M208.889,133.001 L208.889,134.69 L217.654,134.69 L217.654,137.84 L197.965,137.84 L197.965,151.271 C197.965,152.061 197.889,152.834 197.737,153.59 C197.584,154.346 197.322,155.026 196.949,155.631 C196.577,156.253 196.069,156.774 195.425,157.194 C194.781,157.614 193.977,157.882 193.012,158 L193.012,154.296 C193.638,153.993 194.045,153.531 194.231,152.91 C194.434,152.288 194.536,151.574 194.536,150.767 L194.536,134.69 L205.46,134.69 L205.46,133.001 L208.889,133.001 Z" id="å½¢çŠ¶" fill="#7A409D" fill-rule="nonzero"></path>
            </g>
        </g>
    </g>
</svg>