<?xml version="1.0" encoding="UTF-8"?>
<svg width="460px" height="225px" viewBox="0 0 460 225" version="1.1" xmlns="http://www.w3.org/2000/svg" xmlns:xlink="http://www.w3.org/1999/xlink">
    <title>3</title>
    <defs>
        <linearGradient x1="49.78237%" y1="22.2892163%" x2="49.78237%" y2="82.530395%" id="linearGradient-1">
            <stop stop-color="#E9ECFA" offset="0%"></stop>
            <stop stop-color="#DBDFEE" offset="100%"></stop>
        </linearGradient>
    </defs>
    <g id="ðŸ“è®¾è®¡å¸ˆæ¨¡å¼" stroke="none" stroke-width="1" fill="none" fill-rule="evenodd">
        <g id="æ¦‚è¿°-èµ„æºä¸Žä¸‹è½½" transform="translate(-300.000000, -1318.000000)">
            <g id="3" transform="translate(300.000000, 1318.000000)">
                <rect id="çŸ©å½¢" fill="#5976DD" fill-rule="nonzero" x="0" y="-1.42108547e-14" width="460" height="225"></rect>
                <path d="M278,158.618223 C278.734382,156.711631 279.927476,155.015493 281.473426,153.679922 C283.019376,152.345086 284.869665,151.412026 286.861831,150.963157 C288.853997,150.515023 290.925556,150.565797 292.893463,151.110327 C294.86137,151.654857 296.664611,152.676956 298.143666,154.086112 C299.62272,155.495268 300.732011,157.247331 301.373033,159.187772 C302.01332,161.128214 302.166224,163.197429 301.817779,165.21072 C301.469333,167.224746 300.62983,169.121772 299.374251,170.732552 C298.117937,172.344067 296.484508,173.62077 294.618046,174.449339 L292.292137,169.199772 C293.296307,168.753846 294.174771,168.067296 294.850343,167.200463 C295.525915,166.333629 295.977277,165.313739 296.164732,164.230565 C296.352187,163.147391 296.270589,162.034047 295.925819,160.990609 C295.581049,159.946436 294.984134,159.004545 294.188738,158.246618 C293.393342,157.488691 292.422988,156.939009 291.36442,156.645404 C290.305852,156.352535 289.191415,156.325309 288.120351,156.566668 C287.048551,156.808028 286.053203,157.309879 285.221786,158.02807 C284.390369,158.746261 283.748612,159.658718 283.353119,160.684495 L278,158.618223 Z" id="è·¯å¾„" fill="#C8597B" fill-rule="nonzero"></path>
                <path d="M278,158.618223 C278.209508,158.0759 278.455037,157.550502 278.735852,157.045708 C279.442299,155.775628 280.367076,154.635057 281.473426,153.679922 C283.019376,152.345086 284.869665,151.412026 286.861831,150.963157 C288.853997,150.515023 290.925556,150.565797 292.893463,151.110327 C294.86137,151.654857 296.664611,152.676956 298.143666,154.086112 C299.62272,155.495268 300.732011,157.247331 301.373033,159.187772 C302.01332,161.128214 302.166224,163.197429 301.817779,165.21072 C301.469333,167.224746 300.62983,169.121772 299.374251,170.732552 C298.475203,171.885631 297.383555,172.867258 296.1515,173.636223 C295.661912,173.941601 295.149536,174.213867 294.618046,174.449339 L292.292137,169.199772 C293.296307,168.753846 294.174771,168.067296 294.850343,167.200463 C295.525915,166.333629 295.977277,165.313739 296.164732,164.230565 C296.352187,163.147391 296.270589,162.034047 295.925819,160.990609 C295.581049,159.946436 294.984134,159.004545 294.188738,158.246618 C293.393342,157.488691 292.422988,156.939009 291.36442,156.645404 C290.305852,156.352535 289.191415,156.325309 288.120351,156.566668 C287.048551,156.808028 286.053203,157.309879 285.221786,158.02807 C284.390369,158.746261 283.748612,159.658718 283.353119,160.684495 L278,158.618223 Z M282.529054,158.509317 L280.370016,157.675597 C280.960315,156.668216 281.714544,155.760175 282.604035,154.991945 C283.934597,153.842545 285.527594,153.03973 287.241886,152.654144 C288.956178,152.268558 290.738836,152.311973 292.432545,152.780711 C294.125518,153.249448 295.678085,154.128791 296.950571,155.341475 C298.223058,156.554159 299.177975,158.061919 299.729312,159.731567 C300.28065,161.401951 300.412236,163.181976 300.112308,164.914907 C299.81238,166.647838 299.089761,168.280693 298.009139,169.667038 C297.28652,170.594947 296.418347,171.393347 295.441377,172.034274 L294.503368,169.916492 C295.146595,169.452169 295.723662,168.897337 296.215455,168.266712 C297.065985,167.174708 297.63423,165.889911 297.870202,164.526377 C298.10691,163.162108 298.003258,161.761046 297.568805,160.446815 C297.135086,159.132584 296.383797,157.945655 295.381833,156.991255 C294.380604,156.036855 293.15884,155.344418 291.826073,154.975757 C290.493307,154.606359 289.089969,154.57251 287.740295,154.875681 C286.391356,155.179588 285.137982,155.811684 284.090441,156.716046 C283.48544,157.238501 282.960567,157.842635 282.529054,158.509317 Z" id="å½¢çŠ¶" fill="#61188E"></path>
                <path d="M254,191.500623 C252.742364,193.466659 250.953021,195.040955 248.835791,196.042312 C246.718562,197.044404 244.360587,197.432476 242.031413,197.16398 C239.702239,196.89475 237.496392,195.97849 235.66717,194.520835 C233.838688,193.063181 232.459941,191.122821 231.690442,188.922035 C230.920943,186.721982 230.791709,184.350268 231.317508,182.080524 C231.842569,179.810046 233.001987,177.733237 234.661357,176.087782 C236.321466,174.442328 238.414326,173.294984 240.700668,172.777066 C242.986271,172.259148 245.373785,172.391928 247.587017,173.160736 L245.685425,178.565134 C244.494991,178.15212 243.21077,178.080228 241.981196,178.358994 C240.751623,178.63776 239.625437,179.254714 238.73335,180.140164 C237.840525,181.02488 237.216507,182.142146 236.934407,183.363582 C236.651568,184.584285 236.720985,185.860007 237.135274,187.043297 C237.548824,188.22732 238.290261,189.271226 239.273919,190.05544 C240.258317,190.83892 241.44432,191.331896 242.697524,191.476414 C243.949991,191.621666 245.218704,191.412591 246.357444,190.873399 C247.496184,190.33494 248.459165,189.488371 249.135615,188.430526 L254,191.500623 Z" id="è·¯å¾„" fill="#C8597B" fill-rule="nonzero"></path>
                <path d="M254,191.500594 C253.686883,191.989904 253.340535,192.45574 252.964647,192.893699 C251.831077,194.214911 250.425744,195.290367 248.835791,196.042306 C246.718562,197.044403 244.360587,197.432477 242.031413,197.163979 C239.702239,196.894749 237.496392,195.978483 235.66717,194.520822 C233.838688,193.06316 232.459941,191.12279 231.690442,188.921993 C230.920943,186.721929 230.791709,184.350202 231.317508,182.080447 C231.842569,179.809957 233.001987,177.733138 234.661357,176.087675 C236.321466,174.442212 238.414326,173.294863 240.700668,172.776942 C242.416901,172.388134 244.190736,172.366126 245.905493,172.705049 C246.474124,172.81729 247.036109,172.969145 247.587017,173.160614 L245.685425,178.565039 C245.685425,178.565039 245.684686,178.565039 245.683948,178.565039 C244.494252,178.152023 243.21077,178.080864 241.981196,178.358898 C240.751623,178.637666 239.625437,179.254623 238.73335,180.140077 C237.840525,181.024797 237.216507,182.142069 236.934407,183.363512 C236.651568,184.584221 236.720985,185.85995 237.135274,187.043245 C237.548824,188.227274 238.290261,189.271186 239.273919,190.055403 C240.258317,190.838887 241.44432,191.331866 242.697524,191.476385 C243.949991,191.621638 245.218704,191.412562 246.357444,190.873366 C247.496184,190.334905 248.459165,189.488331 249.135615,188.430481 L254,191.500594 Z M249.518149,190.718577 L251.480298,191.956892 C250.533563,193.010341 249.38153,193.870853 248.087709,194.483408 C246.265872,195.345387 244.236522,195.679175 242.23228,195.448091 C240.228039,195.216274 238.3294,194.427655 236.755694,193.1732 C235.181987,191.918745 233.995246,190.249074 233.333566,188.355654 C232.671147,186.461501 232.559636,184.421362 233.012326,182.467787 C233.464277,180.513479 234.461967,178.726431 235.890192,177.310585 C237.318417,175.894005 239.119576,174.90658 241.086894,174.461285 C242.484103,174.144371 243.924882,174.110625 245.325045,174.35418 L244.5585,176.534437 C243.574103,176.407524 242.571244,176.453741 241.59497,176.674554 C240.046372,177.025215 238.628486,177.80283 237.504515,178.917167 C236.380545,180.031504 235.595538,181.438547 235.239589,182.976171 C234.88364,184.513795 234.97152,186.120377 235.49215,187.610317 C236.013519,189.100991 236.946961,190.414867 238.186134,191.402291 C239.42457,192.389716 240.91852,193.010341 242.495919,193.192273 C244.074056,193.37494 245.671394,193.111578 247.105527,192.432998 C248.009429,192.00531 248.824714,191.423566 249.518149,190.718577 Z" id="å½¢çŠ¶" fill="#61188E"></path>
                <path d="M291.797394,161.990361 C300.948156,175.017916 297.71215,192.931642 284.569586,202.001807 C271.427023,211.071973 253.354119,207.864468 244.202606,194.837658 C235.051844,181.810849 238.28785,163.897124 251.430414,154.826958 C264.573729,145.756047 282.645881,148.963552 291.797394,161.990361 Z" id="è·¯å¾„" fill="#C8597B" fill-rule="nonzero"></path>
                <path d="M283.557347,200.561672 C295.898241,192.044602 298.936462,175.22514 290.343711,162.993685 C281.751711,150.76223 264.782794,147.750768 252.442653,156.267093 C240.102511,164.783418 237.06429,181.603625 245.656289,193.83508 C254.248289,206.066535 271.217206,209.077997 283.557347,200.561672 Z M284.569586,202.001807 C297.71215,192.931642 300.948156,175.017916 291.797394,161.990361 C282.645881,148.963552 264.573729,145.756047 251.430414,154.826958 C238.28785,163.897124 235.051844,181.810849 244.202606,194.837658 C253.354119,207.864468 271.427023,211.071973 284.569586,202.001807 Z" id="å½¢çŠ¶" fill="#61188E"></path>
                <path d="M250.372037,178.909828 C251.476407,180.482126 251.086135,182.644381 249.499871,183.739028 C247.913606,184.833674 245.732143,184.446145 244.627773,182.873848 C243.523403,181.30155 243.914373,179.139988 245.499938,178.045342 C247.086203,176.950695 249.267666,177.337531 250.372037,178.909828 Z" id="è·¯å¾„" fill="#FCB777" fill-rule="nonzero"></path>
                <path d="M248.558463,182.39897 C249.398456,181.81941 249.605482,180.67485 249.020774,179.842253 C248.436066,179.01035 247.281339,178.805147 246.441346,179.384706 C245.601353,179.964266 245.395027,181.108826 245.979734,181.941423 C246.564442,182.77402 247.71917,182.978529 248.558463,182.39897 Z M249.499871,183.739028 C251.086135,182.644381 251.476407,180.482126 250.372037,178.909828 C249.267666,177.337531 247.086203,176.950695 245.499938,178.045342 C243.914373,179.139988 243.523403,181.30155 244.627773,182.873848 C245.732143,184.446145 247.913606,184.833674 249.499871,183.739028 Z" id="å½¢çŠ¶" fill="#61188E"></path>
                <path d="M250.581385,179.405286 C250.581385,179.405286 250.581385,179.405286 249.790692,179.016696 C249,178.628834 249,178.628834 249,178.628834 L249.005271,178.618627 L249.020332,178.590923 C249.032381,178.566864 249.051207,178.532598 249.074551,178.488125 C249.122746,178.399908 249.191272,178.272322 249.278625,178.114115 C249.45333,177.79916 249.700328,177.361722 249.994013,176.871792 C250.573854,175.904325 251.361535,174.684602 252.134154,173.806081 C254.418126,171.206971 258.635905,169.397436 262.11947,168.246974 C263.888362,167.662266 265.520953,167.231389 266.710004,166.947055 C267.305659,166.804158 267.79137,166.697715 268.130238,166.626996 C268.298919,166.591272 268.431454,166.565026 268.522572,166.546799 C268.567755,166.53805 268.602395,166.531489 268.626492,166.527114 L268.654354,166.521282 L268.661885,166.519824 L268.664897,166.519824 C268.66565,166.519824 268.66565,166.519824 268.832825,167.362621 C269,168.205418 269,168.205418 269,168.205418 L268.993223,168.206876 L268.970631,168.21125 C268.949546,168.214896 268.917919,168.221457 268.875748,168.229477 C268.792161,168.246245 268.666403,168.271034 268.505252,168.3053 C268.181445,168.373102 267.713054,168.475171 267.136225,168.613693 C265.981814,168.890008 264.400429,169.307032 262.691781,169.872056 C259.219511,171.018873 255.425694,172.70957 253.484356,174.918632 C252.820174,175.673941 252.098008,176.782117 251.527957,177.733544 C251.24632,178.203061 251.009112,178.622272 250.841937,178.924834 C250.758349,179.07575 250.692835,179.196774 250.648405,179.279887 C250.625814,179.321444 250.609247,179.353523 250.597952,179.374666 L250.58515,179.397996 L250.581385,179.405286 Z" id="è·¯å¾„" fill="#61188E"></path>
                <path d="M272.372033,166.024317 C273.47641,167.596562 273.086136,169.758747 271.499862,170.853357 C269.913589,171.947967 267.732813,171.561145 266.627737,169.988899 C265.52336,168.416654 265.914333,166.254469 267.500607,165.159859 C269.08688,164.065248 271.267657,164.452071 272.372033,166.024317 Z" id="è·¯å¾„" fill="#FCB777" fill-rule="nonzero"></path>
                <path d="M270.559149,169.514037 C271.398447,168.934496 271.605474,167.789974 271.020763,166.957404 C270.436052,166.124835 269.281318,165.920332 268.44132,166.499872 C267.601322,167.079413 267.394995,168.223936 267.979706,169.055812 C268.564417,169.888381 269.719151,170.093577 270.559149,169.514037 Z M271.499862,170.853357 C273.086136,169.758747 273.47641,167.596562 272.372033,166.024317 C271.267657,164.452071 269.08688,164.065248 267.500607,165.159859 C265.914333,166.254469 265.52336,168.416654 266.627737,169.988899 C267.732813,171.561145 269.913589,171.947967 271.499862,170.853357 Z" id="å½¢çŠ¶" fill="#61188E"></path>
                <path d="M184,17.8531292 C184,15.1095782 186.262836,12.8854626 189.053442,12.8854626 L319.946558,12.8854626 C322.737164,12.8854626 325,15.1095782 325,17.8531292 L325,66.3979721 C325,69.1415232 322.737164,71.3656388 319.946558,71.3656388 L189.053442,71.3656388 C186.262836,71.3656388 184,69.1415232 184,66.3979721 L184,17.8531292 Z" id="è·¯å¾„" fill="#E9ECFA" fill-rule="nonzero"></path>
                <path d="M319.946558,15.3693326 L189.053442,15.3693326 C187.657765,15.3693326 186.526721,16.481317 186.526721,17.8531292 L186.526721,66.3979721 C186.526721,67.7697844 187.657765,68.8818422 189.053442,68.8818422 L319.946558,68.8818422 C321.341487,68.8818422 322.473279,67.7697844 322.473279,66.3979721 L322.473279,17.8531292 C322.473279,16.481317 321.341487,15.3693326 319.946558,15.3693326 Z M189.053442,12.8854626 C186.262836,12.8854626 184,15.1095782 184,17.8531292 L184,66.3979721 C184,69.1415232 186.262836,71.3656388 189.053442,71.3656388 L319.946558,71.3656388 C322.737164,71.3656388 325,69.1415232 325,66.3979721 L325,17.8531292 C325,15.1095782 322.737164,12.8854626 319.946558,12.8854626 L189.053442,12.8854626 Z" id="å½¢çŠ¶" fill="#61188E"></path>
                <path d="M270,50.0550661 C270,56.8977866 264.403438,62.4449339 257.5,62.4449339 C250.596562,62.4449339 245,56.8977866 245,50.0550661 C245,43.2123455 250.596562,37.6651982 257.5,37.6651982 C264.403438,37.6651982 270,43.2123455 270,50.0550661 Z" id="è·¯å¾„" fill="#FFFFFF" fill-rule="nonzero"></path>
                <path d="M257.5,60.9580999 C263.575084,60.9580999 268.500089,56.0766631 268.500089,50.0550661 C268.500089,44.0334691 263.575084,39.1519589 257.5,39.1519589 C251.424916,39.1519589 246.499911,44.0334691 246.499911,50.0550661 C246.499911,56.0766631 251.424916,60.9580999 257.5,60.9580999 Z M257.5,62.4449339 C264.403438,62.4449339 270,56.8977866 270,50.0550661 C270,43.2123455 264.403438,37.6651982 257.5,37.6651982 C250.596562,37.6651982 245,43.2123455 245,50.0550661 C245,56.8977866 250.596562,62.4449339 257.5,62.4449339 Z" id="å½¢çŠ¶" fill="#61188E"></path>
                <path d="M263.963858,49.170451 L259.839591,49.170451 C261.437415,43.8822164 258.738784,43.6123348 258.738784,43.6123348 C257.595118,43.6123348 257.831972,44.4229814 257.746253,44.5581368 C257.746253,47.1441208 254.679934,49.170451 254.679934,49.170451 L254.679934,56.5049062 C254.679934,57.2285496 255.781493,57.4889868 256.212341,57.4889868 L262.408893,57.4889868 C262.992381,57.4889868 263.46684,56.1192588 263.46684,56.1192588 C265,51.4482748 265,50.0586563 265,50.0586563 C265,49.093393 263.963106,49.170451 263.963106,49.170451 L263.963858,49.170451 Z M252.987368,49.1729532 L250.518071,49.1729532 C250.007519,49.1729532 250,49.62178 250,49.62178 L250.510552,57.0178387 C250.510552,57.4889868 251.036894,57.4889868 251.036894,57.4889868 L253.173091,57.4889868 C253.618226,57.4889868 253.614467,57.1773923 253.614467,57.1773923 L253.614467,49.7341115 C253.614467,49.1660149 252.987368,49.1729532 252.987368,49.1729532 L252.987368,49.1729532 Z" id="å½¢çŠ¶" fill="#C44E26" fill-rule="nonzero"></path>
                <path d="M122,146.200371 C122,153.355767 119.859863,160.350619 115.848792,166.299699 C111.838472,172.249522 106.137938,176.886742 99.4678177,179.624924 C92.7984477,182.363107 85.4594411,183.079612 78.3791408,181.683764 C71.2989904,180.287915 64.7952673,176.842146 59.6906572,171.782009 C54.5860471,166.722616 51.1097111,160.276292 49.7013747,153.2584 C48.2929633,146.240507 49.0158408,138.966188 51.7784478,132.355604 C54.5410547,125.744276 59.219362,120.093988 65.221795,116.119016 C71.224228,112.1433 78.2809074,110.022026 85.4999343,110.022026 L85.4999343,146.200371 L122,146.200371 Z" id="è·¯å¾„" fill="#E9ECFA" fill-rule="nonzero"></path>
                <path d="M85.4999343,146.200371 L85.4999343,110.022026 C84.7065687,110.022026 83.9147029,110.047297 83.1258365,110.098583 C76.7421681,110.511094 70.5642648,112.580339 65.221795,116.119016 C59.219362,120.093988 54.5410547,125.744276 51.7784478,132.355604 C49.0158408,138.966188 48.2929633,146.240507 49.7013747,153.2584 C51.1097111,160.276292 54.5860471,166.722616 59.6906572,171.782009 C64.7952673,176.842146 71.2989904,180.287915 78.3791408,181.683764 C85.4594411,183.079612 92.7984477,182.363107 99.4678177,179.624924 C106.137938,176.886742 111.838472,172.249522 115.848792,166.299699 C119.421937,160.999488 121.511083,154.869051 121.924263,148.534218 C121.974504,147.758994 122,146.980797 122,146.200371 L85.4999343,146.200371 Z M119.544916,148.534218 L83.1258365,148.534218 L83.1258365,112.437632 C77.2160878,112.846427 71.4992064,114.775939 66.5480953,118.054474 C60.9363461,121.771534 56.5595627,127.056136 53.9743007,133.242317 C51.3889637,139.429241 50.7122034,146.237534 52.0304801,152.806496 C53.3486817,159.375457 56.6020055,165.406296 61.3761466,170.138654 C66.1499878,174.870269 72.2299576,178.090829 78.8463116,179.395256 C85.4624406,180.699683 92.3200287,180.030003 98.5537225,177.470947 C104.786666,174.911891 110.118263,170.576436 113.869878,165.010137 C117.185066,160.092706 119.135485,154.410458 119.544916,148.534218 Z" id="å½¢çŠ¶" fill="#61188E"></path>
                <polygon id="è·¯å¾„" fill="#61188E" fill-rule="nonzero" points="82 95.8515714 88.2964146 90.1982379 94 96.4391775 87.7035854 102.092511"></polygon>
                <polygon id="è·¯å¾„" fill="#61188E" fill-rule="nonzero" points="29 141.445924 35.296363 135.792952 41 142.033492 34.703637 147.687225"></polygon>
                <polygon id="è·¯å¾„" fill="#61188E" points="88 96.8870739 36.5535498 141.740088 35 140.007199 86.4468974 95.154185"></polygon>
                <path d="M383,205.176211 C383,200.249503 317.633602,196.255507 237.000374,196.255507 C156.366398,196.255507 91,200.249503 91,205.176211 C91,210.10292 156.366398,214.096916 237.000374,214.096916 C317.633602,214.096916 383,210.10292 383,205.176211 Z" id="è·¯å¾„" fill="#CDD7FF" fill-rule="nonzero"></path>
                <path d="M267,148.050133 C267.856968,145.825592 269.248246,143.846247 271.051728,142.289142 C272.855209,140.731297 275.014651,139.642361 277.338382,139.119375 C279.662852,138.59639 282.079828,138.655651 284.375438,139.291234 C286.671047,139.926818 288.774985,141.118721 290.500762,142.762496 C292.226539,144.406271 293.520132,146.450805 294.267574,148.714606 C295.015756,150.978408 295.194106,153.391847 294.787083,155.741578 C294.38006,158.090569 293.400985,160.303258 291.935703,162.183339 C290.47116,164.063421 288.564813,165.553115 286.387611,166.519824 L283.673878,160.395113 C284.845364,159.875091 285.870322,159.073575 286.658466,158.06242 C287.44661,157.051265 287.97352,155.860843 288.191832,154.597084 C288.410885,153.333325 288.314679,152.035491 287.912837,150.817661 C287.510254,149.59983 286.814615,148.500523 285.886603,147.61604 C284.95859,146.731557 283.826327,146.090789 282.591937,145.748552 C281.356808,145.407056 280.056555,145.375202 278.806624,145.656696 C277.556694,145.937449 276.394829,146.5234 275.424634,147.361214 C274.455179,148.199029 273.706257,149.263519 273.245211,150.460608 L267,148.050133 Z" id="è·¯å¾„" fill="#C8597B" fill-rule="nonzero"></path>
                <path d="M267,148.050133 C267.243474,147.417513 267.53061,146.804153 267.858448,146.215239 C268.682115,144.733693 269.761835,143.403265 271.051728,142.289142 C272.855209,140.731297 275.014651,139.642361 277.338382,139.119375 C279.662852,138.59639 282.079828,138.655651 284.375438,139.291234 C286.671047,139.926818 288.774985,141.118721 290.500762,142.762496 C292.226539,144.406271 293.520132,146.450805 294.267574,148.714606 C295.015756,150.978408 295.194106,153.391847 294.787083,155.741578 C294.38006,158.090569 293.400985,160.303258 291.935703,162.183339 C290.887804,163.528583 289.614192,164.673818 288.176291,165.570153 C287.604979,165.927205 287.007026,166.244256 286.387611,166.519824 L283.673878,160.395113 C284.845364,159.875091 285.870322,159.073575 286.658466,158.06242 C287.44661,157.051265 287.97352,155.860843 288.191832,154.597084 C288.410885,153.333325 288.314679,152.035491 287.912837,150.817661 C287.510254,149.59983 286.814615,148.500523 285.886603,147.61604 C284.95859,146.731557 283.826327,146.090789 282.591937,145.748552 C281.356808,145.407056 280.056555,145.375202 278.806624,145.656696 C277.556694,145.937449 276.394829,146.5234 275.424634,147.361214 C274.455179,148.199029 273.706257,149.263519 273.245211,150.460608 L267,148.050133 Z M272.283157,147.92272 L269.764056,146.950826 C270.453774,145.774479 271.332944,144.715914 272.371222,143.818838 C273.923089,142.47878 275.781334,141.541703 277.781667,141.092053 C279.781259,140.641663 281.861516,140.692777 283.837427,141.239467 C285.813338,141.786158 287.62348,142.812128 289.108744,144.227004 C290.593267,145.641881 291.70703,147.401216 292.350126,149.349449 C292.993962,151.297682 293.147151,153.374809 292.797111,155.396378 C292.447072,157.417947 291.604164,159.322474 290.343873,160.940322 C289.500226,162.022592 288.487109,162.953743 287.348185,163.701183 L286.253663,161.230705 C287.004065,160.6892 287.677503,160.041765 288.251036,159.306177 C289.243431,158.032789 289.906509,156.533464 290.181804,154.942284 C290.4571,153.351104 290.336473,151.716218 289.830284,150.182818 C289.324096,148.650159 288.447147,147.264914 287.278621,146.151532 C286.110095,145.038151 284.684775,144.230708 283.129947,143.800319 C281.57512,143.36993 279.937408,143.329928 278.363339,143.684018 C276.789271,144.038107 275.326948,144.775917 274.10514,145.830778 C273.39988,146.440434 272.787126,147.145649 272.283157,147.92272 Z" id="å½¢çŠ¶" fill="#61188E"></path>
                <path d="M240,185.625106 C238.523358,187.905857 236.422098,189.732073 233.937091,190.893743 C231.452084,192.056147 228.683568,192.50701 225.949461,192.194196 C223.215355,191.882117 220.625622,190.819578 218.478731,189.128474 C216.33184,187.43737 214.713818,185.186726 213.810927,182.634283 C212.907288,180.08184 212.755435,177.331135 213.372572,174.697918 C213.988962,172.063967 215.349657,169.654713 217.298315,167.746255 C219.246226,165.837063 221.703555,164.505769 224.386794,163.905842 C227.070782,163.305181 229.87296,163.459384 232.47167,164.35083 L230.239502,170.620324 C228.841405,170.140823 227.334842,170.057847 225.891114,170.380941 C224.447386,170.704035 223.12559,171.419982 222.077578,172.44654 C221.029566,173.473832 220.297978,174.769146 219.965845,176.185619 C219.634461,177.602827 219.715998,179.082451 220.20148,180.454867 C220.687709,181.828017 221.557686,183.038885 222.712668,183.948689 C223.867651,184.857758 225.260511,185.429781 226.731169,185.597203 C228.201826,185.765359 229.691185,185.523038 231.027942,184.898145 C232.3647,184.273251 233.494996,183.290752 234.288673,182.063729 L240,185.625106 Z" id="è·¯å¾„" fill="#C8597B" fill-rule="nonzero"></path>
                <path d="M240,185.625164 C239.631962,186.193511 239.225773,186.73322 238.784426,187.241355 C237.453653,188.77457 235.803465,190.021408 233.937091,190.893755 C231.452084,192.056149 228.683568,192.507008 225.949461,192.194197 C223.215355,191.88212 220.625622,190.819591 218.478731,189.128502 C216.33184,187.437412 214.713818,185.186788 213.810927,182.634367 C212.907288,180.081946 212.755435,177.331265 213.372572,174.698071 C213.988962,172.064143 215.349657,169.65491 217.298315,167.746468 C219.246226,165.837293 221.703555,164.50601 224.386794,163.906088 C226.402777,163.454495 228.484588,163.429529 230.49683,163.822378 C231.164835,163.952349 231.824611,164.128581 232.47167,164.351073 L230.239502,170.620512 C230.238754,170.620512 230.238006,170.619778 230.238006,170.619778 C228.840657,170.141015 227.334094,170.05804 225.891114,170.381131 C224.447386,170.704222 223.12559,171.420163 222.077578,172.446712 C221.029566,173.473995 220.297978,174.769298 219.965845,176.185759 C219.634461,177.602955 219.715998,179.082566 220.20148,180.45497 C220.687709,181.828108 221.557686,183.038965 222.712668,183.948761 C223.867651,184.857822 225.260511,185.429841 226.731169,185.597261 C228.201826,185.765415 229.691185,185.523097 231.027942,184.898209 C232.3647,184.273321 233.494996,183.29083 234.288673,182.063817 L240,185.625164 Z M234.738248,184.718306 L237.04148,186.154593 C235.930632,187.376466 234.578166,188.375111 233.059634,189.085178 C230.920972,190.085292 228.538447,190.473002 226.185096,190.204249 C223.832493,189.935495 221.604065,189.021294 219.756393,187.565915 C217.90872,186.110535 216.51586,184.173456 215.73864,181.97717 C214.961421,179.780149 214.830513,177.412772 215.361625,175.146727 C215.892738,172.880682 217.063429,170.807024 218.739799,169.164399 C220.416917,167.521773 222.530893,166.376268 224.840858,165.859322 C226.481322,165.492173 228.172653,165.453255 229.816109,165.73596 L228.915462,168.264883 C227.760479,168.117289 226.583056,168.170893 225.43705,168.427163 C223.6193,168.833964 221.954898,169.735683 220.635346,171.028782 C219.315794,172.321881 218.394202,173.953492 217.976792,175.737103 C217.558635,177.520714 217.661865,179.383628 218.273766,181.112901 C218.88492,182.841439 219.980806,184.365843 221.435007,185.511348 C222.889955,186.656853 224.643374,187.376466 226.495535,187.587944 C228.346947,187.799422 230.222297,187.493953 231.9054,186.70752 C232.966876,186.211134 233.924374,185.536314 234.738248,184.718306 Z" id="å½¢çŠ¶" fill="#61188E"></path>
                <path d="M282.989878,152.008149 C293.560948,167.056338 289.822618,187.74992 274.640667,198.227853 C259.458716,208.705785 238.581191,205.000392 228.010122,189.952203 C217.439052,174.903271 221.177382,154.210432 236.359333,143.7325 C251.542033,133.254567 272.418809,136.95996 282.989878,152.008149 Z" id="è·¯å¾„" fill="#C8597B" fill-rule="nonzero"></path>
                <path d="M273.472018,196.563509 C287.726695,186.725309 291.236392,167.296331 281.31149,153.166502 C271.385839,139.037417 251.783409,135.558643 237.528732,145.3961 C223.273305,155.2343 219.763608,174.664022 229.689259,188.793107 C239.61491,202.922935 259.216591,206.40171 273.472018,196.563509 Z M274.640667,198.227853 C289.822618,187.74992 293.560948,167.056338 282.989878,152.008149 C272.418809,136.95996 251.542033,133.254567 236.359333,143.7325 C221.177382,154.210432 217.439052,174.903271 228.010122,189.952203 C238.581191,205.000392 259.458716,208.705785 274.640667,198.227853 Z" id="å½¢çŠ¶" fill="#61188E"></path>
                <path d="M235.192686,170.413791 C236.612643,172.434977 236.110615,175.21526 234.070687,176.622707 C232.031536,178.030153 229.227315,177.532548 227.807358,175.510593 C226.387401,173.489408 226.889429,170.709894 228.928581,169.302447 C230.968508,167.895001 233.772729,168.392606 235.192686,170.413791 Z" id="è·¯å¾„" fill="#FCB777" fill-rule="nonzero"></path>
                <path d="M232.861008,174.899931 C233.941107,174.154676 234.206476,172.683395 233.454597,171.613582 C232.702718,170.543 231.218358,170.2792 230.139036,171.024454 C229.058937,171.769708 228.793568,173.241759 229.544671,174.311572 C230.29655,175.381385 231.781686,175.645185 232.861008,174.899931 Z M234.070687,176.622707 C236.110615,175.21526 236.612643,172.434977 235.192686,170.413791 C233.772729,168.392606 230.968508,167.895001 228.928581,169.302447 C226.889429,170.709894 226.387401,173.489408 227.807358,175.510593 C229.227315,177.532548 232.031536,178.030153 234.070687,176.622707 Z" id="å½¢çŠ¶" fill="#61188E"></path>
                <path d="M234.818838,171.475771 C234.818838,171.475771 234.818838,171.475771 233.909419,171.027892 C233,170.580013 233,170.580013 233,170.580013 L233.005978,170.568399 L233.023165,170.536459 C233.037363,170.508875 233.058286,170.46895 233.085935,170.418138 C233.140485,170.315786 233.219695,170.168429 233.320576,169.986954 C233.520842,169.623279 233.805549,169.118054 234.143312,168.55258 C234.80987,167.436875 235.715553,166.029359 236.604048,165.015279 C239.230677,162.016595 244.081906,159.928913 248.087235,158.601245 C250.121284,157.926886 251.998408,157.429646 253.366646,157.100814 C254.051886,156.936035 254.610091,156.813359 254.999415,156.732058 C255.193703,156.690682 255.346145,156.660194 255.450762,156.639869 C255.50307,156.628981 255.543422,156.621722 255.571071,156.615914 L255.602456,156.610107 L255.611423,156.608655 L255.61516,156.60793 C255.61516,156.60793 255.61516,156.60793 255.807206,157.580633 C256,158.553336 256,158.553336 256,158.553336 L255.992527,158.554062 L255.966373,158.559143 C255.942461,158.564224 255.905845,158.570758 255.857273,158.58092 C255.760876,158.599793 255.616654,158.628829 255.430586,158.668028 C255.058449,158.746425 254.519673,158.86402 253.856103,159.023718 C252.528965,159.342387 250.710127,159.824383 248.745573,160.475514 C244.752201,161.799552 240.389681,163.750039 238.15686,166.298667 C237.393158,167.17047 236.562949,168.448777 235.906852,169.54706 C235.583287,170.08858 235.310536,170.572754 235.117743,170.921911 C235.022093,171.096126 234.946619,171.235499 234.895058,171.331317 C234.869651,171.379227 234.850223,171.416247 234.837519,171.440928 L234.822574,171.467786 L234.818838,171.475771 Z" id="è·¯å¾„" fill="#61188E"></path>
                <path d="M261.192642,155.546676 C262.612599,157.567861 262.110571,160.347375 260.071419,161.754822 C258.031492,163.162268 255.227271,162.664663 253.807314,160.643477 C252.387357,158.622292 252.889385,155.842009 254.929313,154.434562 C256.968464,153.027116 259.772685,153.524721 261.192642,155.546676 Z" id="è·¯å¾„" fill="#FCB777" fill-rule="nonzero"></path>
                <path d="M258.860964,160.032815 C259.941063,159.28756 260.206432,157.81551 259.455329,156.745697 C258.70345,155.675884 257.218314,155.412084 256.138992,156.157338 C255.058893,156.902592 254.793524,158.373874 255.545403,159.443687 C256.296506,160.514269 257.781642,160.778069 258.860964,160.032815 Z M260.071419,161.754822 C262.110571,160.347375 262.612599,157.567861 261.192642,155.546676 C259.772685,153.524721 256.968464,153.027116 254.929313,154.434562 C252.889385,155.842009 252.387357,158.622292 253.807314,160.643477 C255.227271,162.664663 258.031492,163.162268 260.071419,161.754822 Z" id="å½¢çŠ¶" fill="#61188E"></path>
                <polygon id="è·¯å¾„" fill="#FFFFFF" fill-rule="nonzero" points="110 39.6475771 240 39.6475771 240 200.220264 110 200.220264"></polygon>
                <path d="M237.646988,41.5311007 L112.353012,41.5311007 L112.353012,198.337186 L237.646988,198.337186 L237.646988,41.5311007 Z M110,39.6475771 L110,200.220264 L240,200.220264 L240,39.6475771 L110,39.6475771 Z" id="å½¢çŠ¶" fill="#61188E"></path>
                <path d="M126,179.901248 C126,176.342845 128.872629,173.45815 132.416821,173.45815 L147.583919,173.45815 C151.127371,173.45815 154,176.342845 154,179.901248 C154,183.45965 151.127371,186.343612 147.583919,186.343612 L132.416821,186.343612 C128.872629,186.343612 126,183.45965 126,179.901248 Z" id="è·¯å¾„" fill="#ECCE33" fill-rule="nonzero"></path>
                <path d="M147.583919,175.801094 L132.416821,175.801094 C130.161762,175.801094 128.333457,177.636743 128.333457,179.901248 C128.333457,182.165752 130.161762,184.000668 132.416821,184.000668 L147.583919,184.000668 C149.838977,184.000668 151.667283,182.165752 151.667283,179.901248 C151.667283,177.636743 149.838977,175.801094 147.583919,175.801094 Z M132.416821,173.45815 C128.872629,173.45815 126,176.342845 126,179.901248 C126,183.45965 128.872629,186.343612 132.416821,186.343612 L147.583919,186.343612 C151.127371,186.343612 154,183.45965 154,179.901248 C154,176.342845 151.127371,173.45815 147.583919,173.45815 L132.416821,173.45815 Z" id="å½¢çŠ¶" fill="#61188E"></path>
                <path d="M159,179.901248 C159,176.342845 161.914675,173.45815 165.510419,173.45815 L181.489581,173.45815 C185.085325,173.45815 188,176.342845 188,179.901248 L188,179.901248 C188,183.45965 185.085325,186.343612 181.489581,186.343612 L165.510419,186.343612 C161.914675,186.343612 159,183.45965 159,179.901248 L159,179.901248 Z" id="è·¯å¾„" fill="#FFF8F8" fill-rule="nonzero"></path>
                <path d="M181.489581,175.801094 L165.510419,175.801094 C163.222629,175.801094 161.367562,177.636743 161.367562,179.901248 C161.367562,182.165752 163.222629,184.000668 165.510419,184.000668 L181.489581,184.000668 C183.778124,184.000668 185.632438,182.165752 185.632438,179.901248 C185.632438,177.636743 183.778124,175.801094 181.489581,175.801094 Z M165.510419,173.45815 C161.914675,173.45815 159,176.342845 159,179.901248 C159,183.45965 161.914675,186.343612 165.510419,186.343612 L181.489581,186.343612 C185.085325,186.343612 188,183.45965 188,179.901248 C188,176.342845 185.085325,173.45815 181.489581,173.45815 L165.510419,173.45815 Z" id="å½¢çŠ¶" fill="#61188E"></path>
                <path d="M116,53.5242291 C116,49.6922838 119.037685,46.5859031 122.784787,46.5859031 L227.215213,46.5859031 C230.962315,46.5859031 234,49.6922838 234,53.5242291 L234,53.5242291 C234,57.3561744 230.962315,60.4625551 227.215213,60.4625551 L122.784787,60.4625551 C119.037685,60.4625551 116,57.3561744 116,53.5242291 L116,53.5242291 Z" id="è·¯å¾„" fill="#E9ECFA" fill-rule="nonzero"></path>
                <path d="M227.215213,48.999257 L122.784787,48.999257 C120.341155,48.999257 118.35973,51.0251211 118.35973,53.5242291 C118.35973,56.0233371 120.341155,58.0492011 122.784787,58.0492011 L227.215213,58.0492011 C229.658845,58.0492011 231.64027,56.0233371 231.64027,53.5242291 C231.64027,51.0251211 229.658845,48.999257 227.215213,48.999257 Z M122.784787,46.5859031 C119.037685,46.5859031 116,49.6922838 116,53.5242291 C116,57.3561744 119.037685,60.4625551 122.784787,60.4625551 L227.215213,60.4625551 C230.962315,60.4625551 234,57.3561744 234,53.5242291 C234,49.6922838 230.962315,46.5859031 227.215213,46.5859031 L122.784787,46.5859031 Z" id="å½¢çŠ¶" fill="#61188E"></path>
                <path d="M129,54.0198238 C129,55.9357858 127.433204,57.4889868 125.5,57.4889868 C123.566796,57.4889868 122,55.9357858 122,54.0198238 C122,52.1038618 123.566796,50.5506608 125.5,50.5506608 C127.433204,50.5506608 129,52.1038618 129,54.0198238 Z" id="è·¯å¾„" fill="#FC7777" fill-rule="nonzero"></path>
                <path d="M139,54.0198238 C139,55.9357858 137.433204,57.4889868 135.5,57.4889868 C133.566796,57.4889868 132,55.9357858 132,54.0198238 C132,52.1038618 133.566796,50.5506608 135.5,50.5506608 C137.433204,50.5506608 139,52.1038618 139,54.0198238 Z" id="è·¯å¾„" fill="#FCB777" fill-rule="nonzero"></path>
                <path d="M149,54.0198238 C149,55.9357858 147.432586,57.4889868 145.499602,57.4889868 C143.566617,57.4889868 142,55.9357858 142,54.0198238 C142,52.1038618 143.566617,50.5506608 145.499602,50.5506608 C147.432586,50.5506608 149,52.1038618 149,54.0198238 Z" id="è·¯å¾„" fill="#79D57D" fill-rule="nonzero"></path>
                <polygon id="è·¯å¾„" fill="#61188E" fill-rule="nonzero" points="142.75943 80.2863436 146 80.2863436 142.468762 100.110132 137.390279 100.110132 134.488075 85.925876 131.609721 100.110132 126.531238 100.110132 123 80.2863436 126.24057 80.2863436 129.07048 97.9985433 132.770901 80.2863436 136.229099 80.2863436 139.92952 97.9985433"></polygon>
                <path d="M148,90.5876498 C148,90.0985687 148.080895,89.648176 148.243433,89.2379319 C148.4217,88.8269577 148.656145,88.4721914 148.948264,88.172173 C149.256113,87.8714246 149.620138,87.6429435 150.041838,87.4845396 C150.46279,87.3108063 150.924937,87.2246696 151.427532,87.2246696 L159.375421,87.2246696 C159.715478,87.2246696 160.039805,87.2954769 160.347654,87.4378214 C160.671232,87.5794359 160.955112,87.7692286 161.197796,88.0057395 C161.441228,88.2429803 161.635975,88.5189096 161.781285,88.8349874 C161.927345,89.1350059 162,89.4510837 162,89.7824909 L162,92.601642 C162,92.9330492 161.927345,93.2564267 161.781285,93.5725045 C161.635975,93.872523 161.441228,94.1411526 161.197796,94.3776635 C160.955112,94.6149043 160.671232,94.804697 160.347654,94.9463115 C160.039805,95.088656 159.715478,95.1594633 159.375421,95.1594633 L151.256755,95.1594633 L151.256755,95.9653522 C151.256755,96.2967594 151.378845,96.5807184 151.621529,96.8179593 C151.864962,97.0391407 152.148093,97.1493665 152.47242,97.1493665 L161.806003,97.1493665 L161.806003,100.110132 L151.621529,100.110132 C151.119683,100.110132 150.649296,100.015966 150.211867,99.8261731 C149.774437,99.6363804 149.385694,99.3838102 149.044888,99.0684624 C148.72131,98.7523846 148.462148,98.3735292 148.267401,97.9311663 C148.089134,97.5048627 148,97.0464404 148,96.5573593 L148,90.5876498 Z M158.111069,92.1986976 C158.289337,92.1986976 158.435397,92.1432197 158.548499,92.032994 C158.662351,91.9220383 158.719277,91.7804237 158.719277,91.6066904 L158.719277,90.7774424 C158.719277,90.6037092 158.662351,90.4613647 158.548499,90.3511389 C158.435397,90.2401832 158.289337,90.1854353 158.111069,90.1854353 L152.107645,90.1854353 C151.880691,90.1854353 151.678455,90.2723019 151.500187,90.4460352 C151.338398,90.6037092 151.256755,90.7935018 151.256755,91.0146833 L151.256755,92.1986976 L158.111069,92.1986976 Z" id="å½¢çŠ¶" fill="#61188E" fill-rule="nonzero"></path>
                <path d="M175.718703,87.0545221 L175.718703,80.2863436 L179,80.2863436 L179,100.110132 L168.622084,100.110132 C168.119516,100.110132 167.649904,100.014722 167.211748,99.8224236 C166.774342,99.6301247 166.38562,99.3742194 166.045581,99.0547075 C165.721271,98.7344561 165.462123,98.350598 165.267387,97.9023939 C165.089129,97.4704612 165,97.0059856 165,96.5104463 L165,90.6542079 C165,90.1579291 165.089129,89.6941931 165.267387,89.2622604 C165.462123,88.8140563 165.721271,88.4301982 166.045581,88.1099468 C166.38562,87.7904349 166.774342,87.5345296 167.211748,87.3422307 C167.649904,87.1499319 168.119516,87.0545221 168.622084,87.0545221 L175.718703,87.0545221 Z M175.718703,97.1102707 L175.718703,90.0543836 L169.472181,90.0543836 C169.14862,90.0543836 168.864755,90.1742005 168.622084,90.414574 C168.378665,90.6379365 168.257329,90.918249 168.257329,91.2540323 L168.257329,95.910622 C168.257329,96.2464053 168.378665,96.5341139 168.622084,96.7744874 C168.864755,96.9985895 169.14862,97.1102707 169.472181,97.1102707 L175.718703,97.1102707 Z" id="å½¢çŠ¶" fill="#61188E" fill-rule="nonzero"></path>
                <path d="M203.90209,100.851906 C203.90209,101.52359 203.690454,102.059901 203.267181,102.4601 C202.859725,102.875834 202.313689,103.0837 201.629072,103.0837 L200.065524,103.0837 L200.065524,100.323732 L200.456411,100.323732 C200.700433,100.323732 200.823197,100.203154 200.823197,99.9634788 L200.823197,95.2343235 L199.722839,95.2343235 L199.722839,102.483772 L196.912822,102.483772 L196.912822,95.2343235 L196.106195,95.2343235 L196.106195,102.483772 L193.319526,102.483772 L193.319526,95.2343235 L192.390887,95.2343235 L192.390887,103.0837 L189.311994,103.0837 L189.311994,92.2339396 L194.224063,92.2339396 L194.61495,90.6738288 L189.214084,90.6738288 L189.214084,87.6727052 L204,87.6727052 L204,90.6738288 L197.963472,90.6738288 L197.572585,92.2339396 L203.90209,92.2339396 L203.90209,100.851906 Z M198.256449,79.3432373 L198.256449,83.5205468 L200.431557,83.5205468 L200.431557,79.8477397 L203.731124,79.8477397 L203.731124,86.5209307 L189.507061,86.5209307 L189.507061,79.8477397 L192.806628,79.8477397 L192.806628,83.5205468 L194.957635,83.5205468 L194.957635,79.3432373 L198.256449,79.3432373 Z M185.963472,79.2951542 L185.963472,82.1757002 L188.774242,82.1757002 L188.774242,85.1768238 L180,85.1768238 L180,82.1757002 L182.81077,82.1757002 L182.81077,79.2951542 L185.963472,79.2951542 Z M180.684617,97.9706203 C180.668047,96.1464224 180.635662,94.3222245 180.586707,92.4980267 C180.554321,90.6738288 180.456411,88.8488912 180.292977,87.0246933 L183.323668,87.0246933 C183.502918,88.8333567 183.609113,90.6494174 183.641499,92.4736153 C183.690454,94.2985529 183.707023,96.1308879 183.690454,97.9706203 L180.684617,97.9706203 Z M188.382602,87.0246933 C188.350217,88.8651655 188.244775,90.6975005 188.065524,92.5216983 C187.90209,94.346636 187.682169,96.1626967 187.405008,97.9706203 L184.399172,97.9706203 C184.676332,96.1626967 184.912822,94.346636 185.107889,92.5216983 C185.319526,90.6975005 185.44229,88.8651655 185.474675,87.0246933 L188.382602,87.0246933 Z M180,100.083317 C181.580117,100.019699 183.054792,99.8991214 184.424026,99.7230634 C185.792506,99.5470054 187.201657,99.3073298 188.651478,99.0032968 L188.651478,101.931926 C187.201657,102.219685 185.792506,102.451963 184.424026,102.628021 C183.054792,102.804079 181.580117,102.923917 180,102.988274 L180,100.083317 Z" id="å½¢çŠ¶" fill="#61188E" fill-rule="nonzero"></path>
                <path d="M143,129.845815 L139.21268,129.845815 L137.442536,125.625002 L127.581713,125.625002 L125.811569,129.845815 L122,129.845815 L130.508209,110.022026 L134.638798,110.022026 L143,129.845815 Z M128.762314,122.82696 L136.261935,122.82696 L132.548876,113.934462 L128.762314,122.82696 Z" id="å½¢çŠ¶" fill="#61188E" fill-rule="nonzero"></path>
                <polygon id="è·¯å¾„" fill="#61188E" fill-rule="nonzero" points="159 116.960352 153.485372 123.450164 159 129.845815 154.95599 129.845815 151.500378 125.795431 148.04401 129.845815 144 129.845815 149.441362 123.379361 144 116.960352 147.921648 116.960352 151.402185 121.034824 154.833627 116.960352"></polygon>
                <path d="M165.280723,116.960352 L165.280723,125.70054 C165.280723,126.032658 165.394575,126.316601 165.621529,126.553099 C165.864213,126.774268 166.156332,126.885217 166.496389,126.885217 L171.52758,126.885217 C171.851907,126.885217 172.135038,126.774268 172.378471,126.553099 C172.621155,126.316601 172.743245,126.032658 172.743245,125.70054 L172.743245,116.960352 L176,116.960352 L176,126.292513 C176,126.782297 175.902627,127.239963 175.70863,127.666973 C175.513884,128.10858 175.254722,128.487414 174.930394,128.803474 C174.606067,129.119534 174.225563,129.37209 173.788133,129.561872 C173.350704,129.750924 172.881066,129.845815 172.378471,129.845815 L165.645498,129.845815 C165.143652,129.845815 164.665026,129.750924 164.211867,129.561872 C163.774437,129.37209 163.393184,129.119534 163.069606,128.803474 C162.745278,128.487414 162.486116,128.10858 162.29137,127.666973 C162.097373,127.239963 162,126.782297 162,126.292513 L162,116.960352 L165.280723,116.960352 Z" id="è·¯å¾„" fill="#61188E" fill-rule="nonzero"></path>
                <path d="M182.275116,118.523863 C182.663943,118.018752 183.156706,117.631888 183.755648,117.363274 C184.370293,117.09466 185.017091,116.960352 185.69679,116.960352 L189.409336,116.960352 C189.910324,116.960352 190.379907,117.039185 190.816589,117.19758 C191.253271,117.355245 191.633125,117.576414 191.956898,117.860357 C192.280671,118.14503 192.531165,118.492476 192.709128,118.902697 C192.903541,119.29759 193,119.739928 193,120.228981 L193,121.863295 L189.724884,121.863295 L189.724884,120.915846 C189.724884,120.584457 189.611227,120.33993 189.384661,120.181536 C189.158094,120.007812 188.883672,119.92095 188.5599,119.92095 L185.09037,119.92095 C184.475725,119.92095 183.925386,120.023871 183.4401,120.228981 C182.971265,120.434092 182.582439,120.820955 182.275116,121.389571 L182.275116,129.845815 L179,129.845815 L179,116.960352 L182.275116,116.960352 L182.275116,118.523863 Z" id="è·¯å¾„" fill="#61188E" fill-rule="nonzero"></path>
                <path d="M196,120.323872 C196,119.834089 196.080895,119.384452 196.242684,118.973501 C196.420951,118.56328 196.656145,118.207804 196.947515,117.907802 C197.255364,117.607801 197.620138,117.378603 198.041089,117.220938 C198.46279,117.047214 198.924188,116.960352 199.426783,116.960352 L207.374672,116.960352 C207.714729,116.960352 208.039056,117.031156 208.346905,117.173492 C208.671232,117.315829 208.954363,117.504881 209.197796,117.742108 C209.440479,117.978605 209.635226,118.255249 209.781285,118.571309 C209.926596,118.87131 210,119.18664 210,119.518759 L210,122.33702 C210,122.669139 209.926596,122.992498 209.781285,123.308558 C209.635226,123.608559 209.440479,123.877174 209.197796,124.113671 C208.954363,124.350898 208.671232,124.53995 208.346905,124.682287 C208.039056,124.824623 207.714729,124.895427 207.374672,124.895427 L199.256755,124.895427 L199.256755,125.70054 C199.256755,126.032658 199.378096,126.316601 199.621529,126.553099 C199.864213,126.774268 200.148093,126.885217 200.471671,126.885217 L209.805254,126.885217 L209.805254,129.845815 L199.621529,129.845815 C199.118934,129.845815 198.649296,129.750924 198.211118,129.561872 C197.773688,129.37209 197.384945,129.119534 197.044888,128.803474 C196.720561,128.487414 196.461399,128.10858 196.266652,127.666973 C196.089134,127.239963 196,126.782297 196,126.292513 L196,120.323872 Z M206.111069,121.934829 C206.289337,121.934829 206.434648,121.879354 206.548499,121.768404 C206.661602,121.658185 206.718528,121.515848 206.718528,121.342125 L206.718528,120.513654 C206.718528,120.33993 206.661602,120.197594 206.548499,120.087375 C206.434648,119.976425 206.289337,119.92095 206.111069,119.92095 L200.107645,119.92095 C199.880691,119.92095 199.677706,120.007812 199.499438,120.181536 C199.337649,120.33993 199.256755,120.528982 199.256755,120.750151 L199.256755,121.934829 L206.111069,121.934829 Z" id="å½¢çŠ¶" fill="#61188E" fill-rule="nonzero"></path>
                <path d="M146,157.132305 C146,158.048107 145.7446,158.778965 145.23532,159.32488 C144.742003,159.871539 144.059416,160.144868 143.187559,160.144868 L140.302147,160.144868 L140.302147,157.132305 L141.584468,157.132305 C141.9136,157.132305 142.176601,157.035749 142.373472,156.842636 C142.587825,156.650266 142.694242,156.385107 142.694242,156.047159 L142.694242,151.419875 L140.12884,151.419875 L140.12884,148.407313 C140.375879,148.053768 140.630519,147.611836 140.89352,147.081518 C141.173244,146.551201 141.436245,145.997115 141.683284,145.418519 C141.929562,144.839923 142.143916,144.269497 142.324824,143.707241 C142.521695,143.128645 142.653196,142.606497 142.719326,142.140798 L139.389244,142.140798 L139.389244,162.555066 L136.059163,162.555066 L136.059163,139.127493 L146,139.127493 L146,142.140798 C145.950592,142.606497 145.843415,143.128645 145.67923,143.707241 C145.531007,144.285837 145.350098,144.86369 145.136505,145.442286 C144.938874,146.020883 144.716919,146.574968 144.47064,147.105286 C144.240324,147.620007 144.001647,148.053768 143.755368,148.407313 L146,148.407313 L146,157.132305 Z M134.850573,162.506788 L122.468233,162.506788 L122.468233,152.504279 L134.850573,152.504279 L134.850573,162.506788 Z M134.160385,144.67132 L133.395705,147.925274 L135.319567,147.925274 L135.319567,150.937836 L122,150.937836 L122,147.925274 L123.923861,147.925274 L123.159182,144.67132 L126.464179,144.67132 L127.253943,147.925274 L130.065624,147.925274 L130.830303,144.67132 L134.160385,144.67132 Z M130.311902,138.76652 L130.311902,140.501566 L135.048204,140.501566 L135.048204,143.514128 L122.271363,143.514128 L122.271363,140.501566 L127.006904,140.501566 L127.006904,138.76652 L130.311902,138.76652 Z M131.520492,155.516841 L125.798315,155.516841 L125.798315,159.494226 L131.520492,159.494226 L131.520492,155.516841 Z" id="å½¢çŠ¶" fill="#61188E" fill-rule="nonzero"></path>
                <path d="M169.197452,145.92715 L163.264144,145.92715 L163.264144,152.462798 L170,152.462798 L170,155.466264 L163.264144,155.466264 L163.264144,162.53137 L159.981266,162.53137 L159.981266,155.466264 L153.124016,155.466264 L153.124016,152.462798 L159.981266,152.462798 L159.981266,145.92715 L157.306857,145.92715 C156.917947,146.792053 156.398651,147.52885 155.750468,148.137541 C155.102286,148.746232 154.275009,149.163133 153.270139,149.386764 L153.270139,145.782753 C153.643312,145.574672 153.94305,145.278472 154.170101,144.893413 C154.412889,144.509093 154.599475,144.076642 154.729112,143.596058 C154.875234,143.099182 154.980142,142.563061 155.045335,141.986212 C155.110528,141.409363 155.166729,140.824368 155.215436,140.231968 L158.425628,140.231968 C158.409142,140.696262 158.37692,141.15315 158.328213,141.601892 C158.295991,142.049895 158.239041,142.490492 158.158112,142.922943 L159.981266,142.922943 L159.981266,138.76652 L163.264144,138.76652 L163.264144,142.922943 L169.197452,142.922943 L169.197452,145.92715 Z M152.516298,138.958309 C152.403147,139.871345 152.257025,140.736248 152.078681,141.55376 C151.916823,142.370531 151.706257,143.139169 151.446235,143.860416 L151.446235,162.555066 L148.164106,162.555066 L148.164106,148.882483 C147.482952,149.474883 146.761334,149.979904 146,150.396064 L146,146.359602 C146.486324,145.958991 146.915699,145.486553 147.288123,144.941545 C147.661296,144.380987 147.97752,143.780442 148.236793,143.139169 C148.512552,142.483087 148.73136,141.801827 148.893218,141.096872 C149.055077,140.391916 149.17722,139.679556 149.258149,138.958309 L152.516298,138.958309 Z" id="å½¢çŠ¶" fill="#61188E" fill-rule="nonzero"></path>
                <path d="M183.946086,149.629143 L187.123967,149.629143 L187.123967,152.147669 L193.075645,152.147669 L193.075645,155.121423 L187.123967,155.121423 L187.123967,157.159596 L193.810745,157.159596 L193.810745,160.133349 L187.123967,160.133349 L187.123967,162.531418 L183.946086,162.531418 L183.946086,160.133349 L176.500826,160.133349 L176.500826,157.159596 L183.946086,157.159596 L183.946086,155.121423 L177.354302,155.121423 L177.354302,152.147669 L178.871998,148.550197 L176.643316,148.550197 L176.643316,145.552796 L180.128828,145.552796 L180.793049,143.969849 L184.112689,143.969849 L183.448469,145.552796 L193.668255,145.552796 L193.668255,148.550197 L182.215752,148.550197 L180.721439,152.147669 L183.946086,152.147669 L183.946086,149.629143 Z M185.81964,138.76652 L185.81964,140.373115 L194,140.373115 L194,143.370516 L175.623237,143.370516 L175.623237,156.152333 C175.623237,156.903901 175.552357,157.63921 175.409868,158.358261 C175.268109,159.078051 175.022589,159.725419 174.674768,160.301103 C174.327678,160.892307 173.853444,161.388178 173.252065,161.78798 C172.651417,162.187042 171.900972,162.443476 171,162.555066 L171,159.030016 C171.584572,158.741804 171.963814,158.302836 172.137724,157.710893 C172.32771,157.11969 172.422703,156.439806 172.422703,155.67272 L172.422703,140.373115 L182.618376,140.373115 L182.618376,138.76652 L185.81964,138.76652 Z" id="å½¢çŠ¶" fill="#61188E" fill-rule="nonzero"></path>
                <path d="M347.896358,166.444096 C353.98027,146.542438 375.069485,135.33356 395,141.409628 L395,141.409628 C395,141.409628 384.762848,160.775663 380.660727,174.095962 C379.052328,179.319768 377.706933,185.821967 376.661585,191.84181 C375.048,201.130138 365.719878,207.266131 356.691063,204.514034 L338,198.816009 L347.896358,166.444096 Z" id="è·¯å¾„" fill="#A1A1EA" fill-rule="nonzero"></path>
                <path d="M392.518872,140.743077 C393.34715,140.936167 394.174686,141.158111 395,141.409646 C395,141.409646 394.561413,142.238974 393.828706,143.673468 C391.024565,149.168043 383.913827,163.532951 380.660727,174.09597 C379.052328,179.319775 377.706933,185.821973 376.661585,191.841814 C375.048,201.130139 365.719878,207.266131 356.691063,204.514034 L338,198.816011 L347.896358,166.444107 C353.728379,147.366604 373.348475,136.276839 392.518872,140.743077 Z M391.336466,143.044628 C373.637409,139.250878 355.676831,149.56976 350.29451,167.17578 L341.130118,197.152176 L357.423029,202.119267 C364.913827,204.402323 372.817281,199.318343 374.190829,191.413463 C375.242845,185.359591 376.608984,178.735324 378.264057,173.359859 C380.370311,166.521047 384.019769,158.21593 387.10025,151.689319 C388.648639,148.411217 390.066638,145.553327 391.09791,143.514408 C391.180145,143.35239 391.259417,143.19555 391.336466,143.044628 Z" id="å½¢çŠ¶" fill="#61188E"></path>
                <path d="M261,197.885362 C261,192.605908 265.02924,188.325991 270.000496,188.325991 L311.999835,188.325991 C313.65692,188.325991 315,189.752375 315,191.512448 L315,203.193833 L263.333462,203.193833 C262.0447,203.193833 261,202.086629 261,200.717513 L261,197.885362 Z" id="è·¯å¾„" fill="#626282" fill-rule="nonzero"></path>
                <path d="M317,191.658868 C317,189.311413 315.11791,187.334802 312.704513,187.334802 L270.34699,187.334802 C264.591158,187.334802 260,192.066577 260,197.812093 L260,200.546613 C260,202.518063 261.582666,204.185022 263.623098,204.185022 L317,204.185022 L317,191.658868 Z M312.704513,189.830448 C313.633551,189.830448 314.46053,190.608264 314.46053,191.658868 L314.46053,201.690113 L263.623098,201.690113 C263.064024,201.690113 262.540221,201.219 262.540221,200.546613 L262.540221,197.812093 C262.540221,193.363428 266.075517,189.830448 270.34699,189.830448 L312.704513,189.830448 Z" id="å½¢çŠ¶" fill="#61188E"></path>
                <path d="M380,197.885362 C380,192.605908 375.97076,188.325991 371.000248,188.325991 L329.000165,188.325991 C327.343824,188.325991 326,189.752375 326,191.512448 L326,203.193833 L377.666538,203.193833 C378.9553,203.193833 380,202.086629 380,200.717513 L380,197.885362 Z" id="è·¯å¾„" fill="#626282" fill-rule="nonzero"></path>
                <path d="M325,191.658868 C325,189.311413 326.882815,187.334802 329.29543,187.334802 L371.653146,187.334802 C377.408152,187.334802 382,192.066577 382,197.812093 L382,200.546613 C382,202.518063 380.417355,204.185022 378.37695,204.185022 L325,204.185022 L325,191.658868 Z M329.29543,189.830448 C328.367155,189.830448 327.540187,190.608264 327.540187,191.658868 L327.540187,201.690113 L378.37695,201.690113 C378.935266,201.690113 379.459813,201.219 379.459813,200.546613 L379.459813,197.812093 C379.459813,193.363428 375.923812,189.830448 371.653146,189.830448 L329.29543,189.830448 Z" id="å½¢çŠ¶" fill="#61188E"></path>
                <path d="M341.390814,92.1806167 C346.239997,92.1806167 350.571994,95.1637419 352.160815,99.7112881 C356.127651,111.067579 363.31088,132.871835 365.672501,148.18245 C367.575807,160.526952 368.525224,177.092062 368.988755,188.999413 C369.314418,197.358525 362.524667,204.185022 354.09542,204.185022 L285.799962,204.185022 C277.516034,204.185022 270.790373,197.582648 271.004998,189.362596 C271.315757,177.492228 272.192142,160.797674 274.602947,148.18245 C278.302247,128.824312 281.991114,116.752751 289.078955,99.2815346 C290.828,94.9721651 295.066098,92.1806167 299.74686,92.1806167 L341.390814,92.1806167 Z" id="è·¯å¾„" fill="url(#linearGradient-1)" fill-rule="nonzero"></path>
                <path d="M285.799962,201.681209 L354.09542,201.681209 C361.132586,201.681209 366.737428,195.997516 366.468401,189.095571 C366.005616,177.197096 365.05918,160.754773 363.178976,148.561905 C360.856852,133.50648 353.750381,111.905635 349.777583,100.531592 C348.550196,97.0181171 345.194445,94.6836903 341.390814,94.6836903 L299.74686,94.6836903 C296.076624,94.6836903 292.77602,96.8716606 291.418964,100.217229 C284.38925,117.544208 280.748078,129.458956 277.081568,148.649187 C274.711005,161.051384 273.836855,177.572113 273.526841,189.427687 C273.350223,196.185394 278.879052,201.681209 285.799962,201.681209 Z M352.160815,99.7112881 C350.571994,95.1637419 346.239997,92.1806167 341.390814,92.1806167 L299.74686,92.1806167 C295.066098,92.1806167 290.828,94.9721651 289.078955,99.2815346 C281.991114,116.752751 278.302247,128.824312 274.602947,148.18245 C272.192142,160.797674 271.315757,177.492228 271.004998,189.362596 C270.790373,197.582648 277.516034,204.185022 285.799962,204.185022 L354.09542,204.185022 C362.524667,204.185022 369.314418,197.358525 368.988755,188.999413 C368.525224,177.092062 367.575807,160.526952 365.672501,148.18245 C363.31088,132.871835 356.127651,111.067579 352.160815,99.7112881 Z" id="å½¢çŠ¶" fill="#61188E"></path>
                <path d="M297,162.616946 C297,160.393225 298.797239,158.590308 301.013958,158.590308 L340.986042,158.590308 C343.202761,158.590308 345,160.393225 345,162.616946 L345,172.282808 C345,178.953971 339.609023,184.361233 332.958867,184.361233 L309.041133,184.361233 C302.390977,184.361233 297,178.953971 297,172.282808 L297,162.616946 Z" id="è·¯å¾„" fill="#C44E26" fill-rule="nonzero"></path>
                <path d="M340.986042,161.106957 L301.013958,161.106957 C300.182411,161.106957 299.508724,161.782772 299.508724,162.616946 L299.508724,172.282808 C299.508724,177.563681 303.776148,181.845329 309.041133,181.845329 L332.958867,181.845329 C338.223852,181.845329 342.491276,177.563681 342.491276,172.282808 L342.491276,162.616946 C342.491276,161.782772 341.817589,161.106957 340.986042,161.106957 Z M301.013958,158.590308 C298.797239,158.590308 297,160.393225 297,162.616946 L297,172.282808 C297,178.953971 302.390977,184.361233 309.041133,184.361233 L332.958867,184.361233 C339.609023,184.361233 345,178.953971 345,172.282808 L345,162.616946 C345,160.393225 343.202761,158.590308 340.986042,158.590308 L301.013958,158.590308 Z" id="å½¢çŠ¶" fill="#61188E"></path>
                <path d="M345.041929,44.5963627 C345.514803,42.7273327 347.337208,41.472516 349.326962,41.6459358 C351.547011,41.8393143 353.184412,43.7291902 352.983287,45.8669247 L351.505557,61.6009582 C351.28908,63.9082685 349.171128,65.6098664 346.775287,65.4011861 L344.965932,65.2435856 C342.312927,65.0129507 340.495128,62.5640068 341.12537,60.0721886 L345.041929,44.5963627 Z" id="è·¯å¾„" fill="#626282" fill-rule="nonzero"></path>
                <path d="M349.344026,40.6602662 C352.158341,40.9203959 354.233558,43.4633758 353.978849,46.3397761 L349.344026,40.6602662 Z M353.978849,46.3398513 L352.561753,62.3560721 C352.292321,65.4050896 349.655419,67.6537776 346.672525,67.3779965 L346.672525,67.3779965 L344.937411,67.2175694 C344.937411,67.2175694 344.937411,67.2175694 344.937411,67.2175694 C341.635026,66.9125924 339.371353,63.6762846 340.156093,60.3838424 L340.156093,60.3836167 L343.912685,44.6302344 L343.912685,44.6301592 C344.511914,42.1154723 346.821228,40.4269246 349.344026,40.6602662 M349.119499,43.1966996 C350.563096,43.3301882 351.628311,44.6348998 351.497275,46.1104225 L351.497275,46.1104225 L350.080916,62.1267186 L351.321334,62.2413954 L350.080916,62.1267186 C349.934421,63.7750843 348.509228,64.9905526 346.897051,64.8415631 C346.897051,64.8415631 346.897051,64.8415631 346.897051,64.8415631 L345.161937,64.6810608 L345.161201,64.6810608 C343.376765,64.5163446 342.152542,62.7670725 342.577302,60.9864974 L346.333158,45.2334162 C346.333158,45.2333409 346.333158,45.2333409 346.333158,45.2333409 C346.64087,43.9430768 347.826077,43.0769813 349.119499,43.1966996 L349.119499,43.1966996 Z" id="å½¢çŠ¶" fill="#61188E"></path>
                <path d="M319.243092,118.468014 C337.731152,120.375157 353.28208,116.364592 353.975932,109.510609 C354.670529,102.656627 340.245713,95.5537231 321.757653,93.6465803 C303.269593,91.7394375 287.718666,95.7492504 287.024068,102.603233 C286.329471,109.457967 300.754287,116.560119 319.243092,118.468014 Z" id="è·¯å¾„" fill="#BBC2DD" fill-rule="nonzero"></path>
                <path d="M268.385816,79.8225108 C269.401488,69.8766423 277.645347,62.2365368 287.631422,61.9873438 L318.149275,61.2251457 L318.151511,61.2249965 L350.684314,60.4664531 C359.100308,60.270291 365.781538,67.5055417 364.926078,75.8880799 L362.217371,102.399805 C361.431958,110.092643 354.564435,115.691096 346.879456,114.904209 L279.566405,108.016158 C271.881426,107.230018 266.288151,100.356138 267.073564,92.6640459 L268.385816,79.8225108 Z" id="è·¯å¾„" fill="#FFFFFF" fill-rule="nonzero"></path>
                <path d="M365.918966,76.1274506 C366.856364,67.0763358 359.538373,59.263769 350.320129,59.4755744 L317.606298,60.2275684 L317.603303,60.2277161 L286.964175,60.9820742 C276.294163,61.244633 267.483973,69.2930153 266.398328,79.7703255 L265.080581,92.489729 C264.220301,100.79572 270.34633,108.218143 278.764191,109.066989 L346.397584,115.889531 C354.815446,116.739116 362.337089,110.693761 363.198117,102.38777 C363.198117,102.38777 363.198117,102.38777 363.198117,102.38777 L365.918966,76.1274506 Z M363.398025,75.8733137 C363.398025,75.8733137 363.398025,75.8733137 363.398025,75.8733137 L360.677176,102.132894 C359.958405,109.065512 353.681134,114.111311 346.655144,113.402092 L279.0225,106.579551 C271.996509,105.87107 266.883499,99.6764837 267.601522,92.7438658 L268.920018,80.0252012 C269.875385,70.7995151 277.632126,63.7129376 287.027816,63.4817764 L317.71636,62.7261624 L317.717108,62.7260886 L350.37853,61.9753505 C358.072378,61.7985628 364.180438,68.3190209 363.398025,75.8733137 Z" id="å½¢çŠ¶" fill="#61188E"></path>
                <path d="M336.919191,59.3333396 L322.724338,21.8061674 L318,61.7575344 L318.007279,61.7567146 C318.014559,61.8558347 318.024022,61.9553274 318.036397,62.05564 C318.539404,66.1694972 323.182941,68.962374 328.406647,68.2929779 C333.631081,67.6237309 337.458595,63.7461223 336.955588,59.6316688 C336.943213,59.5312072 336.929382,59.4323107 336.911911,59.3346811 L336.919191,59.3333396 Z" id="è·¯å¾„" fill="#C44E26"></path>
                <path d="M322.724338,21.8061674 L336.919191,59.3333387 L336.911911,59.3346802 C336.911911,59.3352018 336.911911,59.3357235 336.911911,59.3362452 C336.917007,59.3635219 336.921375,59.3908731 336.925742,59.4183733 C336.937389,59.4888007 336.946853,59.5598244 336.955588,59.6316678 C337.458595,63.7461212 333.631081,67.6237297 328.406647,68.2929767 C323.256463,68.952908 318.671162,66.2478233 318.059691,62.2294345 C318.050956,62.1717511 318.042949,62.113844 318.036397,62.0556389 C318.024022,61.9559226 318.014559,61.856877 318.007279,61.7583531 C318.007279,61.7578314 318.007279,61.7572352 318.007279,61.7567135 L318,61.7575333 L322.724338,21.8061674 Z M319.490096,61.7491119 L323.481397,27.9981186 L335.472772,59.6991888 C335.478595,59.7375699 335.483691,59.7781867 335.489514,59.8214121 C335.6715,61.3155918 335.083323,62.867455 333.789044,64.1785234 C332.493309,65.4915294 330.540242,66.4944312 328.223206,66.7911953 C325.906897,67.0880339 323.772573,66.6087547 322.200221,65.6630892 C320.630051,64.7189888 319.68664,63.3635772 319.503199,61.8701427 C319.498831,61.8302711 319.494463,61.7899523 319.490096,61.7491119 Z" id="å½¢çŠ¶" fill="#61188E"></path>
                <path d="M276.796508,101.090913 C277.895289,101.202148 278.877243,100.409124 278.989488,99.3202297 C279.101733,98.2313352 278.302273,97.2582162 277.203492,97.1469809 C276.104711,97.0357457 275.122757,97.8280129 275.010512,98.9176641 C274.898267,100.006559 275.697727,100.979678 276.796508,101.090913 Z" id="è·¯å¾„" fill="#342E2E" fill-rule="nonzero"></path>
                <path d="M358.391857,49.4427124 C358.904661,47.5837332 360.691371,46.3811738 362.594492,46.6148524 C364.71865,46.8756565 366.229801,48.8183094 365.971189,50.9543975 L364.06512,66.6776427 C363.785141,68.9835981 361.700032,70.6243883 359.407887,70.3430549 L357.677173,70.1311655 C355.139678,69.819594 353.471591,67.3110133 354.153119,64.8329673 L358.391857,49.4427124 Z" id="è·¯å¾„" fill="#626282" fill-rule="nonzero"></path>
                <path d="M366.960593,51.2536485 C367.314386,48.4863719 365.24653,45.9699595 362.341466,45.6322298 C359.737583,45.3294353 357.29306,46.8874946 356.592337,49.2950346 L352.205767,64.3776762 C351.290024,67.5301824 353.530964,70.721691 356.94003,71.118033 L358.731105,71.3257549 C358.731105,71.3257549 358.731105,71.3257549 358.731105,71.3257549 C361.810777,71.6833851 364.612143,69.5961435 364.987285,66.6623262 L366.960593,51.2536485 Z M364.398648,50.9561963 C364.398648,50.9561963 364.398648,50.9561963 364.398648,50.9561963 L362.426102,66.3646884 C362.222518,67.950565 360.708988,69.0790177 359.043723,68.8856039 L357.252648,68.6778821 C355.409725,68.4636235 354.198138,66.7382972 354.69299,65.0339611 M354.69299,65.0339611 L359.07956,49.9519006 C359.07956,49.951828 359.07956,49.9520458 359.07956,49.9519006 C359.439452,48.716246 360.693738,47.9170978 362.028848,48.0723808 C363.519504,48.245676 364.580119,49.5368926 364.398648,50.9562286" id="å½¢çŠ¶" fill="#61188E"></path>
                <path d="M379.502499,69.7336794 C379.339792,69.0913946 379.416106,68.3883511 379.771037,67.7664857 C380.503937,66.481916 382.148283,66.029832 383.443457,66.756722 C383.838705,66.9786229 384.155479,67.2846293 384.38514,67.6392568 C384.809186,67.6513942 385.236831,67.7634156 385.632078,67.9851738 C386.927253,68.7121352 387.382975,70.3426934 386.650075,71.6272631 C386.490968,71.9066385 386.288665,72.1466028 386.055404,72.3436578 C386.120918,72.8889145 386.017967,73.4589459 385.724951,73.9732878 C384.992051,75.2577147 383.347705,75.7103699 382.051811,74.9835513 C381.524814,74.687255 381.136765,74.2410255 380.910704,73.729825 L377.440587,75.0099681 C376.683929,75.2891293 375.842317,74.9071569 375.56082,74.1567774 L375.092139,72.9076204 C374.810642,72.1570982 375.19581,71.3223277 375.952468,71.0431666 L379.502499,69.7336794 Z" id="è·¯å¾„" fill="#FFFFFF"></path>
                <path d="M268.794009,55.6919925 C268.330928,56.2120781 267.68768,56.5501067 266.96484,56.5880352 C265.470681,56.6662145 264.200103,55.4340009 264.127023,53.8357381 C264.104593,53.3479305 264.196485,52.8823381 264.377376,52.4686847 C264.159583,52.0759306 264.025724,51.6222587 264.003294,51.134451 C263.930214,49.5361882 265.082127,48.1771075 266.576286,48.0989283 C266.901166,48.0818991 267.215917,48.1268716 267.509683,48.2241699 C267.941651,47.8487546 268.485047,47.6119721 269.083435,47.580623 C270.577594,47.5023663 271.848172,48.7345799 271.921251,50.3328427 C271.950918,50.9838205 271.777262,51.5951669 271.460341,52.096443 L274.420441,54.507925 C275.066583,55.0338934 275.191036,56.0201906 274.699736,56.7108773 L273.881386,57.8604995 C273.389362,58.5511862 272.467542,58.6847102 271.822123,58.1588192 L268.794009,55.6919925 Z" id="è·¯å¾„" fill="#FFFFFF"></path>
                <path d="M268.136253,59.2543504 C267.64544,59.4462836 267.118944,59.5635424 266.568418,59.5916784 C263.705099,59.7380617 261.270694,57.4328855 261.130878,54.4430155 C261.109032,53.9866798 261.143258,53.5389369 261.225545,53.1077715 C261.103206,52.6873281 261.027472,52.2453645 261.006354,51.7892569 C260.86581,48.7993109 263.073741,46.2568796 265.93706,46.1104963 L265.951625,46.4256197 L265.93706,46.1104963 C266.124939,46.1009148 266.312088,46.1019794 266.497054,46.1132338 C267.09637,45.8175015 267.759769,45.6371268 268.460306,45.6013104 C271.323626,45.4550031 273.75803,47.7601033 273.897846,50.7499733 C273.913139,51.0633477 273.901487,51.3722355 273.866533,51.6742794 L275.445291,52.9298302 C277.177702,54.3076585 277.513406,56.8914573 276.193891,58.7009073 L275.370286,59.8303022 C274.05077,61.6397523 271.576314,61.9896274 269.843176,60.6117991 L268.136253,59.2543504 Z M268.289177,56.1406819 C267.823123,56.6516168 267.175745,56.9837739 266.448264,57.020959 C264.944511,57.0978388 263.665775,55.8873057 263.592226,54.3171639 C263.569652,53.8378631 263.662134,53.3804627 263.844187,52.9740874 C263.624995,52.5882437 263.490277,52.142554 263.46843,51.6634052 C263.394153,50.0932635 264.553463,48.7580954 266.057215,48.6812156 C266.384181,48.6644861 266.700952,48.7087433 266.996605,48.8043297 C267.431346,48.4355198 267.978232,48.2028273 268.580461,48.1720298 C270.084213,48.09515 271.362949,49.3056831 271.436498,50.8758249 C271.466355,51.515425 271.291585,52.1159389 270.972629,52.6083952 L273.951734,54.9775238 C274.602025,55.4941619 274.727277,56.4631055 274.232823,57.1416397 L273.409218,58.2710346 C272.914035,58.9496449 271.986296,59.0808196 271.336734,58.5641055 L268.289177,56.1406819 Z" id="å½¢çŠ¶" fill="#61188E"></path>
                <path d="M335.01449,78.9177895 C334.953265,79.9783387 335.086429,81.0082664 335.407093,81.9478233 C335.726992,82.8881271 336.227504,83.7193885 336.880312,84.394555 C337.533121,85.0704684 338.32445,85.5768433 339.209912,85.8860456 C340.09614,86.1945011 341.058133,86.2990623 342.04232,86.1937543 C343.026507,86.0884462 344.012224,85.7747626 344.945136,85.2713752 C345.877282,84.7687347 346.737489,84.0846058 347.476777,83.2600662 C348.2153,82.4355265 348.818363,81.4862603 349.251528,80.4652951 C349.684693,79.4450766 349.938775,78.3740714 350,77.3127753 L335.01449,78.9177895 Z" id="è·¯å¾„" fill="#FFFFFF" fill-rule="nonzero"></path>
                <path d="M333.138529,77.431916 L333.01817,79.5080461 C332.941441,80.8246694 333.106934,82.1362149 333.529695,83.3636126 C333.953208,84.592461 334.628722,85.7168502 335.541193,86.6497304 C336.45592,87.5847869 337.573753,88.2942401 338.828494,88.7258605 C340.080979,89.1574808 341.41621,89.2945837 342.745424,89.1538538 C344.073133,89.0131238 345.364734,88.6003641 346.553278,87.9656284 C347.741822,87.3323434 348.816025,86.483611 349.726239,85.4796403 C350.636453,84.4763951 351.375907,83.3244403 351.906991,82.0883377 C352.437322,80.8522351 352.754769,79.541415 352.831498,78.2247917 L353,75.3303965 L333.138529,77.431916 Z M335.559999,79.6458744 C335.499819,80.6759599 335.631462,81.6763035 335.945899,82.5888722 C336.260337,83.5021663 336.752304,84.3095502 337.393967,84.9660484 C338.03563,85.6218211 338.814202,86.1143761 339.684547,86.4139714 C340.554892,86.7135667 341.501214,86.8151244 342.467846,86.7128413 C343.435231,86.6105581 344.404872,86.3066104 345.321104,85.8176825 C346.238088,85.3287546 347.083609,84.6650023 347.809523,83.8634217 C348.53619,83.0625665 349.128958,82.1405674 349.553975,81.1489287 C349.630704,80.9719281 349.700662,80.7927513 349.766107,80.612849 C350.063243,79.785879 350.240773,78.9335195 350.289669,78.0869633 L335.559999,79.6458744 Z" id="å½¢çŠ¶" fill="#61188E"></path>
                <path d="M343.008295,79.0826854 C342.978959,79.5499178 343.027614,80.0012579 343.151398,80.4128674 C343.275181,80.8244769 343.471232,81.187615 343.728817,81.4816218 C343.986401,81.7756285 344.300511,81.9941471 344.652544,82.1260528 C345.004576,82.257164 345.388806,82.2984838 345.782339,82.2476286 C346.175155,82.1959788 346.570834,82.0537431 346.945047,81.828073 C347.319976,81.6016083 347.666284,81.2972716 347.965368,80.930955 C348.264453,80.5646385 348.509158,80.1442882 348.686605,79.6937427 C348.864053,79.2431972 348.970664,78.7704025 349,78.3039648 L343.008295,79.0826854 Z" id="è·¯å¾„" fill="#2E2E2E" fill-rule="nonzero"></path>
                <path d="M340.166147,77.6228585 L340.015258,79.6693854 C339.961592,80.3956431 340.047925,81.1372442 340.299146,81.8459665 C340.551923,82.5568807 340.9657,83.2188419 341.538143,83.7712069 C342.112141,84.3250332 342.813694,84.7378456 343.590692,84.9826105 C344.365356,85.2266448 345.17502,85.2924026 345.962129,85.2061869 C346.747682,85.1199712 347.497458,84.8839739 348.176456,84.5376499 C348.856232,84.1913258 349.46523,83.7346748 349.980117,83.2005759 C350.495782,82.6664769 350.918114,82.0534687 351.225336,81.3929687 C351.533335,80.7324688 351.726223,80.0215546 351.77989,79.2952969 L352,76.3215859 L340.166147,77.6228585 Z M342.791917,81.0502979 C342.66125,80.6754788 342.609917,80.2641276 342.641028,79.8403555 L349.15412,79.1243268 C349.122231,79.5532134 349.006342,79.9872144 348.813454,80.4022188 C348.620566,80.8164926 348.354567,81.2030019 348.029456,81.5398277 C347.95479,81.6172757 347.877012,81.6918011 347.796902,81.763404 C347.529347,82.0015931 347.233792,82.2047115 346.921126,82.3639913 C346.513572,82.5722242 346.083462,82.703009 345.656463,82.74977 C345.228687,82.7972617 344.811022,82.7592684 344.428356,82.6379819 C344.133579,82.5451904 343.863691,82.4049072 343.627247,82.2215162 C343.55647,82.1667181 343.488803,82.1082668 343.424248,82.0461623 C343.144249,81.7758249 342.931138,81.4419217 342.796583,81.0634494 C342.795028,81.0590656 342.793472,81.0546817 342.791917,81.0502979 Z" id="å½¢çŠ¶" fill="#61188E"></path>
                <path d="M343.641017,70.5433043 C342.292919,71.0587601 340.697933,71.7185492 339.559087,72.3395483 C338.426264,72.9570341 337.295698,73.9339551 336.418795,74.8015327 C335.987493,75.2274344 335.632969,75.6124667 335.387586,75.8899481 C335.264895,76.0283304 335.169301,76.1387493 335.106074,76.213318 C335.075213,76.2513193 335.051126,76.2792825 335.036072,76.2979247 L335.019512,76.3172839 L335.016502,76.3215859 C335.016502,76.3215859 335.016502,76.3215859 334.008627,75.5802015 C333,74.838817 333,74.8381 333,74.8381 L333.001505,74.836666 L333.003764,74.833798 L333.010538,74.8259109 L333.034625,74.7965136 C333.054948,74.7714184 333.084303,74.7370021 333.121186,74.6925477 C333.196456,74.603639 333.304094,74.4781629 333.441086,74.3232895 C333.715072,74.0149768 334.106479,73.5898638 334.582943,73.1183605 C335.520815,72.1904827 336.849343,71.0205437 338.293787,70.2331991 C339.593712,69.5244384 341.324938,68.8137419 342.691853,68.291116 C343.383591,68.0267558 343.997047,67.8049858 344.437381,67.6491086 C344.658676,67.5710983 344.836315,67.5095075 344.959759,67.4671324 C345.020728,67.4459807 345.068902,67.429633 345.102021,67.4184477 L345.140409,67.4055416 L345.153958,67.4008811 C345.153958,67.4008811 345.15471,67.4007377 345.576979,68.5453664 C346,69.6899952 346,69.6899952 346,69.6899952 L345.990215,69.6933651 L345.956343,69.7046938 C345.926235,69.7148036 345.881825,69.7300758 345.823867,69.7500803 C345.707197,69.7900893 345.536333,69.8490989 345.324069,69.9242411 C344.899543,70.0745256 344.307162,70.2886237 343.641017,70.5433043 Z" id="è·¯å¾„" fill="#61188E"></path>
                <path d="M322.375405,107.061603 C321.959657,106.984119 321.560213,107.257159 321.48314,107.670409 L316.013201,136.873896 C315.935387,137.287146 316.209588,137.684899 316.624595,137.762383 L316.624595,137.762383 C317.040343,137.83913 317.439787,137.566828 317.51686,137.153578 L322.986799,107.950091 C323.064613,107.536103 322.790412,107.13835 322.375405,107.061603 L322.375405,107.061603 Z" id="è·¯å¾„" fill="#FFFFFF"></path>
                <path d="M322.482073,108.462355 C322.559033,108.048837 322.285973,107.651536 321.870833,107.574876 C321.456432,107.49748 321.057572,107.77021 320.979872,108.182991 C320.979872,108.182991 320.979872,108.182991 320.979872,108.182991 L315.517927,137.353333 C315.440967,137.766114 315.714027,138.163416 316.129167,138.240812 C316.543568,138.317471 316.942428,138.045478 317.020128,137.63196 L322.482073,108.462355 Z M313.055944,136.895589 L318.51789,107.725984 C318.84941,105.958397 320.555851,104.792291 322.330373,105.121779 C324.104895,105.452003 325.274836,107.151776 324.944056,108.919363 L319.48211,138.089705 C319.15133,139.857292 317.444149,141.02266 315.669627,140.693173 C313.895105,140.363685 312.725164,138.663175 313.055944,136.895589 Z" id="å½¢çŠ¶" fill="#61188E"></path>
                <polygon id="è·¯å¾„" fill="#A1A1EA" fill-rule="nonzero" points="308 123.898678 334 123.898678 330.228571 158.590308 311.67218 158.590308"></polygon>
                <path d="M308,123.898678 L311.67218,158.590308 L330.228571,158.590308 L334,123.898678 L308,123.898678 Z M310.820301,126.371851 L313.968421,156.117136 L327.938346,156.117136 L331.17218,126.371851 L310.820301,126.371851 Z" id="å½¢çŠ¶" fill="#61188E"></path>
                <path d="M308,120.71074 C308.063366,121.523167 308.152522,123.298442 308,123.898678 L335,123.898678 L335,120.71074 L333.288369,120.71074 L332.147773,116.960352 L310.852227,116.960352 L309.711631,120.71074 L308,120.71074 Z" id="è·¯å¾„" fill="#FFFFFF" fill-rule="nonzero"></path>
                <path d="M309.539738,114.977974 L332.812088,114.977974 L333.95867,118.933687 L336,118.933687 L336,124.889868 L306,124.889868 L306.38886,123.278763 C306.38886,123.278763 306.391082,123.269566 306.394045,123.250404 C306.397748,123.228177 306.401452,123.198285 306.405896,123.159962 C306.414043,123.081783 306.42145,122.982909 306.426635,122.862574 C306.437005,122.621905 306.438486,122.330649 306.433301,122.018699 C306.422191,121.395565 306.385897,120.738706 306.355529,120.330182 L306.251833,118.933687 L308.392415,118.933687 L309.539738,114.977974 Z M311.404785,117.571683 L310.258203,121.527396 L308.928672,121.527396 C308.933116,121.675324 308.936819,121.824784 308.939782,121.972711 C308.941264,122.076184 308.942745,122.184255 308.942745,122.296158 L333.492778,122.296158 L333.492778,121.527396 L332.093623,121.527396 L330.947041,117.571683 L311.404785,117.571683 Z" id="å½¢çŠ¶" fill="#61188E"></path>
                <path d="M291.259798,120.707357 C288.914061,119.241532 285.802279,119.920763 284.309605,122.224306 L281.787603,126.115642 C280.294929,128.419185 280.986602,131.474994 283.332338,132.940818 L306.659552,147.517992 C310.178157,149.717094 314.845831,148.698247 317.08447,145.242933 L319.606472,141.351597 C320.352437,140.199826 320.0066,138.671921 318.833732,137.938644 L291.259798,120.707357 Z" id="è·¯å¾„" fill="#626282" fill-rule="nonzero"></path>
                <path d="M283.911707,127.442699 L286.432965,123.551363 C287.179674,122.399591 288.735565,122.059976 289.908433,122.792523 L317.482368,140.02454 L314.96111,143.915877 C313.468436,146.219419 310.356653,146.89865 308.010916,145.432826 L284.683703,130.854922 C283.510835,130.122375 283.164998,128.59447 283.911707,127.442699 Z M284.309605,122.224306 C285.802279,119.920763 288.914061,119.241532 291.259798,120.707357 L318.833732,137.938644 C320.0066,138.671921 320.352437,140.199826 319.606472,141.351597 L317.08447,145.242933 C314.845831,148.698247 310.178157,149.717094 306.659552,147.517992 L283.332338,132.940818 C280.986602,131.474994 280.294929,128.419185 281.787603,126.115642 L284.309605,122.224306 Z" id="å½¢çŠ¶" fill="#61188E"></path>
                <path d="M348.708755,121.680158 C351.087606,120.228683 354.223124,120.932828 355.711689,123.252406 L358.225658,127.171314 C359.714223,129.491624 358.992085,132.548285 356.613235,133.99976 L334.405626,147.546125 C330.836975,149.722971 326.134073,148.666754 323.901602,145.187021 L321.386881,141.268113 C320.642974,140.107958 321.004043,138.579627 322.193844,137.854256 L348.708755,121.680158 Z" id="è·¯å¾„" fill="#626282" fill-rule="nonzero"></path>
                <path d="M356.072007,128.485181 L353.558037,124.566272 C352.81338,123.406849 351.245996,123.054777 350.056195,123.780148 L323.541283,139.954246 L326.055253,143.873155 C327.543817,146.192733 330.679336,146.896877 333.058186,145.446135 L355.265795,131.899769 C356.454845,131.173666 356.815914,129.645336 356.072007,128.485181 Z M355.711689,123.252406 C354.223124,120.932828 351.087606,120.228683 348.708755,121.680158 L322.193844,137.854256 C321.004043,138.579627 320.642974,140.107958 321.386881,141.268113 L323.901602,145.187021 C326.134073,148.666754 330.836975,149.722971 334.405626,147.546125 L356.613235,133.99976 C358.992085,132.548285 359.714223,129.491624 358.225658,127.171314 L355.711689,123.252406 Z" id="å½¢çŠ¶" fill="#61188E"></path>
                <path d="M313.086782,101.101322 C313.071448,101.21179 313.058304,101.322259 313.04662,101.433484 C312.869176,103.193416 313.202158,104.920812 313.979117,106.300157 C314.756075,107.677988 316.065367,108.831099 317.803301,109.019501 C319.541966,109.207903 321.05353,108.361229 322.088258,107.180123 C322.273005,106.969778 322.445337,106.745814 322.605987,106.509744 C322.71552,106.775323 322.839659,107.031066 322.977671,107.276215 C323.753899,108.654803 325.063922,109.807157 326.801856,109.995559 C328.53979,110.184718 330.052084,109.338044 331.086812,108.156181 C332.123001,106.973561 332.794077,105.35512 332.972251,103.595945 C332.983205,103.48472 332.992698,103.373495 333,103.26227 L331.070017,103.052682 C331.064175,103.16315 331.055413,103.274376 331.043729,103.386358 C330.764783,106.145047 328.956748,108.209902 327.004128,107.998044 C325.051508,107.786187 323.694751,105.377819 323.973697,102.61913 C323.98465,102.507148 323.998525,102.39668 324.01532,102.286968 L322.071463,102.076623 C322.065621,102.187092 322.056858,102.298317 322.045175,102.410299 C321.766959,105.168988 319.958193,107.233087 318.005574,107.021229 C316.052954,106.809372 314.696197,104.401761 314.975143,101.643072 C314.986826,101.53109 315.0007,101.419865 315.016765,101.310909 L313.086782,101.101322 Z" id="è·¯å¾„" fill="#61188E" fill-rule="nonzero"></path>
                <path d="M105.163803,22.7973568 L94.8560307,22.7973568 C94.8560307,22.8831657 94.8560307,22.9689003 94.8560307,23.0547092 L94.8560307,26.4867677 C94.8560307,31.5491208 90.6985702,35.5818415 85.6740658,35.5818415 L63.3255592,35.5818415 C58.2148004,35.5818415 54.1435193,31.4633119 54.1435193,26.4867677 L54.1435193,23.0547092 C54.1435193,22.9689003 54.1435193,22.8831657 54.1435193,22.7973568 L43.8354474,22.7973568 C38.9846518,22.7973568 35,26.6583855 35,31.5491208 L35,109.199778 C35,114.005076 38.8980224,117.951542 43.8354474,117.951542 L105.163803,117.951542 C110.015048,117.951542 114,114.090513 114,109.199778 L114,31.5491208 C113.912996,26.6583855 110.015048,22.7973568 105.163803,22.7973568 Z" id="è·¯å¾„" fill="#FFFFFF" fill-rule="nonzero"></path>
                <path d="M34,31.5597827 C34,26.1094012 38.4436498,21.8061674 43.8462691,21.8061674 L55.1645074,21.8061674 L55.1645074,26.4988892 C55.1645074,30.9255649 58.7867726,34.5871535 63.3296184,34.5871535 L85.6708315,34.5871535 C90.139524,34.5871535 93.8359424,30.9990209 93.8359424,26.4988892 L93.8359424,21.8061674 L105.153881,21.8061674 C110.572545,21.8061674 114.904028,26.1216562 115,31.54218 L115,31.5510185 L115,109.18919 C115,114.640092 110.5568,118.942731 105.153881,118.942731 L43.8462691,118.942731 C38.3441539,118.942731 34,114.541308 34,109.18919 L34,31.5597827 Z M43.8462691,23.8146601 C39.550476,23.8146601 36.0275568,27.2314446 36.0275568,31.5597827 L36.0275568,109.18919 C36.0275568,113.445038 39.4768475,116.934387 43.8462691,116.934387 L105.153881,116.934387 C109.449374,116.934387 112.972593,113.517825 112.972593,109.18919 L112.972593,31.5689183 C112.890867,27.2147332 109.43063,23.8146601 105.153881,23.8146601 L95.8633492,23.8146601 L95.8633492,26.4988892 C95.8633492,32.1206187 91.2462002,36.5956462 85.6708315,36.5956462 L63.3296184,36.5956462 C57.6545289,36.5956462 53.1370256,32.022504 53.1370256,26.4988892 L53.1370256,23.8146601 L43.8462691,23.8146601 Z" id="å½¢çŠ¶" fill="#61188E"></path>
                <path d="M55.7428853,56.4977974 C55.3104575,56.4977974 54.8779548,56.3320173 54.445527,56.0833471 L48.909867,52.2707635 C47.958436,51.6076431 47.6990093,50.2815458 48.3909387,49.2869369 C49.082943,48.3752181 50.4668018,48.126548 51.5047334,48.7895966 L55.223957,51.3590447 L59.9810372,44.5625628 C60.6730415,43.5679539 62.0569004,43.3193555 63.0083314,43.9824042 C64.046263,44.6454528 64.3057646,45.9716219 63.6138352,46.8833407 L57.5592468,55.5031885 C57.2133196,56.000457 56.6943163,56.3320173 56.0888875,56.4149073 C56.0023869,56.4977974 55.9158864,56.4977974 55.7428853,56.4977974 Z" id="è·¯å¾„" fill="#449FE2" fill-rule="nonzero"></path>
                <path d="M51.5047334,48.7895966 C50.4668018,48.126548 49.082943,48.3752181 48.3909387,49.2869369 C47.6990093,50.2815458 47.958436,51.6076431 48.909867,52.2707635 L54.445527,56.0833471 C54.8779548,56.3320173 55.3104575,56.4977974 55.7428853,56.4977974 C55.9158864,56.4977974 56.0023869,56.4977974 56.0888875,56.4149073 C56.6943163,56.3320173 57.2133196,56.000457 57.5592468,55.5031885 L63.6138352,46.8833407 C64.3057646,45.9716219 64.046263,44.6454528 63.0083314,43.9824042 C62.0569004,43.3193555 60.6730415,43.5679539 59.9810372,44.5625628 L55.223957,51.3590447 L51.5047334,48.7895966 Z M55.6656714,54.512455 L55.8024246,54.493724 C55.8069931,54.4930781 55.80909,54.4926475 55.8150814,54.4889157 C55.8224958,54.4842509 55.8454877,54.4678882 55.8741714,54.4266943 L55.8766429,54.423106 L61.954298,45.7703893 L61.9740696,45.7443381 C61.9748011,45.7401039 61.9757921,45.7294107 61.9724219,45.713048 C61.9650825,45.6773084 61.941791,45.6334592 61.8849478,45.5971455 L61.8505722,45.575185 L61.8197166,45.5536551 C61.8153729,45.5530142 61.8041391,45.5520762 61.7870636,45.5553057 C61.7498422,45.562267 61.7040081,45.5845864 61.6661876,45.639057 L61.6629672,45.6435782 L55.738916,54.1072626 L50.3642743,50.3942189 C50.3011402,50.3591251 50.2318649,50.3486473 50.1634882,50.3599863 C50.1096407,50.3689571 50.0736924,50.388047 50.0513746,50.405845 C50.0261359,50.4590956 50.0195453,50.5159345 50.0297307,50.5721992 C50.0429866,50.6457597 50.0779613,50.6844417 50.0994554,50.7000867 L55.5504122,54.4543961 C55.5947485,54.4784378 55.6330933,54.4974559 55.6656714,54.512455 Z" id="å½¢çŠ¶" fill="#61188E"></path>
                <path d="M69,49.5594714 C69,49.012085 69.4468196,48.5682819 69.9979265,48.5682819 L100.002147,48.5682819 C100.553476,48.5682819 101,49.012085 101,49.5594714 C101,50.1068578 100.553476,50.5506608 100.002147,50.5506608 L69.9979265,50.5506608 C69.4468196,50.5506608 69,50.1068578 69,49.5594714 Z" id="è·¯å¾„" fill="#61188E"></path>
                <path d="M55.7428853,72.3568282 C55.3104575,72.3568282 54.8779548,72.1910478 54.445527,71.9424491 L48.909867,68.1297881 C47.958436,67.4666667 47.6990093,66.1405674 48.3909387,65.1459571 C49.082943,64.234237 50.4668018,63.9855664 51.5047334,64.6486161 L55.223957,67.218068 L59.9810372,60.421576 C60.6730415,59.4270374 62.0569004,59.1783669 63.0083314,59.8414165 C64.046263,60.5044662 64.3057646,61.8306372 63.6138352,62.7423573 L57.5592468,71.3622179 C57.2133196,71.8594871 56.6943163,72.1910478 56.0888875,72.273938 C56.0023869,72.3568282 55.9158864,72.3568282 55.7428853,72.3568282 Z" id="è·¯å¾„" fill="#449FE2" fill-rule="nonzero"></path>
                <path d="M51.5047334,64.6486161 C50.4668018,63.9855664 49.082943,64.234237 48.3909387,65.1459571 C47.6990093,66.1405674 47.958436,67.4666667 48.909867,68.1297881 L54.445527,71.9424491 C54.8779548,72.1910478 55.3104575,72.3568282 55.7428853,72.3568282 C55.9158864,72.3568282 56.0023869,72.3568282 56.0888875,72.273938 C56.6943163,72.1910478 57.2133196,71.8594871 57.5592468,71.3622179 L63.6138352,62.7423573 C64.3057646,61.8306372 64.046263,60.5044662 63.0083314,59.8414165 C62.0569004,59.1783669 60.6730415,59.4270374 59.9810372,60.421576 L55.223957,67.218068 L51.5047334,64.6486161 Z M55.6656714,70.3714829 L55.8024246,70.3527519 C55.8069931,70.352106 55.80909,70.3516754 55.8150814,70.3479435 C55.8224958,70.3432787 55.8454877,70.326916 55.8741714,70.2857221 L55.8766429,70.2821338 L61.954298,61.6294042 L61.9740696,61.6033531 C61.9748011,61.5991188 61.9757921,61.5884256 61.9724219,61.5720629 C61.9650825,61.5363232 61.941791,61.492474 61.8849478,61.4561602 L61.8505722,61.4341997 L61.8197166,61.4126698 C61.8153729,61.4120289 61.8041391,61.4110909 61.7870636,61.4143204 C61.7498422,61.4212817 61.704083,61.4436728 61.6661876,61.4981435 L61.6629672,61.5026648 L55.738916,69.9662899 L50.3642743,66.2532407 C50.3011402,66.2181469 50.2318649,66.207669 50.1634882,66.2190081 C50.1096407,66.2279789 50.0736924,66.2470688 50.0513746,66.2648668 C50.0261359,66.3181175 50.0195453,66.3749565 50.0297307,66.4312213 C50.0429866,66.5048536 50.0779613,66.5434639 50.0994554,66.559109 L55.5504122,70.3134239 C55.5947485,70.3374656 55.6330933,70.3564837 55.6656714,70.3714829 Z" id="å½¢çŠ¶" fill="#61188E"></path>
                <path d="M55.7428853,88.215859 C55.3104575,88.215859 54.8779548,88.0500798 54.445527,87.8010522 L48.909867,83.9888482 C47.958436,83.3257314 47.6990093,81.9994978 48.3909387,81.0048226 C49.082943,80.0933958 50.4668018,79.8443682 51.5047334,80.507485 L55.223957,83.0767038 L59.9810372,76.2804742 C60.6730415,75.285799 62.0569004,75.037489 63.0083314,75.7006058 C64.046263,76.3637226 64.3057646,77.6892386 63.6138352,78.601383 L57.5592468,87.2211838 C57.2133196,87.7185214 56.6943163,88.0500798 56.0888875,88.1326106 C56.0023869,88.215859 55.9158864,88.215859 55.7428853,88.215859 Z" id="è·¯å¾„" fill="#449FE2" fill-rule="nonzero"></path>
                <path d="M51.5047334,80.507485 C50.4668018,79.8443682 49.082943,80.0933958 48.3909387,81.0048226 C47.6990093,81.9994978 47.958436,83.3257314 48.909867,83.9888482 L54.445527,87.8010522 C54.8779548,88.0500798 55.3104575,88.215859 55.7428853,88.215859 C55.9158864,88.215859 56.0023869,88.215859 56.0888875,88.1326106 C56.6943163,88.0500798 57.2133196,87.7185214 57.5592468,87.2211838 L63.6138352,78.601383 C64.3057646,77.6892386 64.046263,76.3637226 63.0083314,75.7006058 C62.0569004,75.037489 60.6730415,75.285799 59.9810372,76.2804742 L55.223957,83.0767038 L51.5047334,80.507485 Z M55.6656714,86.2300969 L55.8024246,86.2114378 C55.8069931,86.2107201 55.80909,86.2107201 55.8150814,86.2071318 C55.8224958,86.2021082 55.8454877,86.1856021 55.8741714,86.1446955 L55.8766429,86.1411072 L61.954298,77.4882941 L61.9740696,77.4624584 C61.9748011,77.4581524 61.9757921,77.4473876 61.9724219,77.4308814 C61.9650825,77.3949985 61.941791,77.3512213 61.8849478,77.3153383 L61.8505722,77.2930909 L61.8197166,77.2715611 C61.8153729,77.2709192 61.8041391,77.2701258 61.7870636,77.2729964 C61.7498422,77.280173 61.704083,77.3024205 61.6661876,77.3569625 L61.6629672,77.3612685 L55.738916,85.8253373 L50.3642743,82.1121703 C50.3011402,82.077005 50.2318649,82.0662401 50.1634882,82.0777226 C50.1095658,82.0870522 50.0736924,82.1057113 50.0513746,82.1236528 C50.0261359,82.1767596 50.0195453,82.2341723 50.0297307,82.2901497 C50.0429866,82.3640685 50.0779613,82.4021045 50.0994554,82.4178929 L55.5504122,86.1719665 C55.5947485,86.1963669 55.6330933,86.2150261 55.6656714,86.2300969 Z" id="å½¢çŠ¶" fill="#61188E"></path>
                <path d="M55.7428853,105.066079 C55.3104575,105.066079 54.8779548,104.9003 54.445527,104.651272 L48.909867,100.839068 C47.958436,100.175952 47.6990093,98.8497181 48.3909387,97.8550429 C49.082943,96.9436161 50.4668018,96.6945885 51.5047334,97.3577053 L55.223957,99.9269241 L59.9810372,93.1306945 C60.6730415,92.1360193 62.0569004,91.8877093 63.0083314,92.5508261 C64.046263,93.2139429 64.3057646,94.5401765 63.6138352,95.4516033 L57.5592468,104.071404 C57.2133196,104.568742 56.6943163,104.9003 56.0888875,104.982831 C56.0023869,105.066079 55.9158864,105.066079 55.7428853,105.066079 Z" id="è·¯å¾„" fill="#449FE2" fill-rule="nonzero"></path>
                <path d="M51.5047334,97.3577053 C50.4668018,96.6945885 49.082943,96.9436161 48.3909387,97.8550429 C47.6990093,98.8497181 47.958436,100.175952 48.909867,100.839068 L54.445527,104.651272 C54.8779548,104.9003 55.3104575,105.066079 55.7428853,105.066079 C55.9158864,105.066079 56.0023869,105.066079 56.0888875,104.982831 C56.6943163,104.9003 57.2133196,104.568742 57.5592468,104.071404 L63.6138352,95.4516033 C64.3057646,94.5401765 64.046263,93.2139429 63.0083314,92.5508261 C62.0569004,91.8877093 60.6730415,92.1360193 59.9810372,93.1306945 L55.223957,99.9269241 L51.5047334,97.3577053 Z M55.6656714,103.080317 L55.8024246,103.061658 C55.8069931,103.061658 55.80909,103.06094 55.8150814,103.057352 C55.8224958,103.052328 55.8454877,103.035822 55.8741714,102.994916 L55.8766429,102.991327 L61.954298,94.3385144 L61.9740696,94.3126787 C61.9748011,94.3083727 61.9757921,94.2976078 61.9724219,94.2811017 C61.9650825,94.2459364 61.941791,94.2014415 61.8849478,94.1655586 L61.8505722,94.1433112 L61.8197166,94.1217814 C61.8153729,94.1211395 61.8041391,94.1203461 61.7870636,94.1232167 C61.7498422,94.1303933 61.704083,94.1526407 61.6661876,94.2071828 L61.6629672,94.2122064 L55.738916,102.675558 L50.3642743,98.9623905 C50.3011402,98.9272252 50.2318649,98.917178 50.1634882,98.9279429 C50.1095658,98.9372725 50.0736924,98.9566493 50.0513746,98.9738731 C50.0261359,99.0269798 50.0195453,99.0843925 50.0297307,99.1403699 C50.0429866,99.2142888 50.0779613,99.2523247 50.0994554,99.2681132 L55.5504122,103.022904 C55.5947485,103.046587 55.6330933,103.065964 55.6656714,103.080317 Z" id="å½¢çŠ¶" fill="#61188E"></path>
                <path d="M69,66.4096916 C69,65.8623052 69.4468196,65.4185022 69.9979265,65.4185022 L100.002147,65.4185022 C100.553476,65.4185022 101,65.8623052 101,66.4096916 C101,66.957078 100.553476,67.4008811 100.002147,67.4008811 L69.9979265,67.4008811 C69.4468196,67.4008811 69,66.957078 69,66.4096916 Z" id="è·¯å¾„" fill="#61188E"></path>
                <path d="M69,83.2599119 C69,82.7129982 69.4468196,82.2687225 69.9979265,82.2687225 L100.002147,82.2687225 C100.553476,82.2687225 101,82.7129982 101,83.2599119 C101,83.8075587 100.553476,84.2511013 100.002147,84.2511013 L69.9979265,84.2511013 C69.4468196,84.2511013 69,83.8075587 69,83.2599119 Z" id="è·¯å¾„" fill="#61188E"></path>
                <path d="M69,99.1189427 C69,98.572029 69.4468196,98.1277533 69.9979265,98.1277533 L100.002147,98.1277533 C100.553476,98.1277533 101,98.572029 101,99.1189427 C101,99.6665896 100.553476,100.110132 100.002147,100.110132 L69.9979265,100.110132 C69.4468196,100.110132 69,99.6665896 69,99.1189427 Z" id="è·¯å¾„" fill="#61188E"></path>
                <path d="M85.2174189,18.7087192 L81.0432014,18.7087192 C81.0432014,18.4485113 81.1305408,18.2751145 81.1305408,18.0149066 C81.1305408,14.1120889 77.9125383,10.9030837 73.9998118,10.9030837 C70.086784,10.9030837 66.8694592,14.1120889 66.8694592,18.0149066 C66.8694592,18.2751145 66.9564221,18.4485113 66.9564221,18.7087192 L62.7825058,18.7087192 C60.1738457,18.7087192 58,20.876968 58,23.4788215 L58,26.9479594 C58,29.549888 60.1738457,31.7180617 62.7825058,31.7180617 L85.2174189,31.7180617 C87.8255519,31.7180617 90,29.549888 90,26.9479594 L90,23.4788215 C90,20.876968 87.8255519,18.7087192 85.2174189,18.7087192 Z M73.9998118,15.3263172 C75.478331,15.3263172 76.7823975,16.5405455 76.7823975,18.1016426 C76.7823975,19.5760037 75.5649174,20.876968 73.9998118,20.876968 C72.5215937,20.876968 71.2173013,19.6627397 71.2173013,18.1016426 C71.2173013,16.5405455 72.4346308,15.3263172 73.9998118,15.3263172 Z" id="å½¢çŠ¶" fill="#ECCE33" fill-rule="nonzero"></path>
                <path d="M79.0072916,20.7394671 L79.0072916,18.7087192 C79.0072916,18.3726643 79.063761,18.094959 79.0863488,17.9817142 C79.0878546,17.9751057 79.0893605,17.969098 79.0901134,17.963616 C79.0916192,17.9572329 79.0923722,17.9514505 79.093878,17.9461186 C79.0562318,15.1958002 76.7650803,12.9338316 73.9998118,12.9338316 C71.2343174,12.9338316 68.9436177,15.1958002 68.9059714,17.9461186 C68.9070255,17.9513754 68.9081549,17.9572329 68.9094349,17.963616 C68.9105642,17.969098 68.9117689,17.9751057 68.9131242,17.9817142 C68.9360884,18.094959 68.9924825,18.3726643 68.9924825,18.7087192 L68.9924825,20.7394671 L62.7825058,20.7394671 C61.2983396,20.7394671 60.0359851,21.9985278 60.0359851,23.4788215 L60.0359851,26.9479594 C60.0359851,28.4283282 61.2983396,29.6873138 62.7825058,29.6873138 L85.2174189,29.6873138 C86.7014346,29.6873138 87.9633372,28.4283282 87.9633372,26.9479594 L87.9633372,23.4788215 C87.9633372,21.9985278 86.7014346,20.7394671 85.2174189,20.7394671 L79.0072916,20.7394671 Z M62.7825058,18.7087192 C60.1738457,18.7087192 58,20.876968 58,23.4788215 L58,26.9479594 C58,29.549888 60.1738457,31.7180617 62.7825058,31.7180617 L85.2174189,31.7180617 C87.8255519,31.7180617 90,29.549888 90,26.9479594 L90,23.4788215 C90,20.876968 87.8255519,18.7087192 85.2174189,18.7087192 L81.0432014,18.7087192 C81.0432014,18.5786528 81.0650363,18.4702141 81.0868711,18.3618505 C81.1087059,18.2534118 81.1305408,18.144973 81.1305408,18.0149066 C81.1305408,17.6398018 81.1004238,17.2710801 81.0432014,16.9109944 C80.5056128,13.5248376 77.5368286,10.9030837 73.9998118,10.9030837 C70.4629455,10.9030837 67.4943872,13.5248376 66.9564221,16.9109944 C66.8991998,17.2710801 66.8694592,17.6398018 66.8694592,18.0149066 C66.8694592,18.144973 66.8912188,18.2534118 66.9129783,18.3618505 C66.9346626,18.4702141 66.9564221,18.5786528 66.9564221,18.7087192 L62.7825058,18.7087192 Z M73.9998118,13.2955693 C76.5610375,13.2955693 78.8183074,15.3780584 78.8183074,18.1016426 C78.8183074,20.6561855 76.7304457,22.9077159 73.9998118,22.9077159 C71.438586,22.9077159 69.1812409,20.8252268 69.1812409,18.1016426 C69.1812409,15.4190609 71.3100617,13.2955693 73.9998118,13.2955693 Z M76.7823975,18.1016426 C76.7823975,16.5405455 75.478331,15.3263172 73.9998118,15.3263172 C72.4346308,15.3263172 71.2173013,16.5405455 71.2173013,18.1016426 C71.2173013,19.6627397 72.5215937,20.876968 73.9998118,20.876968 C75.5649174,20.876968 76.7823975,19.5760037 76.7823975,18.1016426 Z" id="å½¢çŠ¶" fill="#61188E"></path>
            </g>
        </g>
    </g>
</svg>