<?xml version="1.0" encoding="UTF-8"?>
<svg width="960px" height="515px" viewBox="0 0 960 515" version="1.1" xmlns="http://www.w3.org/2000/svg" xmlns:xlink="http://www.w3.org/1999/xlink">
    <title>3</title>
    <defs>
        <path d="M400.003554,110 C398.334601,110 397,108.65595 397,106.99798 L397,106.99798 L397,20.0020205 C397,18.3505265 398.344737,17 400.003554,17 L400.003554,17 L565.996446,17 C567.665399,17 569,18.3440504 569,20.0020205 L569,20.0020205 L569,106.99798 C569,108.649473 567.655263,110 565.996446,110 L565.996446,110 L488,110 L483,116 L478,110 Z" id="path-1"></path>
        <filter x="-4.7%" y="-7.1%" width="109.3%" height="116.7%" filterUnits="objectBoundingBox" id="filter-2">
            <feMorphology radius="0.5" operator="dilate" in="SourceAlpha" result="shadowSpreadOuter1"></feMorphology>
            <feOffset dx="0" dy="1" in="shadowSpreadOuter1" result="shadowOffsetOuter1"></feOffset>
            <feGaussianBlur stdDeviation="2" in="shadowOffsetOuter1" result="shadowBlurOuter1"></feGaussianBlur>
            <feColorMatrix values="0 0 0 0 0.576470588   0 0 0 0 0.576470588   0 0 0 0 0.576470588  0 0 0 0.35 0" type="matrix" in="shadowBlurOuter1"></feColorMatrix>
        </filter>
        <path d="M662.003554,110 C660.334601,110 659,108.65595 659,106.99798 L659,106.99798 L659,20.0020205 C659,18.3505265 660.344737,17 662.003554,17 L662.003554,17 L827.996446,17 C829.665399,17 831,18.3440504 831,20.0020205 L831,20.0020205 L831,106.99798 C831,108.649473 829.655263,110 827.996446,110 L827.996446,110 L815,110 L810,116 L805,110 Z" id="path-3"></path>
        <filter x="-4.7%" y="-7.1%" width="109.3%" height="116.7%" filterUnits="objectBoundingBox" id="filter-4">
            <feMorphology radius="0.5" operator="dilate" in="SourceAlpha" result="shadowSpreadOuter1"></feMorphology>
            <feOffset dx="0" dy="1" in="shadowSpreadOuter1" result="shadowOffsetOuter1"></feOffset>
            <feGaussianBlur stdDeviation="2" in="shadowOffsetOuter1" result="shadowBlurOuter1"></feGaussianBlur>
            <feColorMatrix values="0 0 0 0 0.576470588   0 0 0 0 0.576470588   0 0 0 0 0.576470588  0 0 0 0.35 0" type="matrix" in="shadowBlurOuter1"></feColorMatrix>
        </filter>
        <path d="M565.994942,142 C567.663792,142 569,143.34405 569,145.00202 L569,145.00202 L569,231.99798 C569,233.649473 567.65459,235 565.994942,235 L565.994942,235 L406.005058,235 C404.336208,235 403,233.65595 403,231.99798 L403,231.99798 L403,194 L397,189 L402.999,184.001 L403,145.00202 C403,143.409508 404.251026,142.09685 405.828488,142.00512 L406.005058,142 Z" id="path-5"></path>
        <filter x="-5.0%" y="-7.5%" width="109.6%" height="117.2%" filterUnits="objectBoundingBox" id="filter-6">
            <feMorphology radius="0.5" operator="dilate" in="SourceAlpha" result="shadowSpreadOuter1"></feMorphology>
            <feOffset dx="0" dy="1" in="shadowSpreadOuter1" result="shadowOffsetOuter1"></feOffset>
            <feGaussianBlur stdDeviation="2" in="shadowOffsetOuter1" result="shadowBlurOuter1"></feGaussianBlur>
            <feColorMatrix values="0 0 0 0 0.576470588   0 0 0 0 0.576470588   0 0 0 0 0.576470588  0 0 0 0.35 0" type="matrix" in="shadowBlurOuter1"></feColorMatrix>
        </filter>
        <path d="M827.994942,142 C829.663792,142 831,143.34405 831,145.00202 L831,145.00202 L831,231.99798 C831,233.649473 829.65459,235 827.994942,235 L827.994942,235 L668.005058,235 C666.336208,235 665,233.65595 665,231.99798 L665,231.99798 L665,218 L659,213 L664.999,208.001 L665,145.00202 C665,143.409508 666.251026,142.09685 667.828488,142.00512 L668.005058,142 Z" id="path-7"></path>
        <filter x="-5.0%" y="-7.5%" width="109.6%" height="117.2%" filterUnits="objectBoundingBox" id="filter-8">
            <feMorphology radius="0.5" operator="dilate" in="SourceAlpha" result="shadowSpreadOuter1"></feMorphology>
            <feOffset dx="0" dy="1" in="shadowSpreadOuter1" result="shadowOffsetOuter1"></feOffset>
            <feGaussianBlur stdDeviation="2" in="shadowOffsetOuter1" result="shadowBlurOuter1"></feGaussianBlur>
            <feColorMatrix values="0 0 0 0 0.576470588   0 0 0 0 0.576470588   0 0 0 0 0.576470588  0 0 0 0.35 0" type="matrix" in="shadowBlurOuter1"></feColorMatrix>
        </filter>
        <path d="M547.963524,261 L553,267 L565.996446,267 C567.665399,267 569,268.34405 569,270.00202 L569,270.00202 L569,356.99798 C569,358.649473 567.655263,360 565.996446,360 L565.996446,360 L400.003554,360 C398.334601,360 397,358.65595 397,356.99798 L397,356.99798 L397,270.00202 C397,268.350527 398.344737,267 400.003554,267 L400.003554,267 L543,267 L547.963524,261 Z" id="path-9"></path>
        <filter x="-4.7%" y="-7.6%" width="109.3%" height="116.7%" filterUnits="objectBoundingBox" id="filter-10">
            <feMorphology radius="0.5" operator="dilate" in="SourceAlpha" result="shadowSpreadOuter1"></feMorphology>
            <feOffset dx="0" dy="1" in="shadowSpreadOuter1" result="shadowOffsetOuter1"></feOffset>
            <feGaussianBlur stdDeviation="2" in="shadowOffsetOuter1" result="shadowBlurOuter1"></feGaussianBlur>
            <feColorMatrix values="0 0 0 0 0.576470588   0 0 0 0 0.576470588   0 0 0 0 0.576470588  0 0 0 0.35 0" type="matrix" in="shadowBlurOuter1"></feColorMatrix>
        </filter>
        <path d="M206.963524,261 L212,267 L289.996446,267 C291.665399,267 293,268.34405 293,270.00202 L293,270.00202 L293,356.99798 C293,358.649473 291.655263,360 289.996446,360 L289.996446,360 L124.003554,360 C122.334601,360 121,358.65595 121,356.99798 L121,356.99798 L121,270.00202 C121,268.350527 122.344737,267 124.003554,267 L124.003554,267 L202,267 L206.963524,261 Z" id="path-11"></path>
        <filter x="-4.7%" y="-7.6%" width="109.3%" height="116.7%" filterUnits="objectBoundingBox" id="filter-12">
            <feMorphology radius="0.5" operator="dilate" in="SourceAlpha" result="shadowSpreadOuter1"></feMorphology>
            <feOffset dx="0" dy="1" in="shadowSpreadOuter1" result="shadowOffsetOuter1"></feOffset>
            <feGaussianBlur stdDeviation="2" in="shadowOffsetOuter1" result="shadowBlurOuter1"></feGaussianBlur>
            <feColorMatrix values="0 0 0 0 0.576470588   0 0 0 0 0.576470588   0 0 0 0 0.576470588  0 0 0 0.35 0" type="matrix" in="shadowBlurOuter1"></feColorMatrix>
        </filter>
        <path d="M679.963524,261 L685,267 L827.996446,267 C829.665399,267 831,268.34405 831,270.00202 L831,270.00202 L831,356.99798 C831,358.649473 829.655263,360 827.996446,360 L827.996446,360 L662.003554,360 C660.334601,360 659,358.65595 659,356.99798 L659,356.99798 L659,270.00202 C659,268.350527 660.344737,267 662.003554,267 L662.003554,267 L675,267 L679.963524,261 Z" id="path-13"></path>
        <filter x="-4.7%" y="-7.6%" width="109.3%" height="116.7%" filterUnits="objectBoundingBox" id="filter-14">
            <feMorphology radius="0.5" operator="dilate" in="SourceAlpha" result="shadowSpreadOuter1"></feMorphology>
            <feOffset dx="0" dy="1" in="shadowSpreadOuter1" result="shadowOffsetOuter1"></feOffset>
            <feGaussianBlur stdDeviation="2" in="shadowOffsetOuter1" result="shadowBlurOuter1"></feGaussianBlur>
            <feColorMatrix values="0 0 0 0 0.576470588   0 0 0 0 0.576470588   0 0 0 0 0.576470588  0 0 0 0.35 0" type="matrix" in="shadowBlurOuter1"></feColorMatrix>
        </filter>
        <path d="M825,475.99798 C825,477.649473 823.65459,479 821.994942,479 L821.994942,479 L662.005058,479 C660.336208,479 659,477.65595 659,475.99798 L659,475.99798 L659,389.00202 C659,387.350527 660.34541,386 662.005058,386 L662.005058,386 L821.994942,386 C823.663792,386 825,387.34405 825,389.00202 L825,389.00202 L825,402 L831,407 L825,412 Z" id="path-15"></path>
        <filter x="-4.7%" y="-7.5%" width="109.6%" height="117.2%" filterUnits="objectBoundingBox" id="filter-16">
            <feMorphology radius="0.5" operator="dilate" in="SourceAlpha" result="shadowSpreadOuter1"></feMorphology>
            <feOffset dx="0" dy="1" in="shadowSpreadOuter1" result="shadowOffsetOuter1"></feOffset>
            <feGaussianBlur stdDeviation="2" in="shadowOffsetOuter1" result="shadowBlurOuter1"></feGaussianBlur>
            <feColorMatrix values="0 0 0 0 0.576470588   0 0 0 0 0.576470588   0 0 0 0 0.576470588  0 0 0 0.35 0" type="matrix" in="shadowBlurOuter1"></feColorMatrix>
        </filter>
        <path d="M287,475.99798 C287,477.649473 285.65459,479 283.994942,479 L283.994942,479 L124.005058,479 C122.336208,479 121,477.65595 121,475.99798 L121,475.99798 L121,389.00202 C121,387.350527 122.34541,386 124.005058,386 L124.005058,386 L283.994942,386 C285.663792,386 287,387.34405 287,389.00202 L287,389.00202 L287,428 L293,433 L287,438 Z" id="path-17"></path>
        <filter x="-4.7%" y="-7.5%" width="109.6%" height="117.2%" filterUnits="objectBoundingBox" id="filter-18">
            <feMorphology radius="0.5" operator="dilate" in="SourceAlpha" result="shadowSpreadOuter1"></feMorphology>
            <feOffset dx="0" dy="1" in="shadowSpreadOuter1" result="shadowOffsetOuter1"></feOffset>
            <feGaussianBlur stdDeviation="2" in="shadowOffsetOuter1" result="shadowBlurOuter1"></feGaussianBlur>
            <feColorMatrix values="0 0 0 0 0.576470588   0 0 0 0 0.576470588   0 0 0 0 0.576470588  0 0 0 0.35 0" type="matrix" in="shadowBlurOuter1"></feColorMatrix>
        </filter>
        <path d="M563,475.99798 C563,477.649473 561.65459,479 559.994942,479 L559.994942,479 L400.005058,479 C398.336208,479 397,477.65595 397,475.99798 L397,475.99798 L397,389.00202 C397,387.350527 398.34541,386 400.005058,386 L400.005058,386 L559.994942,386 C561.663792,386 563,387.34405 563,389.00202 L563,389.00202 L563,453 L569,458 L563,463 Z" id="path-19"></path>
        <filter x="-4.7%" y="-7.5%" width="109.6%" height="117.2%" filterUnits="objectBoundingBox" id="filter-20">
            <feMorphology radius="0.5" operator="dilate" in="SourceAlpha" result="shadowSpreadOuter1"></feMorphology>
            <feOffset dx="0" dy="1" in="shadowSpreadOuter1" result="shadowOffsetOuter1"></feOffset>
            <feGaussianBlur stdDeviation="2" in="shadowOffsetOuter1" result="shadowBlurOuter1"></feGaussianBlur>
            <feColorMatrix values="0 0 0 0 0.576470588   0 0 0 0 0.576470588   0 0 0 0 0.576470588  0 0 0 0.35 0" type="matrix" in="shadowBlurOuter1"></feColorMatrix>
        </filter>
        <path d="M124.003554,110 C122.334601,110 121,108.65595 121,106.99798 L121,106.99798 L121,20.0020205 C121,18.3505265 122.344737,17 124.003554,17 L124.003554,17 L289.996446,17 C291.665399,17 293,18.3440504 293,20.0020205 L293,20.0020205 L293,106.99798 C293,108.649473 291.655263,110 289.996446,110 L289.996446,110 L147,110 L142,116 L137,110 Z" id="path-21"></path>
        <filter x="-4.7%" y="-7.1%" width="109.3%" height="116.7%" filterUnits="objectBoundingBox" id="filter-22">
            <feMorphology radius="0.5" operator="dilate" in="SourceAlpha" result="shadowSpreadOuter1"></feMorphology>
            <feOffset dx="0" dy="1" in="shadowSpreadOuter1" result="shadowOffsetOuter1"></feOffset>
            <feGaussianBlur stdDeviation="2" in="shadowOffsetOuter1" result="shadowBlurOuter1"></feGaussianBlur>
            <feColorMatrix values="0 0 0 0 0.576470588   0 0 0 0 0.576470588   0 0 0 0 0.576470588  0 0 0 0.35 0" type="matrix" in="shadowBlurOuter1"></feColorMatrix>
        </filter>
        <path d="M289.994942,142 C291.663792,142 293,143.34405 293,145.00202 L293,145.00202 L293,231.99798 C293,233.649473 291.65459,235 289.994942,235 L289.994942,235 L130.005058,235 C128.336208,235 127,233.65595 127,231.99798 L127,231.99798 L127,168 L121,163 L126.999,158.001 L127,145.00202 C127,143.409508 128.251026,142.09685 129.828488,142.00512 L130.005058,142 Z" id="path-23"></path>
        <filter x="-5.0%" y="-7.5%" width="109.6%" height="117.2%" filterUnits="objectBoundingBox" id="filter-24">
            <feMorphology radius="0.5" operator="dilate" in="SourceAlpha" result="shadowSpreadOuter1"></feMorphology>
            <feOffset dx="0" dy="1" in="shadowSpreadOuter1" result="shadowOffsetOuter1"></feOffset>
            <feGaussianBlur stdDeviation="2" in="shadowOffsetOuter1" result="shadowBlurOuter1"></feGaussianBlur>
            <feColorMatrix values="0 0 0 0 0.576470588   0 0 0 0 0.576470588   0 0 0 0 0.576470588  0 0 0 0.35 0" type="matrix" in="shadowBlurOuter1"></feColorMatrix>
        </filter>
    </defs>
    <g id="📁设计师模式" stroke="none" stroke-width="1" fill="none" fill-rule="evenodd">
        <g id="组件设计规范备份--数据展示备份" transform="translate(-297.000000, -1871.000000)">
            <g id="3" transform="translate(297.000000, 1871.000000)">
                <rect id="矩形备份-127" stroke="#E8E7E7" x="0.5" y="0.5" width="959" height="514"></rect>
                <g id="形状结合">
                    <use fill="black" fill-opacity="1" filter="url(#filter-2)" xlink:href="#path-1"></use>
                    <use fill="#FFFFFF" fill-rule="evenodd" xlink:href="#path-1"></use>
                </g>
                <text id="Title" font-family="PingFangSC-Medium, PingFang SC" font-size="14" font-weight="400" line-spacing="22" fill="#000000" fill-opacity="0.85">
                    <tspan x="405" y="37">上中方向</tspan>
                </text>
                <text id="Text" font-family="PingFangSC-Regular, PingFang SC" font-size="14" font-weight="normal" line-spacing="22" fill="#000000" fill-opacity="0.65">
                    <tspan x="405" y="73">点击/鼠标移入元素，弹</tspan>
                    <tspan x="405" y="95">出气泡式的卡片浮层。</tspan>
                </text>
                <rect id="Dividers" fill="#D8D8D8" x="397" y="49" width="172" height="1"></rect>
                <g id="形状结合">
                    <use fill="black" fill-opacity="1" filter="url(#filter-4)" xlink:href="#path-3"></use>
                    <use fill="#FFFFFF" fill-rule="evenodd" xlink:href="#path-3"></use>
                </g>
                <text id="Title" font-family="PingFangSC-Medium, PingFang SC" font-size="14" font-weight="400" line-spacing="22" fill="#000000" fill-opacity="0.85">
                    <tspan x="667" y="37">上右方向</tspan>
                </text>
                <text id="Text" font-family="PingFangSC-Regular, PingFang SC" font-size="14" font-weight="normal" line-spacing="22" fill="#000000" fill-opacity="0.65">
                    <tspan x="667" y="73">点击/鼠标移入元素，弹</tspan>
                    <tspan x="667" y="95">出气泡式的卡片浮层。</tspan>
                </text>
                <rect id="Dividers" fill="#D8D8D8" x="659" y="49" width="172" height="1"></rect>
                <g id="形状结合">
                    <use fill="black" fill-opacity="1" filter="url(#filter-6)" xlink:href="#path-5"></use>
                    <use fill="#FFFFFF" fill-rule="evenodd" xlink:href="#path-5"></use>
                </g>
                <text id="Title" font-family="PingFangSC-Medium, PingFang SC" font-size="14" font-weight="400" line-spacing="22" fill="#000000" fill-opacity="0.85">
                    <tspan x="411" y="162">右中方向</tspan>
                </text>
                <text id="Text" font-family="PingFangSC-Regular, PingFang SC" font-size="14" font-weight="normal" line-spacing="22" fill="#000000" fill-opacity="0.65">
                    <tspan x="411" y="198">点击/鼠标移入元素，弹</tspan>
                    <tspan x="411" y="220">出气泡式的卡片浮层。</tspan>
                </text>
                <rect id="Dividers" fill="#D8D8D8" x="403" y="174" width="166" height="1"></rect>
                <g id="形状结合">
                    <use fill="black" fill-opacity="1" filter="url(#filter-8)" xlink:href="#path-7"></use>
                    <use fill="#FFFFFF" fill-rule="evenodd" xlink:href="#path-7"></use>
                </g>
                <text id="Title" font-family="PingFangSC-Medium, PingFang SC" font-size="14" font-weight="400" line-spacing="22" fill="#000000" fill-opacity="0.85">
                    <tspan x="673" y="162">右下方向</tspan>
                </text>
                <text id="Text" font-family="PingFangSC-Regular, PingFang SC" font-size="14" font-weight="normal" line-spacing="22" fill="#000000" fill-opacity="0.65">
                    <tspan x="673" y="198">点击/鼠标移入元素，弹</tspan>
                    <tspan x="673" y="220">出气泡式的卡片浮层。</tspan>
                </text>
                <rect id="Dividers" fill="#D8D8D8" x="665" y="174" width="166" height="1"></rect>
                <g id="形状结合">
                    <use fill="black" fill-opacity="1" filter="url(#filter-10)" xlink:href="#path-9"></use>
                    <use fill="#FFFFFF" fill-rule="evenodd" xlink:href="#path-9"></use>
                </g>
                <text id="Title" font-family="PingFangSC-Medium, PingFang SC" font-size="14" font-weight="400" line-spacing="22" fill="#000000" fill-opacity="0.85">
                    <tspan x="405" y="287">下右方向</tspan>
                </text>
                <text id="Text" font-family="PingFangSC-Regular, PingFang SC" font-size="14" font-weight="normal" line-spacing="22" fill="#000000" fill-opacity="0.65">
                    <tspan x="405" y="323">点击/鼠标移入元素，弹</tspan>
                    <tspan x="405" y="345">出气泡式的卡片浮层。</tspan>
                </text>
                <rect id="Dividers" fill="#D8D8D8" x="397" y="299" width="172" height="1"></rect>
                <g id="形状结合">
                    <use fill="black" fill-opacity="1" filter="url(#filter-12)" xlink:href="#path-11"></use>
                    <use fill="#FFFFFF" fill-rule="evenodd" xlink:href="#path-11"></use>
                </g>
                <text id="Title" font-family="PingFangSC-Medium, PingFang SC" font-size="14" font-weight="400" line-spacing="22" fill="#000000" fill-opacity="0.85">
                    <tspan x="129" y="287">下中方向</tspan>
                </text>
                <text id="Text" font-family="PingFangSC-Regular, PingFang SC" font-size="14" font-weight="normal" line-spacing="22" fill="#000000" fill-opacity="0.65">
                    <tspan x="129" y="323">点击/鼠标移入元素，弹</tspan>
                    <tspan x="129" y="345">出气泡式的卡片浮层。</tspan>
                </text>
                <rect id="Dividers" fill="#D8D8D8" x="121" y="299" width="172" height="1"></rect>
                <g id="形状结合">
                    <use fill="black" fill-opacity="1" filter="url(#filter-14)" xlink:href="#path-13"></use>
                    <use fill="#FFFFFF" fill-rule="evenodd" xlink:href="#path-13"></use>
                </g>
                <text id="Title" font-family="PingFangSC-Medium, PingFang SC" font-size="14" font-weight="400" line-spacing="22" fill="#000000" fill-opacity="0.85">
                    <tspan x="667" y="287">下左方向</tspan>
                </text>
                <text id="Text" font-family="PingFangSC-Regular, PingFang SC" font-size="14" font-weight="normal" line-spacing="22" fill="#000000" fill-opacity="0.65">
                    <tspan x="667" y="323">点击/鼠标移入元素，弹</tspan>
                    <tspan x="667" y="345">出气泡式的卡片浮层。</tspan>
                </text>
                <rect id="Dividers" fill="#D8D8D8" x="659" y="299" width="172" height="1"></rect>
                <g id="形状结合">
                    <use fill="black" fill-opacity="1" filter="url(#filter-16)" xlink:href="#path-15"></use>
                    <use fill="#FFFFFF" fill-rule="evenodd" xlink:href="#path-15"></use>
                </g>
                <text id="Title" font-family="PingFangSC-Medium, PingFang SC" font-size="14" font-weight="400" line-spacing="22" fill="#000000" fill-opacity="0.85">
                    <tspan x="667" y="406">左上方向</tspan>
                </text>
                <text id="Text" font-family="PingFangSC-Regular, PingFang SC" font-size="14" font-weight="normal" line-spacing="22" fill="#000000" fill-opacity="0.65">
                    <tspan x="667" y="442">点击/鼠标移入元素，弹</tspan>
                    <tspan x="667" y="464">出气泡式的卡片浮层。</tspan>
                </text>
                <rect id="Dividers" fill="#D8D8D8" x="659" y="418" width="166" height="1"></rect>
                <g id="形状结合">
                    <use fill="black" fill-opacity="1" filter="url(#filter-18)" xlink:href="#path-17"></use>
                    <use fill="#FFFFFF" fill-rule="evenodd" xlink:href="#path-17"></use>
                </g>
                <text id="Title" font-family="PingFangSC-Medium, PingFang SC" font-size="14" font-weight="400" line-spacing="22" fill="#000000" fill-opacity="0.85">
                    <tspan x="129" y="406">左中方向</tspan>
                </text>
                <text id="Text" font-family="PingFangSC-Regular, PingFang SC" font-size="14" font-weight="normal" line-spacing="22" fill="#000000" fill-opacity="0.65">
                    <tspan x="129" y="442">点击/鼠标移入元素，弹</tspan>
                    <tspan x="129" y="464">出气泡式的卡片浮层。</tspan>
                </text>
                <rect id="Dividers" fill="#D8D8D8" x="121" y="418" width="166" height="1"></rect>
                <g id="形状结合">
                    <use fill="black" fill-opacity="1" filter="url(#filter-20)" xlink:href="#path-19"></use>
                    <use fill="#FFFFFF" fill-rule="evenodd" xlink:href="#path-19"></use>
                </g>
                <text id="Title" font-family="PingFangSC-Medium, PingFang SC" font-size="14" font-weight="400" line-spacing="22" fill="#000000" fill-opacity="0.85">
                    <tspan x="405" y="406">右下方向</tspan>
                </text>
                <text id="Text" font-family="PingFangSC-Regular, PingFang SC" font-size="14" font-weight="normal" line-spacing="22" fill="#000000" fill-opacity="0.65">
                    <tspan x="405" y="442">点击/鼠标移入元素，弹</tspan>
                    <tspan x="405" y="464">出气泡式的卡片浮层。</tspan>
                </text>
                <rect id="Dividers" fill="#D8D8D8" x="397" y="418" width="166" height="1"></rect>
                <g id="形状结合">
                    <use fill="black" fill-opacity="1" filter="url(#filter-22)" xlink:href="#path-21"></use>
                    <use fill="#FFFFFF" fill-rule="evenodd" xlink:href="#path-21"></use>
                </g>
                <text id="Title" font-family="PingFangSC-Medium, PingFang SC" font-size="14" font-weight="400" line-spacing="22" fill="#000000" fill-opacity="0.85">
                    <tspan x="129" y="37">上左方向</tspan>
                </text>
                <text id="Text" font-family="PingFangSC-Regular, PingFang SC" font-size="14" font-weight="normal" line-spacing="22" fill="#000000" fill-opacity="0.65">
                    <tspan x="129" y="73">点击/鼠标移入元素，弹</tspan>
                    <tspan x="129" y="95">出气泡式的卡片浮层。</tspan>
                </text>
                <rect id="Dividers" fill="#D8D8D8" x="121" y="49" width="172" height="1"></rect>
                <g id="形状结合">
                    <use fill="black" fill-opacity="1" filter="url(#filter-24)" xlink:href="#path-23"></use>
                    <use fill="#FFFFFF" fill-rule="evenodd" xlink:href="#path-23"></use>
                </g>
                <text id="Title" font-family="PingFangSC-Medium, PingFang SC" font-size="14" font-weight="400" line-spacing="22" fill="#000000" fill-opacity="0.85">
                    <tspan x="135" y="162">右上方向</tspan>
                </text>
                <text id="Text" font-family="PingFangSC-Regular, PingFang SC" font-size="14" font-weight="normal" line-spacing="22" fill="#000000" fill-opacity="0.65">
                    <tspan x="135" y="198">点击/鼠标移入元素，弹</tspan>
                    <tspan x="135" y="220">出气泡式的卡片浮层。</tspan>
                </text>
                <rect id="Dividers" fill="#D8D8D8" x="127" y="174" width="166" height="1"></rect>
            </g>
        </g>
    </g>
</svg>