<?xml version="1.0" encoding="UTF-8"?>
<svg width="960px" height="112px" viewBox="0 0 960 112" version="1.1" xmlns="http://www.w3.org/2000/svg" xmlns:xlink="http://www.w3.org/1999/xlink">
    <title>4</title>
    <g id="ðŸ“è®¾è®¡å¸ˆæ¨¡å¼" stroke="none" stroke-width="1" fill="none" fill-rule="evenodd">
        <g id="ç»„ä»¶è®¾è®¡è§„èŒƒå¤‡ä»½--æ•°æ®å±•ç¤ºå¤‡ä»½" transform="translate(-300.000000, -2504.000000)">
            <g id="4" transform="translate(300.000000, 2504.000000)">
                <rect id="çŸ©å½¢å¤‡ä»½-128" fill="#FFFFFF" x="0" y="0" width="960" height="112"></rect>
                <path d="M403,76 L398,82 L393,76 L403,76 Z M458.993376,44 C460.649107,44 462,45.3413998 462,46.9961002 L462,46.9961002 L462,73.0038998 C462,74.6657405 460.653889,76 458.993376,76 L458.993376,76 L337.006624,76 C335.350893,76 334,74.6586002 334,73.0038998 L334,73.0038998 L334,46.9961002 C334,45.3342595 335.346111,44 337.006624,44 L337.006624,44 Z" id="å½¢çŠ¶ç»“åˆ" fill="#444A5E"></path>
                <text id="Text" font-family="PingFangSC-Regular, PingFang SC" font-size="14" font-weight="normal" line-spacing="22" fill="#FFFFFF">
                    <tspan x="342" y="64">æ‚¬æµ®å‡ºçŽ°çš„æ°”æ³¡ã€‚</tspan>
                </text>
                <path d="M616.993376,44 C618.649107,44 620,45.3413998 620,46.9961002 L620,46.9961002 L620,73.0038998 C620,74.6657405 618.653889,76 616.993376,76 L616.993376,76 L495.006624,76 C493.350893,76 492,74.6586002 492,73.0038998 L492,73.0038998 L492,65 L486,60 L491.999,55.001 L492,46.9961002 C492,45.393611 493.251678,44.0957221 494.829962,44.0050597 L495.006624,44 Z" id="å½¢çŠ¶ç»“åˆ" fill="#444A5E"></path>
                <text id="Text" font-family="PingFangSC-Regular, PingFang SC" font-size="14" font-weight="normal" line-spacing="22" fill="#FFFFFF">
                    <tspan x="499" y="64">æ‚¬æµ®å‡ºçŽ°çš„æ°”æ³¡ã€‚</tspan>
                </text>
                <path d="M772,73.0038998 C772,74.6657405 770.653889,76 768.993376,76 L768.993376,76 L647.006624,76 C645.350893,76 644,74.6586002 644,73.0038998 L644,73.0038998 L644,46.9961002 C644,45.3342595 645.346111,44 647.006624,44 L647.006624,44 L768.993376,44 C770.649107,44 772,45.3413998 772,46.9961002 L772,46.9961002 L772,55 L778,60 L772,65 Z" id="bg" fill="#444A5E"></path>
                <text id="Text" font-family="PingFangSC-Regular, PingFang SC" font-size="14" font-weight="normal" line-spacing="22" fill="#FFFFFF">
                    <tspan x="652" y="64">æ‚¬æµ®å‡ºçŽ°çš„æ°”æ³¡ã€‚</tspan>
                </text>
                <path d="M245.963524,38 L250.999,43.999 L306.993376,44 C308.589974,44 309.903119,45.2472965 309.994878,46.8200566 L310,46.9961002 L310,73.0038998 C310,74.6657405 308.653889,76 306.993376,76 L306.993376,76 L185.006624,76 C183.350893,76 182,74.6586002 182,73.0038998 L182,73.0038998 L182,46.9961002 C182,45.3342595 183.346111,44 185.006624,44 L185.006624,44 L241,43.999 L245.963524,38 Z" id="å½¢çŠ¶ç»“åˆ" fill="#444A5E"></path>
                <text id="Text" font-family="PingFangSC-Regular, PingFang SC" font-size="14" font-weight="normal" line-spacing="22" fill="#FFFFFF">
                    <tspan x="190" y="64">æ‚¬æµ®å‡ºçŽ°çš„æ°”æ³¡ã€‚</tspan>
                </text>
            </g>
        </g>
    </g>
</svg>