<?xml version="1.0" encoding="UTF-8"?>
<svg width="540px" height="464px" viewBox="0 0 540 464" version="1.1" xmlns="http://www.w3.org/2000/svg" xmlns:xlink="http://www.w3.org/1999/xlink">
    <title>2</title>
    <defs>
        <filter id="filter-1">
            <feColorMatrix in="SourceGraphic" type="matrix" values="0 0 0 0 1.000000 0 0 0 0 1.000000 0 0 0 0 1.000000 0 0 0 1.000000 0"></feColorMatrix>
        </filter>
        <filter id="filter-2">
            <feColorMatrix in="SourceGraphic" type="matrix" values="0 0 0 0 1.000000 0 0 0 0 1.000000 0 0 0 0 1.000000 0 0 0 1.000000 0"></feColorMatrix>
        </filter>
        <rect id="path-3" x="39" y="280" width="464" height="111" rx="2"></rect>
        <filter x="-12.6%" y="-44.6%" width="125.2%" height="205.4%" filterUnits="objectBoundingBox" id="filter-4">
            <feMorphology radius="2" operator="erode" in="SourceAlpha" result="shadowSpreadOuter1"></feMorphology>
            <feOffset dx="0" dy="3" in="shadowSpreadOuter1" result="shadowOffsetOuter1"></feOffset>
            <feGaussianBlur stdDeviation="3" in="shadowOffsetOuter1" result="shadowBlurOuter1"></feGaussianBlur>
            <feColorMatrix values="0 0 0 0 0   0 0 0 0 0   0 0 0 0 0  0 0 0 0.12 0" type="matrix" in="shadowBlurOuter1" result="shadowMatrixOuter1"></feColorMatrix>
            <feMorphology radius="4" operator="dilate" in="SourceAlpha" result="shadowSpreadOuter2"></feMorphology>
            <feOffset dx="0" dy="9" in="shadowSpreadOuter2" result="shadowOffsetOuter2"></feOffset>
            <feGaussianBlur stdDeviation="14" in="shadowOffsetOuter2" result="shadowBlurOuter2"></feGaussianBlur>
            <feColorMatrix values="0 0 0 0 0   0 0 0 0 0   0 0 0 0 0  0 0 0 0.05 0" type="matrix" in="shadowBlurOuter2" result="shadowMatrixOuter2"></feColorMatrix>
            <feOffset dx="0" dy="6" in="SourceAlpha" result="shadowOffsetOuter3"></feOffset>
            <feGaussianBlur stdDeviation="8" in="shadowOffsetOuter3" result="shadowBlurOuter3"></feGaussianBlur>
            <feColorMatrix values="0 0 0 0 0   0 0 0 0 0   0 0 0 0 0  0 0 0 0.08 0" type="matrix" in="shadowBlurOuter3" result="shadowMatrixOuter3"></feColorMatrix>
            <feMerge>
                <feMergeNode in="shadowMatrixOuter1"></feMergeNode>
                <feMergeNode in="shadowMatrixOuter2"></feMergeNode>
                <feMergeNode in="shadowMatrixOuter3"></feMergeNode>
            </feMerge>
        </filter>
    </defs>
    <g id="📁设计师模式" stroke="none" stroke-width="1" fill="none" fill-rule="evenodd">
        <g id="交互原则-即时反馈" transform="translate(-720.000000, -893.000000)">
            <g id="2" transform="translate(720.000000, 893.000000)">
                <rect id="矩形" fill="#FFFFFF" x="0" y="0" width="540" height="464"></rect>
                <circle id="椭圆形" fill="#FF644E" cx="239" cy="210" r="4"></circle>
                <circle id="椭圆形备份" fill="#ED220D" cx="271" cy="210" r="4"></circle>
                <circle id="椭圆形备份-2" fill="#B30000" cx="303" cy="210" r="4"></circle>
                <rect id="矩形" fill="#B30000" x="153" y="39" width="122" height="36" rx="2"></rect>
                <text id="正在提交" font-family="PingFangSC-Regular, PingFang SC" font-size="14" font-weight="normal" fill="#FFFFFF">
                    <tspan x="170" y="62">正在提交</tspan>
                </text>
                <g filter="url(#filter-1)" id="加载">
                    <g transform="translate(245.000000, 49.000000)">
                        <rect id="矩形" fill="#000000" fill-rule="nonzero" opacity="0" x="0" y="0" width="16" height="16"></rect>
                        <path d="M12.2197656,14.0888125 C12.3899688,14.3761094 12.2947188,14.7602187 11.9964844,14.9226094 C11.7045,15.0928125 11.3328906,14.992875 11.1673594,14.6993281 C10.9893594,14.4120156 11.0924219,14.0357188 11.3812812,13.8655156 C11.6842031,13.6968906 12.0495625,13.7999375 12.2197656,14.0887969 L12.2197656,14.0888125 Z M8.62067188,15.3894844 C8.62067188,15.7220625 8.34585938,16 8.00078125,16 C7.66820313,16 7.39026563,15.7283125 7.39026563,15.3894844 L7.39026563,14.9616406 C7.39026563,14.62125 7.66975,14.3495625 8.00078125,14.3495625 C8.34117188,14.3495625 8.62067188,14.62125 8.62067188,14.9616406 L8.62067188,15.3894844 Z M4.8529375,14.6993281 C4.67960938,15.0006875 4.3033125,15.0959375 4.0144375,14.9257344 C3.71776563,14.7586563 3.61315625,14.3854844 3.78803125,14.08725 L4.24240625,13.2924688 C4.41729687,13.0004844 4.79203125,12.899 5.08870312,13.0660625 C5.37601562,13.2362656 5.4821875,13.6156875 5.30729687,13.9045625 L4.85292188,14.6993281 L4.8529375,14.6993281 Z M1.928375,12.2307031 C1.63170313,12.3962188 1.25228125,12.2962813 1.089875,12.0042969 C0.9165625,11.7169844 1.0149375,11.3360156 1.30846875,11.1657969 L2.52951563,10.4584688 C2.82151563,10.2960938 3.2009375,10.3882188 3.36801562,10.684875 C3.53351563,10.9721875 3.43203125,11.3531719 3.14160937,11.523375 L1.928375,12.2307031 Z M0.62925,8.62223438 C0.288859375,8.62223438 0.018734375,8.34742188 0.018734375,8.01170312 C0.018734375,7.6713125 0.288859375,7.3965 0.62925,7.3965 L2.53109375,7.3965 C2.87148437,7.3965 3.141625,7.6713125 3.141625,8.00703125 C3.141625,8.34742188 2.87148437,8.62223438 2.53109375,8.62223438 L0.62925,8.62223438 L0.62925,8.62223438 Z M1.31003125,4.84825 C1.013375,4.68273437 0.9165625,4.308 1.0914375,4.0144375 C1.25382813,3.71776562 1.63170313,3.61784375 1.9299375,3.78803125 L3.99728125,4.98878125 C4.28925,5.15584375 4.3860625,5.52903125 4.2236875,5.81789063 C4.05035938,6.1145625 3.67404688,6.2098125 3.38675,6.04429688 L1.31003125,4.84825 Z M3.78803125,1.92525 L5.22767187,4.42509375 C5.4025625,4.71709375 5.77729687,4.82170312 6.06928125,4.648375 C6.36128125,4.482875 6.45807812,4.1034375 6.287875,3.80989062 L4.842,1.31473437 C4.67648437,1.02585937 4.30175,0.92125 4.012875,1.09145312 C3.71620313,1.26164062 3.62096875,1.6379375 3.78803125,1.92525 Z M7.39182812,0.6339375 C7.39182812,0.301359375 7.6713125,0.018734375 8.00234375,0.018734375 C8.34273437,0.018734375 8.62223437,0.295109375 8.62223437,0.6339375 L8.62223437,3.51321875 C8.62223437,3.85360937 8.34742187,4.12842187 8.00234375,4.13310937 C7.66975,4.13310937 7.39182812,3.86298437 7.39182812,3.51321875 L7.39182812,0.6339375 Z M11.1595625,1.31471875 C11.3344375,1.01804687 11.7045,0.92125 11.9980469,1.0883125 C12.2947187,1.25382812 12.3993437,1.62857812 12.2244531,1.9268125 L10.7816875,4.42665625 C10.6192969,4.71865625 10.2351875,4.82170312 9.94320313,4.6530625 C9.65121875,4.482875 9.55440625,4.1034375 9.71992188,3.80989062 L11.1595625,1.31473438 L11.1595625,1.31471875 Z M14.0919219,3.78803125 L11.5889531,5.23079688 C11.2969687,5.3963125 11.1954687,5.7710625 11.3625469,6.06928125 C11.5358594,6.35659375 11.9121719,6.45340625 12.2010312,6.2925625 L14.7055625,4.8498125 C14.992875,4.68429688 15.0990469,4.30954687 14.9241719,4.016 C14.7555312,3.71932813 14.3792344,3.61315625 14.0919219,3.78803125 L14.0919219,3.78803125 Z M15.3785469,7.3965 C15.7220625,7.3965 15.99375,7.6713125 15.9890625,8.01170313 C15.9890625,8.34742188 15.723625,8.62223438 15.3785469,8.62223438 L12.4961406,8.62223438 C12.1635625,8.62223438 11.8840625,8.34742188 11.8840625,8.00703125 C11.8840625,7.6713125 12.1635625,7.3965 12.4961406,7.3965 L15.3785469,7.3965 L15.3785469,7.3965 Z" id="形状" fill="#000000" fill-rule="nonzero"></path>
                    </g>
                </g>
                <circle id="椭圆形" fill="#B30000" cx="350" cy="57" r="16"></circle>
                <g filter="url(#filter-2)" id="加载备份">
                    <g transform="translate(338.000000, 45.000000)">
                        <rect id="矩形" fill="#000000" fill-rule="nonzero" opacity="0" x="0" y="0" width="24" height="24"></rect>
                        <path d="M18.3296484,21.1332188 C18.5849531,21.5641641 18.4420781,22.1403281 17.9947266,22.3839141 C17.55675,22.6392188 16.9993359,22.4893125 16.7510391,22.0489922 C16.4840391,21.6180234 16.6386328,21.0535781 17.0719219,20.7982734 C17.5263047,20.5453359 18.0743438,20.6999063 18.3296484,21.1331953 L18.3296484,21.1332188 Z M12.9310078,23.0842266 C12.9310078,23.5830937 12.5187891,24 12.0011719,24 C11.5023047,24 11.0853984,23.5924687 11.0853984,23.0842266 L11.0853984,22.4424609 C11.0853984,21.931875 11.504625,21.5243437 12.0011719,21.5243437 C12.5117578,21.5243437 12.9310078,21.931875 12.9310078,22.4424609 L12.9310078,23.0842266 Z M7.27940625,22.0489922 C7.01941406,22.5010313 6.45496875,22.6439063 6.02165625,22.3886016 C5.57664844,22.1379844 5.41973438,21.5782266 5.68204688,21.130875 L6.36360938,19.9387031 C6.62594531,19.5007266 7.18804688,19.3485 7.63305469,19.5990937 C8.06402344,19.8543984 8.22328125,20.4235312 7.96094531,20.8568437 L7.27938281,22.0489922 L7.27940625,22.0489922 Z M2.8925625,18.3460547 C2.44755469,18.5943281 1.87842188,18.4444219 1.6348125,18.0064453 C1.37484375,17.5754766 1.52240625,17.0040234 1.96270313,16.7486953 L3.79427344,15.6877031 C4.23227344,15.4441406 4.80140625,15.5823281 5.05202344,16.0273125 C5.30027344,16.4582813 5.14804688,17.0297578 4.71241406,17.2850625 L2.8925625,18.3460547 Z M0.943875,12.9333516 C0.433289063,12.9333516 0.0281015625,12.5211328 0.0281015625,12.0175547 C0.0281015625,11.5069687 0.433289063,11.09475 0.943875,11.09475 L3.79664062,11.09475 C4.30722656,11.09475 4.7124375,11.5069688 4.7124375,12.0105469 C4.7124375,12.5211328 4.30722656,12.9333516 3.79664062,12.9333516 L0.943875,12.9333516 L0.943875,12.9333516 Z M1.96504688,7.272375 C1.5200625,7.02410156 1.37484375,6.462 1.63715625,6.02165625 C1.88074219,5.57664844 2.44755469,5.42676562 2.89490625,5.68204687 L5.99592188,7.48317188 C6.433875,7.73376563 6.57909375,8.29354688 6.33553125,8.72683594 C6.07553906,9.17184375 5.51107031,9.31471875 5.080125,9.06644531 L1.96504688,7.272375 Z M5.68204688,2.887875 L7.84150781,6.63764063 C8.10384375,7.07564062 8.66594531,7.23255469 9.10392187,6.9725625 C9.54192187,6.7243125 9.68711719,6.15515625 9.4318125,5.71483594 L7.263,1.97210156 C7.01472656,1.53878906 6.452625,1.381875 6.0193125,1.63717969 C5.57430469,1.89246094 5.43145313,2.45690625 5.68204688,2.887875 Z M11.0877422,0.95090625 C11.0877422,0.452039062 11.5069687,0.0281015625 12.0035156,0.0281015625 C12.5141016,0.0281015625 12.9333516,0.442664062 12.9333516,0.95090625 L12.9333516,5.26982812 C12.9333516,5.78041406 12.5211328,6.19263281 12.0035156,6.19966406 C11.504625,6.19966406 11.0877422,5.79447656 11.0877422,5.26982812 L11.0877422,0.95090625 Z M16.7393438,1.97207812 C17.0016563,1.52707031 17.55675,1.381875 17.9970703,1.63246875 C18.4420781,1.88074219 18.5990156,2.44286719 18.3366797,2.89021875 L16.1725313,6.63998437 C15.9289453,7.07798437 15.3527813,7.23255469 14.9148047,6.97959375 C14.4768281,6.7243125 14.3316094,6.15515625 14.5798828,5.71483594 L16.7393438,1.97210156 L16.7393438,1.97207812 Z M21.1378828,5.68204687 L17.3834297,7.84619531 C16.9454531,8.09446875 16.7932031,8.65659375 17.0438203,9.10392188 C17.3037891,9.53489063 17.8682578,9.68010938 18.3015469,9.43884375 L22.0583437,7.27471875 C22.4893125,7.02644531 22.6485703,6.46432031 22.3862578,6.024 C22.1332969,5.57899219 21.5688516,5.41973437 21.1378828,5.68204687 L21.1378828,5.68204687 Z M23.0678203,11.09475 C23.5830938,11.09475 23.990625,11.5069688 23.9835938,12.0175547 C23.9835938,12.5211328 23.5854375,12.9333516 23.0678203,12.9333516 L18.7442109,12.9333516 C18.2453438,12.9333516 17.8260938,12.5211328 17.8260938,12.0105469 C17.8260938,11.5069688 18.2453438,11.09475 18.7442109,11.09475 L23.0678203,11.09475 L23.0678203,11.09475 Z" id="形状" fill="#000000" fill-rule="nonzero"></path>
                    </g>
                </g>
                <rect id="矩形" fill-opacity="0.0468203671" fill="#000000" x="39" y="132" width="464" height="54"></rect>
                <rect id="矩形备份-2" fill-opacity="0.35" fill="#000000" x="39" y="237" width="464" height="1.5"></rect>
                <rect id="矩形备份-69" fill="#BEBEBE" x="61" y="148" width="79" height="16"></rect>
                <rect id="矩形备份-70" fill="#BEBEBE" x="187" y="148" width="79" height="16"></rect>
                <rect id="矩形备份-71" fill="#BEBEBE" x="325" y="148" width="79" height="16"></rect>
                <g id="形状结合备份-3">
                    <use fill="black" fill-opacity="1" filter="url(#filter-4)" xlink:href="#path-3"></use>
                    <use fill="#FFFFFF" fill-rule="evenodd" xlink:href="#path-3"></use>
                </g>
                <text id="正在生成预览-…" font-family="PingFangSC-Regular, PingFang SC" font-size="14" font-weight="normal" fill="#000000" fill-opacity="0.85">
                    <tspan x="61" y="308">正在生成预览 …</tspan>
                </text>
                <text id="倒计时-8s" font-family="PingFangSC-Regular, PingFang SC" font-size="12" font-weight="normal" fill="#000000" fill-opacity="0.649885271">
                    <tspan x="61" y="336">倒计时 8s</tspan>
                </text>
                <rect id="矩形" stroke="#B30000" fill="#FFFFFF" x="61.5" y="352.5" width="374" height="7" rx="3.5"></rect>
                <rect id="矩形备份-3" stroke="#B30000" fill="#B30000" x="61.5" y="352.5" width="270" height="7" rx="3.5"></rect>
                <text id="80%" font-family="PingFangSC-Regular, PingFang SC" font-size="14" font-weight="normal" fill="#000000" fill-opacity="0.85">
                    <tspan x="453" y="360">80%</tspan>
                </text>
            </g>
        </g>
    </g>
</svg>