<?xml version="1.0" encoding="UTF-8"?>
<svg width="960px" height="324px" viewBox="0 0 960 324" version="1.1" xmlns="http://www.w3.org/2000/svg" xmlns:xlink="http://www.w3.org/1999/xlink">
    <title>11</title>
    <defs>
        <filter id="filter-1">
            <feColorMatrix in="SourceGraphic" type="matrix" values="0 0 0 0 0.674510 0 0 0 0 0.686275 0 0 0 0 0.725490 0 0 0 1.000000 0"></feColorMatrix>
        </filter>
        <filter id="filter-2">
            <feColorMatrix in="SourceGraphic" type="matrix" values="0 0 0 0 0.674510 0 0 0 0 0.686275 0 0 0 0 0.725490 0 0 0 1.000000 0"></feColorMatrix>
        </filter>
        <filter id="filter-3">
            <feColorMatrix in="SourceGraphic" type="matrix" values="0 0 0 0 0.674510 0 0 0 0 0.686275 0 0 0 0 0.725490 0 0 0 1.000000 0"></feColorMatrix>
        </filter>
        <filter id="filter-4">
            <feColorMatrix in="SourceGraphic" type="matrix" values="0 0 0 0 0.674510 0 0 0 0 0.686275 0 0 0 0 0.725490 0 0 0 1.000000 0"></feColorMatrix>
        </filter>
        <filter id="filter-5">
            <feColorMatrix in="SourceGraphic" type="matrix" values="0 0 0 0 1.000000 0 0 0 0 1.000000 0 0 0 0 1.000000 0 0 0 1.000000 0"></feColorMatrix>
        </filter>
        <filter id="filter-6">
            <feColorMatrix in="SourceGraphic" type="matrix" values="0 0 0 0 1.000000 0 0 0 0 1.000000 0 0 0 0 1.000000 0 0 0 1.000000 0"></feColorMatrix>
        </filter>
        <filter id="filter-7">
            <feColorMatrix in="SourceGraphic" type="matrix" values="0 0 0 0 0.674510 0 0 0 0 0.686275 0 0 0 0 0.725490 0 0 0 1.000000 0"></feColorMatrix>
        </filter>
        <filter id="filter-8">
            <feColorMatrix in="SourceGraphic" type="matrix" values="0 0 0 0 0.674510 0 0 0 0 0.686275 0 0 0 0 0.725490 0 0 0 1.000000 0"></feColorMatrix>
        </filter>
        <filter id="filter-9">
            <feColorMatrix in="SourceGraphic" type="matrix" values="0 0 0 0 1.000000 0 0 0 0 1.000000 0 0 0 0 1.000000 0 0 0 1.000000 0"></feColorMatrix>
        </filter>
        <filter id="filter-10">
            <feColorMatrix in="SourceGraphic" type="matrix" values="0 0 0 0 1.000000 0 0 0 0 1.000000 0 0 0 0 1.000000 0 0 0 1.000000 0"></feColorMatrix>
        </filter>
        <filter id="filter-11">
            <feColorMatrix in="SourceGraphic" type="matrix" values="0 0 0 0 1.000000 0 0 0 0 1.000000 0 0 0 0 1.000000 0 0 0 1.000000 0"></feColorMatrix>
        </filter>
    </defs>
    <g id="📁设计师模式" stroke="none" stroke-width="1" fill="none" fill-rule="evenodd">
        <g id="组件设计规范备份-数据录入备份" transform="translate(-299.000000, -7649.000000)">
            <g id="11" transform="translate(299.000000, 7649.000000)">
                <rect id="矩形备份-114" stroke="#E8E7E7" x="0.5" y="0.5" width="959" height="323"></rect>
                <rect id="Rectangle-" stroke="#ACAFB9" fill="#FFFFFF" x="490.5" y="44.5" width="199" height="236" rx="3"></rect>
                <rect id="Rectangle-备份-2" stroke="#ACAFB9" fill="#FFFFFF" x="745.5" y="44.5" width="199" height="236" rx="3"></rect>
                <rect id="Rectangle-3-Copy-52备份" stroke="#ACAFB9" fill="#FFFFFF" x="234.5" y="44.5" width="175" height="215" rx="3"></rect>
                <rect id="Rectangle-备份" stroke="#ACAFB9" fill="#FFFFFF" x="19.5" y="44.5" width="175" height="215" rx="3"></rect>
                <rect id="矩形" x="19" y="47" width="176" height="28"></rect>
                <rect id="矩形备份" x="234" y="47" width="176" height="28"></rect>
                <rect id="矩形备份-2" x="490" y="47" width="200" height="28"></rect>
                <rect id="矩形备份-8" x="745" y="47" width="200" height="28"></rect>
                <rect id="Selected-Bg备份-7" x="490" y="222" width="200" height="28"></rect>
                <rect id="Selected-Bg备份-14" x="490" y="250" width="200" height="28"></rect>
                <rect id="Selected-Bg备份-8" x="490" y="194" width="200" height="28"></rect>
                <rect id="Selected-Bg备份-9" x="490" y="166" width="200" height="28"></rect>
                <rect id="Selected-Bg备份-10" x="490" y="138" width="200" height="28"></rect>
                <rect id="Selected-Bg备份-19" x="745" y="110" width="200" height="28"></rect>
                <rect id="Selected-Bg备份-11" x="490" y="110" width="200" height="28"></rect>
                <rect id="Selected-Bg备份-12" x="490" y="82" width="200" height="28"></rect>
                <rect id="Selected-Bg备份-21" x="745" y="82" width="200" height="28"></rect>
                <text id="集团财务部-徐某" font-family="PingFangSC-Regular, PingFang SC" font-size="14" font-weight="normal" fill="#000000" fill-opacity="0.65">
                    <tspan x="526" y="241">集团财务部  徐某</tspan>
                </text>
                <text id="集团财务部-徐某备份" font-family="PingFangSC-Regular, PingFang SC" font-size="14" font-weight="normal" fill="#000000" fill-opacity="0.65">
                    <tspan x="526" y="269">集团财务部  徐某</tspan>
                </text>
                <rect id="Rectangle备份-6" stroke="#ACAFB9" fill="#FFFFFF" x="502.5" y="228.5" width="15" height="15" rx="3"></rect>
                <rect id="Rectangle备份-12" stroke="#ACAFB9" fill="#FFFFFF" x="502.5" y="256.5" width="15" height="15" rx="3"></rect>
                <rect id="Selected-Bg备份-5" x="235" y="119" width="174" height="28"></rect>
                <rect id="Selected-Bg备份-6" x="235" y="147" width="174" height="28"></rect>
                <rect id="Rectangle" stroke="#ACAFB9" fill="#FFFFFF" x="502.5" y="53.5" width="15" height="15" rx="3"></rect>
                <rect id="Rectangle备份-3" stroke="#ACAFB9" fill="#FFFFFF" x="757.5" y="53.5" width="15" height="15" rx="3"></rect>
                <rect id="Rectangle备份-5" stroke="#ACAFB9" fill="#FFFFFF" x="502.5" y="200.5" width="15" height="15" rx="3"></rect>
                <rect id="Rectangle备份-2" stroke="#ACAFB9" fill="#FFFFFF" x="502.5" y="88.5" width="15" height="15" rx="3"></rect>
                <rect id="Rectangle备份-16" stroke="#ACAFB9" fill="#FFFFFF" x="757.5" y="88.5" width="15" height="15" rx="3"></rect>
                <rect id="Rectangle备份-10" fill="#B30000" x="502" y="116" width="16" height="16" rx="3"></rect>
                <rect id="Rectangle备份-8" fill="#B30000" x="502" y="172" width="16" height="16" rx="3"></rect>
                <text id="集团法务部-张某" font-family="PingFangSC-Regular, PingFang SC" font-size="14" font-weight="normal" fill="#000000" fill-opacity="0.65">
                    <tspan x="526" y="101">集团法务部  张某</tspan>
                </text>
                <text id="集团法务部-张某备份" font-family="PingFangSC-Regular, PingFang SC" font-size="14" font-weight="normal" fill="#000000" fill-opacity="0.65">
                    <tspan x="781" y="101">集团法务部  张某</tspan>
                </text>
                <text id="集团法务部-郭某" font-family="PingFangSC-Regular, PingFang SC" font-size="14" font-weight="normal" fill="#000000" fill-opacity="0.65">
                    <tspan x="526" y="157">集团法务部  郭某</tspan>
                </text>
                <text id="集团法务部-郭某备份" font-family="PingFangSC-Regular, PingFang SC" font-size="14" font-weight="normal" fill="#000000" fill-opacity="0.65">
                    <tspan x="781" y="129">集团法务部  郭某</tspan>
                </text>
                <text id="集团法务部-王某" font-family="PingFangSC-Regular, PingFang SC" font-size="14" font-weight="normal" fill="#000000" fill-opacity="0.65">
                    <tspan x="526" y="129">集团法务部  王某</tspan>
                </text>
                <text id="集团财务部-李某" font-family="PingFangSC-Regular, PingFang SC" font-size="14" font-weight="normal" fill="#000000" fill-opacity="0.65">
                    <tspan x="526" y="185">集团财务部  李某</tspan>
                </text>
                <text id="集团财务部-何某" font-family="PingFangSC-Regular, PingFang SC" font-size="14" font-weight="normal" fill="#000000" fill-opacity="0.65">
                    <tspan x="526" y="213">集团财务部  何某</tspan>
                </text>
                <rect id="Rectangle备份-4" stroke="#ACAFB9" fill="#FFFFFF" x="502.5" y="144.5" width="15" height="15" rx="3"></rect>
                <rect id="Rectangle备份-19" stroke="#ACAFB9" fill="#FFFFFF" x="757.5" y="116.5" width="15" height="15" rx="3"></rect>
                <rect id="Scrollbar" fill-opacity="0.45" fill="#000000" x="681" y="90" width="5" height="44" rx="2.5"></rect>
                <rect id="Rectangle-271" stroke="#ACAFB9" fill="#E9EBF0" x="705" y="160" width="24" height="24" rx="3"></rect>
                <rect id="Rectangle-271" fill="#B30000" x="705" y="132" width="24" height="24" rx="3"></rect>
                <text id="待发起会议通知机构" font-family="SourceHanSansCN-Regular, Source Han Sans CN" font-size="14" font-weight="normal" fill="#000000" fill-opacity="0.65">
                    <tspan x="552" y="66">待发起会议通知机构</tspan>
                </text>
                <text id="待发起会议通知机构备份" font-family="SourceHanSansCN-Regular, Source Han Sans CN" font-size="14" font-weight="normal" fill="#000000" fill-opacity="0.65">
                    <tspan x="807" y="66">待发起会议通知机构</tspan>
                </text>
                <rect id="Dividers备份" fill="#ACAFB9" x="235" y="78" width="174" height="1"></rect>
                <rect id="Dividers备份-3" fill="#ACAFB9" x="490" y="78" width="200" height="1"></rect>
                <rect id="Dividers备份-4" fill="#ACAFB9" x="745" y="78" width="200" height="1"></rect>
                <text id="目的列表备份" font-family="PingFangSC-Regular, PingFang SC" font-size="14" font-weight="normal" line-spacing="22" fill="#000000" fill-opacity="0.65">
                    <tspan x="342" y="65">目的列表</tspan>
                </text>
                <rect id="矩形备份-3" fill="#000000" fill-rule="nonzero" opacity="0" x="247" y="56" width="16" height="16"></rect>
                <rect id="Rectangle备份" stroke="#ACAFB9" fill="#FFFFFF" x="247.5" y="53.5" width="15" height="15" rx="3"></rect>
                <rect id="矩形备份-4" fill="#000000" fill-rule="nonzero" opacity="0" x="247" y="92" width="16" height="16"></rect>
                <rect id="矩形备份-5" fill="#000000" fill-rule="nonzero" opacity="0" x="247" y="134" width="16" height="16"></rect>
                <rect id="Rectangle备份-7" stroke="#ACAFB9" fill="#FFFFFF" x="247.5" y="125.5" width="15" height="15" rx="3"></rect>
                <text id="Text备份-12" font-family="PingFangSC-Regular, PingFang SC" font-size="14" font-weight="normal" line-spacing="22" fill="#000000" fill-opacity="0.65">
                    <tspan x="271" y="137">未选中项</tspan>
                </text>
                <rect id="矩形备份-5" fill="#000000" fill-rule="nonzero" opacity="0" x="247" y="162" width="16" height="16"></rect>
                <rect id="Rectangle备份-7" stroke="#ACAFB9" fill="#FFFFFF" x="247.5" y="153.5" width="15" height="15" rx="3"></rect>
                <text id="Text备份-12" font-family="PingFangSC-Regular, PingFang SC" font-size="14" font-weight="normal" line-spacing="22" fill="#000000" fill-opacity="0.65">
                    <tspan x="271" y="165">未选中项</tspan>
                </text>
                <rect id="Rectangle-271" stroke-opacity="0.35" stroke="#000000" fill="#FFFFFF" x="31.5" y="53.5" width="15" height="15" rx="3"></rect>
                <rect id="Selected-Bg备份" fill="#FFF1F0" x="20" y="119" width="174" height="28"></rect>
                <rect id="Selected-Bg备份-2" x="20" y="147" width="174" height="28"></rect>
                <rect id="Selected-Bg备份-4" x="20" y="203" width="174" height="28"></rect>
                <rect id="Selected-Bg备份-13" x="21" y="229" width="174" height="28"></rect>
                <rect id="Selected-Bg备份-3" x="20" y="175" width="174" height="28"></rect>
                <rect id="矩形备份-6" fill="#000000" fill-rule="nonzero" opacity="0" x="31" y="92" width="16" height="16"></rect>
                <rect id="矩形备份-7" fill="#000000" fill-rule="nonzero" opacity="0" x="31" y="224" width="16" height="16"></rect>
                <rect id="Rectangle备份-9" stroke="#ACAFB9" fill="#FFFFFF" x="31.5" y="209.5" width="15" height="15" rx="3"></rect>
                <rect id="Rectangle备份-11" stroke="#ACAFB9" fill="#FFFFFF" x="32.5" y="235.5" width="15" height="15" rx="3"></rect>
                <text id="Text备份-14" font-family="PingFangSC-Regular, PingFang SC" font-size="14" font-weight="normal" line-spacing="22" fill="#000000" fill-opacity="0.65">
                    <tspan x="55" y="221">未选中项</tspan>
                </text>
                <text id="Text备份-15" font-family="PingFangSC-Regular, PingFang SC" font-size="14" font-weight="normal" line-spacing="22" fill="#000000" fill-opacity="0.65">
                    <tspan x="56" y="247">未选中项</tspan>
                </text>
                <g id="save" transform="translate(31.000000, 128.000000)"></g>
                <rect id="矩形" fill="#000000" fill-rule="nonzero" opacity="0" x="31" y="128" width="16" height="16"></rect>
                <rect id="Rectangle-271" fill="#B30000" x="31" y="125" width="16" height="16" rx="3"></rect>
                <text id="Text" font-family="PingFangSC-Regular, PingFang SC" font-size="14" font-weight="normal" line-spacing="22" fill="#000000" fill-opacity="0.65">
                    <tspan x="55" y="137">选中项</tspan>
                </text>
                <rect id="矩形" fill="#000000" fill-rule="nonzero" opacity="0" x="31" y="160" width="16" height="16"></rect>
                <rect id="Rectangle-271" stroke="#C8CAD1" fill="#E9EBF0" x="31" y="153" width="16" height="16" rx="3"></rect>
                <text id="Text备份-16" font-family="PingFangSC-Regular, PingFang SC" font-size="14" font-weight="normal" line-spacing="22" fill="#000000" fill-opacity="0.45">
                    <tspan x="55" y="165">未选失效项</tspan>
                </text>
                <rect id="矩形" fill="#000000" fill-rule="nonzero" opacity="0" x="31" y="192" width="16" height="16"></rect>
                <rect id="Rectangle-271" stroke="#C8CAD1" fill="#E9EBF0" x="31" y="181" width="16" height="16" rx="3"></rect>
                <text id="Text备份-17" font-family="PingFangSC-Regular, PingFang SC" font-size="14" font-weight="normal" line-spacing="22" fill="#000000" fill-opacity="0.45">
                    <tspan x="55" y="193">选中失效项</tspan>
                </text>
                <text id="源列表备份-2" font-family="PingFangSC-Regular, PingFang SC" font-size="14" font-weight="normal" line-spacing="22" fill="#000000" fill-opacity="0.65">
                    <tspan x="141" y="65">源列表</tspan>
                </text>
                <rect id="Dividers备份-2" fill="#ACAFB9" x="20" y="78" width="174" height="1"></rect>
                <rect id="Rectangle-271" stroke="#ACAFB9" fill="#E9EBF0" x="203.5" y="160.5" width="23" height="23" rx="3"></rect>
                <rect id="Rectangle-271" fill="#B30000" x="203" y="132" width="24" height="24" rx="3"></rect>
                <text id="源列表备份" font-family="PingFangSC-Regular, PingFang SC" font-size="14" font-weight="normal" line-spacing="22" fill="#000000" fill-opacity="0.35">
                    <tspan x="265" y="65">2条</tspan>
                </text>
                <text id="源列表备份" font-family="PingFangSC-Regular, PingFang SC" font-size="14" font-weight="normal" line-spacing="22" fill="#000000" fill-opacity="0.35">
                    <tspan x="55" y="65">1/8条</tspan>
                </text>
                <path d="M179.99791,83.5 C180.68974,83.5 181.316193,83.7783496 181.769262,84.2305149 C182.220961,84.6813127 182.5,85.3047447 182.5,85.9961002 L182.5,85.9961002 L182.5,112.0039 C182.5,112.693818 182.221109,113.31845 181.768407,113.770248 C181.31632,114.221433 180.691081,114.5 179.99791,114.5 L179.99791,114.5 L34.0020898,114.5 C33.3102604,114.5 32.6838075,114.22165 32.2307382,113.769485 C31.7790392,113.318687 31.5,112.695255 31.5,112.0039 L31.5,112.0039 L31.5,85.9961002 C31.5,85.3061817 31.7788913,84.6815502 32.2315926,84.229752 C32.68368,83.7785667 33.3089188,83.5 34.0020898,83.5 L34.0020898,83.5 Z" id="bg" stroke="#ACAFB9" fill="#FFFFFF"></path>
                <text id="Text" font-family="PingFangSC-Regular, PingFang SC" font-size="14" font-weight="normal" line-spacing="22" fill="#000000" fill-opacity="0.35">
                    <tspan x="43" y="103">请输入搜索内容</tspan>
                </text>
                <path d="M394.99791,83.5 C395.68974,83.5 396.316193,83.7783496 396.769262,84.2305149 C397.220961,84.6813127 397.5,85.3047447 397.5,85.9961002 L397.5,85.9961002 L397.5,112.0039 C397.5,112.693818 397.221109,113.31845 396.768407,113.770248 C396.31632,114.221433 395.691081,114.5 394.99791,114.5 L394.99791,114.5 L249.00209,114.5 C248.31026,114.5 247.683807,114.22165 247.230738,113.769485 C246.779039,113.318687 246.5,112.695255 246.5,112.0039 L246.5,112.0039 L246.5,85.9961002 C246.5,85.3061817 246.778891,84.6815502 247.231593,84.229752 C247.68368,83.7785667 248.308919,83.5 249.00209,83.5 L249.00209,83.5 Z" id="bg" stroke="#ACAFB9" fill="#FFFFFF"></path>
                <text id="Text" font-family="PingFangSC-Regular, PingFang SC" font-size="14" font-weight="normal" line-spacing="22" fill="#000000" fill-opacity="0.35">
                    <tspan x="258" y="103">请输入搜索内容</tspan>
                </text>
                <g filter="url(#filter-1)" id="搜索，放大镜">
                    <g transform="translate(374.000000, 91.000000)">
                        <rect id="矩形" fill="#000000" fill-rule="nonzero" opacity="0" x="0" y="0" width="16" height="16"></rect>
                        <path d="M7.1234375,1.75 C10.0910938,1.75 12.496875,4.15646875 12.496875,7.125 C12.496875,8.36114063 12.0796875,9.4998125 11.3785156,10.4078437 L14.0210469,12.9605 C14.3189531,13.2482656 14.32725,13.723 14.0395625,14.021 C13.754875,14.3158906 13.286875,14.3270312 12.9885156,14.0481875 L12.979375,14.0395 L10.3054688,11.4566406 C9.41470313,12.1124844 8.3143125,12.5 7.1234375,12.5 C4.15578125,12.5 1.75,10.0935312 1.75,7.125 C1.75,4.15646875 4.15578125,1.75 7.1234375,1.75 Z M7.1234375,3.25 C4.98395312,3.25 3.2495625,4.98489063 3.2495625,7.125 C3.2495625,9.26510937 4.98395312,11 7.1234375,11 C9.26290625,11 10.9972969,9.26510937 10.9972969,7.125 C10.9972969,4.98489063 9.26292187,3.25 7.1234375,3.25 Z" id="形状" fill="#000000" fill-rule="nonzero"></path>
                    </g>
                </g>
                <g filter="url(#filter-2)" id="搜索，放大镜备份">
                    <g transform="translate(159.000000, 91.000000)">
                        <rect id="矩形" fill="#000000" fill-rule="nonzero" opacity="0" x="0" y="0" width="16" height="16"></rect>
                        <path d="M7.1234375,1.75 C10.0910938,1.75 12.496875,4.15646875 12.496875,7.125 C12.496875,8.36114063 12.0796875,9.4998125 11.3785156,10.4078437 L14.0210469,12.9605 C14.3189531,13.2482656 14.32725,13.723 14.0395625,14.021 C13.754875,14.3158906 13.286875,14.3270312 12.9885156,14.0481875 L12.979375,14.0395 L10.3054688,11.4566406 C9.41470313,12.1124844 8.3143125,12.5 7.1234375,12.5 C4.15578125,12.5 1.75,10.0935312 1.75,7.125 C1.75,4.15646875 4.15578125,1.75 7.1234375,1.75 Z M7.1234375,3.25 C4.98395312,3.25 3.2495625,4.98489063 3.2495625,7.125 C3.2495625,9.26510937 4.98395312,11 7.1234375,11 C9.26290625,11 10.9972969,9.26510937 10.9972969,7.125 C10.9972969,4.98489063 9.26292187,3.25 7.1234375,3.25 Z" id="形状" fill="#000000" fill-rule="nonzero"></path>
                    </g>
                </g>
                <g filter="url(#filter-3)" id="下拉">
                    <g transform="translate(215.000000, 172.000000) rotate(90.000000) translate(-215.000000, -172.000000) translate(207.000000, 164.000000)">
                        <rect id="矩形" fill="#000000" fill-rule="nonzero" opacity="0" x="0" y="0" width="16" height="16"></rect>
                        <path d="M14.035375,4.56342188 C14.3282656,4.8563125 14.3282656,5.3311875 14.035375,5.62407813 L8.4448125,11.2146406 C8.20071875,11.4586875 7.80501562,11.4587031 7.56090625,11.2146719 L1.96965625,5.6240625 C1.67678125,5.33117188 1.67678125,4.85629688 1.96965625,4.56340625 C2.25964063,4.2734375 2.72795312,4.27054688 3.02148438,4.55470313 L3.03032813,4.56340625 L8.00251563,9.53559375 L12.9747031,4.56340625 C13.2676094,4.27051563 13.7424844,4.27051563 14.035375,4.56340625 L14.035375,4.56342188 Z" id="路径" fill="#ACAFB9" fill-rule="nonzero"></path>
                    </g>
                </g>
                <g filter="url(#filter-4)" id="下拉备份-2">
                    <g transform="translate(717.000000, 172.000000) rotate(90.000000) translate(-717.000000, -172.000000) translate(709.000000, 164.000000)">
                        <rect id="矩形" fill="#000000" fill-rule="nonzero" opacity="0" x="0" y="0" width="16" height="16"></rect>
                        <path d="M14.035375,4.56342188 C14.3282656,4.8563125 14.3282656,5.3311875 14.035375,5.62407813 L8.4448125,11.2146406 C8.20071875,11.4586875 7.80501562,11.4587031 7.56090625,11.2146719 L1.96965625,5.6240625 C1.67678125,5.33117188 1.67678125,4.85629688 1.96965625,4.56340625 C2.25964063,4.2734375 2.72795312,4.27054688 3.02148438,4.55470313 L3.03032813,4.56340625 L8.00251563,9.53559375 L12.9747031,4.56340625 C13.2676094,4.27051563 13.7424844,4.27051563 14.035375,4.56340625 L14.035375,4.56342188 Z" id="路径" fill="#ACAFB9" fill-rule="nonzero"></path>
                    </g>
                </g>
                <g filter="url(#filter-5)" id="下拉备份">
                    <g transform="translate(215.000000, 144.000000) rotate(-90.000000) translate(-215.000000, -144.000000) translate(207.000000, 136.000000)">
                        <rect id="矩形" fill="#000000" fill-rule="nonzero" opacity="0" x="0" y="0" width="16" height="16"></rect>
                        <path d="M14.035375,4.56342188 C14.3282656,4.8563125 14.3282656,5.3311875 14.035375,5.62407813 L8.4448125,11.2146406 C8.20071875,11.4586875 7.80501562,11.4587031 7.56090625,11.2146719 L1.96965625,5.6240625 C1.67678125,5.33117188 1.67678125,4.85629688 1.96965625,4.56340625 C2.25964063,4.2734375 2.72795312,4.27054688 3.02148438,4.55470313 L3.03032813,4.56340625 L8.00251563,9.53559375 L12.9747031,4.56340625 C13.2676094,4.27051563 13.7424844,4.27051563 14.035375,4.56340625 L14.035375,4.56342188 Z" id="路径" fill="#ACAFB9" fill-rule="nonzero"></path>
                    </g>
                </g>
                <g filter="url(#filter-6)" id="下拉备份-3">
                    <g transform="translate(717.000000, 144.000000) rotate(-90.000000) translate(-717.000000, -144.000000) translate(709.000000, 136.000000)">
                        <rect id="矩形" fill="#000000" fill-rule="nonzero" opacity="0" x="0" y="0" width="16" height="16"></rect>
                        <path d="M14.035375,4.56342188 C14.3282656,4.8563125 14.3282656,5.3311875 14.035375,5.62407813 L8.4448125,11.2146406 C8.20071875,11.4586875 7.80501562,11.4587031 7.56090625,11.2146719 L1.96965625,5.6240625 C1.67678125,5.33117188 1.67678125,4.85629688 1.96965625,4.56340625 C2.25964063,4.2734375 2.72795312,4.27054688 3.02148438,4.55470313 L3.03032813,4.56340625 L8.00251563,9.53559375 L12.9747031,4.56340625 C13.2676094,4.27051563 13.7424844,4.27051563 14.035375,4.56340625 L14.035375,4.56342188 Z" id="路径" fill="#ACAFB9" fill-rule="nonzero"></path>
                    </g>
                </g>
                <g filter="url(#filter-7)" id="对勾，正确，确认，勾选">
                    <g transform="translate(32.000000, 182.000000)">
                        <rect id="矩形" fill="#000000" fill-rule="nonzero" opacity="0" x="0" y="0" width="14" height="14"></rect>
                        <path d="M11.5211387,3.36058789 C11.7985273,3.58508008 11.8437539,3.99013672 11.6245938,4.27008203 L11.6167461,4.27991211 L6.42414063,10.6246875 C6.23285742,10.8584219 5.88829883,10.892834 5.65456445,10.7015371 C5.6271331,10.6790865 5.60194953,10.6540219 5.57936914,10.6266973 L2.39617383,6.77467383 C2.16529688,6.49528906 2.20463086,6.08164648 2.48401563,5.85075586 C2.76059766,5.62218945 3.16878516,5.65844727 3.40093359,5.93028516 L3.40791992,5.93859766 L5.99238281,9.06609375 L10.5948281,3.45512891 C10.8251309,3.17436328 11.2388691,3.13213086 11.5211387,3.36058789 Z" id="路径" fill="#000000" fill-rule="nonzero"></path>
                    </g>
                </g>
                <g filter="url(#filter-8)" id="对勾，正确，确认，勾选备份">
                    <g transform="translate(32.000000, 154.000000)">
                        <rect id="矩形" fill="#000000" fill-rule="nonzero" opacity="0" x="0" y="0" width="14" height="14"></rect>
                        <path d="M11.5211387,3.36058789 C11.7985273,3.58508008 11.8437539,3.99013672 11.6245938,4.27008203 L11.6167461,4.27991211 L6.42414063,10.6246875 C6.23285742,10.8584219 5.88829883,10.892834 5.65456445,10.7015371 C5.6271331,10.6790865 5.60194953,10.6540219 5.57936914,10.6266973 L2.39617383,6.77467383 C2.16529688,6.49528906 2.20463086,6.08164648 2.48401563,5.85075586 C2.76059766,5.62218945 3.16878516,5.65844727 3.40093359,5.93028516 L3.40791992,5.93859766 L5.99238281,9.06609375 L10.5948281,3.45512891 C10.8251309,3.17436328 11.2388691,3.13213086 11.5211387,3.36058789 Z" id="路径" fill="#000000" fill-rule="nonzero"></path>
                    </g>
                </g>
                <g filter="url(#filter-9)" id="对勾，正确，确认，勾选备份-2">
                    <g transform="translate(32.000000, 126.000000)">
                        <rect id="矩形" fill="#000000" fill-rule="nonzero" opacity="0" x="0" y="0" width="14" height="14"></rect>
                        <path d="M11.5211387,3.36058789 C11.7985273,3.58508008 11.8437539,3.99013672 11.6245938,4.27008203 L11.6167461,4.27991211 L6.42414063,10.6246875 C6.23285742,10.8584219 5.88829883,10.892834 5.65456445,10.7015371 C5.6271331,10.6790865 5.60194953,10.6540219 5.57936914,10.6266973 L2.39617383,6.77467383 C2.16529688,6.49528906 2.20463086,6.08164648 2.48401563,5.85075586 C2.76059766,5.62218945 3.16878516,5.65844727 3.40093359,5.93028516 L3.40791992,5.93859766 L5.99238281,9.06609375 L10.5948281,3.45512891 C10.8251309,3.17436328 11.2388691,3.13213086 11.5211387,3.36058789 Z" id="路径" fill="#000000" fill-rule="nonzero"></path>
                    </g>
                </g>
                <g filter="url(#filter-10)" id="对勾，正确，确认，勾选备份-5">
                    <g transform="translate(503.000000, 117.000000)">
                        <rect id="矩形" fill="#000000" fill-rule="nonzero" opacity="0" x="0" y="0" width="14" height="14"></rect>
                        <path d="M11.5211387,3.36058789 C11.7985273,3.58508008 11.8437539,3.99013672 11.6245938,4.27008203 L11.6167461,4.27991211 L6.42414063,10.6246875 C6.23285742,10.8584219 5.88829883,10.892834 5.65456445,10.7015371 C5.6271331,10.6790865 5.60194953,10.6540219 5.57936914,10.6266973 L2.39617383,6.77467383 C2.16529688,6.49528906 2.20463086,6.08164648 2.48401563,5.85075586 C2.76059766,5.62218945 3.16878516,5.65844727 3.40093359,5.93028516 L3.40791992,5.93859766 L5.99238281,9.06609375 L10.5948281,3.45512891 C10.8251309,3.17436328 11.2388691,3.13213086 11.5211387,3.36058789 Z" id="路径" fill="#000000" fill-rule="nonzero"></path>
                    </g>
                </g>
                <g filter="url(#filter-11)" id="对勾，正确，确认，勾选备份-4">
                    <g transform="translate(503.000000, 173.000000)">
                        <rect id="矩形" fill="#000000" fill-rule="nonzero" opacity="0" x="0" y="0" width="14" height="14"></rect>
                        <path d="M11.5211387,3.36058789 C11.7985273,3.58508008 11.8437539,3.99013672 11.6245938,4.27008203 L11.6167461,4.27991211 L6.42414063,10.6246875 C6.23285742,10.8584219 5.88829883,10.892834 5.65456445,10.7015371 C5.6271331,10.6790865 5.60194953,10.6540219 5.57936914,10.6266973 L2.39617383,6.77467383 C2.16529688,6.49528906 2.20463086,6.08164648 2.48401563,5.85075586 C2.76059766,5.62218945 3.16878516,5.65844727 3.40093359,5.93028516 L3.40791992,5.93859766 L5.99238281,9.06609375 L10.5948281,3.45512891 C10.8251309,3.17436328 11.2388691,3.13213086 11.5211387,3.36058789 Z" id="路径" fill="#000000" fill-rule="nonzero"></path>
                    </g>
                </g>
            </g>
        </g>
    </g>
</svg>