<?xml version="1.0" encoding="UTF-8"?>
<svg width="960px" height="324px" viewBox="0 0 960 324" version="1.1" xmlns="http://www.w3.org/2000/svg" xmlns:xlink="http://www.w3.org/1999/xlink">
    <title>12</title>
    <defs>
        <rect id="path-1" x="516" y="75" width="349" height="175"></rect>
        <filter x="-2.0%" y="-2.9%" width="104.0%" height="108.0%" filterUnits="objectBoundingBox" id="filter-2">
            <feOffset dx="0" dy="2" in="SourceAlpha" result="shadowOffsetOuter1"></feOffset>
            <feGaussianBlur stdDeviation="2" in="shadowOffsetOuter1" result="shadowBlurOuter1"></feGaussianBlur>
            <feColorMatrix values="0 0 0 0 0.576470588   0 0 0 0 0.576470588   0 0 0 0 0.576470588  0 0 0 0.35 0" type="matrix" in="shadowBlurOuter1"></feColorMatrix>
        </filter>
        <filter id="filter-3">
            <feColorMatrix in="SourceGraphic" type="matrix" values="0 0 0 0 1.000000 0 0 0 0 1.000000 0 0 0 0 1.000000 0 0 0 1.000000 0"></feColorMatrix>
        </filter>
        <filter id="filter-4">
            <feColorMatrix in="SourceGraphic" type="matrix" values="0 0 0 0 1.000000 0 0 0 0 1.000000 0 0 0 0 1.000000 0 0 0 1.000000 0"></feColorMatrix>
        </filter>
        <filter id="filter-5">
            <feColorMatrix in="SourceGraphic" type="matrix" values="0 0 0 0 1.000000 0 0 0 0 1.000000 0 0 0 0 1.000000 0 0 0 1.000000 0"></feColorMatrix>
        </filter>
        <filter id="filter-6">
            <feColorMatrix in="SourceGraphic" type="matrix" values="0 0 0 0 1.000000 0 0 0 0 1.000000 0 0 0 0 1.000000 0 0 0 1.000000 0"></feColorMatrix>
        </filter>
        <filter id="filter-7">
            <feColorMatrix in="SourceGraphic" type="matrix" values="0 0 0 0 0.980392 0 0 0 0 0.678431 0 0 0 0 0.078431 0 0 0 1.000000 0"></feColorMatrix>
        </filter>
        <filter id="filter-8">
            <feColorMatrix in="SourceGraphic" type="matrix" values="0 0 0 0 0.980392 0 0 0 0 0.678431 0 0 0 0 0.078431 0 0 0 1.000000 0"></feColorMatrix>
        </filter>
        <filter id="filter-9">
            <feColorMatrix in="SourceGraphic" type="matrix" values="0 0 0 0 0.980392 0 0 0 0 0.678431 0 0 0 0 0.078431 0 0 0 1.000000 0"></feColorMatrix>
        </filter>
    </defs>
    <g id="ðŸ“è®¾è®¡å¸ˆæ¨¡å¼" stroke="none" stroke-width="1" fill="none" fill-rule="evenodd">
        <g id="ç»„ä»¶è®¾è®¡è§„èŒƒå¤‡ä»½-æ•°æ®å½•å…¥å¤‡ä»½" transform="translate(-299.000000, -8091.000000)">
            <g id="12" transform="translate(299.000000, 8091.000000)">
                <rect id="çŸ©å½¢å¤‡ä»½-115" fill="#FFFFFF" x="0" y="0" width="960" height="324"></rect>
                <g id="çŸ©å½¢">
                    <use fill="black" fill-opacity="1" filter="url(#filter-2)" xlink:href="#path-1"></use>
                    <use fill="#F9FAFB" fill-rule="evenodd" xlink:href="#path-1"></use>
                </g>
                <path d="M628,99 L628,99 C628,92.9248678 632.919284,88 639.003726,88 L660.996274,88 C667.073464,88 672,92.923532 672,99 L672,99 C672,105.075132 667.080716,110 660.996274,110 L639.003726,110 C632.926536,110 628,105.079122 628,99 L628,99 Z" id="Rectangle-77-Copy-16" fill="#ACAFB9"></path>
                <path d="M639,108 C643.970563,108 648,103.970563 648,99 C648,94.0294373 643.970563,90 639,90 C634.029437,90 630,94.0294373 630,99 C630,103.970563 634.029437,108 639,108 Z" id="Oval-1-Copy-11" fill="#FFFFFF"></path>
                <path d="M560,99 L560,99 C560,92.9248678 564.919284,88 571.003726,88 L592.996274,88 C599.073464,88 604,92.923532 604,99 L604,99 C604,105.075132 599.080716,110 592.996274,110 L571.003726,110 C564.926536,110 560,105.079122 560,99 L560,99 Z" id="Rectangle-77-Copy-6" fill="#B30000"></path>
                <path d="M593,108 C597.970563,108 602,103.970563 602,99 C602,94.0294373 597.970563,90 593,90 C588.029437,90 584,94.0294373 584,99 C584,103.970563 588.029437,108 593,108 Z" id="Oval-1-Copy-12" fill="#FFFFFF"></path>
                <path d="M694,99 L694,99 C694,92.9248678 698.919284,88 705.003726,88 L726.996274,88 C733.073464,88 738,92.923532 738,99 L738,99 C738,105.075132 733.080716,110 726.996274,110 L705.003726,110 C698.926536,110 694,105.079122 694,99 L694,99 Z" id="Rectangle-77-Copy-8" fill="#F3C3BE"></path>
                <path d="M727,108 C731.970563,108 736,103.970563 736,99 C736,94.0294373 731.970563,90 727,90 C722.029437,90 718,94.0294373 718,99 C718,103.970563 722.029437,108 727,108 Z" id="Oval-1-Copy-14" fill="#FFFFFF"></path>
                <path d="M762,99 L762,99 C762,92.9248678 766.919284,88 773.003726,88 L794.996274,88 C801.073464,88 806,92.923532 806,99 L806,99 C806,105.075132 801.080716,110 794.996274,110 L773.003726,110 C766.926536,110 762,105.079122 762,99 L762,99 Z" id="Rectangle-77-Copy-8" fill="#E9EBF0"></path>
                <path d="M773,108 C777.970563,108 782,103.970563 782,99 C782,94.0294373 777.970563,90 773,90 C768.029437,90 764,94.0294373 764,99 C764,103.970563 768.029437,108 773,108 Z" id="Oval-1-Copy-14" fill="#FFFFFF" opacity="0.75"></path>
                <path d="M629,159 L629,159 C629,152.924868 633.932647,148 640.003783,148 L660.996217,148 C667.073438,148 672,152.923532 672,159 L672,159 C672,165.075132 667.067353,170 660.996217,170 L640.003783,170 C633.926562,170 629,165.079122 629,159 L629,159 Z" id="Rectangle-77-Copy-7" fill="#ACAFB9"></path>
                <path d="M640,168 C644.970563,168 649,163.970563 649,159 C649,154.029437 644.970563,150 640,150 C635.029437,150 631,154.029437 631,159 C631,163.970563 635.029437,168 640,168 Z" id="Oval-1-Copy-13" fill="#FFFFFF"></path>
                <path d="M761,159 L761,159 C761,152.924868 765.922963,148 772.008238,148 L794.991762,148 C801.071444,148 806,152.923532 806,159 L806,159 C806,165.075132 801.077037,170 794.991762,170 L772.008238,170 C765.928556,170 761,165.079122 761,159 L761,159 Z" id="Rectangle-77-Copy-7" fill="#E9EBF0"></path>
                <path d="M772,168 C776.970563,168 781,163.970563 781,159 C781,154.029437 776.970563,150 772,150 C767.029437,150 763,154.029437 763,159 C763,163.970563 767.029437,168 772,168 Z" id="Oval-1-Copy-13" fill="#FFFFFF" opacity="0.75"></path>
                <path d="M563,159 L563,159 C563,152.924868 567.920768,148 574.007566,148 L593.992434,148 C600.071745,148 605,152.923532 605,159 L605,159 C605,165.075132 600.079232,170 593.992434,170 L574.007566,170 C567.928255,170 563,165.079122 563,159 L563,159 Z" id="Rectangle-77-Copy-7" fill="#B30000"></path>
                <path d="M594,168 C598.970563,168 603,163.970563 603,159 C603,154.029437 598.970563,150 594,150 C589.029437,150 585,154.029437 585,159 C585,163.970563 589.029437,168 594,168 Z" id="Oval-1-Copy-13" fill="#FFFFFF"></path>
                <path d="M694,159 L694,159 C694,152.924868 698.932647,148 705.003783,148 L725.996217,148 C732.073438,148 737,152.923532 737,159 L737,159 C737,165.075132 732.067353,170 725.996217,170 L705.003783,170 C698.926562,170 694,165.079122 694,159 L694,159 Z" id="Rectangle-77-Copy-7" fill="#F3C3BE"></path>
                <path d="M726,168 C730.970563,168 735,163.970563 735,159 C735,154.029437 730.970563,150 726,150 C721.029437,150 717,154.029437 717,159 C717,163.970563 721.029437,168 726,168 Z" id="Oval-1-Copy-13" fill="#FFFFFF"></path>
                <path d="M563,219 L563,219 C563,212.924868 567.920768,208 574.007566,208 L593.992434,208 C600.071745,208 605,212.923532 605,219 L605,219 C605,225.075132 600.079232,230 593.992434,230 L574.007566,230 C567.928255,230 563,225.079122 563,219 L563,219 Z" id="Rectangle-77-Copy-7" fill="#B30000"></path>
                <path d="M594,228 C598.970563,228 603,223.970563 603,219 C603,214.029437 598.970563,210 594,210 C589.029437,210 585,214.029437 585,219 C585,223.970563 589.029437,228 594,228 Z" id="Oval-1-Copy-13" fill="#FFFFFF"></path>
                <text id="å¼€" font-family="PingFangSC-Regular, PingFang SC" font-size="12" font-weight="normal" line-spacing="22" fill="#FFFFFF">
                    <tspan x="571" y="221">å¼€</tspan>
                </text>
                <path d="M629,219 L629,219 C629,212.924868 633.932647,208 640.003783,208 L660.996217,208 C667.073438,208 672,212.923532 672,219 L672,219 C672,225.075132 667.067353,230 660.996217,230 L640.003783,230 C633.926562,230 629,225.079122 629,219 L629,219 Z" id="Rectangle-77-Copy-7" fill="#ACAFB9"></path>
                <path d="M640,228 C644.970563,228 649,223.970563 649,219 C649,214.029437 644.970563,210 640,210 C635.029437,210 631,214.029437 631,219 C631,223.970563 635.029437,228 640,228 Z" id="Oval-1-Copy-13" fill="#FFFFFF"></path>
                <text id="å…³" font-family="PingFangSC-Regular, PingFang SC" font-size="12" font-weight="normal" line-spacing="22" fill="#FFFFFF">
                    <tspan x="651" y="221">å…³</tspan>
                </text>
                <path d="M694,219 L694,219 C694,212.924868 698.932647,208 705.003783,208 L725.996217,208 C732.073438,208 737,212.923532 737,219 L737,219 C737,225.075132 732.067353,230 725.996217,230 L705.003783,230 C698.926562,230 694,225.079122 694,219 L694,219 Z" id="Rectangle-77-Copy-7" fill="#F3C3BE"></path>
                <path d="M726,228 C730.970563,228 735,223.970563 735,219 C735,214.029437 730.970563,210 726,210 C721.029437,210 717,214.029437 717,219 C717,223.970563 721.029437,228 726,228 Z" id="Oval-1-Copy-13" fill="#FFFFFF"></path>
                <text id="å¼€" font-family="PingFangSC-Regular, PingFang SC" font-size="12" font-weight="normal" line-spacing="22" fill="#FFFFFF">
                    <tspan x="703" y="221">å¼€</tspan>
                </text>
                <path d="M761,219 L761,219 C761,212.924868 765.922963,208 772.008238,208 L794.991762,208 C801.071444,208 806,212.923532 806,219 L806,219 C806,225.075132 801.077037,230 794.991762,230 L772.008238,230 C765.928556,230 761,225.079122 761,219 L761,219 Z" id="Rectangle-77-Copy-7" fill="#E9EBF0"></path>
                <path d="M772,228 C776.970563,228 781,223.970563 781,219 C781,214.029437 776.970563,210 772,210 C767.029437,210 763,214.029437 763,219 C763,223.970563 767.029437,228 772,228 Z" id="Oval-1-Copy-13" fill="#FFFFFF" opacity="0.75"></path>
                <text id="å…³" font-family="PingFangSC-Regular, PingFang SC" font-size="12" font-weight="normal" line-spacing="22" fill="#FFFFFF">
                    <tspan x="783" y="221">å…³</tspan>
                </text>
                <g filter="url(#filter-3)" id="å¯¹å‹¾ï¼Œæ­£ç¡®ï¼Œç¡®è®¤ï¼Œå‹¾é€‰">
                    <g transform="translate(568.000000, 152.000000)">
                        <rect id="çŸ©å½¢" fill="#000000" fill-rule="nonzero" opacity="0" x="0" y="0" width="14" height="14"></rect>
                        <path d="M11.5211387,3.36058789 C11.7985273,3.58508008 11.8437539,3.99013672 11.6245937,4.27008203 L11.6167461,4.27991211 L6.42414062,10.6246875 C6.23285742,10.8584219 5.88829883,10.892834 5.65456445,10.7015371 C5.6271331,10.6790865 5.60194953,10.6540219 5.57936914,10.6266973 L2.39617383,6.77467383 C2.16529687,6.49528906 2.20463086,6.08164648 2.48401562,5.85075586 C2.76059766,5.62218945 3.16878516,5.65844727 3.40093359,5.93028516 L3.40791992,5.93859766 L5.99238281,9.06609375 L10.5948281,3.45512891 C10.8251309,3.17436328 11.2388691,3.13213086 11.5211387,3.36058789 Z" id="è·¯å¾„" fill="#000000" fill-rule="nonzero"></path>
                    </g>
                </g>
                <g filter="url(#filter-4)" id="å¯¹å‹¾ï¼Œæ­£ç¡®ï¼Œç¡®è®¤ï¼Œå‹¾é€‰å¤‡ä»½">
                    <g transform="translate(700.000000, 152.000000)">
                        <rect id="çŸ©å½¢" fill="#000000" fill-rule="nonzero" opacity="0" x="0" y="0" width="14" height="14"></rect>
                        <path d="M11.5211387,3.36058789 C11.7985273,3.58508008 11.8437539,3.99013672 11.6245937,4.27008203 L11.6167461,4.27991211 L6.42414062,10.6246875 C6.23285742,10.8584219 5.88829883,10.892834 5.65456445,10.7015371 C5.6271331,10.6790865 5.60194953,10.6540219 5.57936914,10.6266973 L2.39617383,6.77467383 C2.16529687,6.49528906 2.20463086,6.08164648 2.48401562,5.85075586 C2.76059766,5.62218945 3.16878516,5.65844727 3.40093359,5.93028516 L3.40791992,5.93859766 L5.99238281,9.06609375 L10.5948281,3.45512891 C10.8251309,3.17436328 11.2388691,3.13213086 11.5211387,3.36058789 Z" id="è·¯å¾„" fill="#000000" fill-rule="nonzero"></path>
                    </g>
                </g>
                <g filter="url(#filter-5)" id="å‰å·ï¼Œåˆ é™¤ï¼Œå…³é—­">
                    <g transform="translate(652.000000, 152.000000)">
                        <rect id="çŸ©å½¢" fill="#000000" fill-rule="nonzero" opacity="0" x="0" y="0" width="14" height="14"></rect>
                        <path d="M10.3901602,2.78523438 C10.6464395,2.52895508 11.0619551,2.52895508 11.3182344,2.78523438 C11.571957,3.03895703 11.5744863,3.44873047 11.3258496,3.70558398 L11.3182344,3.71330859 L7.92393164,7.107625 L11.326834,10.5105137 C11.5831133,10.766793 11.5831133,11.1823086 11.326834,11.4385879 C11.0705547,11.6948672 10.6550391,11.6948672 10.3987598,11.4385879 L6.99585742,8.03568555 L3.6035918,11.4279512 C3.34986914,11.6816738 2.9400957,11.6842168 2.68324219,11.4355664 L2.67550391,11.4279648 C2.42179492,11.1742422 2.41925195,10.7644688 2.66790234,10.5076152 L2.67550391,10.499877 L6.06776953,7.10761133 L2.68411719,3.72394531 C2.42783789,3.46765234 2.42783789,3.05215039 2.68411719,2.79585742 C2.94039648,2.53957813 3.35591211,2.53957813 3.61219141,2.79585742 L6.99584375,6.17952344 L10.3901602,2.78523438 Z" id="è·¯å¾„" fill="#000000" fill-rule="nonzero"></path>
                    </g>
                </g>
                <g filter="url(#filter-6)" id="å‰å·ï¼Œåˆ é™¤ï¼Œå…³é—­å¤‡ä»½">
                    <g transform="translate(784.000000, 152.000000)">
                        <rect id="çŸ©å½¢" fill="#000000" fill-rule="nonzero" opacity="0" x="0" y="0" width="14" height="14"></rect>
                        <path d="M10.3901602,2.78523438 C10.6464395,2.52895508 11.0619551,2.52895508 11.3182344,2.78523438 C11.571957,3.03895703 11.5744863,3.44873047 11.3258496,3.70558398 L11.3182344,3.71330859 L7.92393164,7.107625 L11.326834,10.5105137 C11.5831133,10.766793 11.5831133,11.1823086 11.326834,11.4385879 C11.0705547,11.6948672 10.6550391,11.6948672 10.3987598,11.4385879 L6.99585742,8.03568555 L3.6035918,11.4279512 C3.34986914,11.6816738 2.9400957,11.6842168 2.68324219,11.4355664 L2.67550391,11.4279648 C2.42179492,11.1742422 2.41925195,10.7644688 2.66790234,10.5076152 L2.67550391,10.499877 L6.06776953,7.10761133 L2.68411719,3.72394531 C2.42783789,3.46765234 2.42783789,3.05215039 2.68411719,2.79585742 C2.94039648,2.53957813 3.35591211,2.53957813 3.61219141,2.79585742 L6.99584375,6.17952344 L10.3901602,2.78523438 Z" id="è·¯å¾„" fill="#000000" fill-rule="nonzero"></path>
                    </g>
                </g>
                <text id="Text" font-family="PingFangSC-Regular, PingFang SC" font-size="14" font-weight="normal" line-spacing="22" fill="#000000" fill-opacity="0.65">
                    <tspan x="247.79798" y="169">3.5 æ˜Ÿ</tspan>
                </text>
                <g filter="url(#filter-7)" id="Icon/Star-Selected">
                    <g transform="translate(89.000000, 153.000000)">
                        <g id="save"></g>
                        <rect id="çŸ©å½¢" fill="#000000" fill-rule="nonzero" opacity="0" x="0" y="0" width="24" height="24"></rect>
                        <path d="M21.2835937,8.27578125 L15.3328125,7.4109375 L12.6726562,2.01796875 C12.6,1.8703125 12.4804687,1.75078125 12.3328125,1.678125 C11.9625,1.4953125 11.5125,1.64765625 11.3273437,2.01796875 L8.6671875,7.4109375 L2.71640625,8.27578125 C2.55234375,8.29921875 2.40234375,8.3765625 2.2875,8.49375 C1.99921875,8.79140625 2.00390625,9.26484375 2.3015625,9.55546875 L6.60703125,13.753125 L5.58984375,19.6804687 C5.56171875,19.8421875 5.5875,20.0109375 5.66484375,20.15625 C5.85703125,20.521875 6.31171875,20.6648437 6.67734375,20.4703125 L12,17.671875 L17.3226562,20.4703125 C17.4679687,20.5476562 17.6367187,20.5734375 17.7984375,20.5453125 C18.20625,20.475 18.4804687,20.0882813 18.4101562,19.6804687 L17.3929687,13.753125 L21.6984375,9.55546875 C21.815625,9.440625 21.8929687,9.290625 21.9164062,9.1265625 C21.9796875,8.71640625 21.69375,8.33671875 21.2835937,8.27578125 Z" id="è·¯å¾„" fill="#FAAD14"></path>
                    </g>
                </g>
                <g filter="url(#filter-8)" id="Icon/Star-Selectedå¤‡ä»½">
                    <g transform="translate(117.000000, 153.000000)">
                        <g id="save"></g>
                        <rect id="çŸ©å½¢" fill="#000000" fill-rule="nonzero" opacity="0" x="0" y="0" width="24" height="24"></rect>
                        <path d="M21.2835937,8.27578125 L15.3328125,7.4109375 L12.6726562,2.01796875 C12.6,1.8703125 12.4804687,1.75078125 12.3328125,1.678125 C11.9625,1.4953125 11.5125,1.64765625 11.3273437,2.01796875 L8.6671875,7.4109375 L2.71640625,8.27578125 C2.55234375,8.29921875 2.40234375,8.3765625 2.2875,8.49375 C1.99921875,8.79140625 2.00390625,9.26484375 2.3015625,9.55546875 L6.60703125,13.753125 L5.58984375,19.6804687 C5.56171875,19.8421875 5.5875,20.0109375 5.66484375,20.15625 C5.85703125,20.521875 6.31171875,20.6648437 6.67734375,20.4703125 L12,17.671875 L17.3226562,20.4703125 C17.4679687,20.5476562 17.6367187,20.5734375 17.7984375,20.5453125 C18.20625,20.475 18.4804687,20.0882813 18.4101562,19.6804687 L17.3929687,13.753125 L21.6984375,9.55546875 C21.815625,9.440625 21.8929687,9.290625 21.9164062,9.1265625 C21.9796875,8.71640625 21.69375,8.33671875 21.2835937,8.27578125 Z" id="è·¯å¾„" fill="#FAAD14"></path>
                    </g>
                </g>
                <g filter="url(#filter-9)" id="Icon/Star-Selectedå¤‡ä»½-2">
                    <g transform="translate(145.000000, 153.000000)">
                        <g id="save"></g>
                        <rect id="çŸ©å½¢" fill="#000000" fill-rule="nonzero" opacity="0" x="0" y="0" width="24" height="24"></rect>
                        <path d="M21.2835937,8.27578125 L15.3328125,7.4109375 L12.6726562,2.01796875 C12.6,1.8703125 12.4804687,1.75078125 12.3328125,1.678125 C11.9625,1.4953125 11.5125,1.64765625 11.3273437,2.01796875 L8.6671875,7.4109375 L2.71640625,8.27578125 C2.55234375,8.29921875 2.40234375,8.3765625 2.2875,8.49375 C1.99921875,8.79140625 2.00390625,9.26484375 2.3015625,9.55546875 L6.60703125,13.753125 L5.58984375,19.6804687 C5.56171875,19.8421875 5.5875,20.0109375 5.66484375,20.15625 C5.85703125,20.521875 6.31171875,20.6648437 6.67734375,20.4703125 L12,17.671875 L17.3226562,20.4703125 C17.4679687,20.5476562 17.6367187,20.5734375 17.7984375,20.5453125 C18.20625,20.475 18.4804687,20.0882813 18.4101562,19.6804687 L17.3929687,13.753125 L21.6984375,9.55546875 C21.815625,9.440625 21.8929687,9.290625 21.9164062,9.1265625 C21.9796875,8.71640625 21.69375,8.33671875 21.2835937,8.27578125 Z" id="è·¯å¾„" fill="#FAAD14"></path>
                    </g>
                </g>
                <g id="Icon/Star-Half-Selected" transform="translate(173.000000, 153.000000)">
                    <g id="save"></g>
                    <rect id="çŸ©å½¢" fill="#000000" fill-rule="nonzero" opacity="0" x="0" y="0" width="24.0004966" height="24"></rect>
                    <path d="M21.2840743,8.27578125 L15.3331442,7.4109375 L12.6729214,2.01796875 C12.6002633,1.8703125 12.4807291,1.75078125 12.3330691,1.678125 C11.9627473,1.4953125 11.5127361,1.64765625 11.3275752,2.01796875 L8.66735241,7.4109375 L2.7164223,8.27578125 C2.5523557,8.29921875 2.40235194,8.3765625 2.28750532,8.49375 C1.99921686,8.79140625 2.00390448,9.26484375 2.30156817,9.55546875 L6.60714463,13.753125 L5.58993168,19.6804687 C5.56180598,19.8421875 5.58758787,20.0109375 5.66493356,20.15625 C5.85712587,20.521875 6.31182474,20.6648437 6.67745889,20.4703125 L12.0002483,17.671875 L17.3230377,20.4703125 C17.4683538,20.5476562 17.637108,20.5734375 17.7988308,20.5453125 C18.2066535,20.475 18.4808791,20.0882813 18.4105649,19.6804687 L17.3933519,13.753125 L21.6989284,9.55546875 C21.8161188,9.440625 21.8934645,9.290625 21.9169026,9.1265625 C21.9801854,8.71640625 21.6942408,8.33671875 21.2840743,8.27578125 Z" id="è·¯å¾„" fill="#E9EBF0"></path>
                    <path d="M12.0004966,1.60077466 L12,17.671875 L6.67734375,20.4703125 C6.31171875,20.6648437 5.85703125,20.521875 5.66484375,20.15625 C5.5875,20.0109375 5.56171875,19.8421875 5.58984375,19.6804687 L5.58984375,19.6804687 L6.60703125,13.753125 L2.3015625,9.55546875 C2.00390625,9.26484375 1.99921875,8.79140625 2.2875,8.49375 C2.40234375,8.3765625 2.55234375,8.29921875 2.71640625,8.27578125 L2.71640625,8.27578125 L8.6671875,7.4109375 L11.3273438,2.01796875 C11.4590528,1.75455058 11.7247742,1.60142566 12.0004966,1.60077466 Z" id="å½¢çŠ¶ç»“åˆ" fill="#FAAD14"></path>
                </g>
                <g id="Icon/Star-Unselected" transform="translate(201.000000, 153.000000)">
                    <g id="save"></g>
                    <rect id="çŸ©å½¢" fill="#000000" fill-rule="nonzero" opacity="0" x="0" y="0" width="24" height="24"></rect>
                    <path d="M21.2835937,8.27578125 L15.3328125,7.4109375 L12.6726562,2.01796875 C12.6,1.8703125 12.4804687,1.75078125 12.3328125,1.678125 C11.9625,1.4953125 11.5125,1.64765625 11.3273437,2.01796875 L8.6671875,7.4109375 L2.71640625,8.27578125 C2.55234375,8.29921875 2.40234375,8.3765625 2.2875,8.49375 C1.99921875,8.79140625 2.00390625,9.26484375 2.3015625,9.55546875 L6.60703125,13.753125 L5.58984375,19.6804687 C5.56171875,19.8421875 5.5875,20.0109375 5.66484375,20.15625 C5.85703125,20.521875 6.31171875,20.6648437 6.67734375,20.4703125 L12,17.671875 L17.3226562,20.4703125 C17.4679687,20.5476562 17.6367187,20.5734375 17.7984375,20.5453125 C18.20625,20.475 18.4804687,20.0882813 18.4101562,19.6804687 L17.3929687,13.753125 L21.6984375,9.55546875 C21.815625,9.440625 21.8929687,9.290625 21.9164062,9.1265625 C21.9796875,8.71640625 21.69375,8.33671875 21.2835937,8.27578125 Z" id="è·¯å¾„" fill="#E9EBF0"></path>
                </g>
                <text id="Transfer-ç©¿æ¢­æ¡†" font-family="PingFangSC-Medium, PingFang SC" font-size="16" font-weight="400" line-spacing="24" fill="#000000" fill-opacity="0.85">
                    <tspan x="89" y="106">Rate è¯„åˆ†</tspan>
                </text>
            </g>
        </g>
    </g>
</svg>