<?xml version="1.0" encoding="UTF-8"?>
<svg width="960px" height="324px" viewBox="0 0 960 324" version="1.1" xmlns="http://www.w3.org/2000/svg" xmlns:xlink="http://www.w3.org/1999/xlink">
    <title>13</title>
    <defs>
        <path d="M354,31.9991536 C354,29.790482 355.797506,28 358.004822,28 L733.995178,28 C736.20698,28 738,29.7931812 738,31.9991536 L738,216.000846 C738,218.209518 736.202494,220 733.995178,220 L358.004822,220 C355.79302,220 354,218.206819 354,216.000846 L354,31.9991536 Z" id="path-1"></path>
        <mask id="mask-2" maskContentUnits="userSpaceOnUse" maskUnits="objectBoundingBox" x="0" y="0" width="384" height="192" fill="white">
            <use xlink:href="#path-1"></use>
        </mask>
        <filter id="filter-3">
            <feColorMatrix in="SourceGraphic" type="matrix" values="0 0 0 0 0.674510 0 0 0 0 0.686275 0 0 0 0 0.725490 0 0 0 1.000000 0"></feColorMatrix>
        </filter>
        <filter id="filter-4">
            <feColorMatrix in="SourceGraphic" type="matrix" values="0 0 0 0 0.674510 0 0 0 0 0.686275 0 0 0 0 0.725490 0 0 0 1.000000 0"></feColorMatrix>
        </filter>
        <filter id="filter-5">
            <feColorMatrix in="SourceGraphic" type="matrix" values="0 0 0 0 0.674510 0 0 0 0 0.686275 0 0 0 0 0.725490 0 0 0 1.000000 0"></feColorMatrix>
        </filter>
        <filter id="filter-6">
            <feColorMatrix in="SourceGraphic" type="matrix" values="0 0 0 0 0.674510 0 0 0 0 0.686275 0 0 0 0 0.725490 0 0 0 1.000000 0"></feColorMatrix>
        </filter>
        <filter id="filter-7">
            <feColorMatrix in="SourceGraphic" type="matrix" values="0 0 0 0 0.674510 0 0 0 0 0.686275 0 0 0 0 0.725490 0 0 0 1.000000 0"></feColorMatrix>
        </filter>
        <filter id="filter-8">
            <feColorMatrix in="SourceGraphic" type="matrix" values="0 0 0 0 0.674510 0 0 0 0 0.686275 0 0 0 0 0.725490 0 0 0 1.000000 0"></feColorMatrix>
        </filter>
        <filter id="filter-9">
            <feColorMatrix in="SourceGraphic" type="matrix" values="0 0 0 0 0.674510 0 0 0 0 0.686275 0 0 0 0 0.725490 0 0 0 1.000000 0"></feColorMatrix>
        </filter>
        <filter id="filter-10">
            <feColorMatrix in="SourceGraphic" type="matrix" values="0 0 0 0 0.674510 0 0 0 0 0.686275 0 0 0 0 0.725490 0 0 0 1.000000 0"></feColorMatrix>
        </filter>
        <filter id="filter-11">
            <feColorMatrix in="SourceGraphic" type="matrix" values="0 0 0 0 0.674510 0 0 0 0 0.686275 0 0 0 0 0.725490 0 0 0 1.000000 0"></feColorMatrix>
        </filter>
        <filter id="filter-12">
            <feColorMatrix in="SourceGraphic" type="matrix" values="0 0 0 0 0.674510 0 0 0 0 0.686275 0 0 0 0 0.725490 0 0 0 1.000000 0"></feColorMatrix>
        </filter>
        <filter id="filter-13">
            <feColorMatrix in="SourceGraphic" type="matrix" values="0 0 0 0 0.674510 0 0 0 0 0.686275 0 0 0 0 0.725490 0 0 0 1.000000 0"></feColorMatrix>
        </filter>
    </defs>
    <g id="📁设计师模式" stroke="none" stroke-width="1" fill="none" fill-rule="evenodd">
        <g id="组件设计规范备份-数据录入备份" transform="translate(-299.000000, -8661.000000)">
            <g id="13" transform="translate(299.000000, 8661.000000)">
                <rect id="矩形备份-116" stroke="#E8E7E7" x="0.5" y="0.5" width="959" height="323"></rect>
                <path d="M151.004271,28.5 C151.69422,28.5 152.318924,28.7782622 152.770746,29.2301401 C153.221584,29.6810336 153.5,30.3046229 153.5,30.9961002 L153.5,30.9961002 L153.5,57.0038998 C153.5,57.6937758 153.221495,58.3184007 152.769697,58.770255 C152.318682,59.2213252 151.695097,59.5 151.004271,59.5 L151.004271,59.5 L44.9957294,59.5 C44.3056467,59.5 43.680884,59.2209931 43.2291692,58.7672053 C42.7781375,58.3141037 42.5,57.6870643 42.5,56.9905224 L42.5,56.9905224 L42.5,31.0094776 C42.5,30.3156482 42.7786886,29.6873461 43.2310897,29.2328688 C43.6819032,28.7799865 44.3051585,28.5 44.9957294,28.5 L44.9957294,28.5 Z" id="矩形" stroke="#979BA7" fill="#FFFFFF"></path>
                <text id="Text" font-family="PingFangSC-Regular, PingFang SC" font-size="14" font-weight="normal" line-spacing="22" fill="#000000" fill-opacity="0.65">
                    <tspan x="82" y="48">上传文件</tspan>
                </text>
                <text id="↳-Description" font-family="PingFangSC-Regular, PingFang SC" font-size="14" font-weight="normal" line-spacing="22" fill="#000000" fill-opacity="0.65">
                    <tspan x="42" y="83">支持扩展名：.rar .zip .doc .docx .pdf .jpg...</tspan>
                </text>
                <path d="M151.004271,140.5 C151.69422,140.5 152.318924,140.778262 152.770746,141.23014 C153.221584,141.681034 153.5,142.304623 153.5,142.9961 L153.5,142.9961 L153.5,169.0039 C153.5,169.693776 153.221495,170.318401 152.769697,170.770255 C152.318682,171.221325 151.695097,171.5 151.004271,171.5 L151.004271,171.5 L44.9957294,171.5 C44.3056467,171.5 43.680884,171.220993 43.2291692,170.767205 C42.7781375,170.314104 42.5,169.687064 42.5,168.990522 L42.5,168.990522 L42.5,143.009478 C42.5,142.315648 42.7786886,141.687346 43.2310897,141.232869 C43.6819032,140.779986 44.3051585,140.5 44.9957294,140.5 L44.9957294,140.5 Z" id="矩形" stroke="#979BA7" fill="#FFFFFF"></path>
                <text id="Text" font-family="PingFangSC-Regular, PingFang SC" font-size="14" font-weight="normal" line-spacing="22" fill="#000000" fill-opacity="0.65">
                    <tspan x="82" y="160">上传文件</tspan>
                </text>
                <text id="Text" font-family="PingFangSC-Regular, PingFang SC" font-size="14" font-weight="normal" line-spacing="22" fill="#000000" fill-opacity="0.65">
                    <tspan x="66" y="195">组件123.jpg</tspan>
                </text>
                <rect id="Rectangle-66-Copy-3" fill="#FF4D4F" x="66" y="241" width="255" height="2" rx="1"></rect>
                <text id="Text" font-family="PingFangSC-Regular, PingFang SC" font-size="14" font-weight="normal" line-spacing="22" fill="#000000" fill-opacity="0.65">
                    <tspan x="66" y="230">组件.png</tspan>
                </text>
                <path d="M66,283 C66,282.447715 66.4485541,282 67.0008975,282 L319.999103,282 C320.551883,282 321,282.443865 321,283 L321,283 C321,283.552285 320.551446,284 319.999103,284 L67.0008975,284 C66.4481171,284 66,283.556135 66,283 L66,283 Z" id="Rectangle-66-Copy-14" fill-opacity="0.06" fill="#000000"></path>
                <path d="M66,283 C66,282.447715 66.4544333,282 66.9902524,282 L245.009748,282 C245.556649,282 246,282.443865 246,283 L246,283 C246,283.552285 245.545567,284 245.009748,284 L66.9902524,284 C66.4433511,284 66,283.556135 66,283 L66,283 Z" id="Rectangle-66-Copy-15" fill="#207EEA"></path>
                <text id="Text" font-family="PingFangSC-Regular, PingFang SC" font-size="14" font-weight="normal" line-spacing="22" fill="#000000" fill-opacity="0.65">
                    <tspan x="66" y="271">文档.docx</tspan>
                </text>
                <use id="Rectangle-72" stroke="#979BA7" mask="url(#mask-2)" stroke-width="2" fill="#FFFFFF" stroke-dasharray="7,3" xlink:href="#path-1"></use>
                <text id="↳-Description" font-family="PingFangSC-Regular, PingFang SC" font-size="14" font-weight="normal" line-spacing="22" fill="#000000" fill-opacity="0.35">
                    <tspan x="409.335" y="175">支持扩展名：.rar .zip .doc .docx .pdf .jpg...</tspan>
                </text>
                <text id="Title" font-family="PingFangSC-Regular, PingFang SC" font-size="16" font-weight="normal" line-spacing="24" fill="#000000" fill-opacity="0.85">
                    <tspan x="442" y="149">点击或将文件拖拽到这里上传</tspan>
                </text>
                <path d="M816,28 L916,28 C917.104569,28 918,28.8954305 918,30 L918,130 C918,131.104569 917.104569,132 916,132 L816,132 C814.895431,132 814,131.104569 814,130 L814,30 C814,28.8954305 814.895431,28 816,28 Z" id="Rectangle-8" stroke="#C8CAD1" fill="#E9EBF0" stroke-dasharray="7,3"></path>
                <text id="上传照片" font-family="PingFangSC-Regular, PingFang SC" font-size="14" font-weight="normal" line-spacing="22" fill="#000000" fill-opacity="0.65">
                    <tspan x="838" y="101">上传照片</tspan>
                </text>
                <path d="M816,162 L916,162 C917.104569,162 918,162.895431 918,164 L918,264 C918,265.104569 917.104569,266 916,266 L816,266 C814.895431,266 814,265.104569 814,264 L814,164 C814,162.895431 814.895431,162 816,162 Z" id="Rectangle-8" stroke="#C8CAD1" fill="#E9EBF0" stroke-dasharray="7,3"></path>
                <text id="上传照片" font-family="PingFangSC-Regular, PingFang SC" font-size="14" font-weight="normal" line-spacing="22" fill="#000000" fill-opacity="0.65">
                    <tspan x="838" y="235">上传照片</tspan>
                </text>
                <text id="只支持.jpg-格式" font-family="PingFangSC-Regular, PingFang SC" font-size="14" font-weight="normal" line-spacing="22" fill="#000000" fill-opacity="0.35">
                    <tspan x="814" y="289">只支持.jpg 格式</tspan>
                </text>
                <g filter="url(#filter-3)" id="上传文件">
                    <g transform="translate(58.000000, 36.000000)">
                        <rect id="矩形" fill="#000000" fill-rule="nonzero" opacity="0" x="0" y="0" width="16" height="16"></rect>
                        <path d="M6.456,2.5 C6.58453846,2.5 6.70813903,2.54950535 6.80114063,2.63823438 L7.83451562,3.62409375 C7.95076848,3.73499982 8.10526739,3.79687549 8.2659375,3.796875 L14.375,3.796875 C14.7201719,3.796875 15,4.07670313 15,4.421875 L15,12.875 C15,13.2201719 14.7201719,13.5 14.375,13.5 L1.625,13.5 C1.27982812,13.5 1,13.2201719 1,12.875 L1,3.125 C1,2.77982812 1.27982812,2.5 1.625,2.5 L6.456,2.5 Z M7.68764063,5.4559375 C7.66115326,5.47749043 7.63694355,5.50170014 7.61539062,5.5281875 L5.4246875,8.220375 C5.25040625,8.4345625 5.28275,8.74948438 5.4969375,8.92378125 C5.58610485,8.99634453 5.69755369,9.03596441 5.81251562,9.03596875 L6.71415625,9.03596875 L6.71415625,11.5984688 C6.71415625,11.943625 6.99398437,12.2234688 7.33915625,12.2234688 L8.68290625,12.2234688 C9.02807812,12.2234688 9.30790625,11.943625 9.30790625,11.5984688 L9.30790625,9.03596875 L10.1939219,9.03596875 C10.4700625,9.03596875 10.6939219,8.81209375 10.6939219,8.53596875 C10.6939219,8.42100146 10.654301,8.30954651 10.5817344,8.220375 L8.39104688,5.5281875 C8.21675,5.314 7.90182813,5.28165625 7.68764063,5.4559375 Z" id="形状" fill="#000000" fill-rule="nonzero"></path>
                    </g>
                </g>
                <g filter="url(#filter-4)" id="上传文件备份">
                    <g transform="translate(58.000000, 148.000000)">
                        <rect id="矩形" fill="#000000" fill-rule="nonzero" opacity="0" x="0" y="0" width="16" height="16"></rect>
                        <path d="M6.456,2.5 C6.58453846,2.5 6.70813903,2.54950535 6.80114063,2.63823438 L7.83451562,3.62409375 C7.95076848,3.73499982 8.10526739,3.79687549 8.2659375,3.796875 L14.375,3.796875 C14.7201719,3.796875 15,4.07670313 15,4.421875 L15,12.875 C15,13.2201719 14.7201719,13.5 14.375,13.5 L1.625,13.5 C1.27982812,13.5 1,13.2201719 1,12.875 L1,3.125 C1,2.77982812 1.27982812,2.5 1.625,2.5 L6.456,2.5 Z M7.68764063,5.4559375 C7.66115326,5.47749043 7.63694355,5.50170014 7.61539062,5.5281875 L5.4246875,8.220375 C5.25040625,8.4345625 5.28275,8.74948438 5.4969375,8.92378125 C5.58610485,8.99634453 5.69755369,9.03596441 5.81251562,9.03596875 L6.71415625,9.03596875 L6.71415625,11.5984688 C6.71415625,11.943625 6.99398437,12.2234688 7.33915625,12.2234688 L8.68290625,12.2234688 C9.02807812,12.2234688 9.30790625,11.943625 9.30790625,11.5984688 L9.30790625,9.03596875 L10.1939219,9.03596875 C10.4700625,9.03596875 10.6939219,8.81209375 10.6939219,8.53596875 C10.6939219,8.42100146 10.654301,8.30954651 10.5817344,8.220375 L8.39104688,5.5281875 C8.21675,5.314 7.90182813,5.28165625 7.68764063,5.4559375 Z" id="形状" fill="#000000" fill-rule="nonzero"></path>
                    </g>
                </g>
                <g filter="url(#filter-5)" id="加号，添加，增加">
                    <g transform="translate(854.000000, 54.000000)">
                        <rect id="矩形" fill="#000000" fill-rule="nonzero" opacity="0" x="0" y="0" width="24" height="24"></rect>
                        <path d="M3.5625,10.875 L20.4375,10.875 C20.9552578,10.875 21.375,11.2947422 21.375,11.8125 L21.375,12.1875 C21.375,12.7052578 20.9552578,13.125 20.4375,13.125 L3.5625,13.125 C3.04474219,13.125 2.625,12.7052578 2.625,12.1875 L2.625,11.8125 C2.625,11.2947422 3.04474219,10.875 3.5625,10.875 Z M13.125,3.5625 L13.125,20.4375 C13.125,20.9552578 12.7052578,21.375 12.1875,21.375 L11.8125,21.375 C11.2947422,21.375 10.875,20.9552578 10.875,20.4375 L10.875,3.5625 C10.875,3.04474219 11.2947422,2.625 11.8125,2.625 L12.1875,2.625 C12.7052578,2.625 13.125,3.04474219 13.125,3.5625 Z" id="形状" fill="#000000" fill-rule="nonzero"></path>
                    </g>
                </g>
                <g filter="url(#filter-6)" id="加号，添加，增加备份">
                    <g transform="translate(854.000000, 188.000000)">
                        <rect id="矩形" fill="#000000" fill-rule="nonzero" opacity="0" x="0" y="0" width="24" height="24"></rect>
                        <path d="M3.5625,10.875 L20.4375,10.875 C20.9552578,10.875 21.375,11.2947422 21.375,11.8125 L21.375,12.1875 C21.375,12.7052578 20.9552578,13.125 20.4375,13.125 L3.5625,13.125 C3.04474219,13.125 2.625,12.7052578 2.625,12.1875 L2.625,11.8125 C2.625,11.2947422 3.04474219,10.875 3.5625,10.875 Z M13.125,3.5625 L13.125,20.4375 C13.125,20.9552578 12.7052578,21.375 12.1875,21.375 L11.8125,21.375 C11.2947422,21.375 10.875,20.9552578 10.875,20.4375 L10.875,3.5625 C10.875,3.04474219 11.2947422,2.625 11.8125,2.625 L12.1875,2.625 C12.7052578,2.625 13.125,3.04474219 13.125,3.5625 Z" id="形状" fill="#000000" fill-rule="nonzero"></path>
                    </g>
                </g>
                <g filter="url(#filter-7)" id="上传文件">
                    <g transform="translate(522.000000, 66.000000)">
                        <rect id="矩形" fill="#000000" fill-rule="nonzero" opacity="0" x="0" y="0" width="48" height="48"></rect>
                        <path d="M19.368,7.5 C19.7536154,7.5 20.1244171,7.64851605 20.4034219,7.91470313 L23.5035469,10.8722813 C23.8523054,11.2049995 24.3158022,11.3906265 24.7978125,11.390625 L43.125,11.390625 C44.1605156,11.390625 45,12.2301094 45,13.265625 L45,38.625 C45,39.6605156 44.1605156,40.5 43.125,40.5 L4.875,40.5 C3.83948437,40.5 3,39.6605156 3,38.625 L3,9.375 C3,8.33948437 3.83948437,7.5 4.875,7.5 L19.368,7.5 Z M23.0629219,16.3678125 C22.9834598,16.4324713 22.9108307,16.5051004 22.8461719,16.5845625 L16.2740625,24.661125 C15.7512187,25.3036875 15.84825,26.2484531 16.4908125,26.7713438 C16.7583145,26.9890336 17.0926611,27.1078932 17.4375469,27.1079063 L20.1424687,27.1079063 L20.1424687,34.7954063 C20.1424687,35.830875 20.9819531,36.6704063 22.0174687,36.6704063 L26.0487187,36.6704063 C27.0842344,36.6704063 27.9237187,35.830875 27.9237187,34.7954063 L27.9237187,27.1079063 L30.5817656,27.1079063 C31.4101875,27.1079063 32.0817656,26.4362813 32.0817656,25.6079063 C32.0817656,25.2630044 31.9629031,24.9286395 31.7452031,24.661125 L25.1731406,16.5845625 C24.65025,15.942 23.7054844,15.8449688 23.0629219,16.3678125 Z" id="形状" fill="#000000" fill-rule="nonzero"></path>
                    </g>
                </g>
                <g filter="url(#filter-8)" id="叉号，删除，关闭">
                    <g transform="translate(305.000000, 218.000000)">
                        <rect id="矩形" fill="#000000" fill-rule="nonzero" opacity="0" x="0" y="0" width="16" height="16"></rect>
                        <path d="M11.8744687,3.183125 C12.1673594,2.89023437 12.6422344,2.89023437 12.935125,3.183125 C13.2250937,3.47309375 13.2279844,3.94140625 12.9438281,4.23495312 L12.935125,4.24378125 L9.05592187,8.123 L12.9449531,12.0120156 C13.2378437,12.3049062 13.2378437,12.7797812 12.9449531,13.0726719 C12.6520625,13.3655625 12.1771875,13.3655625 11.8842969,13.0726719 L7.99526562,9.18364062 L4.11839062,13.0605156 C3.82842187,13.3504844 3.36010937,13.3533906 3.0665625,13.0692187 L3.05771875,13.0605312 C2.76776562,12.7705625 2.76485937,12.30225 3.04903125,12.0087031 L3.05771875,11.9998594 L6.93459375,8.12298437 L3.0675625,4.2559375 C2.77467187,3.96303125 2.77467187,3.48817187 3.0675625,3.19526563 C3.36045312,2.902375 3.83532812,2.902375 4.12821875,3.19526563 L7.99525,7.0623125 L11.8744687,3.183125 Z" id="路径" fill="#000000" fill-rule="nonzero"></path>
                    </g>
                </g>
                <g filter="url(#filter-9)" id="叉号，删除，关闭备份">
                    <g transform="translate(305.000000, 259.000000)">
                        <rect id="矩形" fill="#000000" fill-rule="nonzero" opacity="0" x="0" y="0" width="16" height="16"></rect>
                        <path d="M11.8744687,3.183125 C12.1673594,2.89023437 12.6422344,2.89023437 12.935125,3.183125 C13.2250937,3.47309375 13.2279844,3.94140625 12.9438281,4.23495312 L12.935125,4.24378125 L9.05592187,8.123 L12.9449531,12.0120156 C13.2378437,12.3049062 13.2378437,12.7797812 12.9449531,13.0726719 C12.6520625,13.3655625 12.1771875,13.3655625 11.8842969,13.0726719 L7.99526562,9.18364062 L4.11839062,13.0605156 C3.82842187,13.3504844 3.36010937,13.3533906 3.0665625,13.0692187 L3.05771875,13.0605312 C2.76776562,12.7705625 2.76485937,12.30225 3.04903125,12.0087031 L3.05771875,11.9998594 L6.93459375,8.12298437 L3.0675625,4.2559375 C2.77467187,3.96303125 2.77467187,3.48817187 3.0675625,3.19526563 C3.36045312,2.902375 3.83532812,2.902375 4.12821875,3.19526563 L7.99525,7.0623125 L11.8744687,3.183125 Z" id="路径" fill="#000000" fill-rule="nonzero"></path>
                    </g>
                </g>
                <g filter="url(#filter-10)" id="链接，附件">
                    <g transform="translate(42.000000, 183.000000)">
                        <rect id="矩形" fill="#ACAFB9" fill-rule="nonzero" opacity="0" x="0" y="0" width="16" height="16"></rect>
                        <path d="M7.83992187,7.5263125 C8.18848437,7.17270313 8.18690625,6.610375 7.83992187,6.26339063 C7.49357812,5.91703125 6.93220312,5.91514063 6.57701562,6.26339063 L3.73482812,9.10434375 C2.86371875,9.98303125 2.86592187,11.3927656 3.73482812,12.2616563 C4.60401562,13.130875 6.01373437,13.1330625 6.89210937,12.2616563 L12.2595,6.89421875 C13.1309062,6.0228125 13.1309062,4.60832813 12.2595,3.73692188 C11.3884062,2.8658125 9.973625,2.8655 9.10220312,3.73692188 L8.94498437,3.89540625 C8.68354687,4.15684375 8.25920312,4.15684375 7.99779687,3.89540625 C7.7366875,3.6343125 7.73635937,3.21028125 7.99779687,2.94821875 L8.15501562,2.78971875 C9.55559375,1.39607813 11.8146406,1.39765625 13.2066875,2.78971875 C14.5987344,4.18178125 14.6009531,6.44020313 13.2066875,7.84142188 L7.83898437,13.2085313 C6.44314062,14.5936406 4.18757812,14.5904844 2.79679688,13.1996875 C1.4063125,11.8092188 1.40284375,9.5533125 2.78826563,8.15778125 L5.62982812,5.31620313 C6.50628125,4.44479688 7.91759375,4.44667188 8.78710937,5.31620313 C9.65664062,6.18573438 9.65851562,7.59704688 8.78710937,8.47351563 L6.1034375,11.1572344 C5.842,11.4186406 5.41765625,11.4186406 5.15625,11.1572344 C4.8948125,10.8957969 4.8948125,10.4714531 5.15625,10.2100469 L7.8399375,7.5263125 L7.83992187,7.5263125 Z" id="路径" fill="#000000" fill-rule="nonzero"></path>
                    </g>
                </g>
                <g filter="url(#filter-11)" id="链接，附件备份">
                    <g transform="translate(42.000000, 218.000000)">
                        <rect id="矩形" fill="#ACAFB9" fill-rule="nonzero" opacity="0" x="0" y="0" width="16" height="16"></rect>
                        <path d="M7.83992187,7.5263125 C8.18848437,7.17270313 8.18690625,6.610375 7.83992187,6.26339063 C7.49357812,5.91703125 6.93220312,5.91514063 6.57701562,6.26339063 L3.73482812,9.10434375 C2.86371875,9.98303125 2.86592187,11.3927656 3.73482812,12.2616563 C4.60401562,13.130875 6.01373437,13.1330625 6.89210937,12.2616563 L12.2595,6.89421875 C13.1309062,6.0228125 13.1309062,4.60832813 12.2595,3.73692188 C11.3884062,2.8658125 9.973625,2.8655 9.10220312,3.73692188 L8.94498437,3.89540625 C8.68354687,4.15684375 8.25920312,4.15684375 7.99779687,3.89540625 C7.7366875,3.6343125 7.73635937,3.21028125 7.99779687,2.94821875 L8.15501562,2.78971875 C9.55559375,1.39607813 11.8146406,1.39765625 13.2066875,2.78971875 C14.5987344,4.18178125 14.6009531,6.44020313 13.2066875,7.84142188 L7.83898437,13.2085313 C6.44314062,14.5936406 4.18757812,14.5904844 2.79679688,13.1996875 C1.4063125,11.8092188 1.40284375,9.5533125 2.78826563,8.15778125 L5.62982812,5.31620313 C6.50628125,4.44479688 7.91759375,4.44667188 8.78710937,5.31620313 C9.65664062,6.18573438 9.65851562,7.59704688 8.78710937,8.47351563 L6.1034375,11.1572344 C5.842,11.4186406 5.41765625,11.4186406 5.15625,11.1572344 C4.8948125,10.8957969 4.8948125,10.4714531 5.15625,10.2100469 L7.8399375,7.5263125 L7.83992187,7.5263125 Z" id="路径" fill="#000000" fill-rule="nonzero"></path>
                    </g>
                </g>
                <g filter="url(#filter-12)" id="链接，附件备份-2">
                    <g transform="translate(42.000000, 259.000000)">
                        <rect id="矩形" fill="#ACAFB9" fill-rule="nonzero" opacity="0" x="0" y="0" width="16" height="16"></rect>
                        <path d="M7.83992187,7.5263125 C8.18848437,7.17270313 8.18690625,6.610375 7.83992187,6.26339063 C7.49357812,5.91703125 6.93220312,5.91514063 6.57701562,6.26339063 L3.73482812,9.10434375 C2.86371875,9.98303125 2.86592187,11.3927656 3.73482812,12.2616563 C4.60401562,13.130875 6.01373437,13.1330625 6.89210937,12.2616563 L12.2595,6.89421875 C13.1309062,6.0228125 13.1309062,4.60832813 12.2595,3.73692188 C11.3884062,2.8658125 9.973625,2.8655 9.10220312,3.73692188 L8.94498437,3.89540625 C8.68354687,4.15684375 8.25920312,4.15684375 7.99779687,3.89540625 C7.7366875,3.6343125 7.73635937,3.21028125 7.99779687,2.94821875 L8.15501562,2.78971875 C9.55559375,1.39607813 11.8146406,1.39765625 13.2066875,2.78971875 C14.5987344,4.18178125 14.6009531,6.44020313 13.2066875,7.84142188 L7.83898437,13.2085313 C6.44314062,14.5936406 4.18757812,14.5904844 2.79679688,13.1996875 C1.4063125,11.8092188 1.40284375,9.5533125 2.78826563,8.15778125 L5.62982812,5.31620313 C6.50628125,4.44479688 7.91759375,4.44667188 8.78710937,5.31620313 C9.65664062,6.18573438 9.65851562,7.59704688 8.78710937,8.47351563 L6.1034375,11.1572344 C5.842,11.4186406 5.41765625,11.4186406 5.15625,11.1572344 C4.8948125,10.8957969 4.8948125,10.4714531 5.15625,10.2100469 L7.8399375,7.5263125 L7.83992187,7.5263125 Z" id="路径" fill="#000000" fill-rule="nonzero"></path>
                    </g>
                </g>
                <g filter="url(#filter-13)" id="刷新，更新">
                    <g transform="translate(281.000000, 218.000000)">
                        <rect id="矩形" fill="#000000" fill-rule="nonzero" opacity="0" x="0" y="0" width="16" height="16"></rect>
                        <path d="M1.74690625,7.89489063 C1.68667187,11.3461406 4.435625,14.1927813 7.886875,14.2530156 C9.86285937,14.2875156 11.6406562,13.4011406 12.8107656,11.9893281 L12.8492344,11.8935469 C13.0054844,11.5045313 12.8167969,11.0625 12.4277813,10.90625 C12.1725527,10.8037329 11.881835,10.8473041 11.667875,11.0201406 L11.6612187,11.0255781 C10.7720156,12.1027656 9.4181875,12.7795156 7.9130625,12.75325 C5.29009375,12.7074688 3.20089062,10.5440313 3.24667187,7.9210625 C3.29245312,5.298125 5.45589062,3.20890625 8.07885937,3.25470313 C9.4716875,3.27901563 10.7140156,3.90046875 11.5660937,4.87076563 L10.8075312,5.48504688 C10.7184743,5.55716427 10.6568923,5.65768445 10.6330937,5.76978125 C10.5763125,6.03720313 10.7448125,6.3000625 11.0102812,6.3609375 L11.0183437,6.36271875 L13.637875,6.91885938 C13.6719789,6.92609617 13.7067461,6.92974624 13.7416094,6.92975 C14.0149844,6.9298125 14.2371719,6.71046875 14.2416562,6.43814063 L14.2417187,6.429875 L14.242375,3.75195313 C14.242375,3.6373601 14.2030575,3.52623654 14.1309531,3.43717188 C13.9589063,3.22471875 13.6486094,3.19014063 13.4341875,3.35810938 L13.4277188,3.36326563 L12.7325313,3.92620313 C11.6104844,2.62379688 9.95909375,1.78729688 8.10503125,1.75492188 C4.65378125,1.6946875 1.80715625,4.44364063 1.74690625,7.89489063 L1.74690625,7.89489063 Z" id="路径" fill="#000000" fill-rule="nonzero"></path>
                    </g>
                </g>
            </g>
        </g>
    </g>
</svg>