<?xml version="1.0" encoding="UTF-8"?>
<svg width="960px" height="270px" viewBox="0 0 960 270" version="1.1" xmlns="http://www.w3.org/2000/svg" xmlns:xlink="http://www.w3.org/1999/xlink">
    <title>3</title>
    <defs>
        <filter id="filter-1">
            <feColorMatrix in="SourceGraphic" type="matrix" values="0 0 0 0 1.000000 0 0 0 0 1.000000 0 0 0 0 1.000000 0 0 0 1.000000 0"></feColorMatrix>
        </filter>
        <filter id="filter-2">
            <feColorMatrix in="SourceGraphic" type="matrix" values="0 0 0 0 1.000000 0 0 0 0 1.000000 0 0 0 0 1.000000 0 0 0 1.000000 0"></feColorMatrix>
        </filter>
        <filter id="filter-3">
            <feColorMatrix in="SourceGraphic" type="matrix" values="0 0 0 0 0.674510 0 0 0 0 0.686275 0 0 0 0 0.725490 0 0 0 1.000000 0"></feColorMatrix>
        </filter>
        <filter id="filter-4">
            <feColorMatrix in="SourceGraphic" type="matrix" values="0 0 0 0 0.674510 0 0 0 0 0.686275 0 0 0 0 0.725490 0 0 0 1.000000 0"></feColorMatrix>
        </filter>
    </defs>
    <g id="📁设计师模式" stroke="none" stroke-width="1" fill="none" fill-rule="evenodd">
        <g id="组件设计规范备份-数据录入备份" transform="translate(-299.000000, -3364.000000)">
            <g id="3" transform="translate(299.000000, 3364.000000)">
                <rect id="矩形备份-106" stroke="#E8E7E7" x="0.5" y="0.5" width="959" height="269"></rect>
                <text id="横向" font-family="PingFangSC-Regular, PingFang SC" font-size="14" font-weight="normal" fill="#000000" fill-opacity="0.85">
                    <tspan x="337" y="48">横向</tspan>
                </text>
                <text id="纵向" font-family="PingFangSC-Regular, PingFang SC" font-size="14" font-weight="normal" fill="#000000" fill-opacity="0.85">
                    <tspan x="130" y="48">纵向</tspan>
                </text>
                <g id="save" transform="translate(130.000000, 79.000000)"></g>
                <rect id="矩形" fill="#000000" fill-rule="nonzero" opacity="0" x="130" y="79" width="16" height="16"></rect>
                <rect id="Rectangle" stroke="#ACAFB9" fill="#FFFFFF" x="130.5" y="79.5" width="15" height="15" rx="3"></rect>
                <text id="Text" font-family="PingFangSC-Regular, PingFang SC" font-size="14" font-weight="normal" line-spacing="22" fill="#000000" fill-opacity="0.65">
                    <tspan x="154" y="91">未选中项</tspan>
                </text>
                <g id="save" transform="translate(130.000000, 117.000000)"></g>
                <rect id="矩形" fill="#000000" fill-rule="nonzero" opacity="0" x="130" y="117" width="16" height="16"></rect>
                <rect id="Rectangle" stroke="#B30000" fill="#FFFFFF" x="130.5" y="117.5" width="15" height="15" rx="3"></rect>
                <text id="Text" font-family="PingFangSC-Regular, PingFang SC" font-size="14" font-weight="normal" line-spacing="22" fill="#000000" fill-opacity="0.65">
                    <tspan x="154" y="129">未选悬停项</tspan>
                </text>
                <rect id="矩形" fill="#000000" fill-rule="nonzero" opacity="0" x="130" y="155" width="16" height="16"></rect>
                <rect id="Rectangle-271" fill="#B30000" x="130" y="155" width="16" height="16" rx="3"></rect>
                <text id="Text" font-family="PingFangSC-Regular, PingFang SC" font-size="14" font-weight="normal" line-spacing="22" fill="#000000" fill-opacity="0.65">
                    <tspan x="154" y="167">选中项</tspan>
                </text>
                <g id="save" transform="translate(130.000000, 193.000000)"></g>
                <rect id="矩形" fill="#000000" fill-rule="nonzero" opacity="0" x="130" y="193" width="16" height="16"></rect>
                <rect id="Rectangle-271" stroke="#C8CAD1" fill="#E9EBF0" x="130" y="193" width="16" height="16" rx="3"></rect>
                <text id="Text" font-family="PingFangSC-Regular, PingFang SC" font-size="14" font-weight="normal" line-spacing="22" fill="#000000" fill-opacity="0.35">
                    <tspan x="154" y="205">未选失效项</tspan>
                </text>
                <g id="save" transform="translate(131.000000, 231.000000)"></g>
                <rect id="矩形" fill="#000000" fill-rule="nonzero" opacity="0" x="131" y="231" width="16" height="16"></rect>
                <rect id="Rectangle-271" stroke="#C8CAD1" fill="#E9EBF0" x="131" y="231" width="16" height="16" rx="3"></rect>
                <text id="Text" font-family="PingFangSC-Regular, PingFang SC" font-size="14" font-weight="normal" line-spacing="22" fill="#000000" fill-opacity="0.35">
                    <tspan x="155" y="243">选中失效项</tspan>
                </text>
                <g id="Icon/Checkbox-Normal" transform="translate(337.000000, 79.000000)">
                    <g id="save"></g>
                    <rect id="矩形" fill="#000000" fill-rule="nonzero" opacity="0" x="0" y="0" width="16" height="16"></rect>
                    <rect id="Rectangle" stroke="#ACAFB9" fill="#FFFFFF" x="0.5" y="0.5" width="15" height="15" rx="3"></rect>
                </g>
                <text id="Text" font-family="PingFangSC-Regular, PingFang SC" font-size="14" font-weight="normal" line-spacing="22" fill="#000000" fill-opacity="0.65">
                    <tspan x="361" y="91">未选中项</tspan>
                </text>
                <g id="Icon/Checkbox-Hover-" transform="translate(433.000000, 79.000000)">
                    <g id="save"></g>
                    <rect id="矩形" fill="#000000" fill-rule="nonzero" opacity="0" x="0" y="0" width="16" height="16"></rect>
                    <rect id="Rectangle" stroke="#B30000" fill="#FFFFFF" x="0.5" y="0.5" width="15" height="15" rx="3"></rect>
                </g>
                <text id="Text" font-family="PingFangSC-Regular, PingFang SC" font-size="14" font-weight="normal" line-spacing="22" fill="#000000" fill-opacity="0.65">
                    <tspan x="457" y="91">未选悬停项</tspan>
                </text>
                <g id="save" transform="translate(543.000000, 79.000000)"></g>
                <rect id="矩形" fill="#000000" fill-rule="nonzero" opacity="0" x="543" y="79" width="16" height="16"></rect>
                <rect id="Rectangle-271" fill="#B30000" x="543" y="79" width="16" height="16" rx="3"></rect>
                <text id="Text" font-family="PingFangSC-Regular, PingFang SC" font-size="14" font-weight="normal" line-spacing="22" fill="#000000" fill-opacity="0.65">
                    <tspan x="567" y="91">选中项</tspan>
                </text>
                <g id="Icon/Checkbox-Normal-Disabled" transform="translate(625.000000, 79.000000)">
                    <g id="save"></g>
                    <rect id="矩形" fill="#000000" fill-rule="nonzero" opacity="0" x="0" y="0" width="16" height="16"></rect>
                    <rect id="Rectangle-271" stroke="#C8CAD1" fill="#E9EBF0" x="0" y="0" width="16" height="16" rx="3"></rect>
                </g>
                <text id="Text" font-family="PingFangSC-Regular, PingFang SC" font-size="14" font-weight="normal" line-spacing="22" fill="#000000" fill-opacity="0.35">
                    <tspan x="649" y="91">未选失效项</tspan>
                </text>
                <g id="Icon/Checkbox-Selected-Disabled" transform="translate(735.900253, 79.000000)">
                    <g id="save"></g>
                    <rect id="矩形" fill="#000000" fill-rule="nonzero" opacity="0" x="0" y="0" width="16" height="16"></rect>
                    <rect id="Rectangle-271" stroke="#C8CAD1" fill="#E9EBF0" x="0" y="0" width="16" height="16" rx="3"></rect>
                </g>
                <text id="Text" font-family="PingFangSC-Regular, PingFang SC" font-size="14" font-weight="normal" line-spacing="22" fill="#000000" fill-opacity="0.35">
                    <tspan x="760" y="91">选中失效项</tspan>
                </text>
                <g filter="url(#filter-1)" id="对勾，正确，确认，勾选">
                    <g transform="translate(131.000000, 156.000000)">
                        <rect id="矩形" fill="#000000" fill-rule="nonzero" opacity="0" x="0" y="0" width="14" height="14"></rect>
                        <path d="M11.5211387,3.36058789 C11.7985273,3.58508008 11.8437539,3.99013672 11.6245937,4.27008203 L11.6167461,4.27991211 L6.42414062,10.6246875 C6.23285742,10.8584219 5.88829883,10.892834 5.65456445,10.7015371 C5.6271331,10.6790865 5.60194953,10.6540219 5.57936914,10.6266973 L2.39617383,6.77467383 C2.16529687,6.49528906 2.20463086,6.08164648 2.48401562,5.85075586 C2.76059766,5.62218945 3.16878516,5.65844727 3.40093359,5.93028516 L3.40791992,5.93859766 L5.99238281,9.06609375 L10.5948281,3.45512891 C10.8251309,3.17436328 11.2388691,3.13213086 11.5211387,3.36058789 Z" id="路径" fill="#000000" fill-rule="nonzero"></path>
                    </g>
                </g>
                <g filter="url(#filter-2)" id="对勾，正确，确认，勾选备份-2">
                    <g transform="translate(544.000000, 80.000000)">
                        <rect id="矩形" fill="#000000" fill-rule="nonzero" opacity="0" x="0" y="0" width="14" height="14"></rect>
                        <path d="M11.5211387,3.36058789 C11.7985273,3.58508008 11.8437539,3.99013672 11.6245937,4.27008203 L11.6167461,4.27991211 L6.42414062,10.6246875 C6.23285742,10.8584219 5.88829883,10.892834 5.65456445,10.7015371 C5.6271331,10.6790865 5.60194953,10.6540219 5.57936914,10.6266973 L2.39617383,6.77467383 C2.16529687,6.49528906 2.20463086,6.08164648 2.48401562,5.85075586 C2.76059766,5.62218945 3.16878516,5.65844727 3.40093359,5.93028516 L3.40791992,5.93859766 L5.99238281,9.06609375 L10.5948281,3.45512891 C10.8251309,3.17436328 11.2388691,3.13213086 11.5211387,3.36058789 Z" id="路径" fill="#000000" fill-rule="nonzero"></path>
                    </g>
                </g>
                <g filter="url(#filter-3)" id="对勾，正确，确认，勾选备份">
                    <g transform="translate(132.000000, 232.000000)">
                        <rect id="矩形" fill="#000000" fill-rule="nonzero" opacity="0" x="0" y="0" width="14" height="14"></rect>
                        <path d="M11.5211387,3.36058789 C11.7985273,3.58508008 11.8437539,3.99013672 11.6245937,4.27008203 L11.6167461,4.27991211 L6.42414062,10.6246875 C6.23285742,10.8584219 5.88829883,10.892834 5.65456445,10.7015371 C5.6271331,10.6790865 5.60194953,10.6540219 5.57936914,10.6266973 L2.39617383,6.77467383 C2.16529687,6.49528906 2.20463086,6.08164648 2.48401562,5.85075586 C2.76059766,5.62218945 3.16878516,5.65844727 3.40093359,5.93028516 L3.40791992,5.93859766 L5.99238281,9.06609375 L10.5948281,3.45512891 C10.8251309,3.17436328 11.2388691,3.13213086 11.5211387,3.36058789 Z" id="路径" fill="#000000" fill-rule="nonzero"></path>
                    </g>
                </g>
                <g filter="url(#filter-4)" id="对勾，正确，确认，勾选备份-3">
                    <g transform="translate(737.000000, 80.000000)">
                        <rect id="矩形" fill="#000000" fill-rule="nonzero" opacity="0" x="0" y="0" width="14" height="14"></rect>
                        <path d="M11.5211387,3.36058789 C11.7985273,3.58508008 11.8437539,3.99013672 11.6245937,4.27008203 L11.6167461,4.27991211 L6.42414062,10.6246875 C6.23285742,10.8584219 5.88829883,10.892834 5.65456445,10.7015371 C5.6271331,10.6790865 5.60194953,10.6540219 5.57936914,10.6266973 L2.39617383,6.77467383 C2.16529687,6.49528906 2.20463086,6.08164648 2.48401562,5.85075586 C2.76059766,5.62218945 3.16878516,5.65844727 3.40093359,5.93028516 L3.40791992,5.93859766 L5.99238281,9.06609375 L10.5948281,3.45512891 C10.8251309,3.17436328 11.2388691,3.13213086 11.5211387,3.36058789 Z" id="路径" fill="#000000" fill-rule="nonzero"></path>
                    </g>
                </g>
            </g>
        </g>
    </g>
</svg>