<?xml version="1.0" encoding="UTF-8"?>
<svg width="960px" height="686px" viewBox="0 0 960 686" version="1.1" xmlns="http://www.w3.org/2000/svg" xmlns:xlink="http://www.w3.org/1999/xlink">
    <title>4</title>
    <defs>
        <rect id="path-1" x="54" y="439" width="263" height="90" rx="3"></rect>
        <filter x="-3.0%" y="-7.8%" width="106.1%" height="117.8%" filterUnits="objectBoundingBox" id="filter-2">
            <feMorphology radius="0.5" operator="dilate" in="SourceAlpha" result="shadowSpreadOuter1"></feMorphology>
            <feOffset dx="0" dy="1" in="shadowSpreadOuter1" result="shadowOffsetOuter1"></feOffset>
            <feGaussianBlur stdDeviation="2" in="shadowOffsetOuter1" result="shadowBlurOuter1"></feGaussianBlur>
            <feColorMatrix values="0 0 0 0 0.576470588   0 0 0 0 0.576470588   0 0 0 0 0.576470588  0 0 0 0.35 0" type="matrix" in="shadowBlurOuter1"></feColorMatrix>
        </filter>
        <rect id="path-3" x="54" y="105" width="263" height="90" rx="3"></rect>
        <filter x="-3.0%" y="-7.8%" width="106.1%" height="117.8%" filterUnits="objectBoundingBox" id="filter-4">
            <feMorphology radius="0.5" operator="dilate" in="SourceAlpha" result="shadowSpreadOuter1"></feMorphology>
            <feOffset dx="0" dy="1" in="shadowSpreadOuter1" result="shadowOffsetOuter1"></feOffset>
            <feGaussianBlur stdDeviation="2" in="shadowOffsetOuter1" result="shadowBlurOuter1"></feGaussianBlur>
            <feColorMatrix values="0 0 0 0 0.576470588   0 0 0 0 0.576470588   0 0 0 0 0.576470588  0 0 0 0.35 0" type="matrix" in="shadowBlurOuter1"></feColorMatrix>
        </filter>
        <rect id="path-5" x="349" y="439" width="263" height="202" rx="3"></rect>
        <filter x="-3.0%" y="-3.5%" width="106.1%" height="107.9%" filterUnits="objectBoundingBox" id="filter-6">
            <feMorphology radius="0.5" operator="dilate" in="SourceAlpha" result="shadowSpreadOuter1"></feMorphology>
            <feOffset dx="0" dy="1" in="shadowSpreadOuter1" result="shadowOffsetOuter1"></feOffset>
            <feGaussianBlur stdDeviation="2" in="shadowOffsetOuter1" result="shadowBlurOuter1"></feGaussianBlur>
            <feColorMatrix values="0 0 0 0 0.576470588   0 0 0 0 0.576470588   0 0 0 0 0.576470588  0 0 0 0.35 0" type="matrix" in="shadowBlurOuter1"></feColorMatrix>
        </filter>
        <rect id="path-7" x="349" y="105" width="263" height="90" rx="3"></rect>
        <filter x="-3.0%" y="-7.8%" width="106.1%" height="117.8%" filterUnits="objectBoundingBox" id="filter-8">
            <feMorphology radius="0.5" operator="dilate" in="SourceAlpha" result="shadowSpreadOuter1"></feMorphology>
            <feOffset dx="0" dy="1" in="shadowSpreadOuter1" result="shadowOffsetOuter1"></feOffset>
            <feGaussianBlur stdDeviation="2" in="shadowOffsetOuter1" result="shadowBlurOuter1"></feGaussianBlur>
            <feColorMatrix values="0 0 0 0 0.576470588   0 0 0 0 0.576470588   0 0 0 0 0.576470588  0 0 0 0.35 0" type="matrix" in="shadowBlurOuter1"></feColorMatrix>
        </filter>
        <filter id="filter-9">
            <feColorMatrix in="SourceGraphic" type="matrix" values="0 0 0 0 0.674510 0 0 0 0 0.686275 0 0 0 0 0.725490 0 0 0 1.000000 0"></feColorMatrix>
        </filter>
        <filter id="filter-10">
            <feColorMatrix in="SourceGraphic" type="matrix" values="0 0 0 0 0.266667 0 0 0 0 0.290196 0 0 0 0 0.368627 0 0 0 1.000000 0"></feColorMatrix>
        </filter>
        <filter id="filter-11">
            <feColorMatrix in="SourceGraphic" type="matrix" values="0 0 0 0 0.266667 0 0 0 0 0.290196 0 0 0 0 0.368627 0 0 0 1.000000 0"></feColorMatrix>
        </filter>
        <filter id="filter-12">
            <feColorMatrix in="SourceGraphic" type="matrix" values="0 0 0 0 0.266667 0 0 0 0 0.290196 0 0 0 0 0.368627 0 0 0 1.000000 0"></feColorMatrix>
        </filter>
        <rect id="path-13" x="644" y="439" width="263" height="118" rx="3"></rect>
        <filter x="-3.0%" y="-5.9%" width="106.1%" height="113.6%" filterUnits="objectBoundingBox" id="filter-14">
            <feMorphology radius="0.5" operator="dilate" in="SourceAlpha" result="shadowSpreadOuter1"></feMorphology>
            <feOffset dx="0" dy="1" in="shadowSpreadOuter1" result="shadowOffsetOuter1"></feOffset>
            <feGaussianBlur stdDeviation="2" in="shadowOffsetOuter1" result="shadowBlurOuter1"></feGaussianBlur>
            <feColorMatrix values="0 0 0 0 0.576470588   0 0 0 0 0.576470588   0 0 0 0 0.576470588  0 0 0 0.35 0" type="matrix" in="shadowBlurOuter1"></feColorMatrix>
        </filter>
        <rect id="path-15" x="644" y="105" width="263" height="202" rx="3"></rect>
        <filter x="-3.0%" y="-3.5%" width="106.1%" height="107.9%" filterUnits="objectBoundingBox" id="filter-16">
            <feMorphology radius="0.5" operator="dilate" in="SourceAlpha" result="shadowSpreadOuter1"></feMorphology>
            <feOffset dx="0" dy="1" in="shadowSpreadOuter1" result="shadowOffsetOuter1"></feOffset>
            <feGaussianBlur stdDeviation="2" in="shadowOffsetOuter1" result="shadowBlurOuter1"></feGaussianBlur>
            <feColorMatrix values="0 0 0 0 0.576470588   0 0 0 0 0.576470588   0 0 0 0 0.576470588  0 0 0 0.35 0" type="matrix" in="shadowBlurOuter1"></feColorMatrix>
        </filter>
        <filter id="filter-17">
            <feColorMatrix in="SourceGraphic" type="matrix" values="0 0 0 0 0.266667 0 0 0 0 0.290196 0 0 0 0 0.368627 0 0 0 1.000000 0"></feColorMatrix>
        </filter>
        <filter id="filter-18">
            <feColorMatrix in="SourceGraphic" type="matrix" values="0 0 0 0 0.266667 0 0 0 0 0.290196 0 0 0 0 0.368627 0 0 0 1.000000 0"></feColorMatrix>
        </filter>
        <filter id="filter-19">
            <feColorMatrix in="SourceGraphic" type="matrix" values="0 0 0 0 0.266667 0 0 0 0 0.290196 0 0 0 0 0.368627 0 0 0 1.000000 0"></feColorMatrix>
        </filter>
        <filter id="filter-20">
            <feColorMatrix in="SourceGraphic" type="matrix" values="0 0 0 0 0.674510 0 0 0 0 0.686275 0 0 0 0 0.725490 0 0 0 1.000000 0"></feColorMatrix>
        </filter>
        <filter id="filter-21">
            <feColorMatrix in="SourceGraphic" type="matrix" values="0 0 0 0 0.674510 0 0 0 0 0.686275 0 0 0 0 0.725490 0 0 0 1.000000 0"></feColorMatrix>
        </filter>
        <filter id="filter-22">
            <feColorMatrix in="SourceGraphic" type="matrix" values="0 0 0 0 0.674510 0 0 0 0 0.686275 0 0 0 0 0.725490 0 0 0 1.000000 0"></feColorMatrix>
        </filter>
    </defs>
    <g id="📁设计师模式" stroke="none" stroke-width="1" fill="none" fill-rule="evenodd">
        <g id="组件设计规范备份-数据录入备份" transform="translate(-299.000000, -3756.000000)">
            <g id="4" transform="translate(299.000000, 3756.000000)">
                <rect id="矩形备份-107" stroke="#E8E7E7" x="0.5" y="0.5" width="959" height="685"></rect>
                <g id="矩形备份-29">
                    <use fill="black" fill-opacity="1" filter="url(#filter-2)" xlink:href="#path-1"></use>
                    <use fill="#FFFFFF" fill-rule="evenodd" xlink:href="#path-1"></use>
                </g>
                <path d="M314.996949,69.5 C315.412748,69.5 315.789347,69.6669997 316.061585,69.9390592 C316.332802,70.2100995 316.5,70.5851881 316.5,71.0017433 L316.5,71.0017433 L316.5,98.9982567 C316.5,99.4125115 316.331164,99.7874494 316.059374,100.059062 C315.786949,100.331309 315.410962,100.5 314.996949,100.5 L314.996949,100.5 L56.0030511,100.5 C55.5872524,100.5 55.2106528,100.333 54.9384155,100.060941 C54.6671982,99.7899005 54.5,99.4148119 54.5,98.9982567 L54.5,98.9982567 L54.5,71.0017433 C54.5,70.5874885 54.6688358,70.2125506 54.9406258,69.940938 C55.2130506,69.6686911 55.5890381,69.5 56.0030511,69.5 L56.0030511,69.5 Z" id="Rectangle-26-Copy-23备份" stroke="#B30000" fill="#FFFFFF"></path>
                <text id="Text备份-20" font-family="PingFangSC-Regular, PingFang SC" font-size="14" font-weight="normal" line-spacing="22" fill="#000000" fill-opacity="0.85">
                    <tspan x="66" y="89">a</tspan>
                </text>
                <g id="矩形备份-30">
                    <use fill="black" fill-opacity="1" filter="url(#filter-4)" xlink:href="#path-3"></use>
                    <use fill="#FFFFFF" fill-rule="evenodd" xlink:href="#path-3"></use>
                </g>
                <rect id="矩形备份-31" fill="#FFF1F0" x="54" y="136" width="263" height="28"></rect>
                <rect id="矩形备份-32" x="54" y="108" width="263" height="28"></rect>
                <rect id="矩形备份-33" x="54" y="164" width="263" height="28"></rect>
                <rect id="矩形备份-34" x="54" y="470" width="148" height="28"></rect>
                <rect id="矩形备份-35" x="54" y="498" width="148" height="28"></rect>
                <rect id="矩形备份-36" x="202" y="442" width="115" height="28"></rect>
                <text id="Text备份-21" font-family="PingFangSC-Regular, PingFang SC" font-size="14" font-weight="normal" line-spacing="22" fill="#000000" fill-opacity="0.85">
                    <tspan x="66" y="126">a</tspan>
                </text>
                <text id="Text备份-22" font-family="PingFangSC-Regular, PingFang SC" font-size="14" font-weight="normal" line-spacing="22" fill="#000000" fill-opacity="0.85">
                    <tspan x="66" y="154">a10</tspan>
                </text>
                <text id="Text备份-23" font-family="PingFangSC-Regular, PingFang SC" font-size="14" font-weight="normal" line-spacing="22" fill="#000000" fill-opacity="0.85">
                    <tspan x="66" y="182">a105</tspan>
                </text>
                <path d="M314.996949,403.5 C315.412748,403.5 315.789347,403.667 316.061585,403.939059 C316.332802,404.210099 316.5,404.585188 316.5,405.001743 L316.5,405.001743 L316.5,432.998257 C316.5,433.412512 316.331164,433.787449 316.059374,434.059062 C315.786949,434.331309 315.410962,434.5 314.996949,434.5 L314.996949,434.5 L56.0030511,434.5 C55.5872524,434.5 55.2106528,434.333 54.9384155,434.060941 C54.6671982,433.789901 54.5,433.414812 54.5,432.998257 L54.5,432.998257 L54.5,405.001743 C54.5,404.587488 54.6688358,404.212551 54.9406258,403.940938 C55.2130506,403.668691 55.5890381,403.5 56.0030511,403.5 L56.0030511,403.5 Z" id="Rectangle-26-Copy-23备份-2" stroke="#B30000" fill="#FFFFFF"></path>
                <text id="Text备份-24" font-family="PingFangSC-Regular, PingFang SC" font-size="14" font-weight="normal" line-spacing="22" fill="#000000" fill-opacity="0.35">
                    <tspan x="66" y="423">请选择</tspan>
                </text>
                <rect id="矩形备份-37" fill="#FFF1F0" x="54" y="442" width="148" height="28"></rect>
                <text id="联通系统集成公司备份" font-family="PingFangSC-Regular, PingFang SC" font-size="14" font-weight="normal" fill="#000000" fill-opacity="0.85">
                    <tspan x="64" y="461">联通系统集成公司</tspan>
                </text>
                <text id="联通集团总部备份-2" font-family="PingFangSC-Regular, PingFang SC" font-size="14" font-weight="normal" fill="#000000" fill-opacity="0.649885271">
                    <tspan x="64" y="489">联通集团总部</tspan>
                </text>
                <text id="联通集团总部备份-3" font-family="PingFangSC-Regular, PingFang SC" font-size="14" font-weight="normal" fill="#000000" fill-opacity="0.649885271">
                    <tspan x="64" y="517">联通集团总部</tspan>
                </text>
                <text id="北京分公司备份" font-family="PingFangSC-Regular, PingFang SC" font-size="14" font-weight="normal" fill="#000000" fill-opacity="0.649885271">
                    <tspan x="210" y="461">北京分公司</tspan>
                </text>
                <line x1="202" y1="439.5" x2="202" y2="529.5" id="直线备份" stroke="#D8D8D8" stroke-linecap="square"></line>
                <text id="基本选择器备份" font-family="PingFangSC-Regular, PingFang SC" font-size="14" font-weight="normal" fill="#000000" fill-opacity="0.85">
                    <tspan x="54" y="44">基本选择器</tspan>
                </text>
                <text id="联动选择器备份" font-family="PingFangSC-Regular, PingFang SC" font-size="14" font-weight="normal" fill="#000000" fill-opacity="0.85">
                    <tspan x="54" y="378">联动选择器</tspan>
                </text>
                <g id="下拉备份-7" transform="translate(186.000000, 456.000000) rotate(-90.000000) translate(-186.000000, -456.000000) translate(178.000000, 448.000000)" fill-rule="nonzero">
                    <rect id="矩形" fill="#000000" opacity="0" x="0" y="0" width="16" height="16"></rect>
                    <path d="M14.035375,4.56342188 C14.3282656,4.8563125 14.3282656,5.3311875 14.035375,5.62407813 L8.4448125,11.2146406 C8.20071875,11.4586875 7.80501562,11.4587031 7.56090625,11.2146719 L1.96965625,5.6240625 C1.67678125,5.33117188 1.67678125,4.85629688 1.96965625,4.56340625 C2.25964063,4.2734375 2.72795312,4.27054688 3.02148438,4.55470313 L3.03032813,4.56340625 L8.00251563,9.53559375 L12.9747031,4.56340625 C13.2676094,4.27051563 13.7424844,4.27051563 14.035375,4.56340625 L14.035375,4.56342188 Z" id="路径" fill="#ACAFB9"></path>
                </g>
                <g id="下拉备份-9" transform="translate(186.000000, 484.000000) rotate(-90.000000) translate(-186.000000, -484.000000) translate(178.000000, 476.000000)" fill-rule="nonzero">
                    <rect id="矩形" fill="#000000" opacity="0" x="0" y="0" width="16" height="16"></rect>
                    <path d="M14.035375,4.56342188 C14.3282656,4.8563125 14.3282656,5.3311875 14.035375,5.62407813 L8.4448125,11.2146406 C8.20071875,11.4586875 7.80501562,11.4587031 7.56090625,11.2146719 L1.96965625,5.6240625 C1.67678125,5.33117188 1.67678125,4.85629688 1.96965625,4.56340625 C2.25964063,4.2734375 2.72795312,4.27054688 3.02148438,4.55470313 L3.03032813,4.56340625 L8.00251563,9.53559375 L12.9747031,4.56340625 C13.2676094,4.27051563 13.7424844,4.27051563 14.035375,4.56340625 L14.035375,4.56342188 Z" id="路径" fill="#ACAFB9"></path>
                </g>
                <g id="下拉备份-10" transform="translate(186.000000, 512.000000) rotate(-90.000000) translate(-186.000000, -512.000000) translate(178.000000, 504.000000)" fill-rule="nonzero">
                    <rect id="矩形" fill="#000000" opacity="0" x="0" y="0" width="16" height="16"></rect>
                    <path d="M14.035375,4.56342188 C14.3282656,4.8563125 14.3282656,5.3311875 14.035375,5.62407813 L8.4448125,11.2146406 C8.20071875,11.4586875 7.80501562,11.4587031 7.56090625,11.2146719 L1.96965625,5.6240625 C1.67678125,5.33117188 1.67678125,4.85629688 1.96965625,4.56340625 C2.25964063,4.2734375 2.72795312,4.27054688 3.02148438,4.55470313 L3.03032813,4.56340625 L8.00251563,9.53559375 L12.9747031,4.56340625 C13.2676094,4.27051563 13.7424844,4.27051563 14.035375,4.56340625 L14.035375,4.56342188 Z" id="路径" fill="#ACAFB9"></path>
                </g>
                <g id="下拉备份-5" transform="translate(295.000000, 77.000000)" fill-rule="nonzero">
                    <rect id="矩形" fill="#000000" opacity="0" x="0" y="0" width="16" height="16"></rect>
                    <path d="M14.035375,4.56342188 C14.3282656,4.8563125 14.3282656,5.3311875 14.035375,5.62407813 L8.4448125,11.2146406 C8.20071875,11.4586875 7.80501562,11.4587031 7.56090625,11.2146719 L1.96965625,5.6240625 C1.67678125,5.33117188 1.67678125,4.85629688 1.96965625,4.56340625 C2.25964063,4.2734375 2.72795312,4.27054688 3.02148438,4.55470313 L3.03032813,4.56340625 L8.00251563,9.53559375 L12.9747031,4.56340625 C13.2676094,4.27051563 13.7424844,4.27051563 14.035375,4.56340625 L14.035375,4.56342188 Z" id="路径" fill="#ACAFB9"></path>
                </g>
                <g id="下拉备份-6" transform="translate(295.000000, 411.000000)" fill-rule="nonzero">
                    <rect id="矩形" fill="#000000" opacity="0" x="0" y="0" width="16" height="16"></rect>
                    <path d="M14.035375,4.56342188 C14.3282656,4.8563125 14.3282656,5.3311875 14.035375,5.62407813 L8.4448125,11.2146406 C8.20071875,11.4586875 7.80501562,11.4587031 7.56090625,11.2146719 L1.96965625,5.6240625 C1.67678125,5.33117188 1.67678125,4.85629688 1.96965625,4.56340625 C2.25964063,4.2734375 2.72795312,4.27054688 3.02148438,4.55470313 L3.03032813,4.56340625 L8.00251563,9.53559375 L12.9747031,4.56340625 C13.2676094,4.27051563 13.7424844,4.27051563 14.035375,4.56340625 L14.035375,4.56342188 Z" id="路径" fill="#ACAFB9"></path>
                </g>
                <g id="下拉备份-8" transform="translate(303.000000, 456.000000) rotate(-90.000000) translate(-303.000000, -456.000000) translate(295.000000, 448.000000)" fill-rule="nonzero">
                    <rect id="矩形" fill="#000000" opacity="0" x="0" y="0" width="16" height="16"></rect>
                    <path d="M14.035375,4.56342188 C14.3282656,4.8563125 14.3282656,5.3311875 14.035375,5.62407813 L8.4448125,11.2146406 C8.20071875,11.4586875 7.80501562,11.4587031 7.56090625,11.2146719 L1.96965625,5.6240625 C1.67678125,5.33117188 1.67678125,4.85629688 1.96965625,4.56340625 C2.25964063,4.2734375 2.72795312,4.27054688 3.02148438,4.55470313 L3.03032813,4.56340625 L8.00251563,9.53559375 L12.9747031,4.56340625 C13.2676094,4.27051563 13.7424844,4.27051563 14.035375,4.56340625 L14.035375,4.56342188 Z" id="路径" fill="#ACAFB9"></path>
                </g>
                <g id="矩形备份-29">
                    <use fill="black" fill-opacity="1" filter="url(#filter-6)" xlink:href="#path-5"></use>
                    <use fill="#FFFFFF" fill-rule="evenodd" xlink:href="#path-5"></use>
                </g>
                <g id="矩形备份-30">
                    <use fill="black" fill-opacity="1" filter="url(#filter-8)" xlink:href="#path-7"></use>
                    <use fill="#FFFFFF" fill-rule="evenodd" xlink:href="#path-7"></use>
                </g>
                <rect id="矩形备份-31" x="349" y="108" width="263" height="28"></rect>
                <rect id="矩形备份-32" x="349" y="108" width="263" height="28"></rect>
                <rect id="矩形备份-33" x="349" y="442" width="263" height="28"></rect>
                <rect id="矩形备份-34" x="349" y="470" width="263" height="28"></rect>
                <rect id="矩形备份-35" x="349" y="498" width="263" height="28"></rect>
                <rect id="矩形备份-36" x="349" y="526" width="263" height="28"></rect>
                <rect id="矩形备份-37" x="349" y="554" width="263" height="28"></rect>
                <rect id="矩形备份-38" x="349" y="582" width="263" height="28"></rect>
                <rect id="矩形备份-39" x="349" y="610" width="263" height="28"></rect>
                <rect id="矩形备份-40" x="349" y="164" width="263" height="28"></rect>
                <path d="M609.996949,403.5 C610.412748,403.5 610.789347,403.667 611.061585,403.939059 C611.332802,404.210099 611.5,404.585188 611.5,405.001743 L611.5,405.001743 L611.5,432.998257 C611.5,433.412512 611.331164,433.787449 611.059374,434.059062 C610.786949,434.331309 610.410962,434.5 609.996949,434.5 L609.996949,434.5 L351.003051,434.5 C350.587252,434.5 350.210653,434.333 349.938415,434.060941 C349.667198,433.789901 349.5,433.414812 349.5,432.998257 L349.5,432.998257 L349.5,405.001743 C349.5,404.587488 349.668836,404.212551 349.940626,403.940938 C350.213051,403.668691 350.589038,403.5 351.003051,403.5 L351.003051,403.5 Z" id="Rectangle-26-Copy-23备份" stroke="#B30000" fill="#FFFFFF"></path>
                <g id="下拉备份-5" transform="translate(590.000000, 411.000000)" fill-rule="nonzero">
                    <rect id="矩形" fill="#000000" opacity="0" x="0" y="0" width="16" height="16"></rect>
                    <path d="M14.035375,4.56342188 C14.3282656,4.8563125 14.3282656,5.3311875 14.035375,5.62407813 L8.4448125,11.2146406 C8.20071875,11.4586875 7.80501562,11.4587031 7.56090625,11.2146719 L1.96965625,5.6240625 C1.67678125,5.33117188 1.67678125,4.85629688 1.96965625,4.56340625 C2.25964063,4.2734375 2.72795312,4.27054688 3.02148438,4.55470313 L3.03032813,4.56340625 L8.00251563,9.53559375 L12.9747031,4.56340625 C13.2676094,4.27051563 13.7424844,4.27051563 14.035375,4.56340625 L14.035375,4.56342188 Z" id="路径" fill="#ACAFB9"></path>
                </g>
                <text id="Text备份-20" font-family="PingFangSC-Regular, PingFang SC" font-size="14" font-weight="normal" line-spacing="22" fill="#000000" fill-opacity="0.35">
                    <tspan x="361" y="423">请选择</tspan>
                </text>
                <path d="M609.996949,69.5 C610.412748,69.5 610.789347,69.6669997 611.061585,69.9390592 C611.332802,70.2100995 611.5,70.5851881 611.5,71.0017433 L611.5,71.0017433 L611.5,98.9982567 C611.5,99.4125115 611.331164,99.7874494 611.059374,100.059062 C610.786949,100.331309 610.410962,100.5 609.996949,100.5 L609.996949,100.5 L351.003051,100.5 C350.587252,100.5 350.210653,100.333 349.938415,100.060941 C349.667198,99.7899005 349.5,99.4148119 349.5,98.9982567 L349.5,98.9982567 L349.5,71.0017433 C349.5,70.5874885 349.668836,70.2125506 349.940626,69.940938 C350.213051,69.6686911 350.589038,69.5 351.003051,69.5 L351.003051,69.5 Z" id="Rectangle-26-Copy-23备份-2" stroke="#B30000" fill="#FFFFFF"></path>
                <text id="Text备份-21" font-family="PingFangSC-Regular, PingFang SC" font-size="14" font-weight="normal" line-spacing="22" fill="#000000" fill-opacity="0.85">
                    <tspan x="361" y="89">a</tspan>
                </text>
                <rect id="矩形备份-41" fill="#FFF1F0" x="349" y="136" width="263" height="28"></rect>
                <text id="Text备份-22" font-family="PingFangSC-Regular, PingFang SC" font-size="14" font-weight="normal" line-spacing="22" fill="#000000" fill-opacity="0.85">
                    <tspan x="361" y="126">a</tspan>
                </text>
                <text id="Text备份-23" font-family="PingFangSC-Regular, PingFang SC" font-size="14" font-weight="normal" line-spacing="22" fill="#000000" fill-opacity="0.85">
                    <tspan x="361" y="154">a10</tspan>
                </text>
                <text id="Text备份-24" font-family="PingFangSC-Regular, PingFang SC" font-size="14" font-weight="normal" line-spacing="22" fill="#000000" fill-opacity="0.85">
                    <tspan x="361" y="182">a105</tspan>
                </text>
                <g filter="url(#filter-9)" id="搜索，放大镜备份-2">
                    <g transform="translate(588.000000, 77.000000)">
                        <rect id="矩形" fill="#000000" fill-rule="nonzero" opacity="0" x="0" y="0" width="16" height="16"></rect>
                        <path d="M7.1234375,1.75 C10.0910938,1.75 12.496875,4.15646875 12.496875,7.125 C12.496875,8.36114063 12.0796875,9.4998125 11.3785156,10.4078437 L14.0210469,12.9605 C14.3189531,13.2482656 14.32725,13.723 14.0395625,14.021 C13.754875,14.3158906 13.286875,14.3270312 12.9885156,14.0481875 L12.979375,14.0395 L10.3054688,11.4566406 C9.41470313,12.1124844 8.3143125,12.5 7.1234375,12.5 C4.15578125,12.5 1.75,10.0935312 1.75,7.125 C1.75,4.15646875 4.15578125,1.75 7.1234375,1.75 Z M7.1234375,3.25 C4.98395312,3.25 3.2495625,4.98489063 3.2495625,7.125 C3.2495625,9.26510937 4.98395312,11 7.1234375,11 C9.26290625,11 10.9972969,9.26510937 10.9972969,7.125 C10.9972969,4.98489063 9.26292187,3.25 7.1234375,3.25 Z" id="形状" fill="#000000" fill-rule="nonzero"></path>
                    </g>
                </g>
                <text id="分组选择器备份" font-family="PingFangSC-Regular, PingFang SC" font-size="14" font-weight="normal" fill="#000000" fill-opacity="0.85">
                    <tspan x="349" y="378">分组选择器</tspan>
                </text>
                <text id="搜索框选择器备份" font-family="PingFangSC-Regular, PingFang SC" font-size="14" font-weight="normal" fill="#000000" fill-opacity="0.85">
                    <tspan x="349" y="44">搜索框选择器</tspan>
                </text>
                <text id="Text备份-25" font-family="PingFangSC-Regular, PingFang SC" font-size="14" font-weight="normal" line-spacing="22" fill="#000000" fill-opacity="0.85">
                    <tspan x="381" y="460">联通系统集成有限公司</tspan>
                </text>
                <text id="Text备份-26" font-family="PingFangSC-Regular, PingFang SC" font-size="14" font-weight="normal" line-spacing="22" fill="#000000" fill-opacity="0.85">
                    <tspan x="381" y="488">北京分公司</tspan>
                </text>
                <text id="Text备份-27" font-family="PingFangSC-Regular, PingFang SC" font-size="14" font-weight="normal" line-spacing="22" fill="#000000" fill-opacity="0.85">
                    <tspan x="381" y="572">山东分公司</tspan>
                </text>
                <text id="Text备份-28" font-family="PingFangSC-Regular, PingFang SC" font-size="12" font-weight="normal" line-spacing="22" fill="#000000" fill-opacity="0.85">
                    <tspan x="403" y="514">XXX办公室</tspan>
                </text>
                <rect id="Rectangle备份-9" stroke-opacity="0.25" stroke="#000000" fill="#FFFFFF" x="381.5" y="533.5" width="13" height="13" rx="2"></rect>
                <rect id="Rectangle备份-10" stroke-opacity="0.25" stroke="#000000" fill="#FFFFFF" x="381.5" y="617.5" width="13" height="13" rx="2"></rect>
                <rect id="Rectangle备份-11" stroke-opacity="0.25" stroke="#000000" fill="#FFFFFF" x="381.5" y="505.5" width="13" height="13" rx="2"></rect>
                <rect id="Rectangle备份-12" stroke-opacity="0.25" stroke="#000000" fill="#FFFFFF" x="381.5" y="589.5" width="13" height="13" rx="2"></rect>
                <text id="Text备份-29" font-family="PingFangSC-Regular, PingFang SC" font-size="12" font-weight="normal" line-spacing="22" fill="#000000" fill-opacity="0.85">
                    <tspan x="403" y="598">XXX办公室</tspan>
                </text>
                <text id="Text备份-30" font-family="PingFangSC-Regular, PingFang SC" font-size="12" font-weight="normal" line-spacing="22" fill="#000000" fill-opacity="0.85">
                    <tspan x="403" y="542">XXX办公室</tspan>
                </text>
                <text id="Text备份-31" font-family="PingFangSC-Regular, PingFang SC" font-size="12" font-weight="normal" line-spacing="22" fill="#000000" fill-opacity="0.85">
                    <tspan x="403" y="626">XXX办公室</tspan>
                </text>
                <g filter="url(#filter-10)" id="下拉，展开备份-6">
                    <g transform="translate(361.000000, 450.000000)">
                        <rect id="矩形" fill="#000000" fill-rule="nonzero" opacity="0" x="0" y="0" width="12" height="12"></rect>
                        <path d="M1.42714453,3.56453906 L5.63572266,8.76114844 C5.79866016,8.96233594 6.09383203,8.99334375 6.29501953,8.83040625 C6.32046065,8.80980218 6.34367327,8.78658955 6.36427734,8.76114844 L10.5728555,3.56453906 C10.7357813,3.36336328 10.7047734,3.06819141 10.5035977,2.90525391 C10.420134,2.83766174 10.3159904,2.80078125 10.2085898,2.80078125 L1.79141016,2.80078125 C1.53254297,2.80078125 1.32266016,3.01065234 1.32266016,3.26953125 C1.32266016,3.37693327 1.35954815,3.48107695 1.42714453,3.56453906 Z" id="路径" fill="#000000" fill-rule="nonzero"></path>
                    </g>
                </g>
                <g filter="url(#filter-11)" id="下拉，展开备份-7">
                    <g transform="translate(361.000000, 478.000000)">
                        <rect id="矩形" fill="#000000" fill-rule="nonzero" opacity="0" x="0" y="0" width="12" height="12"></rect>
                        <path d="M1.42714453,3.56453906 L5.63572266,8.76114844 C5.79866016,8.96233594 6.09383203,8.99334375 6.29501953,8.83040625 C6.32046065,8.80980218 6.34367327,8.78658955 6.36427734,8.76114844 L10.5728555,3.56453906 C10.7357813,3.36336328 10.7047734,3.06819141 10.5035977,2.90525391 C10.420134,2.83766174 10.3159904,2.80078125 10.2085898,2.80078125 L1.79141016,2.80078125 C1.53254297,2.80078125 1.32266016,3.01065234 1.32266016,3.26953125 C1.32266016,3.37693327 1.35954815,3.48107695 1.42714453,3.56453906 Z" id="路径" fill="#000000" fill-rule="nonzero"></path>
                    </g>
                </g>
                <g filter="url(#filter-12)" id="下拉，展开备份-8">
                    <g transform="translate(361.000000, 562.000000)">
                        <rect id="矩形" fill="#000000" fill-rule="nonzero" opacity="0" x="0" y="0" width="12" height="12"></rect>
                        <path d="M1.42714453,3.56453906 L5.63572266,8.76114844 C5.79866016,8.96233594 6.09383203,8.99334375 6.29501953,8.83040625 C6.32046065,8.80980218 6.34367327,8.78658955 6.36427734,8.76114844 L10.5728555,3.56453906 C10.7357813,3.36336328 10.7047734,3.06819141 10.5035977,2.90525391 C10.420134,2.83766174 10.3159904,2.80078125 10.2085898,2.80078125 L1.79141016,2.80078125 C1.53254297,2.80078125 1.32266016,3.01065234 1.32266016,3.26953125 C1.32266016,3.37693327 1.35954815,3.48107695 1.42714453,3.56453906 Z" id="路径" fill="#000000" fill-rule="nonzero"></path>
                    </g>
                </g>
                <g id="矩形备份-29">
                    <use fill="black" fill-opacity="1" filter="url(#filter-14)" xlink:href="#path-13"></use>
                    <use fill="#FFFFFF" fill-rule="evenodd" xlink:href="#path-13"></use>
                </g>
                <g id="矩形备份-30">
                    <use fill="black" fill-opacity="1" filter="url(#filter-16)" xlink:href="#path-15"></use>
                    <use fill="#FFFFFF" fill-rule="evenodd" xlink:href="#path-15"></use>
                </g>
                <rect id="矩形备份-31" x="644" y="108" width="263" height="28"></rect>
                <rect id="矩形备份-32" x="644" y="442" width="263" height="28"></rect>
                <rect id="矩形备份-33" x="644" y="498" width="263" height="28"></rect>
                <rect id="矩形备份-34" x="644" y="526" width="263" height="28"></rect>
                <rect id="矩形备份-35" x="644" y="136" width="263" height="28"></rect>
                <rect id="矩形备份-36" x="644" y="164" width="263" height="28"></rect>
                <rect id="矩形备份-37" x="644" y="192" width="263" height="28"></rect>
                <rect id="矩形备份-38" x="644" y="220" width="263" height="28"></rect>
                <rect id="矩形备份-39" x="644" y="248" width="263" height="28"></rect>
                <rect id="矩形备份-40" x="644" y="276" width="263" height="28"></rect>
                <path d="M904.001075,403.5 C904.691969,403.5 905.317552,403.778306 905.77,404.230329 C906.221271,404.681174 906.5,405.304684 906.5,405.9961 L906.5,405.9961 L906.5,432.0039 C906.5,432.692064 906.218839,433.314958 905.76701,433.766361 C905.313637,434.219308 904.688217,434.5 904.001075,434.5 L904.001075,434.5 L646.998925,434.5 C646.308031,434.5 645.682448,434.221694 645.23,433.769671 C644.778729,433.318826 644.5,432.695316 644.5,432.0039 L644.5,432.0039 L644.5,405.9961 C644.5,405.307936 644.781161,404.685042 645.23299,404.233639 C645.686363,403.780692 646.311783,403.5 646.998925,403.5 L646.998925,403.5 Z" id="Rectangle-26-Copy-23备份" stroke="#B30000" fill="#FFFFFF"></path>
                <g id="下拉备份-5" transform="translate(885.000000, 411.000000)" fill-rule="nonzero">
                    <rect id="矩形" fill="#000000" opacity="0" x="0" y="0" width="16" height="16"></rect>
                    <path d="M14.035375,4.56342188 C14.3282656,4.8563125 14.3282656,5.3311875 14.035375,5.62407813 L8.4448125,11.2146406 C8.20071875,11.4586875 7.80501562,11.4587031 7.56090625,11.2146719 L1.96965625,5.6240625 C1.67678125,5.33117188 1.67678125,4.85629688 1.96965625,4.56340625 C2.25964063,4.2734375 2.72795312,4.27054688 3.02148438,4.55470313 L3.03032813,4.56340625 L8.00251563,9.53559375 L12.9747031,4.56340625 C13.2676094,4.27051563 13.7424844,4.27051563 14.035375,4.56340625 L14.035375,4.56342188 Z" id="路径" fill="#ACAFB9"></path>
                </g>
                <rect id="矩形备份-41" fill="#FFF1F0" x="644" y="470" width="263" height="28"></rect>
                <text id="Text备份-20" font-family="PingFangSC-Regular, PingFang SC" font-size="14" font-weight="normal" line-spacing="22" fill="#000000" fill-opacity="0.85">
                    <tspan x="656" y="460">标签1</tspan>
                </text>
                <g id="对勾，正确，确认，勾选备份-2" transform="translate(885.000000, 448.000000)" fill-rule="nonzero">
                    <rect id="矩形" fill="#000000" opacity="0" x="0" y="0" width="16" height="16"></rect>
                    <path d="M13.1670156,3.84067188 C13.4840313,4.09723438 13.5357188,4.56015625 13.28525,4.88009375 L13.2762813,4.89132813 L7.341875,12.1425 C7.12326563,12.409625 6.72948438,12.4489531 6.46235938,12.2303281 C6.43100926,12.2046702 6.40222803,12.1760251 6.37642188,12.1447969 L2.73848437,7.74248438 C2.474625,7.4231875 2.51957812,6.95045313 2.838875,6.68657813 C3.15496875,6.42535938 3.62146875,6.46679688 3.88678125,6.77746875 L3.89476562,6.78696875 L6.8484375,10.36125 L12.108375,3.94871875 C12.3715781,3.62784375 12.8444219,3.57957813 13.1670156,3.84067188 Z" id="路径" fill="#44BF30"></path>
                </g>
                <g id="对勾，正确，确认，勾选备份-3" transform="translate(885.000000, 476.000000)" fill-rule="nonzero">
                    <rect id="矩形" fill="#000000" opacity="0" x="0" y="0" width="16" height="16"></rect>
                    <path d="M13.1670156,3.84067188 C13.4840313,4.09723438 13.5357188,4.56015625 13.28525,4.88009375 L13.2762813,4.89132813 L7.341875,12.1425 C7.12326563,12.409625 6.72948438,12.4489531 6.46235938,12.2303281 C6.43100926,12.2046702 6.40222803,12.1760251 6.37642188,12.1447969 L2.73848437,7.74248438 C2.474625,7.4231875 2.51957812,6.95045313 2.838875,6.68657813 C3.15496875,6.42535938 3.62146875,6.46679688 3.88678125,6.77746875 L3.89476562,6.78696875 L6.8484375,10.36125 L12.108375,3.94871875 C12.3715781,3.62784375 12.8444219,3.57957813 13.1670156,3.84067188 Z" id="路径" fill="#44BF30"></path>
                </g>
                <text id="Text备份-21" font-family="PingFangSC-Regular, PingFang SC" font-size="14" font-weight="normal" line-spacing="22" fill="#000000" fill-opacity="0.85">
                    <tspan x="656" y="488">标签2</tspan>
                </text>
                <text id="Text备份-22" font-family="PingFangSC-Regular, PingFang SC" font-size="14" font-weight="normal" line-spacing="22" fill="#000000" fill-opacity="0.85">
                    <tspan x="656" y="516">标签3</tspan>
                </text>
                <text id="Text备份-23" font-family="PingFangSC-Regular, PingFang SC" font-size="14" font-weight="normal" line-spacing="22" fill="#000000" fill-opacity="0.85">
                    <tspan x="656" y="544">标签4</tspan>
                </text>
                <text id="标签选择器备份" font-family="PingFangSC-Regular, PingFang SC" font-size="14" font-weight="normal" fill="#000000" fill-opacity="0.85">
                    <tspan x="644" y="378">标签选择器</tspan>
                </text>
                <text id="多选选择器备份" font-family="PingFangSC-Regular, PingFang SC" font-size="14" font-weight="normal" fill="#000000" fill-opacity="0.85">
                    <tspan x="644" y="44">多选选择器</tspan>
                </text>
                <path d="M904.996949,69.5 C905.412748,69.5 905.789347,69.6669997 906.061585,69.9390592 C906.332802,70.2100995 906.5,70.5851881 906.5,71.0017433 L906.5,71.0017433 L906.5,98.9982567 C906.5,99.4125115 906.331164,99.7874494 906.059374,100.059062 C905.786949,100.331309 905.410962,100.5 904.996949,100.5 L904.996949,100.5 L646.003051,100.5 C645.587252,100.5 645.210653,100.333 644.938415,100.060941 C644.667198,99.7899005 644.5,99.4148119 644.5,98.9982567 L644.5,98.9982567 L644.5,71.0017433 C644.5,70.5874885 644.668836,70.2125506 644.940626,69.940938 C645.213051,69.6686911 645.589038,69.5 646.003051,69.5 L646.003051,69.5 Z" id="Rectangle-26-Copy-23备份-2" stroke="#B30000" fill="#FFFFFF"></path>
                <text id="Text备份-24" font-family="PingFangSC-Regular, PingFang SC" font-size="14" font-weight="normal" line-spacing="22" fill="#000000" fill-opacity="0.85">
                    <tspan x="676" y="126">联通系统集成有限公司</tspan>
                </text>
                <text id="Text备份-25" font-family="PingFangSC-Regular, PingFang SC" font-size="14" font-weight="normal" line-spacing="22" fill="#000000" fill-opacity="0.85">
                    <tspan x="676" y="154">北京分公司</tspan>
                </text>
                <text id="Text备份-26" font-family="PingFangSC-Regular, PingFang SC" font-size="14" font-weight="normal" line-spacing="22" fill="#000000" fill-opacity="0.85">
                    <tspan x="676" y="238">山东分公司</tspan>
                </text>
                <text id="Text备份-27" font-family="PingFangSC-Regular, PingFang SC" font-size="12" font-weight="normal" line-spacing="22" fill="#000000" fill-opacity="0.85">
                    <tspan x="698" y="180">XXX办公室</tspan>
                </text>
                <rect id="Rectangle备份-9" stroke-opacity="0.25" stroke="#000000" fill="#FFFFFF" x="676.5" y="199.5" width="13" height="13" rx="2"></rect>
                <rect id="Rectangle备份-10" stroke-opacity="0.25" stroke="#000000" fill="#FFFFFF" x="676.5" y="283.5" width="13" height="13" rx="2"></rect>
                <rect id="Rectangle备份-11" stroke-opacity="0.25" stroke="#000000" fill="#FFFFFF" x="676.5" y="171.5" width="13" height="13" rx="2"></rect>
                <rect id="Rectangle备份-12" stroke-opacity="0.25" stroke="#000000" fill="#FFFFFF" x="676.5" y="255.5" width="13" height="13" rx="2"></rect>
                <text id="Text备份-28" font-family="PingFangSC-Regular, PingFang SC" font-size="12" font-weight="normal" line-spacing="22" fill="#000000" fill-opacity="0.85">
                    <tspan x="698" y="264">XXX办公室</tspan>
                </text>
                <text id="Text备份-29" font-family="PingFangSC-Regular, PingFang SC" font-size="12" font-weight="normal" line-spacing="22" fill="#000000" fill-opacity="0.85">
                    <tspan x="698" y="208">XXX办公室</tspan>
                </text>
                <text id="Text备份-30" font-family="PingFangSC-Regular, PingFang SC" font-size="12" font-weight="normal" line-spacing="22" fill="#000000" fill-opacity="0.85">
                    <tspan x="698" y="292">XXX办公室</tspan>
                </text>
                <text id="Text备份-31" font-family="PingFangSC-Regular, PingFang SC" font-size="14" font-weight="normal" line-spacing="22" fill="#000000" fill-opacity="0.35">
                    <tspan x="654" y="89">请选择</tspan>
                </text>
                <g filter="url(#filter-17)" id="下拉，展开备份-6">
                    <g transform="translate(656.000000, 116.000000)">
                        <rect id="矩形" fill="#000000" fill-rule="nonzero" opacity="0" x="0" y="0" width="12" height="12"></rect>
                        <path d="M1.42714453,3.56453906 L5.63572266,8.76114844 C5.79866016,8.96233594 6.09383203,8.99334375 6.29501953,8.83040625 C6.32046065,8.80980218 6.34367327,8.78658955 6.36427734,8.76114844 L10.5728555,3.56453906 C10.7357813,3.36336328 10.7047734,3.06819141 10.5035977,2.90525391 C10.420134,2.83766174 10.3159904,2.80078125 10.2085898,2.80078125 L1.79141016,2.80078125 C1.53254297,2.80078125 1.32266016,3.01065234 1.32266016,3.26953125 C1.32266016,3.37693327 1.35954815,3.48107695 1.42714453,3.56453906 Z" id="路径" fill="#000000" fill-rule="nonzero"></path>
                    </g>
                </g>
                <g filter="url(#filter-18)" id="下拉，展开备份-7">
                    <g transform="translate(656.000000, 144.000000)">
                        <rect id="矩形" fill="#000000" fill-rule="nonzero" opacity="0" x="0" y="0" width="12" height="12"></rect>
                        <path d="M1.42714453,3.56453906 L5.63572266,8.76114844 C5.79866016,8.96233594 6.09383203,8.99334375 6.29501953,8.83040625 C6.32046065,8.80980218 6.34367327,8.78658955 6.36427734,8.76114844 L10.5728555,3.56453906 C10.7357813,3.36336328 10.7047734,3.06819141 10.5035977,2.90525391 C10.420134,2.83766174 10.3159904,2.80078125 10.2085898,2.80078125 L1.79141016,2.80078125 C1.53254297,2.80078125 1.32266016,3.01065234 1.32266016,3.26953125 C1.32266016,3.37693327 1.35954815,3.48107695 1.42714453,3.56453906 Z" id="路径" fill="#000000" fill-rule="nonzero"></path>
                    </g>
                </g>
                <g filter="url(#filter-19)" id="下拉，展开备份-8">
                    <g transform="translate(656.000000, 228.000000)">
                        <rect id="矩形" fill="#000000" fill-rule="nonzero" opacity="0" x="0" y="0" width="12" height="12"></rect>
                        <path d="M1.42714453,3.56453906 L5.63572266,8.76114844 C5.79866016,8.96233594 6.09383203,8.99334375 6.29501953,8.83040625 C6.32046065,8.80980218 6.34367327,8.78658955 6.36427734,8.76114844 L10.5728555,3.56453906 C10.7357813,3.36336328 10.7047734,3.06819141 10.5035977,2.90525391 C10.420134,2.83766174 10.3159904,2.80078125 10.2085898,2.80078125 L1.79141016,2.80078125 C1.53254297,2.80078125 1.32266016,3.01065234 1.32266016,3.26953125 C1.32266016,3.37693327 1.35954815,3.48107695 1.42714453,3.56453906 Z" id="路径" fill="#000000" fill-rule="nonzero"></path>
                    </g>
                </g>
                <g filter="url(#filter-20)" id="搜索，放大镜备份-2">
                    <g transform="translate(883.000000, 77.000000)">
                        <rect id="矩形" fill="#000000" fill-rule="nonzero" opacity="0" x="0" y="0" width="16" height="16"></rect>
                        <path d="M7.1234375,1.75 C10.0910938,1.75 12.496875,4.15646875 12.496875,7.125 C12.496875,8.36114063 12.0796875,9.4998125 11.3785156,10.4078437 L14.0210469,12.9605 C14.3189531,13.2482656 14.32725,13.723 14.0395625,14.021 C13.754875,14.3158906 13.286875,14.3270312 12.9885156,14.0481875 L12.979375,14.0395 L10.3054688,11.4566406 C9.41470313,12.1124844 8.3143125,12.5 7.1234375,12.5 C4.15578125,12.5 1.75,10.0935312 1.75,7.125 C1.75,4.15646875 4.15578125,1.75 7.1234375,1.75 Z M7.1234375,3.25 C4.98395312,3.25 3.2495625,4.98489063 3.2495625,7.125 C3.2495625,9.26510937 4.98395312,11 7.1234375,11 C9.26290625,11 10.9972969,9.26510937 10.9972969,7.125 C10.9972969,4.98489063 9.26292187,3.25 7.1234375,3.25 Z" id="形状" fill="#000000" fill-rule="nonzero"></path>
                    </g>
                </g>
                <rect id="Rectangle备份-13" stroke="#C8CAD1" fill="#E9EBF0" x="656" y="408" width="65" height="22" rx="3"></rect>
                <rect id="Rectangle备份-14" stroke="#C8CAD1" fill="#E9EBF0" x="729" y="408" width="68" height="22" rx="3"></rect>
                <text id="Text备份-32" font-family="PingFangSC-Regular, PingFang SC" font-size="12" font-weight="normal" line-spacing="20" fill="#000000" fill-opacity="0.65">
                    <tspan x="664" y="422">标签1</tspan>
                </text>
                <text id="Text备份-33" font-family="PingFangSC-Regular, PingFang SC" font-size="12" font-weight="normal" line-spacing="20" fill="#000000" fill-opacity="0.65">
                    <tspan x="737" y="422">标签2</tspan>
                </text>
                <g filter="url(#filter-21)" id="叉号，删除，关闭备份-2">
                    <g transform="translate(701.000000, 413.000000)">
                        <rect id="矩形" fill="#000000" fill-rule="nonzero" opacity="0" x="0" y="0" width="12" height="12"></rect>
                        <path d="M8.90585156,2.38734375 C9.12551953,2.16767578 9.48167578,2.16767578 9.70134375,2.38734375 C9.91882031,2.60482031 9.92098828,2.95605469 9.70787109,3.17621484 L9.70134375,3.18283594 L6.79194141,6.09225 L9.70871484,9.00901172 C9.92838281,9.22867969 9.92838281,9.58483594 9.70871484,9.80450391 C9.48904688,10.0241719 9.13289063,10.0241719 8.91322266,9.80450391 L5.99644922,6.88773047 L3.08879297,9.79538672 C2.87131641,10.0128633 2.52008203,10.015043 2.29992187,9.80191406 L2.29328906,9.79539844 C2.07582422,9.57792188 2.07364453,9.2266875 2.28677344,9.00652734 L2.29328906,8.99989453 L5.20094531,6.09223828 L2.30067187,3.19195313 C2.08100391,2.97227344 2.08100391,2.61612891 2.30067187,2.39644922 C2.52033984,2.17678125 2.87649609,2.17678125 3.09616406,2.39644922 L5.9964375,5.29673438 L8.90585156,2.38734375 Z" id="路径" fill="#000000" fill-rule="nonzero"></path>
                    </g>
                </g>
                <g filter="url(#filter-22)" id="叉号，删除，关闭备份-3">
                    <g transform="translate(777.000000, 413.000000)">
                        <rect id="矩形" fill="#000000" fill-rule="nonzero" opacity="0" x="0" y="0" width="12" height="12"></rect>
                        <path d="M8.90585156,2.38734375 C9.12551953,2.16767578 9.48167578,2.16767578 9.70134375,2.38734375 C9.91882031,2.60482031 9.92098828,2.95605469 9.70787109,3.17621484 L9.70134375,3.18283594 L6.79194141,6.09225 L9.70871484,9.00901172 C9.92838281,9.22867969 9.92838281,9.58483594 9.70871484,9.80450391 C9.48904688,10.0241719 9.13289063,10.0241719 8.91322266,9.80450391 L5.99644922,6.88773047 L3.08879297,9.79538672 C2.87131641,10.0128633 2.52008203,10.015043 2.29992187,9.80191406 L2.29328906,9.79539844 C2.07582422,9.57792188 2.07364453,9.2266875 2.28677344,9.00652734 L2.29328906,8.99989453 L5.20094531,6.09223828 L2.30067187,3.19195313 C2.08100391,2.97227344 2.08100391,2.61612891 2.30067187,2.39644922 C2.52033984,2.17678125 2.87649609,2.17678125 3.09616406,2.39644922 L5.9964375,5.29673438 L8.90585156,2.38734375 Z" id="路径" fill="#000000" fill-rule="nonzero"></path>
                    </g>
                </g>
            </g>
        </g>
    </g>
</svg>