<?xml version="1.0" encoding="UTF-8"?>
<svg width="960px" height="301px" viewBox="0 0 960 301" version="1.1" xmlns="http://www.w3.org/2000/svg" xmlns:xlink="http://www.w3.org/1999/xlink">
    <title>6</title>
    <defs>
        <filter id="filter-1">
            <feColorMatrix in="SourceGraphic" type="matrix" values="0 0 0 0 0.674510 0 0 0 0 0.686275 0 0 0 0 0.725490 0 0 0 1.000000 0"></feColorMatrix>
        </filter>
        <filter id="filter-2">
            <feColorMatrix in="SourceGraphic" type="matrix" values="0 0 0 0 0.674510 0 0 0 0 0.686275 0 0 0 0 0.725490 0 0 0 1.000000 0"></feColorMatrix>
        </filter>
        <filter id="filter-3">
            <feColorMatrix in="SourceGraphic" type="matrix" values="0 0 0 0 0.674510 0 0 0 0 0.686275 0 0 0 0 0.725490 0 0 0 1.000000 0"></feColorMatrix>
        </filter>
        <filter id="filter-4">
            <feColorMatrix in="SourceGraphic" type="matrix" values="0 0 0 0 0.674510 0 0 0 0 0.686275 0 0 0 0 0.725490 0 0 0 1.000000 0"></feColorMatrix>
        </filter>
        <filter id="filter-5">
            <feColorMatrix in="SourceGraphic" type="matrix" values="0 0 0 0 0.674510 0 0 0 0 0.686275 0 0 0 0 0.725490 0 0 0 1.000000 0"></feColorMatrix>
        </filter>
        <filter id="filter-6">
            <feColorMatrix in="SourceGraphic" type="matrix" values="0 0 0 0 0.674510 0 0 0 0 0.686275 0 0 0 0 0.725490 0 0 0 1.000000 0"></feColorMatrix>
        </filter>
        <filter id="filter-7">
            <feColorMatrix in="SourceGraphic" type="matrix" values="0 0 0 0 0.674510 0 0 0 0 0.686275 0 0 0 0 0.725490 0 0 0 1.000000 0"></feColorMatrix>
        </filter>
        <filter id="filter-8">
            <feColorMatrix in="SourceGraphic" type="matrix" values="0 0 0 0 0.674510 0 0 0 0 0.686275 0 0 0 0 0.725490 0 0 0 1.000000 0"></feColorMatrix>
        </filter>
        <filter id="filter-9">
            <feColorMatrix in="SourceGraphic" type="matrix" values="0 0 0 0 0.674510 0 0 0 0 0.686275 0 0 0 0 0.725490 0 0 0 1.000000 0"></feColorMatrix>
        </filter>
    </defs>
    <g id="📁设计师模式" stroke="none" stroke-width="1" fill="none" fill-rule="evenodd">
        <g id="组件设计规范备份-数据录入备份" transform="translate(-299.000000, -5222.000000)">
            <g id="6" transform="translate(299.000000, 5222.000000)">
                <rect id="矩形备份-108" stroke="#E8E7E7" x="0.5" y="0.5" width="959" height="300"></rect>
                <text id="日期选择" font-family="PingFangSC-Regular, PingFang SC" font-size="14" font-weight="normal" line-spacing="22" fill="#000000" fill-opacity="0.65">
                    <tspan x="14" y="83">日期选择</tspan>
                </text>
                <path d="M304.994414,98.5 C305.687277,98.5 306.314691,98.7783976 306.768446,99.2307203 C307.220618,99.6814657 307.5,100.304811 307.5,100.9961 L307.5,100.9961 L307.5,127.0039 C307.5,127.693254 307.220048,128.3173 306.766994,128.768925 C306.313698,129.22079 305.687214,129.5 304.994414,129.5 L304.994414,129.5 L17.0055859,129.5 C16.3127231,129.5 15.6853089,129.221602 15.2315541,128.76928 C14.7793817,128.318534 14.5,127.695189 14.5,127.0039 L14.5,127.0039 L14.5,100.9961 C14.5,100.306746 14.7799518,99.6827001 15.2330063,99.2310755 C15.6863021,98.7792103 16.3127858,98.5 17.0055859,98.5 L17.0055859,98.5 Z" id="Rectangle-26-Copy-23备份" stroke="#C8CAD1" fill="#E9EBF0"></path>
                <text id="不可编辑文字" font-family="PingFangSC-Regular, PingFang SC" font-size="14" font-weight="normal" line-spacing="22" fill="#000000" fill-opacity="0.45">
                    <tspan x="26" y="118">不可编辑文字</tspan>
                </text>
                <text id="日期选择" font-family="PingFangSC-Regular, PingFang SC" font-size="14" font-weight="normal" line-spacing="22" fill="#000000" fill-opacity="0.65">
                    <tspan x="650" y="83">日期选择</tspan>
                </text>
                <path d="M940.994414,98.5 C941.687277,98.5 942.314691,98.7783976 942.768446,99.2307203 C943.220618,99.6814657 943.5,100.304811 943.5,100.9961 L943.5,100.9961 L943.5,127.0039 C943.5,127.693254 943.220048,128.3173 942.766994,128.768925 C942.313698,129.22079 941.687214,129.5 940.994414,129.5 L940.994414,129.5 L653.005586,129.5 C652.312723,129.5 651.685309,129.221602 651.231554,128.76928 C650.779382,128.318534 650.5,127.695189 650.5,127.0039 L650.5,127.0039 L650.5,100.9961 C650.5,100.306746 650.779952,99.6827001 651.233006,99.2310755 C651.686302,98.7792103 652.312786,98.5 653.005586,98.5 L653.005586,98.5 Z" id="Rectangle-26-Copy-23备份-3" stroke="#ACAFB9" fill="#FFFFFF"></path>
                <g id="待办中心，打卡，日程" transform="translate(920.000000, 106.000000)" filter="url(#filter-1)">
                    <g>
                        <rect id="矩形" fill="#000000" fill-rule="nonzero" opacity="0" x="0" y="0" width="16" height="16"></rect>
                        <path d="M14.25,6.40721875 L14.25,13.625 C14.25,13.9701719 13.9701719,14.25 13.625,14.25 L2.375,14.25 C2.02982812,14.25 1.75,13.9701719 1.75,13.625 L1.75,6.40721875 L14.25,6.40721875 Z M11.0275781,7.73315625 C10.7620469,7.51803125 10.3736719,7.55632812 10.1550781,7.81735937 L10.1485156,7.82532812 L7.29229687,11.3507813 L5.85992187,9.589375 C5.64215625,9.3215625 5.24851562,9.28101562 4.98070312,9.49878125 C4.7155625,9.71439063 4.67317187,10.1023594 4.88365625,10.3699375 L4.89010937,10.3780156 L6.80829687,12.7368594 C6.83554976,12.7703706 6.86620317,12.8009664 6.89976563,12.8281562 C7.16528125,13.0432812 7.55367188,13.0049844 7.77226563,12.7439531 L7.77882813,12.7359844 L11.1197656,8.61223437 C11.3370469,8.34401562 11.2957813,7.95045312 11.0275781,7.73317187 L11.0275781,7.73315625 Z M11.375,1.765625 C11.7201719,1.765625 12,2.04545312 12,2.390625 L12,2.84375 L13.625,2.84375 C13.9701719,2.84375 14.25,3.12357812 14.25,3.46875 L14.25,5.40721875 L1.75,5.40721875 L1.75,3.46875 C1.75,3.12357812 2.02982812,2.84375 2.375,2.84375 L4.03125,2.84375 L4.03125,2.390625 C4.03125,2.04545312 4.31107812,1.765625 4.65625,1.765625 C5.00142188,1.765625 5.28125,2.04545312 5.28125,2.390625 L5.28125,2.84375 L10.75,2.84375 L10.75,2.390625 C10.75,2.04545312 11.0298281,1.765625 11.375,1.765625 Z" id="形状" fill="#000000" fill-rule="nonzero"></path>
                    </g>
                </g>
                <text id="开始日期" font-family="PingFangSC-Regular, PingFang SC" font-size="14" font-weight="normal" line-spacing="22" fill="#000000" fill-opacity="0.35">
                    <tspan x="662" y="118">开始日期</tspan>
                </text>
                <text id="日期选择" font-family="PingFangSC-Regular, PingFang SC" font-size="14" font-weight="normal" line-spacing="22" fill="#000000" fill-opacity="0.65">
                    <tspan x="332" y="83">日期选择</tspan>
                </text>
                <path d="M622.994414,98.5 C623.687277,98.5 624.314691,98.7783976 624.768446,99.2307203 C625.220618,99.6814657 625.5,100.304811 625.5,100.9961 L625.5,100.9961 L625.5,127.0039 C625.5,127.693254 625.220048,128.3173 624.766994,128.768925 C624.313698,129.22079 623.687214,129.5 622.994414,129.5 L622.994414,129.5 L335.005586,129.5 C334.312723,129.5 333.685309,129.221602 333.231554,128.76928 C332.779382,128.318534 332.5,127.695189 332.5,127.0039 L332.5,127.0039 L332.5,100.9961 C332.5,100.306746 332.779952,99.6827001 333.233006,99.2310755 C333.686302,98.7792103 334.312786,98.5 335.005586,98.5 L335.005586,98.5 Z" id="Rectangle-26-Copy-23备份-2" stroke="#ACAFB9" fill="#FFFFFF"></path>
                <g id="待办中心，打卡，日程" transform="translate(602.000000, 106.000000)" filter="url(#filter-2)">
                    <g>
                        <rect id="矩形" fill="#000000" fill-rule="nonzero" opacity="0" x="0" y="0" width="16" height="16"></rect>
                        <path d="M14.25,6.40721875 L14.25,13.625 C14.25,13.9701719 13.9701719,14.25 13.625,14.25 L2.375,14.25 C2.02982812,14.25 1.75,13.9701719 1.75,13.625 L1.75,6.40721875 L14.25,6.40721875 Z M11.0275781,7.73315625 C10.7620469,7.51803125 10.3736719,7.55632812 10.1550781,7.81735937 L10.1485156,7.82532812 L7.29229687,11.3507813 L5.85992187,9.589375 C5.64215625,9.3215625 5.24851562,9.28101562 4.98070312,9.49878125 C4.7155625,9.71439063 4.67317187,10.1023594 4.88365625,10.3699375 L4.89010937,10.3780156 L6.80829687,12.7368594 C6.83554976,12.7703706 6.86620317,12.8009664 6.89976563,12.8281562 C7.16528125,13.0432812 7.55367188,13.0049844 7.77226563,12.7439531 L7.77882813,12.7359844 L11.1197656,8.61223437 C11.3370469,8.34401562 11.2957813,7.95045312 11.0275781,7.73317187 L11.0275781,7.73315625 Z M11.375,1.765625 C11.7201719,1.765625 12,2.04545312 12,2.390625 L12,2.84375 L13.625,2.84375 C13.9701719,2.84375 14.25,3.12357812 14.25,3.46875 L14.25,5.40721875 L1.75,5.40721875 L1.75,3.46875 C1.75,3.12357812 2.02982812,2.84375 2.375,2.84375 L4.03125,2.84375 L4.03125,2.390625 C4.03125,2.04545312 4.31107812,1.765625 4.65625,1.765625 C5.00142188,1.765625 5.28125,2.04545312 5.28125,2.390625 L5.28125,2.84375 L10.75,2.84375 L10.75,2.390625 C10.75,2.04545312 11.0298281,1.765625 11.375,1.765625 Z" id="形状" fill="#000000" fill-rule="nonzero"></path>
                    </g>
                </g>
                <text id="2020-01-04" font-family="PingFangSC-Regular, PingFang SC" font-size="14" font-weight="normal" line-spacing="22" fill="#000000" fill-opacity="0.85">
                    <tspan x="344" y="118">2020-01-04</tspan>
                </text>
                <text id="不可选" font-family="PingFangSC-Regular, PingFang SC" font-size="14" font-weight="normal" fill="#000000" fill-opacity="0.85">
                    <tspan x="14" y="32">不可选</tspan>
                </text>
                <text id="已选" font-family="PingFangSC-Regular, PingFang SC" font-size="14" font-weight="normal" fill="#000000" fill-opacity="0.85">
                    <tspan x="332" y="32">已选</tspan>
                </text>
                <text id="未选" font-family="PingFangSC-Regular, PingFang SC" font-size="14" font-weight="normal" fill="#000000" fill-opacity="0.85">
                    <tspan x="650" y="32">未选</tspan>
                </text>
                <g id="待办中心，打卡，日程" transform="translate(284.000000, 106.000000)" filter="url(#filter-3)">
                    <g>
                        <rect id="矩形" fill="#000000" fill-rule="nonzero" opacity="0" x="0" y="0" width="16" height="16"></rect>
                        <path d="M14.25,6.40721875 L14.25,13.625 C14.25,13.9701719 13.9701719,14.25 13.625,14.25 L2.375,14.25 C2.02982812,14.25 1.75,13.9701719 1.75,13.625 L1.75,6.40721875 L14.25,6.40721875 Z M11.0275781,7.73315625 C10.7620469,7.51803125 10.3736719,7.55632812 10.1550781,7.81735937 L10.1485156,7.82532812 L7.29229687,11.3507813 L5.85992187,9.589375 C5.64215625,9.3215625 5.24851562,9.28101562 4.98070312,9.49878125 C4.7155625,9.71439063 4.67317187,10.1023594 4.88365625,10.3699375 L4.89010937,10.3780156 L6.80829687,12.7368594 C6.83554976,12.7703706 6.86620317,12.8009664 6.89976563,12.8281562 C7.16528125,13.0432812 7.55367188,13.0049844 7.77226563,12.7439531 L7.77882813,12.7359844 L11.1197656,8.61223437 C11.3370469,8.34401562 11.2957813,7.95045312 11.0275781,7.73317187 L11.0275781,7.73315625 Z M11.375,1.765625 C11.7201719,1.765625 12,2.04545312 12,2.390625 L12,2.84375 L13.625,2.84375 C13.9701719,2.84375 14.25,3.12357812 14.25,3.46875 L14.25,5.40721875 L1.75,5.40721875 L1.75,3.46875 C1.75,3.12357812 2.02982812,2.84375 2.375,2.84375 L4.03125,2.84375 L4.03125,2.390625 C4.03125,2.04545312 4.31107812,1.765625 4.65625,1.765625 C5.00142188,1.765625 5.28125,2.04545312 5.28125,2.390625 L5.28125,2.84375 L10.75,2.84375 L10.75,2.390625 C10.75,2.04545312 11.0298281,1.765625 11.375,1.765625 Z" id="形状" fill="#000000" fill-rule="nonzero"></path>
                    </g>
                </g>
                <text id="开始日期与结束日期选择" font-family="PingFangSC-Regular, PingFang SC" font-size="14" font-weight="normal" line-spacing="22" fill="#000000" fill-opacity="0.65">
                    <tspan x="15" y="193">开始日期与结束日期选择</tspan>
                </text>
                <path d="M161.5,208.5 L161.5,239.5 L18.0029932,239.5 C17.3108968,239.5 16.6841954,239.221638 16.230949,238.769432 C15.7791277,238.318648 15.5,237.695238 15.5,237.0039 L15.5,237.0039 L15.5,210.9961 C15.5,210.306295 15.7791193,209.681783 16.2319198,209.230022 C16.6842855,208.778695 17.3098272,208.5 18.0029932,208.5 L18.0029932,208.5 L161.5,208.5 Z" id="Rectangle-26-Copy-23备份-2" stroke="#C8CAD1" fill="#E9EBF0"></path>
                <g id="待办中心，打卡，日程" transform="translate(137.000000, 216.000000)" filter="url(#filter-4)">
                    <g>
                        <rect id="矩形" fill="#000000" fill-rule="nonzero" opacity="0" x="0" y="0" width="16" height="16"></rect>
                        <path d="M14.25,6.40721875 L14.25,13.625 C14.25,13.9701719 13.9701719,14.25 13.625,14.25 L2.375,14.25 C2.02982812,14.25 1.75,13.9701719 1.75,13.625 L1.75,6.40721875 L14.25,6.40721875 Z M11.0275781,7.73315625 C10.7620469,7.51803125 10.3736719,7.55632812 10.1550781,7.81735937 L10.1485156,7.82532812 L7.29229687,11.3507813 L5.85992187,9.589375 C5.64215625,9.3215625 5.24851562,9.28101562 4.98070312,9.49878125 C4.7155625,9.71439063 4.67317187,10.1023594 4.88365625,10.3699375 L4.89010937,10.3780156 L6.80829687,12.7368594 C6.83554976,12.7703706 6.86620317,12.8009664 6.89976563,12.8281562 C7.16528125,13.0432812 7.55367188,13.0049844 7.77226563,12.7439531 L7.77882813,12.7359844 L11.1197656,8.61223437 C11.3370469,8.34401562 11.2957813,7.95045312 11.0275781,7.73317187 L11.0275781,7.73315625 Z M11.375,1.765625 C11.7201719,1.765625 12,2.04545312 12,2.390625 L12,2.84375 L13.625,2.84375 C13.9701719,2.84375 14.25,3.12357812 14.25,3.46875 L14.25,5.40721875 L1.75,5.40721875 L1.75,3.46875 C1.75,3.12357812 2.02982812,2.84375 2.375,2.84375 L4.03125,2.84375 L4.03125,2.390625 C4.03125,2.04545312 4.31107812,1.765625 4.65625,1.765625 C5.00142188,1.765625 5.28125,2.04545312 5.28125,2.390625 L5.28125,2.84375 L10.75,2.84375 L10.75,2.390625 C10.75,2.04545312 11.0298281,1.765625 11.375,1.765625 Z" id="形状" fill="#000000" fill-rule="nonzero"></path>
                    </g>
                </g>
                <path d="M161.5,208.5 L305.993411,208.5 C306.68657,208.5 307.31426,208.778411 307.768212,209.230779 C308.22052,209.68151 308.5,210.304831 308.5,210.9961 L308.5,210.9961 L308.5,237.0039 C308.5,237.69282 308.219355,238.316424 307.766266,238.767933 C307.312336,239.220279 306.685336,239.5 305.993411,239.5 L305.993411,239.5 L161.5,239.5 L161.5,208.5 Z" id="Rectangle-26-Copy-23备份-4" stroke="#C8CAD1" fill="#E9EBF0"></path>
                <g id="待办中心，打卡，日程" transform="translate(285.000000, 216.000000)" filter="url(#filter-5)">
                    <g>
                        <rect id="矩形" fill="#000000" fill-rule="nonzero" opacity="0" x="0" y="0" width="16" height="16"></rect>
                        <path d="M14.25,6.40721875 L14.25,13.625 C14.25,13.9701719 13.9701719,14.25 13.625,14.25 L2.375,14.25 C2.02982812,14.25 1.75,13.9701719 1.75,13.625 L1.75,6.40721875 L14.25,6.40721875 Z M11.0275781,7.73315625 C10.7620469,7.51803125 10.3736719,7.55632812 10.1550781,7.81735937 L10.1485156,7.82532812 L7.29229687,11.3507813 L5.85992187,9.589375 C5.64215625,9.3215625 5.24851562,9.28101562 4.98070312,9.49878125 C4.7155625,9.71439063 4.67317187,10.1023594 4.88365625,10.3699375 L4.89010937,10.3780156 L6.80829687,12.7368594 C6.83554976,12.7703706 6.86620317,12.8009664 6.89976563,12.8281562 C7.16528125,13.0432812 7.55367188,13.0049844 7.77226563,12.7439531 L7.77882813,12.7359844 L11.1197656,8.61223437 C11.3370469,8.34401562 11.2957813,7.95045312 11.0275781,7.73317187 L11.0275781,7.73315625 Z M11.375,1.765625 C11.7201719,1.765625 12,2.04545312 12,2.390625 L12,2.84375 L13.625,2.84375 C13.9701719,2.84375 14.25,3.12357812 14.25,3.46875 L14.25,5.40721875 L1.75,5.40721875 L1.75,3.46875 C1.75,3.12357812 2.02982812,2.84375 2.375,2.84375 L4.03125,2.84375 L4.03125,2.390625 C4.03125,2.04545312 4.31107812,1.765625 4.65625,1.765625 C5.00142188,1.765625 5.28125,2.04545312 5.28125,2.390625 L5.28125,2.84375 L10.75,2.84375 L10.75,2.390625 C10.75,2.04545312 11.0298281,1.765625 11.375,1.765625 Z" id="形状" fill="#000000" fill-rule="nonzero"></path>
                    </g>
                </g>
                <text id="YYYY/MM" font-family="PingFangSC-Regular, PingFang SC" font-size="14" font-weight="normal" line-spacing="22" fill="#000000" fill-opacity="0.45">
                    <tspan x="27" y="228">YYYY/MM</tspan>
                </text>
                <text id="YYYY/MM备份-2" font-family="PingFangSC-Regular, PingFang SC" font-size="14" font-weight="normal" line-spacing="22" fill="#000000" fill-opacity="0.45">
                    <tspan x="173" y="228">YYYY/MM</tspan>
                </text>
                <text id="开始日期与结束日期选择" font-family="PingFangSC-Regular, PingFang SC" font-size="14" font-weight="normal" line-spacing="22" fill="#000000" fill-opacity="0.65">
                    <tspan x="332" y="193">开始日期与结束日期选择</tspan>
                </text>
                <path d="M478.5,208.5 L478.5,239.5 L335.002993,239.5 C334.310897,239.5 333.684195,239.221638 333.230949,238.769432 C332.779128,238.318648 332.5,237.695238 332.5,237.0039 L332.5,237.0039 L332.5,210.9961 C332.5,210.306295 332.779119,209.681783 333.23192,209.230022 C333.684285,208.778695 334.309827,208.5 335.002993,208.5 L335.002993,208.5 L478.5,208.5 Z" id="Rectangle-26-Copy-23备份-2" stroke="#ACAFB9" fill="#FFFFFF"></path>
                <path d="M478.5,208.5 L622.993411,208.5 C623.68657,208.5 624.31426,208.778411 624.768212,209.230779 C625.22052,209.68151 625.5,210.304831 625.5,210.9961 L625.5,210.9961 L625.5,237.0039 C625.5,237.69282 625.219355,238.316424 624.766266,238.767933 C624.312336,239.220279 623.685336,239.5 622.993411,239.5 L622.993411,239.5 L478.5,239.5 L478.5,208.5 Z" id="Rectangle-26-Copy-23备份-4" stroke="#ACAFB9" fill="#FFFFFF"></path>
                <text id="YYYY/MM" font-family="PingFangSC-Regular, PingFang SC" font-size="14" font-weight="normal" line-spacing="22" fill="#000000" fill-opacity="0.85">
                    <tspan x="344" y="228">YYYY/MM</tspan>
                </text>
                <text id="YYYY/MM备份-2" font-family="PingFangSC-Regular, PingFang SC" font-size="14" font-weight="normal" line-spacing="22" fill="#000000" fill-opacity="0.85">
                    <tspan x="490" y="228">YYYY/MM</tspan>
                </text>
                <g id="待办中心，打卡，日程" transform="translate(455.000000, 216.000000)" filter="url(#filter-6)">
                    <g>
                        <rect id="矩形" fill="#000000" fill-rule="nonzero" opacity="0" x="0" y="0" width="16" height="16"></rect>
                        <path d="M14.25,6.40721875 L14.25,13.625 C14.25,13.9701719 13.9701719,14.25 13.625,14.25 L2.375,14.25 C2.02982812,14.25 1.75,13.9701719 1.75,13.625 L1.75,6.40721875 L14.25,6.40721875 Z M11.0275781,7.73315625 C10.7620469,7.51803125 10.3736719,7.55632812 10.1550781,7.81735937 L10.1485156,7.82532812 L7.29229687,11.3507813 L5.85992187,9.589375 C5.64215625,9.3215625 5.24851562,9.28101562 4.98070312,9.49878125 C4.7155625,9.71439063 4.67317187,10.1023594 4.88365625,10.3699375 L4.89010937,10.3780156 L6.80829687,12.7368594 C6.83554976,12.7703706 6.86620317,12.8009664 6.89976563,12.8281562 C7.16528125,13.0432812 7.55367188,13.0049844 7.77226563,12.7439531 L7.77882813,12.7359844 L11.1197656,8.61223437 C11.3370469,8.34401562 11.2957813,7.95045312 11.0275781,7.73317187 L11.0275781,7.73315625 Z M11.375,1.765625 C11.7201719,1.765625 12,2.04545312 12,2.390625 L12,2.84375 L13.625,2.84375 C13.9701719,2.84375 14.25,3.12357812 14.25,3.46875 L14.25,5.40721875 L1.75,5.40721875 L1.75,3.46875 C1.75,3.12357812 2.02982812,2.84375 2.375,2.84375 L4.03125,2.84375 L4.03125,2.390625 C4.03125,2.04545312 4.31107812,1.765625 4.65625,1.765625 C5.00142188,1.765625 5.28125,2.04545312 5.28125,2.390625 L5.28125,2.84375 L10.75,2.84375 L10.75,2.390625 C10.75,2.04545312 11.0298281,1.765625 11.375,1.765625 Z" id="形状" fill="#000000" fill-rule="nonzero"></path>
                    </g>
                </g>
                <g id="待办中心，打卡，日程" transform="translate(602.000000, 216.000000)" filter="url(#filter-7)">
                    <g>
                        <rect id="矩形" fill="#000000" fill-rule="nonzero" opacity="0" x="0" y="0" width="16" height="16"></rect>
                        <path d="M14.25,6.40721875 L14.25,13.625 C14.25,13.9701719 13.9701719,14.25 13.625,14.25 L2.375,14.25 C2.02982812,14.25 1.75,13.9701719 1.75,13.625 L1.75,6.40721875 L14.25,6.40721875 Z M11.0275781,7.73315625 C10.7620469,7.51803125 10.3736719,7.55632812 10.1550781,7.81735937 L10.1485156,7.82532812 L7.29229687,11.3507813 L5.85992187,9.589375 C5.64215625,9.3215625 5.24851562,9.28101562 4.98070312,9.49878125 C4.7155625,9.71439063 4.67317187,10.1023594 4.88365625,10.3699375 L4.89010937,10.3780156 L6.80829687,12.7368594 C6.83554976,12.7703706 6.86620317,12.8009664 6.89976563,12.8281562 C7.16528125,13.0432812 7.55367188,13.0049844 7.77226563,12.7439531 L7.77882813,12.7359844 L11.1197656,8.61223437 C11.3370469,8.34401562 11.2957813,7.95045312 11.0275781,7.73317187 L11.0275781,7.73315625 Z M11.375,1.765625 C11.7201719,1.765625 12,2.04545312 12,2.390625 L12,2.84375 L13.625,2.84375 C13.9701719,2.84375 14.25,3.12357812 14.25,3.46875 L14.25,5.40721875 L1.75,5.40721875 L1.75,3.46875 C1.75,3.12357812 2.02982812,2.84375 2.375,2.84375 L4.03125,2.84375 L4.03125,2.390625 C4.03125,2.04545312 4.31107812,1.765625 4.65625,1.765625 C5.00142188,1.765625 5.28125,2.04545312 5.28125,2.390625 L5.28125,2.84375 L10.75,2.84375 L10.75,2.390625 C10.75,2.04545312 11.0298281,1.765625 11.375,1.765625 Z" id="形状" fill="#000000" fill-rule="nonzero"></path>
                    </g>
                </g>
                <text id="开始日期与结束日期选择" font-family="PingFangSC-Regular, PingFang SC" font-size="14" font-weight="normal" line-spacing="22" fill="#000000" fill-opacity="0.65">
                    <tspan x="650" y="193">开始日期与结束日期选择</tspan>
                </text>
                <path d="M796.5,208.5 L796.5,239.5 L653.002993,239.5 C652.310897,239.5 651.684195,239.221638 651.230949,238.769432 C650.779128,238.318648 650.5,237.695238 650.5,237.0039 L650.5,237.0039 L650.5,210.9961 C650.5,210.306295 650.779119,209.681783 651.23192,209.230022 C651.684285,208.778695 652.309827,208.5 653.002993,208.5 L653.002993,208.5 L796.5,208.5 Z" id="Rectangle-26-Copy-23备份-2" stroke="#ACAFB9" fill="#FFFFFF"></path>
                <path d="M796.5,208.5 L940.993411,208.5 C941.68657,208.5 942.31426,208.778411 942.768212,209.230779 C943.22052,209.68151 943.5,210.304831 943.5,210.9961 L943.5,210.9961 L943.5,237.0039 C943.5,237.69282 943.219355,238.316424 942.766266,238.767933 C942.312336,239.220279 941.685336,239.5 940.993411,239.5 L940.993411,239.5 L796.5,239.5 L796.5,208.5 Z" id="Rectangle-26-Copy-23备份-4" stroke="#ACAFB9" fill="#FFFFFF"></path>
                <text id="YYYY/MM" font-family="PingFangSC-Regular, PingFang SC" font-size="14" font-weight="normal" line-spacing="22" fill="#000000" fill-opacity="0.35">
                    <tspan x="662" y="228">YYYY/MM</tspan>
                </text>
                <text id="YYYY/MM备份-2" font-family="PingFangSC-Regular, PingFang SC" font-size="14" font-weight="normal" line-spacing="22" fill="#000000" fill-opacity="0.35">
                    <tspan x="808" y="228">YYYY/MM</tspan>
                </text>
                <g id="待办中心，打卡，日程" transform="translate(773.000000, 216.000000)" filter="url(#filter-8)">
                    <g>
                        <rect id="矩形" fill="#000000" fill-rule="nonzero" opacity="0" x="0" y="0" width="16" height="16"></rect>
                        <path d="M14.25,6.40721875 L14.25,13.625 C14.25,13.9701719 13.9701719,14.25 13.625,14.25 L2.375,14.25 C2.02982812,14.25 1.75,13.9701719 1.75,13.625 L1.75,6.40721875 L14.25,6.40721875 Z M11.0275781,7.73315625 C10.7620469,7.51803125 10.3736719,7.55632812 10.1550781,7.81735937 L10.1485156,7.82532812 L7.29229687,11.3507813 L5.85992187,9.589375 C5.64215625,9.3215625 5.24851562,9.28101562 4.98070312,9.49878125 C4.7155625,9.71439063 4.67317187,10.1023594 4.88365625,10.3699375 L4.89010937,10.3780156 L6.80829687,12.7368594 C6.83554976,12.7703706 6.86620317,12.8009664 6.89976563,12.8281562 C7.16528125,13.0432812 7.55367188,13.0049844 7.77226563,12.7439531 L7.77882813,12.7359844 L11.1197656,8.61223437 C11.3370469,8.34401562 11.2957813,7.95045312 11.0275781,7.73317187 L11.0275781,7.73315625 Z M11.375,1.765625 C11.7201719,1.765625 12,2.04545312 12,2.390625 L12,2.84375 L13.625,2.84375 C13.9701719,2.84375 14.25,3.12357812 14.25,3.46875 L14.25,5.40721875 L1.75,5.40721875 L1.75,3.46875 C1.75,3.12357812 2.02982812,2.84375 2.375,2.84375 L4.03125,2.84375 L4.03125,2.390625 C4.03125,2.04545312 4.31107812,1.765625 4.65625,1.765625 C5.00142188,1.765625 5.28125,2.04545312 5.28125,2.390625 L5.28125,2.84375 L10.75,2.84375 L10.75,2.390625 C10.75,2.04545312 11.0298281,1.765625 11.375,1.765625 Z" id="形状" fill="#000000" fill-rule="nonzero"></path>
                    </g>
                </g>
                <g id="待办中心，打卡，日程" transform="translate(920.000000, 216.000000)" filter="url(#filter-9)">
                    <g>
                        <rect id="矩形" fill="#000000" fill-rule="nonzero" opacity="0" x="0" y="0" width="16" height="16"></rect>
                        <path d="M14.25,6.40721875 L14.25,13.625 C14.25,13.9701719 13.9701719,14.25 13.625,14.25 L2.375,14.25 C2.02982812,14.25 1.75,13.9701719 1.75,13.625 L1.75,6.40721875 L14.25,6.40721875 Z M11.0275781,7.73315625 C10.7620469,7.51803125 10.3736719,7.55632812 10.1550781,7.81735937 L10.1485156,7.82532812 L7.29229687,11.3507813 L5.85992187,9.589375 C5.64215625,9.3215625 5.24851562,9.28101562 4.98070312,9.49878125 C4.7155625,9.71439063 4.67317187,10.1023594 4.88365625,10.3699375 L4.89010937,10.3780156 L6.80829687,12.7368594 C6.83554976,12.7703706 6.86620317,12.8009664 6.89976563,12.8281562 C7.16528125,13.0432812 7.55367188,13.0049844 7.77226563,12.7439531 L7.77882813,12.7359844 L11.1197656,8.61223437 C11.3370469,8.34401562 11.2957813,7.95045312 11.0275781,7.73317187 L11.0275781,7.73315625 Z M11.375,1.765625 C11.7201719,1.765625 12,2.04545312 12,2.390625 L12,2.84375 L13.625,2.84375 C13.9701719,2.84375 14.25,3.12357812 14.25,3.46875 L14.25,5.40721875 L1.75,5.40721875 L1.75,3.46875 C1.75,3.12357812 2.02982812,2.84375 2.375,2.84375 L4.03125,2.84375 L4.03125,2.390625 C4.03125,2.04545312 4.31107812,1.765625 4.65625,1.765625 C5.00142188,1.765625 5.28125,2.04545312 5.28125,2.390625 L5.28125,2.84375 L10.75,2.84375 L10.75,2.390625 C10.75,2.04545312 11.0298281,1.765625 11.375,1.765625 Z" id="形状" fill="#000000" fill-rule="nonzero"></path>
                    </g>
                </g>
            </g>
        </g>
    </g>
</svg>