<?xml version="1.0" encoding="UTF-8"?>
<svg width="540px" height="277px" viewBox="0 0 540 277" version="1.1" xmlns="http://www.w3.org/2000/svg" xmlns:xlink="http://www.w3.org/1999/xlink">
    <title>10</title>
    <g id="ðŸ“è®¾è®¡å¸ˆæ¨¡å¼" stroke="none" stroke-width="1" fill="none" fill-rule="evenodd">
        <g id="ç»„ä»¶è®¾è®¡è§„èŒƒå¤‡ä»½--å¯¼èˆª" transform="translate(-720.000000, -4029.000000)">
            <g id="10" transform="translate(720.000000, 4029.000000)">
                <rect id="çŸ©å½¢" fill="#C8C9CB" x="0" y="0" width="540" height="277"></rect>
                <rect id="çŸ©å½¢" fill="#B30000" x="0" y="0" width="540" height="25"></rect>
                <rect id="çŸ©å½¢å¤‡ä»½-12" fill="#FFFFFF" x="8" y="107" width="524" height="163"></rect>
                <rect id="çŸ©å½¢" fill="#929292" x="0" y="25" width="540" height="76"></rect>
                <rect id="çŸ©å½¢" fill="#D8D8D8" x="97" y="29" width="94" height="15"></rect>
                <rect id="çŸ©å½¢å¤‡ä»½-31" fill="#D8D8D8" x="97" y="53" width="94" height="15"></rect>
                <rect id="çŸ©å½¢å¤‡ä»½-28" fill="#D8D8D8" x="28" y="29" width="45" height="15"></rect>
                <rect id="çŸ©å½¢å¤‡ä»½-29" fill="#D8D8D8" x="28" y="53" width="45" height="15"></rect>
                <rect id="çŸ©å½¢å¤‡ä»½-30" fill="#D8D8D8" x="28" y="77" width="45" height="15"></rect>
                <rect id="çŸ©å½¢å¤‡ä»½-3" fill="#D8D8D8" x="204" y="29" width="94" height="15"></rect>
                <rect id="çŸ©å½¢å¤‡ä»½-39" fill="#B30000" x="204" y="53" width="94" height="15"></rect>
                <rect id="çŸ©å½¢å¤‡ä»½-40" fill="#D8D8D8" x="204" y="77" width="94" height="15"></rect>
                <rect id="çŸ©å½¢å¤‡ä»½-5" fill="#D8D8D8" x="309" y="29" width="94" height="15"></rect>
                <rect id="çŸ©å½¢å¤‡ä»½-43" fill="#D8D8D8" x="416" y="29" width="94" height="15"></rect>
                <rect id="çŸ©å½¢å¤‡ä»½-41" fill="#D8D8D8" x="309" y="53" width="94" height="15"></rect>
                <rect id="çŸ©å½¢å¤‡ä»½-44" fill="#D8D8D8" x="416" y="53" width="94" height="15"></rect>
                <text id="China-Unicom" font-family="PingFangSC-Regular, PingFang SC" font-size="14" font-weight="normal" fill="#FFFFFF">
                    <tspan x="8" y="18">China Unicom</tspan>
                </text>
                <circle id="æ¤­åœ†å½¢å¤‡ä»½" fill="#F8BA00" cx="393" cy="37" r="19"></circle>
                <text id="1" font-family="PingFangSC-Medium, PingFang SC" font-size="14" font-weight="400" fill="#000000" fill-opacity="0.85">
                    <tspan x="389" y="42">1</tspan>
                </text>
            </g>
        </g>
    </g>
</svg>