<?xml version="1.0" encoding="UTF-8"?>
<svg width="540px" height="277px" viewBox="0 0 540 277" version="1.1" xmlns="http://www.w3.org/2000/svg" xmlns:xlink="http://www.w3.org/1999/xlink">
    <title>11</title>
    <g id="ðŸ“è®¾è®¡å¸ˆæ¨¡å¼" stroke="none" stroke-width="1" fill="none" fill-rule="evenodd">
        <g id="ç»„ä»¶è®¾è®¡è§„èŒƒå¤‡ä»½--å¯¼èˆª" transform="translate(-720.000000, -4354.000000)">
            <g id="11" transform="translate(720.000000, 4354.000000)">
                <rect id="çŸ©å½¢å¤‡ä»½-38" fill="#C8C9CB" x="0" y="0" width="540" height="277"></rect>
                <rect id="çŸ©å½¢" fill="#929292" x="0" y="56" width="97" height="221"></rect>
                <rect id="çŸ©å½¢å¤‡ä»½-42" fill="#B30000" x="0" y="0" width="540" height="25"></rect>
                <rect id="çŸ©å½¢å¤‡ä»½-45" fill="#FFFFFF" x="104" y="56" width="428" height="214"></rect>
                <rect id="çŸ©å½¢å¤‡ä»½-46" fill="#929292" x="0" y="25" width="540" height="25"></rect>
                <rect id="çŸ©å½¢å¤‡ä»½-47" fill="#B30000" x="97" y="29" width="94" height="15"></rect>
                <rect id="çŸ©å½¢å¤‡ä»½-49" fill="#D8D8D8" x="28" y="29" width="45" height="15"></rect>
                <rect id="çŸ©å½¢å¤‡ä»½-52" fill="#D8D8D8" x="204" y="29" width="94" height="15"></rect>
                <rect id="çŸ©å½¢å¤‡ä»½-55" fill="#D8D8D8" x="309" y="29" width="94" height="15"></rect>
                <rect id="çŸ©å½¢å¤‡ä»½-56" fill="#D8D8D8" x="416" y="29" width="94" height="15"></rect>
                <text id="China-Unicomå¤‡ä»½" font-family="PingFangSC-Regular, PingFang SC" font-size="14" font-weight="normal" fill="#FFFFFF">
                    <tspan x="8" y="18">China Unicom</tspan>
                </text>
                <circle id="æ¤­åœ†å½¢å¤‡ä»½-5" fill="#F8BA00" cx="393" cy="37" r="19"></circle>
                <text id="1å¤‡ä»½" font-family="PingFangSC-Medium, PingFang SC" font-size="14" font-weight="400" fill="#000000" fill-opacity="0.85">
                    <tspan x="389" y="42">1</tspan>
                </text>
                <rect id="çŸ©å½¢å¤‡ä»½-6" fill="#B30000" x="14" y="65" width="72" height="15"></rect>
                <rect id="çŸ©å½¢å¤‡ä»½-7" fill="#D8D8D8" x="25" y="89" width="61" height="15"></rect>
                <rect id="çŸ©å½¢å¤‡ä»½-8" fill="#D8D8D8" x="37" y="113" width="49" height="15"></rect>
                <rect id="çŸ©å½¢å¤‡ä»½-10" fill="#D8D8D8" x="14" y="137" width="72" height="15"></rect>
                <rect id="çŸ©å½¢å¤‡ä»½-11" fill="#D8D8D8" x="25" y="161" width="61" height="15"></rect>
                <rect id="çŸ©å½¢å¤‡ä»½-23" fill="#D8D8D8" x="37" y="185" width="49" height="15"></rect>
            </g>
        </g>
    </g>
</svg>