<?xml version="1.0" encoding="UTF-8"?>
<svg width="540px" height="283px" viewBox="0 0 540 283" version="1.1" xmlns="http://www.w3.org/2000/svg" xmlns:xlink="http://www.w3.org/1999/xlink">
    <title>12</title>
    <g id="ðŸ“è®¾è®¡å¸ˆæ¨¡å¼" stroke="none" stroke-width="1" fill="none" fill-rule="evenodd">
        <g id="ç»„ä»¶è®¾è®¡è§„èŒƒå¤‡ä»½--å¯¼èˆª" transform="translate(-720.000000, -4728.000000)">
            <g id="12" transform="translate(720.000000, 4728.000000)">
                <rect id="çŸ©å½¢" fill="#C8C9CB" x="0" y="6" width="540" height="277"></rect>
                <rect id="çŸ©å½¢" fill="#B30000" x="0" y="6" width="540" height="25"></rect>
                <rect id="çŸ©å½¢" fill="#929292" x="0" y="31" width="97" height="252"></rect>
                <rect id="çŸ©å½¢å¤‡ä»½-12" fill="#FFFFFF" x="104" y="62" width="428" height="214"></rect>
                <rect id="çŸ©å½¢" fill="#929292" x="88" y="31" width="452" height="24"></rect>
                <rect id="çŸ©å½¢" fill="#D8D8D8" x="104" y="35" width="94" height="15"></rect>
                <rect id="çŸ©å½¢å¤‡ä»½-6" fill="#D8D8D8" x="12" y="56" width="72" height="15"></rect>
                <rect id="çŸ©å½¢å¤‡ä»½-7" fill="#D8D8D8" x="12" y="80" width="72" height="15"></rect>
                <rect id="çŸ©å½¢å¤‡ä»½-8" fill="#D8D8D8" x="12" y="104" width="72" height="15"></rect>
                <rect id="çŸ©å½¢å¤‡ä»½-10" fill="#D8D8D8" x="12" y="128" width="72" height="15"></rect>
                <rect id="çŸ©å½¢å¤‡ä»½-11" fill="#D8D8D8" x="12" y="152" width="72" height="15"></rect>
                <rect id="çŸ©å½¢å¤‡ä»½-37" fill="#D8D8D8" x="12" y="176" width="72" height="15"></rect>
                <rect id="çŸ©å½¢å¤‡ä»½-3" fill="#D8D8D8" x="207" y="35" width="94" height="15"></rect>
                <rect id="çŸ©å½¢å¤‡ä»½-5" fill="#D8D8D8" x="309" y="35" width="94" height="15"></rect>
                <text id="China-Unicom" font-family="PingFangSC-Regular, PingFang SC" font-size="14" font-weight="normal" fill="#FFFFFF">
                    <tspan x="8" y="24">China Unicom</tspan>
                </text>
                <circle id="æ¤­åœ†å½¢å¤‡ä»½-2" fill="#F8BA00" cx="123" cy="19" r="19"></circle>
                <text id="2" font-family="PingFangSC-Medium, PingFang SC" font-size="14" font-weight="400" fill="#000000" fill-opacity="0.85">
                    <tspan x="118" y="24">2</tspan>
                </text>
            </g>
        </g>
    </g>
</svg>