<?xml version="1.0" encoding="UTF-8"?>
<svg width="540px" height="277px" viewBox="0 0 540 277" version="1.1" xmlns="http://www.w3.org/2000/svg" xmlns:xlink="http://www.w3.org/1999/xlink">
    <title>13</title>
    <g id="ðŸ“è®¾è®¡å¸ˆæ¨¡å¼" stroke="none" stroke-width="1" fill="none" fill-rule="evenodd">
        <g id="ç»„ä»¶è®¾è®¡è§„èŒƒå¤‡ä»½--å¯¼èˆª" transform="translate(-720.000000, -5108.000000)">
            <g id="13" transform="translate(720.000000, 5108.000000)">
                <rect id="çŸ©å½¢å¤‡ä»½" fill="#C8C9CB" x="0" y="0" width="540" height="277"></rect>
                <rect id="çŸ©å½¢å¤‡ä»½-25" fill="#B30000" x="0" y="0" width="540" height="25"></rect>
                <rect id="çŸ©å½¢å¤‡ä»½-26" fill="#929292" x="0" y="25" width="97" height="252"></rect>
                <rect id="çŸ©å½¢å¤‡ä»½-27" fill="#FFFFFF" x="104" y="56" width="428" height="214"></rect>
                <rect id="çŸ©å½¢å¤‡ä»½-50" fill="#929292" x="88" y="25" width="452" height="24"></rect>
                <rect id="çŸ©å½¢å¤‡ä»½-51" fill="#D8D8D8" x="104" y="29" width="94" height="15"></rect>
                <rect id="çŸ©å½¢å¤‡ä»½-53" fill="#D8D8D8" x="12" y="50" width="72" height="15"></rect>
                <rect id="çŸ©å½¢å¤‡ä»½-54" fill="#D8D8D8" x="12" y="74" width="72" height="15"></rect>
                <rect id="çŸ©å½¢å¤‡ä»½-57" fill="#D8D8D8" x="12" y="98" width="72" height="15"></rect>
                <rect id="çŸ©å½¢å¤‡ä»½-58" fill="#D8D8D8" x="12" y="122" width="72" height="15"></rect>
                <rect id="çŸ©å½¢å¤‡ä»½-59" fill="#D8D8D8" x="12" y="146" width="72" height="15"></rect>
                <rect id="çŸ©å½¢å¤‡ä»½-60" fill="#D8D8D8" x="12" y="170" width="72" height="15"></rect>
                <rect id="çŸ©å½¢å¤‡ä»½-61" fill="#D8D8D8" x="207" y="29" width="94" height="15"></rect>
                <rect id="çŸ©å½¢å¤‡ä»½-62" fill="#D8D8D8" x="309" y="29" width="94" height="15"></rect>
                <text id="China-Unicomå¤‡ä»½-2" font-family="PingFangSC-Regular, PingFang SC" font-size="14" font-weight="normal" fill="#FFFFFF">
                    <tspan x="8" y="18">China Unicom</tspan>
                </text>
                <circle id="æ¤­åœ†å½¢å¤‡ä»½-7" fill="#F8BA00" cx="154" cy="39" r="19"></circle>
                <text id="3" font-family="PingFangSC-Medium, PingFang SC" font-size="14" font-weight="400" fill="#000000" fill-opacity="0.85">
                    <tspan x="151" y="44">3</tspan>
                </text>
                <rect id="çŸ©å½¢" fill="#D8D8D8" x="375" y="236" width="16" height="15"></rect>
                <rect id="çŸ©å½¢å¤‡ä»½-63" fill="#D8D8D8" x="394" y="236" width="16" height="15"></rect>
                <rect id="çŸ©å½¢å¤‡ä»½-64" fill="#D8D8D8" x="413" y="236" width="16" height="15"></rect>
                <rect id="çŸ©å½¢å¤‡ä»½-65" fill="#D8D8D8" x="432" y="236" width="16" height="15"></rect>
                <rect id="çŸ©å½¢å¤‡ä»½-66" fill="#D8D8D8" x="451" y="236" width="16" height="15"></rect>
                <circle id="æ¤­åœ†å½¢å¤‡ä»½-9" fill="#F8BA00" cx="475" cy="236" r="19"></circle>
                <text id="3å¤‡ä»½-2" font-family="PingFangSC-Medium, PingFang SC" font-size="14" font-weight="400" fill="#000000" fill-opacity="0.85">
                    <tspan x="470" y="241">3</tspan>
                </text>
                <rect id="çŸ©å½¢" fill="#D8D8D8" x="502" y="232" width="19" height="19"></rect>
            </g>
        </g>
    </g>
</svg>