<?xml version="1.0" encoding="UTF-8"?>
<svg width="540px" height="177px" viewBox="0 0 540 177" version="1.1" xmlns="http://www.w3.org/2000/svg" xmlns:xlink="http://www.w3.org/1999/xlink">
    <title>19</title>
    <defs>
        <path d="M39.875,0 C42.15317,0 44,1.84683 44,4.125 L44,39.875 C44,42.153174 42.15317,44 39.875,44 L4.125,44 C1.846826,44 0,42.153174 0,39.875 L0,4.125 C0,1.84683 1.846826,0 4.125,0 L39.875,0 Z" id="path-1"></path>
        <polygon id="path-3" points="0.5 0.5 33.5 0.5 33.5 33.5 0.5 33.5"></polygon>
        <path d="M12.64878,5.6198 C12.70492,5.66523 12.75613,5.71642 12.80157,5.77255 L20.63041,15.44497 C20.98873,15.88766 20.92031,16.537 20.47765,16.89532 C20.29406,17.04393 20.06501,17.12501 19.8288,17.125 L16.64056,17.12497 L16.64062,24.63379 C16.64062,25.345706 16.06348,25.922852 15.35156,25.922852 L8.64844,25.922852 C7.93652,25.922852 7.35938,25.345706 7.35938,24.63379 L7.35938,17.12497 L4.1712,17.125 C3.60163,17.125 3.13995,16.66329 3.13995,16.09375 C3.13995,15.85757 3.22101,15.62855 3.3696,15.44497 L11.1984,5.77259 C11.55676,5.32985 12.20613,5.26147 12.64878,5.6198 Z M22.37696,0.10938 C23.3509183,0.10938 23.8649564,0.569300309 23.9190656,1.48914935 L23.92384,1.65625 C23.92384,2.6875 23.40821,3.20312 22.37696,3.20312 L1.62305,3.20312 C0.649091667,3.20312 0.135053642,2.74319969 0.0809443501,1.82335065 L0.07617,1.65625 C0.07617,0.625 0.5918,0.10938 1.62305,0.10938 L22.37696,0.10938 Z" id="path-5"></path>
    </defs>
    <g id="ðŸ“è®¾è®¡å¸ˆæ¨¡å¼" stroke="none" stroke-width="1" fill="none" fill-rule="evenodd">
        <g id="ç»„ä»¶è®¾è®¡è§„èŒƒå¤‡ä»½--å¯¼èˆª" transform="translate(-720.000000, -6958.000000)">
            <g id="19" transform="translate(720.000000, 6958.000000)">
                <rect id="çŸ©å½¢å¤‡ä»½-96" fill="#FFFFFF" x="0" y="0" width="540" height="177"></rect>
                <g id="ç¼–ç»„" transform="translate(248.000000, 67.000000)">
                    <g>
                        <mask id="mask-2" fill="white">
                            <use xlink:href="#path-1"></use>
                        </mask>
                        <g id="Clip-2"></g>
                        <polygon id="Fill-1" fill="#ACAFB9" mask="url(#mask-2)" points="-6.875 -6.875 50.875 -6.875 50.875 50.875 -6.875 50.875"></polygon>
                    </g>
                    <g transform="translate(5.000000, 5.000000)">
                        <mask id="mask-4" fill="white">
                            <use xlink:href="#path-3"></use>
                        </mask>
                        <g id="Clip-4"></g>
                        <polygon id="Fill-3" fill-opacity="0" fill="#FFFFFF" mask="url(#mask-4)" points="-6.375 -6.375 40.375 -6.375 40.375 40.375 -6.375 40.375"></polygon>
                    </g>
                    <g transform="translate(10.000000, 9.000000)">
                        <mask id="mask-6" fill="white">
                            <use xlink:href="#path-5"></use>
                        </mask>
                        <g id="Clip-6"></g>
                        <polygon id="Fill-5" fill="#FFFFFF" mask="url(#mask-6)" points="-6.798828 -6.76562 30.79884 -6.76562 30.79884 32.797852 -6.798828 32.797852"></polygon>
                    </g>
                </g>
            </g>
        </g>
    </g>
</svg>