<?xml version="1.0" encoding="UTF-8"?>
<svg width="540px" height="360px" viewBox="0 0 540 360" version="1.1" xmlns="http://www.w3.org/2000/svg" xmlns:xlink="http://www.w3.org/1999/xlink">
    <title>ä¸€è‡´</title>
    <g id="ðŸ“è®¾è®¡å¸ˆæ¨¡å¼" stroke="none" stroke-width="1" fill="none" fill-rule="evenodd">
        <g id="æ¦‚è¿°-è®¾è®¡ä»·å€¼è§‚" transform="translate(-720.000000, -1189.000000)">
            <g id="ä¸€è‡´" transform="translate(720.000000, 1189.000000)">
                <polygon id="è·¯å¾„å¤‡ä»½-3" fill="#9A97FF" fill-rule="nonzero" points="540 0 0 0 0 360 540 360"></polygon>
                <g id="ç¼–ç»„-24" transform="translate(410.710000, 155.000000)" fill="#FFFFFF">
                    <path d="M32.97024,17.55648 L32.97024,13.96224 L1.5552,13.96224 L1.5552,17.55648 L32.97024,17.55648 Z M52.8768,32.38272 C55.6416,30.5856 57.99168,28.37376 59.85792,25.7472 C61.58592,28.30464 63.5904,30.37824 65.90592,31.968 L67.94496,28.99584 C65.56032,27.4752 63.48672,25.36704 61.72416,22.6368 C63.69408,18.69696 64.8,13.96224 65.00736,8.43264 L67.0464,8.43264 L67.0464,4.94208 L57.7152,4.94208 C57.92256,3.55968 58.12992,2.14272 58.33728,0.62208 L55.01952,0 C54.32832,6.53184 52.94592,11.71584 50.90688,15.58656 L53.18784,18.42048 C53.80992,17.38368 54.39744,16.20864 54.9504,14.89536 C55.77984,17.69472 56.78208,20.25216 57.95712,22.53312 C56.22912,25.33248 53.9136,27.61344 51.01056,29.34144 L52.8768,32.38272 Z M48.48768,15.24096 L51.52896,13.85856 C50.59584,11.12832 49.48992,8.57088 48.2112,6.18624 L45.20448,7.18848 C45.72288,8.22528 46.24128,9.3312 46.75968,10.5408 C44.85888,10.81728 42.95808,11.02464 41.02272,11.19744 C42.09408,9.6768 43.33824,7.46496 44.72064,4.52736 L51.11424,4.52736 L51.11424,1.14048 L36.01152,1.14048 L36.01152,4.52736 L41.1264,4.52736 C39.3984,8.01792 37.94688,10.1952 36.84096,11.02464 C36.70272,11.12832 36.4608,11.232 36.14976,11.33568 L36.91008,14.44608 C40.81536,14.1696 44.47872,13.824 47.8656,13.40928 C48.07296,13.96224 48.28032,14.58432 48.48768,15.24096 Z M59.68512,18.97344 C58.44096,16.34688 57.43872,13.27104 56.64384,9.74592 C56.74752,9.3312 56.8512,8.88192 56.98944,8.43264 L61.6896,8.43264 C61.55136,12.37248 60.86016,15.8976 59.68512,18.97344 Z M36.84096,31.24224 C41.74848,30.55104 46.37952,29.68704 50.73408,28.6848 L50.73408,25.2288 C49.00608,25.64352 47.20896,26.05824 45.41184,26.40384 L45.41184,21.98016 L50.04288,21.98016 L50.04288,18.52416 L45.41184,18.52416 L45.41184,14.688 L41.92128,14.688 L41.92128,18.52416 L37.11744,18.52416 L37.11744,21.98016 L41.92128,21.98016 L41.92128,27.02592 C39.95136,27.33696 37.98144,27.61344 35.97696,27.8208 L36.84096,31.24224 Z" id="ä¸€è‡´" fill-rule="nonzero"></path>
                    <text id="Accordant" font-family="PingFangSC-Semibold, PingFang SC" font-size="13.44" font-weight="500">
                        <tspan x="0" y="44.68288">Accordant</tspan>
                    </text>
                </g>
                <g id="ç¼–ç»„" transform="translate(41.944000, 29.000000)">
                    <path d="M129.171082,241.706626 C129.171082,249.640351 122.739057,256.072376 114.805332,256.072376 L88.5798562,256.072376 L88.5798562,257.98781 L114.805332,257.98781 C123.797015,257.98781 131.086516,250.698309 131.086516,241.706626 L131.086516,239.747776 L135.546283,244.207543 C135.920431,244.581691 136.526985,244.581691 136.901133,244.207543 C137.274643,243.833395 137.274643,243.226841 136.901133,242.853332 L130.806224,236.758423 C130.432076,236.384275 129.825522,236.384275 129.451374,236.758423 L123.356465,242.853332 C122.982956,243.226841 122.982956,243.833395 123.356465,244.207543 C123.730613,244.581691 124.337167,244.581691 124.711315,244.207543 L129.171082,239.747776 L129.171082,241.706626 Z" id="è·¯å¾„" fill="#61188E"></path>
                    <polygon id="è·¯å¾„" fill="#E9E4FD" fill-rule="nonzero" points="107.972981 100.634956 229.048803 100.634956 229.048803 229.573632 107.972981 229.573632"></polygon>
                    <path d="M227.13337,102.550389 L109.888414,102.550389 L109.888414,227.658199 L227.13337,227.658199 L227.13337,102.550389 Z M107.972981,100.634956 L107.972981,229.573632 L229.048803,229.573632 L229.048803,100.634956 L107.972981,100.634956 Z" id="å½¢çŠ¶" fill="#61188E"></path>
                    <polygon id="è·¯å¾„" fill="#FFFFFF" fill-rule="nonzero" points="44.0276414 41.9312634 218.042085 41.9312634 218.042085 218.566275 44.0276414 218.566275"></polygon>
                    <path d="M216.126651,43.8466968 L45.9430748,43.8466968 L45.9430748,216.650841 L216.126651,216.650841 L216.126651,43.8466968 Z M44.0276414,41.9312634 L44.0276414,218.566275 L218.042085,218.566275 L218.042085,41.9312634 L44.0276414,41.9312634 Z" id="å½¢çŠ¶" fill="#61188E"></path>
                    <path d="M229.049442,292.47008 C229.049442,287.259463 182.702977,283.035932 125.531759,283.035932 C68.3599027,283.035932 22.0137569,287.259463 22.0137569,292.47008 C22.0137569,297.680698 68.3599027,301.904867 125.531759,301.904867 C182.702977,301.904867 229.049442,297.680698 229.049442,292.47008 Z" id="è·¯å¾„" fill="#CDD7FF" fill-rule="nonzero" style="mix-blend-mode: multiply;"></path>
                    <path d="M123.569717,136.83537 C123.653357,136.399928 123.697412,135.95044 123.697412,135.490097 C123.697412,131.582613 120.529285,128.414486 116.621163,128.414486 C112.71304,128.414486 109.545552,131.582613 109.545552,135.490097 C109.545552,139.39822 112.71304,142.566347 116.621163,142.566347 C117.080867,142.566347 117.530355,142.522292 117.965797,142.438651 L109.545552,150.859535 L117.530994,158.844977 C113.93381,159.178901 111.117484,162.205924 111.117484,165.890579 C111.117484,169.798702 114.285611,172.96619 118.193734,172.96619 C121.878389,172.96619 124.904774,170.150503 125.238698,166.552681 L131.989962,173.303945 L139.967742,165.326803 C139.953057,165.5126 139.945395,165.700951 139.945395,165.890579 C139.945395,169.798702 143.113522,172.96619 147.021645,172.96619 C150.929129,172.96619 154.097256,169.798702 154.097256,165.890579 C154.097256,161.982457 150.929129,158.81433 147.021645,158.81433 C146.831378,158.81433 146.643666,158.821992 146.457869,158.836677 L154.435011,150.859535 L131.989962,128.414486 L123.569717,136.83537 Z" id="è·¯å¾„" fill="#FFFFFF"></path>
                    <path d="M109.691763,106.02307 L87.4542199,128.259975 L109.691763,150.497518 L131.929307,128.259975 L109.691763,106.02307 Z M121.36633,137.340406 C121.774956,137.749032 122.438334,137.74967 122.847598,137.341683 L118.772833,141.41581 C119.181459,141.006545 119.18082,140.343805 118.772195,139.934541 L118.45104,139.613387 C118.237789,139.400774 117.924296,139.334372 117.629958,139.398858 C116.282131,139.692558 114.816825,139.315218 113.768444,138.266837 C112.130748,136.629142 112.130748,133.974351 113.768444,132.336655 C115.40614,130.699598 118.06093,130.699598 119.698626,132.336655 C120.746368,133.385036 121.123708,134.850342 120.830008,136.198808 C120.766161,136.492507 120.832562,136.806638 121.045175,137.019252 L121.36633,137.340406 Z" id="å½¢çŠ¶" fill="#456EFF"></path>
                    <path d="M86.1000085,128.259975 L109.691763,104.66822 L133.283518,128.259975 L109.691763,151.851729 L86.1000085,128.259975 Z M88.8084313,128.259975 L109.691763,149.143307 L118.09477,140.739662 C118.129886,140.704545 118.129886,140.647082 118.09477,140.611966 L117.820224,140.337421 C116.170397,140.691776 114.376275,140.228879 113.091019,138.944262 C111.079814,136.932419 111.079814,133.671074 113.091019,131.659869 C115.102863,129.648025 118.364207,129.648025 120.375412,131.659869 C121.660668,132.944486 122.123564,134.739247 121.768571,136.388436 L122.043755,136.662981 C122.078871,136.698736 122.136334,136.698736 122.17145,136.662981 L130.574457,128.259975 L109.691763,107.377281 L88.8084313,128.259975 Z M120.754668,138.080402 C120.732321,138.05997 120.710613,138.038901 120.688905,138.017831 L120.367751,137.696677 C119.882507,137.211433 119.774605,136.544863 119.894638,135.994495 C120.121937,134.951222 119.829514,133.822393 119.021201,133.01408 C117.757653,131.750533 115.709416,131.750533 114.445869,133.01408 C113.182321,134.277628 113.182321,136.326503 114.445869,137.589412 C115.253543,138.397725 116.383011,138.690148 117.426283,138.46285 C117.976013,138.342816 118.642584,138.451357 119.127827,138.9366 L119.448981,139.257755 C119.470689,139.278825 119.491121,139.300533 119.511552,139.322879 L120.754668,138.080402 Z" id="å½¢çŠ¶" fill="#61188E"></path>
                    <path d="M109.691763,106.02307 L131.929307,83.7855264 L154.166211,106.02307 L131.929307,128.259975 L109.691763,106.02307 Z M145.083226,96.9394461 C144.6746,96.5301818 144.675239,95.8674419 145.084503,95.4581776 L145.405658,95.1370233 C145.618271,94.9244101 145.932402,94.8580085 146.226101,94.9218562 C147.574567,95.2161945 149.039235,94.8388541 150.087615,93.7904736 C151.725311,92.152778 151.725311,89.4979873 150.087615,87.8602918 C148.44992,86.2232347 145.795129,86.2232347 144.157433,87.8602918 C143.109691,88.9086723 142.732351,90.3739789 143.026051,91.722444 C143.089899,92.0161438 143.023497,92.3302748 142.810884,92.5428879 L142.489729,92.8640423 C142.081104,93.2726681 141.418364,93.2733066 141.008461,92.8653192 L145.083226,96.9394461 Z M142.491645,119.180182 C142.083019,118.770918 141.419641,118.770918 141.010376,119.178905 L145.085142,115.10414 C144.676516,115.514042 144.677154,116.176782 145.086419,116.585408 L145.407573,116.906562 C145.620186,117.119175 145.934317,117.185577 146.228017,117.121729 C147.575844,116.82803 149.04115,117.20537 150.089531,118.253751 C151.727226,119.890808 151.727226,122.546237 150.089531,124.183294 C148.451835,125.820989 145.797044,125.820989 144.159349,124.183294 C143.111607,123.134913 142.734266,121.670245 143.027966,120.32178 C143.091814,120.02808 143.025412,119.713949 142.812799,119.501336 L142.491645,119.180182 Z" id="å½¢çŠ¶" fill="#854184"></path>
                    <path d="M108.336913,106.02307 L131.928668,82.431315 L141.684609,92.1866173 C141.720364,92.2223721 141.777188,92.2217336 141.812943,92.1866173 L142.087488,91.9120719 C141.732495,90.2622452 142.19603,88.4681226 143.480647,87.1835053 C145.491852,85.1716617 148.753197,85.1716617 150.76504,87.1835053 C152.776245,89.1947104 152.776245,92.456055 150.76504,94.4678985 C149.480423,95.7525159 147.685662,96.2154123 146.035835,95.8610571 L145.76129,96.1356025 C145.726173,96.1707188 145.726173,96.2281818 145.76129,96.2632981 L155.521061,106.02307 L145.763205,115.780288 C145.728089,115.816042 145.728089,115.872867 145.763205,115.908622 L146.037751,116.183167 C147.687577,115.828173 149.4817,116.291708 150.766956,117.576326 C152.778161,119.587531 152.778161,122.848875 150.766956,124.860719 C148.755112,126.871924 145.493767,126.871924 143.482562,124.860719 C142.197307,123.576101 141.73441,121.78134 142.089404,120.131514 L141.81422,119.856968 C141.779104,119.821852 141.721641,119.821852 141.686524,119.856968 L131.928668,129.614825 L108.336913,106.02307 Z M143.103307,118.440186 C143.125653,118.460617 143.147362,118.481049 143.16907,118.502757 L143.490224,118.823911 C143.974829,119.309154 144.08337,119.975725 143.963336,120.525455 C143.736038,121.568727 144.028461,122.698195 144.836774,123.506507 C146.100321,124.769416 148.148558,124.769416 149.412106,123.506507 C150.675653,122.24296 150.675653,120.194085 149.412106,118.930537 C148.604431,118.122863 147.474964,117.83044 146.431691,118.057738 C145.881962,118.177133 145.215391,118.06923 144.730148,117.583987 L144.408994,117.262833 C144.387285,117.241125 144.366854,117.219416 144.346423,117.197708 L143.103307,118.440186 Z M144.344507,94.8465159 C144.364939,94.8241691 144.38537,94.8024609 144.407078,94.7807526 L144.728233,94.4595983 C145.213476,93.9749937 145.880047,93.8664524 146.429776,93.9864863 C147.473049,94.2137844 148.602516,93.9213615 149.41019,93.1130486 C150.673738,91.8495011 150.673738,89.8012643 149.41019,88.5377167 C148.147281,87.2741691 146.098406,87.2741691 144.834858,88.5377167 C144.026545,89.3460296 143.734761,90.4748584 143.962059,91.5181311 C144.081455,92.0678605 143.973552,92.7350698 143.488309,93.2196744 L143.167154,93.5408288 C143.145446,93.562537 143.123738,93.5836068 143.101391,93.6040381 L144.344507,94.8465159 Z M111.045975,106.02307 L131.928668,126.905763 L152.812,106.02307 L131.928668,85.1397378 L111.045975,106.02307 Z" id="å½¢çŠ¶" fill="#61188E"></path>
                    <polygon id="è·¯å¾„" fill="#FCB247" fill-rule="nonzero" points="154.166211 150.497518 176.403755 128.259975 198.641298 150.497518 176.403755 172.735061"></polygon>
                    <path d="M152.812,150.497518 L176.403755,126.905763 L199.99551,150.497518 L176.403755,174.089273 L152.812,150.497518 Z M155.521061,150.497518 L176.403755,171.380211 L197.287087,150.497518 L176.403755,129.614186 L155.521061,150.497518 Z" id="å½¢çŠ¶" fill="#61188E"></path>
                    <path d="M87.4542199,128.259975 L65.2166765,150.497518 L87.4542199,172.735061 L109.691763,150.497518 L100.60814,141.414533 C100.200152,141.00463 100.200791,140.34189 100.609416,139.932626 L100.930571,139.611471 C101.143184,139.398858 101.457315,139.332457 101.751015,139.396943 C103.09948,139.690643 104.564786,139.313302 105.613167,138.264922 C107.250224,136.627865 107.250224,133.972436 105.613167,132.335378 C103.975471,130.697683 101.320681,130.697683 99.6829852,132.335378 C98.6346047,133.383121 98.2572643,134.848427 98.5516025,136.196892 C98.6154503,136.490592 98.5490486,136.804723 98.3364355,137.017336 L98.0152812,137.33849 C97.6060169,137.747755 96.943277,137.747755 96.5340127,137.339767 L87.4542199,128.259975 Z" id="è·¯å¾„" fill="#A1A1EA"></path>
                    <path d="M63.8624651,150.497518 L87.4542199,126.905763 L97.2101607,136.661704 C97.245277,136.69682 97.30274,136.69682 97.3378562,136.661066 L97.6124017,136.38652 C97.2580465,134.737332 97.7209429,132.942571 99.0055603,131.657953 C101.017404,129.64611 104.278748,129.64611 106.289953,131.657953 C108.301797,133.669159 108.301797,136.930503 106.289953,138.942347 C105.005336,140.226964 103.210575,140.68986 101.561387,140.335505 L101.286841,140.610051 C101.251725,140.645167 101.251087,140.70263 101.286841,140.737746 L111.045975,150.497518 L87.4542199,174.089273 L63.8624651,150.497518 Z M66.5715264,150.497518 L87.4542199,171.380211 L108.336913,150.497518 L99.9300761,142.090681 C99.1492178,141.30663 99.1498562,140.038613 99.93263,139.255839 L100.253784,138.934685 C100.738389,138.449442 101.405598,138.340901 101.955328,138.460934 C102.9986,138.688233 104.127429,138.39581 104.935742,137.588135 C106.19929,136.324588 106.19929,134.275712 104.935742,133.012165 C103.672195,131.748617 101.623958,131.748617 100.36041,133.012165 C99.5520973,133.820478 99.2596744,134.949945 99.4869725,135.993218 C99.6070063,136.542947 99.4984651,137.209518 99.0138605,137.694761 L98.6927061,138.015915 C97.9099323,138.798689 96.641277,138.799328 95.8578647,138.017831 L87.4542199,129.614186 L66.5715264,150.497518 Z" id="å½¢çŠ¶" fill="#61188E"></path>
                    <path d="M100.610055,115.10414 C100.200791,115.512127 99.5380507,115.512127 99.1287865,115.102863 L98.8076321,114.781708 C98.595019,114.569095 98.5286173,114.254964 98.5924651,113.961264 C98.8868034,112.612799 98.509463,111.147493 97.4610825,110.099751 C95.8233869,108.462055 93.1685962,108.462055 91.5309006,110.099751 C89.8938436,111.736808 89.8938436,114.392237 91.5309006,116.029294 C92.5792812,117.077674 94.0445877,117.455015 95.3930529,117.161315 C95.6867526,117.096829 96.0008837,117.16323 96.2134968,117.375844 L96.5346512,117.696998 C96.943277,118.106262 96.9439154,118.769002 96.5359281,119.178905 L100.610055,115.10414 Z" id="è·¯å¾„" fill="#456EFF"></path>
                    <path d="M90.8541142,116.706719 C88.8422706,114.695514 88.8422706,111.433531 90.8541142,109.422326 C92.8653192,107.410482 96.1266638,107.411121 98.1385074,109.422326 C99.4231247,110.706943 99.8860211,112.501704 99.531666,114.150892 L99.8062114,114.425438 C99.8413277,114.461192 99.8987907,114.461192 99.933907,114.426076 L101.28748,115.781564 L97.2127146,119.855691 L95.8572262,118.502757 C95.8923425,118.467002 95.8923425,118.409539 95.8572262,118.374423 L95.5826808,118.099877 C93.9328541,118.454871 92.1387315,117.991336 90.8541142,116.706719 Z M97.2740085,117.085336 L98.5171247,115.842858 C98.494778,115.822427 98.4730698,115.801357 98.4513615,115.780288 L98.1302072,115.459133 C97.6456025,114.97389 97.5370613,114.307319 97.6570951,113.75759 C97.8843932,112.714317 97.5919704,111.58485 96.7836575,110.776537 C95.5201099,109.512989 93.4718732,109.512989 92.2083256,110.776537 C90.944778,112.040085 90.944778,114.08896 92.2083256,115.352507 C93.0166385,116.160182 94.1454672,116.452605 95.18874,116.225307 C95.7384693,116.105273 96.4056786,116.213814 96.8902833,116.699057 L97.2114376,117.020211 C97.2331459,117.041281 97.2542156,117.063628 97.2740085,117.085336 Z" id="å½¢çŠ¶" fill="#61188E"></path>
                    <path d="M118.774748,115.106055 C119.184651,115.514681 119.847391,115.514042 120.256017,115.105416 L120.577171,114.784262 C120.789784,114.571649 120.856186,114.257518 120.792338,113.96318 C120.498638,112.615353 120.875979,111.150047 121.923721,110.101666 C123.561416,108.46397 126.216207,108.46397 127.853903,110.101666 C129.491598,111.739362 129.491598,114.394152 127.853903,116.031848 C126.805522,117.07959 125.340854,117.45693 123.992389,117.16323 C123.698689,117.099383 123.384558,117.165784 123.171945,117.378397 L122.850791,117.699552 C122.441526,118.108178 122.440888,118.771556 122.849514,119.18082 L118.774748,115.106055 Z" id="è·¯å¾„" fill="#456EFF"></path>
                    <path d="M128.531328,116.708634 C130.542533,114.697429 130.542533,111.436085 128.531328,109.424241 C126.519484,107.413036 123.25814,107.413036 121.246934,109.424241 C119.962317,110.709497 119.498782,112.503619 119.853776,114.153446 L119.57923,114.427992 C119.543476,114.463108 119.486651,114.463108 119.450896,114.427992 L118.097962,115.78348 L122.172089,119.858245 L123.527577,118.504672 C123.492461,118.469556 123.492461,118.412093 123.527577,118.376977 L123.802123,118.102431 C125.451949,118.456786 127.24671,117.99389 128.531328,116.708634 Z M122.110795,117.08789 L120.867679,115.844774 C120.890025,115.824342 120.911734,115.803911 120.933442,115.782203 L121.254596,115.461049 C121.739839,114.975805 121.847742,114.309235 121.728347,113.759505 C121.501049,112.716233 121.792833,111.586765 122.601146,110.779091 C123.864693,109.515543 125.913569,109.515543 127.176478,110.779091 C128.440025,112.042638 128.440025,114.090875 127.176478,115.354423 C126.368803,116.162736 125.239336,116.455159 124.196063,116.22786 C123.646334,116.107827 122.979763,116.216368 122.49452,116.700973 L122.173366,117.022127 C122.151658,117.043835 122.131226,117.065543 122.110795,117.08789 Z" id="å½¢çŠ¶" fill="#61188E"></path>
                    <path d="M154.166211,150.497518 L131.929307,172.735061 L154.166211,194.972605 L176.403755,172.735061 L167.318216,163.649522 C166.915975,163.239619 166.918529,162.581349 167.325239,162.174 L167.646393,161.852846 C167.859006,161.640233 168.173137,161.573831 168.466837,161.638317 C169.815302,161.932017 171.280609,161.554677 172.328989,160.506296 C173.966047,158.8686 173.966047,156.21381 172.328989,154.576114 C170.691294,152.939057 168.036503,152.939057 166.398808,154.576114 C165.350427,155.624495 164.973087,157.089801 165.267425,158.438266 C165.331273,158.731966 165.264871,159.046097 165.052258,159.25871 L164.731104,159.579865 C164.323755,159.986575 163.665484,159.989129 163.255581,159.586888 L154.166211,150.497518 Z" id="è·¯å¾„" fill="#DDA003"></path>
                    <path d="M130.574457,172.735061 L154.166211,149.143307 L163.927899,158.904994 C163.963015,158.938195 164.019201,158.937556 164.053679,158.90244 L164.328224,158.627894 C163.973869,156.978706 164.436765,155.183945 165.721383,153.899328 C167.733226,151.887484 170.994571,151.887484 173.005776,153.899328 C175.017619,155.910533 175.017619,159.171877 173.005776,161.183721 C171.721159,162.468338 169.926397,162.931235 168.277209,162.576879 L168.002664,162.851425 C167.968186,162.885903 167.966909,162.942089 168.000748,162.977205 L177.757966,172.735061 L154.166211,196.326816 L130.574457,172.735061 Z M133.283518,172.735061 L154.166211,193.617755 L175.049543,172.735061 L166.635044,164.320562 C165.86504,163.535873 165.868871,162.276156 166.648452,161.497214 L166.969607,161.176059 C167.454211,160.690816 168.121421,160.582275 168.67115,160.702309 C169.714423,160.929607 170.843252,160.637184 171.651564,159.828871 C172.915112,158.565962 172.915112,156.517087 171.651564,155.253539 C170.388017,153.989992 168.33978,153.989992 167.076233,155.253539 C166.26792,156.061852 165.975497,157.190681 166.202795,158.233953 C166.322829,158.784321 166.214288,159.450892 165.729683,159.936135 L165.408529,160.25729 C164.628947,161.036233 163.36923,161.040702 162.584541,160.270059 L162.578156,160.263674 L154.166211,151.852368 L133.283518,172.735061 Z" id="å½¢çŠ¶" fill="#61188E"></path>
                    <path d="M109.691763,61.5478554 L87.4542199,83.7855264 L109.691763,106.022431 L131.929307,83.7855264 L109.691763,61.5478554 Z M120.068943,97.127797 C119.659679,96.7191712 118.996939,96.7185328 118.587674,97.1265201 L122.661801,93.0523932 C122.253814,93.4616575 122.254452,94.1243975 122.663078,94.5336617 L122.984233,94.8548161 C123.196846,95.0674292 123.510977,95.1338309 123.804677,95.0693446 C125.153142,94.7756448 126.618448,95.1529852 127.666829,96.2013658 C129.303886,97.8390613 129.303886,100.493852 127.666829,102.131548 C126.029133,103.768605 123.374342,103.768605 121.736647,102.131548 C120.688266,101.083167 120.310926,99.6178605 120.605264,98.2693953 C120.669112,97.9756956 120.60271,97.6615645 120.390097,97.4489514 L120.068943,97.127797 Z" id="å½¢çŠ¶" fill="#88DDFF"></path>
                    <path d="M86.1000085,83.7855264 L109.691763,60.1934524 L133.283518,83.7855264 L123.340503,93.7285412 C123.305387,93.7636575 123.305387,93.8211205 123.340503,93.8562368 L123.615049,94.1307822 C125.264875,93.7764271 127.058998,94.2393235 128.343615,95.5239408 C130.355459,97.5357844 130.355459,100.797129 128.343615,102.808334 C126.33241,104.820178 123.071066,104.820178 121.059222,102.808334 C119.774605,101.523717 119.311708,99.7289556 119.666063,98.0797674 L119.391518,97.805222 C119.356402,97.7694672 119.298939,97.7694672 119.263822,97.805222 L109.691763,107.377281 L86.1000085,83.7855264 Z M120.680605,96.3878013 C120.702951,96.4082326 120.72466,96.4293023 120.746368,96.4503721 L121.067522,96.7715264 C121.552127,97.2567696 121.660668,97.9233404 121.540634,98.4737082 C121.313336,99.516981 121.605759,100.64581 122.414072,101.454123 C123.677619,102.71767 125.725856,102.71767 126.989404,101.454123 C128.252951,100.190575 128.252951,98.1416998 126.989404,96.8787907 C126.181091,96.0704778 125.052262,95.778055 124.008989,96.0053531 C123.45926,96.1253869 122.792051,96.0168457 122.307446,95.5316025 L121.986292,95.2104482 C121.964584,95.1893784 121.943514,95.1676702 121.923721,95.1453235 L120.680605,96.3878013 Z M88.8084313,83.7855264 L109.691763,104.66822 L130.574457,83.7855264 L109.691763,62.9022584 L88.8084313,83.7855264 Z" id="å½¢çŠ¶" fill="#61188E"></path>
                    <path d="M131.929307,128.259975 L154.166211,106.022431 L176.403755,128.259975 L154.166211,150.497518 L145.267108,141.598414 C144.857844,141.192342 144.196381,141.193619 143.788393,141.601607 L143.467239,141.922761 C143.254626,142.135374 143.188224,142.449505 143.252072,142.743205 C143.545772,144.09167 143.168431,145.556977 142.120689,146.605357 C140.482994,148.242414 137.828203,148.242414 136.190507,146.605357 C134.552812,144.967662 134.552812,142.312871 136.190507,140.675175 C137.238888,139.626795 138.703556,139.249455 140.052021,139.543154 C140.345721,139.607641 140.659852,139.541239 140.872465,139.328626 L141.193619,139.007471 C141.602245,138.598846 141.603522,137.938021 141.19745,137.528118 L131.929307,128.259975 Z M164.729188,141.417087 C164.319924,141.008461 163.657184,141.007822 163.24792,141.41581 L167.322685,137.341683 C166.914059,137.750947 166.914698,138.413687 167.323323,138.822951 L167.644478,139.144106 C167.857091,139.356719 168.171222,139.423121 168.464922,139.358634 C169.813387,139.064934 171.278693,139.442275 172.327074,140.490655 C173.964131,142.128351 173.964131,144.783142 172.327074,146.420837 C170.689378,148.057894 168.034588,148.057894 166.396892,146.420837 C165.348512,145.372457 164.97181,143.90715 165.26551,142.558685 C165.329357,142.264985 165.262956,141.950854 165.050342,141.738241 L164.729188,141.417087 Z" id="å½¢çŠ¶" fill="#AB2222"></path>
                    <path d="M130.574457,128.259975 L154.166211,104.66822 L177.757966,128.259975 L168.000748,138.017831 C167.965632,138.052947 167.965632,138.11041 168.000748,138.145526 L168.275294,138.420072 C169.925121,138.065717 171.719243,138.528613 173.00386,139.81323 C175.015704,141.825074 175.015704,145.086419 173.00386,147.097624 C170.992655,149.109467 167.731311,149.109467 165.719467,147.097624 C164.43485,145.813006 163.971953,144.018245 164.326309,142.369057 L164.051763,142.094512 C164.016647,142.058757 163.959184,142.058757 163.924068,142.094512 L154.166211,151.851729 L144.592237,142.277755 C144.557121,142.243277 144.500296,142.243915 144.46518,142.279032 L144.190634,142.553577 C144.545628,144.202765 144.082093,145.997526 142.797476,147.282144 C140.786271,149.293987 137.524926,149.293987 135.513082,147.282144 C133.501877,145.270939 133.501877,142.009594 135.513082,139.997751 C136.7977,138.713133 138.592461,138.250237 140.242288,138.604592 L140.516833,138.330047 C140.551949,138.29493 140.551949,138.238744 140.517471,138.202989 L130.574457,128.259975 Z M165.34085,140.677091 C165.363197,140.697522 165.384905,140.718592 165.406613,140.739662 L165.727767,141.060816 C166.212372,141.546059 166.320913,142.21263 166.200879,142.762998 C165.973581,143.806271 166.266004,144.935099 167.074317,145.743412 C168.337865,147.00696 170.386101,147.00696 171.649649,145.743412 C172.913197,144.479865 172.913197,142.430989 171.649649,141.16808 C170.841336,140.359767 169.712507,140.067345 168.669235,140.294643 C168.119505,140.414677 167.452296,140.306135 166.967691,139.820892 L166.646537,139.499738 C166.624829,139.478668 166.603759,139.45696 166.583966,139.434613 L165.34085,140.677091 Z M133.283518,128.259975 L141.877429,136.853886 C142.654457,137.637937 142.652541,138.9034 141.871044,139.684258 L141.54989,140.005412 C141.064647,140.490655 140.398076,140.599197 139.848347,140.479163 C138.805074,140.251865 137.675607,140.544288 136.867932,141.3526 C135.604385,142.61551 135.604385,144.664385 136.867932,145.927932 C138.130841,147.19148 140.179717,147.19148 141.443264,145.927932 C142.251577,145.119619 142.543362,143.990791 142.316063,142.947518 C142.196668,142.39715 142.304571,141.730579 142.789814,141.245336 L143.110968,140.924182 C143.892465,140.143323 145.15729,140.14077 145.94134,140.917797 L145.944533,140.920989 L154.166211,149.142668 L175.049543,128.259975 L154.166211,107.377281 L133.283518,128.259975 Z" id="å½¢çŠ¶" fill="#61188E"></path>
                    <path d="M176.403755,83.7855264 L154.166211,106.022431 L176.403755,128.259975 L198.641298,106.022431 L176.403755,83.7855264 Z M163.248558,116.587323 C163.657184,116.178059 163.657822,115.515319 163.249835,115.106055 L167.323962,119.180182 C166.914698,118.772195 166.251958,118.772833 165.842693,119.181459 L165.521539,119.502613 C165.308926,119.715226 165.242524,120.029357 165.307011,120.323057 C165.60071,121.671522 165.22337,123.136829 164.174989,124.185209 C162.537294,125.822266 159.882503,125.822266 158.244808,124.185209 C156.607751,122.547514 156.607751,119.892723 158.244808,118.255027 C159.293188,117.206647 160.758495,116.829307 162.10696,117.123645 C162.40066,117.187493 162.714791,117.121091 162.927404,116.908478 L163.248558,116.587323 Z" id="å½¢çŠ¶" fill="#D93066"></path>
                    <path d="M152.812,106.022431 L176.403755,82.4306765 L199.99551,106.022431 L176.403755,129.614186 L166.647814,119.858884 C166.612698,119.823129 166.555235,119.823767 166.520118,119.858884 L166.245573,120.133429 C166.599928,121.783256 166.137032,123.577378 164.852414,124.861996 C162.840571,126.873839 159.579226,126.873839 157.568021,124.861996 C155.556178,122.850791 155.556178,119.589446 157.568021,117.577603 C158.852638,116.292985 160.6474,115.830089 162.296588,116.184444 L162.571133,115.909899 C162.606888,115.874782 162.606888,115.817319 162.571133,115.782203 L152.812,106.022431 Z M163.988554,117.198985 C163.968123,117.221332 163.947053,117.24304 163.925983,117.264748 L163.604829,117.585903 C163.119586,118.070507 162.452376,118.179049 161.902647,118.059015 C160.859374,117.831717 159.730545,118.12414 158.922233,118.932452 C157.658685,120.196 157.658685,122.244237 158.922233,123.507784 C160.18578,124.771332 162.234017,124.771332 163.497564,123.507784 C164.305877,122.699471 164.5983,121.570643 164.371002,120.52737 C164.250968,119.977641 164.35951,119.310431 164.844753,118.825827 L165.165907,118.504672 C165.186977,118.482964 165.208685,118.461894 165.231032,118.441463 L163.988554,117.198985 Z M155.521061,106.022431 L176.403755,126.905763 L197.286448,106.022431 L176.403755,85.1397378 L155.521061,106.022431 Z" id="å½¢çŠ¶" fill="#61188E"></path>
                    <path d="M100.610055,159.579226 C100.200791,159.987214 99.5380507,159.986575 99.1287865,159.577949 L98.8076321,159.256795 C98.595019,159.044182 98.5286173,158.730051 98.5924651,158.436351 C98.8868034,157.087886 98.509463,155.622579 97.4610825,154.574199 C95.8233869,152.937142 93.1685962,152.937142 91.5309006,154.574199 C89.8938436,156.211894 89.8938436,158.866685 91.5309006,160.504381 C92.5792812,161.552761 94.0445877,161.930101 95.3930529,161.635763 C95.6867526,161.571915 96.0008837,161.638317 96.2134968,161.85093 L96.5346512,162.172085 C96.943277,162.581349 96.9439154,163.244089 96.5359281,163.653353 L100.610055,159.579226 Z M87.4542199,172.735061 L109.691763,150.497518 L131.928668,172.735061 L109.691763,194.972605 L87.4542199,172.735061 Z M118.773471,161.06241 C119.182736,160.653146 119.183374,159.990406 118.774748,159.581142 L122.849514,163.655268 C122.439611,163.247281 121.776871,163.24792 121.368245,163.656545 L121.047091,163.9777 C120.834478,164.190313 120.768076,164.504444 120.831924,164.798144 C121.125624,166.146609 120.748283,167.611915 119.700541,168.660296 C118.062846,170.297353 115.408055,170.297353 113.770359,168.660296 C112.132664,167.0226 112.132664,164.36781 113.770359,162.730114 C114.81874,161.681734 116.283408,161.304393 117.631873,161.598093 C117.925573,161.662579 118.239704,161.596178 118.452317,161.383564 L118.773471,161.06241 Z" id="å½¢çŠ¶" fill="#8464DF"></path>
                    <path d="M92.2083256,155.251624 C90.944778,156.515171 90.944778,158.563408 92.2083256,159.826956 C93.0166385,160.635268 94.1454672,160.927691 95.18874,160.700393 C95.7384693,160.580359 96.4056786,160.688901 96.8902833,161.173505 L97.2120761,161.49466 C97.2331459,161.516368 97.2542156,161.538076 97.2746469,161.560423 L98.5171247,160.317307 C98.494778,160.297514 98.4730698,160.276444 98.452,160.254736 L98.1308457,159.933581 C97.6456025,159.448977 97.5370613,158.781767 97.6570951,158.232038 C97.8843932,157.188765 97.5919704,156.059937 96.7836575,155.251624 C95.5201099,153.988076 93.4718732,153.988076 92.2083256,155.251624 Z M95.8572262,162.977205 C95.892981,162.942089 95.892981,162.884626 95.8572262,162.84951 L95.5826808,162.574964 C93.9334926,162.929319 92.1387315,162.466423 90.8541142,161.181805 C88.8422706,159.169962 88.8422706,155.908617 90.8541142,153.897412 C92.8653192,151.885569 96.1266638,151.885569 98.1385074,153.897412 C99.4231247,155.18203 99.8860211,156.976152 99.531666,158.625979 L99.8062114,158.900524 C99.8413277,158.935641 99.8987907,158.935641 99.933907,158.900524 L109.691763,149.143307 L133.283518,172.735061 L109.691763,196.326816 L86.1000085,172.735061 L95.8572262,162.977205 Z M88.8084313,172.735061 L109.691763,193.617755 L130.574457,172.735061 L122.173366,164.333332 C122.138249,164.298216 122.080786,164.298216 122.045032,164.33397 L121.770486,164.608516 C122.12548,166.257704 121.661945,168.052465 120.377328,169.337082 C118.366123,171.348926 115.104778,171.348926 113.092934,169.337082 C111.081729,167.325877 111.081729,164.064533 113.092934,162.052689 C114.377552,160.768072 116.172313,160.305175 117.82214,160.659531 L118.096685,160.384985 C118.131801,160.349869 118.131801,160.292406 118.096685,160.25729 L109.691763,151.851729 L88.8084313,172.735061 Z M119.513467,161.674072 C119.493036,161.696419 119.472605,161.718127 119.450896,161.739197 L119.129742,162.060351 C118.644499,162.545594 117.977928,162.654135 117.428199,162.534101 C116.384926,162.306803 115.255459,162.599226 114.447784,163.407539 C113.184237,164.670448 113.184237,166.719323 114.447784,167.982871 C115.711332,169.246419 117.759569,169.246419 119.023116,167.982871 C119.831429,167.174558 120.123214,166.045729 119.895915,165.002457 C119.77652,164.452089 119.884423,163.785518 120.369666,163.300275 L120.69082,162.979121 C120.712529,162.958051 120.734237,162.936981 120.756584,162.91655 L119.513467,161.674072 Z" id="å½¢çŠ¶" fill="#61188E"></path>
                    <path d="M141.010376,163.653353 C141.419641,163.245366 142.083019,163.245366 142.491645,163.65463 L142.812799,163.975784 C143.025412,164.188397 143.091814,164.502529 143.027966,164.796228 C142.734266,166.144693 143.111607,167.61 144.159349,168.658381 C145.797044,170.295438 148.451835,170.295438 150.089531,168.658381 C151.727226,167.020685 151.727226,164.365894 150.089531,162.728199 C149.04115,161.679818 147.576482,161.302478 146.228017,161.596178 C145.934317,161.660664 145.620186,161.594262 145.407573,161.381649 L145.086419,161.060495 C144.677154,160.65123 144.676516,159.98849 145.085142,159.579226 L141.010376,163.653353 Z" id="è·¯å¾„" fill="#FFFFFF"></path>
                    <path d="M150.766956,162.050774 C152.778161,164.062617 152.778161,167.323962 150.766956,169.335167 C148.755112,171.347011 145.493767,171.347011 143.482562,169.335167 C142.197945,168.05055 141.73441,166.255789 142.089404,164.6066 L141.814858,164.332055 C141.779104,164.2963 141.722279,164.2963 141.686524,164.332055 L140.332951,162.976567 L144.407717,158.901801 L145.763205,160.255374 C145.728089,160.29049 145.728089,160.347953 145.763205,160.38307 L146.037751,160.657615 C147.687577,160.30326 149.482338,160.766156 150.766956,162.050774 Z M144.346423,161.672156 L143.103307,162.914634 C143.125653,162.935066 143.147362,162.956135 143.16907,162.977205 L143.490224,163.298359 C143.975467,163.783603 144.08337,164.450173 143.963975,165.000541 C143.736677,166.043175 144.028461,167.172643 144.836774,167.980956 C146.100321,169.244503 148.148558,169.244503 149.412106,167.980956 C150.675653,166.717408 150.675653,164.668533 149.412106,163.405624 C148.604431,162.597311 147.474964,162.304888 146.431691,162.532186 C145.881962,162.65222 145.215391,162.543679 144.730148,162.058436 L144.408994,161.737281 C144.387285,161.716211 144.366854,161.694503 144.346423,161.672156 Z" id="å½¢çŠ¶" fill="#61188E"></path>
                    <path d="M87.4542199,83.7855264 L65.2166765,106.02307 L87.4542199,128.259975 L109.691763,106.02307 L87.4542199,83.7855264 Z M100.609416,95.4581776 C100.200791,95.8674419 100.200152,96.5301818 100.60814,96.9394461 L96.5340127,92.8653192 C96.943277,93.2733066 97.6060169,93.2726681 98.0152812,92.8640423 L98.3364355,92.5428879 C98.5490486,92.3302748 98.6154503,92.0161438 98.5516025,91.722444 C98.2572643,90.3739789 98.6346047,88.9086723 99.6829852,87.8602918 C101.320681,86.2232347 103.975471,86.2232347 105.613167,87.8602918 C107.250224,89.4979873 107.250224,92.152778 105.613167,93.7904736 C104.564786,94.8388541 103.09948,95.2161945 101.751015,94.9218562 C101.457315,94.8580085 101.143184,94.9244101 100.930571,95.1370233 L100.609416,95.4581776 Z" id="å½¢çŠ¶" fill="#64CAF2"></path>
                    <path d="M63.8624651,106.02307 L87.4542199,82.431315 L97.2101607,92.1866173 C97.245277,92.2223721 97.30274,92.2217336 97.3378562,92.1866173 L97.6124017,91.9120719 C97.2580465,90.2622452 97.7209429,88.4681226 99.0055603,87.1835053 C101.017404,85.1716617 104.278748,85.1716617 106.289953,87.1835053 C108.301797,89.1947104 108.301797,92.456055 106.289953,94.4678985 C105.005336,95.7525159 103.210575,96.2154123 101.561387,95.8610571 L101.286841,96.1356025 C101.251725,96.1707188 101.251087,96.2281818 101.286841,96.2632981 L111.045975,106.02307 L87.4542199,129.614825 L63.8624651,106.02307 Z M99.8694207,94.8465159 C99.889852,94.8241691 99.9109218,94.8024609 99.93263,94.7807526 L100.253784,94.4595983 C100.738389,93.9749937 101.405598,93.8664524 101.955328,93.9864863 C102.9986,94.2137844 104.127429,93.9213615 104.935742,93.1130486 C106.19929,91.8495011 106.19929,89.8012643 104.935742,88.5377167 C103.672195,87.2741691 101.623958,87.2741691 100.36041,88.5377167 C99.5520973,89.3460296 99.2596744,90.4748584 99.4869725,91.5181311 C99.6070063,92.0678605 99.4984651,92.7350698 99.0138605,93.2196744 L98.6927061,93.5408288 C98.6709979,93.562537 98.6492896,93.5836068 98.6269429,93.6040381 L99.8694207,94.8465159 Z M66.5715264,106.02307 L87.4542199,126.905763 L108.336913,106.02307 L87.4542199,85.1397378 L66.5715264,106.02307 Z" id="å½¢çŠ¶" fill="#61188E"></path>
                    <path d="M154.166211,61.5478554 L131.928668,83.7855264 L154.166211,106.022431 L176.403755,83.7855264 L154.166211,61.5478554 Z M165.655619,96.0155687 C165.246994,95.6069429 164.583615,95.6063044 164.174351,96.0149302 L168.249116,91.9401649 C167.84049,92.3494292 167.841129,93.0128076 168.249755,93.4214334 L168.570909,93.7425877 C168.783522,93.9552008 169.097653,94.0216025 169.391992,93.9577548 C170.739818,93.664055 172.205125,94.0407569 173.253505,95.0891374 C174.891201,96.726833 174.891201,99.3816237 173.253505,101.019319 C171.61581,102.657015 168.961019,102.657015 167.323323,101.019319 C166.274943,99.9709387 165.898241,98.5056321 166.191941,97.1578055 C166.255789,96.8634672 166.189387,96.5493362 165.976774,96.336723 L165.655619,96.0155687 Z" id="å½¢çŠ¶" fill="#FB4C84"></path>
                    <path d="M130.574457,83.7855264 L154.166211,60.1934524 L177.757966,83.7855264 L168.92718,92.6163129 C168.892063,92.6514292 168.892063,92.7088922 168.92718,92.7440085 L169.201725,93.0185539 C170.851552,92.6641987 172.646313,93.1270951 173.93093,94.412351 C175.942135,96.423556 175.942135,99.6849006 173.93093,101.696744 C171.919087,103.707949 168.657742,103.707949 166.646537,101.696744 C165.36192,100.411488 164.898385,98.6173658 165.253378,96.9675391 L164.978833,96.6929937 C164.943078,96.6578774 164.886254,96.6578774 164.850499,96.6929937 L154.166211,107.377281 L130.574457,83.7855264 Z M166.267281,95.2762114 C166.289628,95.2960042 166.311336,95.317074 166.333044,95.3387822 L166.654199,95.6599366 C167.139442,96.1445412 167.247345,96.8117505 167.127949,97.3614799 C166.900013,98.4047526 167.192436,99.5342199 168.000748,100.341894 C169.264296,101.605442 171.312533,101.605442 172.57608,100.341894 C173.839628,99.0783467 173.839628,97.0301099 172.57608,95.7665624 C171.768406,94.9582495 170.638939,94.6658266 169.595666,94.8931247 C169.045937,95.0131586 168.379366,94.9046173 167.894123,94.4200127 L167.572968,94.0988584 C167.55126,94.0771501 167.530829,94.0554419 167.510397,94.0330951 L166.267281,95.2762114 Z M133.283518,83.7855264 L154.166211,104.66822 L175.049543,83.7855264 L154.166211,62.9022584 L133.283518,83.7855264 Z" id="å½¢çŠ¶" fill="#61188E"></path>
                    <polygon id="è·¯å¾„" fill="#FFFFFF" fill-rule="nonzero" points="141.390909 161.472313 143.000512 159.86271 145.594647 162.457484 143.985044 164.067087"></polygon>
                    <polygon id="è·¯å¾„" fill="#456EFF" fill-rule="nonzero" points="121.892436 114.563987 123.416482 116.087395 120.026803 119.476436 118.503395 117.953027"></polygon>
                    <path d="M26.9987362,261.565201 C23.6289142,250.023438 11.5411886,243.399869 -2.66630884e-05,246.769116 C-2.66630884e-05,246.769116 5.76925987,258.029949 8.0418833,265.754892 C11.119474,276.215712 21.2826359,283.606093 31.7497772,280.550338 L32.4798765,280.337087 L26.9987362,261.565201 Z" id="è·¯å¾„" fill="#6A6ADE" fill-rule="nonzero"></path>
                    <path d="M1.91068313,246.302389 C1.27315027,246.428169 0.635732347,246.583958 -2.66630884e-05,246.769116 C-2.66630884e-05,246.769116 0.332908072,247.419087 0.87032186,248.514076 C2.57003915,251.975264 6.31519032,259.886004 8.0418833,265.754892 C11.0096558,275.842203 20.5662638,283.074879 30.6306533,280.837653 C31.0031412,280.754651 31.3762677,280.659518 31.7497772,280.550338 L32.4798765,280.337087 L26.9987362,261.565201 C23.8145197,250.659362 12.8464288,244.144334 1.91068313,246.302389 Z M2.79434918,248.087573 C12.5951877,246.419869 22.306052,252.327066 25.1601116,262.101522 L30.0922888,278.993729 C21.2801459,280.865108 12.6267285,274.551839 9.87942241,265.214101 C8.70270782,261.214677 6.64431924,256.365438 4.91106909,252.569687 C4.10577619,250.806211 3.36196233,249.250879 2.79434918,248.087573 Z" id="å½¢çŠ¶" fill="#61188E"></path>
                    <path d="M60.7073632,225.071087 C58.9637442,224.809949 57.3382436,226.010926 57.076723,227.754609 L56.7648905,229.833493 C56.50337,231.576537 57.7047937,233.202101 59.4484127,233.463877 L72.5329937,235.426558 C76.0095053,235.948195 79.2504186,233.552626 79.772055,230.076753 C79.9457209,228.917915 79.1469852,227.837611 77.9887865,227.663307 L60.7073632,225.071087 Z" id="è·¯å¾„" fill="#626282" fill-rule="nonzero"></path>
                    <path d="M58.6591903,230.117615 L58.970959,228.038732 C59.0755416,227.341514 59.7257674,226.86074 60.4231767,226.96545 L77.7040254,229.55767 C77.8170359,229.574909 77.8942918,229.679619 77.8776913,229.791992 C77.5131205,232.222677 75.2478013,233.896765 72.8171163,233.532195 L59.7325353,231.569514 C59.035126,231.464803 58.5545438,230.814833 58.6591903,230.117615 Z M57.076723,227.754609 C57.3382436,226.010926 58.9637442,224.809949 60.7073632,225.071087 L77.9887865,227.663307 C79.1469852,227.837611 79.9457209,228.917915 79.772055,230.076753 C79.2504186,233.552626 76.0095053,235.948195 72.5329937,235.426558 L59.4484127,233.463877 C57.7047937,233.202101 56.50337,231.576537 56.7648905,229.833493 L57.076723,227.754609 Z" id="å½¢çŠ¶" fill="#61188E"></path>
                    <path d="M45.6522482,290.625518 C48.9384934,291.781163 52.539189,290.053442 53.6946423,286.767197 L55.9945032,280.22663 C56.6962541,278.230748 55.6471712,276.043323 53.6512258,275.341636 L49.3314765,273.822698 L44.3662262,287.94455 C43.9810326,289.040178 44.5568118,290.240516 45.6522482,290.625518 Z" id="è·¯å¾„" fill="#626282" fill-rule="nonzero"></path>
                    <path d="M54.1874833,279.591345 L51.8876863,286.131911 C51.0831404,288.420216 48.5759019,289.623108 46.2875975,288.818626 C46.1901658,288.784148 46.1389598,288.677522 46.1731822,288.579835 L50.5031471,276.265514 L53.0158765,277.148529 C54.0138173,277.499691 54.5383907,278.593404 54.1874833,279.591345 Z M53.6946423,286.767197 C52.539189,290.053442 48.9384934,291.781163 45.6522482,290.625518 C44.5568118,290.240516 43.9810326,289.040178 44.3662262,287.94455 L49.3314765,273.822698 L53.6512258,275.341636 C55.6471712,276.043323 56.6962541,278.230748 55.9945032,280.22663 L53.6946423,286.767197 Z" id="å½¢çŠ¶" fill="#61188E"></path>
                    <path d="M19.7362427,190.011632 C18.7370249,189.0686 17.1983573,188.998368 16.1176698,189.846905 C14.9119683,190.793129 14.7017814,192.538089 15.6482609,193.743535 L20.9393903,200.483945 C22.1037822,201.967767 24.2502808,202.226351 25.7336562,201.061767 C27.3757573,199.772681 27.487044,197.324757 25.9686799,195.892013 L19.7362427,190.011632 Z" id="è·¯å¾„" fill="#626282" fill-rule="nonzero"></path>
                    <path d="M22.4460702,199.301484 L17.1549408,192.561074 C16.8616241,192.187564 16.9267488,191.646774 17.300386,191.353712 C17.6352677,191.09066 18.1120829,191.112368 18.4216808,191.404152 L24.654118,197.285171 C25.3207526,197.91471 25.2719091,198.989268 24.55094,199.55496 C23.8996926,200.066381 22.9572994,199.952732 22.4460702,199.301484 Z M16.1176698,189.846905 C17.1983573,188.998368 18.7370249,189.0686 19.7362427,190.011632 L25.9686799,195.892013 C27.487044,197.324757 27.3757573,199.772681 25.7336562,201.061767 C24.2502808,202.226351 22.1037822,201.967767 20.9393903,200.483945 L15.6482609,193.743535 C14.7017814,192.538089 14.9119683,190.793129 16.1176698,189.846905 Z" id="å½¢çŠ¶" fill="#61188E"></path>
                    <path d="M34.797934,198.195641 C26.2879188,197.734021 19.173233,204.589357 19.3190613,213.110482 L20.2483019,267.421319 C20.3980888,276.175488 28.125841,282.854605 36.8091391,281.734715 L50.6363336,279.951446 C65.3890655,278.049421 75.4501987,263.968431 71.4392812,249.64482 C69.9752516,244.418241 68.3554334,239.138668 66.6749598,234.541628 C62.1263801,222.098334 57.7734939,217.545349 54.0154135,209.075941 C51.4433696,203.279201 46.2411801,198.816879 39.9090127,198.473378 L34.797934,198.195641 Z" id="è·¯å¾„" fill="#E9ECFA" fill-rule="nonzero"></path>
                    <path d="M22.1634161,267.388757 L21.2341755,213.07792 C21.1074376,205.667746 27.294096,199.706918 34.6941175,200.10852 L39.8051323,200.386258 C45.2511564,200.681873 49.909682,204.545302 52.2645797,209.85233 C53.797118,213.306495 55.4401129,216.15219 57.0960051,219.020871 C57.5244875,219.762782 57.9538,220.506609 58.3822825,221.262567 C60.4757873,224.956799 62.6489742,229.106905 64.8757294,235.19926 C66.5325793,239.732452 68.138351,244.95967 69.5947188,250.161349 C73.2672431,263.275683 64.0750782,276.28786 50.3914135,278.051975 L36.5641552,279.835243 C29.0134529,280.808283 22.2936655,275.000689 22.1634161,267.388757 Z M19.3190613,213.110482 C19.173233,204.589357 26.2879188,197.734021 34.797934,198.195641 L39.9090127,198.473378 C46.2411801,198.816879 51.4433696,203.279201 54.0154135,209.075941 C55.5028753,212.427949 57.0835548,215.167019 58.7326791,218.024207 C61.2499416,222.385649 63.9269514,227.023552 66.6749598,234.541628 C68.3554334,239.138668 69.9752516,244.418241 71.4392812,249.64482 C75.4501987,263.968431 65.3890655,278.049421 50.6363336,279.951446 L36.8091391,281.734715 C28.125841,282.854605 20.3980888,276.175488 20.2483019,267.421319 L19.3190613,213.110482 Z" id="å½¢çŠ¶" fill="#61188E"></path>
                    <path d="M20.2082055,226.473184 C21.4131408,230.152732 30.1878689,230.581789 39.8071116,227.432178 C49.4263543,224.281928 56.2475319,218.745687 55.0425966,215.06614 C53.8377252,211.386592 45.062997,210.957535 35.4437543,214.107146 C25.8245116,217.256757 19.003334,222.793636 20.2082055,226.473184 Z" id="è·¯å¾„" fill="#CAE2FF" fill-rule="nonzero"></path>
                    <path d="M67.7469641,202.379586 C65.1809218,194.543548 57.1901167,189.836689 49.0924304,191.390744 L36.0432211,193.894854 L21.2694833,196.755873 C14.4790803,198.071137 10.3800529,205.042677 12.5324892,211.615805 L15.6329374,221.083793 C17.3886875,226.445729 23.1586114,229.368681 28.5204203,227.613505 L60.2218647,217.232495 C66.4010529,215.209159 69.7703002,208.559412 67.7469641,202.379586 L67.7469641,202.379586 Z" id="è·¯å¾„" fill="#FFFFFF" fill-rule="nonzero"></path>
                    <path d="M17.4533015,220.488093 L14.3527894,211.019467 C12.5591137,205.541966 15.97497,199.732457 21.6336072,198.636829 L49.4534258,193.2717 C56.6042495,191.899611 63.6605146,196.056101 65.9266638,202.975924 C67.6205455,208.150148 64.7997505,213.717674 59.6257818,215.412195 L27.9243374,225.793205 C23.5678757,227.219564 18.8798524,224.844427 17.4533015,220.488093 Z M36.0432211,193.894854 L49.0924304,191.390744 C57.1901167,189.836689 65.1809218,194.543548 67.7469641,202.379586 C69.7703002,208.559412 66.4010529,215.209159 60.2218647,217.232495 L28.5204203,227.613505 C23.1586114,229.368681 17.3886875,226.445729 15.6329374,221.083793 L12.5324892,211.615805 C10.3800529,205.042677 14.4790803,198.071137 21.2694833,196.755873 L36.0432211,193.894854 Z" id="å½¢çŠ¶" fill="#61188E"></path>
                    <path d="M23.9906118,209.692072 C25.7704326,211.986123 28.9001869,212.537767 30.9810499,210.923057 C33.0619129,209.308985 33.3059391,206.14022 31.5261184,203.846169 C29.7462977,201.552118 26.6166072,201.000474 24.5357442,202.615184 C22.4548812,204.229256 22.2107911,207.397383 23.9906118,209.692072 Z" id="è·¯å¾„" fill="#FFFFFF" fill-rule="nonzero"></path>
                    <path d="M29.8069531,209.409865 C28.6975979,210.270533 26.7459628,210.118575 25.5040596,208.517911 C24.2621564,206.917247 24.600422,204.989044 25.7097772,204.128376 C26.8191323,203.267708 28.7707674,203.419666 30.0126706,205.02033 C31.2545738,206.620994 30.9163721,208.549197 29.8069531,209.409865 Z M30.9810499,210.923057 C28.9001869,212.537767 25.7704326,211.986123 23.9906118,209.692072 C22.2107911,207.397383 22.4548812,204.229256 24.5357442,202.615184 C26.6166072,201.000474 29.7462977,201.552118 31.5261184,203.846169 C33.3059391,206.14022 33.0619129,209.308985 30.9810499,210.923057 Z" id="å½¢çŠ¶" fill="#61188E"></path>
                    <path d="M25.60794,206.190021 C26.1456021,207.831548 27.9124617,208.726693 29.5543712,208.189095 C31.1962808,207.651497 32.0914266,205.884829 31.5538283,204.242664 C31.0161662,202.601137 29.2492427,201.705992 27.607397,202.24359 C25.9654875,202.781188 25.0702778,204.547856 25.60794,206.190021 Z" id="è·¯å¾„" fill="#342E2E" fill-rule="nonzero"></path>
                    <path d="M28.9582884,206.368795 C28.321726,206.577577 27.6367032,206.230245 27.4282402,205.593683 C27.219841,204.957121 27.5668537,204.272034 28.2034161,204.06389 C28.8400423,203.855108 29.5250013,204.20244 29.7334643,204.839002 C29.9419273,205.475564 29.5948507,206.160651 28.9582884,206.368795 Z M29.5543712,208.189095 C27.9124617,208.726693 26.1456021,207.831548 25.60794,206.190021 C25.0702778,204.547856 25.9654875,202.781188 27.607397,202.24359 C29.2492427,201.705992 31.0161662,202.601137 31.5538283,204.242664 C32.0914266,205.884829 31.1962808,207.651497 29.5543712,208.189095 Z" id="å½¢çŠ¶" fill="#5C3375"></path>
                    <path d="M62.3243721,210.720021 C62.5146385,211.301036 63.1398359,211.617721 63.7208507,211.427455 C64.3017378,211.237188 64.6184228,210.612118 64.4281564,210.031104 C64.2378901,209.450089 63.6128841,209.133404 63.0318693,209.32367 C62.4509184,209.513937 62.1341696,210.139006 62.3243721,210.720021 Z" id="è·¯å¾„" fill="#61188E" fill-rule="nonzero"></path>
                    <path d="M10.2148148,194.133006 C9.21559704,193.189975 7.67692939,193.120381 6.59624186,193.968279 C5.39050207,194.915142 5.18033433,196.659463 6.1268266,197.865548 L11.4179624,204.605958 C12.5823543,206.089142 14.7288529,206.347725 16.2122283,205.183142 C17.8543294,203.894693 17.9656161,201.44677 16.447252,200.014025 L10.2148148,194.133006 Z" id="è·¯å¾„" fill="#626282" fill-rule="nonzero"></path>
                    <path d="M12.9245784,203.423497 L7.6335129,196.683087 C7.34019619,196.308939 7.40532093,195.768786 7.77895814,195.475087 C8.11383975,195.212034 8.59065497,195.233742 8.90025285,195.526165 L15.1326901,201.407184 C15.7993247,202.036085 15.7504812,203.110643 15.0295121,203.676973 C14.3782647,204.187755 13.4358715,204.074744 12.9245784,203.423497 Z M6.59624186,193.968279 C7.67692939,193.120381 9.21559704,193.189975 10.2148148,194.133006 L16.447252,200.014025 C17.9656161,201.44677 17.8543294,203.894693 16.2122283,205.183142 C14.7288529,206.347725 12.5823543,206.089142 11.4179624,204.605958 L6.1268266,197.865548 C5.18033433,196.659463 5.39050207,194.915142 6.59624186,193.968279 Z" id="å½¢çŠ¶" fill="#61188E"></path>
                    <path d="M28.2431294,292.480296 C26.1012918,292.145095 24.6365598,290.137721 24.9715691,287.995628 L26.9027729,275.647467 C27.1037658,274.362211 28.3084457,273.483666 29.5935738,273.684786 C33.8771852,274.35455 36.806649,278.369937 36.1366943,282.654123 L35.4185345,287.246055 C34.8825962,290.672765 31.6700313,293.016617 28.2431294,292.480296 Z" id="è·¯å¾„" fill="#626282" fill-rule="nonzero"></path>
                    <path d="M28.7952211,275.943721 L26.8640173,288.291882 C26.6924584,289.388148 27.4424782,290.416097 28.5391277,290.587848 C30.9208414,290.960719 33.1535983,289.331323 33.5261501,286.949801 L34.2443099,282.357869 C34.7507505,279.11951 32.5360626,276.083548 29.2975755,275.577235 C29.0576355,275.539564 28.8326998,275.703653 28.7952211,275.943721 Z M24.9715691,287.995628 C24.6365598,290.137721 26.1012918,292.145095 28.2431294,292.480296 C31.6700313,293.016617 34.8825962,290.672765 35.4185345,287.246055 L36.1366943,282.654123 C36.806649,278.369937 33.8771852,274.35455 29.5935738,273.684786 C28.3084457,273.483666 27.1037658,274.362211 26.9027729,275.647467 L24.9715691,287.995628 Z" id="å½¢çŠ¶" fill="#61188E"></path>
                    <path d="M72.3069725,259.322867 C72.6383425,257.454042 72.5923721,255.479869 72.0994672,253.492288 C71.4699281,250.956892 70.7752643,248.247831 70.0295222,245.478753 L56.3086981,247.247975 C54.3886677,247.495704 53.03286,249.252795 53.2804617,251.173336 C54.023203,256.933044 59.2947311,261.000786 65.0551416,260.257598 L72.3069725,259.322867 Z" id="è·¯å¾„" fill="#C44E26"></path>
                    <path d="M70.5830825,257.613662 L64.8099662,258.358127 C60.0989577,258.965319 55.7876364,255.63885 55.1801886,250.928161 C55.0678803,250.057277 55.6827983,249.260457 56.553682,249.148085 L68.611463,247.593391 C69.1912008,249.784647 69.7364609,251.924186 70.2402199,253.953907 C70.5479662,255.193831 70.6539535,256.422901 70.5830825,257.613662 Z M70.0295222,245.478753 C70.7752643,248.247831 71.4699281,250.956892 72.0994672,253.492288 C72.5923721,255.479869 72.6383425,257.454042 72.3069725,259.322867 L65.0551416,260.257598 C59.2947311,261.000786 54.023203,256.933044 53.2804617,251.173336 C53.03286,249.252795 54.3886677,247.495704 56.3086981,247.247975 L70.0295222,245.478753 Z" id="å½¢çŠ¶" fill="#61188E"></path>
                    <path d="M26.4680334,195.455294 L35.8070482,173.895814 L37.712649,197.313903 C37.3249015,199.65967 34.465351,201.315243 31.3602419,200.802545 C28.2551966,200.289209 26.0803497,197.8017 26.4680334,195.455294 Z" id="è·¯å¾„" fill="#C44E26" fill-rule="nonzero"></path>
                    <path d="M35.8070482,173.895814 L37.712649,197.313903 C37.3249015,199.65967 34.465351,201.315243 31.3602419,200.802545 C28.2551966,200.289209 26.0803497,197.8017 26.4680334,195.455294 L35.8070482,173.895814 Z M34.5193023,181.687159 L35.7801683,197.182376 C35.649408,197.608879 35.2933928,198.08263 34.6215865,198.458055 C33.8627556,198.881366 32.8129704,199.101002 31.6725852,198.912651 C30.5322,198.723662 29.6088334,198.178402 29.0266055,197.532901 C28.5112901,196.962101 28.3265784,196.398964 28.3401142,195.952668 L34.5193023,181.687159 Z" id="å½¢çŠ¶" fill="#61188E"></path>
                    <path d="M64.080186,223.58471 L74.4139493,231.229844 C74.8787611,231.565044 75.528093,231.464803 75.8696786,231.003184 L76.1403932,230.637975 C76.319167,230.395992 76.3383214,230.075476 76.2310571,229.794545 C75.7413446,228.504182 75.8977717,226.999928 76.7795095,225.80789 C78.1567061,223.946089 80.7821268,223.553425 82.6439281,224.930622 C84.5057294,226.307818 84.8983932,228.933877 83.5211966,230.795679 C82.6394588,231.987078 81.2463002,232.577032 79.8691036,232.485729 C79.5696575,232.465937 79.268296,232.578309 79.0895222,232.819653 L78.8194461,233.184863 C78.4778605,233.647121 78.5717167,234.297091 79.0288668,234.643784 L89.36263,242.288279 L81.7226047,252.615658 C81.3771882,253.077915 80.7233869,253.174326 80.2592135,252.830825 L79.8940042,252.560748 C79.6520211,252.381975 79.5402875,252.081252 79.5600803,251.781167 C79.6513827,250.404609 79.0614292,249.010812 77.8693911,248.129712 C76.0075899,246.752516 73.3821691,247.14518 72.0049725,249.006981 C70.6277759,250.868144 71.0204397,253.494203 72.882241,254.8714 C74.0736406,255.753137 75.5785328,255.909564 76.8688964,255.419214 C77.1498266,255.312588 77.4703425,255.331742 77.7116871,255.510516 L78.0768964,255.780592 C78.5410698,256.124093 78.6400338,256.777894 78.2990867,257.242706 L70.6590613,267.570723 L45.3769366,248.867154 L53.0253899,238.528283 C53.356249,238.06411 53.2551142,237.41797 52.7948355,237.077662 L52.4296901,236.807586 C52.1879624,236.628812 51.8674465,236.609658 51.5863886,236.716283 C50.2963442,237.206634 48.7915159,237.050207 47.5997332,236.168469 C45.7380596,234.791273 45.3452681,232.165214 46.7225285,230.303412 C48.099789,228.442249 50.7255928,228.048947 52.5872664,229.426782 C53.779049,230.307882 54.3688748,231.701679 54.2777641,233.078237 C54.2579074,233.378321 54.3700241,233.679044 54.6117518,233.857818 L54.9768973,234.127894 C55.4371759,234.468841 56.0842732,234.376262 56.4315412,233.92422 L64.080186,223.58471 Z M55.7018249,256.505264 C56.1661899,256.850042 56.2638131,257.505759 55.9198651,257.970571 L55.6497252,258.33578 C55.4708875,258.577763 55.1700368,258.689497 54.8700161,258.669704 C53.4930748,258.578402 52.0998524,259.168355 51.2181784,260.360393 C49.840918,262.222195 50.2336457,264.847615 52.0953831,266.224812 C53.9571205,267.602008 56.5828605,267.209345 57.9601209,265.347543 C58.8417311,264.156144 58.9980943,262.651252 58.5080626,261.360888 C58.4013091,261.079958 58.4204634,260.759442 58.5993011,260.518097 L58.869441,260.152888 C59.2134529,259.687438 59.868978,259.589112 60.3343006,259.932613 L55.7018249,256.505264 Z" id="å½¢çŠ¶" fill="#FF8961"></path>
                    <path d="M76.0095053,225.238368 C77.7014715,222.95134 80.9264228,222.468651 83.2134503,224.160617 C85.5004778,225.852584 85.983167,229.078173 84.2912008,231.364562 C83.2108964,232.8254 81.5042452,233.548795 79.8205793,233.442169 L79.5894503,233.754385 C79.5607188,233.793332 79.5677421,233.848879 79.6054123,233.878888 L90.7021564,242.087797 L82.4926089,253.18518 L82.490055,253.188372 C81.8292304,254.073302 80.577814,254.257822 79.6896913,253.600829 L79.324482,253.330753 C78.7728372,252.922765 78.5672474,252.27918 78.6042791,251.717958 C78.6751501,250.652338 78.2186385,249.579057 77.2998689,248.899078 C75.8632939,247.836651 73.8374038,248.139928 72.7749767,249.575865 C71.7119112,251.01244 72.0151882,253.038968 73.4517632,254.101395 C74.3705328,254.780736 75.5306469,254.903323 76.5285877,254.524068 C77.0546934,254.324224 77.730203,254.332524 78.2818478,254.740512 L78.6464186,255.010588 C79.5351797,255.667581 79.7241691,256.918998 79.0716448,257.809036 L79.0690909,257.812228 L70.8595433,268.909611 L59.7659915,260.703256 C59.7258313,260.673247 59.6691345,260.682186 59.6394452,260.72241 L59.4085078,261.034626 C60.0032499,262.613581 59.8106211,264.456867 58.7301252,265.917066 C57.0382867,268.204093 53.8128245,268.686782 51.5258609,266.994816 C49.2388973,265.30285 48.7564634,262.07726 50.4483019,259.790871 C51.5288617,258.330034 53.2351298,257.606638 54.9190512,257.713264 L55.1499247,257.401049 C55.1796778,257.360825 55.1712499,257.304 55.1311535,257.27463 L44.037474,249.067636 L52.2475962,237.969615 C52.2733268,237.93003 52.2639412,237.876397 52.2253133,237.847666 L51.9131615,237.616537 C50.3341421,238.211598 48.4908567,238.018778 47.030211,236.938474 C44.7433112,235.246507 44.2608135,232.020918 45.952652,229.73389 C47.6444905,227.446863 50.8700165,226.964812 53.1569163,228.65614 C54.6175619,229.737082 55.341085,231.443095 55.2343315,233.1274 L55.5464833,233.35789 C55.5851112,233.386622 55.6391903,233.380237 55.669518,233.343844 L63.879704,222.245184 L74.9764482,230.454732 C75.0166723,230.481548 75.0709429,230.472609 75.1003129,230.433023 L75.3308034,230.120808 C74.7363805,228.541852 74.9285624,226.698567 76.0095053,225.238368 Z M56.7420968,258.46603 C56.7253049,258.49093 56.7078744,258.515831 56.6898055,258.540093 L56.4197294,258.905302 C56.0117421,259.456947 55.368348,259.662537 54.8068706,259.625505 C53.7414427,259.554634 52.6678423,260.011146 51.9881827,260.929915 C50.9255002,262.36649 51.2285218,264.392381 52.665033,265.454808 C54.1015442,266.517873 56.1275619,266.214596 57.1902444,264.778021 C57.869904,263.859252 57.991981,262.699137 57.612789,261.701197 C57.4130093,261.175091 57.4215011,260.499581 57.8294245,259.947937 L58.0995645,259.582727 C58.1175696,259.558465 58.1360854,259.534841 58.1550482,259.511218 L56.7420968,258.46603 Z M82.0744059,225.700626 C80.6378309,224.63756 78.6119408,224.940837 77.5495137,226.377412 C76.8695349,227.296182 76.7475856,228.456296 77.1268414,229.454237 C77.326685,229.980342 77.3177463,230.655852 76.909759,231.207497 L76.6396829,231.572706 C75.9858816,232.456359 74.7427653,232.647903 73.8533658,232.006233 L73.8488964,232.00304 L64.2806681,224.924237 L57.1964376,234.500765 L57.191266,234.50715 C56.5264829,235.372926 55.2882829,235.549784 54.4073112,234.897899 L54.0422296,234.627822 C53.4907125,234.219835 53.2849949,233.576249 53.3221543,233.015027 C53.3926423,231.949408 52.9365137,230.876127 52.0177442,230.196148 C50.581233,229.133721 48.5552152,229.436359 47.4925328,230.872934 C46.4298503,232.30951 46.7328719,234.3354 48.1693831,235.398465 C49.0881526,236.077805 50.248203,236.200393 51.2463353,235.821137 C51.7723772,235.621294 52.4478867,235.629594 52.99934,236.037581 L53.3644854,236.307658 C54.2453294,236.959543 54.4387882,238.194998 53.8054182,239.083759 L53.8004381,239.090782 L46.7165268,248.666672 L70.4585793,266.230558 L77.527167,256.675738 C77.5558985,256.636152 77.5475983,256.579966 77.5073742,256.550596 L77.1951586,256.319467 C75.616203,256.914529 73.7729175,256.721708 72.3127188,255.641404 C70.0256913,253.949438 69.5430021,250.723848 71.2349683,248.43682 C72.9269345,246.149793 76.1525243,245.667742 78.4389133,247.359708 C79.8997505,248.440013 80.6231459,250.146025 80.5165201,251.83033 L80.8287357,252.06082 C80.8683214,252.090829 80.9245074,252.082529 80.9545159,252.043581 L88.0231036,242.488761 L78.4548753,235.409958 L78.4504059,235.406765 C77.5756913,234.744025 77.3956406,233.499632 78.0494419,232.61534 L78.319518,232.250131 C78.7275053,231.698486 79.3710909,231.492896 79.9329514,231.529928 C80.9979323,231.600799 82.071852,231.144288 82.7511924,230.225518 C83.8142579,228.788943 83.510981,226.763053 82.0744059,225.700626 Z" id="å½¢çŠ¶" fill="#61188E"></path>
                    <path d="M86.4830951,233.50474 C86.4830951,235.965433 84.4884905,237.960038 82.027797,237.960038 C79.5671036,237.960038 77.5724989,235.965433 77.5724989,233.50474 C77.5724989,231.044047 79.5671036,229.049442 82.027797,229.049442 C84.4884905,229.049442 86.4830951,231.044047 86.4830951,233.50474 Z" id="è·¯å¾„" fill="#626282" fill-rule="nonzero"></path>
                    <path d="M82.027797,236.044605 C83.4305328,236.044605 84.5676617,234.907476 84.5676617,233.50474 C84.5676617,232.102004 83.4305328,230.964875 82.027797,230.964875 C80.6250613,230.964875 79.4879323,232.102004 79.4879323,233.50474 C79.4879323,234.907476 80.6250613,236.044605 82.027797,236.044605 Z M82.027797,237.960038 C84.4884905,237.960038 86.4830951,235.965433 86.4830951,233.50474 C86.4830951,231.044047 84.4884905,229.049442 82.027797,229.049442 C79.5671036,229.049442 77.5724989,231.044047 77.5724989,233.50474 C77.5724989,235.965433 79.5671036,237.960038 82.027797,237.960038 Z" id="å½¢çŠ¶" fill="#61188E"></path>
                    <path d="M35.2241818,234.194296 C33.4769235,233.958059 31.8691087,235.183298 31.6330634,236.930173 L31.3516224,239.012888 C31.1155133,240.760402 32.3405607,242.368089 34.0877552,242.604326 L47.1791679,244.372909 C50.6627666,244.844106 53.8683082,242.40129 54.3389941,238.917755 C54.4959319,237.757002 53.681745,236.68819 52.5206093,236.531125 L35.2241818,234.194296 Z" id="è·¯å¾„" fill="#626282" fill-rule="nonzero"></path>
                    <path d="M33.2498169,239.269556 L33.5312579,237.186841 C33.6256888,236.487708 34.2687636,235.997996 34.9677053,236.09249 L52.2640689,238.429319 C52.3769518,238.444643 52.4560592,238.548715 52.4407996,238.661725 C52.111792,241.096879 49.8708626,242.804169 47.4356444,242.474715 L34.3442956,240.706131 C33.6453539,240.611636 33.155386,239.968689 33.2498169,239.269556 Z M31.6330634,236.930173 C31.8691087,235.183298 33.4769235,233.958059 35.2241818,234.194296 L52.5206093,236.531125 C53.681745,236.68819 54.4959319,237.757002 54.3389941,238.917755 C53.8683082,242.40129 50.6627666,244.844106 47.1791679,244.372909 L34.0877552,242.604326 C32.3405607,242.368089 31.1155133,240.760402 31.3516224,239.012888 L31.6330634,236.930173 Z" id="å½¢çŠ¶" fill="#61188E"></path>
                    <path d="M125.793535,28.0413704 C125.793535,24.712411 128.492381,22.0137569 131.820765,22.0137569 L224.594144,22.0137569 C227.922529,22.0137569 230.621374,24.712411 230.621374,28.0413704 C230.621374,31.3703298 227.922529,34.0689839 224.594144,34.0689839 L131.820765,34.0689839 C128.492381,34.0689839 125.793535,31.3703298 125.793535,28.0413704 Z" id="è·¯å¾„" fill="#E9ECFA" fill-rule="nonzero"></path>
                    <path d="M224.594144,23.9291903 L131.820765,23.9291903 C129.5497,23.9291903 127.708968,25.7703049 127.708968,28.0413704 C127.708968,30.3124998 129.5497,32.1535505 131.820765,32.1535505 L224.594144,32.1535505 C226.865209,32.1535505 228.705941,30.3124998 228.705941,28.0413704 C228.705941,25.7703049 226.865209,23.9291903 224.594144,23.9291903 Z M131.820765,22.0137569 C128.492381,22.0137569 125.793535,24.712411 125.793535,28.0413704 C125.793535,31.3703298 128.492381,34.0689839 131.820765,34.0689839 L224.594144,34.0689839 C227.922529,34.0689839 230.621374,31.3703298 230.621374,28.0413704 C230.621374,24.712411 227.922529,22.0137569 224.594144,22.0137569 L131.820765,22.0137569 Z" id="å½¢çŠ¶" fill="#61188E"></path>
                    <path d="M136.800254,28.0412427 C136.800254,29.633351 135.50989,30.92397 133.917526,30.92397 C132.325801,30.92397 131.034799,29.633351 131.034799,28.0412427 C131.034799,26.4491345 132.325801,25.1584516 133.917526,25.1584516 C135.50989,25.1584516 136.800254,26.4491345 136.800254,28.0412427 Z" id="è·¯å¾„" fill="#FC7777" fill-rule="nonzero"></path>
                    <path d="M146.23504,28.0412427 C146.23504,29.633351 144.827197,30.92397 143.089899,30.92397 C141.353239,30.92397 139.945395,29.633351 139.945395,28.0412427 C139.945395,26.4491345 141.353239,25.1584516 143.089899,25.1584516 C144.827197,25.1584516 146.23504,26.4491345 146.23504,28.0412427 Z" id="è·¯å¾„" fill="#FCB777" fill-rule="nonzero"></path>
                    <path d="M155.145636,28.0412427 C155.145636,29.633351 153.854634,30.92397 152.262271,30.92397 C150.670545,30.92397 149.379543,29.633351 149.379543,28.0412427 C149.379543,26.4491345 150.670545,25.1584516 152.262271,25.1584516 C153.854634,25.1584516 155.145636,26.4491345 155.145636,28.0412427 Z" id="è·¯å¾„" fill="#79D57D" fill-rule="nonzero"></path>
                    <path d="M238.589577,123.380089 C237.438402,122.108879 236.255302,120.865125 235.040279,119.650101 L233.685429,118.295252 L227.745032,124.235649 L229.099882,125.590499 L233.685429,121.004313 C233.91145,121.230334 234.136195,121.456994 234.359662,121.68493 C234.583129,121.912867 234.805958,122.141442 235.02751,122.371294 C235.753459,123.125336 236.467915,123.890233 237.169603,124.665345 L238.589577,123.380089 Z M243.574173,132.482228 L245.114182,131.343184 C247.156034,134.103323 249.059975,136.963066 250.819619,139.912195 L249.174901,140.893535 C247.44718,137.998677 245.578355,135.191928 243.574173,132.482228 Z M253.917514,149.816901 L255.651619,149.002203 C256.380761,150.553704 257.072233,152.124998 257.724757,153.714808 C258.379197,155.307171 258.993412,156.91422 259.567404,158.534677 L257.761789,159.173793 C257.198651,157.583983 256.595928,156.006304 255.953619,154.442672 C255.311949,152.882233 254.633247,151.33967 253.917514,149.816901 Z M260.66814,168.874825 L262.527387,168.416397 C263.351023,171.755636 264.009294,175.135099 264.500922,178.541378 L262.605281,178.815285 C262.122592,175.470939 261.476452,172.153408 260.66814,168.874825 Z M244.282245,194.039789 L244.289907,195.955222 L231.370947,196.007577 L231.363285,194.092144 L244.282245,194.039789 Z M218.444964,194.144499 L218.452626,196.059932 L205.533666,196.112288 L205.526004,194.196854 L218.444964,194.144499 Z M192.607044,194.248571 L192.614706,196.164004 L179.696385,196.216359 L179.688723,194.300926 L192.607044,194.248571 Z M174.068203,180.621539 L172.713992,179.267328 L181.885725,170.095594 L183.239937,171.449805 L174.068203,180.621539 Z M192.412309,162.278072 L191.057459,160.92386 L200.229831,151.751488 L201.584042,153.106338 L192.412309,162.278072 Z M219.92751,134.762233 L218.573298,133.408021 L209.401564,142.579755 L210.755776,143.933966 L219.92751,134.762233 Z M164.896469,189.793911 L163.541619,188.439061 L155.667273,196.314047 L166.777425,196.268715 L166.769763,194.353281 L160.310283,194.379459 L164.896469,189.793911 Z M257.200567,193.987433 L263.660047,193.961256 C263.6626,193.403226 263.660047,192.845197 263.653662,192.287805 C263.652385,192.207357 263.651108,192.126271 263.650469,192.045822 C263.635146,190.994888 263.60386,189.94523 263.556613,188.897488 L265.470131,188.811294 C265.547387,190.526884 265.582503,192.246943 265.57548,193.968918 L265.567818,195.869027 L257.208867,195.902867 L257.200567,193.987433 Z" id="å½¢çŠ¶" fill="#EFD4FF"></path>
                    <path d="M177.37041,174.490237 C180.254414,177.374241 182.538249,180.803505 184.090389,184.581378 C185.642529,188.359252 186.432964,192.41167 186.41662,196.507505 L155.226085,196.633924 L177.37041,174.490237 Z" id="è·¯å¾„" fill-opacity="0.4" fill="#9A97FF" fill-rule="nonzero"></path>
                    <path d="M11.181534,32.4966047 L4.19297311,32.4966047 L4.19297311,30.5811712 L11.181534,30.5811712 L11.181534,32.4966047 Z M39.1356245,32.4966047 L25.1585793,32.4966047 L25.1585793,30.5811712 L39.1356245,30.5811712 L39.1356245,32.4966047 Z M67.0899704,32.4966047 L53.1127336,32.4966047 L53.1127336,30.5811712 L67.0899704,30.5811712 L67.0899704,32.4966047 Z M88.055666,32.4966047 L81.0668879,32.4966047 L81.0668879,30.5811712 L88.055666,30.5811712 L88.055666,32.4966047 Z" id="å½¢çŠ¶" fill="#EFD5FF"></path>
                    <path d="M37.2138063,76.8740042 L37.2138063,83.8627822 L35.2983729,83.8627822 L35.2983729,76.8740042 L37.2138063,76.8740042 Z M37.2138063,48.9199137 L37.2138063,62.896959 L35.2983729,62.896959 L35.2983729,48.9199137 L37.2138063,48.9199137 Z M37.2138063,20.9657594 L37.2138063,34.9428047 L35.2983729,34.9428047 L35.2983729,20.9657594 L37.2138063,20.9657594 Z M37.2138063,0.000136648296 L37.2138063,6.98865032 L35.2983729,6.98865032 L35.2983729,0.000136648296 L37.2138063,0.000136648296 Z" id="å½¢çŠ¶" fill="#EFD5FF"></path>
                    <polygon id="è·¯å¾„" fill="#61188E" fill-rule="nonzero" points="30.9240977 26.206896 41.4068816 26.206896 41.4068816 36.6896799 30.9240977 36.6896799"></polygon>
                </g>
            </g>
        </g>
    </g>
</svg>