<?xml version="1.0" encoding="UTF-8"?>
<svg width="540px" height="360px" viewBox="0 0 540 360" version="1.1" xmlns="http://www.w3.org/2000/svg" xmlns:xlink="http://www.w3.org/1999/xlink">
    <title>é«˜æ•ˆ</title>
    <g id="ðŸ“è®¾è®¡å¸ˆæ¨¡å¼" stroke="none" stroke-width="1" fill="none" fill-rule="evenodd">
        <g id="æ¦‚è¿°-è®¾è®¡ä»·å€¼è§‚" transform="translate(-720.000000, -1597.000000)">
            <g id="é«˜æ•ˆ" transform="translate(720.000000, 1597.000000)">
                <polygon id="è·¯å¾„å¤‡ä»½-4" fill="#C93E95" fill-rule="nonzero" points="540 0 0 0 0 360 540 360"></polygon>
                <g id="ç¼–ç»„-23" transform="translate(68.714160, 150.000000)" fill="#FFFFFF">
                    <path d="M32.6592,6.08256 L32.6592,2.7648 L19.31904,2.7648 C19.04256,1.76256 18.73152,0.82944 18.45504,0 L14.41152,0.6912 C14.75712,1.31328 15.06816,2.00448 15.3792,2.7648 L1.86624,2.7648 L1.86624,6.08256 L32.6592,6.08256 Z M27.40608,14.82624 L27.40608,7.49952 L7.18848,7.49952 L7.18848,14.82624 L27.40608,14.82624 Z M23.95008,12.13056 L10.64448,12.13056 L10.64448,10.1952 L23.95008,10.1952 L23.95008,12.13056 Z M6.7392,32.20992 L6.7392,19.31904 L27.8208,19.31904 L27.8208,27.78624 C27.8208,28.61568 27.19872,29.0304 25.98912,29.0304 L23.328,28.92672 L24.192,32.10624 L27.02592,32.10624 C29.82528,32.10624 31.24224,30.89664 31.24224,28.512 L31.24224,16.20864 L3.31776,16.20864 L3.31776,32.20992 L6.7392,32.20992 Z M24.43392,28.1664 L24.43392,20.70144 L10.1952,20.70144 L10.1952,28.1664 L24.43392,28.1664 Z M21.2544,25.50528 L13.37472,25.50528 L13.37472,23.36256 L21.2544,23.36256 L21.2544,25.50528 Z M52.56576,6.98112 L52.56576,3.49056 L46.24128,3.49056 C45.82656,2.21184 45.37728,1.07136 44.89344,0.03456 L41.16096,0.65664 C41.71392,1.5552 42.19776,2.48832 42.6816,3.49056 L36.25344,3.49056 L36.25344,6.98112 L52.56576,6.98112 Z M51.18336,32.41728 C54.50112,30.55104 57.23136,28.27008 59.37408,25.53984 C61.20576,28.37376 63.38304,30.62016 65.90592,32.24448 L68.0832,29.06496 C65.4912,27.50976 63.27936,25.29792 61.41312,22.42944 C63.48672,18.62784 64.66176,14.13504 64.93824,8.95104 L67.49568,8.95104 L67.49568,5.42592 L58.37184,5.42592 C58.71744,3.93984 58.99392,2.38464 59.2704,0.72576 L55.71072,0.10368 C54.88128,6.3936 53.25696,11.37024 50.90688,15.06816 L53.15328,17.86752 C53.70624,17.07264 54.2592,16.20864 54.7776,15.31008 C55.53792,17.7984 56.43648,20.07936 57.47328,22.18752 C55.4688,25.056 52.66944,27.37152 49.14432,29.09952 L51.18336,32.41728 Z M49.55904,14.72256 L51.94368,12.37248 C50.112,10.22976 48.5568,8.64 47.24352,7.56864 L45.06624,9.71136 C46.72512,11.33568 48.2112,12.99456 49.55904,14.72256 Z M38.32704,17.6256 C40.33152,15.27552 42.05952,12.51072 43.5456,9.3312 L40.4352,7.81056 C39.0528,10.85184 37.35936,13.40928 35.424,15.552 L38.32704,17.6256 Z M59.40864,18.73152 C58.37184,16.38144 57.47328,13.75488 56.78208,10.85184 C56.98944,10.22976 57.23136,9.57312 57.43872,8.95104 L61.62048,8.95104 C61.41312,12.6144 60.68736,15.86304 59.40864,18.73152 Z M37.73952,32.07168 C40.84992,30.27456 43.44192,27.88992 45.51552,24.91776 C46.55232,26.02368 47.62368,27.19872 48.66048,28.44288 L51.18336,25.60896 C50.00832,24.22656 48.7296,22.91328 47.41632,21.63456 C48.24576,19.94112 48.97152,18.07488 49.5936,16.03584 L46.44864,14.65344 C45.9648,16.20864 45.37728,17.69472 44.68608,19.07712 C43.58016,18.07488 42.40512,17.1072 41.19552,16.13952 L38.94912,18.69696 C40.2624,19.76832 41.54112,20.94336 42.8544,22.22208 C40.91904,24.98688 38.46528,27.19872 35.49312,28.78848 L37.73952,32.07168 Z" id="é«˜æ•ˆ" fill-rule="nonzero"></path>
                    <text id="Efficient" font-family="PingFangSC-Semibold, PingFang SC" font-size="16.64" font-weight="500">
                        <tspan x="0" y="53.97568">Efficient</tspan>
                    </text>
                </g>
                <g id="ç¼–ç»„-5" transform="translate(239.000000, 37.500000)">
                    <path d="M249.287469,275.19656 C249.287469,269.792764 201.219803,265.412027 141.927199,265.412027 C82.6338943,265.412027 34.5669287,269.792764 34.5669287,275.19656 C34.5669287,280.600356 82.6338943,284.981093 141.927199,284.981093 C201.219803,284.981093 249.287469,280.600356 249.287469,275.19656 Z" id="è·¯å¾„" fill="#A13495" fill-rule="nonzero"></path>
                    <g id="ç¼–ç»„">
                        <path d="M80.5163514,196.672408 C80.5163514,203.371658 78.54586,209.920356 74.8534644,215.490111 C71.161769,221.060565 65.9145479,225.402088 59.7752838,227.965688 C53.6360197,230.529287 46.8805393,231.200123 40.3631425,229.892764 C33.8457457,228.586106 27.8591351,225.360074 23.1603464,220.622912 C18.4615577,215.885749 15.261645,209.851032 13.9652101,203.280627 C12.6688452,196.710221 13.3342187,189.899631 15.8771609,183.71016 C18.4201032,177.521388 22.7264742,172.231032 28.2516929,168.509226 C33.7769115,164.78742 40.2727408,162.800823 46.9178624,162.800823 L46.9178624,196.672408 L80.5163514,196.672408 Z" id="è·¯å¾„" fill="#E9ECFA" fill-rule="nonzero"></path>
                        <path d="M46.9178624,196.672408 L46.9178624,162.800823 C46.187226,162.800823 45.4584803,162.825332 44.7326057,162.872948 C38.8561437,163.258784 33.1694484,165.197064 28.2516929,168.509226 C22.7264742,172.231032 18.4201032,177.521388 15.8771609,183.71016 C13.3342187,189.899631 12.6688452,196.710221 13.9652101,203.280627 C15.261645,209.851032 18.4615577,215.885749 23.1603464,220.622912 C27.8591351,225.360074 33.8457457,228.586106 40.3631425,229.892764 C46.8805393,231.200123 53.6360197,230.529287 59.7752838,227.965688 C65.9145479,225.402088 71.161769,221.060565 74.8534644,215.490111 C78.1432187,210.527469 80.0660934,204.788256 80.4463268,198.857875 C80.492543,198.13172 80.5163514,197.402764 80.5163514,196.672408 L46.9178624,196.672408 Z M78.2559582,198.857875 L44.7326057,198.857875 L44.7326057,165.063317 C39.2923968,165.445651 34.0299803,167.251585 29.4725713,170.321462 C24.3069287,173.801683 20.2782052,178.748919 17.8984201,184.540651 C15.5186351,190.333084 14.8956966,196.70742 16.1091523,202.857678 C17.3225381,209.007236 20.3172088,214.654017 24.7117408,219.083771 C29.1061327,223.514226 34.7027064,226.528784 40.7928133,227.750012 C46.8828501,228.971241 53.1954951,228.345221 58.9332383,225.94898 C64.6711916,223.55274 69.5783735,219.494115 73.0321253,214.282887 C76.0837961,209.678771 77.879226,204.359005 78.2559582,198.857875 Z" id="å½¢çŠ¶" fill="#61188E"></path>
                        <polygon id="è·¯å¾„" fill="#A1A1EA" fill-rule="nonzero" points="16.051172 39.3344816 106.192961 39.3344816 106.192961 115.817838 16.051172 115.817838"></polygon>
                        <path d="M104.007494,41.5197383 L18.2364287,41.5197383 L18.2364287,113.633071 L104.007494,113.633071 L104.007494,41.5197383 Z M16.051172,39.3344816 L16.051172,115.817838 L106.192961,115.817838 L106.192961,39.3344816 L16.051172,39.3344816 Z" id="å½¢çŠ¶" fill="#61188E"></path>
                        <polygon id="è·¯å¾„" fill="#E9E4FD" fill-rule="nonzero" points="112.201769 0 238.400049 0 238.400049 134.392555 112.201769 134.392555"></polygon>
                        <path d="M236.214582,2.18524975 L114.387236,2.18524975 L114.387236,132.207789 L236.214582,132.207789 L236.214582,2.18524975 Z M112.201769,0 L112.201769,134.392555 L238.400049,134.392555 L238.400049,0 L112.201769,0 Z" id="å½¢çŠ¶" fill="#61188E"></path>
                        <polygon id="è·¯å¾„" fill="#FFFFFF" fill-rule="nonzero" points="60.3024988 72.1134029 181.037322 72.1134029 181.037322 258.405369 60.3024988 258.405369"></polygon>
                        <path d="M178.852555,74.2981695 L62.4877555,74.2981695 L62.4877555,256.220602 L178.852555,256.220602 L178.852555,74.2981695 Z M60.3024988,72.1134029 L60.3024988,258.405369 L181.037322,258.405369 L181.037322,72.1134029 L60.3024988,72.1134029 Z" id="å½¢çŠ¶" fill="#61188E"></path>
                        <path d="M65.7656757,82.7662408 C65.7656757,79.2965233 68.5784926,76.4836364 72.0482801,76.4836364 L168.745209,76.4836364 C172.214926,76.4836364 175.027813,79.2965233 175.027813,82.7662408 L175.027813,82.7662408 C175.027813,86.2359582 172.214926,89.0488452 168.745209,89.0488452 L72.0482801,89.0488452 C68.5784926,89.0488452 65.7656757,86.2359582 65.7656757,82.7662408 L65.7656757,82.7662408 Z" id="è·¯å¾„" fill="#E9ECFA" fill-rule="nonzero"></path>
                        <path d="M168.745209,78.6691032 L72.0482801,78.6691032 C69.7853661,78.6691032 67.9509324,80.5037469 67.9509324,82.7662408 C67.9509324,85.0294349 69.7853661,86.8633784 72.0482801,86.8633784 L168.745209,86.8633784 C171.008403,86.8633784 172.843047,85.0294349 172.843047,82.7662408 C172.843047,80.5037469 171.008403,78.6691032 168.745209,78.6691032 Z M72.0482801,76.4836364 C68.5784926,76.4836364 65.7656757,79.2965233 65.7656757,82.7662408 C65.7656757,86.2359582 68.5784926,89.0488452 72.0482801,89.0488452 L168.745209,89.0488452 C172.214926,89.0488452 175.027813,86.2359582 175.027813,82.7662408 C175.027813,79.2965233 172.214926,76.4836364 168.745209,76.4836364 L72.0482801,76.4836364 Z" id="å½¢çŠ¶" fill="#61188E"></path>
                        <path d="M22.6069423,48.8950061 C22.6069423,46.0286204 24.9305676,43.7049951 27.7968833,43.7049951 L94.993231,43.7049951 C97.8593366,43.7049951 100.183452,46.0286204 100.183452,48.8950061 L100.183452,48.8950061 C100.183452,51.7613219 97.8593366,54.0849472 94.993231,54.0849472 L27.7968833,54.0849472 C24.9305676,54.0849472 22.6069423,51.7613219 22.6069423,48.8950061 L22.6069423,48.8950061 Z" id="è·¯å¾„" fill="#E9ECFA" fill-rule="nonzero"></path>
                        <path d="M94.993231,45.8902518 L27.7968833,45.8902518 C26.137441,45.8902518 24.792199,47.2354939 24.792199,48.8950061 C24.792199,50.5544484 26.137441,51.8996904 27.7968833,51.8996904 L94.993231,51.8996904 C96.6528133,51.8996904 97.9979853,50.5544484 97.9979853,48.8950061 C97.9979853,47.2354939 96.6528133,45.8902518 94.993231,45.8902518 Z M27.7968833,43.7049951 C24.9305676,43.7049951 22.6069423,46.0286204 22.6069423,48.8950061 C22.6069423,51.7613219 24.9305676,54.0849472 27.7968833,54.0849472 L94.993231,54.0849472 C97.8593366,54.0849472 100.183452,51.7613219 100.183452,48.8950061 C100.183452,46.0286204 97.8593366,43.7049951 94.993231,43.7049951 L27.7968833,43.7049951 Z" id="å½¢çŠ¶" fill="#61188E"></path>
                        <path d="M118.211278,9.83362039 C118.211278,6.51468686 120.902322,3.82416781 124.220786,3.82416781 L225.83484,3.82416781 C229.154005,3.82416781 231.844349,6.51468686 231.844349,9.83362039 L231.844349,9.83362039 C231.844349,13.1525049 229.154005,15.843059 225.83484,15.843059 L124.220786,15.843059 C120.902322,15.843059 118.211278,13.1525049 118.211278,9.83362039 L118.211278,9.83362039 Z" id="è·¯å¾„" fill="#FC7777" fill-rule="nonzero"></path>
                        <path d="M225.83484,6.00941757 L124.220786,6.00941757 C122.108845,6.00941757 120.396744,7.72153931 120.396744,9.83362039 C120.396744,11.9456314 122.108845,13.6578022 124.220786,13.6578022 L225.83484,13.6578022 C227.946781,13.6578022 229.659582,11.9456314 229.659582,9.83362039 C229.659582,7.72153931 227.946781,6.00941757 225.83484,6.00941757 Z M124.220786,3.82416781 C120.902322,3.82416781 118.211278,6.51468686 118.211278,9.83362039 C118.211278,13.1525049 120.902322,15.843059 124.220786,15.843059 L225.83484,15.843059 C229.154005,15.843059 231.844349,13.1525049 231.844349,9.83362039 C231.844349,6.51468686 229.154005,3.82416781 225.83484,3.82416781 L124.220786,3.82416781 Z" id="å½¢çŠ¶" fill="#61188E"></path>
                        <path d="M118.211278,33.324973 C118.211278,28.4974791 122.124951,24.584016 126.952445,24.584016 L159.731646,24.584016 C164.55914,24.584016 168.472113,28.4974791 168.472113,33.324973 L168.472113,55.1774705 C168.472113,60.0049644 164.55914,63.9184275 159.731646,63.9184275 L126.952445,63.9184275 C122.124951,63.9184275 118.211278,60.0049644 118.211278,55.1774705 L118.211278,33.324973 Z" id="è·¯å¾„" fill="#FFF8F8" fill-rule="nonzero"></path>
                        <path d="M159.731646,26.7692727 L126.952445,26.7692727 C123.332174,26.7692727 120.396744,29.7043526 120.396744,33.324973 L120.396744,55.1774705 C120.396744,58.7980909 123.332174,61.7332408 126.952445,61.7332408 L159.731646,61.7332408 C163.351916,61.7332408 166.287346,58.7980909 166.287346,55.1774705 L166.287346,33.324973 C166.287346,29.7043526 163.351916,26.7692727 159.731646,26.7692727 Z M126.952445,24.584016 C122.124951,24.584016 118.211278,28.4974791 118.211278,33.324973 L118.211278,55.1774705 C118.211278,60.0049644 122.124951,63.9184275 126.952445,63.9184275 L159.731646,63.9184275 C164.55914,63.9184275 168.472113,60.0049644 168.472113,55.1774705 L168.472113,33.324973 C168.472113,28.4974791 164.55914,24.584016 159.731646,24.584016 L126.952445,24.584016 Z" id="å½¢çŠ¶" fill="#61188E"></path>
                        <path d="M75.0530344,239.830651 C75.0530344,236.512187 77.7433784,233.821843 81.062543,233.821843 L95.2663268,233.821843 C98.5854914,233.821843 101.275835,236.512187 101.275835,239.830651 L101.275835,239.830651 C101.275835,243.149816 98.5854914,245.84016 95.2663268,245.84016 L81.062543,245.84016 C77.7433784,245.84016 75.0530344,243.149816 75.0530344,239.830651 L75.0530344,239.830651 Z" id="è·¯å¾„" fill="#8E1717" fill-rule="nonzero"></path>
                        <path d="M95.2663268,236.006609 L81.062543,236.006609 C78.950602,236.006609 77.237801,237.71871 77.237801,239.830651 C77.237801,241.943292 78.950602,243.655393 81.062543,243.655393 L95.2663268,243.655393 C97.3782678,243.655393 99.0903686,241.943292 99.0903686,239.830651 C99.0903686,237.71871 97.3782678,236.006609 95.2663268,236.006609 Z M81.062543,233.821843 C77.7433784,233.821843 75.0530344,236.512187 75.0530344,239.830651 C75.0530344,243.149816 77.7433784,245.84016 81.062543,245.84016 L95.2663268,245.84016 C98.5854914,245.84016 101.275835,243.149816 101.275835,239.830651 C101.275835,236.512187 98.5854914,233.821843 95.2663268,233.821843 L81.062543,233.821843 Z" id="å½¢çŠ¶" fill="#61188E"></path>
                        <path d="M106.739152,239.830651 C106.739152,236.512187 109.429496,233.821843 112.748661,233.821843 L127.498636,233.821843 C130.817801,233.821843 133.508145,236.512187 133.508145,239.830651 L133.508145,239.830651 C133.508145,243.149816 130.817801,245.84016 127.498636,245.84016 L112.748661,245.84016 C109.429496,245.84016 106.739152,243.149816 106.739152,239.830651 L106.739152,239.830651 Z" id="è·¯å¾„" fill="#FFF8F8" fill-rule="nonzero"></path>
                        <path d="M127.498636,236.006609 L112.748661,236.006609 C110.63672,236.006609 108.923919,237.71871 108.923919,239.830651 C108.923919,241.943292 110.63672,243.655393 112.748661,243.655393 L127.498636,243.655393 C129.610577,243.655393 131.323378,241.943292 131.323378,239.830651 C131.323378,237.71871 129.610577,236.006609 127.498636,236.006609 Z M112.748661,233.821843 C109.429496,233.821843 106.739152,236.512187 106.739152,239.830651 C106.739152,243.149816 109.429496,245.84016 112.748661,245.84016 L127.498636,245.84016 C130.817801,245.84016 133.508145,243.149816 133.508145,239.830651 C133.508145,236.512187 130.817801,233.821843 127.498636,233.821843 L112.748661,233.821843 Z" id="å½¢çŠ¶" fill="#61188E"></path>
                        <path d="M178.305663,27.3155344 C178.305663,25.8069251 179.528993,24.584016 181.037322,24.584016 L227.474115,24.584016 C228.982445,24.584016 230.205774,25.8069251 230.205774,27.3155344 L230.205774,27.3155344 C230.205774,28.8241437 228.982445,30.0471229 227.474115,30.0471229 L181.037322,30.0471229 C179.528993,30.0471229 178.305663,28.8241437 178.305663,27.3155344 L178.305663,27.3155344 Z" id="è·¯å¾„" fill="#FFFFFF" fill-rule="nonzero"></path>
                        <path d="M178.305663,44.2511867 C178.305663,42.7425774 179.528993,41.5196683 181.037322,41.5196683 L227.474115,41.5196683 C228.982445,41.5196683 230.205774,42.7425774 230.205774,44.2511867 L230.205774,44.2511867 C230.205774,45.7597961 228.982445,46.9827752 227.474115,46.9827752 L181.037322,46.9827752 C179.528993,46.9827752 178.305663,45.7597961 178.305663,44.2511867 L178.305663,44.2511867 Z" id="è·¯å¾„" fill="#FFFFFF" fill-rule="nonzero"></path>
                        <path d="M22.6069423,61.1870491 C22.6069423,59.6784398 23.8299214,58.4554607 25.3385307,58.4554607 L71.7751843,58.4554607 C73.2835135,58.4554607 74.5068428,59.6784398 74.5068428,61.1870491 L74.5068428,61.1870491 C74.5068428,62.6956585 73.2835135,63.9185676 71.7751843,63.9185676 L25.3385307,63.9185676 C23.8299214,63.9185676 22.6069423,62.6956585 22.6069423,61.1870491 L22.6069423,61.1870491 Z" id="è·¯å¾„" fill="#FFFFFF" fill-rule="nonzero"></path>
                        <path d="M178.305663,61.1870491 C178.305663,59.6784398 179.528993,58.4554607 181.037322,58.4554607 L227.474115,58.4554607 C228.982445,58.4554607 230.205774,59.6784398 230.205774,61.1870491 L230.205774,61.1870491 C230.205774,62.6956585 228.982445,63.9185676 227.474115,63.9185676 L181.037322,63.9185676 C179.528993,63.9185676 178.305663,62.6956585 178.305663,61.1870491 L178.305663,61.1870491 Z" id="è·¯å¾„" fill="#FFFFFF" fill-rule="nonzero"></path>
                        <path d="M221.026953,242.582617 C224.539386,230.553096 237.138206,223.648673 249.167727,227.161106 L249.167727,227.161106 C249.167727,227.161106 243.154017,238.897924 240.785786,246.949349 C240.59672,247.590074 240.415356,248.26301 240.240295,248.958354 C237.735516,258.931953 227.946781,265.837076 218.075418,262.954865 L215.313649,262.148182 L221.026953,242.582617 Z" id="è·¯å¾„" fill="#A1A1EA" fill-rule="nonzero"></path>
                        <path d="M247.538956,226.749361 C248.082346,226.865602 248.625737,227.00285 249.167727,227.161106 C249.167727,227.161106 248.886229,227.710098 248.421265,228.652629 C246.736474,232.066327 242.642138,240.639435 240.785786,246.949349 C240.59672,247.590074 240.415356,248.26301 240.240295,248.958354 C237.735516,258.931953 227.946781,265.837076 218.075418,262.954865 L215.313649,262.148182 L221.026953,242.582617 C224.38113,231.095086 236.021314,224.280995 247.538956,226.749361 Z M246.784091,228.267494 C236.234189,226.226278 225.671683,232.521486 222.599705,243.041978 L217.346462,261.034791 L218.534779,261.381413 C227.341069,263.952715 236.325921,257.816462 238.650737,248.559214 C238.83,247.845663 239.017666,247.15172 239.213034,246.486486 C240.432162,242.343833 242.568612,237.308366 244.373845,233.354779 C245.281364,231.368182 246.113256,229.635774 246.718968,228.39984 C246.740676,228.355025 246.762383,228.310909 246.784091,228.267494 Z" id="å½¢çŠ¶" fill="#61188E"></path>
                        <path d="M192.264361,197.871929 C193.610934,198.551167 194.152224,200.193943 193.472985,201.541216 L191.949951,204.561376 C191.270713,205.907948 189.627936,206.449238 188.281364,205.77 L175.435356,199.292027 C172.163808,197.642248 170.849447,193.652948 172.499226,190.3814 L172.499226,190.3814 C173.048919,189.291118 174.378686,188.852764 175.468968,189.402457 L192.264361,197.871929 Z" id="è·¯å¾„" fill="#626282" fill-rule="nonzero"></path>
                        <path d="M190.486437,203.823317 L192.009472,200.803157 C192.281167,200.264668 192.064791,199.607138 191.526302,199.335442 L174.730909,190.865971 C174.44871,190.723821 174.104889,190.83726 173.962039,191.119459 C172.720504,193.582924 173.709951,196.586978 176.173415,197.829214 L189.019423,204.307187 C189.557912,204.578882 190.214742,204.361806 190.486437,203.823317 Z M193.472985,201.541216 C194.152224,200.193943 193.610934,198.551167 192.264361,197.871929 L175.468968,189.402457 C174.378686,188.852764 173.048919,189.291118 172.499226,190.3814 C170.849447,193.652948 172.163808,197.642248 175.435356,199.292027 L188.281364,205.77 C189.627936,206.449238 191.270713,205.907948 191.949951,204.561376 L193.472985,201.541216 Z" id="å½¢çŠ¶" fill="#61188E"></path>
                        <path d="M201.583931,272.871744 C198.159029,274.076167 194.405713,272.275835 193.20129,268.850934 L190.566966,261.358305 C189.966855,259.650405 190.86457,257.779349 192.572469,257.179238 L197.749386,255.3586 L202.924902,270.077764 C203.326143,271.219165 202.726032,272.470504 201.583931,272.871744 L201.583931,272.871744 Z" id="è·¯å¾„" fill="#626282" fill-rule="nonzero"></path>
                        <path d="M192.113108,260.814914 L194.747432,268.306843 C195.65145,270.878145 198.469238,272.229619 201.040541,271.325602 C201.328342,271.224767 201.479595,270.908956 201.378059,270.621155 L196.746634,257.448133 L193.11586,258.725381 C192.26226,259.025086 191.813403,259.960614 192.113108,260.814914 Z M193.20129,268.850934 C194.405713,272.275835 198.159029,274.076167 201.583931,272.871744 C202.726032,272.470504 203.326143,271.219165 202.924902,270.077764 L197.749386,255.3586 L192.572469,257.179238 C190.86457,257.779349 189.966855,259.650405 190.566966,261.358305 L193.20129,268.850934 Z" id="å½¢çŠ¶" fill="#61188E"></path>
                        <path d="M228.596609,168.001548 C229.637875,167.019103 231.241437,166.946278 232.368133,167.829988 L232.368133,167.829988 C233.625074,168.816634 233.84355,170.635172 232.857604,171.892113 L227.342469,178.917678 C226.128943,180.463821 223.891658,180.733415 222.345516,179.519189 L222.345516,179.519189 C220.633415,178.176118 220.517875,175.624423 222.10043,174.131499 L228.596609,168.001548 Z" id="è·¯å¾„" fill="#626282" fill-rule="nonzero"></path>
                        <path d="M226.053317,177.905823 L231.568452,170.880258 C231.995602,170.335467 231.901069,169.54699 231.356278,169.11914 C230.867506,168.736106 230.172862,168.767617 229.721204,169.194066 L223.225025,175.323317 C222.371425,176.1293 222.433747,177.505283 223.357371,178.230037 C224.191364,178.884767 225.398587,178.739816 226.053317,177.905823 Z M232.368133,167.829988 C231.241437,166.946278 229.637875,167.019103 228.596609,168.001548 L222.10043,174.131499 C220.517875,175.624423 220.633415,178.176118 222.345516,179.519189 C223.891658,180.733415 226.128943,180.463821 227.342469,178.917678 L232.857604,171.892113 C233.84355,170.635172 233.625074,168.816634 232.368133,167.829988 Z" id="å½¢çŠ¶" fill="#61188E"></path>
                        <path d="M215.837432,176.372985 C223.118587,175.977346 229.206523,181.843305 229.08188,189.134963 L228.010504,251.750233 C227.882359,259.240061 221.269939,264.954767 213.840332,263.99683 L191.284717,261.08871 C178.662088,259.460639 170.091781,247.429017 173.353526,235.1264 C175.203575,228.147752 177.38414,220.67473 179.671843,214.415934 C184.729017,200.58188 189.55371,196.104509 193.641744,186.049681 C195.685762,181.023317 200.171536,177.223784 205.589337,176.92898 L215.837432,176.372985 Z" id="è·¯å¾„" fill="#E9ECFA" fill-rule="nonzero"></path>
                        <path d="M226.371229,251.721523 L227.442604,189.106253 C227.551143,182.766229 222.257985,177.665639 215.925663,178.009459 L205.678268,178.566155 C201.01043,178.818943 197.012027,182.112199 195.159877,186.667297 C193.34274,191.137666 191.373649,194.547862 189.365344,198.026683 C189.058636,198.55817 188.751229,199.091057 188.44312,199.629545 C186.118305,203.691671 183.696155,208.180946 181.211683,214.978231 C178.948489,221.169103 176.781929,228.587506 174.937482,235.545848 C171.944631,246.836609 179.795786,257.95441 191.494091,259.46344 L214.049705,262.37156 C220.510172,263.204853 226.259889,258.235209 226.371229,251.721523 Z M229.08188,189.134963 C229.206523,181.843305 223.118587,175.977346 215.837432,176.372985 L205.589337,176.92898 C200.171536,177.223784 195.685762,181.023317 193.641744,186.049681 C191.869423,190.40941 189.958452,193.720172 187.950147,197.199693 C185.326327,201.745688 182.536548,206.579484 179.671843,214.415934 C177.38414,220.67473 175.203575,228.147752 173.353526,235.1264 C170.091781,247.429017 178.662088,259.460639 191.284717,261.08871 L213.840332,263.99683 C221.269939,264.954767 227.882359,259.240061 228.010504,251.750233 L229.08188,189.134963 Z" id="å½¢çŠ¶" fill="#61188E"></path>
                        <path d="M228.104337,206.005983 C226.848796,209.841229 217.702887,210.288686 207.676769,207.005233 C197.650651,203.722482 190.540356,197.951757 191.796597,194.116511 C193.052138,190.281265 202.198047,189.833808 212.224165,193.11656 C222.250283,196.400012 229.360577,202.170737 228.104337,206.005983 Z" id="è·¯å¾„" fill="#CAE2FF" fill-rule="nonzero"></path>
                        <path d="M178.554951,180.893071 C181.229189,172.726106 189.557912,167.819484 197.998673,169.439152 L211.599545,172.049668 L226.345319,174.90527 C233.770025,176.342875 238.251597,183.965049 235.898071,191.151671 L232.620221,201.162383 C230.929828,206.323894 225.375479,209.137482 220.214668,207.447789 L186.398403,196.374103 C179.957543,194.264963 176.445811,187.333931 178.554951,180.893071 L178.554951,180.893071 Z" id="è·¯å¾„" fill="#FFFFFF" fill-rule="nonzero"></path>
                        <path d="M231.062174,200.652604 L234.340725,190.641192 C236.386843,184.392199 232.489975,177.764373 226.03371,176.514435 L197.689865,171.049017 C190.059287,169.584803 182.530246,174.02016 180.112297,181.40355 C178.285356,186.983808 181.327924,192.989115 186.908182,194.816757 L220.724447,205.889742 C225.025356,207.298636 229.65398,204.953514 231.062174,200.652604 Z M211.599545,172.049668 L197.998673,169.439152 C189.557912,167.819484 181.229189,172.726106 178.554951,180.893071 C176.445811,187.333931 179.957543,194.264963 186.398403,196.374103 L220.214668,207.447789 C225.375479,209.137482 230.929828,206.323894 232.620221,201.162383 L235.898071,191.151671 C238.251597,183.965049 233.770025,176.342875 226.345319,174.90527 L211.599545,172.049668 Z" id="å½¢çŠ¶" fill="#61188E"></path>
                        <path d="M224.161953,188.514545 C222.307002,190.905885 219.044558,191.480786 216.875897,189.798096 C214.707236,188.115405 214.452346,184.813047 216.307998,182.421708 C218.162948,180.030369 221.424693,179.455467 223.594054,181.138157 C225.762715,182.820848 226.016904,186.123206 224.161953,188.514545 Z" id="è·¯å¾„" fill="#FFFFFF" fill-rule="nonzero"></path>
                        <path d="M217.880749,188.503342 C219.218219,189.541106 221.47231,189.307924 222.867199,187.510393 C224.262088,185.712162 223.926671,183.470676 222.589201,182.433612 C221.251732,181.395848 218.997641,181.628329 217.602752,183.42656 C216.207862,185.224091 216.54258,187.465577 217.880749,188.503342 Z M216.875897,189.798096 C219.044558,191.480786 222.307002,190.905885 224.161953,188.514545 C226.016904,186.123206 225.762715,182.820848 223.594054,181.138157 C221.424693,179.455467 218.162948,180.030369 216.307998,182.421708 C214.452346,184.813047 214.707236,188.115405 216.875897,189.798096 Z" id="å½¢çŠ¶" fill="#61188E"></path>
                        <path d="M222.105332,185.458673 C221.544435,187.170074 219.702789,188.102801 217.991388,187.542604 C216.280688,186.982408 215.34726,185.140762 215.907457,183.429361 C216.468354,181.717961 218.31,180.784533 220.0214,181.34543 C221.732101,181.905627 222.665528,183.747273 222.105332,185.458673 Z" id="è·¯å¾„" fill="#342E2E" fill-rule="nonzero"></path>
                        <path d="M184.206634,189.586622 C184.008464,190.191634 183.356536,190.52215 182.751523,190.32398 C182.145811,190.125811 181.815295,189.473882 182.013464,188.86817 C182.212334,188.262457 182.863563,187.932641 183.469275,188.130811 C184.074988,188.32898 184.404803,188.980909 184.206634,189.586622 Z" id="è·¯å¾„" fill="#61188E" fill-rule="nonzero"></path>
                        <path d="M238.520491,172.298256 C239.561757,171.315111 241.16602,171.242285 242.292015,172.126695 L242.292015,172.126695 C243.548956,173.112641 243.768133,174.931179 242.781486,176.18812 L237.266351,183.213686 C236.052826,184.759828 233.815541,185.029423 232.269398,183.815897 L232.269398,183.815897 C230.557998,182.472125 230.441757,179.92113 232.024312,178.427506 L238.520491,172.298256 Z" id="è·¯å¾„" fill="#626282" fill-rule="nonzero"></path>
                        <path d="M235.977199,182.20183 L241.492334,175.176265 C241.920184,174.631474 241.824951,173.842998 241.28016,173.415848 C240.792088,173.032113 240.096744,173.063624 239.645086,173.490074 L233.149607,179.619324 C232.295307,180.425307 232.358329,181.80199 233.281253,182.526744 C234.115946,183.181474 235.322469,183.035823 235.977199,182.20183 Z M242.292015,172.126695 C241.16602,171.242285 239.561757,171.315111 238.520491,172.298256 L232.024312,178.427506 C230.441757,179.92113 230.557998,182.472125 232.269398,183.815897 C233.815541,185.029423 236.052826,184.759828 237.266351,183.213686 L242.781486,176.18812 C243.768133,174.931179 243.548956,173.112641 242.292015,172.126695 Z" id="å½¢çŠ¶" fill="#61188E"></path>
                        <path d="M219.729398,274.805123 C221.961781,274.4564 223.489017,272.363366 223.139595,270.130983 L221.127088,257.260467 C220.917015,255.920897 219.661474,255.004975 218.321904,255.214349 L218.321904,255.214349 C213.857138,255.912494 210.804066,260.098563 211.502211,264.563329 L212.250774,269.349509 C212.80957,272.921462 216.158145,275.363919 219.729398,274.805123 L219.729398,274.805123 Z" id="è·¯å¾„" fill="#626282" fill-rule="nonzero"></path>
                        <path d="M219.50742,257.513956 L221.520627,270.384472 C221.73,271.722641 220.814779,272.976781 219.476609,273.186155 C216.79887,273.604902 214.288489,271.773759 213.869742,269.09602 L213.121179,264.30984 C212.563084,260.739287 215.00484,257.392113 218.575393,256.834017 C219.020749,256.763993 219.438096,257.0686 219.50742,257.513956 Z M223.139595,270.130983 C223.489017,272.363366 221.961781,274.4564 219.729398,274.805123 C216.158145,275.363919 212.80957,272.921462 212.250774,269.349509 L211.502211,264.563329 C210.804066,260.098563 213.857138,255.912494 218.321904,255.214349 C219.661474,255.004975 220.917015,255.920897 221.127088,257.260467 L223.139595,270.130983 Z" id="å½¢çŠ¶" fill="#61188E"></path>
                        <path d="M172.879459,237.305565 C173.979545,232.875111 175.270799,227.94328 176.681093,223.059767 L193.778993,225.26484 C195.780295,225.523231 197.193391,227.354373 196.9357,229.355676 C196.161229,235.359582 190.667101,239.59887 184.663194,238.824398 L172.879459,237.305565 Z" id="è·¯å¾„" fill="#C44E26"></path>
                        <path d="M172.879459,237.305565 L184.663194,238.824398 C190.667101,239.59887 196.161229,235.359582 196.9357,229.355676 C197.193391,227.354373 195.780295,225.523231 193.778993,225.26484 L176.681093,223.059767 C175.438157,227.362076 174.288354,231.702899 173.28,235.704103 C173.144152,236.244693 173.010405,236.77828 172.879459,237.305565 Z M174.917174,235.915577 L184.872568,237.199128 C189.978759,237.857359 194.651499,234.251794 195.31043,229.146302 C195.45258,228.042715 194.673206,227.032961 193.569619,226.890111 L177.86871,224.8657 C176.799435,228.632322 175.804386,232.400344 174.917174,235.915577 Z" id="å½¢çŠ¶" fill="#61188E"></path>
                        <path d="M77.237801,82.7662408 C77.237801,84.4258231 75.892629,85.7709951 74.2337469,85.7709951 C72.5741646,85.7709951 71.2289926,84.4258231 71.2289926,82.7662408 C71.2289926,81.1066585 72.5741646,79.7614865 74.2337469,79.7614865 C75.892629,79.7614865 77.237801,81.1066585 77.237801,82.7662408 Z" id="è·¯å¾„" fill="#FC7777" fill-rule="nonzero"></path>
                        <path d="M31.3479693,48.8948661 C31.3479693,49.9509066 30.4919189,50.806957 29.4358784,50.806957 C28.3798378,50.806957 27.5237875,49.9509066 27.5237875,48.8948661 C27.5237875,47.8388956 28.3798378,46.9827752 29.4358784,46.9827752 C30.4919189,46.9827752 31.3479693,47.8388956 31.3479693,48.8948661 Z" id="è·¯å¾„" fill="#FC7777" fill-rule="nonzero"></path>
                        <path d="M87.0720516,82.7662408 C87.0720516,84.4258231 85.6043366,85.7709951 83.7942015,85.7709951 C81.9833661,85.7709951 80.5163514,84.4258231 80.5163514,82.7662408 C80.5163514,81.1066585 81.9833661,79.7614865 83.7942015,79.7614865 C85.6043366,79.7614865 87.0720516,81.1066585 87.0720516,82.7662408 Z" id="è·¯å¾„" fill="#FCB777" fill-rule="nonzero"></path>
                        <path d="M38.4500012,48.8948661 C38.4500012,49.9509066 37.5939509,50.806957 36.5379103,50.806957 C35.4819398,50.806957 34.6258194,49.9509066 34.6258194,48.8948661 C34.6258194,47.8388956 35.4819398,46.9827752 36.5379103,46.9827752 C37.5939509,46.9827752 38.4500012,47.8388956 38.4500012,48.8948661 Z" id="è·¯å¾„" fill="#FCB777" fill-rule="nonzero"></path>
                        <path d="M96.3594103,82.7662408 C96.3594103,84.4258231 95.0135381,85.7709951 93.354656,85.7709951 C91.6950737,85.7709951 90.3499017,84.4258231 90.3499017,82.7662408 C90.3499017,81.1066585 91.6950737,79.7614865 93.354656,79.7614865 C95.0135381,79.7614865 96.3594103,81.1066585 96.3594103,82.7662408 Z" id="è·¯å¾„" fill="#79D57D" fill-rule="nonzero"></path>
                        <path d="M45.5520332,48.8948661 C45.5520332,49.9509066 44.6959828,50.806957 43.6399423,50.806957 C42.5839717,50.806957 41.7278514,49.9509066 41.7278514,48.8948661 C41.7278514,47.8388956 42.5839717,46.9827752 43.6399423,46.9827752 C44.6959828,46.9827752 45.5520332,47.8388956 45.5520332,48.8948661 Z" id="è·¯å¾„" fill="#79D57D" fill-rule="nonzero"></path>
                        <path d="M217.62726,213.386572 C219.122285,213.184201 220.498268,214.232469 220.699939,215.727494 L221.152998,219.07957 C221.355369,220.574595 220.307101,221.949877 218.812076,222.152248 L204.576081,224.075823 C200.945307,224.565995 197.604435,222.020602 197.113563,218.389828 L197.113563,218.389828 C196.949705,217.179103 197.798403,216.065713 199.009128,215.901855 L217.62726,213.386572 Z" id="è·¯å¾„" fill="#626282" fill-rule="nonzero"></path>
                        <path d="M219.529128,219.298747 L219.076069,215.946671 C218.995541,215.348661 218.445147,214.929914 217.847138,215.010442 L199.228305,217.526425 C198.915295,217.56844 198.695418,217.856941 198.737432,218.169951 C199.107162,220.90441 201.623145,222.820983 204.356904,222.451253 L218.592199,220.527678 C219.190209,220.44715 219.609656,219.896757 219.529128,219.298747 Z M220.699939,215.727494 C220.498268,214.232469 219.122285,213.184201 217.62726,213.386572 L199.009128,215.901855 C197.798403,216.065713 196.949705,217.179103 197.113563,218.389828 C197.604435,222.020602 200.945307,224.565995 204.576081,224.075823 L218.812076,222.152248 C220.307101,221.949877 221.355369,220.574595 221.152998,219.07957 L220.699939,215.727494 Z" id="å½¢çŠ¶" fill="#61188E"></path>
                        <polygon id="è·¯å¾„" fill="#E9E4FD" fill-rule="nonzero" points="74.5068428 115.817838 168.472113 115.817838 168.472113 166.624865 74.5068428 166.624865"></polygon>
                        <path d="M166.287346,118.003305 L76.6916093,118.003305 L76.6916093,164.440098 L166.287346,164.440098 L166.287346,118.003305 Z M74.5068428,115.817838 L74.5068428,166.624865 L168.472113,166.624865 L168.472113,115.817838 L74.5068428,115.817838 Z" id="å½¢çŠ¶" fill="#61188E"></path>
                        <polygon id="è·¯å¾„" fill="#61188E" fill-rule="nonzero" points="71.2289926 112.539988 78.3308845 112.539988 78.3308845 119.64258 71.2289926 119.64258"></polygon>
                        <polygon id="è·¯å¾„" fill="#61188E" fill-rule="nonzero" points="42.604699 150.119373 48.3052592 144.955061 53.4692211 150.655762 47.7686609 155.820074"></polygon>
                        <polygon id="è·¯å¾„" fill="#61188E" fill-rule="nonzero" points="163.555688 161.70844 171.749963 161.70844 171.749963 168.810332 163.555688 168.810332"></polygon>
                        <polygon id="è·¯å¾„" fill="#61188E" points="120.942936 180.283157 75.0530344 180.283157 75.0530344 178.09769 120.942936 178.09769"></polygon>
                        <polygon id="è·¯å¾„" fill="#61188E" points="120.942936 194.486941 75.0530344 194.486941 75.0530344 192.302174 120.942936 192.302174"></polygon>
                        <polygon id="è·¯å¾„" fill="#61188E" points="120.942936 207.598342 75.0530344 207.598342 75.0530344 205.413575 120.942936 205.413575"></polygon>
                        <polygon id="è·¯å¾„" fill="#61188E" points="120.942936 222.349017 75.0530344 222.349017 75.0530344 220.16355 120.942936 220.16355"></polygon>
                        <path d="M90.3499017,141.494447 C90.3499017,143.607088 88.8821867,145.319189 87.0720516,145.319189 C85.2612162,145.319189 83.7942015,143.607088 83.7942015,141.494447 C83.7942015,139.382506 85.2612162,137.670405 87.0720516,137.670405 C88.8821867,137.670405 90.3499017,139.382506 90.3499017,141.494447 Z" id="è·¯å¾„" fill="#FFFFFF" fill-rule="nonzero"></path>
                        <path d="M87.7302826,142.776597 C87.9711671,142.495799 88.1644349,142.049742 88.1644349,141.494447 C88.1644349,140.939853 87.9711671,140.493796 87.7302826,140.212998 C87.4935995,139.9364 87.2541155,139.855872 87.0720516,139.855872 C86.8892875,139.855872 86.6498034,139.9364 86.4131204,140.212998 C86.1722359,140.493796 85.9789681,140.939853 85.9789681,141.494447 C85.9789681,142.049742 86.1722359,142.495799 86.4131204,142.776597 C86.6498034,143.053194 86.8892875,143.133722 87.0720516,143.133722 C87.2541155,143.133722 87.4935995,143.053194 87.7302826,142.776597 Z M87.0720516,145.319189 C88.8821867,145.319189 90.3499017,143.607088 90.3499017,141.494447 C90.3499017,139.382506 88.8821867,137.670405 87.0720516,137.670405 C85.2612162,137.670405 83.7942015,139.382506 83.7942015,141.494447 C83.7942015,143.607088 85.2612162,145.319189 87.0720516,145.319189 Z" id="å½¢çŠ¶" fill="#61188E"></path>
                        <path d="M201.342346,145.722531 C201.342346,152.36086 195.960958,157.741548 189.323329,157.741548 L159.128034,157.741548 L159.128034,159.927015 L189.323329,159.927015 C197.168182,159.927015 203.527113,153.567383 203.527113,145.722531 L203.527113,141.048391 L208.615799,146.137076 C209.042248,146.563526 209.734091,146.563526 210.160541,146.137076 C210.58769,145.709926 210.58769,145.018084 210.160541,144.591634 L203.207101,137.638194 C202.780651,137.211744 202.088808,137.211744 201.662359,137.638194 L194.708919,144.591634 C194.281769,145.018084 194.281769,145.709926 194.708919,146.137076 C195.135369,146.563526 195.827211,146.563526 196.253661,146.137076 L201.342346,141.048391 L201.342346,145.722531 Z" id="è·¯å¾„" fill="#61188E"></path>
                        <path d="M118.757469,158.157494 C118.757469,156.196106 120.347727,154.606548 122.309115,154.606548 L134.327432,154.606548 C136.288821,154.606548 137.879079,156.196106 137.879079,158.157494 L137.879079,158.157494 C137.879079,160.118182 136.288821,161.70844 134.327432,161.70844 L122.309115,161.70844 C120.347727,161.70844 118.757469,160.118182 118.757469,158.157494 L118.757469,158.157494 Z" id="è·¯å¾„" fill="#C44E26" fill-rule="nonzero"></path>
                        <path d="M134.327432,156.791314 L122.309115,156.791314 C121.554251,156.791314 120.942936,157.402629 120.942936,158.157494 C120.942936,158.911658 121.554251,159.522973 122.309115,159.522973 L134.327432,159.522973 C135.082297,159.522973 135.693612,158.911658 135.693612,158.157494 C135.693612,157.403329 135.082297,156.791314 134.327432,156.791314 Z M122.309115,154.606548 C120.347727,154.606548 118.757469,156.196106 118.757469,158.157494 C118.757469,160.118182 120.347727,161.70844 122.309115,161.70844 L134.327432,161.70844 C136.288821,161.70844 137.879079,160.118182 137.879079,158.157494 C137.879079,156.196106 136.288821,154.606548 134.327432,154.606548 L122.309115,154.606548 Z" id="å½¢çŠ¶" fill="#61188E"></path>
                        <path d="M141.70312,158.157494 C141.70312,156.196106 143.292678,154.606548 145.254066,154.606548 L157.273084,154.606548 C159.233771,154.606548 160.824029,156.196106 160.824029,158.157494 L160.824029,158.157494 C160.824029,160.118182 159.233771,161.70844 157.273084,161.70844 L145.254066,161.70844 C143.292678,161.70844 141.70312,160.118182 141.70312,158.157494 L141.70312,158.157494 Z" id="è·¯å¾„" fill="#FFFFFF" fill-rule="nonzero"></path>
                        <path d="M157.273084,156.791314 L145.254066,156.791314 C144.499902,156.791314 143.888587,157.402629 143.888587,158.157494 C143.888587,158.911658 144.499902,159.522973 145.254066,159.522973 L157.273084,159.522973 C158.027248,159.522973 158.638563,158.911658 158.638563,158.157494 C158.638563,157.403329 158.027248,156.791314 157.273084,156.791314 Z M145.254066,154.606548 C143.292678,154.606548 141.70312,156.196106 141.70312,158.157494 C141.70312,160.118182 143.292678,161.70844 145.254066,161.70844 L157.273084,161.70844 C159.233771,161.70844 160.824029,160.118182 160.824029,158.157494 C160.824029,156.196106 159.233771,154.606548 157.273084,154.606548 L145.254066,154.606548 Z" id="å½¢çŠ¶" fill="#61188E"></path>
                        <path d="M81.062543,127.290663 C81.062543,125.782334 82.285172,124.559005 83.7942015,124.559005 L130.776486,124.559005 C132.285516,124.559005 133.508145,125.782334 133.508145,127.290663 L133.508145,127.290663 C133.508145,128.798993 132.285516,130.022322 130.776486,130.022322 L83.7942015,130.022322 C82.285172,130.022322 81.062543,128.798993 81.062543,127.290663 L81.062543,127.290663 Z" id="è·¯å¾„" fill="#FFFFFF" fill-rule="nonzero"></path>
                        <path d="M94.1739435,140.948256 C94.1739435,139.439926 95.3965725,138.217297 96.905602,138.217297 L143.341695,138.217297 C144.850725,138.217297 146.073354,139.439926 146.073354,140.948256 L146.073354,140.948256 C146.073354,142.457285 144.850725,143.679914 143.341695,143.679914 L96.905602,143.679914 C95.3965725,143.679914 94.1739435,142.457285 94.1739435,140.948256 L94.1739435,140.948256 Z" id="è·¯å¾„" fill="#FFFFFF" fill-rule="nonzero"></path>
                        <polygon id="è·¯å¾„" fill="#61188E" points="49.3785958 150.717383 1.44742887 193.094152 0 191.456978 47.931188 149.080209"></polygon>
                        <path d="M221.580147,173.676339 L211.846032,151.204054 L209.859435,175.613219 C210.263477,178.058477 213.244423,179.783882 216.480958,179.248894 C219.716794,178.714607 221.984189,176.121597 221.580147,173.676339 Z" id="è·¯å¾„" fill="#C44E26" fill-rule="nonzero"></path>
                        <path d="M211.846032,151.204054 L209.859435,175.613219 C210.263477,178.058477 213.244423,179.783882 216.480958,179.248894 C219.716794,178.714607 221.984189,176.121597 221.580147,173.676339 L211.846032,151.204054 Z M212.947518,157.871093 L211.512015,175.511683 C211.663268,176.082383 212.112125,176.674091 212.906904,177.118047 C213.771007,177.600516 214.94812,177.8414 216.213464,177.632027 C217.478808,177.423354 218.515172,176.816241 219.178305,176.081683 C219.788219,175.405246 220.023501,174.700799 219.982187,174.111892 L212.947518,157.871093 Z" id="å½¢çŠ¶" fill="#61188E"></path>
                        <path d="M163.382727,179.43726 L147.6307,175.062125 L152.010737,190.819054 L196.362199,235.170516 C199.518907,238.327224 204.625098,238.339828 207.767101,235.197826 C210.908403,232.056523 210.895799,226.950332 207.739091,223.793624 L163.382727,179.43726 Z" id="è·¯å¾„" fill="#ECCE33" fill-rule="nonzero"></path>
                        <path d="M147.6307,175.062125 L152.010737,190.819054 L196.362199,235.170516 C199.518907,238.327224 204.625098,238.339828 207.767101,235.197826 C210.908403,232.056523 210.895799,226.950332 207.739091,223.793624 L163.382727,179.43726 L147.6307,175.062125 Z M150.274128,177.704853 L153.652813,189.861118 L197.662555,233.87016 C200.107113,236.315418 204.048796,236.315418 206.466744,233.89817 C208.883993,231.480221 208.883993,227.538538 206.438735,225.09398 L162.424791,181.079337 L150.274128,177.704853 Z" id="å½¢çŠ¶" fill="#61188E"></path>
                        <polygon id="è·¯å¾„" fill="#61188E" fill-rule="nonzero" points="152.01914 190.828157 163.396032 179.451265 164.696388 180.750921 153.318796 192.128514"></polygon>
                        <path d="M150.954066,181.495283 L149.732838,177.162162 L153.934312,178.291658 C153.657015,179.856007 152.478501,181.109447 150.954066,181.495283 Z" id="è·¯å¾„" fill="#380000"></path>
                        <path d="M152.41758,180.784533 C152.044349,181.071634 151.6193,181.294312 151.159238,181.437862 C151.091314,181.45887 151.023391,181.477776 150.954066,181.495283 L149.732838,177.162162 L153.934312,178.291658 C153.892998,178.52414 153.832076,178.749619 153.752948,178.966695 C153.652813,179.240491 153.523968,179.500283 153.370614,179.742568 C153.115725,180.143108 152.792912,180.496032 152.41758,180.784533 Z" id="è·¯å¾„" fill="#61188E"></path>
                    </g>
                </g>
            </g>
        </g>
    </g>
</svg>