<?xml version="1.0" encoding="UTF-8"?>
<svg width="540px" height="360px" viewBox="0 0 540 360" version="1.1" xmlns="http://www.w3.org/2000/svg" xmlns:xlink="http://www.w3.org/1999/xlink">
    <title>ç”Ÿé•¿</title>
    <defs>
        <path d="M15.6108,11.9154 C15.2718,8.6334 14.8188,4.638 14.2536,0.4692 L2.5074,0.4692 C1.1766,0.4692 0.0978,1.548 0.0978,2.8788 L0.0978,4.686 C0.0978,8.6784 3.3342,11.9154 7.3272,11.9154 L15.6108,11.9154 Z" id="path-1"></path>
        <path d="M0.3642,15.4242 L11.3586,0.3852 L8.7348,18.8286 L8.7318,18.8274 C8.7162,18.8706 8.7,18.9144 8.6826,18.9576 C7.959,20.7354 5.499,21.4146 3.1878,20.4744 C0.876,19.5342 -0.4116,17.331 0.3114,15.5526 C0.3294,15.5094 0.348,15.4668 0.3672,15.4254 L0.3642,15.4242 Z" id="path-3"></path>
        <polygon id="path-5" points="0.3426 0.0624 65.4054 0.0624 65.4054 49.1676 0.3426 49.1676"></polygon>
        <radialGradient cx="50.0002115%" cy="50.0002115%" fx="50.0002115%" fy="50.0002115%" r="50.4243901%" id="radialGradient-7">
            <stop stop-color="#FFD976" offset="22.3958%"></stop>
            <stop stop-color="#FFC32B" offset="69.2708%"></stop>
            <stop stop-color="#FFA800" offset="100%"></stop>
        </radialGradient>
    </defs>
    <g id="ðŸ“è®¾è®¡å¸ˆæ¨¡å¼" stroke="none" stroke-width="1" fill="none" fill-rule="evenodd">
        <g id="æ¦‚è¿°-è®¾è®¡ä»·å€¼è§‚" transform="translate(-720.000000, -2005.000000)">
            <g id="ç”Ÿé•¿" transform="translate(720.000000, 2005.000000)">
                <polygon id="è·¯å¾„å¤‡ä»½-5" fill="#FCB247" fill-rule="nonzero" points="540 0 0 0 0 360 540 360"></polygon>
                <g id="ç¼–ç»„-25" transform="translate(419.000000, 149.500000)" fill="#FFFFFF" font-family="PingFangSC-Semibold, PingFang SC" font-weight="500">
                    <text id="Growing" font-size="17.28">
                        <tspan x="0" y="54.48">Growing</tspan>
                    </text>
                    <text id="ç”Ÿé•¿" font-size="34.56">
                        <tspan x="0" y="37">ç”Ÿé•¿</tspan>
                    </text>
                </g>
                <g id="ç¼–ç»„-6" transform="translate(41.944000, 51.500000)">
                    <path d="M130.479,235.7964 C200.1588,235.7964 256.6452,240.3816 256.6452,246.0378 C256.6452,251.694 200.1588,256.2792 130.479,256.2792 C60.7992,256.2792 4.3128,251.694 4.3128,246.0378 C4.3128,240.3816 60.7992,235.7964 130.479,235.7964 Z" id="è·¯å¾„" fill="#FC8F39" fill-rule="nonzero"></path>
                    <polygon id="è·¯å¾„" stroke="#61188E" stroke-width="2.4" fill="#7C5454" fill-rule="nonzero" points="199.5576 157.6926 185.0988 157.6926 185.0988 245.046 199.5576 245.046"></polygon>
                    <polygon id="è·¯å¾„" stroke="#61188E" stroke-width="2.4" fill="#7C5454" fill-rule="nonzero" points="43.677 142.3302 35.544 142.3302 35.544 245.046 43.677 245.046"></polygon>
                    <path d="M192.3282,188.1156 C219.8604,188.1156 242.1798,165.7962 242.1798,138.264 C242.1798,110.7312 219.8604,88.4124 192.3282,88.4124 C164.796,88.4124 142.4766,110.7312 142.4766,138.264 C142.4766,165.7962 164.796,188.1156 192.3282,188.1156 Z" id="è·¯å¾„" stroke="#61188E" stroke-width="2.4" fill="#DDE02C" fill-rule="nonzero"></path>
                    <path d="M212.9526,245.3976 C212.88,243.0714 212.3832,240.7764 211.4826,238.6236 C210.5064,236.2854 209.0766,234.1602 207.2724,232.3698 C205.4688,230.5794 203.3268,229.1592 200.9694,228.1902 C198.612,227.2206 196.0848,226.722 193.533,226.722 C190.9812,226.722 188.454,227.2206 186.0966,228.1902 C183.7386,229.1592 181.5972,230.5794 179.793,232.3698 C177.9894,234.1602 176.5584,236.2854 175.5828,238.6236 C174.684,240.7764 174.1872,243.072 174.114,245.3976 L212.9526,245.3976 Z" id="è·¯å¾„" stroke="#61188E" stroke-width="2.4" fill="#FF9F81" fill-rule="nonzero"></path>
                    <path d="M184.9344,245.3976 C184.8642,243.864 184.524,242.3526 183.9288,240.9312 C183.2556,239.3232 182.2692,237.8622 181.0248,236.631 C179.7804,235.4004 178.3026,234.4236 176.6754,233.757 C175.0494,233.0904 173.3052,232.7472 171.5442,232.7472 C169.7832,232.7472 168.039,233.0904 166.4124,233.757 C164.7858,234.4236 163.308,235.4004 162.0636,236.631 C160.8192,237.8622 159.8322,239.3232 159.159,240.9312 C158.5638,242.3526 158.2242,243.864 158.154,245.3976 L184.9344,245.3976 Z" id="è·¯å¾„" stroke="#61188E" stroke-width="2.4" fill="#DDE02C" fill-rule="nonzero"></path>
                    <path d="M255.57,245.3976 C255.4998,243.864 255.1596,242.3526 254.5644,240.9312 C253.8912,239.3232 252.9048,237.8622 251.6604,236.631 C250.416,235.4004 248.9382,234.4236 247.3116,233.757 C245.685,233.0904 243.9408,232.7472 242.1798,232.7472 C240.4188,232.7472 238.6746,233.0904 237.048,233.757 C235.4214,234.4236 233.9436,235.4004 232.6992,236.631 C231.4548,237.8622 230.4678,239.3232 229.7946,240.9312 C229.1994,242.3526 228.8598,243.864 228.7896,245.3976 L255.57,245.3976 Z" id="è·¯å¾„" stroke="#61188E" stroke-width="2.4" fill="#D95B00" fill-rule="nonzero"></path>
                    <path d="M237.9546,245.3976 C237.876,242.6148 237.2838,239.868 236.2116,237.2928 C235.0506,234.5154 233.3532,231.9918 231.2142,229.866 C229.0722,227.7402 226.5312,226.0536 223.7316,224.9022 C220.9356,223.7514 217.9368,223.1592 214.9086,223.1592 C211.8804,223.1592 208.8816,223.7514 206.0856,224.9022 C203.286,226.0536 200.745,227.7402 198.603,229.866 C196.464,231.9918 194.7654,234.5154 193.6074,237.2928 C192.5334,239.868 191.943,242.6148 191.8626,245.3976 L237.9546,245.3976 Z" id="è·¯å¾„" stroke="#61188E" stroke-width="2.4" fill="#DDE02C" fill-rule="nonzero"></path>
                    <path d="M38.5446,245.046 C38.4726,243.0768 38.0466,241.134 37.284,239.31 C36.4446,237.3006 35.2134,235.4742 33.6612,233.9352 C32.1096,232.3968 30.2664,231.1758 28.2378,230.343 C26.2092,229.5102 24.0348,229.0812 21.8382,229.0812 C19.6422,229.0812 17.4678,229.5102 15.4392,230.343 C13.4106,231.1758 11.5674,232.3968 10.0152,233.9352 C8.4636,235.4742 7.2324,237.3006 6.3924,239.31 C5.6304,241.134 5.2044,243.0768 5.1318,245.046 L38.5446,245.046 Z" id="è·¯å¾„" stroke="#61188E" stroke-width="2.4" fill="#DDE02C" fill-rule="nonzero"></path>
                    <path d="M39.6102,150.2064 C57.1614,150.2064 71.3886,135.9786 71.3886,118.428 C71.3886,100.8768 57.1614,86.649 39.6102,86.649 C22.0596,86.649 7.8318,100.8768 7.8318,118.428 C7.8318,135.9786 22.0596,150.2064 39.6102,150.2064 Z" id="è·¯å¾„" stroke="#61188E" stroke-width="2.4" fill="#D95B00" fill-rule="nonzero"></path>
                    <polygon id="è·¯å¾„" stroke="#61188E" stroke-width="2.4" fill="#7C5454" fill-rule="nonzero" points="125.6082 157.6926 98.1972 157.6926 98.1972 245.046 125.6082 245.046"></polygon>
                    <path d="M37.5018,229.6836 C37.5018,220.3002 30.0402,212.6598 20.7264,212.3718 C20.7786,212.658 20.8488,213.048 20.931,213.5226 C21.114,214.5792 21.3582,216.057 21.603,217.7406 C22.0914,221.1024 22.5846,225.3078 22.5918,228.6282 C22.5954,230.5368 22.4394,232.7292 22.2156,234.8886 C21.6564,240.288 25.7298,245.1954 31.1064,245.1954 L37.5018,245.1954 L37.5018,229.6836 Z" id="è·¯å¾„" stroke="#61188E" stroke-width="1.8" fill="#ADADD2" fill-rule="nonzero"></path>
                    <path d="M69.1542,208.7676 C68.7372,208.362 68.0694,208.3704 67.6632,208.7874 L64.9314,211.593 C64.5252,212.0106 64.5342,212.6778 64.9512,213.084 L73.9638,221.8596 C75.573,223.4262 78.1476,223.392 79.7148,221.7828 L80.3448,221.1354 C80.751,220.7184 80.742,220.0506 80.325,219.645 L69.1542,208.7676 Z" id="è·¯å¾„" stroke="#61188E" stroke-width="1.8" fill="#626282" fill-rule="nonzero"></path>
                    <path d="M80.877,242.937 C80.877,240.6912 79.0566,238.8708 76.8108,238.8708 L71.0874,238.8708 C70.3392,238.8708 69.732,239.4774 69.732,240.2262 L69.732,245.1954 L79.8228,245.1954 C80.4054,245.1954 80.877,244.7244 80.877,244.1418 L80.877,242.937 Z" id="è·¯å¾„" stroke="#61188E" stroke-width="1.8" fill="#626282" fill-rule="nonzero"></path>
                    <path d="M47.8524,178.2714 C44.3328,177.7518 41.0532,180.168 40.5072,183.684 L32.1114,237.726 C31.5012,241.6518 34.5372,245.1954 38.5104,245.1954 L70.2348,245.1954 C74.0082,245.1954 76.9626,241.9884 76.5822,238.2468 C75.8298,230.8398 74.46,219.3702 72.4908,210.6558 C71.1354,204.6588 69.5658,200.7486 68.0622,197.136 C67.9764,196.9308 67.8912,196.7268 67.8066,196.5228 C66.393,193.134 65.0454,189.9036 64.0266,185.361 C63.3882,182.511 61.1844,180.2394 58.3416,179.82 L47.8524,178.2714 Z" id="è·¯å¾„" stroke="#61188E" stroke-width="1.8" fill="#D6DBEE" fill-rule="nonzero"></path>
                    <path d="M61.7772,211.8126 C61.3788,211.3884 60.7116,211.3674 60.2868,211.7664 L57.4338,214.4484 C57.0096,214.8468 56.9886,215.514 57.3876,215.9388 L65.991,225.0918 C67.5294,226.7286 70.1028,226.8084 71.739,225.27 L72.3978,224.6508 C72.822,224.2524 72.8424,223.5852 72.444,223.161 L61.7772,211.8126 Z" id="è·¯å¾„" stroke="#61188E" stroke-width="1.8" fill="#626282" fill-rule="nonzero"></path>
                    <path d="M62.8044,242.937 C62.8044,240.6912 60.9834,238.8708 58.7376,238.8708 L39.7608,238.8708 C39.0126,238.8708 38.4054,239.4774 38.4054,240.2262 L38.4054,245.1954 L61.7502,245.1954 C62.3322,245.1954 62.8044,244.7244 62.8044,244.1418 L62.8044,242.937 Z" id="è·¯å¾„" stroke="#61188E" stroke-width="1.8" fill="#626282" fill-rule="nonzero"></path>
                    <path d="M76.8108,237.5154 C76.4718,234.2334 76.0188,230.238 75.4536,226.0692 L63.7074,226.0692 C62.3766,226.0692 61.2978,227.1474 61.2978,228.4788 L61.2978,230.286 C61.2978,234.2784 64.5342,237.5154 68.5272,237.5154 L76.8108,237.5154 Z" id="è·¯å¾„" fill="#C44E26"></path>
                    <g id="Clipped" transform="translate(61.200000, 225.600000)">
                        <mask id="mask-2" fill="white">
                            <use xlink:href="#path-1"></use>
                        </mask>
                        <g id="è·¯å¾„"></g>
                        <path d="M15.6108,11.9154 L16.5096,11.8224 L16.6128,12.819 L15.6108,12.819 L15.6108,11.9154 Z M14.2536,0.4692 L14.2536,-0.4344 L15.0426,-0.4344 L15.1488,0.3474 L14.2536,0.4692 Z M2.5074,0.4692 L2.5074,-0.4344 L2.5074,0.4692 Z M14.712,12.0084 C14.3736,8.733 13.9218,4.7478 13.3578,0.5904 L15.1488,0.3474 C15.7158,4.5288 16.17,8.5338 16.5096,11.8224 L14.712,12.0084 Z M14.2536,1.3728 L2.5074,1.3728 L2.5074,-0.4344 L14.2536,-0.4344 L14.2536,1.3728 Z M2.5074,1.3728 C1.6758,1.3728 1.0014,2.0472 1.0014,2.8788 L-0.8058,2.8788 C-0.8058,1.0488 0.6774,-0.4344 2.5074,-0.4344 L2.5074,1.3728 Z M1.0014,2.8788 L1.0014,4.686 L-0.8058,4.686 L-0.8058,2.8788 L1.0014,2.8788 Z M1.0014,4.686 C1.0014,8.1798 3.8334,11.0118 7.3272,11.0118 L7.3272,12.819 C2.8356,12.819 -0.8058,9.1776 -0.8058,4.686 L1.0014,4.686 Z M7.3272,11.0118 L15.6108,11.0118 L15.6108,12.819 L7.3272,12.819 L7.3272,11.0118 Z" id="å½¢çŠ¶" fill="#61188E" fill-rule="nonzero" mask="url(#mask-2)"></path>
                    </g>
                    <path d="M204.796921,72.3496544 L204.363903,74.7102678 C200.520278,74.0052149 196.597949,73.6476 192.6294,73.6476 L192.6294,71.2476 C196.743355,71.2476 200.810614,71.6184288 204.796921,72.3496544 Z M227.528888,81.0407771 L226.277331,83.0886066 C222.921147,81.0374323 219.383325,79.2961013 215.704754,77.8892902 L216.562043,75.6476266 C220.378035,77.1069921 224.047799,78.9132656 227.528888,81.0407771 Z M245.645121,97.2644918 L243.747625,98.7340191 C241.338341,95.6230827 238.649742,92.7359213 235.718075,90.110778 L237.319085,88.3228272 C240.358979,91.0448818 243.146821,94.0386158 245.645121,97.2644918 Z M256.795372,118.866604 L254.497792,119.560236 C253.358803,115.787462 251.876556,112.135356 250.072566,108.644005 L252.204757,107.542297 C254.076085,111.16397 255.61376,114.952644 256.795372,118.866604 Z M259.4817,142.989875 L257.087506,142.823036 C257.192871,141.311004 257.2458,139.790737 257.2458,138.264 C257.2458,135.867876 257.115435,133.488027 256.856721,131.131395 L259.242388,130.869494 C259.510645,133.313058 259.6458,135.780338 259.6458,138.264 C259.6458,139.846412 259.590934,141.422326 259.4817,142.989875 Z M253.404424,166.542753 L251.229103,165.52886 C252.888503,161.968597 254.22024,158.259383 255.204556,154.440641 L257.528593,155.039682 C256.507435,159.00136 255.125849,162.849416 253.404424,166.542753 Z M239.292697,186.364909 L237.621434,184.642446 C240.445618,181.902211 243.016326,178.910234 245.298631,175.705658 L247.253516,177.097931 C244.886804,180.421023 242.22115,183.523505 239.292697,186.364909 Z M219.077465,199.858532 L218.129508,197.653679 C221.74597,196.098813 225.210219,194.215407 228.48118,192.029906 L229.814512,194.025457 C226.422036,196.292149 222.828823,198.245669 219.077465,199.858532 Z M195.308501,205.22721 L195.21419,202.829064 C199.174847,202.673304 203.080146,202.159718 206.896266,201.299786 L207.423857,203.641078 C203.465563,204.533047 199.415244,205.065705 195.308501,205.22721 Z M171.30209,201.814499 L172.065379,199.53911 C175.782754,200.786119 179.617077,201.692961 183.531475,202.244467 L183.196643,204.620995 C179.13629,204.048926 175.158562,203.108168 171.30209,201.814499 Z M150.044502,190.012663 L151.570537,188.160308 C154.608408,190.663013 157.86807,192.884917 161.308715,194.795296 L160.143681,196.893556 C156.575257,194.912229 153.194788,192.607979 150.044502,190.012663 Z M134.378196,171.422621 L136.462857,170.233423 C138.412544,173.651222 140.671494,176.884794 143.208529,179.893454 L141.373772,181.440602 C138.742888,178.320647 136.400256,174.967288 134.378196,171.422621 Z M126.377943,148.421266 L128.750665,148.060446 C129.344747,151.96709 130.293555,155.790884 131.581496,159.494678 L129.31464,160.282944 C127.9785,156.440542 126.994193,152.473682 126.377943,148.421266 Z M127.096892,124.174368 L129.443763,124.676562 C128.625657,128.499755 128.154089,132.40924 128.04017,136.37158 L125.641161,136.302608 C125.759275,132.194361 126.248334,128.139875 127.096892,124.174368 Z M136.44188,101.723677 L138.452642,103.033958 C136.305055,106.329651 134.461814,109.815316 132.94886,113.449918 L130.733159,112.527602 C132.302573,108.757363 134.21447,105.141867 136.44188,101.723677 Z M153.197552,84.070356 L154.611146,86.0098795 C151.43121,88.3275308 148.467002,90.9312199 145.757449,93.7856346 L144.016799,92.1333225 C146.826382,89.1735294 149.900048,86.4736954 153.197552,84.070356 Z M175.124836,73.5570413 L175.750161,75.8741449 C171.943406,76.901487 168.249249,78.2751861 164.707319,79.9749979 L163.668921,77.8112677 C167.343194,76.0479431 171.175595,74.6228367 175.124836,73.5570413 Z M192.6294,71.2476 L192.6294,73.6476 C190.869329,73.6476 189.117904,73.7179417 187.377844,73.8578597 L187.185481,71.4655812 C188.989515,71.3205191 190.805112,71.2476 192.6294,71.2476 Z" id="è·¯å¾„" fill-opacity="0.4" fill="#FFFFFF" fill-rule="nonzero"></path>
                    <path d="M123.890023,12.7684369 L123.550044,15.1442345 C119.666174,14.5884491 115.727048,14.3076 111.7524,14.3076 L111.7524,11.9076 C115.840893,11.9076 119.893629,12.1965493 123.890023,12.7684369 Z M147.184936,19.6287031 L146.182659,21.8094 C142.60043,20.162959 138.900873,18.7750611 135.108579,17.6583296 L135.786533,15.3560745 C139.689957,16.5055309 143.49789,17.9340863 147.184936,19.6287031 Z M167.570218,32.8218145 L165.992323,34.6301976 C163.017986,32.0349568 159.861941,29.6548214 156.549101,27.5099771 L157.853436,25.4953532 C161.26236,27.7024053 164.509814,30.1514766 167.570218,32.8218145 Z M183.397337,51.2028324 L181.374401,52.4942387 C179.250404,49.1670833 176.889988,45.9953577 174.313197,43.0040424 L176.131561,41.4376603 C178.782927,44.5155476 181.211722,47.7791549 183.397337,51.2028324 Z M193.401306,73.3588833 L191.094522,74.021263 C190.003259,70.220863 188.640245,66.5117618 187.017926,62.918484 L189.205318,61.9309041 C190.875116,65.6293427 192.278064,69.4471131 193.401306,73.3588833 Z M196.689347,97.3485973 L194.289388,97.334704 L194.2908,96.8434365 C194.290657,93.03431 194.032575,89.2577225 193.521715,85.5309999 L195.899478,85.2050551 C196.387585,88.7657858 196.651394,92.3703392 196.686709,96.0042754 L196.6908,96.843391 C196.6908,97.0135785 196.690318,97.1809159 196.689347,97.3485973 Z M193.098603,121.363483 L190.80044,120.671783 C191.934287,116.904598 192.79806,113.05097 193.382648,109.133545 L195.756364,109.487769 C195.154709,113.51956 194.265657,117.485965 193.098603,121.363483 Z M182.835405,143.358469 L180.828333,142.042543 C182.991964,138.742537 184.916915,135.291222 186.586523,131.714038 L188.761303,132.72909 C187.042983,136.410643 185.061959,139.962492 182.835405,143.358469 Z M166.780751,161.551245 L165.225045,159.723738 C168.230475,157.165299 171.050594,154.394864 173.662162,151.435362 L175.461699,153.023337 C172.774655,156.06837 169.873054,158.918853 166.780751,161.551245 Z M146.226443,174.497238 L145.251393,172.304232 C148.859422,170.700037 152.345646,168.838148 155.68464,166.734746 L156.963859,168.76541 C153.527681,170.930033 149.939822,172.846203 146.226443,174.497238 Z M122.813549,181.071185 L122.503997,178.691231 C126.434363,178.180022 130.304653,177.388838 134.09253,176.326358 L134.740703,178.637175 C130.841947,179.730756 126.858497,180.545072 122.813549,181.071185 Z M98.6160943,180.775204 L98.9843253,178.403621 C102.862815,179.005827 106.798935,179.333103 110.772693,179.379307 L110.744789,181.779145 C106.656962,181.731614 102.607114,181.394882 98.6160943,180.775204 Z M75.4020327,173.635559 L76.4303501,171.46702 C79.992933,173.15639 83.6755575,174.58856 87.4535162,175.750587 L86.7479441,178.044529 C82.85929,176.848454 79.0688178,175.374342 75.4020327,173.635559 Z M55.1790946,160.204211 L56.7781918,158.41455 C59.7217965,161.044717 62.8496458,163.462004 66.136932,165.645945 L64.8088458,167.644992 C61.4262596,165.397737 58.2078526,162.910465 55.1790946,160.204211 Z M39.5675317,141.633859 L41.6056923,140.366617 C43.6899916,143.718887 46.0126306,146.918383 48.5538504,149.940029 L46.7170681,151.484772 C44.1022783,148.375647 41.7123263,145.083426 39.5675317,141.633859 Z M29.8305704,119.363843 L32.1451068,118.729082 C33.1909251,122.542463 34.5093744,126.267132 36.0883265,129.878703 L33.8893007,130.840101 C32.2641234,127.122798 30.9070376,123.288979 29.8305704,119.363843 Z M26.8265997,95.3340802 L29.2262337,95.3759928 C29.2176733,95.8661049 29.2134,96.3563224 29.2134001,96.8501274 C29.2135454,100.327055 29.428607,103.777034 29.8547289,107.186952 L27.4732519,107.484554 C27.0348049,103.976009 26.8135496,100.426671 26.8134001,96.8501777 C26.8134001,96.3423632 26.8177951,95.8381742 26.8265997,95.3340802 Z M30.7061499,71.3523815 L32.9957546,72.0719023 C31.815497,75.8276291 30.9048245,79.6725269 30.2731497,83.5837131 L27.9038509,83.2010603 C28.553981,79.1756032 29.4913167,75.2181319 30.7061499,71.3523815 Z M41.2272309,49.4935099 L43.2185528,50.8331506 C41.0153465,54.1081278 39.0490671,57.5371636 37.3367092,61.0947973 L35.1741681,60.0539245 C36.93646,56.3925467 38.9599843,52.8636804 41.2272309,49.4935099 Z M57.4973142,31.4905873 L59.0312698,33.336388 C55.995819,35.859004 53.1431591,38.5958734 50.4967221,41.5242831 L48.7161059,39.9151201 C51.4390218,36.9020826 54.3741092,34.0861316 57.4973142,31.4905873 Z M78.2102142,18.787602 L79.1587688,20.9921982 C75.5310007,22.5530901 72.0223772,24.3731769 68.6582988,26.4365975 L67.4034576,24.3907789 C70.8655019,22.2672691 74.4764692,20.3940918 78.2102142,18.787602 Z M101.691523,12.4973253 L101.972834,14.8807817 C98.0355828,15.3454811 94.1560659,16.090498 90.3564075,17.1074293 L89.7359159,14.7890268 C93.6467457,13.7423419 97.63961,12.9755579 101.691523,12.4973253 Z" id="è·¯å¾„" fill-opacity="0.5" fill="#FFFFFF" fill-rule="nonzero"></path>
                    <path d="M39.1584,157.4358 C60.7848,157.4358 78.3168,139.9038 78.3168,118.2774 C78.3168,96.6504 60.7848,79.119 39.1584,79.119 C17.532,79.119 -4.68958206e-13,96.6504 -4.68958206e-13,118.2774 C-4.68958206e-13,139.9038 17.532,157.4358 39.1584,157.4358 Z" id="è·¯å¾„" stroke-opacity="0.3" stroke="#FFFFFF" stroke-width="2.4" stroke-dasharray="12"></path>
                    <path d="M52.5846,167.3862 C52.884,166.5396 52.5192,165.6012 51.7266,165.18 C50.8422,164.709 49.7436,165.045 49.2732,165.9294 L45.81,172.4388 C45.3024,173.3928 45.6642,174.5784 46.6188,175.0866 L47.3394,175.47 C48.396,176.0322 49.7058,175.5228 50.1048,174.3948 L52.5846,167.3862 Z" id="è·¯å¾„" stroke="#61188E" stroke-width="1.8" fill="#626282" fill-rule="nonzero"></path>
                    <path d="M53.9178,201.42 C44.4624,199.8948 37.2054,196.1292 37.7088,193.0086 C38.2122,189.888 46.2852,188.595 55.7406,190.1196 C65.196,191.6448 72.453,195.411 71.9496,198.5316 C71.4468,201.6516 63.3732,202.9452 53.9178,201.42 Z" id="è·¯å¾„" fill="#BBC2DD" fill-rule="nonzero"></path>
                    <path d="M79.8942,190.0116 C80.6304,185.4462 77.8584,181.0446 73.4226,179.7366 L59.8662,175.7394 L59.865,175.7388 L45.4074,171.5016 C41.667,170.4054 37.8132,172.8378 37.1922,176.6856 L35.2296,188.8554 C34.6596,192.3864 37.0608,195.711 40.5918,196.2798 L71.5188,201.2688 C75.0498,201.8382 78.3738,199.437 78.9432,195.906 L79.8942,190.0116 Z" id="è·¯å¾„" stroke="#61188E" stroke-width="1.8" fill="#FFFFFF" fill-rule="nonzero"></path>
                    <path d="M51.3642,172.0236 L62.3586,156.9846 L59.7348,175.4286 L59.7318,175.4274 C59.7162,175.4706 59.7,175.5138 59.6826,175.5576 C58.959,177.3354 56.499,178.0146 54.1878,177.0744 C51.876,176.1342 50.5884,173.931 51.3114,172.1526 C51.3294,172.1094 51.348,172.0668 51.3672,172.0254 L51.3642,172.0236 Z" id="è·¯å¾„" fill="#C44E26"></path>
                    <g id="Clipped" transform="translate(51.000000, 156.600000)">
                        <mask id="mask-4" fill="white">
                            <use xlink:href="#path-3"></use>
                        </mask>
                        <g id="è·¯å¾„"></g>
                        <path d="M11.3586,0.3852 L10.6296,-0.1482 L12.2538,0.5124 L11.3586,0.3852 Z M0.3642,15.4242 L0.024,16.2612 L-1.0488,15.825 L-0.3654,14.8908 L0.3642,15.4242 Z M8.7348,18.8286 L9.6294,18.9564 L9.4662,20.1024 L8.394,19.6656 L8.7348,18.8286 Z M8.7318,18.8274 L7.8786,18.5304 L8.1912,17.6316 L9.0726,17.9904 L8.7318,18.8274 Z M0.3672,15.4254 L0.7074,14.5884 L1.5888,14.946 L1.1862,15.8082 L0.3672,15.4254 Z M12.0882,0.918 L1.0938,15.9576 L-0.3654,14.8908 L10.6296,-0.1482 L12.0882,0.918 Z M7.8402,18.7014 L10.464,0.2574 L12.2538,0.5124 L9.6294,18.9564 L7.8402,18.7014 Z M9.0726,17.9904 L9.0756,17.9916 L8.394,19.6656 L8.3904,19.6644 L9.0726,17.9904 Z M9.585,19.1244 C9.5646,19.1826 9.543,19.2402 9.5196,19.2978 L7.8456,18.6168 C7.857,18.588 7.8678,18.5592 7.8786,18.5304 L9.585,19.1244 Z M9.5196,19.2978 C9.0306,20.5002 7.9746,21.2742 6.771,21.6066 C5.5686,21.9384 4.1718,21.8508 2.847,21.3114 L3.528,19.6374 C4.515,20.0388 5.5038,20.0814 6.2898,19.8642 C7.0752,19.6476 7.611,19.1928 7.8456,18.6168 L9.5196,19.2978 Z M2.847,21.3114 C1.5228,20.7732 0.4608,19.8612 -0.1686,18.7836 C-0.7986,17.706 -1.014,16.4148 -0.5256,15.2124 L1.149,15.8934 C0.915,16.4688 0.981,17.169 1.392,17.8722 C1.8036,18.576 2.541,19.236 3.528,19.6374 L2.847,21.3114 Z M-0.5256,15.2124 C-0.5016,15.1548 -0.477,15.0984 -0.4512,15.0426 L1.1862,15.8082 C1.173,15.8358 1.1604,15.8646 1.149,15.8934 L-0.5256,15.2124 Z M0.7044,14.5872 L0.7074,14.5884 L0.0276,16.2624 L0.024,16.2612 L0.7044,14.5872 Z" id="å½¢çŠ¶" fill="#61188E" fill-rule="nonzero" mask="url(#mask-4)"></path>
                    </g>
                    <path d="M47.349,180.0594 C45.8346,181.7868 45.921,184.2372 47.4114,185.5428 C48.9018,186.849 51.342,186.6132 52.8558,184.8852 C54.3702,183.1572 54.2838,180.7074 52.7934,179.4012 C51.303,178.0956 48.8628,178.3314 47.349,180.0594 Z" id="è·¯å¾„" stroke="#61188E" stroke-width="1.8" fill="#FFFFFF" fill-rule="nonzero"></path>
                    <path d="M50.9508,185.4126 C50.0478,185.2668 49.4334,184.4166 49.5792,183.513 C49.725,182.61 50.5752,181.9956 51.4788,182.1414 C52.3818,182.2872 52.9962,183.1374 52.8504,184.0404 C52.7046,184.944 51.8544,185.5584 50.9508,185.4126 Z" id="è·¯å¾„" stroke="#5C3375" stroke-width="1.8" fill="#342E2E" fill-rule="nonzero"></path>
                    <path d="M73.509,198.3858 C73.0164,198.306 72.6816,197.8422 72.7608,197.3496 C72.8406,196.857 73.3044,196.5222 73.797,196.6014 C74.2896,196.6812 74.6244,197.145 74.5452,197.6376 C74.466,198.1302 74.0016,198.465 73.509,198.3858 Z" id="è·¯å¾„" fill="#454A5C" fill-rule="nonzero"></path>
                    <path d="M46.1034,167.442 C46.4208,166.6014 46.0758,165.6558 45.2928,165.2178 C44.418,164.7282 43.3128,165.0402 42.8238,165.9144 L39.2232,172.3494 C38.6952,173.2932 39.0324,174.486 39.9762,175.014 L40.6884,175.4124 C41.733,175.9968 43.053,175.5156 43.476,174.396 L46.1034,167.442 Z" id="è·¯å¾„" stroke="#61188E" stroke-width="1.8" fill="#626282" fill-rule="nonzero"></path>
                    <g id="Clipped" transform="translate(158.400000, 114.600000)">
                        <mask id="mask-6" fill="white">
                            <use xlink:href="#path-5"></use>
                        </mask>
                        <g id="è·¯å¾„"></g>
                        <path d="M44.0736,42.7668 C42.9252,43.9002 41.0886,43.9002 39.948,42.7668 C38.8584,41.6628 37.8912,40.6956 37.8912,40.6956 L41.0058,37.5798 L37.0914,33.6636 L33.963,36.7788 L30.8472,33.6636 L26.9346,37.5798 L30.0468,40.6956 C30.0468,40.6956 29.0802,41.6628 27.9924,42.7668 C26.8494,43.9002 24.9996,43.9002 23.8746,42.7668 C22.731,41.619 22.731,39.786 23.8746,38.6382 C25.0572,37.443 33.9234,28.4904 33.9234,28.4904 C33.9234,28.4904 42.8796,37.443 44.0736,38.6382 C45.207,39.786 45.207,41.619 44.0736,42.7668 Z M23.8746,10.593 C22.731,9.4518 22.731,7.6062 23.8746,6.465 C24.9996,5.3208 26.8494,5.3208 27.9924,6.465 C29.0802,7.5606 30.0468,8.5278 30.0468,8.5278 L26.9346,11.6436 L30.8472,15.5598 L33.963,12.444 L37.0914,15.5598 L41.0058,11.6436 L37.8912,8.5278 C37.8912,8.5278 38.8584,7.5606 39.948,6.465 C41.0886,5.3208 42.9252,5.3208 44.0736,6.465 C45.207,7.6062 45.207,9.4518 44.0736,10.593 C42.8796,11.7882 33.9234,20.7408 33.9234,20.7408 C33.9234,20.7408 25.0572,11.7882 23.8746,10.593 Z M37.8912,24.6198 C37.8912,24.6198 47.0754,15.4314 47.9826,14.5098 C51.2928,11.1978 51.2928,5.8524 47.9826,2.5404 C44.6922,-0.7638 39.3336,-0.7638 36.0174,2.5404 C34.7316,3.8406 33.963,4.6032 33.963,4.6032 C33.963,4.6032 33.1986,3.8406 31.9128,2.5404 C28.6032,-0.7638 23.244,-0.7638 19.95,2.5404 C16.638,5.8524 16.638,11.1978 19.95,14.5098 C20.8572,15.4314 30.0468,24.6198 30.0468,24.6198 C30.0468,24.6198 20.8572,33.8004 19.95,34.7202 C16.638,38.0178 16.638,43.3848 19.95,46.6854 C23.244,49.995 28.6032,49.995 31.9128,46.6854 C33.1986,45.3828 33.963,44.6256 33.963,44.6256 C33.963,44.6256 34.7316,45.3828 36.0174,46.6854 C39.3336,49.995 44.6922,49.995 47.9826,46.6854 C51.2928,43.3848 51.2928,38.0178 47.9826,34.7202 C47.0754,33.8004 37.8912,24.6198 37.8912,24.6198 Z M60.0558,26.6772 C58.9326,27.8244 57.0798,27.8244 55.938,26.6772 C55.0164,25.7532 53.8842,24.6198 53.8842,24.6198 C53.8842,24.6198 55.0164,23.478 55.938,22.5564 C57.0798,21.4128 58.9326,21.4128 60.0558,22.5564 C60.6312,23.121 60.9114,23.8626 60.9114,24.6198 C60.9114,25.3668 60.6312,26.1162 60.0558,26.6772 Z M63.99,18.63 C60.6852,15.3258 55.3206,15.3258 52.0254,18.63 C51.0708,19.5834 49.9692,20.6874 49.9692,20.6874 L46.8474,17.5794 L42.9252,21.4962 L46.047,24.6198 L42.9252,27.735 L46.8474,31.6518 L49.9692,28.536 C49.9692,28.536 51.0708,29.6556 52.0254,30.6072 C55.3206,33.9054 60.6852,33.9054 63.99,30.6072 C65.6376,28.9446 66.4596,26.7822 66.4596,24.6198 C66.4596,22.4496 65.6376,20.2794 63.99,18.63 Z M11.9094,26.6772 C10.7742,27.8244 8.9322,27.8244 7.7832,26.6772 C7.2168,26.1162 6.9354,25.3668 6.9354,24.6198 C6.9354,23.8626 7.2168,23.121 7.7832,22.5564 C8.9322,21.4128 10.7742,21.4128 11.9094,22.5564 C12.8328,23.478 13.9656,24.6198 13.9656,24.6198 L11.9094,26.6772 Z M21.0078,31.6518 L24.9222,27.735 L21.8082,24.6198 L24.9222,21.4962 L21.0078,17.5794 L17.8938,20.6874 C17.8938,20.6874 16.7766,19.5834 15.8316,18.63 C12.5274,15.3258 7.1634,15.3258 3.8748,18.63 C2.2188,20.2794 1.3968,22.4496 1.3968,24.6198 C1.3968,26.7822 2.2188,28.9446 3.8748,30.6072 C7.1634,33.9054 12.5274,33.9054 15.8316,30.6072 C16.7766,29.6556 17.8938,28.536 17.8938,28.536 L21.0078,31.6518 Z" id="å½¢çŠ¶" fill-opacity="0.3" fill="#E02020" mask="url(#mask-6)"></path>
                    </g>
                    <path d="M111.903,167.934 C151.08,167.934 182.8398,136.1742 182.8398,96.9972 C182.8398,57.8196 151.08,26.0598 111.903,26.0598 C72.7254,26.0598 40.9656,57.8196 40.9656,96.9972 C40.9656,136.1742 72.7254,167.934 111.903,167.934 Z" id="è·¯å¾„" stroke="#61188E" stroke-width="2.4" fill="url(#radialGradient-7)" fill-rule="nonzero"></path>
                    <path d="M96.6972,245.0898 C102.1038,245.0898 106.4868,240.7068 106.4868,235.3002 C106.4868,229.8936 102.1038,225.5106 96.6972,225.5106 C91.2906,225.5106 86.9076,229.8936 86.9076,235.3002 C86.9076,240.7068 91.2906,245.0898 96.6972,245.0898 Z" id="è·¯å¾„" stroke="#61188E" stroke-width="2.4" fill="#ECCE33" fill-rule="nonzero"></path>
                    <path d="M91.257,48.9966 L72.0036,48.9966 C70.4994,48.9966 69.2802,50.2158 69.2802,51.72 L69.2802,70.974 C69.2802,72.4776 70.4994,73.6968 72.0036,73.6968 L91.257,73.6968 C92.7612,73.6968 93.9804,72.4776 93.9804,70.974 L93.9804,51.72 C93.9804,50.2158 92.7612,48.9966 91.257,48.9966 Z" id="è·¯å¾„" stroke="#61188E" stroke-width="2.4" fill="#E9E3FD" fill-rule="nonzero"></path>
                    <path d="M140.6574,43.575 L130.44,43.575 C128.9358,43.575 127.7166,44.7942 127.7166,46.2978 L127.7166,56.5152 C127.7166,58.0188 128.9358,59.238 130.44,59.238 L140.6574,59.238 C142.161,59.238 143.3802,58.0188 143.3802,56.5152 L143.3802,46.2978 C143.3802,44.7942 142.161,43.575 140.6574,43.575 Z" id="è·¯å¾„" stroke="#61188E" stroke-width="2.4" fill="#E9E3FD" fill-rule="nonzero"></path>
                    <path d="M131.3196,129.1212 L116.2824,129.1212 C114.7788,129.1212 113.5596,130.3404 113.5596,131.844 L113.5596,146.8806 C113.5596,148.3848 114.7788,149.604 116.2824,149.604 L131.3196,149.604 C132.8232,149.604 134.0424,148.3848 134.0424,146.8806 L134.0424,131.844 C134.0424,130.3404 132.8232,129.1212 131.3196,129.1212 Z" id="è·¯å¾„" stroke="#61188E" stroke-width="2.4" fill="#E9E3FD" fill-rule="nonzero"></path>
                    <path d="M130.4154,67.6722 L102.4266,67.6722 C100.9224,67.6722 99.7032,68.8914 99.7032,70.3956 L99.7032,93.5652 C99.7032,95.0688 100.9224,96.288 102.4266,96.288 L130.4154,96.288 C131.9196,96.288 133.1388,95.0688 133.1388,93.5652 L133.1388,70.3956 C133.1388,68.8914 131.9196,67.6722 130.4154,67.6722 Z" id="è·¯å¾„" stroke="#61188E" stroke-width="2.4" fill="#F8F8F8" fill-rule="nonzero"></path>
                    <path d="M160.839,87.5526 L127.1262,87.5526 C125.6226,87.5526 124.4034,88.7718 124.4034,90.276 L124.4034,117.9636 C124.4034,119.4678 125.6226,120.687 127.1262,120.687 L160.839,120.687 C162.3426,120.687 163.5618,119.4678 163.5618,117.9636 L163.5618,90.276 C163.5618,88.7718 162.3426,87.5526 160.839,87.5526 Z" id="è·¯å¾„" stroke="#61188E" stroke-width="2.4" fill="#A1A1EA" fill-rule="nonzero"></path>
                    <path d="M102.4026,85.7454 L64.473,85.7454 C62.9688,85.7454 61.7502,86.9646 61.7502,88.4688 L61.7502,119.7714 C61.7502,121.275 62.9688,122.4942 64.473,122.4942 L102.4026,122.4942 C103.9062,122.4942 105.1254,121.275 105.1254,119.7714 L105.1254,88.4688 C105.1254,86.9646 103.9062,85.7454 102.4026,85.7454 Z" id="è·¯å¾„" stroke="#61188E" stroke-width="2.4" fill="#FFFFFF" fill-rule="nonzero"></path>
                    <path d="M86.6706,105.4752 L75.3852,105.4752 C74.7588,105.4752 74.2506,105.9834 74.2506,106.6098 L74.2506,116.691 C74.2506,117.3174 74.7588,117.825 75.3852,117.825 L86.6706,117.825 C87.2976,117.825 87.8052,117.3174 87.8052,116.691 L87.8052,106.6098 C87.8052,105.9834 87.2976,105.4752 86.6706,105.4752 Z" id="è·¯å¾„" stroke="#61188E" stroke-width="1.8" fill="#B7C4FF" fill-rule="nonzero"></path>
                    <path d="M97.5144,97.9446 L86.229,97.9446 C85.602,97.9446 85.0944,98.4528 85.0944,99.0792 L85.0944,109.1604 C85.0944,109.7868 85.602,110.295 86.229,110.295 L97.5144,110.295 C98.1414,110.295 98.649,109.7868 98.649,109.1604 L98.649,99.0792 C98.649,98.4528 98.1414,97.9446 97.5144,97.9446 Z" id="è·¯å¾„" stroke="#61188E" stroke-width="1.8" fill="#CCD5FA" fill-rule="nonzero"></path>
                    <path d="M143.6814,91.4688 L128.9214,91.4688 C128.4222,91.4688 128.0178,91.8732 128.0178,92.3724 C128.0178,92.8716 128.4222,93.276 128.9214,93.276 L143.6814,93.276 C144.1806,93.276 144.585,92.8716 144.585,92.3724 C144.585,91.8732 144.1806,91.4688 143.6814,91.4688 Z" id="è·¯å¾„" fill="#E9ECFA" fill-rule="nonzero"></path>
                    <path d="M159.6456,106.2282 L145.4886,106.2282 C144.9894,106.2282 144.585,106.6332 144.585,107.1318 C144.585,107.631 144.9894,108.036 145.4886,108.036 L159.6456,108.036 C160.1448,108.036 160.5498,107.631 160.5498,107.1318 C160.5498,106.6332 160.1448,106.2282 159.6456,106.2282 Z" id="è·¯å¾„" fill="#E9ECFA" fill-rule="nonzero"></path>
                    <path d="M143.6814,95.0832 L128.9214,95.0832 C128.4222,95.0832 128.0178,95.4876 128.0178,95.9868 C128.0178,96.486 128.4222,96.8904 128.9214,96.8904 L143.6814,96.8904 C144.1806,96.8904 144.585,96.486 144.585,95.9868 C144.585,95.4876 144.1806,95.0832 143.6814,95.0832 Z" id="è·¯å¾„" fill="#E9ECFA" fill-rule="nonzero"></path>
                    <path d="M159.6456,109.8432 L145.4886,109.8432 C144.9894,109.8432 144.585,110.2476 144.585,110.7468 C144.585,111.2454 144.9894,111.6504 145.4886,111.6504 L159.6456,111.6504 C160.1448,111.6504 160.5498,111.2454 160.5498,110.7468 C160.5498,110.2476 160.1448,109.8432 159.6456,109.8432 Z" id="è·¯å¾„" fill="#E9ECFA" fill-rule="nonzero"></path>
                    <path d="M143.6814,98.9994 L128.9214,98.9994 C128.4222,98.9994 128.0178,99.4038 128.0178,99.903 C128.0178,100.4016 128.4222,100.8066 128.9214,100.8066 L143.6814,100.8066 C144.1806,100.8066 144.585,100.4016 144.585,99.903 C144.585,99.4038 144.1806,98.9994 143.6814,98.9994 Z" id="è·¯å¾„" fill="#E9ECFA" fill-rule="nonzero"></path>
                    <path d="M159.6456,113.7588 L145.4886,113.7588 C144.9894,113.7588 144.585,114.1632 144.585,114.6624 C144.585,115.1616 144.9894,115.566 145.4886,115.566 L159.6456,115.566 C160.1448,115.566 160.5498,115.1616 160.5498,114.6624 C160.5498,114.1632 160.1448,113.7588 159.6456,113.7588 Z" id="è·¯å¾„" fill="#E9ECFA" fill-rule="nonzero"></path>
                    <path d="M85.767,90.4146 L70.2642,90.4146 C69.6378,90.4146 69.1296,90.9228 69.1296,91.5492 L69.1296,105.546 C69.1296,106.1724 69.6378,106.6806 70.2642,106.6806 L85.767,106.6806 C86.394,106.6806 86.9016,106.1724 86.9016,105.546 L86.9016,91.5492 C86.9016,90.9228 86.394,90.4146 85.767,90.4146 Z" id="è·¯å¾„" stroke="#61188E" stroke-width="1.8" fill="#E9ECFA" fill-rule="nonzero"></path>
                    <path d="M77.601,61.6494 L75.6708,65.5638 L77.3844,65.5638 L78.4902,62.94 L79.6074,65.5638 L81.3642,65.5638 L79.434,61.6494 L81.234,57.8214 L79.5312,57.8214 L78.5448,60.3264 L77.547,57.8214 L75.8226,57.8214 L77.601,61.6494 Z M82.0482,65.5638 L84.51,65.5638 C86.5812,65.5638 87.1668,64.3278 87.1668,61.5846 C87.1668,59.307 86.7762,57.8214 84.6078,57.8214 L82.0482,57.8214 L82.0482,65.5638 Z M83.61,58.971 L84.2712,58.971 C85.464,58.971 85.605,59.871 85.605,61.6278 C85.605,63.7314 85.3884,64.4148 84.3042,64.4148 L83.61,64.4148 L83.61,58.971 Z" id="å½¢çŠ¶" fill="#61188E" fill-rule="nonzero"></path>
                    <path d="M130.0638,52.6032 L130.0638,52.9176 C130.0638,54.3486 130.758,55.173 132.5256,55.173 C134.217,55.173 135.2148,54.4356 135.2148,52.7982 C135.2148,51.855 134.9112,51.2586 133.74,50.7486 L132.5364,50.2284 C131.8746,49.9464 131.7336,49.6536 131.7336,49.176 C131.7336,48.7206 131.9178,48.276 132.6228,48.276 C133.2192,48.276 133.4688,48.699 133.4688,49.4256 L134.9652,49.4256 L134.9652,49.209 C134.9652,47.7234 133.9566,47.127 132.5688,47.127 C131.094,47.127 130.1724,47.8968 130.1724,49.404 C130.1724,50.6946 130.812,51.2694 132.1998,51.7464 C133.23,52.104 133.5882,52.3644 133.5882,53.0694 C133.5882,53.7198 133.1328,54.0234 132.6552,54.0234 C131.8314,54.0234 131.625,53.5572 131.625,52.8306 L131.625,52.6032 L130.0638,52.6032 Z M135.9906,47.2788 L135.9906,55.0212 L137.5518,55.0212 L137.5518,52.722 L138.1266,51.8436 L139.7208,55.0212 L141.4776,55.0212 L139.1352,50.5968 L141.2388,47.2788 L139.5474,47.2788 L137.574,50.3802 L137.5518,50.3802 L137.5518,47.2788 L135.9906,47.2788 Z" id="å½¢çŠ¶" fill="#61188E" fill-rule="nonzero"></path>
                    <path d="M120.1812,136.9866 L120.9186,136.9866 C121.6236,136.9866 122.0034,137.3442 122.0034,138.06 C122.0034,138.8952 121.5804,139.2204 120.8322,139.2204 L120.1812,139.2204 L120.1812,136.9866 Z M118.62,143.5794 L120.1812,143.5794 L120.1812,140.3046 L121.0164,140.3046 C121.6452,140.3046 121.9164,140.6736 121.938,141.2808 L121.9812,142.7664 C121.9926,143.07 122.025,143.3628 122.1768,143.5794 L123.8682,143.5794 L123.8682,143.5146 C123.5754,143.3628 123.5322,142.9398 123.5214,142.1262 C123.4998,140.4888 123.3372,139.9032 122.274,139.7622 L122.274,139.7406 C123.1524,139.5564 123.5646,138.8622 123.5646,137.832 C123.5646,136.5096 122.784,135.837 121.5042,135.837 L118.62,135.837 L118.62,143.5794 Z M124.6452,143.5794 L126.207,143.5794 L126.207,140.4888 L127.0422,140.4888 C128.517,140.4888 129.5034,139.7622 129.5034,138.1578 C129.5034,136.9974 128.9616,135.837 127.3782,135.837 L124.6452,135.837 L124.6452,143.5794 Z M126.207,136.9866 L126.8574,136.9866 C127.6386,136.9866 127.9422,137.4204 127.9422,138.1794 C127.9422,138.9708 127.5192,139.3398 126.9012,139.3398 L126.207,139.3398 L126.207,136.9866 Z" id="å½¢çŠ¶" fill="#61188E" fill-rule="nonzero"></path>
                    <path d="M112.3548,84.2394 C116.0148,84.2394 118.9812,81.2724 118.9812,77.6124 C118.9812,73.9524 116.0148,70.986 112.3548,70.986 C108.6948,70.986 105.7278,73.9524 105.7278,77.6124 C105.7278,81.2724 108.6948,84.2394 112.3548,84.2394 Z" id="è·¯å¾„" fill="#94DEC3" fill-rule="nonzero"></path>
                    <path d="M119.5818,89.2152 C123.2406,89.3034 126.2784,86.409 126.3666,82.7502 C126.4554,79.0914 123.561,76.0536 119.9022,75.9654 C116.2434,75.8772 113.2056,78.7716 113.1168,82.4304 C113.0286,86.0892 115.923,89.127 119.5818,89.2152 Z" id="è·¯å¾„" fill="#838FFE" fill-rule="nonzero"></path>
                    <path d="M125.3538,244.6704 C125.5806,244.4346 125.7672,244.1094 125.8986,243.684 C126.0954,243.048 126.1554,242.2218 126.054,241.2408 C125.952,240.2628 125.6934,239.1696 125.2878,238.0236 C124.8816,236.8788 124.3392,235.71 123.69,234.5856 C123.0408,233.4618 122.2998,232.407 121.5114,231.483 C120.7218,230.5584 119.9046,229.788 119.1084,229.2108 C118.3098,228.6324 117.564,228.2718 116.9148,228.1236 C116.481,228.0246 116.106,228.024 115.788,228.1026 L125.3538,244.6704 Z" id="è·¯å¾„" stroke="#61188E" stroke-width="1.8" fill="#59B16D" fill-rule="nonzero"></path>
                    <path d="M122.2722,242.616 L122.1924,242.9658 L122.2722,242.616 C121.6224,242.4678 120.8766,242.1066 120.0786,241.5282 C119.2824,240.9516 118.4646,240.1806 117.6756,239.2566 C116.8872,238.3326 116.1462,237.2778 115.497,236.154 C114.8478,235.0296 114.3054,233.8608 113.8992,232.716 C113.493,231.57 113.2344,230.4768 113.133,229.4988 C113.0316,228.5178 113.0916,227.6916 113.2884,227.055 C113.4198,226.6296 113.6064,226.305 113.8332,226.0692 L123.3984,242.637 C123.081,242.7156 122.706,242.7156 122.2722,242.616 Z" id="è·¯å¾„" fill="#59B16D" fill-rule="nonzero"></path>
                    <path d="M122.2722,242.616 L122.1924,242.9658 L122.2722,242.616 Z M122.2722,242.616 C121.6224,242.4678 120.8766,242.1066 120.0786,241.5282 C119.2824,240.9516 118.4646,240.1806 117.6756,239.2566 C116.8872,238.3326 116.1462,237.2778 115.497,236.154 C114.8478,235.0296 114.3054,233.8608 113.8992,232.716 C113.493,231.57 113.2344,230.4768 113.133,229.4988 C113.0316,228.5178 113.0916,227.6916 113.2884,227.055 C113.4198,226.6296 113.6064,226.305 113.8332,226.0692 L123.3984,242.637 C123.081,242.7156 122.706,242.7156 122.2722,242.616 Z" id="å½¢çŠ¶" stroke="#61188E" stroke-width="1.8"></path>
                    <path d="M124.3554,244.7292 C124.6992,244.9962 125.1348,245.1894 125.661,245.2914 C126.3768,245.427 127.2408,245.394 128.208,245.1678 C129.1734,244.9416 130.2102,244.5324 131.2572,243.9582 C132.3036,243.3846 133.3344,242.6604 134.2878,241.8258 C135.2418,240.9918 136.0974,240.0678 136.806,239.1072 C137.5146,238.146 138.0588,237.1734 138.4116,236.2464 C138.7644,235.3182 138.9144,234.4668 138.873,233.7384 C138.8424,233.2032 138.7104,232.746 138.4908,232.3698 L124.3554,244.7292 Z" id="è·¯å¾„" stroke="#61188E" stroke-width="1.8" fill="#59B16D" fill-rule="nonzero"></path>
                    <path d="M126.7032,244.092 C126.4842,243.7158 126.3516,243.2586 126.321,242.7234 C126.2796,241.995 126.4296,241.1442 126.783,240.2154 C127.1352,239.289 127.6794,238.3158 128.388,237.3546 C129.0966,236.394 129.9522,235.47 130.9056,234.636 C131.8596,233.802 132.8904,233.0772 133.9368,232.5036 C134.9838,231.9294 136.0206,231.5202 136.986,231.2946 C137.9532,231.0684 138.8172,231.0336 139.533,231.1716 C140.0592,231.273 140.4948,231.4656 140.8386,231.7332 L126.7032,244.092 Z" id="è·¯å¾„" stroke="#61188E" stroke-width="1.8" fill="#59B16D" fill-rule="nonzero"></path>
                    <path d="M111.2322,239.181 C111.2454,239.2386 111.2634,239.301 111.2874,239.3688 L110.862,239.5206 L111.2874,239.3688 C111.408,239.7054 111.66,240.111 112.0566,240.561 C112.4508,241.008 112.9644,241.4736 113.5722,241.9278 C114.1794,242.382 114.8634,242.8122 115.584,243.1932 C116.3052,243.5742 117.0462,243.8964 117.7632,244.1424 C118.4808,244.389 119.1546,244.5522 119.7462,244.6248 C120.3414,244.6998 120.819,244.6788 121.1646,244.5882 C121.2336,244.5702 121.2954,244.5492 121.3506,244.5282 L111.2322,239.181 Z" id="è·¯å¾„" stroke="#61188E" stroke-width="1.2" fill="#59B16D" fill-rule="nonzero"></path>
                    <path d="M111.6198,238.4016 C111.675,238.3794 111.7368,238.3596 111.8064,238.3416 C112.1514,238.251 112.6296,238.2312 113.2248,238.305 C113.8158,238.3788 114.4896,238.5408 115.2078,238.7874 C115.9248,239.0334 116.6652,239.3556 117.3864,239.7366 C118.1076,240.1182 118.7916,240.5478 119.3988,241.002 C120.0066,241.4568 120.5202,241.9218 120.9138,242.3688 C121.311,242.8188 121.563,243.225 121.6836,243.5616 C121.707,243.6288 121.7256,243.6912 121.7388,243.7488 L111.6198,238.4016 Z" id="è·¯å¾„" stroke="#61188E" stroke-width="1.2" fill="#59B16D" fill-rule="nonzero"></path>
                    <path d="M124.8846,244.5924 C125.3136,244.5726 125.8164,244.3848 126.3918,243.9732 C127.1826,243.4074 128.0376,242.466 128.8998,241.1784 C129.759,239.8944 130.5954,238.311 131.3586,236.5152 C132.1212,234.7206 132.7932,232.755 133.335,230.7324 C133.8774,228.7086 134.2782,226.671 134.5146,224.7354 C134.7516,222.7986 134.8194,221.0088 134.7168,219.4674 C134.6142,217.9212 134.3448,216.6786 133.9428,215.793 C133.65,215.1486 133.3086,214.7346 132.9468,214.5036 L124.8846,244.5924 Z" id="è·¯å¾„" stroke="#61188E" stroke-width="1.8" fill="#59B16D" fill-rule="nonzero"></path>
                    <path d="M123.555,244.455 C123.1938,244.2234 122.8518,243.8094 122.5596,243.165 C122.1576,242.2794 121.8876,241.0368 121.785,239.4906 C121.6824,237.9492 121.7502,236.1594 121.9872,234.2232 C122.2236,232.2876 122.6244,230.2494 123.1668,228.2262 C123.7086,226.203 124.3812,224.2374 125.1438,222.4428 C125.9064,220.6476 126.7428,219.0636 127.6026,217.7796 C128.4642,216.492 129.3192,215.5512 130.11,214.9854 C130.6854,214.5732 131.1888,214.3854 131.6178,214.3662 L123.555,244.455 Z" id="è·¯å¾„" stroke="#61188E" stroke-width="1.8" fill="#59B16D" fill-rule="nonzero"></path>
                    <path d="M239.1672,1.1028 L218.082,25.9536 L244.1376,11.6454 L239.1672,1.1028 Z M250.2912,24.1014 L218.082,25.9728 L244.8876,13.7748 L250.2912,24.1014 Z" id="å½¢çŠ¶" fill="#FFFFFF"></path>
                    <path d="M218.0826,25.9536 L217.6212,25.5636 L218.3712,26.4816 L218.0826,25.9536 Z M239.1678,1.1028 L239.7126,0.846 L239.3124,0 L238.707,0.7134 L239.1678,1.1028 Z M244.1376,11.646 L244.4268,12.174 L244.9236,11.901 L244.683,11.3886 L244.1376,11.646 Z M218.0826,25.9728 L217.8324,25.4244 L218.1186,26.5746 L218.0826,25.9728 Z M250.2918,24.102 L250.3278,24.7032 L251.2584,24.6492 L250.8246,23.8224 L250.2918,24.102 Z M244.8876,13.7748 L245.421,13.4958 L245.1558,12.9906 L244.638,13.227 L244.8876,13.7748 Z M218.5434,26.3436 L239.6286,1.4928 L238.707,0.7134 L217.6212,25.5636 L218.5434,26.3436 Z M243.8484,11.1174 L217.7934,25.4256 L218.3712,26.4816 L244.4268,12.174 L243.8484,11.1174 Z M238.6224,1.3602 L243.5922,11.9028 L244.683,11.3886 L239.7126,0.846 L238.6224,1.3602 Z M218.1186,26.5746 L250.3278,24.7032 L250.2552,23.5002 L218.046,25.3716 L218.1186,26.5746 Z M244.638,13.227 L217.8324,25.4244 L218.3322,26.5212 L245.1348,14.3238 L244.638,13.227 Z M250.8246,23.8224 L245.421,13.4958 L244.3518,14.0544 L249.7584,24.381 L250.8246,23.8224 Z" id="å½¢çŠ¶" fill="#61188E" fill-rule="nonzero"></path>
                    <path d="M247.45174,13.1561931 L247.876812,13.109778 L248.260924,13.0734533 L248.686688,13.0375775 C248.761074,13.0316663 248.837161,13.0257969 248.914932,13.0199809 L249.153279,13.002704 C252.016658,12.8015802 255.423531,12.7715714 259.208378,13.0229793 L259.367447,10.6282566 C255.644866,10.3809847 252.272874,10.3979561 249.393143,10.5812907 L248.734781,10.6267517 L248.264701,10.664106 L247.83609,10.7024029 L247.243349,10.7639328 L247.14866,10.7754069 L247.45174,13.1561931 Z M270.906459,14.6790576 C274.783285,15.5366237 278.545445,16.6980621 282.147324,18.1931522 L283.067415,15.9765258 C279.33075,14.4254877 275.434557,13.2226713 271.424816,12.335704 L270.906459,14.6790576 Z M292.486152,23.7657965 C295.709846,25.972296 298.671364,28.518601 301.34445,31.423979 L303.110642,29.7989977 C300.312635,26.7578435 297.213081,24.0928544 293.841734,21.7852921 L292.486152,23.7657965 Z M308.263478,40.8827405 C310.150051,44.1568935 311.76699,47.7253922 313.099524,51.5993638 L315.369018,50.8187234 C313.987034,46.8009915 312.306709,43.0926023 310.342973,39.684532 L308.263478,40.8827405 Z M315.965608,63.0051677 C316.519921,66.7967625 316.64349,70.7046982 316.351647,74.722833 L318.745342,74.89669 C319.049548,70.7083235 318.920465,66.6259758 318.340365,62.65799 L315.965608,63.0051677 Z M314.434485,86.3572696 C313.507097,90.0422582 312.275448,93.7951221 310.752987,97.6093406 L312.98198,98.4990526 C314.542867,94.5885651 315.807685,90.7346377 316.761912,86.9430048 L314.434485,86.3572696 Z M305.766039,108.394202 C303.982117,111.803555 301.994154,115.240916 299.814183,118.700695 L301.84472,119.980116 C304.058015,116.467451 306.078014,112.974697 307.892529,109.506874 L305.766039,108.394202 Z M293.126884,128.566843 C290.835566,131.729808 288.40899,134.888096 285.859739,138.036044 L287.724862,139.546446 C290.300558,136.365842 292.753286,133.173518 295.070484,129.974827 L293.126884,128.566843 Z M278.120053,147.145374 C275.476216,150.118639 272.761481,153.042918 269.993303,155.910472 L271.720016,157.577344 C274.510438,154.686748 277.247414,151.73851 279.913555,148.740162 L278.120053,147.145374 Z M261.534509,164.342645 C258.487508,167.266824 255.542244,169.977198 252.752052,172.450288 L254.343978,174.246332 C257.157244,171.752789 260.12575,169.021027 263.196307,166.074242 L261.534509,164.342645 Z" id="è·¯å¾„" fill-opacity="0.4" fill="#FFFFFF" fill-rule="nonzero"></path>
                </g>
            </g>
        </g>
    </g>
</svg>