<?xml version="1.0" encoding="UTF-8"?>
<svg width="540px" height="360px" viewBox="0 0 540 360" version="1.1" xmlns="http://www.w3.org/2000/svg" xmlns:xlink="http://www.w3.org/1999/xlink">
    <title>理性</title>
    <defs>
        <linearGradient x1="49.8658297%" y1="22.2885044%" x2="49.8658297%" y2="82.5297759%" id="linearGradient-1">
            <stop stop-color="#E9ECFA" offset="0%"></stop>
            <stop stop-color="#DBDFEE" offset="100%"></stop>
        </linearGradient>
    </defs>
    <g id="📁设计师模式" stroke="none" stroke-width="1" fill="none" fill-rule="evenodd">
        <g id="概述-设计价值观" transform="translate(-720.000000, -781.000000)">
            <g id="理性" transform="translate(720.000000, 781.000000)">
                <polygon id="路径" fill="#69B8F8" fill-rule="nonzero" points="540 0 0 0 0 360 540 360"></polygon>
                <g id="编组-26" transform="translate(72.470000, 151.500000)" fill="#FFFFFF">
                    <g id="理性-2" transform="translate(1.244160, 0.000000)" fill-rule="nonzero">
                        <path d="M32.0179532,31.2 L32.0179532,27.6869565 L23.408374,27.6869565 L23.408374,24.4521739 L30.8423481,24.4521739 L30.8423481,21.0782609 L23.408374,21.0782609 L23.408374,17.8782609 L30.4274286,17.8782609 L30.4274286,1.00869565 L12.7241974,1.00869565 L12.7241974,17.8782609 L19.8124052,17.8782609 L19.8124052,21.0782609 L12.3438545,21.0782609 L12.3438545,24.4521739 L19.8124052,24.4521739 L19.8124052,27.6869565 L11.0299429,27.6869565 L11.0299429,31.2 L32.0179532,31.2 Z M0.898992208,27.8956522 C4.49496104,27.026087 7.88347013,25.9826087 11.0645195,24.7304348 L11.0645195,21.2173913 C9.99264416,21.6695652 8.92076883,22.0869565 7.81431688,22.4695652 L7.81431688,15.8956522 L11.1682494,15.8956522 L11.1682494,12.4173913 L7.81431688,12.4173913 L7.81431688,5.32173913 L11.5831688,5.32173913 L11.5831688,1.87826087 L0.345766234,1.87826087 L0.345766234,5.32173913 L4.14919481,5.32173913 L4.14919481,12.4173913 L0.864415584,12.4173913 L0.864415584,15.8956522 L4.14919481,15.8956522 L4.14919481,23.5478261 C2.80070649,23.8956522 1.41764156,24.173913 0,24.4173913 L0.898992208,27.8956522 Z M19.8124052,7.89565217 L16.1818597,7.89565217 L16.1818597,4.20869565 L19.8124052,4.20869565 L19.8124052,7.89565217 Z M26.9697662,7.89565217 L23.408374,7.89565217 L23.408374,4.20869565 L26.9697662,4.20869565 L26.9697662,7.89565217 Z M26.9697662,14.6782609 L23.408374,14.6782609 L23.408374,10.9913043 L26.9697662,10.9913043 L26.9697662,14.6782609 Z M19.8124052,14.6782609 L16.1818597,14.6782609 L16.1818597,10.9913043 L19.8124052,10.9913043 L19.8124052,14.6782609 Z M42.7021299,32 L42.7021299,7.06086957 C43.3590857,8.90434783 43.9123117,10.8521739 44.3963844,12.9043478 L45.7448727,12.5565217 C45.537413,12.973913 45.3299532,13.3913043 45.1224935,13.8434783 L47.8194701,16.2434783 C48.9259221,14.226087 49.7903377,12.0347826 50.4127169,9.66956522 L54.8385247,9.66956522 L54.8385247,17.0782609 L47.1970909,17.0782609 L47.1970909,20.626087 L54.8385247,20.626087 L54.8385247,27.6869565 L45.3645299,27.6869565 L45.3645299,31.2 L66.56,31.2 L66.56,27.6869565 L58.5036468,27.6869565 L58.5036468,20.626087 L65.3152416,20.626087 L65.3152416,17.0782609 L58.5036468,17.0782609 L58.5036468,9.66956522 L65.6264312,9.66956522 L65.6264312,6.15652174 L58.5036468,6.15652174 L58.5036468,0.0695652174 L54.8385247,0.0695652174 L54.8385247,6.15652174 L51.1042494,6.15652174 C51.2425558,5.04347826 51.3117091,3.93043478 51.3808623,2.74782609 L48.0960831,2.29565217 C47.9577766,5.07826087 47.4737039,7.68695652 46.6784416,10.1913043 C46.2289455,8.66086957 45.7448727,7.23478261 45.1916468,5.91304348 L42.7021299,6.71304348 L42.7021299,0 L39.0715844,0 L39.0715844,32 L42.7021299,32 Z M37.2044468,16.9043478 C37.826826,13.773913 38.2071688,10.4695652 38.2763221,6.99130435 L35.5101922,6.7826087 C35.4064623,10.0521739 34.9915429,13.1478261 34.3000104,16.0695652 L37.2044468,16.9043478 Z" id="理性"></path>
                    </g>
                    <text id="Rational" font-family="PingFangSC-Semibold, PingFang SC" font-size="17.92" font-weight="500">
                        <tspan x="0" y="50.50464">Rational</tspan>
                    </text>
                </g>
                <g id="编组-3" transform="translate(233.000000, 72.000000)">
                    <path d="M27.6015678,74.0738141 L20.3790226,65.7770276 L22.8472764,76.4962161 C23.3528367,77.4882814 24.8635628,77.8217487 26.1765905,77.1524322 C27.4890226,76.4837111 28.1071281,75.0652839 27.6015678,74.0738141 Z" id="路径" fill="#C44E26" fill-rule="nonzero"></path>
                    <path d="M20.3790226,65.7770276 L22.8472764,76.4962161 C23.3528367,77.4882814 24.8635628,77.8217487 26.1765905,77.1524322 C27.4890226,76.4837111 28.1071281,75.0652839 27.6015678,74.0738141 L20.3790226,65.7770276 Z M22.3345704,69.6148794 L23.8286231,76.1014146 C23.9262814,76.2294422 24.1120704,76.3610427 24.4187412,76.4241633 C24.7831734,76.498598 25.2488367,76.4527462 25.701995,76.221701 C26.1551533,75.9906558 26.465397,75.6411106 26.6196256,75.3022839 C26.7488442,75.0170503 26.7512261,74.7895779 26.7053744,74.6353492 L22.3345704,69.6148794 Z" id="形状" fill="#61188E"></path>
                    <path d="M280.469849,224.197236 C280.469849,217.126538 217.6845,211.394472 140.234925,211.394472 C62.7853492,211.394472 0,217.126538 0,224.197236 C0,231.267935 62.7853492,237 140.234925,237 C217.6845,237 280.469849,231.267935 280.469849,224.197236 Z" id="路径" fill="#6DAAFF" fill-rule="nonzero" opacity="0.343494234" style="mix-blend-mode: multiply;"></path>
                    <g id="编组">
                        <polygon id="路径" fill="#ADADD2" fill-rule="nonzero" points="95.5080226 8.72195729 274.748503 8.72195729 274.748503 190.57956 95.5080226 190.57956"></polygon>
                        <path d="M272.96207,10.5083894 L97.2944548,10.5083894 L97.2944548,188.793128 L272.96207,188.793128 L272.96207,10.5083894 Z M95.5080226,8.72195729 L95.5080226,190.57956 L274.748503,190.57956 L274.748503,8.72195729 L95.5080226,8.72195729 Z" id="形状" fill="#61188E"></path>
                        <polygon id="路径" fill="#FFFFFF" fill-rule="nonzero" points="85.913691 0 265.154171 0 265.154171 181.857603 85.913691 181.857603"></polygon>
                        <path d="M263.367739,1.78643216 L87.7001231,1.78643216 L87.7001231,180.071171 L263.367739,180.071171 L263.367739,1.78643216 Z M85.913691,0 L85.913691,181.857603 L265.154171,181.857603 L265.154171,0 L85.913691,0 Z" id="形状" fill="#61188E"></path>
                        <polygon id="路径" fill="#F1BB6E" fill-rule="nonzero" points="119.057962 68.9050704 232.009899 68.9050704 232.009899 181.857603 119.057962 181.857603"></polygon>
                        <path d="M230.223467,70.6915025 L120.844394,70.6915025 L120.844394,180.071171 L230.223467,180.071171 L230.223467,70.6915025 Z M119.057962,68.9050704 L119.057962,181.857603 L232.009899,181.857603 L232.009899,68.9050704 L119.057962,68.9050704 Z" id="形状" fill="#61188E"></path>
                        <path d="M246.837882,110.553354 C246.837882,149.933465 214.913744,181.857603 175.533633,181.857603 C136.154118,181.857603 104.22998,149.933465 104.22998,110.553354 C104.22998,71.1738392 136.154118,39.2497606 175.533633,39.2497606 C214.913744,39.2497606 246.837882,71.1738392 246.837882,110.553354 Z" id="路径" fill="#FFDEAF" fill-rule="nonzero"></path>
                        <path d="M175.533633,180.071171 C213.927038,180.071171 245.05145,148.946759 245.05145,110.553354 C245.05145,72.1599497 213.927038,41.0361927 175.533633,41.0361927 C137.140229,41.0361927 106.016412,72.1599497 106.016412,110.553354 C106.016412,148.946759 137.140229,180.071171 175.533633,180.071171 Z M175.533633,181.857603 C214.913744,181.857603 246.837882,149.933465 246.837882,110.553354 C246.837882,71.1738392 214.913744,39.2497606 175.533633,39.2497606 C136.154118,39.2497606 104.22998,71.1738392 104.22998,110.553354 C104.22998,149.933465 136.154118,181.857603 175.533633,181.857603 Z" id="形状" fill="#61188E"></path>
                        <path d="M164.645925,176.137447 C164.530997,177.757146 163.248339,179.049332 161.629236,179.175573 L161.629236,179.175573 C159.823153,179.316701 158.244543,177.967349 158.102819,176.160671 L157.313812,166.063756 C157.139932,163.841435 158.800719,161.898987 161.02304,161.725704 L161.02304,161.725704 C163.482957,161.533364 165.53795,163.57347 165.362879,166.035173 L164.645925,176.137447 Z" id="路径" fill="#626282" fill-rule="nonzero"></path>
                        <path d="M159.094884,165.924415 L159.883892,176.021925 C159.948204,176.844279 160.66754,177.458812 161.489894,177.3945 C162.227095,177.337334 162.811259,176.749003 162.863661,176.011206 L163.581211,165.908337 C163.678274,164.536357 162.533171,163.39959 161.161786,163.506776 C159.923193,163.603244 158.997822,164.685822 159.094884,165.924415 Z M161.629236,179.175573 C163.248339,179.049332 164.530997,177.757146 164.645925,176.137447 L165.362879,166.035173 C165.53795,163.57347 163.482957,161.533364 161.02304,161.725704 C158.800719,161.898987 157.139932,163.841435 157.313812,166.063756 L158.102819,176.160671 C158.244543,177.967349 159.823153,179.316701 161.629236,179.175573 Z" id="形状" fill="#61188E"></path>
                        <path d="M191.684766,176.137447 C191.569244,177.757146 190.286585,179.049332 188.668078,179.175573 L188.668078,179.175573 C186.861995,179.316701 185.282789,177.967349 185.141661,176.160671 L184.352653,166.063756 C184.178774,163.841435 185.83956,161.898987 188.061286,161.725704 L188.061286,161.725704 C190.521204,161.533364 192.576791,163.57347 192.401721,166.035173 L191.684766,176.137447 Z" id="路径" fill="#626282" fill-rule="nonzero"></path>
                        <path d="M186.133726,165.924415 L186.922734,176.021925 C186.987045,176.844279 187.706382,177.458812 188.528736,177.3945 C189.265937,177.337334 189.850101,176.749003 189.902503,176.011206 L190.620053,165.908337 C190.717116,164.536357 189.572013,163.39959 188.200628,163.506776 C186.962035,163.603244 186.036663,164.685822 186.133726,165.924415 Z M188.668078,179.175573 C190.286585,179.049332 191.569244,177.757146 191.684766,176.137447 L192.401721,166.035173 C192.576791,163.57347 190.521204,161.533364 188.061286,161.725704 C185.83956,161.898987 184.178774,163.841435 184.352653,166.063756 L185.141661,176.160671 C185.282789,177.967349 186.861995,179.316701 188.668078,179.175573 Z" id="形状" fill="#61188E"></path>
                        <path d="M194.463264,143.081902 C198.728073,132.463349 210.793636,127.311874 221.412188,131.576683 L221.412188,131.576683 C221.412188,131.576683 214.901239,141.706945 212.030442,148.812776 L212.030442,148.812776 C208.143166,158.435095 197.829497,164.491696 188.198842,160.623475 L187.527143,160.353724 L194.463264,143.081902 Z" id="路径" fill="#ADADD2" fill-rule="nonzero"></path>
                        <path d="M219.682327,130.968106 C220.262322,131.143771 220.839339,131.346829 221.412188,131.576683 C221.412188,131.576683 221.044779,132.148937 220.445729,133.116588 C218.522932,136.220812 214.218822,143.395719 212.030442,148.812776 C208.277148,158.103415 198.532756,164.069503 189.196862,160.988503 C188.863394,160.878339 188.530523,160.756862 188.198842,160.623475 L187.527143,160.353724 L194.463264,143.081902 C198.498219,133.036198 209.513955,127.884128 219.682327,130.968106 Z M218.699789,132.543143 C209.540156,130.018319 199.746339,134.721399 196.121073,143.747646 L189.864392,159.326525 C198.070666,161.953176 206.893259,156.759422 210.373824,148.14346 C211.85954,144.466982 214.258719,140.067 216.252972,136.632882 C217.19204,135.016161 218.050719,133.596543 218.699789,132.543143 Z" id="形状" fill="#61188E"></path>
                        <path d="M191.812794,121.044475 C190.168085,121.036138 188.841957,119.696314 188.850255,118.052201 L188.861013,115.92992 C188.869349,114.285807 190.209173,112.959083 191.853286,112.967381 L206.185832,113.040068 C209.531224,113.057337 212.229927,115.783432 212.213331,119.128824 L212.213331,119.128824 C212.207299,120.244153 211.298601,121.143324 210.183271,121.137989 L191.812794,121.044475 Z" id="路径" fill="#626282" fill-rule="nonzero"></path>
                        <path d="M190.647445,115.938852 L190.636708,118.061133 C190.633153,118.719136 191.163724,119.255065 191.821726,119.258043 L210.192799,119.351535 C210.320827,119.352128 210.425631,119.248515 210.426877,119.119892 C210.438731,116.760611 208.535585,114.839005 206.176899,114.8265 L191.844354,114.753839 C191.186947,114.750874 190.651018,115.281445 190.647445,115.938852 Z M188.850255,118.052201 C188.841957,119.696314 190.168085,121.036138 191.812794,121.044475 L210.183271,121.137989 C211.298601,121.143324 212.207299,120.244153 212.213331,119.128824 C212.229927,115.783432 209.531224,113.057337 206.185832,113.040068 L191.853286,112.967381 C190.209173,112.959083 188.869349,114.285807 188.861013,115.92992 L188.850255,118.052201 Z" id="形状" fill="#61188E"></path>
                        <path d="M195.021226,119.688573 C193.598035,120.512118 191.77647,120.025613 190.952925,118.602422 L189.889997,116.765374 C189.066452,115.342183 189.552957,113.520618 190.976148,112.697073 L203.381729,105.519784 C206.278131,103.844111 209.983786,104.833198 211.65946,107.729005 L211.65946,107.729005 C212.218018,108.694274 211.888123,109.929889 210.922854,110.488447 L195.021226,119.688573 Z" id="路径" fill="#626282" fill-rule="nonzero"></path>
                        <path d="M191.436452,115.870967 L192.499379,117.708015 C192.828678,118.277291 193.557543,118.471417 194.126819,118.142118 L210.027852,108.941992 C210.139206,108.877681 210.177317,108.735362 210.113005,108.624008 C208.931578,106.582116 206.318623,105.884216 204.276731,107.065643 L191.871151,114.243528 C191.301279,114.572827 191.107153,115.301691 191.436452,115.870967 Z M190.952925,118.602422 C191.77647,120.025613 193.598035,120.512118 195.021226,119.688573 L210.922854,110.488447 C211.888123,109.929889 212.218018,108.694274 211.65946,107.729005 C209.983786,104.833198 206.278131,103.844111 203.381729,105.519784 L190.976148,112.697073 C189.552957,113.520618 189.066452,115.342183 189.889997,116.765374 L190.952925,118.602422 Z" id="形状" fill="#61188E"></path>
                        <path d="M155.167116,121.536935 C156.811229,121.536935 158.144503,120.203661 158.144503,118.559548 L158.144503,116.365809 C158.144503,114.721101 156.811229,113.388422 155.167116,113.388422 L139.560844,113.388422 C136.185678,113.388422 133.44946,116.124641 133.44946,119.499807 L133.44946,119.499807 C133.44946,120.624663 134.361136,121.536935 135.486588,121.536935 L155.167116,121.536935 Z" id="路径" fill="#626282" fill-rule="nonzero"></path>
                        <path d="M156.35807,116.365809 L156.35807,118.559548 C156.35807,119.216955 155.824523,119.750503 155.167116,119.750503 L135.486588,119.750503 C135.347842,119.750503 135.235892,119.637957 135.235892,119.499807 C135.235892,117.110751 137.171789,115.174854 139.560844,115.174854 L155.167116,115.174854 C155.824523,115.174854 156.35807,115.707807 156.35807,116.365809 Z M158.144503,118.559548 C158.144503,120.203661 156.811229,121.536935 155.167116,121.536935 L135.486588,121.536935 C134.361136,121.536935 133.44946,120.624663 133.44946,119.499807 C133.44946,116.124641 136.185678,113.388422 139.560844,113.388422 L155.167116,113.388422 C156.811229,113.388422 158.144503,114.721101 158.144503,116.365809 L158.144503,118.559548 Z" id="形状" fill="#61188E"></path>
                        <path d="M153.129392,120.400764 C154.553774,121.223118 156.374744,120.735422 157.197098,119.31104 L158.293967,117.411467 C159.115726,115.987085 158.62803,114.166711 157.203648,113.344357 L143.688098,105.541221 C140.765495,103.853638 137.027683,104.854636 135.340101,107.777834 L135.340101,107.777834 C134.777374,108.752035 135.111437,109.998369 136.085638,110.5605 L153.129392,120.400764 Z" id="路径" fill="#626282" fill-rule="nonzero"></path>
                        <path d="M156.746322,116.518251 L155.650048,118.417824 C155.320749,118.987696 154.59248,119.183013 154.022608,118.853714 L136.978854,109.01345 C136.859163,108.944374 136.818075,108.790741 136.887151,108.67105 C138.081678,106.602362 140.726789,105.893744 142.794882,107.088271 L156.310432,114.891407 C156.880304,115.220111 157.075621,115.948379 156.746322,116.518251 Z M157.197098,119.31104 C156.374744,120.735422 154.553774,121.223118 153.129392,120.400764 L136.085638,110.5605 C135.111437,109.998369 134.777374,108.752035 135.340101,107.777834 C137.027683,104.854636 140.765495,103.853638 143.688098,105.541221 L157.203648,113.344357 C158.62803,114.166711 159.115726,115.987085 158.293967,117.411467 L157.197098,119.31104 Z" id="形状" fill="#61188E"></path>
                        <path d="M179.803802,109.463631 C185.528721,109.463631 190.658759,113.018035 192.429709,118.461889 C194.411457,124.551241 196.776098,132.556839 197.703256,138.611653 C198.398774,143.156932 198.847764,148.802058 199.135975,153.910063 C199.565314,161.525623 193.402123,167.759676 185.774653,167.759676 L161.657224,167.759676 C154.485889,167.759676 148.644256,161.991882 148.989038,154.82948 C149.245093,149.51544 149.732789,143.479681 150.656374,138.611653 C152.215334,130.392279 153.770721,124.696538 156.278276,117.940251 C158.201668,112.760193 163.250721,109.463631 168.776156,109.463631 L179.803802,109.463631 Z" id="路径" fill="url(#linearGradient-1)" fill-rule="nonzero"></path>
                        <path d="M161.657224,165.973244 L185.774653,165.973244 C192.424945,165.973244 197.721121,160.553209 197.35252,154.010698 C197.0655,148.919367 196.620083,143.342126 195.93707,138.882 C195.034327,132.983201 192.710774,125.097889 190.731407,119.014492 C189.210558,114.341781 184.792711,111.250063 179.803802,111.250063 L168.776156,111.250063 C163.948621,111.250063 159.599849,114.126814 157.953354,118.562525 C155.484505,125.212221 153.954128,130.809709 152.411246,138.944525 C151.51148,143.688693 151.027952,149.625603 150.773683,154.915229 C150.480709,160.993862 155.439844,165.973244 161.657224,165.973244 Z M192.429709,118.461889 C190.658759,113.018035 185.528721,109.463631 179.803802,109.463631 L168.776156,109.463631 C163.250721,109.463631 158.201668,112.760193 156.278276,117.940251 C153.770721,124.696538 152.215334,130.392279 150.656374,138.611653 C149.732789,143.479681 149.245093,149.51544 148.989038,154.82948 C148.644256,161.991882 154.485889,167.759676 161.657224,167.759676 L185.774653,167.759676 C193.402123,167.759676 199.565314,161.525623 199.135975,153.910063 C198.847764,148.802058 198.398774,143.156932 197.703256,138.611653 C196.776098,132.556839 194.411457,124.551241 192.429709,118.461889 Z" id="形状" fill="#61188E"></path>
                        <path d="M158.326123,144.07754 C158.326123,142.235133 159.81958,140.741676 161.661987,140.741676 L186.947148,140.741676 C188.789555,140.741676 190.283608,142.235133 190.283608,144.07754 L190.283608,144.07754 C190.283608,149.605357 185.802641,154.086324 180.274824,154.086324 L168.334312,154.086324 C162.80709,154.086324 158.326123,149.605357 158.326123,144.07754 L158.326123,144.07754 Z" id="路径" fill="#C44E26" fill-rule="nonzero"></path>
                        <path d="M186.947148,142.528108 L161.661987,142.528108 C160.806286,142.528108 160.112555,143.221839 160.112555,144.07754 C160.112555,148.618651 163.793796,152.299892 168.334312,152.299892 L180.274824,152.299892 C184.815935,152.299892 188.497176,148.618651 188.497176,144.07754 C188.497176,143.221839 187.803445,142.528108 186.947148,142.528108 Z M161.661987,140.741676 C159.81958,140.741676 158.326123,142.235133 158.326123,144.07754 C158.326123,149.605357 162.80709,154.086324 168.334312,154.086324 L180.274824,154.086324 C185.802641,154.086324 190.283608,149.605357 190.283608,144.07754 C190.283608,142.235133 188.789555,140.741676 186.947148,140.741676 L161.661987,140.741676 Z" id="形状" fill="#61188E"></path>
                        <path d="M215.971312,90.8239975 C218.210902,91.3212211 220.302219,92.338892 222.074955,93.7948342 C223.848286,95.2501809 225.253613,97.1033065 226.177794,99.2029598 C227.101975,101.303209 227.518214,103.591033 227.393163,105.881834 C227.268113,108.172636 226.605942,110.402103 225.459053,112.389211 L223.669643,111.356653 C224.654563,109.650611 225.223244,107.736151 225.33043,105.769289 C225.437616,103.802427 225.080329,101.837947 224.287153,100.034842 C223.493977,98.2317362 222.286945,96.6412161 220.764309,95.391309 C219.242269,94.141402 217.446309,93.2672412 215.523513,92.8408794 L215.971312,90.8239975 Z" id="路径" fill="#E9ECFA" fill-rule="nonzero"></path>
                        <path d="M214.500482,96.2005628 C215.915932,96.5149749 217.237892,97.1580905 218.359176,98.078103 C219.479864,98.9987111 220.368317,100.170015 220.95248,101.497334 C221.536048,102.824653 221.799249,104.271068 221.720646,105.719269 C221.641447,107.166874 221.222827,108.576369 220.498131,109.832231 L218.833176,108.871726 C219.407216,107.876683 219.738897,106.760759 219.801422,105.614465 C219.863947,104.467575 219.65553,103.322472 219.192844,102.271455 C218.730158,101.219842 218.026899,100.292683 217.139043,99.5638191 C216.251781,98.8355503 215.204932,98.3258216 214.083648,98.0769121 L214.500482,96.2005628 Z" id="路径" fill="#E9ECFA" fill-rule="nonzero"></path>
                        <path d="M134.628505,90.8239975 C132.388915,91.3212211 130.297598,92.338892 128.524266,93.7948342 C126.75153,95.2501809 125.345608,97.1033065 124.422023,99.2029598 C123.497842,101.303209 123.081603,103.591033 123.206653,105.881834 C123.331704,108.172636 123.993874,110.402103 125.140764,112.389211 L126.929578,111.356653 C125.945254,109.650611 125.376573,107.736151 125.269387,105.769289 C125.161606,103.802427 125.519487,101.837947 126.312663,100.034842 C127.105839,98.2317362 128.312872,96.6412161 129.834912,95.391309 C131.357548,94.141402 133.152912,93.2672412 135.076304,92.8408794 L134.628505,90.8239975 Z" id="路径" fill="#E9ECFA" fill-rule="nonzero"></path>
                        <path d="M136.099334,96.2005628 C134.683289,96.5149749 133.361925,97.1580905 132.240641,98.078103 C131.119952,98.9987111 130.2315,100.170015 129.647337,101.497334 C129.063173,102.824653 128.799972,104.271068 128.879171,105.719269 C128.958369,107.166874 129.37699,108.576369 130.101686,109.832231 L131.766641,108.871726 C131.192601,107.876683 130.86092,106.760759 130.798394,105.614465 C130.735869,104.467575 130.944286,103.322472 131.406972,102.271455 C131.869063,101.219842 132.572917,100.292683 133.460178,99.5638191 C134.348035,98.8355503 135.394884,98.3258216 136.515573,98.0769121 L136.099334,96.2005628 Z" id="路径" fill="#E9ECFA" fill-rule="nonzero"></path>
                        <path d="M79.3717764,167.669759 C79.3717764,172.215633 78.0349296,176.659085 75.5297563,180.43858 C73.0245829,184.218075 69.4642236,187.163902 65.2982638,188.903291 C61.132304,190.643276 56.5484977,191.098221 52.1261254,190.211555 C47.703753,189.324889 43.6415254,187.135915 40.4531608,183.921528 C37.2647962,180.707141 35.093507,176.612043 34.2138083,172.153704 C33.3341691,167.695364 33.7856005,163.073864 35.5111749,158.874558 C37.2366897,154.674656 40.1587568,151.085118 43.9078824,148.559698 C47.657008,146.034279 52.0647912,144.686118 56.5738055,144.686118 L56.5738055,167.669759 L79.3717764,167.669759 Z" id="路径" fill="#E9ECFA" fill-rule="nonzero"></path>
                        <path d="M56.5738055,167.669759 L56.5738055,144.686118 C55.9761249,144.686118 55.3802307,144.709937 54.7873734,144.75698 C50.9078382,145.064246 47.1600226,146.368937 43.9078824,148.559698 C40.1587568,151.085118 37.2366897,154.674656 35.5111749,158.874558 C33.7856005,163.073864 33.3341691,167.695364 34.2138083,172.153704 C35.093507,176.612043 37.2647962,180.707141 40.4531608,183.921528 C43.6415254,187.135915 47.703753,189.324889 52.1261254,190.211555 C56.5484977,191.098221 61.132304,190.643276 65.2982638,188.903291 C69.4642236,187.163902 73.0245829,184.218075 75.5297563,180.43858 C77.7056307,177.155714 79.0001985,173.372646 79.302701,169.456191 C79.3485528,168.863095 79.3717764,168.267618 79.3717764,167.669759 L56.5738055,167.669759 Z M77.5109095,169.456191 L54.7873734,169.456191 L54.7873734,146.549367 C51.2645887,146.852465 47.8634601,148.049367 44.9059621,150.041246 C41.4507641,152.368967 38.7556334,155.678631 37.1635651,159.553402 C35.5713776,163.428173 35.154603,167.692982 35.9664769,171.807731 C36.7782912,175.92248 38.7818344,179.699593 41.7214681,182.663284 C44.6609231,185.626975 48.4042726,187.643261 52.4773379,188.459661 C56.5503437,189.276656 60.7720402,188.85744 64.609892,187.25501 C68.4477437,185.65258 71.7300151,182.937799 74.0404673,179.451874 C76.0222161,176.461982 77.2119799,173.021314 77.5109095,169.456191 Z" id="形状" fill="#61188E"></path>
                        <polygon id="路径" fill="#61188E" fill-rule="nonzero" points="53.6470937 136.080874 57.5152553 132.577085 61.0191633 136.445307 57.1511209 139.949095"></polygon>
                        <polygon id="路径" fill="#61188E" fill-rule="nonzero" points="21.8054291 163.738417 25.6735312 160.234628 29.1775583 164.102849 25.3094563 167.606638"></polygon>
                        <polygon id="路径" fill="#61188E" points="58.2435837 136.487585 25.7198593 165.241997 24.5366457 163.90396 57.0603106 135.148952"></polygon>
                        <path d="M189.492219,165.510558 C188.90091,163.976013 189.665503,162.252701 191.199452,161.661392 L192.23201,161.263018 C193.76596,160.671709 195.489271,161.436302 196.081176,162.970251 L199.030575,170.622136 C200.082784,173.351209 198.723309,176.416131 195.994236,177.468339 L195.994236,177.468339 C195.084347,177.819075 194.063103,177.365917 193.712367,176.456028 L189.492219,165.510558 Z" id="路径" fill="#626282" fill-rule="nonzero"></path>
                        <path d="M192.87453,162.930354 L191.841972,163.328133 C191.228631,163.564538 190.922555,164.254101 191.159555,164.868038 L195.371367,175.793857 C197.166731,175.089407 198.058756,173.06657 197.363834,171.264656 L194.414435,163.612771 C194.177435,162.99943 193.488467,162.693354 192.87453,162.930354 Z M191.199452,161.661392 C189.665503,162.252701 188.90091,163.976013 189.492219,165.510558 L193.712367,176.456028 C194.063103,177.365917 195.084347,177.819075 195.994236,177.468339 C198.723309,176.416131 200.082784,173.351209 199.030575,170.622136 L196.081176,162.970251 C195.489271,161.436302 193.76596,160.671709 192.23201,161.263018 L191.199452,161.661392 Z" id="形状" fill="#61188E"></path>
                        <path d="M161.887078,165.546286 C162.478387,164.011741 161.714389,162.28843 160.179844,161.697121 L159.147286,161.299342 C157.613337,160.707437 155.890025,161.47203 155.298716,163.00598 L152.362417,170.622136 C151.310804,173.351209 152.670279,176.416131 155.399352,177.468339 L155.399352,177.468339 C156.308646,177.819075 157.330485,177.365917 157.681221,176.456028 L161.887078,165.546286 Z" id="路径" fill="#626282" fill-rule="nonzero"></path>
                        <path d="M158.504766,162.966083 L159.537324,163.363862 C160.151261,163.600266 160.456741,164.289829 160.220337,164.903766 L156.022221,175.793857 C154.226857,175.089407 153.334832,173.06657 154.029158,171.264656 L156.965457,163.6485 C157.201862,163.035158 157.891425,162.729083 158.504766,162.966083 Z M160.179844,161.697121 C161.714389,162.28843 162.478387,164.011741 161.887078,165.546286 L157.681221,176.456028 C157.330485,177.365917 156.308646,177.819075 155.399352,177.468339 C152.670279,176.416131 151.310804,173.351209 152.362417,170.622136 L155.298716,163.00598 C155.890025,161.47203 157.613337,160.707437 159.147286,161.299342 L160.179844,161.697121 Z" id="形状" fill="#61188E"></path>
                        <polygon id="路径" fill="#E9E4FD" fill-rule="nonzero" points="0 23.9860078 100.741078 23.9860078 100.741078 131.268822 0 131.268822"></polygon>
                        <path d="M98.9546457,25.7724399 L1.78643216,25.7724399 L1.78643216,129.482389 L98.9546457,129.482389 L98.9546457,25.7724399 Z M0,23.9860078 L0,131.268822 L100.741078,131.268822 L100.741078,23.9860078 L0,23.9860078 Z" id="形状" fill="#61188E"></path>
                        <path d="M4.79718369,34.1163286 C4.79718369,31.4668711 6.94499322,29.3191033 9.59439121,29.3191033 L90.7108568,29.3191033 C93.3601357,29.3191033 95.5080226,31.4668711 95.5080226,34.1163286 L95.5080226,34.1163286 C95.5080226,36.7657266 93.3601357,38.9134945 90.7108568,38.9134945 L9.59439121,38.9134945 C6.94499322,38.9134945 4.79718369,36.7657266 4.79718369,34.1163286 L4.79718369,34.1163286 Z" id="路径" fill="#FC7777" fill-rule="nonzero"></path>
                        <path d="M90.7108568,31.1055354 L9.59439121,31.1055354 C7.93158015,31.1055354 6.58359799,32.4535176 6.58359799,34.1163286 C6.58359799,35.7791397 7.93158015,37.1270623 9.59439121,37.1270623 L90.7108568,37.1270623 C92.3734296,37.1270623 93.7215905,35.7791397 93.7215905,34.1163286 C93.7215905,32.4535176 92.3734296,31.1055354 90.7108568,31.1055354 Z M9.59439121,29.3191033 C6.94499322,29.3191033 4.79718369,31.4668711 4.79718369,34.1163286 C4.79718369,36.7657266 6.94499322,38.9134945 9.59439121,38.9134945 L90.7108568,38.9134945 C93.3601357,38.9134945 95.5080226,36.7657266 95.5080226,34.1163286 C95.5080226,31.4668711 93.3601357,29.3191033 90.7108568,29.3191033 L9.59439121,29.3191033 Z" id="形状" fill="#61188E"></path>
                        <polygon id="路径" fill="#FFF8F8" fill-rule="nonzero" points="7.8499402 50.1527133 39.2498201 50.1527133 39.2498201 81.5524146 7.8499402 81.5524146"></polygon>
                        <path d="M37.4633879,51.9391455 L9.63637236,51.9391455 L9.63637236,79.7659824 L37.4633879,79.7659824 L37.4633879,51.9391455 Z M7.8499402,50.1527133 L7.8499402,81.5524146 L39.2498201,81.5524146 L39.2498201,50.1527133 L7.8499402,50.1527133 Z" id="形状" fill="#61188E"></path>
                        <path d="M50.1525347,52.3332324 C50.1525347,51.1289389 51.1288198,50.1527133 52.3331133,50.1527133 L89.402593,50.1527133 C90.6066482,50.1527133 91.5826357,51.1289389 91.5826357,52.3332324 L91.5826357,52.3332324 C91.5826357,53.5375259 90.6066482,54.5137515 89.402593,54.5137515 L52.3331133,54.5137515 C51.1288198,54.5137515 50.1525347,53.5375259 50.1525347,52.3332324 L50.1525347,52.3332324 Z" id="路径" fill="#FFFFFF" fill-rule="nonzero"></path>
                        <path d="M50.1525347,65.8526533 C50.1525347,64.6480025 51.1288198,63.6720151 52.3331133,63.6720151 L89.402593,63.6720151 C90.6066482,63.6720151 91.5826357,64.6480025 91.5826357,65.8526533 L91.5826357,65.8526533 C91.5826357,67.0567085 90.6066482,68.032696 89.402593,68.032696 L52.3331133,68.032696 C51.1288198,68.032696 50.1525347,67.0567085 50.1525347,65.8526533 L50.1525347,65.8526533 Z" id="路径" fill="#FFFFFF" fill-rule="nonzero"></path>
                        <path d="M50.1525347,79.3717764 C50.1525347,78.1677211 51.1288198,77.1911382 52.3331133,77.1911382 L89.402593,77.1911382 C90.6066482,77.1911382 91.5826357,78.1677211 91.5826357,79.3717764 L91.5826357,79.3717764 C91.5826357,80.5764271 90.6066482,81.5524146 89.402593,81.5524146 L52.3331133,81.5524146 C51.1288198,81.5524146 50.1525347,80.5764271 50.1525347,79.3717764 L50.1525347,79.3717764 Z" id="路径" fill="#FFFFFF" fill-rule="nonzero"></path>
                        <path d="M29.8336553,58.1851078 C30.1459236,57.6227985 30.8225646,57.3735317 31.4249495,57.5988603 L31.4249495,57.5988603 C32.0971244,57.8503304 32.4381543,58.5990241 32.1866842,59.2711394 L30.7810598,63.028304 C30.4717093,63.8554221 29.5506249,64.2752337 28.7236854,63.9655854 L28.7236854,63.9655854 C27.8083176,63.6231859 27.4117892,62.5471583 27.886206,61.6926482 L29.8336553,58.1851078 Z" id="路径" fill="#626282" fill-rule="nonzero"></path>
                        <path d="M29.8026309,62.6626809 L31.2082553,58.9050995 C31.2575608,58.7733799 31.1906887,58.6265947 31.0589095,58.5773487 C30.9408264,58.5331643 30.8082136,58.5819935 30.7469985,58.6922163 L28.7995492,62.1993995 C28.6351379,62.4953518 28.7725741,62.8687161 29.0897254,62.9872161 C29.3762691,63.094402 29.695445,62.9491055 29.8026309,62.6626809 Z M31.4249495,57.5988603 C30.8225646,57.3735317 30.1459236,57.6227985 29.8336553,58.1851078 L27.886206,61.6926482 C27.4117892,62.5471583 27.8083176,63.6231859 28.7236854,63.9655854 C29.5506249,64.2752337 30.4717093,63.8554221 30.7810598,63.028304 L32.1866842,59.2711394 C32.4381543,58.5990241 32.0971244,57.8503304 31.4249495,57.5988603 Z" id="形状" fill="#61188E"></path>
                        <path d="M10.1640996,70.5080955 C10.1987412,66.6476156 13.0970487,63.4147688 16.930494,62.9610151 L23.1079168,62.2291734 L27.9593307,61.6622789 C32.3147714,61.1537412 36.1295781,64.5795226 36.0904553,68.9646181 L36.0904553,68.9646181 C36.0546075,72.9882588 32.7635231,76.2211055 28.7395847,76.1853769 L15.6268153,76.0686633 C12.582854,76.0412714 10.1372284,73.5515804 10.1640996,70.5080955 L10.1640996,70.5080955 Z" id="路径" fill="#FFFFFF" fill-rule="nonzero"></path>
                        <path d="M15.6361643,75.024196 L28.7488741,75.1409095 C32.1958545,75.1712789 35.0151422,72.402309 35.0458688,68.9550905 C35.0793347,65.1988191 31.8114739,62.2643065 28.0805103,62.700196 L17.0534005,63.9983367 C13.7421889,64.3907563 11.2386829,67.1829497 11.2087877,70.5170276 C11.1869955,72.9840905 13.1691015,75.0021633 15.6361643,75.024196 Z M23.1079168,62.2291734 L16.930494,62.9610151 C13.0970487,63.4147688 10.1987412,66.6476156 10.1640996,70.5080955 C10.1372284,73.5515804 12.582854,76.0412714 15.6268153,76.0686633 L28.7395847,76.1853769 C32.7635231,76.2211055 36.0546075,72.9882588 36.0904553,68.9646181 C36.1295781,64.5795226 32.3147714,61.1537412 27.9593307,61.6622789 L23.1079168,62.2291734 Z" id="形状" fill="#61188E"></path>
                        <path d="M30.7244894,67.5700101 C30.2554915,68.8455226 28.9371641,69.5350854 27.7799133,69.1099146 C26.6226626,68.6841482 26.0647003,67.3050226 26.5337578,66.0295101 C27.0027558,64.753402 28.3210832,64.0638392 29.4783339,64.4890101 C30.6355847,64.9147764 31.1934874,66.293902 30.7244894,67.5700101 Z" id="路径" fill="#FFFFFF" fill-rule="nonzero"></path>
                        <path d="M28.1403558,68.1291633 C28.6681869,68.3232889 29.4401043,68.0362688 29.7439764,67.2091508 C30.0478485,66.3826281 29.6457226,65.6638869 29.1178915,65.4697613 C28.5900603,65.2756357 27.818143,65.5632513 27.5142709,66.3897739 C27.2103987,67.2162965 27.6124651,67.9350377 28.1403558,68.1291633 Z M27.7799133,69.1099146 C28.9371641,69.5350854 30.2554915,68.8455226 30.7244894,67.5700101 C31.1934874,66.293902 30.6355847,64.9147764 29.4783339,64.4890101 C28.3210832,64.0638392 27.0027558,64.753402 26.5337578,66.0295101 C26.0647003,67.3050226 26.6226626,68.6841482 27.7799133,69.1099146 Z" id="形状" fill="#61188E"></path>
                        <path d="M29.4283734,66.5404296 C29.4211681,67.3496834 28.7596523,67.9993492 27.9508749,67.9922035 C27.1420379,67.9850578 26.4921935,67.3234824 26.4994583,66.5148241 C26.5066636,65.7055704 27.1681794,65.0559045 27.9769568,65.0630503 C28.7857937,65.070196 29.4355786,65.7317714 29.4283734,66.5404296 Z" id="路径" fill="#342E2E" fill-rule="nonzero"></path>
                        <path d="M13.7657103,73.4610678 C13.7631497,73.746897 13.5290676,73.9773467 13.2428812,73.9743693 C12.9566947,73.9719874 12.7267809,73.7379648 12.7292819,73.4515402 C12.7318425,73.1657111 12.9659246,72.9352613 13.2521111,72.9382387 C13.538357,72.9406206 13.7682709,73.1746432 13.7657103,73.4610678 Z" id="路径" fill="#61188E" fill-rule="nonzero"></path>
                        <path d="M34.666252,58.675007 C34.9785204,58.1126977 35.6551613,57.8634309 36.2575462,58.0888191 L36.2575462,58.0888191 C36.9296616,58.3402296 37.270751,59.0889234 37.0192809,59.7609196 L35.6136565,63.5183819 C35.304306,64.3455 34.3831621,64.7647161 33.5562822,64.4556633 L33.5562822,64.4556633 C32.6409143,64.1132638 32.2443859,63.0366407 32.7188028,62.1821307 L34.666252,58.675007 Z" id="路径" fill="#626282" fill-rule="nonzero"></path>
                        <path d="M34.6351681,63.1527588 L36.040852,59.3950583 C36.090098,59.2632791 36.0232854,59.1165535 35.8915063,59.067248 C35.7734231,59.0230636 35.6408103,59.0719523 35.5795952,59.1821751 L33.632146,62.6894774 C33.4677347,62.9854296 33.6051709,63.358794 33.9223221,63.477294 C34.2088658,63.5844799 34.5279822,63.4391834 34.6351681,63.1527588 Z M36.2575462,58.0888191 C35.6551613,57.8634309 34.9785204,58.1126977 34.666252,58.675007 L32.7188028,62.1821307 C32.2443859,63.0366407 32.6409143,64.1132638 33.5562822,64.4556633 C34.3831621,64.7647161 35.304306,64.3455 35.6136565,63.5183819 L37.0192809,59.7609196 C37.270751,59.0889234 36.9296616,58.3402296 36.2575462,58.0888191 Z" id="形状" fill="#61188E"></path>
                        <path d="M27.6015083,61.5687889 L20.3789631,53.2721812 L22.8475741,63.991191 C23.3530153,64.9832563 24.8635628,65.3167236 26.1763523,64.647407 C27.4890822,63.9786859 28.1069495,62.5602588 27.6015083,61.5687889 Z" id="路径" fill="#C44E26" fill-rule="nonzero"></path>
                        <path d="M20.3789631,53.2721812 L22.8475741,63.991191 C23.3530153,64.9832563 24.8635628,65.3167236 26.1763523,64.647407 C27.4890822,63.9786859 28.1069495,62.5602588 27.6015083,61.5687889 L20.3789631,53.2721812 Z M22.3348085,57.1098543 L23.8285636,63.5963894 C23.9265791,63.7244171 24.1120704,63.8560176 24.418503,63.9191382 C24.7831734,63.9935729 25.2485985,63.9477211 25.701995,63.7166759 C26.1553915,63.4856307 26.4656947,63.1360854 26.6196256,62.7972588 C26.7490229,62.5120251 26.7513452,62.2845528 26.7052553,62.1303241 L22.3348085,57.1098543 Z" id="形状" fill="#61188E"></path>
                        <path d="M91.5826357,9.37638693 C91.5826357,6.60652387 93.8281809,4.3611156 96.5983417,4.3611156 L173.78948,4.3611156 C176.559045,4.3611156 178.80459,6.60652387 178.80459,9.37638693 L178.80459,9.37638693 C178.80459,12.1461905 176.559045,14.3916166 173.78948,14.3916166 L96.5983417,14.3916166 C93.8281809,14.3916166 91.5826357,12.1461905 91.5826357,9.37638693 L91.5826357,9.37638693 Z" id="路径" fill="#E9ECFA" fill-rule="nonzero"></path>
                        <path d="M173.78948,6.1475299 L96.5983417,6.1475299 C94.8148869,6.1475299 93.3690678,7.5931108 93.3690678,9.37638693 C93.3690678,11.1596035 94.8148869,12.6051844 96.5983417,12.6051844 L173.78948,12.6051844 C175.572339,12.6051844 177.018158,11.1596035 177.018158,9.37638693 C177.018158,7.59317035 175.572339,6.1475299 173.78948,6.1475299 Z M96.5983417,4.3611156 C93.8281809,4.3611156 91.5826357,6.60652387 91.5826357,9.37638693 C91.5826357,12.1461905 93.8281809,14.3916166 96.5983417,14.3916166 L173.78948,14.3916166 C176.559045,14.3916166 178.80459,12.1461905 178.80459,9.37638693 C178.80459,6.60652387 176.559045,4.3611156 173.78948,4.3611156 L96.5983417,4.3611156 Z" id="形状" fill="#61188E"></path>
                        <path d="M100.741078,9.37656558 C100.741078,10.7012646 99.6674322,11.7751485 98.342495,11.7751485 C97.0181533,11.7751485 95.9439121,10.7012646 95.9439121,9.37656558 C95.9439121,8.05186658 97.0181533,6.97798266 98.342495,6.97798266 C99.6674322,6.97798266 100.741078,8.05186658 100.741078,9.37656558 Z" id="路径" fill="#FC7777" fill-rule="nonzero"></path>
                        <path d="M108.591256,9.37656558 C108.591256,10.7012646 107.419357,11.7751485 105.974729,11.7751485 C104.529505,11.7751485 103.357606,10.7012646 103.357606,9.37656558 C103.357606,8.05186658 104.529505,6.97798266 105.974729,6.97798266 C107.419357,6.97798266 108.591256,8.05186658 108.591256,9.37656558 Z" id="路径" fill="#FCB777" fill-rule="nonzero"></path>
                        <path d="M116.00495,9.37656558 C116.00495,10.7012646 114.931304,11.7751485 113.606367,11.7751485 C112.28143,11.7751485 111.207784,10.7012646 111.207784,9.37656558 C111.207784,8.05186658 112.28143,6.97798266 113.606367,6.97798266 C114.931304,6.97798266 116.00495,8.05186658 116.00495,9.37656558 Z" id="路径" fill="#79D57D" fill-rule="nonzero"></path>
                        <path d="M184.493781,79.2223116 C185.10891,78.1153191 186.441588,77.6240503 187.627779,78.0676809 L187.627779,78.0676809 C188.951525,78.5631181 189.623224,80.0375201 189.127786,81.3612663 L186.359412,88.7612638 C185.750239,90.3898945 183.936415,91.2158216 182.307784,90.6066482 L182.307784,90.6066482 C180.505274,89.9325678 179.724008,87.8126683 180.658312,86.1298492 L184.493781,79.2223116 Z" id="路径" fill="#626282" fill-rule="nonzero"></path>
                        <path d="M184.686716,88.1354171 L187.454495,80.7354196 C187.60396,80.3358543 187.401497,79.8904372 187.001932,79.7409724 C186.643455,79.6069899 186.241508,79.7552638 186.055719,80.0899221 L182.220249,86.9968643 C181.81592,87.7251332 182.154151,88.6415729 182.933631,88.9333568 C183.63808,89.1971533 184.42292,88.8398668 184.686716,88.1354171 Z M187.627779,78.0676809 C186.441588,77.6240503 185.10891,78.1153191 184.493781,79.2223116 L180.658312,86.1298492 C179.724008,87.8126683 180.505274,89.9325678 182.307784,90.6066482 C183.936415,91.2158216 185.750239,90.3898945 186.359412,88.7612638 L189.127786,81.3612663 C189.623224,80.0375201 188.951525,78.5631181 187.627779,78.0676809 Z" id="形状" fill="#61188E"></path>
                        <path d="M145.756939,103.491588 C145.824671,95.8891281 151.532917,89.5228794 159.082379,88.6284724 L171.247982,87.1868216 L186.232575,85.4367136 C191.927721,84.7721608 196.916035,89.2513417 196.865215,94.9851935 L196.773121,105.273256 C196.726078,110.53549 192.422563,114.762784 187.160925,114.715741 L156.514681,114.442417 C150.52001,114.38942 145.703789,109.486259 145.756939,103.491588 L145.756939,103.491588 Z" id="路径" fill="#FFFFFF" fill-rule="nonzero"></path>
                        <path d="M194.986688,105.257774 L195.078711,94.9691156 C195.120075,90.310696 191.066661,86.6711382 186.439802,87.2112362 L159.292583,90.4023995 C152.635741,91.1908116 147.603362,96.8043769 147.54285,103.50707 C147.498558,108.515631 151.522794,112.61192 156.530759,112.65658 L187.177003,112.929309 C191.451935,112.96742 194.948578,109.532706 194.986688,105.257774 Z M171.247982,87.1868216 L159.082379,88.6284724 C151.532917,89.5228794 145.824671,95.8891281 145.756939,103.491588 C145.703789,109.486259 150.52001,114.38942 156.514681,114.442417 L187.160925,114.715741 C192.422563,114.762784 196.726078,110.53549 196.773121,105.273256 L196.865215,94.9851935 C196.916035,89.2513417 191.927721,84.7721608 186.232575,85.4367136 L171.247982,87.1868216 Z" id="形状" fill="#61188E"></path>
                        <path d="M152.849518,109.30702 C152.844754,109.870342 152.383854,110.3235 151.819937,110.318141 C151.256616,110.313377 150.803457,109.852477 150.808817,109.28856 C150.81358,108.725239 151.27448,108.27208 151.838397,108.27744 C152.401719,108.282204 152.854877,108.743103 152.849518,109.30702 Z" id="路径" fill="#61188E" fill-rule="nonzero"></path>
                        <path d="M194.011296,80.1875804 C194.625829,79.0799925 195.958508,78.5893191 197.145294,79.0329497 L197.145294,79.0329497 C198.468445,79.5283869 199.140143,81.0027889 198.645302,82.3265352 L195.876927,89.7259372 C195.267754,91.3545678 193.45393,92.1810905 191.825299,91.5719171 L191.825299,91.5719171 C190.022193,90.8972412 189.241523,88.7773417 190.175827,87.0945226 L194.011296,80.1875804 Z" id="路径" fill="#626282" fill-rule="nonzero"></path>
                        <path d="M194.203636,89.1000905 L196.97201,81.7006884 C197.121475,81.3005276 196.919013,80.855706 196.518852,80.7062412 C196.16097,80.5722588 195.758427,80.7205327 195.573234,81.0545955 L191.737764,87.9621332 C191.333435,88.6898065 191.67107,89.6068417 192.451146,89.8986256 C193.155595,90.1624221 193.940435,89.8045402 194.203636,89.1000905 Z M197.145294,79.0329497 C195.958508,78.5893191 194.625829,79.0799925 194.011296,80.1875804 L190.175827,87.0945226 C189.241523,88.7773417 190.022193,90.8972412 191.825299,91.5719171 C193.45393,92.1810905 195.267754,91.3545678 195.876927,89.7259372 L198.645302,82.3265352 C199.140143,81.0027889 198.468445,79.5283869 197.145294,79.0329497 Z" id="形状" fill="#61188E"></path>
                        <path d="M180.097967,85.8857035 L165.873799,69.5463995 L170.735276,90.6566683 C171.730915,92.6104296 174.70592,93.2666457 177.290887,91.9494497 C179.87645,90.6316583 181.093606,87.8388693 180.097967,85.8857035 Z" id="路径" fill="#C44E26" fill-rule="nonzero"></path>
                        <path d="M165.873799,69.5463995 L170.735276,90.6566683 C171.730915,92.6104296 174.70592,93.2666457 177.290887,91.9494497 C179.87645,90.6316583 181.093606,87.8388693 180.097967,85.8857035 L165.873799,69.5463995 Z M169.218595,76.1091558 L172.415714,89.9933065 C172.646759,90.3255829 173.086221,90.638804 173.775188,90.7793367 C174.555264,90.9389246 175.534229,90.8394799 176.479847,90.3577387 C177.425465,89.8759975 178.081681,89.1423693 178.41098,88.4170779 C178.701573,87.7769397 178.706337,87.2374372 178.573545,86.8551407 L169.218595,76.1091558 Z" id="形状" fill="#61188E"></path>
                        <path d="M184.918952,93.5602161 L185.977711,94.9988894 L183.493379,96.8276005 C183.709538,96.8371281 183.920337,96.8508241 184.116844,96.8698794 C184.973141,96.9538417 186.011653,97.1848869 186.807807,97.3849673 C187.212136,97.486794 187.565254,97.5832613 187.818332,97.6547186 C187.944573,97.6904472 188.045804,97.7196256 188.116666,97.7404673 C188.151799,97.7505905 188.179191,97.7589271 188.198246,97.7648819 L188.219683,97.7714322 L188.228616,97.7738141 C188.228616,97.7738141 188.228616,97.7738141 187.969583,98.6289196 C187.711146,99.4834296 187.711146,99.4834296 187.711146,99.4834296 L187.705786,99.4822387 L187.687327,99.4768794 C187.671249,99.4715201 187.646239,99.4643744 187.613487,99.4548467 C187.54858,99.4357915 187.452709,99.407804 187.333018,99.3738618 C187.092445,99.3065729 186.756,99.2142739 186.371917,99.1178065 C185.591842,98.921299 184.660515,98.7176457 183.94356,98.6479749 C183.357015,98.590809 182.574558,98.5890226 181.914769,98.604505 C181.589638,98.6122462 181.303809,98.6241558 181.098965,98.6336834 C180.996543,98.6384472 180.914962,98.6426156 180.859583,98.645593 L180.796462,98.6491658 L180.780384,98.6503568 L180.776216,98.6503568 L177.747618,98.8385276 L184.918952,93.5602161 Z" id="路径" fill="#61188E"></path>
                        <path d="M34.8887224,108.155367 C34.8887224,113.453925 30.5931271,117.749698 25.2942716,117.749698 C19.9954756,117.749698 15.6998804,113.453925 15.6998804,108.155367 C15.6998804,102.856214 19.9954756,98.5610352 25.2942716,98.5610352 C30.5931271,98.5610352 34.8887224,102.856214 34.8887224,108.155367 Z" id="路径" fill="#FFFFFF" fill-rule="nonzero"></path>
                        <path d="M25.2942716,115.963266 C29.6065402,115.963266 33.1022902,112.467219 33.1022902,108.155367 C33.1022902,103.84292 29.6065402,100.347467 25.2942716,100.347467 C20.9820626,100.347467 17.4863126,103.84292 17.4863126,108.155367 C17.4863126,112.467219 20.9820626,115.963266 25.2942716,115.963266 Z M25.2942716,117.749698 C30.5931271,117.749698 34.8887224,113.453925 34.8887224,108.155367 C34.8887224,102.856214 30.5931271,98.5610352 25.2942716,98.5610352 C19.9954756,98.5610352 15.6998804,102.856214 15.6998804,108.155367 C15.6998804,113.453925 19.9954756,117.749698 25.2942716,117.749698 Z" id="形状" fill="#61188E"></path>
                        <path d="M60.1831131,108.155367 C60.1831131,113.453925 55.8874583,117.749698 50.5886623,117.749698 C45.2898068,117.749698 40.9942711,113.453925 40.9942711,108.155367 C40.9942711,102.856214 45.2898068,98.5610352 50.5886623,98.5610352 C55.8874583,98.5610352 60.1831131,102.856214 60.1831131,108.155367 Z" id="路径" fill="#FFFFFF" fill-rule="nonzero"></path>
                        <path d="M50.5886623,115.963266 C54.9008714,115.963266 58.3966214,112.467219 58.3966214,108.155367 C58.3966214,103.84292 54.9008714,100.347467 50.5886623,100.347467 C46.2763937,100.347467 42.7807033,103.84292 42.7807033,108.155367 C42.7807033,112.467219 46.2763937,115.963266 50.5886623,115.963266 Z M50.5886623,117.749698 C55.8874583,117.749698 60.1831131,113.453925 60.1831131,108.155367 C60.1831131,102.856214 55.8874583,98.5610352 50.5886623,98.5610352 C45.2898068,98.5610352 40.9942711,102.856214 40.9942711,108.155367 C40.9942711,113.453925 45.2898068,117.749698 50.5886623,117.749698 Z" id="形状" fill="#61188E"></path>
                        <path d="M85.477206,108.155367 C85.477206,113.453925 81.1820276,117.749698 75.8828744,117.749698 C70.5843166,117.749698 66.2885427,113.453925 66.2885427,108.155367 C66.2885427,102.856214 70.5843166,98.5610352 75.8828744,98.5610352 C81.1820276,98.5610352 85.477206,102.856214 85.477206,108.155367 Z" id="路径" fill="#FFFFFF" fill-rule="nonzero"></path>
                        <path d="M75.8828744,115.963266 C80.1953216,115.963266 83.6907739,112.467219 83.6907739,108.155367 C83.6907739,103.84292 80.1953216,100.347467 75.8828744,100.347467 C71.5710226,100.347467 68.0749749,103.84292 68.0749749,108.155367 C68.0749749,112.467219 71.5710226,115.963266 75.8828744,115.963266 Z M75.8828744,117.749698 C81.1820276,117.749698 85.477206,113.453925 85.477206,108.155367 C85.477206,102.856214 81.1820276,98.5610352 75.8828744,98.5610352 C70.5843166,98.5610352 66.2885427,102.856214 66.2885427,108.155367 C66.2885427,113.453925 70.5843166,117.749698 75.8828744,117.749698 Z" id="形状" fill="#61188E"></path>
                        <polygon id="路径" fill="#79D47D" points="31.0048997 104.790324 24.9295417 112.324304 19.6474786 107.041824 20.9106648 105.778817 24.7869249 109.655374 29.6142814 103.66904"></polygon>
                        <polygon id="路径" fill="#79D47D" points="56.2991714 104.790324 50.2237538 112.324304 44.9417503 107.041824 46.2049364 105.778817 50.0811965 109.655374 54.908553 103.66904"></polygon>
                        <polygon id="路径" fill="#79D47D" points="81.5935025 104.790324 75.5178467 112.324304 70.2359623 107.041824 71.4995653 105.778817 75.3755276 109.655374 80.2030628 103.66904"></polygon>
                    </g>
                </g>
            </g>
        </g>
    </g>
</svg>