<?xml version="1.0" encoding="UTF-8"?>
<svg width="540px" height="210px" viewBox="0 0 540 210" version="1.1" xmlns="http://www.w3.org/2000/svg" xmlns:xlink="http://www.w3.org/1999/xlink">
    <title>2</title>
    <defs>
        <rect id="path-1" x="156" y="34" width="210" height="45" rx="2"></rect>
        <filter x="-27.9%" y="-110.0%" width="155.7%" height="360.0%" filterUnits="objectBoundingBox" id="filter-2">
            <feMorphology radius="2" operator="erode" in="SourceAlpha" result="shadowSpreadOuter1"></feMorphology>
            <feOffset dx="0" dy="3" in="shadowSpreadOuter1" result="shadowOffsetOuter1"></feOffset>
            <feGaussianBlur stdDeviation="3" in="shadowOffsetOuter1" result="shadowBlurOuter1"></feGaussianBlur>
            <feColorMatrix values="0 0 0 0 0   0 0 0 0 0   0 0 0 0 0  0 0 0 0.12 0" type="matrix" in="shadowBlurOuter1" result="shadowMatrixOuter1"></feColorMatrix>
            <feMorphology radius="4" operator="dilate" in="SourceAlpha" result="shadowSpreadOuter2"></feMorphology>
            <feOffset dx="0" dy="9" in="shadowSpreadOuter2" result="shadowOffsetOuter2"></feOffset>
            <feGaussianBlur stdDeviation="14" in="shadowOffsetOuter2" result="shadowBlurOuter2"></feGaussianBlur>
            <feColorMatrix values="0 0 0 0 0   0 0 0 0 0   0 0 0 0 0  0 0 0 0.05 0" type="matrix" in="shadowBlurOuter2" result="shadowMatrixOuter2"></feColorMatrix>
            <feOffset dx="0" dy="6" in="SourceAlpha" result="shadowOffsetOuter3"></feOffset>
            <feGaussianBlur stdDeviation="8" in="shadowOffsetOuter3" result="shadowBlurOuter3"></feGaussianBlur>
            <feColorMatrix values="0 0 0 0 0   0 0 0 0 0   0 0 0 0 0  0 0 0 0.08 0" type="matrix" in="shadowBlurOuter3" result="shadowMatrixOuter3"></feColorMatrix>
            <feMerge>
                <feMergeNode in="shadowMatrixOuter1"></feMergeNode>
                <feMergeNode in="shadowMatrixOuter2"></feMergeNode>
                <feMergeNode in="shadowMatrixOuter3"></feMergeNode>
            </feMerge>
        </filter>
        <filter id="filter-3">
            <feColorMatrix in="SourceGraphic" type="matrix" values="0 0 0 0 0.000000 0 0 0 0 0.784314 0 0 0 0 0.000000 0 0 0 1.000000 0"></feColorMatrix>
        </filter>
    </defs>
    <g id="📁设计师模式" stroke="none" stroke-width="1" fill="none" fill-rule="evenodd">
        <g id="交互原则-足不出户" transform="translate(-720.000000, -899.000000)">
            <g id="2" transform="translate(720.000000, 899.000000)">
                <rect id="矩形备份-10" fill="#FFFFFF" x="0" y="0" width="540" height="210"></rect>
                <rect id="矩形" fill-opacity="0.0468203671" fill="#000000" x="27" y="97" width="486" height="40"></rect>
                <rect id="矩形备份-41" fill="#BEBEBE" x="45" y="111" width="60" height="12"></rect>
                <rect id="矩形备份-42" fill="#BEBEBE" x="185" y="111" width="60" height="12"></rect>
                <rect id="矩形备份-43" fill="#BEBEBE" x="370" y="111" width="60" height="12"></rect>
                <rect id="矩形备份-44" fill="#F1F1F1" x="45" y="155" width="67" height="12"></rect>
                <rect id="矩形备份-45" fill="#F1F1F1" x="185" y="155" width="40" height="12"></rect>
                <rect id="矩形备份-46" fill="#F1F1F1" x="370" y="155" width="102" height="12"></rect>
                <g id="形状结合">
                    <use fill="black" fill-opacity="1" filter="url(#filter-2)" xlink:href="#path-1"></use>
                    <use fill="#FFFFFF" fill-rule="evenodd" xlink:href="#path-1"></use>
                </g>
                <text id="该数据已成功删除-撤销" font-family="PingFangSC-Regular, PingFang SC" font-size="14" font-weight="normal">
                    <tspan x="193" y="62" fill="#000000" fill-opacity="0.645705857">该数据已成功删除    </tspan>
                    <tspan x="323.648" y="62" fill="#B30000">撤销</tspan>
                </text>
                <g filter="url(#filter-3)" id="成功">
                    <g transform="translate(169.000000, 49.000000)">
                        <rect id="矩形" fill="#000000" fill-rule="nonzero" opacity="0" x="0" y="0" width="15.7538462" height="16"></rect>
                        <path d="M8.12307692,0 C3.77304615,0 0.246153846,3.582 0.246153846,8 C0.246153846,12.418 3.77304615,16 8.12307692,16 C12.4731077,16 16,12.418 16,8 C16,3.582 12.4731077,0 8.12307692,0 Z M12.2668308,6.105 L7.44861538,11 C7.30442526,11.1466225 7.10865566,11.2288529 6.90461538,11.2285011 C6.70769231,11.2285011 6.51076923,11.152 6.36061538,10.9995 L3.97981538,8.5815 C3.7854629,8.38411076 3.70955962,8.09640968 3.78069756,7.82677096 C3.85183551,7.55713225 4.05920714,7.34652044 4.32469756,7.27427096 C4.59018799,7.20202149 4.8734629,7.27911076 5.06781538,7.4765 L6.90461538,9.3425 L11.1793231,5 C11.479766,4.69486268 11.9668802,4.69486268 12.2673231,5 C12.567766,5.30513732 12.567766,5.79986268 12.2673231,6.105 L12.2668308,6.105 Z" id="形状" fill="#000000" fill-rule="nonzero"></path>
                    </g>
                </g>
            </g>
        </g>
    </g>
</svg>