<?xml version="1.0" encoding="UTF-8"?>
<svg width="540px" height="223px" viewBox="0 0 540 223" version="1.1" xmlns="http://www.w3.org/2000/svg" xmlns:xlink="http://www.w3.org/1999/xlink">
    <title>3</title>
    <defs>
        <path d="M378,14 C379.104569,14 380,14.8954305 380,16 L380,98 C380,99.1045695 379.104569,100 378,100 L206.999,100 L203.5,105 L200.001,100 L174,100 C172.895431,100 172,99.1045695 172,98 L172,16 C172,14.8954305 172.895431,14 174,14 L378,14 Z" id="path-1"></path>
        <filter x="-28.1%" y="-54.4%" width="156.2%" height="235.1%" filterUnits="objectBoundingBox" id="filter-2">
            <feMorphology radius="2" operator="erode" in="SourceAlpha" result="shadowSpreadOuter1"></feMorphology>
            <feOffset dx="0" dy="3" in="shadowSpreadOuter1" result="shadowOffsetOuter1"></feOffset>
            <feGaussianBlur stdDeviation="3" in="shadowOffsetOuter1" result="shadowBlurOuter1"></feGaussianBlur>
            <feColorMatrix values="0 0 0 0 0   0 0 0 0 0   0 0 0 0 0  0 0 0 0.12 0" type="matrix" in="shadowBlurOuter1" result="shadowMatrixOuter1"></feColorMatrix>
            <feMorphology radius="4" operator="dilate" in="SourceAlpha" result="shadowSpreadOuter2"></feMorphology>
            <feOffset dx="0" dy="9" in="shadowSpreadOuter2" result="shadowOffsetOuter2"></feOffset>
            <feGaussianBlur stdDeviation="14" in="shadowOffsetOuter2" result="shadowBlurOuter2"></feGaussianBlur>
            <feColorMatrix values="0 0 0 0 0   0 0 0 0 0   0 0 0 0 0  0 0 0 0.05 0" type="matrix" in="shadowBlurOuter2" result="shadowMatrixOuter2"></feColorMatrix>
            <feOffset dx="0" dy="6" in="SourceAlpha" result="shadowOffsetOuter3"></feOffset>
            <feGaussianBlur stdDeviation="8" in="shadowOffsetOuter3" result="shadowBlurOuter3"></feGaussianBlur>
            <feColorMatrix values="0 0 0 0 0   0 0 0 0 0   0 0 0 0 0  0 0 0 0.08 0" type="matrix" in="shadowBlurOuter3" result="shadowMatrixOuter3"></feColorMatrix>
            <feMerge>
                <feMergeNode in="shadowMatrixOuter1"></feMergeNode>
                <feMergeNode in="shadowMatrixOuter2"></feMergeNode>
                <feMergeNode in="shadowMatrixOuter3"></feMergeNode>
            </feMerge>
        </filter>
        <filter id="filter-3">
            <feColorMatrix in="SourceGraphic" type="matrix" values="0 0 0 0 0.878431 0 0 0 0 0.125490 0 0 0 0 0.125490 0 0 0 1.000000 0"></feColorMatrix>
        </filter>
    </defs>
    <g id="📁设计师模式" stroke="none" stroke-width="1" fill="none" fill-rule="evenodd">
        <g id="交互原则-足不出户" transform="translate(-720.000000, -1147.000000)">
            <g id="编组-10" transform="translate(720.000000, 1160.000000)">
                <rect id="矩形备份-17" fill="#FFFFFF" x="0" y="0" width="540" height="210"></rect>
                <rect id="矩形备份-3" fill-opacity="0.0468203671" fill="#000000" x="27" y="97" width="486" height="40"></rect>
                <rect id="矩形备份-47" fill="#BEBEBE" x="45" y="111" width="60" height="12"></rect>
                <rect id="矩形备份-48" fill="#BEBEBE" x="185" y="111" width="60" height="12"></rect>
                <rect id="矩形备份-49" fill="#BEBEBE" x="370" y="111" width="60" height="12"></rect>
                <rect id="矩形备份-50" fill="#F1F1F1" x="45" y="155" width="67" height="12"></rect>
                <rect id="矩形备份-51" fill="#F1F1F1" x="185" y="155" width="40" height="12"></rect>
                <rect id="矩形备份-52" fill="#F1F1F1" x="370" y="155" width="102" height="12"></rect>
                <g id="形状结合备份-2">
                    <use fill="black" fill-opacity="1" filter="url(#filter-2)" xlink:href="#path-1"></use>
                    <use fill="#FFFFFF" fill-rule="evenodd" xlink:href="#path-1"></use>
                </g>
                <text id="你确定删除该内容吗？" font-family="PingFangSC-Regular, PingFang SC" font-size="16" font-weight="normal" fill="#000000" fill-opacity="0.85">
                    <tspan x="209" y="38">你确定删除该内容吗？</tspan>
                </text>
                <g filter="url(#filter-3)" id="疑问">
                    <g transform="translate(185.000000, 25.000000)">
                        <rect id="矩形" fill="#000000" fill-rule="nonzero" opacity="0" x="0" y="0" width="15.7538462" height="16"></rect>
                        <path d="M8.12307692,0 C12.4736,0 16,3.5815 16,8 C16,12.418 12.4731077,16 8.12307692,16 C3.77304615,16 0.246153846,12.418 0.246153846,8 C0.246153846,3.582 3.77304615,0 8.12307692,0 Z M8.12307692,3.4535 C6.67306606,3.4535 5.4976,4.64733271 5.4976,6.12 C5.4976,6.48809779 5.79141141,6.7865 6.15384615,6.7865 C6.5162809,6.7865 6.81009231,6.48809779 6.81009231,6.12 C6.81009231,5.38352829 7.39793554,4.7865 8.12307692,4.7865 C8.8482183,4.7865 9.43606154,5.38352829 9.43606154,6.12 C9.43606154,6.85647171 8.8482183,7.4535 8.12307692,7.4535 C7.76073846,7.4535 7.46683077,7.752 7.46683077,8.12 L7.46683077,9.86 C7.46683077,10.2280978 7.76064218,10.5265 8.12307692,10.5265 C8.48551167,10.5265 8.77932308,10.2280978 8.77932308,9.86 L8.77932308,8.7 C10.0559382,8.36147446 10.886882,7.11329037 10.7206042,5.78394688 C10.5543263,4.45460339 9.44248371,3.45708153 8.12307692,3.4535 Z M7.46683077,11.9265 C7.46683077,12.2945978 7.76064218,12.593 8.12307692,12.593 C8.48551167,12.593 8.77932308,12.2945978 8.77932308,11.9265 C8.77932308,11.5584022 8.48551167,11.26 8.12307692,11.26 C7.76064218,11.26 7.46683077,11.5584022 7.46683077,11.9265 L7.46683077,11.9265 Z" id="形状" fill="#000000" fill-rule="nonzero"></path>
                    </g>
                </g>
                <rect id="矩形" fill="#B30000" x="205" y="57" width="60" height="24" rx="2"></rect>
                <text id="确定" font-family="PingFangSC-Regular, PingFang SC" font-size="14" font-weight="normal" fill="#FFFFFF">
                    <tspan x="221" y="74">确定</tspan>
                </text>
                <rect id="矩形备份" stroke-opacity="0.35" stroke="#000000" fill="#FFFFFF" x="289.5" y="57.5" width="59" height="23" rx="2"></rect>
                <text id="取消" font-family="PingFangSC-Regular, PingFang SC" font-size="14" font-weight="normal" fill="#000000" fill-opacity="0.35">
                    <tspan x="305" y="74">取消</tspan>
                </text>
            </g>
        </g>
    </g>
</svg>