<?xml version="1.0" encoding="UTF-8"?>
<svg width="540px" height="344px" viewBox="0 0 540 344" version="1.1" xmlns="http://www.w3.org/2000/svg" xmlns:xlink="http://www.w3.org/1999/xlink">
    <title>5</title>
    <defs>
        <filter id="filter-1">
            <feColorMatrix in="SourceGraphic" type="matrix" values="0 0 0 0 1.000000 0 0 0 0 1.000000 0 0 0 0 1.000000 0 0 0 1.000000 0"></feColorMatrix>
        </filter>
        <filter id="filter-2">
            <feColorMatrix in="SourceGraphic" type="matrix" values="0 0 0 0 0.000000 0 0 0 0 0.000000 0 0 0 0 0.000000 0 0 0 0.250000 0"></feColorMatrix>
        </filter>
        <filter id="filter-3">
            <feColorMatrix in="SourceGraphic" type="matrix" values="0 0 0 0 0.000000 0 0 0 0 0.000000 0 0 0 0 0.000000 0 0 0 0.649885 0"></feColorMatrix>
        </filter>
        <path d="M82,53.5 L87,50 L87,43 C87,41.8954305 87.8954305,41 89,41 L361,41 C362.104569,41 363,41.8954305 363,43 L363,247 C363,248.104569 362.104569,249 361,249 L89,249 C87.8954305,249 87,248.104569 87,247 L87,57 L82,53.5 Z" id="path-4"></path>
        <filter x="-22.9%" y="-23.8%" width="143.8%" height="156.2%" filterUnits="objectBoundingBox" id="filter-5">
            <feMorphology radius="2" operator="erode" in="SourceAlpha" result="shadowSpreadOuter1"></feMorphology>
            <feOffset dx="0" dy="3" in="shadowSpreadOuter1" result="shadowOffsetOuter1"></feOffset>
            <feGaussianBlur stdDeviation="3" in="shadowOffsetOuter1" result="shadowBlurOuter1"></feGaussianBlur>
            <feColorMatrix values="0 0 0 0 0   0 0 0 0 0   0 0 0 0 0  0 0 0 0.12 0" type="matrix" in="shadowBlurOuter1" result="shadowMatrixOuter1"></feColorMatrix>
            <feMorphology radius="4" operator="dilate" in="SourceAlpha" result="shadowSpreadOuter2"></feMorphology>
            <feOffset dx="0" dy="9" in="shadowSpreadOuter2" result="shadowOffsetOuter2"></feOffset>
            <feGaussianBlur stdDeviation="14" in="shadowOffsetOuter2" result="shadowBlurOuter2"></feGaussianBlur>
            <feColorMatrix values="0 0 0 0 0   0 0 0 0 0   0 0 0 0 0  0 0 0 0.05 0" type="matrix" in="shadowBlurOuter2" result="shadowMatrixOuter2"></feColorMatrix>
            <feOffset dx="0" dy="6" in="SourceAlpha" result="shadowOffsetOuter3"></feOffset>
            <feGaussianBlur stdDeviation="8" in="shadowOffsetOuter3" result="shadowBlurOuter3"></feGaussianBlur>
            <feColorMatrix values="0 0 0 0 0   0 0 0 0 0   0 0 0 0 0  0 0 0 0.08 0" type="matrix" in="shadowBlurOuter3" result="shadowMatrixOuter3"></feColorMatrix>
            <feMerge>
                <feMergeNode in="shadowMatrixOuter1"></feMergeNode>
                <feMergeNode in="shadowMatrixOuter2"></feMergeNode>
                <feMergeNode in="shadowMatrixOuter3"></feMergeNode>
            </feMerge>
        </filter>
    </defs>
    <g id="📁设计师模式" stroke="none" stroke-width="1" fill="none" fill-rule="evenodd">
        <g id="交互原则-足不出户" transform="translate(-720.000000, -1676.000000)">
            <g id="5" transform="translate(720.000000, 1676.000000)">
                <rect id="矩形" fill="#FFFFFF" x="0" y="0" width="540" height="344"></rect>
                <rect id="矩形备份-25" fill-opacity="0.0468203671" fill="#000000" x="19" y="33" width="500" height="40"></rect>
                <rect id="矩形备份-55" fill="#BEBEBE" x="136" y="89" width="201" height="16"></rect>
                <rect id="矩形备份-59" fill="#BEBEBE" x="136" y="45" width="143" height="16"></rect>
                <rect id="矩形备份-60" fill="#BEBEBE" x="403" y="45" width="61" height="16"></rect>
                <rect id="矩形备份-61" fill="#BEBEBE" x="429" y="89" width="61" height="16"></rect>
                <rect id="矩形备份-62" fill="#BEBEBE" x="429" y="138" width="61" height="16"></rect>
                <rect id="矩形备份-63" fill="#BEBEBE" x="429" y="187" width="61" height="16"></rect>
                <rect id="矩形备份-64" fill="#BEBEBE" x="429" y="238" width="61" height="16"></rect>
                <rect id="矩形备份-56" fill="#BEBEBE" x="136" y="138" width="201" height="16"></rect>
                <rect id="矩形备份-57" fill="#BEBEBE" x="136" y="187" width="201" height="16"></rect>
                <rect id="矩形备份-58" fill="#BEBEBE" x="136" y="238" width="201" height="16"></rect>
                <rect id="矩形备份-28" fill-opacity="0.35" fill="#000000" x="19" y="121" width="500" height="1"></rect>
                <rect id="矩形备份-29" fill-opacity="0.35" fill="#000000" x="18" y="170" width="500" height="1"></rect>
                <rect id="矩形备份-30" fill-opacity="0.35" fill="#000000" x="18" y="219" width="500" height="1"></rect>
                <rect id="矩形备份-31" fill="#B30000" x="55" y="89" width="16" height="16" rx="2"></rect>
                <rect id="矩形备份-32" stroke-opacity="0.35" stroke="#000000" fill="#FFFFFF" x="55.5" y="138.5" width="15" height="15" rx="2"></rect>
                <rect id="矩形备份-33" stroke-opacity="0.35" stroke="#000000" fill="#FFFFFF" x="55.5" y="187.5" width="15" height="15" rx="2"></rect>
                <rect id="矩形备份-34" stroke-opacity="0.35" stroke="#000000" fill="#FFFFFF" x="55.5" y="238.5" width="15" height="15" rx="2"></rect>
                <g filter="url(#filter-1)" id="对号">
                    <g transform="translate(55.000000, 89.000000)">
                        <rect id="矩形" fill="#000000" fill-rule="nonzero" opacity="0" x="0" y="0" width="16" height="16"></rect>
                        <path d="M6.513,12.47 C6.26,12.47 6.008,12.373 5.815,12.18 L1.866,8.215 C1.481,7.828 1.481,7.2 1.866,6.813 C2.252,6.426 2.877,6.426 3.262,6.813 L6.513,10.077 L12.725,3.84 C13.11,3.452 13.735,3.452 14.121,3.84 C14.506,4.227 14.506,4.854 14.121,5.241 L7.211,12.18 C7.018,12.373 6.765,12.47 6.513,12.47 Z" id="路径" fill="#000000" fill-rule="nonzero"></path>
                    </g>
                </g>
                <circle id="椭圆形" fill="#1EB100" cx="407" cy="97" r="4"></circle>
                <circle id="椭圆形备份" fill="#1EB100" cx="407" cy="146" r="4"></circle>
                <circle id="椭圆形备份-2" fill="#ED220D" cx="407" cy="195" r="4"></circle>
                <circle id="椭圆形备份-3" fill="#D8D8D8" cx="407" cy="246" r="4"></circle>
                <g filter="url(#filter-2)" id="筛选">
                    <g transform="translate(490.000000, 45.000000)">
                        <rect id="矩形" fill="#000000" fill-rule="nonzero" opacity="0" x="0" y="0" width="16" height="16"></rect>
                        <path d="M11.488,2.8935 C11.592,2.8935 11.68,2.9335 11.752,3.0055 C11.822698,3.07527942 11.862955,3.17017082 11.864,3.2695 C11.8628625,3.35961704 11.8319189,3.44682151 11.776,3.5175 L8.4,7.2615 L8.4,13.3095 C8.40013293,13.4092621 8.36056144,13.5049764 8.29001893,13.5755189 C8.21947642,13.6460614 8.12376209,13.6856329 8.024,13.6855129 C7.94599985,13.6861676 7.86999954,13.6608342 7.808,13.6135 C7.712,13.5415 5.952,12.0135 5.952,12.0135 C5.88130198,11.9437206 5.84104502,11.8488292 5.84,11.7495 L5.84,7.2535 L2.584,3.5015 C2.52152724,3.42336179 2.49311075,3.3233787 2.50514896,3.22406351 C2.51718716,3.12474832 2.56866809,3.03444976 2.648,2.9735 C2.71524504,2.92356946 2.79627175,2.89562922 2.88,2.8935 L11.488,2.8935 L11.488,2.8935 Z M13.24,12.1735 C13.4476591,12.1735 13.616,12.3418409 13.616,12.5495 C13.616,12.7571591 13.4476591,12.9255 13.24,12.9255 L10.328,12.9255 C10.2286708,12.924455 10.1337794,12.884198 10.064,12.8135 C9.99330198,12.7437206 9.95304502,12.6488292 9.952,12.5495 C9.952,12.3415 10.12,12.1735 10.328,12.1735 L13.24,12.1735 L13.24,12.1735 Z M13.24,9.8215 C13.4476591,9.8215 13.616,9.98984093 13.616,10.1975 C13.616,10.4051591 13.4476591,10.5735 13.24,10.5735 L10.328,10.5735 C10.1203409,10.5735 9.952,10.4051591 9.952,10.1975 C9.952,9.98984093 10.1203409,9.8215 10.328,9.8215 L13.24,9.8215 L13.24,9.8215 Z M13.232,7.4935 C13.4396591,7.4935 13.608,7.66184093 13.608,7.8695 C13.608,8.07715907 13.4396591,8.2455 13.232,8.2455 L10.328,8.2455 C10.2277874,8.2448904 10.132096,8.20371144 10.0627571,8.13135779 C9.99341818,8.05900415 9.95634661,7.96164782 9.96,7.8615 C9.96,7.6535 10.128,7.4935 10.328,7.4935 L13.232,7.4935 L13.232,7.4935 Z" id="形状" fill="#000000" fill-rule="nonzero"></path>
                    </g>
                </g>
                <g filter="url(#filter-3)" id="更多">
                    <g transform="translate(54.000000, 45.000000)">
                        <rect id="矩形" fill="#000000" fill-rule="nonzero" opacity="0" x="0" y="0" width="16" height="16"></rect>
                        <path d="M1.27,3.469 L14.73,3.469 C15.156,3.469 15.5,3.133 15.5,2.719 C15.5,2.305 15.156,1.969 14.73,1.969 L1.27,1.969 C0.845,1.969 0.5,2.305 0.5,2.719 C0.5,3.133 0.845,3.469 1.27,3.469 Z M14.73,7.219 L1.27,7.219 C0.844,7.219 0.5,7.555 0.5,7.969 C0.5,8.383 0.844,8.719 1.27,8.719 L14.73,8.719 C15.156,8.719 15.5,8.383 15.5,7.969 C15.5,7.555 15.154,7.219 14.73,7.219 Z M14.73,12.531 L1.27,12.531 C0.845,12.531 0.5,12.867 0.5,13.281 C0.5,13.695 0.845,14.031 1.27,14.031 L14.73,14.031 C15.156,14.031 15.5,13.695 15.5,13.281 C15.5,12.867 15.156,12.531 14.73,12.531 Z" id="形状" fill="#000000" fill-rule="nonzero"></path>
                    </g>
                </g>
                <g id="形状结合备份-2">
                    <use fill="black" fill-opacity="1" filter="url(#filter-5)" xlink:href="#path-4"></use>
                    <use fill="#FFFFFF" fill-rule="evenodd" xlink:href="#path-4"></use>
                </g>
                <text id="详细信息：" font-family="PingFangSC-Regular, PingFang SC" font-size="14" font-weight="normal" fill="#000000" fill-opacity="0.85">
                    <tspan x="108" y="64">详细信息：</tspan>
                </text>
                <text id="详细信息：备份" font-family="PingFangSC-Regular, PingFang SC" font-size="14" font-weight="normal" fill="#000000" fill-opacity="0.85">
                    <tspan x="108" y="128">详细信息：</tspan>
                </text>
                <text id="详细信息：备份-2" font-family="PingFangSC-Regular, PingFang SC" font-size="14" font-weight="normal" fill="#000000" fill-opacity="0.85">
                    <tspan x="108" y="192">详细信息：</tspan>
                </text>
                <text id="详细信息详细信息详细信息详细信息" font-family="PingFangSC-Regular, PingFang SC" font-size="14" font-weight="normal" fill="#000000" fill-opacity="0.649885271">
                    <tspan x="108" y="92">详细信息详细信息详细信息详细信息</tspan>
                </text>
                <text id="详细信息详细信息详细信息详细信息备份" font-family="PingFangSC-Regular, PingFang SC" font-size="14" font-weight="normal" fill="#000000" fill-opacity="0.649885271">
                    <tspan x="108" y="156">详细信息详细信息详细信息详细信息</tspan>
                </text>
                <text id="详细信息详细信息详细信息详细信息备份-2" font-family="PingFangSC-Regular, PingFang SC" font-size="14" font-weight="normal" fill="#000000" fill-opacity="0.649885271">
                    <tspan x="108" y="220">详细信息详细信息详细信息详细信息</tspan>
                </text>
            </g>
        </g>
    </g>
</svg>