<?xml version="1.0" encoding="UTF-8"?>
<svg width="540px" height="368px" viewBox="0 0 540 368" version="1.1" xmlns="http://www.w3.org/2000/svg" xmlns:xlink="http://www.w3.org/1999/xlink">
    <title>6</title>
    <defs>
        <filter id="filter-1">
            <feColorMatrix in="SourceGraphic" type="matrix" values="0 0 0 0 0.000000 0 0 0 0 0.000000 0 0 0 0 0.000000 0 0 0 0.250000 0"></feColorMatrix>
        </filter>
        <filter id="filter-2">
            <feColorMatrix in="SourceGraphic" type="matrix" values="0 0 0 0 0.000000 0 0 0 0 0.000000 0 0 0 0 0.000000 0 0 0 0.649885 0"></feColorMatrix>
        </filter>
        <filter id="filter-3">
            <feColorMatrix in="SourceGraphic" type="matrix" values="0 0 0 0 0.000000 0 0 0 0 0.000000 0 0 0 0 0.000000 0 0 0 0.649885 0"></feColorMatrix>
        </filter>
        <filter id="filter-4">
            <feColorMatrix in="SourceGraphic" type="matrix" values="0 0 0 0 0.000000 0 0 0 0 0.000000 0 0 0 0 0.000000 0 0 0 0.649885 0"></feColorMatrix>
        </filter>
        <filter id="filter-5">
            <feColorMatrix in="SourceGraphic" type="matrix" values="0 0 0 0 0.000000 0 0 0 0 0.000000 0 0 0 0 0.000000 0 0 0 0.649885 0"></feColorMatrix>
        </filter>
        <filter id="filter-6">
            <feColorMatrix in="SourceGraphic" type="matrix" values="0 0 0 0 0.701961 0 0 0 0 0.000000 0 0 0 0 0.000000 0 0 0 1.000000 0"></feColorMatrix>
        </filter>
    </defs>
    <g id="ðŸ“è®¾è®¡å¸ˆæ¨¡å¼" stroke="none" stroke-width="1" fill="none" fill-rule="evenodd">
        <g id="äº¤äº’åŽŸåˆ™-è¶³ä¸å‡ºæˆ·" transform="translate(-720.000000, -2117.000000)">
            <g id="6" transform="translate(720.000000, 2117.000000)">
                <rect id="çŸ©å½¢å¤‡ä»½-6" fill="#FFFFFF" x="0" y="0" width="540" height="368"></rect>
                <rect id="çŸ©å½¢å¤‡ä»½-26" fill-opacity="0.0468203671" fill="#000000" x="19" y="33" width="500" height="40"></rect>
                <rect id="çŸ©å½¢å¤‡ä»½-65" fill="#BEBEBE" x="136" y="89" width="201" height="16"></rect>
                <rect id="çŸ©å½¢å¤‡ä»½-75" fill="#BEBEBE" x="136" y="118" width="152" height="16"></rect>
                <rect id="çŸ©å½¢å¤‡ä»½-76" fill="#BEBEBE" x="136" y="146" width="174" height="16"></rect>
                <rect id="çŸ©å½¢å¤‡ä»½-77" fill="#BEBEBE" x="136" y="174" width="174" height="16"></rect>
                <rect id="çŸ©å½¢å¤‡ä»½-66" fill="#BEBEBE" x="136" y="45" width="143" height="16"></rect>
                <rect id="çŸ©å½¢å¤‡ä»½-67" fill="#BEBEBE" x="403" y="45" width="61" height="16"></rect>
                <rect id="çŸ©å½¢å¤‡ä»½-68" fill="#BEBEBE" x="429" y="89" width="61" height="16"></rect>
                <rect id="çŸ©å½¢å¤‡ä»½-78" fill="#BEBEBE" x="429" y="118" width="47" height="16"></rect>
                <rect id="çŸ©å½¢å¤‡ä»½-79" fill="#BEBEBE" x="429" y="146" width="70" height="16"></rect>
                <rect id="çŸ©å½¢å¤‡ä»½-80" fill="#BEBEBE" x="429" y="174" width="53" height="16"></rect>
                <rect id="çŸ©å½¢å¤‡ä»½-69" fill="#BEBEBE" x="429" y="227" width="61" height="16"></rect>
                <rect id="çŸ©å½¢å¤‡ä»½-70" fill="#BEBEBE" x="429" y="276" width="61" height="16"></rect>
                <rect id="çŸ©å½¢å¤‡ä»½-71" fill="#BEBEBE" x="429" y="327" width="61" height="16"></rect>
                <rect id="çŸ©å½¢å¤‡ä»½-72" fill="#BEBEBE" x="136" y="227" width="201" height="16"></rect>
                <rect id="çŸ©å½¢å¤‡ä»½-73" fill="#BEBEBE" x="136" y="276" width="201" height="16"></rect>
                <rect id="çŸ©å½¢å¤‡ä»½-74" fill="#BEBEBE" x="136" y="327" width="201" height="16"></rect>
                <rect id="çŸ©å½¢å¤‡ä»½-35" fill-opacity="0.35" fill="#000000" x="19" y="210" width="500" height="1"></rect>
                <rect id="çŸ©å½¢å¤‡ä»½-36" fill-opacity="0.35" fill="#000000" x="18" y="259" width="500" height="1"></rect>
                <rect id="çŸ©å½¢å¤‡ä»½-37" fill-opacity="0.35" fill="#000000" x="18" y="308" width="500" height="1"></rect>
                <circle id="æ¤­åœ†å½¢å¤‡ä»½-4" fill="#1EB100" cx="407" cy="97" r="4"></circle>
                <circle id="æ¤­åœ†å½¢å¤‡ä»½-5" fill="#1EB100" cx="407" cy="235" r="4"></circle>
                <circle id="æ¤­åœ†å½¢å¤‡ä»½-6" fill="#ED220D" cx="407" cy="284" r="4"></circle>
                <circle id="æ¤­åœ†å½¢å¤‡ä»½-7" fill="#D8D8D8" cx="407" cy="335" r="4"></circle>
                <g filter="url(#filter-1)" id="ç­›é€‰å¤‡ä»½">
                    <g transform="translate(490.000000, 45.000000)">
                        <rect id="çŸ©å½¢" fill="#000000" fill-rule="nonzero" opacity="0" x="0" y="0" width="16" height="16"></rect>
                        <path d="M11.488,2.8935 C11.592,2.8935 11.68,2.9335 11.752,3.0055 C11.822698,3.07527942 11.862955,3.17017082 11.864,3.2695 C11.8628625,3.35961704 11.8319189,3.44682151 11.776,3.5175 L8.4,7.2615 L8.4,13.3095 C8.40013293,13.4092621 8.36056144,13.5049764 8.29001893,13.5755189 C8.21947642,13.6460614 8.12376209,13.6856329 8.024,13.6855129 C7.94599985,13.6861676 7.86999954,13.6608342 7.808,13.6135 C7.712,13.5415 5.952,12.0135 5.952,12.0135 C5.88130198,11.9437206 5.84104502,11.8488292 5.84,11.7495 L5.84,7.2535 L2.584,3.5015 C2.52152724,3.42336179 2.49311075,3.3233787 2.50514896,3.22406351 C2.51718716,3.12474832 2.56866809,3.03444976 2.648,2.9735 C2.71524504,2.92356946 2.79627175,2.89562922 2.88,2.8935 L11.488,2.8935 L11.488,2.8935 Z M13.24,12.1735 C13.4476591,12.1735 13.616,12.3418409 13.616,12.5495 C13.616,12.7571591 13.4476591,12.9255 13.24,12.9255 L10.328,12.9255 C10.2286708,12.924455 10.1337794,12.884198 10.064,12.8135 C9.99330198,12.7437206 9.95304502,12.6488292 9.952,12.5495 C9.952,12.3415 10.12,12.1735 10.328,12.1735 L13.24,12.1735 L13.24,12.1735 Z M13.24,9.8215 C13.4476591,9.8215 13.616,9.98984093 13.616,10.1975 C13.616,10.4051591 13.4476591,10.5735 13.24,10.5735 L10.328,10.5735 C10.1203409,10.5735 9.952,10.4051591 9.952,10.1975 C9.952,9.98984093 10.1203409,9.8215 10.328,9.8215 L13.24,9.8215 L13.24,9.8215 Z M13.232,7.4935 C13.4396591,7.4935 13.608,7.66184093 13.608,7.8695 C13.608,8.07715907 13.4396591,8.2455 13.232,8.2455 L10.328,8.2455 C10.2277874,8.2448904 10.132096,8.20371144 10.0627571,8.13135779 C9.99341818,8.05900415 9.95634661,7.96164782 9.96,7.8615 C9.96,7.6535 10.128,7.4935 10.328,7.4935 L13.232,7.4935 L13.232,7.4935 Z" id="å½¢çŠ¶" fill="#000000" fill-rule="nonzero"></path>
                    </g>
                </g>
                <g filter="url(#filter-2)" id="æ›´å¤šå¤‡ä»½">
                    <g transform="translate(54.000000, 45.000000)">
                        <rect id="çŸ©å½¢" fill="#000000" fill-rule="nonzero" opacity="0" x="0" y="0" width="16" height="16"></rect>
                        <path d="M1.27,3.469 L14.73,3.469 C15.156,3.469 15.5,3.133 15.5,2.719 C15.5,2.305 15.156,1.969 14.73,1.969 L1.27,1.969 C0.845,1.969 0.5,2.305 0.5,2.719 C0.5,3.133 0.845,3.469 1.27,3.469 Z M14.73,7.219 L1.27,7.219 C0.844,7.219 0.5,7.555 0.5,7.969 C0.5,8.383 0.844,8.719 1.27,8.719 L14.73,8.719 C15.156,8.719 15.5,8.383 15.5,7.969 C15.5,7.555 15.154,7.219 14.73,7.219 Z M14.73,12.531 L1.27,12.531 C0.845,12.531 0.5,12.867 0.5,13.281 C0.5,13.695 0.845,14.031 1.27,14.031 L14.73,14.031 C15.156,14.031 15.5,13.695 15.5,13.281 C15.5,12.867 15.156,12.531 14.73,12.531 Z" id="å½¢çŠ¶" fill="#000000" fill-rule="nonzero"></path>
                    </g>
                </g>
                <g filter="url(#filter-3)" id="æ·»åŠ ï¼ˆé¢ï¼‰å¤‡ä»½">
                    <g transform="translate(54.000000, 227.000000)">
                        <rect id="çŸ©å½¢" fill="#000000" fill-rule="nonzero" opacity="0" x="0" y="0" width="15.7538462" height="16"></rect>
                        <path d="M8.12307692,0 C12.4711385,0.005 15.9950769,3.584 16,8 C16,12.4185 12.4736,16 8.12307692,16 C3.77255385,16 0.246153846,12.4185 0.246153846,8 C0.246153846,3.5815 3.77255385,0 8.12307692,0 Z M8.12504615,3.3149998 C7.95905403,3.3148672 7.79982293,3.38177883 7.68244874,3.500987 C7.56507454,3.62019516 7.49919232,3.78191425 7.49932308,3.9505 L7.49932308,7.3645 L4.13784615,7.3645 C3.79226884,7.3645 3.51212308,7.64902304 3.51212308,8 C3.51212308,8.35097696 3.79226884,8.6355 4.13784615,8.6355 L7.49932308,8.6355 L7.49932308,12.0495 C7.49932308,12.400477 7.77946884,12.685 8.12504615,12.685 C8.47062347,12.685 8.75076923,12.400477 8.75076923,12.0495 L8.75076923,8.635 L12.1117538,8.635 C12.4573312,8.635 12.7374769,8.35047696 12.7374769,7.9995 C12.7374769,7.64852304 12.4573312,7.364 12.1117538,7.364 L8.75076923,7.364 L8.75076923,3.9505 C8.75076928,3.78200086 8.68482937,3.62041031 8.56746936,3.50131032 C8.45010934,3.38221034 8.29095295,3.31536732 8.12504615,3.3155 L8.12504615,3.3149998 Z" id="å½¢çŠ¶" fill="#000000" fill-rule="nonzero"></path>
                    </g>
                </g>
                <g filter="url(#filter-4)" id="æ·»åŠ ï¼ˆé¢ï¼‰å¤‡ä»½-2">
                    <g transform="translate(54.000000, 276.000000)">
                        <rect id="çŸ©å½¢" fill="#000000" fill-rule="nonzero" opacity="0" x="0" y="0" width="15.7538462" height="16"></rect>
                        <path d="M8.12307692,0 C12.4711385,0.005 15.9950769,3.584 16,8 C16,12.4185 12.4736,16 8.12307692,16 C3.77255385,16 0.246153846,12.4185 0.246153846,8 C0.246153846,3.5815 3.77255385,0 8.12307692,0 Z M8.12504615,3.3149998 C7.95905403,3.3148672 7.79982293,3.38177883 7.68244874,3.500987 C7.56507454,3.62019516 7.49919232,3.78191425 7.49932308,3.9505 L7.49932308,7.3645 L4.13784615,7.3645 C3.79226884,7.3645 3.51212308,7.64902304 3.51212308,8 C3.51212308,8.35097696 3.79226884,8.6355 4.13784615,8.6355 L7.49932308,8.6355 L7.49932308,12.0495 C7.49932308,12.400477 7.77946884,12.685 8.12504615,12.685 C8.47062347,12.685 8.75076923,12.400477 8.75076923,12.0495 L8.75076923,8.635 L12.1117538,8.635 C12.4573312,8.635 12.7374769,8.35047696 12.7374769,7.9995 C12.7374769,7.64852304 12.4573312,7.364 12.1117538,7.364 L8.75076923,7.364 L8.75076923,3.9505 C8.75076928,3.78200086 8.68482937,3.62041031 8.56746936,3.50131032 C8.45010934,3.38221034 8.29095295,3.31536732 8.12504615,3.3155 L8.12504615,3.3149998 Z" id="å½¢çŠ¶" fill="#000000" fill-rule="nonzero"></path>
                    </g>
                </g>
                <g filter="url(#filter-5)" id="æ·»åŠ ï¼ˆé¢ï¼‰å¤‡ä»½-3">
                    <g transform="translate(54.000000, 327.000000)">
                        <rect id="çŸ©å½¢" fill="#000000" fill-rule="nonzero" opacity="0" x="0" y="0" width="15.7538462" height="16"></rect>
                        <path d="M8.12307692,0 C12.4711385,0.005 15.9950769,3.584 16,8 C16,12.4185 12.4736,16 8.12307692,16 C3.77255385,16 0.246153846,12.4185 0.246153846,8 C0.246153846,3.5815 3.77255385,0 8.12307692,0 Z M8.12504615,3.3149998 C7.95905403,3.3148672 7.79982293,3.38177883 7.68244874,3.500987 C7.56507454,3.62019516 7.49919232,3.78191425 7.49932308,3.9505 L7.49932308,7.3645 L4.13784615,7.3645 C3.79226884,7.3645 3.51212308,7.64902304 3.51212308,8 C3.51212308,8.35097696 3.79226884,8.6355 4.13784615,8.6355 L7.49932308,8.6355 L7.49932308,12.0495 C7.49932308,12.400477 7.77946884,12.685 8.12504615,12.685 C8.47062347,12.685 8.75076923,12.400477 8.75076923,12.0495 L8.75076923,8.635 L12.1117538,8.635 C12.4573312,8.635 12.7374769,8.35047696 12.7374769,7.9995 C12.7374769,7.64852304 12.4573312,7.364 12.1117538,7.364 L8.75076923,7.364 L8.75076923,3.9505 C8.75076928,3.78200086 8.68482937,3.62041031 8.56746936,3.50131032 C8.45010934,3.38221034 8.29095295,3.31536732 8.12504615,3.3155 L8.12504615,3.3149998 Z" id="å½¢çŠ¶" fill="#000000" fill-rule="nonzero"></path>
                    </g>
                </g>
                <g filter="url(#filter-6)" id="å‡åŽ»">
                    <g transform="translate(55.000000, 89.000000)">
                        <rect id="çŸ©å½¢" fill="#000000" fill-rule="nonzero" opacity="0" x="0" y="0" width="16" height="16"></rect>
                        <path d="M8,0 C12.416,0.005 15.995,3.584 16,8 C16,12.4185 12.4185,16 8,16 C3.5815,16 0,12.4185 0,8 C0,3.5815 3.5815,0 8,0 Z M12.051,7.365 L3.9525,7.365 C3.60179918,7.365 3.3175,7.64929918 3.3175,8 C3.3175,8.35070082 3.60179918,8.635 3.9525,8.635 L12.051,8.635 C12.4017008,8.635 12.686,8.35070082 12.686,8 C12.686,7.64929918 12.4017008,7.365 12.051,7.365 L12.051,7.365 Z" id="å½¢çŠ¶" fill="#000000" fill-rule="nonzero"></path>
                    </g>
                </g>
            </g>
        </g>
    </g>
</svg>