<?xml version="1.0" encoding="UTF-8"?>
<svg width="540px" height="358px" viewBox="0 0 540 358" version="1.1" xmlns="http://www.w3.org/2000/svg" xmlns:xlink="http://www.w3.org/1999/xlink">
    <title>7</title>
    <defs>
        <rect id="path-1" x="22" y="35" width="500" height="288" rx="3"></rect>
        <filter x="-2.0%" y="-2.8%" width="104.0%" height="106.9%" filterUnits="objectBoundingBox" id="filter-2">
            <feOffset dx="0" dy="2" in="SourceAlpha" result="shadowOffsetOuter1"></feOffset>
            <feGaussianBlur stdDeviation="3" in="shadowOffsetOuter1" result="shadowBlurOuter1"></feGaussianBlur>
            <feColorMatrix values="0 0 0 0 0.576709692   0 0 0 0 0.576709692   0 0 0 0 0.576709692  0 0 0 0.35 0" type="matrix" in="shadowBlurOuter1"></feColorMatrix>
        </filter>
        <filter id="filter-3">
            <feColorMatrix in="SourceGraphic" type="matrix" values="0 0 0 0 1.000000 0 0 0 0 1.000000 0 0 0 0 1.000000 0 0 0 1.000000 0"></feColorMatrix>
        </filter>
    </defs>
    <g id="ðŸ“è®¾è®¡å¸ˆæ¨¡å¼" stroke="none" stroke-width="1" fill="none" fill-rule="evenodd">
        <g id="äº¤äº’åŽŸåˆ™-è¶³ä¸å‡ºæˆ·" transform="translate(-720.000000, -2533.000000)">
            <g id="7" transform="translate(720.000000, 2533.000000)">
                <rect id="çŸ©å½¢å¤‡ä»½" fill="#FFFFFF" x="0" y="0" width="540" height="358"></rect>
                <g id="Rectangle-Copyå¤‡ä»½-12">
                    <use fill="black" fill-opacity="1" filter="url(#filter-2)" xlink:href="#path-1"></use>
                    <use fill="#F9FAFB" fill-rule="evenodd" xlink:href="#path-1"></use>
                </g>
                <rect id="Rectangle-Copyå¤‡ä»½" fill="#E9EBF0" x="22" y="35" width="500" height="36"></rect>
                <rect id="Rectangle-Copyå¤‡ä»½" stroke="#C7CACD" fill="#F9FAFB" x="100.5" y="35.5" width="77" height="35"></rect>
                <rect id="Rectangle-Copyå¤‡ä»½" fill="#F9FAFB" x="101" y="70" width="76" height="1"></rect>
                <rect id="çŸ©å½¢å¤‡ä»½" fill="#C7CACD" x="22" y="70" width="78" height="1"></rect>
                <rect id="çŸ©å½¢å¤‡ä»½-7" fill="#C7CACD" x="178" y="70" width="344" height="1"></rect>
                <text id="é¡µç­¾1" font-family="PingFangSC-Medium, PingFang SC" font-size="14" font-weight="400" fill="#000000" fill-opacity="0.85">
                    <tspan x="44" y="58">é¡µç­¾1</tspan>
                </text>
                <text id="é¡µç­¾2" font-family="PingFangSC-Medium, PingFang SC" font-size="14" font-weight="400" fill="#B30000">
                    <tspan x="121" y="58">é¡µç­¾2</tspan>
                </text>
                <text id="é¡µç­¾3" font-family="PingFangSC-Medium, PingFang SC" font-size="14" font-weight="400" fill="#000000" fill-opacity="0.845470935">
                    <tspan x="201" y="58">é¡µç­¾3</tspan>
                </text>
                <text id="é¡µç­¾4" font-family="PingFangSC-Medium, PingFang SC" font-size="14" font-weight="400" fill="#000000" fill-opacity="0.845470935">
                    <tspan x="281" y="58">é¡µç­¾4</tspan>
                </text>
                <text id="é¡µç­¾5" font-family="PingFangSC-Medium, PingFang SC" font-size="14" font-weight="400" fill="#000000" fill-opacity="0.845470935">
                    <tspan x="361" y="58">é¡µç­¾5</tspan>
                </text>
                <text id="é¡µç­¾6" font-family="PingFangSC-Medium, PingFang SC" font-size="14" font-weight="400" fill="#000000" fill-opacity="0.845334353">
                    <tspan x="441" y="58">é¡µç­¾6</tspan>
                </text>
                <g id="ç¼–ç»„-2" transform="translate(21.000000, 71.000000)">
                    <rect id="çŸ©å½¢å¤‡ä»½-25" fill-opacity="0.0468203671" fill="#000000" x="1" y="0" width="500" height="40"></rect>
                    <rect id="çŸ©å½¢å¤‡ä»½-55" fill="#BEBEBE" x="118" y="56" width="201" height="16"></rect>
                    <rect id="çŸ©å½¢å¤‡ä»½-59" fill="#BEBEBE" x="118" y="12" width="143" height="16"></rect>
                    <rect id="çŸ©å½¢å¤‡ä»½-60" fill="#BEBEBE" x="411" y="12" width="61" height="16"></rect>
                    <rect id="çŸ©å½¢å¤‡ä»½-61" fill="#BEBEBE" x="411" y="56" width="61" height="16"></rect>
                    <rect id="çŸ©å½¢å¤‡ä»½-62" fill="#BEBEBE" x="411" y="105" width="61" height="16"></rect>
                    <rect id="çŸ©å½¢å¤‡ä»½-63" fill="#BEBEBE" x="411" y="154" width="61" height="16"></rect>
                    <rect id="çŸ©å½¢å¤‡ä»½-64" fill="#BEBEBE" x="411" y="205" width="61" height="16"></rect>
                    <rect id="çŸ©å½¢å¤‡ä»½-56" fill="#BEBEBE" x="118" y="105" width="201" height="16"></rect>
                    <rect id="çŸ©å½¢å¤‡ä»½-57" fill="#BEBEBE" x="118" y="154" width="201" height="16"></rect>
                    <rect id="çŸ©å½¢å¤‡ä»½-58" fill="#BEBEBE" x="118" y="205" width="201" height="16"></rect>
                    <rect id="çŸ©å½¢å¤‡ä»½-28" fill-opacity="0.35" fill="#000000" x="1" y="88" width="500" height="1"></rect>
                    <rect id="çŸ©å½¢å¤‡ä»½-29" fill-opacity="0.35" fill="#000000" x="0" y="137" width="500" height="1"></rect>
                    <rect id="çŸ©å½¢å¤‡ä»½-30" fill-opacity="0.35" fill="#000000" x="0" y="186" width="500" height="1"></rect>
                    <rect id="çŸ©å½¢" stroke-opacity="0.35" stroke="#000000" fill="#FFFFFF" x="37.5" y="12.5" width="15" height="15" rx="2"></rect>
                    <rect id="çŸ©å½¢å¤‡ä»½-31" fill="#B30000" x="37" y="56" width="16" height="16" rx="2"></rect>
                    <rect id="çŸ©å½¢å¤‡ä»½-32" stroke-opacity="0.35" stroke="#000000" fill="#FFFFFF" x="37.5" y="105.5" width="15" height="15" rx="2"></rect>
                    <rect id="çŸ©å½¢å¤‡ä»½-33" stroke-opacity="0.35" stroke="#000000" fill="#FFFFFF" x="37.5" y="154.5" width="15" height="15" rx="2"></rect>
                    <rect id="çŸ©å½¢å¤‡ä»½-34" stroke-opacity="0.35" stroke="#000000" fill="#FFFFFF" x="37.5" y="205.5" width="15" height="15" rx="2"></rect>
                    <g filter="url(#filter-3)" id="å¯¹å·">
                        <g transform="translate(37.000000, 56.000000)">
                            <rect id="çŸ©å½¢" fill="#000000" fill-rule="nonzero" opacity="0" x="0" y="0" width="16" height="16"></rect>
                            <path d="M6.513,12.47 C6.26,12.47 6.008,12.373 5.815,12.18 L1.866,8.215 C1.481,7.828 1.481,7.2 1.866,6.813 C2.252,6.426 2.877,6.426 3.262,6.813 L6.513,10.077 L12.725,3.84 C13.11,3.452 13.735,3.452 14.121,3.84 C14.506,4.227 14.506,4.854 14.121,5.241 L7.211,12.18 C7.018,12.373 6.765,12.47 6.513,12.47 Z" id="è·¯å¾„" fill="#000000" fill-rule="nonzero"></path>
                        </g>
                    </g>
                    <circle id="æ¤­åœ†å½¢" fill="#1EB100" cx="389" cy="64" r="4"></circle>
                    <circle id="æ¤­åœ†å½¢å¤‡ä»½-8" fill="#1EB100" cx="389" cy="20" r="4"></circle>
                    <circle id="æ¤­åœ†å½¢å¤‡ä»½" fill="#1EB100" cx="389" cy="113" r="4"></circle>
                    <circle id="æ¤­åœ†å½¢å¤‡ä»½-2" fill="#ED220D" cx="389" cy="162" r="4"></circle>
                    <circle id="æ¤­åœ†å½¢å¤‡ä»½-3" fill="#D8D8D8" cx="389" cy="213" r="4"></circle>
                </g>
            </g>
        </g>
    </g>
</svg>