<?xml version="1.0" encoding="UTF-8"?>
<svg width="540px" height="358px" viewBox="0 0 540 358" version="1.1" xmlns="http://www.w3.org/2000/svg" xmlns:xlink="http://www.w3.org/1999/xlink">
    <title>8</title>
    <defs>
        <filter id="filter-1">
            <feColorMatrix in="SourceGraphic" type="matrix" values="0 0 0 0 0.000000 0 0 0 0 0.000000 0 0 0 0 0.000000 0 0 0 0.250000 0"></feColorMatrix>
        </filter>
    </defs>
    <g id="📁设计师模式" stroke="none" stroke-width="1" fill="none" fill-rule="evenodd">
        <g id="交互原则-足不出户" transform="translate(-720.000000, -2988.000000)">
            <g id="8" transform="translate(720.000000, 2988.000000)">
                <rect id="矩形备份-19" fill="#FFFFFF" x="0" y="0" width="540" height="358"></rect>
                <rect id="矩形" fill="#B30000" x="161" y="101" width="60" height="24" rx="2"></rect>
                <rect id="矩形备份-23" fill="#B30000" x="237" y="146" width="60" height="24" rx="2"></rect>
                <text id="条件1" font-family="PingFangSC-Regular, PingFang SC" font-size="14" font-weight="normal" fill="#FFFFFF">
                    <tspan x="174" y="118">条件1</tspan>
                </text>
                <text id="场景2" font-family="PingFangSC-Regular, PingFang SC" font-size="14" font-weight="normal" fill="#FFFFFF">
                    <tspan x="250" y="163">场景2</tspan>
                </text>
                <rect id="矩形备份" stroke-opacity="0.35" stroke="#000000" fill="#FFFFFF" x="237.5" y="101.5" width="59" height="23" rx="2"></rect>
                <rect id="矩形备份-24" stroke-opacity="0.35" stroke="#000000" fill="#FFFFFF" x="161.5" y="146.5" width="59" height="23" rx="2"></rect>
                <rect id="矩形备份-22" stroke-opacity="0.35" stroke="#000000" fill="#FFFFFF" x="313.5" y="101.5" width="59" height="23" rx="2"></rect>
                <rect id="矩形备份-27" stroke-opacity="0.35" stroke="#000000" fill="#FFFFFF" x="313.5" y="146.5" width="59" height="23" rx="2"></rect>
                <rect id="矩形备份-38" stroke-opacity="0.35" stroke="#000000" fill="#FFFFFF" x="389.5" y="146.5" width="59" height="23" rx="2"></rect>
                <text id="条件2" font-family="PingFangSC-Regular, PingFang SC" font-size="14" font-weight="normal" fill="#000000" fill-opacity="0.649885271">
                    <tspan x="250" y="118">条件2</tspan>
                </text>
                <text id="场景1" font-family="PingFangSC-Regular, PingFang SC" font-size="14" font-weight="normal" fill="#000000" fill-opacity="0.649885271">
                    <tspan x="174" y="163">场景1</tspan>
                </text>
                <text id="条件3" font-family="PingFangSC-Regular, PingFang SC" font-size="14" font-weight="normal" fill="#000000" fill-opacity="0.649885271">
                    <tspan x="324" y="118">条件3</tspan>
                </text>
                <text id="场景3" font-family="PingFangSC-Regular, PingFang SC" font-size="14" font-weight="normal" fill="#000000" fill-opacity="0.649885271">
                    <tspan x="324" y="163">场景3</tspan>
                </text>
                <text id="场景4" font-family="PingFangSC-Regular, PingFang SC" font-size="14" font-weight="normal" fill="#000000" fill-opacity="0.649885271">
                    <tspan x="400" y="163">场景4</tspan>
                </text>
                <rect id="矩形" fill="#B30000" x="382" y="317" width="60" height="24" rx="2"></rect>
                <text id="确定" font-family="PingFangSC-Regular, PingFang SC" font-size="14" font-weight="normal" fill="#FFFFFF">
                    <tspan x="398" y="334">确定</tspan>
                </text>
                <rect id="矩形备份" stroke-opacity="0.35" stroke="#000000" fill="#FFFFFF" x="466.5" y="317.5" width="59" height="23" rx="2"></rect>
                <text id="取消" font-family="PingFangSC-Regular, PingFang SC" font-size="14" font-weight="normal" fill="#000000" fill-opacity="0.649885271">
                    <tspan x="482" y="334">取消</tspan>
                </text>
                <rect id="矩形备份-25" fill-opacity="0.0468203671" fill="#000000" x="27" y="45" width="500" height="40"></rect>
                <rect id="矩形备份-59" fill="#BEBEBE" x="55" y="57" width="108" height="16"></rect>
                <rect id="矩形备份-81" fill="#BEBEBE" x="53" y="101" width="61" height="16"></rect>
                <rect id="矩形备份-82" fill="#BEBEBE" x="53" y="150" width="61" height="16"></rect>
                <rect id="矩形备份-83" fill="#BEBEBE" x="53" y="199" width="61" height="16"></rect>
                <rect id="矩形备份-84" fill="#BEBEBE" x="53" y="248" width="61" height="16"></rect>
                <rect id="矩形备份-28" fill-opacity="0.35" fill="#000000" x="27" y="133" width="500" height="1"></rect>
                <rect id="矩形备份-29" fill-opacity="0.35" fill="#000000" x="26" y="182" width="500" height="1"></rect>
                <rect id="矩形备份-30" fill-opacity="0.35" fill="#000000" x="26" y="231" width="500" height="1"></rect>
                <rect id="矩形备份-6" stroke-opacity="0.35" stroke="#000000" fill="#FFFFFF" x="161.5" y="195.5" width="68" height="23" rx="2"></rect>
                <g filter="url(#filter-1)" id="下拉">
                    <g transform="translate(211.000000, 199.000000)">
                        <rect id="矩形" fill="#000000" fill-rule="nonzero" opacity="0" x="0" y="0" width="16" height="16"></rect>
                        <path d="M8.2015,11.921 C7.9285,11.921 7.667,11.811 7.4765,11.616 L1.767,5.7975 C1.37805526,5.39631451 1.38607473,4.75634477 1.7849503,4.36503147 C2.18382587,3.97371818 2.82383187,3.97794834 3.2175,4.3745 L8.201,9.4545 L13.1845,4.3745 C13.5781681,3.97794834 14.2181741,3.97371818 14.6170497,4.36503147 C15.0159253,4.75634477 15.0239447,5.39631451 14.635,5.7975 L8.927,11.6165 C8.7355,11.8115 8.4745,11.921 8.2015,11.921 Z" id="路径" fill="#000000" fill-rule="nonzero"></path>
                    </g>
                </g>
                <text id="选择" font-family="PingFangSC-Regular, PingFang SC" font-size="14" font-weight="normal" fill="#000000" fill-opacity="0.649885271">
                    <tspan x="174" y="212">选择</tspan>
                </text>
                <rect id="矩形备份-9" stroke-opacity="0.35" stroke="#000000" fill="#FFFFFF" x="161.5" y="250.5" width="158" height="43" rx="2"></rect>
                <rect id="矩形备份-60" fill="#F1F1F1" x="169" y="256" width="142" height="12"></rect>
                <rect id="矩形备份-61" fill="#F1F1F1" x="169" y="276" width="83" height="12"></rect>
                <rect id="矩形备份-8" fill-opacity="0.85" fill="#000000" x="255" y="275" width="1" height="14"></rect>
            </g>
        </g>
    </g>
</svg>