<?xml version="1.0" encoding="UTF-8"?>
<svg width="540px" height="437px" viewBox="0 0 540 437" version="1.1" xmlns="http://www.w3.org/2000/svg" xmlns:xlink="http://www.w3.org/1999/xlink">
    <title>1</title>
    <defs>
        <filter id="filter-1">
            <feColorMatrix in="SourceGraphic" type="matrix" values="0 0 0 0 0.701961 0 0 0 0 0.000000 0 0 0 0 0.000000 0 0 0 1.000000 0"></feColorMatrix>
        </filter>
        <filter id="filter-2">
            <feColorMatrix in="SourceGraphic" type="matrix" values="0 0 0 0 0.701961 0 0 0 0 0.000000 0 0 0 0 0.000000 0 0 0 1.000000 0"></feColorMatrix>
        </filter>
        <filter id="filter-3">
            <feColorMatrix in="SourceGraphic" type="matrix" values="0 0 0 0 0.701961 0 0 0 0 0.000000 0 0 0 0 0.000000 0 0 0 1.000000 0"></feColorMatrix>
        </filter>
        <filter id="filter-4">
            <feColorMatrix in="SourceGraphic" type="matrix" values="0 0 0 0 0.701961 0 0 0 0 0.000000 0 0 0 0 0.000000 0 0 0 1.000000 0"></feColorMatrix>
        </filter>
        <filter id="filter-5">
            <feColorMatrix in="SourceGraphic" type="matrix" values="0 0 0 0 1.000000 0 0 0 0 1.000000 0 0 0 0 1.000000 0 0 0 1.000000 0"></feColorMatrix>
        </filter>
        <filter id="filter-6">
            <feColorMatrix in="SourceGraphic" type="matrix" values="0 0 0 0 1.000000 0 0 0 0 1.000000 0 0 0 0 1.000000 0 0 0 1.000000 0"></feColorMatrix>
        </filter>
    </defs>
    <g id="📁设计师模式" stroke="none" stroke-width="1" fill="none" fill-rule="evenodd">
        <g id="交互原则-简化交互" transform="translate(-720.000000, -665.000000)">
            <g id="1" transform="translate(720.000000, 665.000000)">
                <rect id="矩形备份-2" fill="#FFFFFF" x="0" y="0" width="540" height="437"></rect>
                <text id="状态1" font-family="PingFangSC-Regular, PingFang SC" font-size="14" font-weight="normal" fill="#000000" fill-opacity="0.65">
                    <tspan x="26" y="40">状态1</tspan>
                </text>
                <text id="状态2" font-family="PingFangSC-Regular, PingFang SC" font-size="14" font-weight="normal" fill="#000000" fill-opacity="0.65">
                    <tspan x="26" y="185">状态2</tspan>
                </text>
                <text id="状态3" font-family="PingFangSC-Regular, PingFang SC" font-size="14" font-weight="normal" fill="#000000" fill-opacity="0.65">
                    <tspan x="26" y="327">状态3</tspan>
                </text>
                <rect id="矩形" stroke="#E8E7E7" fill="#FFFFFF" x="80.5" y="25.5" width="420" height="113" rx="2"></rect>
                <rect id="矩形备份-17" stroke="#E8E7E7" fill="#FFFFFF" x="80.5" y="170.5" width="420" height="113" rx="2"></rect>
                <rect id="矩形备份-21" stroke="#E8E7E7" fill="#FFFFFF" x="80.5" y="312.5" width="420" height="113" rx="2"></rect>
                <rect id="矩形备份-42" fill="#BEBEBE" x="171" y="48" width="89" height="12"></rect>
                <rect id="矩形备份-44" fill="#BEBEBE" x="171" y="193" width="89" height="12"></rect>
                <rect id="矩形备份-48" fill="#BEBEBE" x="171" y="335" width="89" height="12"></rect>
                <rect id="矩形备份-43" fill="#BEBEBE" x="171" y="104" width="217" height="12"></rect>
                <rect id="矩形备份-46" fill="#BEBEBE" x="171" y="249" width="217" height="12"></rect>
                <rect id="矩形备份-49" fill="#BEBEBE" x="171" y="391" width="217" height="12"></rect>
                <rect id="矩形备份-45" fill="#F1F1F1" x="171" y="76" width="240" height="12"></rect>
                <rect id="矩形备份-47" fill="#F1F1F1" x="171" y="221" width="240" height="12"></rect>
                <rect id="矩形备份-50" fill="#F1F1F1" x="171" y="363" width="240" height="12"></rect>
                <rect id="矩形" fill="#FFCCC8" x="119" y="48" width="27" height="40" rx="2"></rect>
                <rect id="矩形备份-18" fill="#B30000" x="119" y="193" width="27" height="40" rx="2"></rect>
                <rect id="矩形备份-22" fill="#B30000" x="119" y="335" width="27" height="40" rx="2"></rect>
                <rect id="矩形备份-24" stroke="#F1A9A9" stroke-width="2" x="117" y="333" width="31" height="44" rx="2"></rect>
                <rect id="矩形备份-9" fill="#FFCCC8" x="119" y="97" width="27" height="20" rx="2"></rect>
                <rect id="矩形备份-19" fill="#FFCCC8" x="119" y="242" width="27" height="20" rx="2"></rect>
                <rect id="矩形备份-23" fill="#FFCCC8" x="119" y="384" width="27" height="20" rx="2"></rect>
                <g filter="url(#filter-1)" id="下-拉">
                    <g transform="translate(125.000000, 99.000000)">
                        <rect id="矩形" fill="#000000" fill-rule="nonzero" opacity="0" x="0" y="0" width="16" height="16"></rect>
                        <path d="M1.2035,5.8185 L7.28,12.4635 C7.46159512,12.6699849 7.72327216,12.7883283 7.99825,12.7883283 C8.27322784,12.7883283 8.53490488,12.6699849 8.7165,12.4635 L14.7935,5.8185 C15.0911707,5.50496908 15.1830443,5.04869134 15.0299125,4.64438928 C14.8767807,4.24008723 14.5056868,3.95916117 14.075,3.9215 L1.9265,3.9215 C1.49521157,3.95783509 1.12314569,4.23868357 0.97,4.6435 C0.815485936,5.0474876 0.906262473,5.50428602 1.2035,5.8185 Z" id="路径" fill="#000000" fill-rule="nonzero"></path>
                    </g>
                </g>
                <g filter="url(#filter-2)" id="下-拉备份-2">
                    <g transform="translate(125.000000, 244.000000)">
                        <rect id="矩形" fill="#000000" fill-rule="nonzero" opacity="0" x="0" y="0" width="16" height="16"></rect>
                        <path d="M1.2035,5.8185 L7.28,12.4635 C7.46159512,12.6699849 7.72327216,12.7883283 7.99825,12.7883283 C8.27322784,12.7883283 8.53490488,12.6699849 8.7165,12.4635 L14.7935,5.8185 C15.0911707,5.50496908 15.1830443,5.04869134 15.0299125,4.64438928 C14.8767807,4.24008723 14.5056868,3.95916117 14.075,3.9215 L1.9265,3.9215 C1.49521157,3.95783509 1.12314569,4.23868357 0.97,4.6435 C0.815485936,5.0474876 0.906262473,5.50428602 1.2035,5.8185 Z" id="路径" fill="#000000" fill-rule="nonzero"></path>
                    </g>
                </g>
                <g filter="url(#filter-3)" id="下-拉备份-4">
                    <g transform="translate(125.000000, 386.000000)">
                        <rect id="矩形" fill="#000000" fill-rule="nonzero" opacity="0" x="0" y="0" width="16" height="16"></rect>
                        <path d="M1.2035,5.8185 L7.28,12.4635 C7.46159512,12.6699849 7.72327216,12.7883283 7.99825,12.7883283 C8.27322784,12.7883283 8.53490488,12.6699849 8.7165,12.4635 L14.7935,5.8185 C15.0911707,5.50496908 15.1830443,5.04869134 15.0299125,4.64438928 C14.8767807,4.24008723 14.5056868,3.95916117 14.075,3.9215 L1.9265,3.9215 C1.49521157,3.95783509 1.12314569,4.23868357 0.97,4.6435 C0.815485936,5.0474876 0.906262473,5.50428602 1.2035,5.8185 Z" id="路径" fill="#000000" fill-rule="nonzero"></path>
                    </g>
                </g>
                <g filter="url(#filter-4)" id="下-拉备份">
                    <g transform="translate(133.000000, 57.000000) rotate(-180.000000) translate(-133.000000, -57.000000) translate(125.000000, 49.000000)">
                        <rect id="矩形" fill="#000000" fill-rule="nonzero" opacity="0" x="0" y="0" width="16" height="16"></rect>
                        <path d="M1.2035,5.8185 L7.28,12.4635 C7.46159512,12.6699849 7.72327216,12.7883283 7.99825,12.7883283 C8.27322784,12.7883283 8.53490488,12.6699849 8.7165,12.4635 L14.7935,5.8185 C15.0911707,5.50496908 15.1830443,5.04869134 15.0299125,4.64438928 C14.8767807,4.24008723 14.5056868,3.95916117 14.075,3.9215 L1.9265,3.9215 C1.49521157,3.95783509 1.12314569,4.23868357 0.97,4.6435 C0.815485936,5.0474876 0.906262473,5.50428602 1.2035,5.8185 Z" id="路径" fill="#000000" fill-rule="nonzero"></path>
                    </g>
                </g>
                <g filter="url(#filter-5)" id="下-拉备份-3">
                    <g transform="translate(133.000000, 202.000000) rotate(-180.000000) translate(-133.000000, -202.000000) translate(125.000000, 194.000000)">
                        <rect id="矩形" fill="#000000" fill-rule="nonzero" opacity="0" x="0" y="0" width="16" height="16"></rect>
                        <path d="M1.2035,5.8185 L7.28,12.4635 C7.46159512,12.6699849 7.72327216,12.7883283 7.99825,12.7883283 C8.27322784,12.7883283 8.53490488,12.6699849 8.7165,12.4635 L14.7935,5.8185 C15.0911707,5.50496908 15.1830443,5.04869134 15.0299125,4.64438928 C14.8767807,4.24008723 14.5056868,3.95916117 14.075,3.9215 L1.9265,3.9215 C1.49521157,3.95783509 1.12314569,4.23868357 0.97,4.6435 C0.815485936,5.0474876 0.906262473,5.50428602 1.2035,5.8185 Z" id="路径" fill="#000000" fill-rule="nonzero"></path>
                    </g>
                </g>
                <g filter="url(#filter-6)" id="下-拉备份-5">
                    <g transform="translate(133.000000, 344.000000) rotate(-180.000000) translate(-133.000000, -344.000000) translate(125.000000, 336.000000)">
                        <rect id="矩形" fill="#000000" fill-rule="nonzero" opacity="0" x="0" y="0" width="16" height="16"></rect>
                        <path d="M1.2035,5.8185 L7.28,12.4635 C7.46159512,12.6699849 7.72327216,12.7883283 7.99825,12.7883283 C8.27322784,12.7883283 8.53490488,12.6699849 8.7165,12.4635 L14.7935,5.8185 C15.0911707,5.50496908 15.1830443,5.04869134 15.0299125,4.64438928 C14.8767807,4.24008723 14.5056868,3.95916117 14.075,3.9215 L1.9265,3.9215 C1.49521157,3.95783509 1.12314569,4.23868357 0.97,4.6435 C0.815485936,5.0474876 0.906262473,5.50428602 1.2035,5.8185 Z" id="路径" fill="#000000" fill-rule="nonzero"></path>
                    </g>
                </g>
                <text id="25" font-family="PingFangSC-Regular, PingFang SC" font-size="14" font-weight="normal" fill="#000000" fill-opacity="0.65">
                    <tspan x="124" y="82">25</tspan>
                </text>
                <text id="25备份" font-family="PingFangSC-Regular, PingFang SC" font-size="14" font-weight="normal" fill="#FFFFFF">
                    <tspan x="124" y="227">25</tspan>
                </text>
                <text id="25备份-2" font-family="PingFangSC-Regular, PingFang SC" font-size="14" font-weight="normal" fill="#FFFFFF">
                    <tspan x="124" y="369">25</tspan>
                </text>
                <g id="鼠标指针" transform="translate(149.000000, 87.000000)" fill="#000000" fill-rule="nonzero">
                    <rect id="矩形" opacity="0" x="0" y="0" width="16" height="16"></rect>
                    <path d="M11.861,9.276 C12.004,9.415 12.0365,9.576 11.959,9.7575 C11.8795,9.9435 11.7445,10.0355 11.549,10.0355 L8.897,10.0355 L10.293,13.3555 C10.3395769,13.4647425 10.3395769,13.5882575 10.293,13.6975 C10.2489036,13.8064982 10.1640689,13.8940233 10.0565,13.9415 L8.8275,14.465 C8.71884741,14.5119119 8.59565259,14.5119119 8.487,14.465 C8.37838227,14.420343 8.29140997,14.3351639 8.2445,14.2275 L6.919,11.0745 L4.7555,13.254 C4.67406431,13.339434 4.56102729,13.3875425 4.443,13.387 C4.3856392,13.3863596 4.3290017,13.3741137 4.2765,13.351 C4.0915,13.271 4,13.135 4,12.9385 L4,2.4485 C4,2.2535 4.0915,2.1155 4.2765,2.036 C4.44064919,1.964116 4.63225034,2.00291623 4.7555,2.133 L11.861,9.276 L11.861,9.276 Z" id="路径"></path>
                </g>
                <g id="手指" transform="translate(138.000000, 223.000000)" fill="#000000" fill-rule="nonzero">
                    <rect id="矩形" opacity="0" x="0" y="0" width="16" height="16"></rect>
                    <path d="M6.33163793,3.18550074 C6.58340142,3.18506667 6.8561648,3.25438076 7.13077874,3.46208068 C7.33993953,3.62027615 7.5578748,3.86864804 7.75954173,4.25997006 L7.75954173,4.25997006 L7.77097529,7.40664938 C8.57328554,7.36469926 8.92652235,7.4634435 9.29818388,7.74880336 C9.72047445,7.46620813 10.0327369,7.37750009 10.3552252,7.38476333 C10.6513014,7.39437619 10.9971305,7.48762219 11.371454,7.77520557 C11.7495128,7.46907563 12.0639734,7.34930292 12.3925227,7.37822712 C12.6421812,7.399032 12.9244914,7.49925396 13.2114097,7.78617232 C13.4068442,7.98160684 13.6138315,8.27862752 13.811,8.72895232 L13.811,8.72895232 L13.811,14.0807882 C13.8080104,14.1083387 13.8539064,14.7973826 12.598286,15.5345 L12.598286,15.5345 L5.92829526,15.5345 L2.21513433,10.896377 C2.17966853,10.6945344 2.13186803,10.2409376 2.2719355,9.82205709 C2.36395813,9.54758959 2.52932252,9.29562031 2.78067788,9.12647161 C3.09256381,8.91530608 3.5791368,8.7631494 4.42819586,9.13332065 L4.42819586,9.13332065 L4.78905301,4.26964357 C4.89625089,4.06838179 5.56483695,3.1855 6.33163793,3.18550074 Z M6.259,0.48449708 C7.38752943,0.48449708 8.40953982,0.941933039 9.14906823,1.68146212 C9.91725669,2.44754664 10.3483846,3.48824193 10.3470029,4.5725 C10.3470029,5.35659754 10.1237385,6.0853459 9.73882,6.70427527 C9.20398858,7.5642571 8.35610414,8.21190629 7.36,8.49851862 L7.36,8.49851862 L7.36,6.16519287 C7.86521487,5.80885732 8.20749995,5.22642453 8.2075004,4.55786743 C8.20815842,4.03775213 8.0015334,3.53881432 7.63244851,3.17055459 C7.26505215,2.80212083 6.7659434,2.59534106 6.24446889,2.59599972 C5.72429627,2.59544718 5.22535036,2.80221884 4.85705471,3.17155137 C4.48871884,3.53885036 4.28194718,4.03779627 4.2825,4.5585 C4.2825,5.24058532 4.64040833,5.83071037 5.1635,6.1865314 L5.1635,6.1865314 L5.1635,8.49828517 C4.12520848,8.20297388 3.25523726,7.52061089 2.71962453,6.60595948 C2.35944128,5.9885812 2.17024497,5.28638854 2.17149455,4.5725 C2.17149455,3.4440266 2.62890144,2.42206148 3.36796212,1.68243177 C4.13404664,0.914243315 5.17474193,0.483115449 6.259,0.48449708 Z" id="形状" stroke="#FFFFFF" fill-opacity="0.85"></path>
                </g>
            </g>
        </g>
    </g>
</svg>