<?xml version="1.0" encoding="UTF-8"?>
<svg width="540px" height="189px" viewBox="0 0 540 189" version="1.1" xmlns="http://www.w3.org/2000/svg" xmlns:xlink="http://www.w3.org/1999/xlink">
    <title>2</title>
    <defs>
        <rect id="path-1" x="18" y="115" width="500" height="48"></rect>
        <mask id="mask-2" maskContentUnits="userSpaceOnUse" maskUnits="objectBoundingBox" x="0" y="0" width="500" height="48" fill="white">
            <use xlink:href="#path-1"></use>
        </mask>
        <filter id="filter-3">
            <feColorMatrix in="SourceGraphic" type="matrix" values="0 0 0 0 1.000000 0 0 0 0 1.000000 0 0 0 0 1.000000 0 0 0 1.000000 0"></feColorMatrix>
        </filter>
        <filter id="filter-4">
            <feColorMatrix in="SourceGraphic" type="matrix" values="0 0 0 0 0.701961 0 0 0 0 0.000000 0 0 0 0 0.000000 0 0 0 1.000000 0"></feColorMatrix>
        </filter>
    </defs>
    <g id="ðŸ“è®¾è®¡å¸ˆæ¨¡å¼" stroke="none" stroke-width="1" fill="none" fill-rule="evenodd">
        <g id="äº¤äº’åŽŸåˆ™-ç®€åŒ–äº¤äº’" transform="translate(-720.000000, -1199.000000)">
            <g id="2" transform="translate(720.000000, 1199.000000)">
                <rect id="çŸ©å½¢å¤‡ä»½-100" fill="#FFFFFF" x="0" y="0" width="540" height="189"></rect>
                <rect id="çŸ©å½¢å¤‡ä»½-101" fill-opacity="0.0468203671" fill="#000000" x="18" y="26" width="500" height="40"></rect>
                <rect id="çŸ©å½¢å¤‡ä»½-102" fill="#BEBEBE" x="135" y="82" width="127" height="16"></rect>
                <rect id="çŸ©å½¢å¤‡ä»½-103" fill="#BEBEBE" x="135" y="38" width="107" height="16"></rect>
                <rect id="çŸ©å½¢å¤‡ä»½-104" fill="#BEBEBE" x="327" y="38" width="61" height="16"></rect>
                <use id="çŸ©å½¢" stroke-opacity="0.35" stroke="#000000" mask="url(#mask-2)" stroke-width="2" fill="#FFF1F1" stroke-dasharray="3" xlink:href="#path-1"></use>
                <rect id="çŸ©å½¢å¤‡ä»½-105" fill="#BEBEBE" x="327" y="82" width="61" height="16"></rect>
                <rect id="çŸ©å½¢å¤‡ä»½-106" fill="#BEBEBE" x="327" y="131" width="61" height="16"></rect>
                <rect id="çŸ©å½¢å¤‡ä»½-107" fill="#BEBEBE" x="135" y="131" width="74" height="16"></rect>
                <rect id="çŸ©å½¢å¤‡ä»½-109" stroke-opacity="0.35" stroke="#000000" fill="#FFFFFF" x="54.5" y="38.5" width="15" height="15" rx="2"></rect>
                <rect id="çŸ©å½¢å¤‡ä»½-110" fill="#B30000" x="54" y="131" width="16" height="16" rx="2"></rect>
                <rect id="çŸ©å½¢å¤‡ä»½-111" stroke-opacity="0.35" stroke="#000000" fill="#FFFFFF" x="54.5" y="82.5" width="15" height="15" rx="2"></rect>
                <g filter="url(#filter-3)" id="å¯¹å·å¤‡ä»½">
                    <g transform="translate(54.000000, 131.000000)">
                        <rect id="çŸ©å½¢" fill="#000000" fill-rule="nonzero" opacity="0" x="0" y="0" width="16" height="16"></rect>
                        <path d="M6.513,12.47 C6.26,12.47 6.008,12.373 5.815,12.18 L1.866,8.215 C1.481,7.828 1.481,7.2 1.866,6.813 C2.252,6.426 2.877,6.426 3.262,6.813 L6.513,10.077 L12.725,3.84 C13.11,3.452 13.735,3.452 14.121,3.84 C14.506,4.227 14.506,4.854 14.121,5.241 L7.211,12.18 C7.018,12.373 6.765,12.47 6.513,12.47 Z" id="è·¯å¾„" fill="#000000" fill-rule="nonzero"></path>
                    </g>
                </g>
                <g filter="url(#filter-4)" id="åˆ é™¤">
                    <g transform="translate(477.000000, 131.000000)">
                        <rect id="çŸ©å½¢" fill="#000000" fill-rule="nonzero" opacity="0" x="0" y="0" width="16" height="16"></rect>
                        <path d="M13.341,5.091 C13.559,5.091 13.7045003,5.236 13.7045003,5.4545 L13.7045003,14.5455 C13.705,15.345 13.05,16 12.25,16 L4.25,16 C3.45,16 2.795,15.345 2.795,14.545 L2.795,5.455 C2.795,5.2365 2.941,5.091 3.159,5.091 L13.341,5.091 Z M6.432,5.091 L6.379,5.094 C6.1905,5.1155 6.068,5.2545 6.068,5.4545 L6.068,12 C6.068,12.218 6.2135,12.3635 6.432,12.3635 C6.65,12.3635 6.7955,12.2185 6.7955,12 L6.7955,5.455 C6.7955,5.2365 6.65,5.091 6.432,5.091 Z M10.068,5.091 L10.015,5.094 C9.827,5.1155 9.705,5.2545 9.705,5.4545 L9.705,12 C9.705,12.218 9.85,12.3635 10.068,12.3635 C10.2865,12.3635 10.432,12.2185 10.432,12 L10.432,5.455 C10.432,5.2365 10.2865,5.091 10.068,5.091 Z M11.159,0 C11.959,0 12.614,0.655 12.614,1.455 L12.6135,2.546 L15.0225,2.546 C15.2986424,2.546 15.5225,2.76985763 15.5225,3.046 L15.5225,4.136 C15.5225,4.41214237 15.2986424,4.636 15.0225,4.636 L1.4775,4.636 C1.20135763,4.636 0.9775,4.41214237 0.9775,4.136 L0.9775,3.046 C0.9775,2.76985763 1.20135763,2.546 1.4775,2.546 L3.8865,2.546 L3.8865,1.4545 C3.88898941,0.685211359 4.48817112,0.049934369 5.256,0.0025 L5.341,0 L11.159,0 Z" id="å½¢çŠ¶" fill="#000000" fill-rule="nonzero"></path>
                    </g>
                </g>
                <g id="é¼ æ ‡æŒ‡é’ˆ" transform="translate(417.000000, 131.000000)" fill="#000000" fill-rule="nonzero">
                    <rect id="çŸ©å½¢" opacity="0" x="0" y="0" width="16" height="16"></rect>
                    <path d="M11.861,9.276 C12.004,9.415 12.0365,9.576 11.959,9.7575 C11.8795,9.9435 11.7445,10.0355 11.549,10.0355 L8.897,10.0355 L10.293,13.3555 C10.3395769,13.4647425 10.3395769,13.5882575 10.293,13.6975 C10.2489036,13.8064982 10.1640689,13.8940233 10.0565,13.9415 L8.8275,14.465 C8.71884741,14.5119119 8.59565259,14.5119119 8.487,14.465 C8.37838227,14.420343 8.29140997,14.3351639 8.2445,14.2275 L6.919,11.0745 L4.7555,13.254 C4.67406431,13.339434 4.56102729,13.3875425 4.443,13.387 C4.3856392,13.3863596 4.3290017,13.3741137 4.2765,13.351 C4.0915,13.271 4,13.135 4,12.9385 L4,2.4485 C4,2.2535 4.0915,2.1155 4.2765,2.036 C4.44064919,1.964116 4.63225034,2.00291623 4.7555,2.133 L11.861,9.276 L11.861,9.276 Z" id="è·¯å¾„"></path>
                </g>
            </g>
        </g>
    </g>
</svg>