<?xml version="1.0" encoding="UTF-8"?>
<svg width="540px" height="285px" viewBox="0 0 540 285" version="1.1" xmlns="http://www.w3.org/2000/svg" xmlns:xlink="http://www.w3.org/1999/xlink">
    <title>3</title>
    <defs>
        <rect id="path-1" x="36" y="17" width="218" height="252" rx="2"></rect>
        <filter x="-7.3%" y="-5.6%" width="114.7%" height="112.7%" filterUnits="objectBoundingBox" id="filter-2">
            <feOffset dx="0" dy="2" in="SourceAlpha" result="shadowOffsetOuter1"></feOffset>
            <feGaussianBlur stdDeviation="5" in="shadowOffsetOuter1" result="shadowBlurOuter1"></feGaussianBlur>
            <feColorMatrix values="0 0 0 0 0   0 0 0 0 0   0 0 0 0 0  0 0 0 0.154938811 0" type="matrix" in="shadowBlurOuter1"></feColorMatrix>
        </filter>
        <rect id="path-3" x="291" y="17" width="218" height="252" rx="2"></rect>
        <filter x="-7.3%" y="-5.6%" width="114.7%" height="112.7%" filterUnits="objectBoundingBox" id="filter-4">
            <feOffset dx="0" dy="2" in="SourceAlpha" result="shadowOffsetOuter1"></feOffset>
            <feGaussianBlur stdDeviation="5" in="shadowOffsetOuter1" result="shadowBlurOuter1"></feGaussianBlur>
            <feColorMatrix values="0 0 0 0 0   0 0 0 0 0   0 0 0 0 0  0 0 0 0.154938811 0" type="matrix" in="shadowBlurOuter1"></feColorMatrix>
        </filter>
        <filter id="filter-5">
            <feColorMatrix in="SourceGraphic" type="matrix" values="0 0 0 0 0.701961 0 0 0 0 0.000000 0 0 0 0 0.000000 0 0 0 1.000000 0"></feColorMatrix>
        </filter>
        <filter id="filter-6">
            <feColorMatrix in="SourceGraphic" type="matrix" values="0 0 0 0 0.000000 0 0 0 0 0.000000 0 0 0 0 0.000000 0 0 0 0.649885 0"></feColorMatrix>
        </filter>
        <filter id="filter-7">
            <feColorMatrix in="SourceGraphic" type="matrix" values="0 0 0 0 0.000000 0 0 0 0 0.000000 0 0 0 0 0.000000 0 0 0 0.649885 0"></feColorMatrix>
        </filter>
    </defs>
    <g id="ðŸ“è®¾è®¡å¸ˆæ¨¡å¼" stroke="none" stroke-width="1" fill="none" fill-rule="evenodd">
        <g id="äº¤äº’åŽŸåˆ™-ç®€åŒ–äº¤äº’" transform="translate(-720.000000, -1485.000000)">
            <g id="3" transform="translate(720.000000, 1485.000000)">
                <rect id="çŸ©å½¢å¤‡ä»½-129" fill="#FFFFFF" x="0" y="0" width="540" height="285"></rect>
                <g id="çŸ©å½¢">
                    <use fill="black" fill-opacity="1" filter="url(#filter-2)" xlink:href="#path-1"></use>
                    <use fill="#FFFFFF" fill-rule="evenodd" xlink:href="#path-1"></use>
                </g>
                <g id="çŸ©å½¢å¤‡ä»½-3">
                    <use fill="black" fill-opacity="1" filter="url(#filter-4)" xlink:href="#path-3"></use>
                    <use fill="#FFFFFF" fill-rule="evenodd" xlink:href="#path-3"></use>
                </g>
                <rect id="çŸ©å½¢å¤‡ä»½" fill-opacity="0.0468203671" fill="#000000" x="36" y="17" width="218" height="177" rx="2"></rect>
                <rect id="çŸ©å½¢å¤‡ä»½-8" fill-opacity="0.0468203671" fill="#000000" x="291" y="17" width="218" height="177" rx="2"></rect>
                <g id="ç¼–ç»„-6" transform="translate(72.000000, 210.000000)">
                    <rect id="çŸ©å½¢å¤‡ä»½-56" fill="#BEBEBE" x="0" y="0" width="119" height="16"></rect>
                    <g filter="url(#filter-5)" id="ç¬”">
                        <g transform="translate(127.000000, 0.000000)">
                            <rect id="çŸ©å½¢" fill="#000000" fill-rule="nonzero" opacity="0" x="0" y="0" width="16" height="16"></rect>
                            <polygon id="è·¯å¾„" fill="#000000" fill-rule="nonzero" points="1.24 14.32 6.6 14.32 6.6 15.12 1.24 15.12"></polygon>
                            <polygon id="è·¯å¾„" fill="#000000" fill-rule="nonzero" points="8.6 14.32 14.48 14.32 14.48 15.12 8.6 15.12"></polygon>
                            <polygon id="è·¯å¾„" fill="#000000" fill-rule="nonzero" points="9.84 2.48 13.2 5.84 5.84 13.2 2.48 9.84"></polygon>
                            <polygon id="è·¯å¾„" fill="#000000" fill-rule="nonzero" points="11.2 1.16 14.56 4.52 13.56 5.52 10.2 2.16"></polygon>
                            <polygon id="è·¯å¾„" fill="#000000" fill-rule="nonzero" points="2.16 10.2 5.52 13.56 0.8 14.88 2.16 10.2"></polygon>
                            <path d="M12.48,1.12 L14.56,3.2 C14.92,3.56 14.88,4.12 14.52,4.48 C14.16,4.84 13.56,4.88 13.24,4.52 L11.16,2.44 C10.8,2.12 10.8,1.52 11.2,1.16 C11.56,0.8 12.12,0.76 12.48,1.12 Z" id="è·¯å¾„" fill="#000000" fill-rule="nonzero"></path>
                        </g>
                    </g>
                </g>
                <g id="ç¼–ç»„" transform="translate(48.000000, 242.000000)">
                    <rect id="çŸ©å½¢å¤‡ä»½-61" fill="#BEBEBE" x="16" y="0" width="37" height="16"></rect>
                    <circle id="æ¤­åœ†å½¢" fill="#1EB100" cx="4" cy="8" r="4"></circle>
                </g>
                <g id="ç¼–ç»„å¤‡ä»½" transform="translate(303.000000, 242.000000)">
                    <rect id="çŸ©å½¢å¤‡ä»½-61" fill="#BEBEBE" x="16" y="0" width="37" height="16"></rect>
                    <circle id="æ¤­åœ†å½¢" fill="#1EB100" cx="4" cy="8" r="4"></circle>
                </g>
                <g id="ç¼–ç»„-2" transform="translate(186.000000, 242.000000)">
                    <rect id="çŸ©å½¢å¤‡ä»½-63" fill="#BEBEBE" x="16" y="7.10542736e-15" width="37" height="16"></rect>
                    <circle id="æ¤­åœ†å½¢å¤‡ä»½-2" fill="#ED220D" cx="4" cy="8" r="4"></circle>
                </g>
                <g id="ç¼–ç»„-2å¤‡ä»½" transform="translate(441.000000, 242.000000)">
                    <rect id="çŸ©å½¢å¤‡ä»½-63" fill="#BEBEBE" x="16" y="7.10542736e-15" width="37" height="16"></rect>
                    <circle id="æ¤­åœ†å½¢å¤‡ä»½-2" fill="#ED220D" cx="4" cy="8" r="4"></circle>
                </g>
                <g id="ç¼–ç»„-5" transform="translate(117.000000, 242.000000)">
                    <rect id="çŸ©å½¢å¤‡ä»½-64" fill="#BEBEBE" x="16" y="0" width="37" height="16"></rect>
                    <circle id="æ¤­åœ†å½¢å¤‡ä»½-3" fill="#D8D8D8" cx="4" cy="8" r="4"></circle>
                </g>
                <g id="ç¼–ç»„-5å¤‡ä»½" transform="translate(372.000000, 242.000000)">
                    <rect id="çŸ©å½¢å¤‡ä»½-64" fill="#BEBEBE" x="16" y="0" width="37" height="16"></rect>
                    <circle id="æ¤­åœ†å½¢å¤‡ä»½-3" fill="#D8D8D8" cx="4" cy="8" r="4"></circle>
                </g>
                <g filter="url(#filter-6)" id="æ›´å¤šæ“ä½œ">
                    <g transform="translate(46.000000, 36.000000)">
                        <rect id="çŸ©å½¢" fill="#000000" fill-rule="nonzero" opacity="0" x="0" y="0" width="16" height="16"></rect>
                        <path d="M8.2515,1.011 C12.1125,1.011 15.244,4.142 15.244,8.003 C15.244,11.864 12.1125,14.9955 8.2515,14.9955 C4.3905,14.9955 1.2595,11.864 1.2595,8.003 C1.2595,4.142 4.3905,1.011 8.2515,1.011 Z M4.255,7.006 C3.7043721,7.006 3.258,7.4523721 3.258,8.003 C3.258,8.5536279 3.7043721,9 4.255,9 C4.8056279,9 5.252,8.5536279 5.252,8.003 C5.252,7.4523721 4.8056279,7.006 4.255,7.006 Z M8.255,7.006 C7.7043721,7.006 7.258,7.4523721 7.258,8.003 C7.258,8.5536279 7.7043721,9 8.255,9 C8.8056279,9 9.252,8.5536279 9.252,8.003 C9.252,7.4523721 8.8056279,7.006 8.255,7.006 Z M12.246,7.006 C11.6953721,7.006 11.249,7.4523721 11.249,8.003 C11.249,8.5536279 11.6953721,9 12.246,9 C12.7966279,9 13.243,8.5536279 13.243,8.003 C13.243,7.4523721 12.7966279,7.006 12.246,7.006 Z" id="å½¢çŠ¶" fill="#000000" fill-rule="nonzero"></path>
                    </g>
                </g>
                <g filter="url(#filter-7)" id="æ›´å¤šæ“ä½œå¤‡ä»½">
                    <g transform="translate(301.000000, 36.000000)">
                        <rect id="çŸ©å½¢" fill="#000000" fill-rule="nonzero" opacity="0" x="0" y="0" width="16" height="16"></rect>
                        <path d="M8.2515,1.011 C12.1125,1.011 15.244,4.142 15.244,8.003 C15.244,11.864 12.1125,14.9955 8.2515,14.9955 C4.3905,14.9955 1.2595,11.864 1.2595,8.003 C1.2595,4.142 4.3905,1.011 8.2515,1.011 Z M4.255,7.006 C3.7043721,7.006 3.258,7.4523721 3.258,8.003 C3.258,8.5536279 3.7043721,9 4.255,9 C4.8056279,9 5.252,8.5536279 5.252,8.003 C5.252,7.4523721 4.8056279,7.006 4.255,7.006 Z M8.255,7.006 C7.7043721,7.006 7.258,7.4523721 7.258,8.003 C7.258,8.5536279 7.7043721,9 8.255,9 C8.8056279,9 9.252,8.5536279 9.252,8.003 C9.252,7.4523721 8.8056279,7.006 8.255,7.006 Z M12.246,7.006 C11.6953721,7.006 11.249,7.4523721 11.249,8.003 C11.249,8.5536279 11.6953721,9 12.246,9 C12.7966279,9 13.243,8.5536279 13.243,8.003 C13.243,7.4523721 12.7966279,7.006 12.246,7.006 Z" id="å½¢çŠ¶" fill="#000000" fill-rule="nonzero"></path>
                    </g>
                </g>
                <rect id="çŸ©å½¢" stroke-opacity="0.35" stroke="#000000" fill="#FFFFFF" x="323.5" y="207.5" width="153" height="22" rx="2"></rect>
                <text id="è¾“å…¥æ–‡æœ¬" font-family="PingFangSC-Regular, PingFang SC" font-size="12" font-weight="normal" fill="#000000" fill-opacity="0.85">
                    <tspan x="332" y="222">è¾“å…¥æ–‡æœ¬</tspan>
                </text>
                <rect id="çŸ©å½¢" fill-opacity="0.85" fill="#000000" x="383" y="211" width="1" height="14"></rect>
            </g>
        </g>
    </g>
</svg>