<?xml version="1.0" encoding="UTF-8"?>
<svg width="540px" height="277px" viewBox="0 0 540 277" version="1.1" xmlns="http://www.w3.org/2000/svg" xmlns:xlink="http://www.w3.org/1999/xlink">
    <title>4</title>
    <defs>
        <rect id="path-1" x="17" y="65" width="92" height="48"></rect>
        <mask id="mask-2" maskContentUnits="userSpaceOnUse" maskUnits="objectBoundingBox" x="0" y="0" width="92" height="48" fill="white">
            <use xlink:href="#path-1"></use>
        </mask>
    </defs>
    <g id="ðŸ“è®¾è®¡å¸ˆæ¨¡å¼" stroke="none" stroke-width="1" fill="none" fill-rule="evenodd">
        <g id="äº¤äº’åŽŸåˆ™-ç®€åŒ–äº¤äº’" transform="translate(-720.000000, -1867.000000)">
            <g id="4" transform="translate(720.000000, 1867.000000)">
                <rect id="çŸ©å½¢å¤‡ä»½-108" fill="#FFFFFF" x="0" y="0" width="540" height="277"></rect>
                <rect id="çŸ©å½¢å¤‡ä»½-112" fill-opacity="0.0468203671" fill="#000000" x="18" y="25" width="500" height="40"></rect>
                <rect id="çŸ©å½¢å¤‡ä»½-119" fill-opacity="0.0468203671" fill="#000000" x="18" y="156" width="500" height="40"></rect>
                <rect id="çŸ©å½¢å¤‡ä»½-113" fill="#BEBEBE" x="135" y="81" width="127" height="16"></rect>
                <rect id="çŸ©å½¢å¤‡ä»½-120" fill="#BEBEBE" x="135" y="212" width="127" height="16"></rect>
                <rect id="çŸ©å½¢å¤‡ä»½-114" fill="#BEBEBE" x="135" y="37" width="107" height="16"></rect>
                <rect id="çŸ©å½¢å¤‡ä»½-121" fill="#BEBEBE" x="135" y="168" width="107" height="16"></rect>
                <rect id="çŸ©å½¢å¤‡ä»½-115" fill="#BEBEBE" x="327" y="37" width="61" height="16"></rect>
                <rect id="çŸ©å½¢å¤‡ä»½-126" fill="#BEBEBE" x="433" y="37" width="61" height="16"></rect>
                <rect id="çŸ©å½¢å¤‡ä»½-122" fill="#BEBEBE" x="327" y="168" width="61" height="16"></rect>
                <rect id="çŸ©å½¢å¤‡ä»½-128" fill="#BEBEBE" x="433" y="168" width="61" height="16"></rect>
                <use id="çŸ©å½¢å¤‡ä»½-25" stroke-opacity="0.35" stroke="#000000" mask="url(#mask-2)" stroke-width="2" fill="#FFF1F1" stroke-dasharray="3" xlink:href="#path-1"></use>
                <rect id="çŸ©å½¢å¤‡ä»½-116" fill="#BEBEBE" x="327" y="81" width="61" height="16"></rect>
                <rect id="çŸ©å½¢å¤‡ä»½-127" fill="#BEBEBE" x="433" y="81" width="61" height="16"></rect>
                <rect id="çŸ©å½¢å¤‡ä»½-123" fill="#BEBEBE" x="327" y="212" width="61" height="16"></rect>
                <rect id="çŸ©å½¢å¤‡ä»½-117" stroke-opacity="0.35" stroke="#000000" fill="#FFFFFF" x="54.5" y="37.5" width="15" height="15" rx="2"></rect>
                <rect id="çŸ©å½¢å¤‡ä»½-124" stroke-opacity="0.35" stroke="#000000" fill="#FFFFFF" x="54.5" y="168.5" width="15" height="15" rx="2"></rect>
                <rect id="çŸ©å½¢å¤‡ä»½-118" stroke-opacity="0.35" stroke="#000000" fill="#FFFFFF" x="54.5" y="81.5" width="15" height="15" rx="2"></rect>
                <rect id="çŸ©å½¢å¤‡ä»½-125" stroke-opacity="0.35" stroke="#000000" fill="#FFFFFF" x="54.5" y="212.5" width="15" height="15" rx="2"></rect>
                <rect id="çŸ©å½¢å¤‡ä»½-28" fill-opacity="0.154938811" fill="#000000" x="23" y="113" width="500" height="1"></rect>
                <rect id="çŸ©å½¢å¤‡ä»½-29" fill-opacity="0.154938811" fill="#000000" x="23" y="244" width="500" height="1"></rect>
                <g id="æ‰‹æŒ‡" transform="translate(85.000000, 97.000000)" fill="#000000" fill-rule="nonzero">
                    <rect id="çŸ©å½¢" opacity="0" x="0" y="0" width="24" height="24"></rect>
                    <path d="M9.50467575,5.53708962 C9.8352685,5.53652311 10.1926744,5.62876224 10.5528716,5.89953099 C10.8351137,6.11169906 11.1263459,6.44327532 11.3998638,6.9561865 L11.3998638,6.9561865 L11.4181024,11.9451021 C11.7081596,11.824058 12.0386089,11.7471308 12.3975452,11.7621218 C12.8663781,11.7834361 13.4033058,11.9500876 13.9676586,12.4331117 C14.6960206,11.9222783 15.1153754,11.803784 15.546748,11.8134318 C15.9972353,11.8279689 16.5266226,11.9898545 17.1007392,12.4855885 C17.7568196,11.926345 18.1664364,11.7651961 18.597596,11.8029206 C18.9260324,11.8301235 19.2947546,11.9660428 19.6710204,12.340015 C19.9418879,12.6092313 20.2260253,13.0167377 20.5,13.6269512 L20.5,13.6269512 L20.5,21.5579492 C20.4964746,21.5938906 20.5231475,22.5094516 18.85828,23.5 L18.85828,23.5 L9.01961782,23.5 L3.54700525,16.7058104 C3.5109888,16.4873115 3.44440532,15.8631752 3.63828147,15.2869107 C3.75945731,14.9276937 3.97461733,14.5955617 4.30661047,14.3735092 C4.73125868,14.0877495 5.39703445,13.9106988 6.53761378,14.4049245 C6.86587973,14.5513254 7.15090841,14.7305581 7.39660662,14.9231051 L7.39660662,14.9231051 L7.43613455,6.95767214 C7.55435186,6.74809959 8.45469531,5.53708888 9.50467575,5.53708962 Z M9.39500117,1.50000434 C11.0222215,1.50000434 12.4957119,2.15579623 13.5621984,3.2157821 C14.6708178,4.3146257 15.2927363,5.80743217 15.2907423,7.36285346 C15.2907423,8.48717788 14.9687414,9.53217734 14.4134077,10.4196823 C13.6998901,11.5599887 12.6003072,12.4400208 11.3026307,12.8914175 L11.3026307,12.8914175 L11.3026307,9.86757662 C12.0677821,9.28529793 12.5771253,8.37658457 12.5771257,7.34129175 C12.5781986,6.49842937 12.2410636,5.69002536 11.6398945,5.09385825 C11.0397645,4.49570237 10.2244174,4.1602553 9.37341969,4.16132447 C8.52380423,4.16042748 7.70872328,4.49586151 7.10775273,5.09485196 C6.50724311,5.69002077 6.16986861,6.49843813 6.1707698,7.3419282 C6.1707698,8.39844058 6.70294845,9.3195418 7.49564274,9.9021076 L7.49564274,9.9021076 L7.49564274,12.8922219 C6.13947836,12.4258039 5.00742901,11.4952614 4.29065164,10.2787023 C3.77107116,9.39353546 3.49820521,8.38675562 3.50000811,7.36285346 C3.50000811,5.7440699 4.15995464,4.27793847 5.22683138,3.21674876 C6.33126229,2.11603572 7.83151854,1.49802438 9.39500117,1.50000434 Z" id="å½¢çŠ¶" stroke="#FFFFFF" fill-opacity="0.85"></path>
                </g>
                <rect id="çŸ©å½¢å¤‡ä»½-75" stroke="#B30000" fill="#FFFFFF" x="433.5" y="208.5" width="59" height="23" rx="2"></rect>
                <text id="ç¼–è¾‘" font-family="PingFangSC-Regular, PingFang SC" font-size="14" font-weight="normal" fill="#B30000">
                    <tspan x="449" y="225">ç¼–è¾‘</tspan>
                </text>
                <g id="æ‰‹æŒ‡å¤‡ä»½" transform="translate(479.000000, 221.000000)" fill="#000000" fill-rule="nonzero">
                    <rect id="çŸ©å½¢" opacity="0" x="0" y="0" width="24" height="24"></rect>
                    <path d="M9.50467575,5.53708962 C9.8352685,5.53652311 10.1926744,5.62876224 10.5528716,5.89953099 C10.8351137,6.11169906 11.1263459,6.44327532 11.3998638,6.9561865 L11.3998638,6.9561865 L11.4181024,11.9451021 C11.7081596,11.824058 12.0386089,11.7471308 12.3975452,11.7621218 C12.8663781,11.7834361 13.4033058,11.9500876 13.9676586,12.4331117 C14.6960206,11.9222783 15.1153754,11.803784 15.546748,11.8134318 C15.9972353,11.8279689 16.5266226,11.9898545 17.1007392,12.4855885 C17.7568196,11.926345 18.1664364,11.7651961 18.597596,11.8029206 C18.9260324,11.8301235 19.2947546,11.9660428 19.6710204,12.340015 C19.9418879,12.6092313 20.2260253,13.0167377 20.5,13.6269512 L20.5,13.6269512 L20.5,21.5579492 C20.4964746,21.5938906 20.5231475,22.5094516 18.85828,23.5 L18.85828,23.5 L9.01961782,23.5 L3.54700525,16.7058104 C3.5109888,16.4873115 3.44440532,15.8631752 3.63828147,15.2869107 C3.75945731,14.9276937 3.97461733,14.5955617 4.30661047,14.3735092 C4.73125868,14.0877495 5.39703445,13.9106988 6.53761378,14.4049245 C6.86587973,14.5513254 7.15090841,14.7305581 7.39660662,14.9231051 L7.39660662,14.9231051 L7.43613455,6.95767214 C7.55435186,6.74809959 8.45469531,5.53708888 9.50467575,5.53708962 Z M9.39500117,1.50000434 C11.0222215,1.50000434 12.4957119,2.15579623 13.5621984,3.2157821 C14.6708178,4.3146257 15.2927363,5.80743217 15.2907423,7.36285346 C15.2907423,8.48717788 14.9687414,9.53217734 14.4134077,10.4196823 C13.6998901,11.5599887 12.6003072,12.4400208 11.3026307,12.8914175 L11.3026307,12.8914175 L11.3026307,9.86757662 C12.0677821,9.28529793 12.5771253,8.37658457 12.5771257,7.34129175 C12.5781986,6.49842937 12.2410636,5.69002536 11.6398945,5.09385825 C11.0397645,4.49570237 10.2244174,4.1602553 9.37341969,4.16132447 C8.52380423,4.16042748 7.70872328,4.49586151 7.10775273,5.09485196 C6.50724311,5.69002077 6.16986861,6.49843813 6.1707698,7.3419282 C6.1707698,8.39844058 6.70294845,9.3195418 7.49564274,9.9021076 L7.49564274,9.9021076 L7.49564274,12.8922219 C6.13947836,12.4258039 5.00742901,11.4952614 4.29065164,10.2787023 C3.77107116,9.39353546 3.49820521,8.38675562 3.50000811,7.36285346 C3.50000811,5.7440699 4.15995464,4.27793847 5.22683138,3.21674876 C6.33126229,2.11603572 7.83151854,1.49802438 9.39500117,1.50000434 Z" id="å½¢çŠ¶" stroke="#FFFFFF" fill-opacity="0.85"></path>
                </g>
            </g>
        </g>
    </g>
</svg>