<?xml version="1.0" encoding="UTF-8"?>
<svg width="540px" height="221px" viewBox="0 0 540 221" version="1.1" xmlns="http://www.w3.org/2000/svg" xmlns:xlink="http://www.w3.org/1999/xlink">
    <title>1</title>
    <defs>
        <filter id="filter-1">
            <feColorMatrix in="SourceGraphic" type="matrix" values="0 0 0 0 0.701961 0 0 0 0 0.000000 0 0 0 0 0.000000 0 0 0 1.000000 0"></feColorMatrix>
        </filter>
        <filter id="filter-2">
            <feColorMatrix in="SourceGraphic" type="matrix" values="0 0 0 0 0.701961 0 0 0 0 0.000000 0 0 0 0 0.000000 0 0 0 1.000000 0"></feColorMatrix>
        </filter>
        <filter id="filter-3">
            <feColorMatrix in="SourceGraphic" type="matrix" values="0 0 0 0 0.701961 0 0 0 0 0.000000 0 0 0 0 0.000000 0 0 0 1.000000 0"></feColorMatrix>
        </filter>
    </defs>
    <g id="ðŸ“è®¾è®¡å¸ˆæ¨¡å¼" stroke="none" stroke-width="1" fill="none" fill-rule="evenodd">
        <g id="è®¾è®¡åŽŸåˆ™-é‡å¤" transform="translate(-720.000000, -711.000000)">
            <g id="1" transform="translate(720.000000, 711.000000)">
                <rect id="çŸ©å½¢" fill="#FFFFFF" x="0" y="0" width="540" height="221"></rect>
                <rect id="çŸ©å½¢" stroke="#B30000" fill="#FFFFFF" x="15.5" y="17.5" width="245" height="79" rx="2"></rect>
                <rect id="çŸ©å½¢å¤‡ä»½-7" stroke="#B30000" fill="#FFFFFF" x="15.5" y="112.5" width="245" height="79" rx="2"></rect>
                <rect id="çŸ©å½¢å¤‡ä»½-9" stroke="#B30000" fill="#FFFFFF" x="278.5" y="112.5" width="245" height="79" rx="2"></rect>
                <rect id="çŸ©å½¢å¤‡ä»½" stroke="#FEAE00" fill="#FFFFFF" x="278.5" y="17.5" width="245" height="79" rx="2"></rect>
                <path d="M17,17 L259,17 C260.104569,17 261,17.8954305 261,19 L261,43 L261,43 L15,43 L15,19 C15,17.8954305 15.8954305,17 17,17 Z" id="çŸ©å½¢" fill-opacity="0.0468203671" fill="#000000"></path>
                <path d="M17,112 L259,112 C260.104569,112 261,112.895431 261,114 L261,138 L261,138 L15,138 L15,114 C15,112.895431 15.8954305,112 17,112 Z" id="çŸ©å½¢å¤‡ä»½-8" fill-opacity="0.0468203671" fill="#000000"></path>
                <path d="M280,112 L522,112 C523.104569,112 524,112.895431 524,114 L524,138 L524,138 L278,138 L278,114 C278,112.895431 278.895431,112 280,112 Z" id="çŸ©å½¢å¤‡ä»½-10" fill-opacity="0.0468203671" fill="#000000"></path>
                <path d="M280,17 L522,17 C523.104569,17 524,17.8954305 524,19 L524,43 L524,43 L278,43 L278,19 C278,17.8954305 278.895431,17 280,17 Z" id="çŸ©å½¢å¤‡ä»½-6" fill-opacity="0.0468203671" fill="#000000"></path>
                <rect id="çŸ©å½¢å¤‡ä»½-51" fill="#BEBEBE" x="26" y="25" width="46" height="10"></rect>
                <rect id="çŸ©å½¢å¤‡ä»½-59" fill="#BEBEBE" x="26" y="120" width="46" height="10"></rect>
                <rect id="çŸ©å½¢å¤‡ä»½-63" fill="#BEBEBE" x="289" y="120" width="46" height="10"></rect>
                <rect id="çŸ©å½¢å¤‡ä»½-55" fill="#BEBEBE" x="289" y="25" width="46" height="10"></rect>
                <rect id="çŸ©å½¢å¤‡ä»½-54" fill="#BEBEBE" x="231" y="73" width="22" height="10"></rect>
                <rect id="çŸ©å½¢å¤‡ä»½-60" fill="#BEBEBE" x="231" y="168" width="22" height="10"></rect>
                <rect id="çŸ©å½¢å¤‡ä»½-64" fill="#BEBEBE" x="494" y="168" width="22" height="10"></rect>
                <rect id="çŸ©å½¢å¤‡ä»½-56" fill="#BEBEBE" x="494" y="73" width="22" height="10"></rect>
                <rect id="çŸ©å½¢å¤‡ä»½-52" fill="#BEBEBE" x="26" y="53" width="106" height="10"></rect>
                <rect id="çŸ©å½¢å¤‡ä»½-61" fill="#BEBEBE" x="26" y="148" width="106" height="10"></rect>
                <rect id="çŸ©å½¢å¤‡ä»½-65" fill="#BEBEBE" x="289" y="148" width="106" height="10"></rect>
                <rect id="çŸ©å½¢å¤‡ä»½-57" fill="#BEBEBE" x="289" y="53" width="106" height="10"></rect>
                <rect id="çŸ©å½¢å¤‡ä»½-53" fill="#BEBEBE" x="26" y="73" width="147" height="10"></rect>
                <rect id="çŸ©å½¢å¤‡ä»½-62" fill="#BEBEBE" x="26" y="168" width="147" height="10"></rect>
                <rect id="çŸ©å½¢å¤‡ä»½-66" fill="#BEBEBE" x="289" y="168" width="147" height="10"></rect>
                <rect id="çŸ©å½¢å¤‡ä»½-58" fill="#BEBEBE" x="289" y="73" width="147" height="10"></rect>
                <g filter="url(#filter-1)" id="æ‰§è¡Œå¼‚å¸¸">
                    <g transform="translate(234.000000, 22.000000)">
                        <rect id="çŸ©å½¢" fill="#000000" fill-rule="nonzero" opacity="0" x="0" y="0" width="16" height="16"></rect>
                        <path d="M13.605,13.795 C15.039,13.7935 15.625,12.7775 14.9075,11.536 L9.4065,2.025 C8.689,0.784 7.5155,0.785 6.7995,2.027 L1.3125,11.546 C0.5965,12.7885 1.184,13.804 2.6175,13.8025017 L13.6055,13.7945 L13.605,13.795 Z M8.1195,4.4075 C8.693,4.4075 9.122,5.58 9.0725,7.0125 L9.0725,7.016 C9.023,8.449 8.9675,9.621 8.9485,9.621 L7.313,9.621 C7.27,9.621 7.199,8.4485 7.1555,7.015 L7.1555,7.013 C7.112,5.58 7.5455,4.407 8.1195,4.407 L8.1195,4.4075 Z M7.142,11.283 C7.142,10.7251924 7.5941924,10.273 8.152,10.273 C8.7098076,10.273 9.162,10.7251924 9.162,11.283 C9.162,11.8408076 8.70980759,12.293 8.152,12.293 C7.59419241,12.293 7.142,11.8408076 7.142,11.283 Z" id="å½¢çŠ¶" fill="#000000" fill-rule="nonzero"></path>
                    </g>
                </g>
                <g filter="url(#filter-2)" id="æ‰§è¡Œå¼‚å¸¸å¤‡ä»½-2">
                    <g transform="translate(234.000000, 117.000000)">
                        <rect id="çŸ©å½¢" fill="#000000" fill-rule="nonzero" opacity="0" x="0" y="0" width="16" height="16"></rect>
                        <path d="M13.605,13.795 C15.039,13.7935 15.625,12.7775 14.9075,11.536 L9.4065,2.025 C8.689,0.784 7.5155,0.785 6.7995,2.027 L1.3125,11.546 C0.5965,12.7885 1.184,13.804 2.6175,13.8025017 L13.6055,13.7945 L13.605,13.795 Z M8.1195,4.4075 C8.693,4.4075 9.122,5.58 9.0725,7.0125 L9.0725,7.016 C9.023,8.449 8.9675,9.621 8.9485,9.621 L7.313,9.621 C7.27,9.621 7.199,8.4485 7.1555,7.015 L7.1555,7.013 C7.112,5.58 7.5455,4.407 8.1195,4.407 L8.1195,4.4075 Z M7.142,11.283 C7.142,10.7251924 7.5941924,10.273 8.152,10.273 C8.7098076,10.273 9.162,10.7251924 9.162,11.283 C9.162,11.8408076 8.70980759,12.293 8.152,12.293 C7.59419241,12.293 7.142,11.8408076 7.142,11.283 Z" id="å½¢çŠ¶" fill="#000000" fill-rule="nonzero"></path>
                    </g>
                </g>
                <g filter="url(#filter-3)" id="æ‰§è¡Œå¼‚å¸¸å¤‡ä»½-3">
                    <g transform="translate(497.000000, 117.000000)">
                        <rect id="çŸ©å½¢" fill="#000000" fill-rule="nonzero" opacity="0" x="0" y="0" width="16" height="16"></rect>
                        <path d="M13.605,13.795 C15.039,13.7935 15.625,12.7775 14.9075,11.536 L9.4065,2.025 C8.689,0.784 7.5155,0.785 6.7995,2.027 L1.3125,11.546 C0.5965,12.7885 1.184,13.804 2.6175,13.8025017 L13.6055,13.7945 L13.605,13.795 Z M8.1195,4.4075 C8.693,4.4075 9.122,5.58 9.0725,7.0125 L9.0725,7.016 C9.023,8.449 8.9675,9.621 8.9485,9.621 L7.313,9.621 C7.27,9.621 7.199,8.4485 7.1555,7.015 L7.1555,7.013 C7.112,5.58 7.5455,4.407 8.1195,4.407 L8.1195,4.4075 Z M7.142,11.283 C7.142,10.7251924 7.5941924,10.273 8.152,10.273 C8.7098076,10.273 9.162,10.7251924 9.162,11.283 C9.162,11.8408076 8.70980759,12.293 8.152,12.293 C7.59419241,12.293 7.142,11.8408076 7.142,11.283 Z" id="å½¢çŠ¶" fill="#000000" fill-rule="nonzero"></path>
                    </g>
                </g>
                <g id="æé†’ï¼ˆé¢ï¼‰" transform="translate(497.000000, 22.000000)" fill-rule="nonzero">
                    <rect id="çŸ©å½¢" fill="#000000" opacity="0" x="0" y="0.0156097561" width="15.9843902" height="15.9843902"></rect>
                    <path d="M12.900402,12.435481 L12.4838088,12.435481 L12.4838088,5.7560039 C12.4846415,3.33007866 10.6642957,1.29003598 8.25393951,1.01563317 L8.25393951,0.568070244 C8.26244689,0.371064271 8.16219175,0.185270865 7.99285653,0.0842297326 C7.8235213,-0.0168113996 7.61240455,-0.0168113996 7.44306933,0.0842297326 C7.2737341,0.185270865 7.17347896,0.371064271 7.18198634,0.568070244 L7.18198634,1.01463415 C4.77123397,1.28856727 2.95034302,3.32873908 2.95111805,5.75500488 L2.95111805,12.434482 L2.53452488,12.434482 C2.23796144,12.434482 1.99754927,12.6748941 1.99754927,12.9714576 C1.99754927,13.268021 2.23796144,13.5084332 2.53452488,13.5084332 L6.64551024,13.5084332 L6.64551024,14.2237346 C6.64551024,14.815758 7.12544003,15.2956878 7.71746341,15.2956878 C8.3094868,15.2956878 8.78941659,14.815758 8.78941659,14.2237346 L8.78941659,13.5084332 L12.900402,13.5084332 C13.1969654,13.5084332 13.4373776,13.268021 13.4373776,12.9714576 C13.4373776,12.6748941 13.1969654,12.434482 12.900402,12.434482 L12.900402,12.435481 Z" id="è·¯å¾„" fill="#FEAE00"></path>
                </g>
            </g>
        </g>
    </g>
</svg>