<?xml version="1.0" encoding="UTF-8"?>
<svg width="540px" height="229px" viewBox="0 0 540 229" version="1.1" xmlns="http://www.w3.org/2000/svg" xmlns:xlink="http://www.w3.org/1999/xlink">
    <title>2</title>
    <defs>
        <filter id="filter-1">
            <feColorMatrix in="SourceGraphic" type="matrix" values="0 0 0 0 0.701961 0 0 0 0 0.000000 0 0 0 0 0.000000 0 0 0 1.000000 0"></feColorMatrix>
        </filter>
        <filter id="filter-2">
            <feColorMatrix in="SourceGraphic" type="matrix" values="0 0 0 0 0.701961 0 0 0 0 0.000000 0 0 0 0 0.000000 0 0 0 1.000000 0"></feColorMatrix>
        </filter>
        <filter id="filter-3">
            <feColorMatrix in="SourceGraphic" type="matrix" values="0 0 0 0 0.701961 0 0 0 0 0.000000 0 0 0 0 0.000000 0 0 0 1.000000 0"></feColorMatrix>
        </filter>
        <filter id="filter-4">
            <feColorMatrix in="SourceGraphic" type="matrix" values="0 0 0 0 0.701961 0 0 0 0 0.000000 0 0 0 0 0.000000 0 0 0 1.000000 0"></feColorMatrix>
        </filter>
        <filter id="filter-5">
            <feColorMatrix in="SourceGraphic" type="matrix" values="0 0 0 0 0.701961 0 0 0 0 0.000000 0 0 0 0 0.000000 0 0 0 1.000000 0"></feColorMatrix>
        </filter>
        <filter id="filter-6">
            <feColorMatrix in="SourceGraphic" type="matrix" values="0 0 0 0 0.701961 0 0 0 0 0.000000 0 0 0 0 0.000000 0 0 0 1.000000 0"></feColorMatrix>
        </filter>
    </defs>
    <g id="ðŸ“è®¾è®¡å¸ˆæ¨¡å¼" stroke="none" stroke-width="1" fill="none" fill-rule="evenodd">
        <g id="è®¾è®¡åŽŸåˆ™-é‡å¤" transform="translate(-720.000000, -1029.000000)">
            <g id="2" transform="translate(720.000000, 1029.000000)">
                <rect id="çŸ©å½¢" fill="#FFFFFF" x="0" y="0" width="540" height="229"></rect>
                <g id="ç¼–ç»„" transform="translate(52.000000, 39.000000)" fill="#BEBEBE">
                    <rect id="çŸ©å½¢å¤‡ä»½-67" x="0" y="0" width="46" height="10"></rect>
                    <rect id="çŸ©å½¢å¤‡ä»½-68" fill-opacity="0.4" x="0" y="26" width="106" height="10"></rect>
                </g>
                <rect id="çŸ©å½¢å¤‡ä»½-67" fill="#BEBEBE" x="52" y="137" width="46" height="10"></rect>
                <rect id="çŸ©å½¢å¤‡ä»½-68" fill-opacity="0.4" fill="#BEBEBE" x="52" y="163" width="106" height="10"></rect>
                <g id="ç¼–ç»„å¤‡ä»½" transform="translate(218.000000, 39.000000)" fill="#BEBEBE">
                    <rect id="çŸ©å½¢å¤‡ä»½-67" x="0" y="0" width="46" height="10"></rect>
                    <rect id="çŸ©å½¢å¤‡ä»½-68" fill-opacity="0.4" x="0" y="26" width="106" height="10"></rect>
                </g>
                <g id="ç¼–ç»„å¤‡ä»½-4" transform="translate(218.000000, 137.000000)" fill="#BEBEBE">
                    <rect id="çŸ©å½¢å¤‡ä»½-67" x="0" y="0" width="46" height="10"></rect>
                    <rect id="çŸ©å½¢å¤‡ä»½-68" fill-opacity="0.4" x="0" y="26" width="106" height="10"></rect>
                </g>
                <g id="ç¼–ç»„å¤‡ä»½-2" transform="translate(384.000000, 39.000000)" fill="#BEBEBE">
                    <rect id="çŸ©å½¢å¤‡ä»½-67" x="0" y="0" width="46" height="10"></rect>
                    <rect id="çŸ©å½¢å¤‡ä»½-68" fill-opacity="0.4" x="0" y="26" width="106" height="10"></rect>
                </g>
                <g id="ç¼–ç»„å¤‡ä»½-5" transform="translate(384.000000, 137.000000)" fill="#BEBEBE">
                    <rect id="çŸ©å½¢å¤‡ä»½-67" x="0" y="0" width="46" height="10"></rect>
                    <rect id="çŸ©å½¢å¤‡ä»½-68" fill-opacity="0.4" x="0" y="26" width="106" height="10"></rect>
                </g>
                <g filter="url(#filter-1)" id="è®¾ç½®">
                    <g transform="translate(28.000000, 39.000000)">
                        <rect id="çŸ©å½¢" fill="#000000" fill-rule="nonzero" opacity="0" x="0" y="0" width="16" height="16"></rect>
                        <path d="M8.203,5.461 C6.819,5.461 5.686,6.603 5.686,8.0015 C5.686,9.3985 6.8185,10.542 8.203,10.542 C9.5875,10.542 10.7205,9.4 10.7205,8.002 C10.7205,6.603 9.5875,5.461 8.203,5.461 L8.203,5.461 Z M6.189,1.333 C6.4405,1.333 6.7235,1.428 6.881,1.5875 C7.0705,1.8095 7.731,2.3815 8.2345,2.3815 C8.7375,2.3815 9.3985,1.8095 9.5875,1.6185 C9.7455,1.4285 10.028,1.333 10.2795,1.333 C10.4375,1.333 10.531,1.333 10.658,1.397 L10.689,1.397 L12.419,2.3815 L12.45,2.3815 C12.795,2.636 12.922,3.111 12.764,3.492 C12.764,3.492 12.606,3.842 12.606,4.1595 C12.606,5.1125 13.361,5.8735 14.3045,5.8735 L14.367,5.8735 C14.681,5.8735 14.933,6.1595 15.028,6.6035 C15.0595,6.6345 15.186,7.397 15.186,8 C15.186,8.6345 15.028,9.397 15.028,9.397 C14.9655,9.8405 14.683,10.127 14.367,10.127 L14.3045,10.127 C13.361,10.127 12.606,10.889 12.606,11.8405 C12.606,12.158 12.764,12.508 12.764,12.508 C12.922,12.889 12.7955,13.333 12.45,13.5875 L12.4185,13.5875 L10.689,14.572 L10.658,14.572 C10.564,14.603 10.4375,14.6360257 10.3125,14.6360257 C10.0295,14.6360257 9.747,14.5095 9.589,14.319 C9.4,14.097 8.708,13.494 8.2045,13.494 C7.733,13.494 7.103,14.0655 6.8515,14.319 C6.67915151,14.5219199 6.42572629,14.6380121 6.1595,14.6360257 C6.0015,14.6360257 5.908,14.6360257 5.781,14.572 L5.75,14.572 L4.0515,13.619 L4.0205,13.619 C3.67649155,13.3629145 3.54644532,12.9082646 3.703,12.509 C3.703,12.509 3.861,12.159 3.861,11.842 C3.861,10.889 3.106,10.128 2.1625,10.128 L2.1,10.128 C1.786,10.128 1.5345,9.842 1.439,9.398 C1.408,9.367 1.281,8.6045 1.281,8.0015 C1.281,7.4295 1.408,6.669 1.439,6.6045 C1.5015,6.161 1.784,5.875 2.1,5.875 L2.1315,5.875 C3.075,5.875 3.8295,5.1125 3.8295,4.161 C3.8295,3.844 3.672,3.494 3.672,3.494 C3.514,3.1125 3.6405,2.669 3.986,2.414 L4.017,2.414 L5.811,1.3985 L5.842,1.3985 C5.9375,1.364 6.064,1.333 6.189,1.333 Z" id="å½¢çŠ¶" fill="#000000" fill-rule="nonzero"></path>
                    </g>
                </g>
                <g filter="url(#filter-2)" id="ç”µè„‘">
                    <g transform="translate(194.000000, 39.000000)">
                        <rect id="çŸ©å½¢" fill="#000000" fill-rule="nonzero" opacity="0" x="0" y="0" width="16" height="16"></rect>
                        <path d="M1.13357575,12.4518788 L7.14569697,12.4518788 L7.14569697,14.0033939 L3.36387878,14.0033939 L3.36387878,15.5549091 L12.4790303,15.5549091 L12.4790303,14.0033939 L8.69721213,14.0033939 L8.69721213,12.4518788 L14.7093333,12.4518788 C15.2448822,12.4518788 15.6790303,12.0177307 15.6790303,11.4821818 L15.6790303,10.1246061 L0.163878781,10.1246061 L0.163878781,11.4821818 C0.163878781,12.0177307 0.598026902,12.4518788 1.13357575,12.4518788 Z M1.13357575,0.0397575781 L14.7093333,0.0397575781 C15.2448822,0.0397575781 15.6790303,0.473905699 15.6790303,1.00945455 L15.6790303,9.34884848 L0.163878781,9.34884848 L0.163878781,1.00945455 C0.163878781,0.473905699 0.598026902,0.0397575781 1.13357575,0.0397575781 Z" id="å½¢çŠ¶" fill="#000000" fill-rule="nonzero"></path>
                    </g>
                </g>
                <g filter="url(#filter-3)" id="åˆ†äº«">
                    <g transform="translate(28.000000, 137.000000)">
                        <rect id="çŸ©å½¢" fill="#000000" fill-rule="nonzero" opacity="0" x="0" y="0" width="15.7538462" height="16"></rect>
                        <path d="M13.4547742,10.465 C12.5226506,10.4647398 11.6649796,10.9820887 11.2192049,11.8135 L7.20295877,10.7525 C7.26940669,9.89603839 7.02533487,9.04444342 6.51668185,8.358 L10.3005588,4.2325 C11.2439944,4.7013887 12.3832543,4.39774888 12.9784236,3.5187854 C13.573593,2.63982191 13.4451064,1.45072223 12.6764121,0.723770499 C11.9077177,-0.00318123394 10.7307343,-0.0486602115 9.90987684,0.616870781 C9.08901939,1.28240177 8.87194448,2.45814886 9.39963569,3.3805 L5.61625108,7.506 C4.39419313,6.70679108 2.81199322,6.76219743 1.64703833,7.64499607 C0.482083444,8.52779472 -0.0207449876,10.0524154 0.385609229,11.4697617 C0.791963446,12.887108 2.02208189,13.899244 3.47156681,14.0088741 C4.92105173,14.1185041 6.28521154,13.3025831 6.89378954,11.962 L10.9095434,13.0235 L10.9095434,13.05 C10.9095434,14.4776561 12.049082,15.635 13.4547742,15.635 C14.8604663,15.635 16.0000049,14.4776561 16.0000049,13.05 C16.0000049,11.6223439 14.8604663,10.465 13.4547742,10.465 Z" id="è·¯å¾„" fill="#000000" fill-rule="nonzero"></path>
                    </g>
                </g>
                <g filter="url(#filter-4)" id="æœç´¢">
                    <g transform="translate(194.000000, 137.000000)">
                        <rect id="çŸ©å½¢" fill="#000000" fill-rule="nonzero" opacity="0" x="0" y="0" width="15.875969" height="16"></rect>
                        <path d="M6.48483721,-1.76155574e-07 C8.77675229,-0.000545491367 10.8843087,1.26584002 11.9736225,3.29809349 C13.0629363,5.33034695 12.9584793,7.80099832 11.7015814,9.7325 L15.9900775,14.0525 L14.3866047,15.6695 L10.1343256,11.384 C7.94515676,12.9747035 4.98915141,12.9658596 2.80939238,11.3620849 C0.62963336,9.75831018 -0.279269315,6.92351785 0.557146334,4.3375156 C1.39356198,1.75151335 3.78550453,0.00109201616 6.48434109,-1.76155574e-07 L6.48483721,-1.76155574e-07 Z M6.48483721,2.2855 C5.06685284,2.2855 3.75658124,3.04789567 3.04758905,4.2855 C2.33859685,5.5231043 2.33859685,7.0478957 3.04758905,8.2855 C3.75658124,9.52310433 5.06685284,10.2855 6.48483721,10.2855 C8.6768511,10.2855 10.4538295,8.494639 10.4538295,6.2855 C10.4538295,4.076361 8.6768511,2.2855 6.48483721,2.2855 Z" id="å½¢çŠ¶" fill="#000000" fill-rule="nonzero"></path>
                    </g>
                </g>
                <g filter="url(#filter-5)" id="æ¨¡å—åŒ–">
                    <g transform="translate(360.000000, 134.000000)">
                        <rect id="çŸ©å½¢" fill="#000000" fill-rule="nonzero" opacity="0" x="0" y="0" width="16" height="16"></rect>
                        <path d="M1.272,4.1735 C1.35673134,4.02656435 1.4963652,3.91930884 1.66018044,3.87533097 C1.82399567,3.83135309 1.99857181,3.85425572 2.1455,3.939 L7.9705,7.303 L13.7375,3.973 C13.8865645,3.88708166 14.0639781,3.86490531 14.229605,3.91148786 C14.3952318,3.95807042 14.5350757,4.06947542 14.6175,4.2205 C14.5615939,4.10764491 14.4733426,4.01399757 14.364,3.9515 L8.3205,0.461 C8.20396,0.366436287 8.05807212,0.315508153 7.908,0.316968132 C7.75792788,0.315508153 7.61204,0.366436287 7.4955,0.461 L1.511,3.916 C1.35907338,4.00354799 1.24999283,4.14989321 1.2095,4.3205 C1.2235,4.272 1.244,4.222 1.272,4.1735 Z M14.63,4.242 C14.78,4.542 14.672,4.9125 14.3765,5.083 L8.6595,8.383 L8.6595,15.086 C8.6595,15.4398765 8.37262645,15.72675 8.01875,15.72675 C7.66487355,15.72675 7.378,15.4398765 7.378,15.086 L7.378,8.439 L1.505,5.0485 C1.32517076,4.94521995 1.20675814,4.76098111 1.1875,4.5545 L1.1875,11.525 C1.164,11.767 1.28,12.011 1.505,12.1405 L7.558,15.6355 C7.675,15.731 7.822,15.781 7.9705,15.7795328 C8.119,15.781 8.2655,15.731 8.383,15.636 L14.258,12.244 C14.5249919,12.1602752 14.7066407,11.9128115 14.7065001,11.633 L14.7065001,4.545 C14.7065001,4.434 14.678,4.331 14.63,4.2415 L14.63,4.242 Z" id="å½¢çŠ¶" fill="#000000" fill-rule="nonzero"></path>
                    </g>
                </g>
                <g filter="url(#filter-6)" id="å®¡æ‰¹å…¬ç« ">
                    <g transform="translate(360.000000, 39.000000)">
                        <rect id="çŸ©å½¢" fill="#000000" fill-rule="nonzero" opacity="0" x="0" y="0" width="16" height="16"></rect>
                        <path d="M8.369,0.4 C10.469,0.4 12.169,2.1 12.169,4.225 C12.1695838,5.7750678 11.2284974,7.17007603 9.791,7.75 L9.869,7.75 L9.869,9.65 C9.869,9.65 13.094,9.625 13.994,9.65 C14.8295,9.673 14.868,10.386 14.869,10.488 L14.869,13.25 L1.819,13.25 L1.819,10.5 C1.819,9.725 2.694,9.625 2.694,9.625 L6.819,9.625 L6.819,7.75 L6.954,7.751 C6.9339138,7.74253362 6.9139128,7.73386652 6.894,7.725 C5.519,7.15 4.569,5.8 4.569,4.2 C4.569,2.1 6.269,0.4 8.369,0.4 Z M2.394,14.075 L2.394,15.475 L14.344,15.475 L14.344,14.075 C14.344,14.075 14.269,13.825 14.019,13.825 L2.644,13.825 C2.644,13.825 2.394,13.875 2.394,14.075 Z" id="å½¢çŠ¶" fill="#000000" fill-rule="nonzero"></path>
                    </g>
                </g>
            </g>
        </g>
    </g>
</svg>