<?xml version="1.0" encoding="UTF-8"?>
<svg width="540px" height="479px" viewBox="0 0 540 479" version="1.1" xmlns="http://www.w3.org/2000/svg" xmlns:xlink="http://www.w3.org/1999/xlink">
    <title>7</title>
    <defs>
        <filter id="filter-1">
            <feColorMatrix in="SourceGraphic" type="matrix" values="0 0 0 0 0.906646 0 0 0 0 0.893568 0 0 0 0 0.893568 0 0 0 0.300000 0"></feColorMatrix>
        </filter>
        <filter id="filter-2">
            <feColorMatrix in="SourceGraphic" type="matrix" values="0 0 0 0 0.000000 0 0 0 0 0.000000 0 0 0 0 0.000000 0 0 0 0.500000 0"></feColorMatrix>
        </filter>
    </defs>
    <g id="📁设计师模式" stroke="none" stroke-width="1" fill="none" fill-rule="evenodd">
        <g id="视觉设计规范-图标" transform="translate(-720.000000, -3908.000000)">
            <g id="7" transform="translate(720.000000, 3908.000000)">
                <rect id="矩形备份-51" fill="#FFFFFF" x="0" y="0" width="540" height="479"></rect>
                <g id="编组-6" transform="translate(43.000000, 46.000000)">
                    <rect id="矩形备份-59" stroke="#979797" fill="#FFFFFF" x="0.5" y="0.5" width="255" height="255"></rect>
                    <g filter="url(#filter-1)" id="编组-5备份">
                        <g>
                            <rect id="矩形" stroke="#979797" x="0.5" y="0.5" width="15" height="255"></rect>
                            <rect id="矩形备份-10" stroke="#979797" x="15.5" y="0.5" width="15" height="255"></rect>
                            <rect id="矩形备份-12" stroke="#979797" x="45.5" y="0.5" width="15" height="255"></rect>
                            <rect id="矩形备份-14" stroke="#979797" x="75.5" y="0.5" width="15" height="255"></rect>
                            <rect id="矩形备份-20" stroke="#979797" x="105.5" y="0.5" width="15" height="255"></rect>
                            <rect id="矩形备份-22" stroke="#979797" x="135.5" y="0.5" width="15" height="255"></rect>
                            <rect id="矩形备份-24" stroke="#979797" x="165.5" y="0.5" width="15" height="255"></rect>
                            <rect id="矩形备份-26" stroke="#979797" x="195.5" y="0.5" width="15" height="255"></rect>
                            <rect id="矩形备份-28" stroke="#979797" x="225.5" y="0.5" width="15" height="255"></rect>
                            <rect id="矩形备份-45" stroke="#979797" x="240.5" y="0.5" width="15" height="255"></rect>
                            <rect id="矩形备份-11" stroke="#979797" x="30.5" y="0.5" width="15" height="255"></rect>
                            <rect id="矩形备份-13" stroke="#979797" x="60.5" y="0.5" width="15" height="255"></rect>
                            <rect id="矩形备份-15" stroke="#979797" x="90.5" y="0.5" width="15" height="255"></rect>
                            <rect id="矩形备份-21" stroke="#979797" x="120.5" y="0.5" width="15" height="255"></rect>
                            <rect id="矩形备份-23" stroke="#979797" x="150.5" y="0.5" width="15" height="255"></rect>
                            <rect id="矩形备份-25" stroke="#979797" x="180.5" y="0.5" width="15" height="255"></rect>
                            <rect id="矩形备份-27" stroke="#979797" x="210.5" y="0.5" width="15" height="255"></rect>
                            <g id="编组-4" transform="translate(0.000000, 15.000000)" stroke="#979797">
                                <rect id="矩形备份-29" transform="translate(128.000000, 8.000000) rotate(-270.000000) translate(-128.000000, -8.000000) " x="120.5" y="-119.5" width="15" height="255"></rect>
                                <rect id="矩形备份-37" transform="translate(128.000000, 128.000000) rotate(-270.000000) translate(-128.000000, -128.000000) " x="120.5" y="0.5" width="15" height="255"></rect>
                                <rect id="矩形备份-33" transform="translate(128.000000, 68.000000) rotate(-270.000000) translate(-128.000000, -68.000000) " x="120.5" y="-59.5" width="15" height="255"></rect>
                                <rect id="矩形备份-38" transform="translate(128.000000, 188.000000) rotate(-270.000000) translate(-128.000000, -188.000000) " x="120.5" y="60.5" width="15" height="255"></rect>
                                <rect id="矩形备份-31" transform="translate(128.000000, 38.000000) rotate(-270.000000) translate(-128.000000, -38.000000) " x="120.5" y="-89.5" width="15" height="255"></rect>
                                <rect id="矩形备份-39" transform="translate(128.000000, 158.000000) rotate(-270.000000) translate(-128.000000, -158.000000) " x="120.5" y="30.5" width="15" height="255"></rect>
                                <rect id="矩形备份-34" transform="translate(128.000000, 98.000000) rotate(-270.000000) translate(-128.000000, -98.000000) " x="120.5" y="-29.5" width="15" height="255"></rect>
                                <rect id="矩形备份-40" transform="translate(128.000000, 218.000000) rotate(-270.000000) translate(-128.000000, -218.000000) " x="120.5" y="90.5" width="15" height="255"></rect>
                                <rect id="矩形备份-30" transform="translate(128.000000, 23.000000) rotate(-270.000000) translate(-128.000000, -23.000000) " x="120.5" y="-104.5" width="15" height="255"></rect>
                                <rect id="矩形备份-41" transform="translate(128.000000, 143.000000) rotate(-270.000000) translate(-128.000000, -143.000000) " x="120.5" y="15.5" width="15" height="255"></rect>
                                <rect id="矩形备份-35" transform="translate(128.000000, 83.000000) rotate(-270.000000) translate(-128.000000, -83.000000) " x="120.5" y="-44.5" width="15" height="255"></rect>
                                <rect id="矩形备份-42" transform="translate(128.000000, 203.000000) rotate(-270.000000) translate(-128.000000, -203.000000) " x="120.5" y="75.5" width="15" height="255"></rect>
                                <rect id="矩形备份-32" transform="translate(128.000000, 53.000000) rotate(-270.000000) translate(-128.000000, -53.000000) " x="120.5" y="-74.5" width="15" height="255"></rect>
                                <rect id="矩形备份-43" transform="translate(128.000000, 173.000000) rotate(-270.000000) translate(-128.000000, -173.000000) " x="120.5" y="45.5" width="15" height="255"></rect>
                                <rect id="矩形备份-36" transform="translate(128.000000, 113.000000) rotate(-270.000000) translate(-128.000000, -113.000000) " x="120.5" y="-14.5" width="15" height="255"></rect>
                                <rect id="矩形备份-44" transform="translate(128.000000, 233.000000) rotate(-270.000000) translate(-128.000000, -233.000000) " x="120.5" y="105.5" width="15" height="255"></rect>
                            </g>
                        </g>
                    </g>
                </g>
                <rect id="矩形备份-60" fill-opacity="0.3" fill="#EBEBEB" x="88" y="91" width="256" height="256"></rect>
                <text id="画板" font-family="PingFangSC-Regular, PingFang SC" font-size="14" font-weight="normal" fill="#000000" fill-opacity="0.85">
                    <tspan x="471" y="74">画板</tspan>
                </text>
                <text id="透明边框" font-family="PingFangSC-Regular, PingFang SC" font-size="14" font-weight="normal" fill="#000000" fill-opacity="0.85">
                    <tspan x="443" y="119">透明边框</tspan>
                </text>
                <text id="设计参考层" font-family="PingFangSC-Regular, PingFang SC" font-size="14" font-weight="normal" fill="#000000" fill-opacity="0.85">
                    <tspan x="429" y="164">设计参考层</tspan>
                </text>
                <text id="图形层" font-family="PingFangSC-Regular, PingFang SC" font-size="14" font-weight="normal" fill="#000000" fill-opacity="0.85">
                    <tspan x="457" y="239">图形层</tspan>
                </text>
                <rect id="矩形" fill-opacity="0.35" fill="#000000" x="307" y="69" width="155" height="1"></rect>
                <rect id="矩形备份-52" fill-opacity="0.35" fill="#000000" x="344" y="114" width="96" height="1"></rect>
                <rect id="矩形备份-53" fill-opacity="0.35" fill="#000000" x="365" y="158" width="60" height="1"></rect>
                <rect id="矩形备份-54" fill-opacity="0.35" fill="#000000" x="382" y="234" width="70" height="1"></rect>
                <g id="编组-3备份" transform="translate(129.000000, 139.000000)">
                    <rect id="矩形备份-77" stroke="#7C00FF" transform="translate(128.000000, 128.000000) rotate(-270.000000) translate(-128.000000, -128.000000) " x="40.5" y="16.5" width="175" height="223"></rect>
                    <rect id="矩形备份-76" stroke="#0091FF" x="40.5" y="16.5" width="175" height="223"></rect>
                    <circle id="椭圆形备份" stroke="#6DD400" cx="128" cy="128" r="111.5"></circle>
                    <path d="M128,16.9999601 L224.133952,183.5 L31.8660484,183.5 L128,16.9999601 Z" id="三角形备份" stroke="#F7B500"></path>
                    <circle id="椭圆形备份-2" stroke="#FA6400" cx="128" cy="128" r="55.5"></circle>
                    <rect id="矩形备份-78" stroke="#B620E0" x="89" y="89" width="78" height="78"></rect>
                    <rect id="矩形" stroke="#FF4500" x="28.5" y="29.5" width="199" height="199"></rect>
                    <rect id="矩形" stroke="#B30000" x="16.5" y="16.5" width="223" height="223"></rect>
                    <g id="编组-2" opacity="0.341680618" fill="#979797" fill-rule="nonzero">
                        <g id="编组">
                            <path d="M16.25,0 L16.25,256 L0,256 L0,0 L16.25,0 Z M16,0.25 L0.25,0.25 L0.25,255.75 L16,255.75 L16,0.25 Z" id="矩形备份-45"></path>
                            <path d="M96.25,0 L96.25,256 L80,256 L80,0 L96.25,0 Z M96,0.25 L80.25,0.25 L80.25,255.75 L96,255.75 L96,0.25 Z" id="矩形备份-50"></path>
                            <path d="M192.25,0 L192.25,256 L176,256 L176,0 L192.25,0 Z M192,0.25 L176.25,0.25 L176.25,255.75 L192,255.75 L192,0.25 Z" id="矩形备份-55"></path>
                            <path d="M32.25,0 L32.25,256 L16,256 L16,0 L32.25,0 Z M32,0.25 L16.25,0.25 L16.25,255.75 L32,255.75 L32,0.25 Z" id="矩形备份-46"></path>
                            <path d="M112.25,0 L112.25,256 L96,256 L96,0 L112.25,0 Z M112,0.25 L96.25,0.25 L96.25,255.75 L112,255.75 L112,0.25 Z" id="矩形备份-51"></path>
                            <path d="M208.25,0 L208.25,256 L192,256 L192,0 L208.25,0 Z M208,0.25 L192.25,0.25 L192.25,255.75 L208,255.75 L208,0.25 Z" id="矩形备份-56"></path>
                            <path d="M48.25,0 L48.25,256 L32,256 L32,0 L48.25,0 Z M48,0.25 L32.25,0.25 L32.25,255.75 L48,255.75 L48,0.25 Z" id="矩形备份-47"></path>
                            <path d="M128.25,0 L128.25,256 L112,256 L112,0 L128.25,0 Z M128,0.25 L112.25,0.25 L112.25,255.75 L128,255.75 L128,0.25 Z" id="矩形备份-52"></path>
                            <path d="M224.25,0 L224.25,256 L208,256 L208,0 L224.25,0 Z M224,0.25 L208.25,0.25 L208.25,255.75 L224,255.75 L224,0.25 Z" id="矩形备份-57"></path>
                            <path d="M80.25,0 L80.25,256 L64,256 L64,0 L80.25,0 Z M80,0.25 L64.25,0.25 L64.25,255.75 L80,255.75 L80,0.25 Z" id="矩形备份-48"></path>
                            <path d="M176.25,0 L176.25,256 L160,256 L160,0 L176.25,0 Z M176,0.25 L160.25,0.25 L160.25,255.75 L176,255.75 L176,0.25 Z" id="矩形备份-58"></path>
                            <path d="M160.25,0 L160.25,256 L144,256 L144,0 L160.25,0 Z M160,0.25 L144.25,0.25 L144.25,255.75 L160,255.75 L160,0.25 Z" id="矩形备份-53"></path>
                            <path d="M256,0 L256,256 L240,256 L240,0 L256,0 Z M255.753846,0.25 L240.246154,0.25 L240.246154,255.75 L255.753846,255.75 L255.753846,0.25 Z" id="矩形备份-59"></path>
                            <path d="M64.25,0 L64.25,256 L48,256 L48,0 L64.25,0 Z M64,0.25 L48.25,0.25 L48.25,255.75 L64,255.75 L64,0.25 Z" id="矩形备份-49"></path>
                            <path d="M144.25,0 L144.25,256 L128,256 L128,0 L144.25,0 Z M144,0.25 L128.25,0.25 L128.25,255.75 L144,255.75 L144,0.25 Z" id="矩形备份-54"></path>
                            <path d="M240.25,0 L240.25,256 L224,256 L224,0 L240.25,0 Z M240,0.25 L224.25,0.25 L224.25,255.75 L240,255.75 L240,0.25 Z" id="矩形备份-60"></path>
                        </g>
                        <g id="编组备份" transform="translate(128.000000, 128.000000) rotate(-90.000000) translate(-128.000000, -128.000000) translate(0.000000, 0.000000)">
                            <path d="M16.25,0 L16.25,256 L0,256 L0,0 L16.25,0 Z M16,0.25 L0.25,0.25 L0.25,255.75 L16,255.75 L16,0.25 Z" id="矩形备份-45"></path>
                            <path d="M96.25,0 L96.25,256 L80,256 L80,0 L96.25,0 Z M96,0.25 L80.25,0.25 L80.25,255.75 L96,255.75 L96,0.25 Z" id="矩形备份-50"></path>
                            <path d="M192.25,0 L192.25,256 L176,256 L176,0 L192.25,0 Z M192,0.25 L176.25,0.25 L176.25,255.75 L192,255.75 L192,0.25 Z" id="矩形备份-55"></path>
                            <path d="M32.25,0 L32.25,256 L16,256 L16,0 L32.25,0 Z M32,0.25 L16.25,0.25 L16.25,255.75 L32,255.75 L32,0.25 Z" id="矩形备份-46"></path>
                            <path d="M112.25,0 L112.25,256 L96,256 L96,0 L112.25,0 Z M112,0.25 L96.25,0.25 L96.25,255.75 L112,255.75 L112,0.25 Z" id="矩形备份-51"></path>
                            <path d="M208.25,0 L208.25,256 L192,256 L192,0 L208.25,0 Z M208,0.25 L192.25,0.25 L192.25,255.75 L208,255.75 L208,0.25 Z" id="矩形备份-56"></path>
                            <path d="M48.25,0 L48.25,256 L32,256 L32,0 L48.25,0 Z M48,0.25 L32.25,0.25 L32.25,255.75 L48,255.75 L48,0.25 Z" id="矩形备份-47"></path>
                            <path d="M128.25,0 L128.25,256 L112,256 L112,0 L128.25,0 Z M128,0.25 L112.25,0.25 L112.25,255.75 L128,255.75 L128,0.25 Z" id="矩形备份-52"></path>
                            <path d="M224.25,0 L224.25,256 L208,256 L208,0 L224.25,0 Z M224,0.25 L208.25,0.25 L208.25,255.75 L224,255.75 L224,0.25 Z" id="矩形备份-57"></path>
                            <path d="M80.25,0 L80.25,256 L64,256 L64,0 L80.25,0 Z M80,0.25 L64.25,0.25 L64.25,255.75 L80,255.75 L80,0.25 Z" id="矩形备份-48"></path>
                            <path d="M176.25,0 L176.25,256 L160,256 L160,0 L176.25,0 Z M176,0.25 L160.25,0.25 L160.25,255.75 L176,255.75 L176,0.25 Z" id="矩形备份-58"></path>
                            <path d="M160.25,0 L160.25,256 L144,256 L144,0 L160.25,0 Z M160,0.25 L144.25,0.25 L144.25,255.75 L160,255.75 L160,0.25 Z" id="矩形备份-53"></path>
                            <path d="M256,0 L256,256 L240,256 L240,0 L256,0 Z M255.753846,0.25 L240.246154,0.25 L240.246154,255.75 L255.753846,255.75 L255.753846,0.25 Z" id="矩形备份-59"></path>
                            <path d="M64.25,0 L64.25,256 L48,256 L48,0 L64.25,0 Z M64,0.25 L48.25,0.25 L48.25,255.75 L64,255.75 L64,0.25 Z" id="矩形备份-49"></path>
                            <path d="M144.25,0 L144.25,256 L128,256 L128,0 L144.25,0 Z M144,0.25 L128.25,0.25 L128.25,255.75 L144,255.75 L144,0.25 Z" id="矩形备份-54"></path>
                            <path d="M240.25,0 L240.25,256 L224,256 L224,0 L240.25,0 Z M240,0.25 L224.25,0.25 L224.25,255.75 L240,255.75 L240,0.25 Z" id="矩形备份-60"></path>
                        </g>
                    </g>
                </g>
                <g filter="url(#filter-2)" id="我的-人-自己-个人">
                    <g transform="translate(179.000000, 194.000000)">
                        <rect id="矩形" fill="#000000" fill-rule="nonzero" opacity="0" x="0" y="0" width="252.563758" height="253"></rect>
                        <path d="M240.118382,253 L18.7503464,253 C14.1674844,253 9.59252396,250.712276 6.74008746,247.288578 C3.87184799,243.289004 2.73403398,238.721444 3.87184799,234.153884 C15.3131999,175.903689 62.7932302,132.500035 119.99999,127.932475 C139.161094,127.932475 159.902495,130.362196 180.635995,138.779444 C186.641124,141.209165 188.648102,142.779018 192.077347,144.490867 C225.255687,163.344871 248.130489,195.893667 255.573689,234.153884 C256.711503,238.729333 255.573689,243.289004 252.136543,247.288578 C249.14533,250.83237 244.767316,252.914314 240.126284,253 L240.118382,253 Z M129.718818,133.075911 C93.6880411,133.075911 63.9389457,103.374938 63.9389457,67.3945553 C63.9389457,31.4220617 93.6801396,1.72108844 129.718818,1.72108844 C165.749595,1.72108844 195.49869,31.414173 195.49869,67.3945553 C195.49869,103.374938 165.757496,133.075911 129.718818,133.075911 Z" id="形状" fill="#000000" fill-rule="nonzero"></path>
                    </g>
                </g>
            </g>
        </g>
    </g>
</svg>