<?xml version="1.0" encoding="UTF-8"?>
<svg width="540px" height="629px" viewBox="0 0 540 629" version="1.1" xmlns="http://www.w3.org/2000/svg" xmlns:xlink="http://www.w3.org/1999/xlink">
    <title>8</title>
    <g id="ðŸ“è®¾è®¡å¸ˆæ¨¡å¼" stroke="none" stroke-width="1" fill="none" fill-rule="evenodd">
        <g id="è§†è§‰è®¾è®¡è§„èŒƒ-å›¾æ ‡" transform="translate(-720.000000, -4435.000000)">
            <g id="8" transform="translate(720.000000, 4435.000000)">
                <rect id="çŸ©å½¢å¤‡ä»½-64" fill="#FFFFFF" x="0" y="0" width="540" height="629"></rect>
                <text id="704*896" font-family="PingFangSC-Regular, PingFang SC" font-size="14" font-weight="normal" fill="#000000" fill-opacity="0.85">
                    <tspan x="243" y="401">704*896</tspan>
                </text>
                <text id="800*800" font-family="PingFangSC-Regular, PingFang SC" font-size="14" font-weight="normal" fill="#000000" fill-opacity="0.85">
                    <tspan x="66" y="400">800*800</tspan>
                </text>
                <text id="1024*1024" font-family="PingFangSC-Regular, PingFang SC" font-size="14" font-weight="normal" fill="#000000" fill-opacity="0.85">
                    <tspan x="238" y="208">1024*1024</tspan>
                </text>
                <text id="896*896" font-family="PingFangSC-Regular, PingFang SC" font-size="14" font-weight="normal" fill="#000000" fill-opacity="0.85">
                    <tspan x="71" y="581">896*896</tspan>
                </text>
                <text id="776*672" font-family="PingFangSC-Regular, PingFang SC" font-size="14" font-weight="normal" fill="#000000" fill-opacity="0.85">
                    <tspan x="217" y="581">776*672</tspan>
                </text>
                <text id="448*448" font-family="PingFangSC-Regular, PingFang SC" font-size="14" font-weight="normal" fill="#000000" fill-opacity="0.85">
                    <tspan x="331" y="581">448*448</tspan>
                </text>
                <text id="316*316" font-family="PingFangSC-Regular, PingFang SC" font-size="14" font-weight="normal" fill="#000000" fill-opacity="0.85">
                    <tspan x="454" y="581">316*316</tspan>
                </text>
                <text id="896*704" font-family="PingFangSC-Regular, PingFang SC" font-size="14" font-weight="normal" fill="#000000" fill-opacity="0.85">
                    <tspan x="417" y="399">896*704</tspan>
                </text>
                <circle id="æ¤­åœ†å½¢å¤‡ä»½-3" stroke="#6DD400" cx="101.5" cy="486.5" r="63"></circle>
                <rect id="çŸ©å½¢å¤‡ä»½-79" stroke="#0091FF" x="221.5" y="238.5" width="99" height="126"></rect>
                <rect id="çŸ©å½¢å¤‡ä»½-80" stroke="#7C00FF" transform="translate(443.000000, 301.500000) rotate(-270.000000) translate(-443.000000, -301.500000) " x="393.5" y="238.5" width="99" height="126"></rect>
                <path d="M247,439.997932 L301.132776,533.5 L192.867224,533.5 L247,439.997932 Z" id="ä¸‰è§’å½¢å¤‡ä»½-2" stroke="#F7B500"></path>
                <circle id="æ¤­åœ†å½¢å¤‡ä»½-4" stroke="#FA6400" cx="360.5" cy="486.5" r="31"></circle>
                <rect id="çŸ©å½¢å¤‡ä»½-81" stroke="#B620E0" x="460.5" y="464.5" width="42" height="43"></rect>
                <g id="ç¼–ç»„-8" transform="translate(202.000000, 33.000000)">
                    <path d="M121.214286,9.64285714 L121.214286,134.357143 L23.3571429,134.357143 L23.3571429,9.64285714 L121.214286,9.64285714 Z" id="çŸ©å½¢å¤‡ä»½-77" stroke="#7C00FF" transform="translate(72.285714, 72.000000) rotate(-270.000000) translate(-72.285714, -72.000000) "></path>
                    <rect id="çŸ©å½¢å¤‡ä»½-76" stroke="#0091FF" x="23.3571429" y="9.64285714" width="97.8571429" height="124.714286"></rect>
                    <circle id="æ¤­åœ†å½¢å¤‡ä»½" stroke="#6DD400" cx="72" cy="72" r="62.3571429"></circle>
                    <path d="M72.2857143,10.1455296 L125.992654,103.5 L18.578775,103.5 L72.2857143,10.1455296 Z" id="ä¸‰è§’å½¢å¤‡ä»½" stroke="#F7B500"></path>
                    <circle id="æ¤­åœ†å½¢å¤‡ä»½-2" stroke="#FA6400" cx="72.2857143" cy="72.2857143" r="31.2142857"></circle>
                    <rect id="çŸ©å½¢å¤‡ä»½-78" stroke="#B620E0" x="50.2142857" y="50.2142857" width="43.5714286" height="43.5714286"></rect>
                    <rect id="çŸ©å½¢" stroke="#B30000" x="9.64285714" y="9.64285714" width="124.714286" height="124.714286"></rect>
                    <g id="ç¼–ç»„-7" fill="#979797" fill-rule="nonzero">
                        <g id="ç¼–ç»„">
                            <path d="M9.140625,0 L9.140625,144 L0,144 L0,0 L9.140625,0 Z M9,0.140625 L0.140625,0.140625 L0.140625,143.859375 L9,143.859375 L9,0.140625 Z" id="çŸ©å½¢å¤‡ä»½-45"></path>
                            <path d="M54.140625,0 L54.140625,144 L45,144 L45,0 L54.140625,0 Z M54,0.140625 L45.140625,0.140625 L45.140625,143.859375 L54,143.859375 L54,0.140625 Z" id="çŸ©å½¢å¤‡ä»½-50"></path>
                            <path d="M108.140625,0 L108.140625,144 L99,144 L99,0 L108.140625,0 Z M108,0.140625 L99.140625,0.140625 L99.140625,143.859375 L108,143.859375 L108,0.140625 Z" id="çŸ©å½¢å¤‡ä»½-55"></path>
                            <path d="M18.140625,0 L18.140625,144 L9,144 L9,0 L18.140625,0 Z M18,0.140625 L9.140625,0.140625 L9.140625,143.859375 L18,143.859375 L18,0.140625 Z" id="çŸ©å½¢å¤‡ä»½-46"></path>
                            <path d="M63.140625,0 L63.140625,144 L54,144 L54,0 L63.140625,0 Z M63,0.140625 L54.140625,0.140625 L54.140625,143.859375 L63,143.859375 L63,0.140625 Z" id="çŸ©å½¢å¤‡ä»½-51"></path>
                            <path d="M117.140625,0 L117.140625,144 L108,144 L108,0 L117.140625,0 Z M117,0.140625 L108.140625,0.140625 L108.140625,143.859375 L117,143.859375 L117,0.140625 Z" id="çŸ©å½¢å¤‡ä»½-56"></path>
                            <path d="M27.140625,0 L27.140625,144 L18,144 L18,0 L27.140625,0 Z M27,0.140625 L18.140625,0.140625 L18.140625,143.859375 L27,143.859375 L27,0.140625 Z" id="çŸ©å½¢å¤‡ä»½-47"></path>
                            <path d="M72.140625,0 L72.140625,144 L63,144 L63,0 L72.140625,0 Z M72,0.140625 L63.140625,0.140625 L63.140625,143.859375 L72,143.859375 L72,0.140625 Z" id="çŸ©å½¢å¤‡ä»½-52"></path>
                            <path d="M126.140625,0 L126.140625,144 L117,144 L117,0 L126.140625,0 Z M126,0.140625 L117.140625,0.140625 L117.140625,143.859375 L126,143.859375 L126,0.140625 Z" id="çŸ©å½¢å¤‡ä»½-57"></path>
                            <path d="M45.140625,0 L45.140625,144 L36,144 L36,0 L45.140625,0 Z M45,0.140625 L36.140625,0.140625 L36.140625,143.859375 L45,143.859375 L45,0.140625 Z" id="çŸ©å½¢å¤‡ä»½-48"></path>
                            <path d="M99.140625,0 L99.140625,144 L90,144 L90,0 L99.140625,0 Z M99,0.140625 L90.140625,0.140625 L90.140625,143.859375 L99,143.859375 L99,0.140625 Z" id="çŸ©å½¢å¤‡ä»½-58"></path>
                            <path d="M90.140625,0 L90.140625,144 L81,144 L81,0 L90.140625,0 Z M90,0.140625 L81.140625,0.140625 L81.140625,143.859375 L90,143.859375 L90,0.140625 Z" id="çŸ©å½¢å¤‡ä»½-53"></path>
                            <path d="M144,0 L144,144 L135,144 L135,0 L144,0 Z M143.861538,0.140625 L135.138462,0.140625 L135.138462,143.859375 L143.861538,143.859375 L143.861538,0.140625 Z" id="çŸ©å½¢å¤‡ä»½-59"></path>
                            <path d="M36.140625,0 L36.140625,144 L27,144 L27,0 L36.140625,0 Z M36,0.140625 L27.140625,0.140625 L27.140625,143.859375 L36,143.859375 L36,0.140625 Z" id="çŸ©å½¢å¤‡ä»½-49"></path>
                            <path d="M81.140625,0 L81.140625,144 L72,144 L72,0 L81.140625,0 Z M81,0.140625 L72.140625,0.140625 L72.140625,143.859375 L81,143.859375 L81,0.140625 Z" id="çŸ©å½¢å¤‡ä»½-54"></path>
                            <path d="M135.140625,0 L135.140625,144 L126,144 L126,0 L135.140625,0 Z M135,0.140625 L126.140625,0.140625 L126.140625,143.859375 L135,143.859375 L135,0.140625 Z" id="çŸ©å½¢å¤‡ä»½-60"></path>
                        </g>
                        <g id="ç¼–ç»„å¤‡ä»½" transform="translate(72.000000, 72.000000) rotate(-90.000000) translate(-72.000000, -72.000000) translate(0.000000, 0.000000)">
                            <path d="M9.140625,0 L9.140625,144 L0,144 L0,0 L9.140625,0 Z M9,0.140625 L0.140625,0.140625 L0.140625,143.859375 L9,143.859375 L9,0.140625 Z" id="çŸ©å½¢å¤‡ä»½-45"></path>
                            <path d="M54.140625,0 L54.140625,144 L45,144 L45,0 L54.140625,0 Z M54,0.140625 L45.140625,0.140625 L45.140625,143.859375 L54,143.859375 L54,0.140625 Z" id="çŸ©å½¢å¤‡ä»½-50"></path>
                            <path d="M108.140625,0 L108.140625,144 L99,144 L99,0 L108.140625,0 Z M108,0.140625 L99.140625,0.140625 L99.140625,143.859375 L108,143.859375 L108,0.140625 Z" id="çŸ©å½¢å¤‡ä»½-55"></path>
                            <path d="M18.140625,0 L18.140625,144 L9,144 L9,0 L18.140625,0 Z M18,0.140625 L9.140625,0.140625 L9.140625,143.859375 L18,143.859375 L18,0.140625 Z" id="çŸ©å½¢å¤‡ä»½-46"></path>
                            <path d="M63.140625,0 L63.140625,144 L54,144 L54,0 L63.140625,0 Z M63,0.140625 L54.140625,0.140625 L54.140625,143.859375 L63,143.859375 L63,0.140625 Z" id="çŸ©å½¢å¤‡ä»½-51"></path>
                            <path d="M117.140625,0 L117.140625,144 L108,144 L108,0 L117.140625,0 Z M117,0.140625 L108.140625,0.140625 L108.140625,143.859375 L117,143.859375 L117,0.140625 Z" id="çŸ©å½¢å¤‡ä»½-56"></path>
                            <path d="M27.140625,0 L27.140625,144 L18,144 L18,0 L27.140625,0 Z M27,0.140625 L18.140625,0.140625 L18.140625,143.859375 L27,143.859375 L27,0.140625 Z" id="çŸ©å½¢å¤‡ä»½-47"></path>
                            <path d="M72.140625,0 L72.140625,144 L63,144 L63,0 L72.140625,0 Z M72,0.140625 L63.140625,0.140625 L63.140625,143.859375 L72,143.859375 L72,0.140625 Z" id="çŸ©å½¢å¤‡ä»½-52"></path>
                            <path d="M126.140625,0 L126.140625,144 L117,144 L117,0 L126.140625,0 Z M126,0.140625 L117.140625,0.140625 L117.140625,143.859375 L126,143.859375 L126,0.140625 Z" id="çŸ©å½¢å¤‡ä»½-57"></path>
                            <path d="M45.140625,0 L45.140625,144 L36,144 L36,0 L45.140625,0 Z M45,0.140625 L36.140625,0.140625 L36.140625,143.859375 L45,143.859375 L45,0.140625 Z" id="çŸ©å½¢å¤‡ä»½-48"></path>
                            <path d="M99.140625,0 L99.140625,144 L90,144 L90,0 L99.140625,0 Z M99,0.140625 L90.140625,0.140625 L90.140625,143.859375 L99,143.859375 L99,0.140625 Z" id="çŸ©å½¢å¤‡ä»½-58"></path>
                            <path d="M90.140625,0 L90.140625,144 L81,144 L81,0 L90.140625,0 Z M90,0.140625 L81.140625,0.140625 L81.140625,143.859375 L90,143.859375 L90,0.140625 Z" id="çŸ©å½¢å¤‡ä»½-53"></path>
                            <path d="M144,0 L144,144 L135,144 L135,0 L144,0 Z M143.861538,0.140625 L135.138462,0.140625 L135.138462,143.859375 L143.861538,143.859375 L143.861538,0.140625 Z" id="çŸ©å½¢å¤‡ä»½-59"></path>
                            <path d="M36.140625,0 L36.140625,144 L27,144 L27,0 L36.140625,0 Z M36,0.140625 L27.140625,0.140625 L27.140625,143.859375 L36,143.859375 L36,0.140625 Z" id="çŸ©å½¢å¤‡ä»½-49"></path>
                            <path d="M81.140625,0 L81.140625,144 L72,144 L72,0 L81.140625,0 Z M81,0.140625 L72.140625,0.140625 L72.140625,143.859375 L81,143.859375 L81,0.140625 Z" id="çŸ©å½¢å¤‡ä»½-54"></path>
                            <path d="M135.140625,0 L135.140625,144 L126,144 L126,0 L135.140625,0 Z M135,0.140625 L126.140625,0.140625 L126.140625,143.859375 L135,143.859375 L135,0.140625 Z" id="çŸ©å½¢å¤‡ä»½-60"></path>
                        </g>
                    </g>
                </g>
                <rect id="çŸ©å½¢" stroke="#FF4500" x="45.5" y="245.5" width="112" height="112"></rect>
            </g>
        </g>
    </g>
</svg>