<?xml version="1.0" encoding="UTF-8"?>
<svg width="540px" height="410px" viewBox="0 0 540 410" version="1.1" xmlns="http://www.w3.org/2000/svg" xmlns:xlink="http://www.w3.org/1999/xlink">
    <title>1</title>
    <g id="ðŸ“è®¾è®¡å¸ˆæ¨¡å¼" stroke="none" stroke-width="1" fill="none" fill-rule="evenodd">
        <g id="è®¾è®¡åŽŸåˆ™-äº²å¯†æ€§" transform="translate(-720.000000, -751.000000)">
            <g id="1" transform="translate(720.000000, 751.000000)">
                <rect id="çŸ©å½¢" fill="#FFFFFF" x="0" y="0" width="540" height="410"></rect>
                <rect id="çŸ©å½¢å¤‡ä»½-28" fill="#D8D8D8" x="50" y="311" width="410" height="1"></rect>
                <text id="16px" font-family="PingFangSC-Regular, PingFang SC" font-size="14" font-weight="normal" fill="#000000" fill-opacity="0.645705857">
                    <tspan x="8" y="52">16px</tspan>
                </text>
                <text id="8px" font-family="PingFangSC-Regular, PingFang SC" font-size="14" font-weight="normal" fill="#000000" fill-opacity="0.645705857">
                    <tspan x="8" y="92">8px</tspan>
                </text>
                <text id="24px" font-family="PingFangSC-Regular, PingFang SC" font-size="14" font-weight="normal" fill="#000000" fill-opacity="0.645705857">
                    <tspan x="8" y="136">24px</tspan>
                </text>
                <text id="Middle" font-family="PingFangSC-Regular, PingFang SC" font-size="14" font-weight="normal" fill="#000000" fill-opacity="0.645705857">
                    <tspan x="492" y="52">Middle</tspan>
                </text>
                <text id="Small" font-family="PingFangSC-Regular, PingFang SC" font-size="14" font-weight="normal" fill="#000000" fill-opacity="0.645705857">
                    <tspan x="492" y="84">Small</tspan>
                </text>
                <text id="Large" font-family="PingFangSC-Regular, PingFang SC" font-size="14" font-weight="normal" fill="#000000" fill-opacity="0.645705857">
                    <tspan x="492" y="116">Large</tspan>
                </text>
                <circle id="æ¤­åœ†å½¢" fill="#1EB100" cx="384" cy="242" r="4"></circle>
                <circle id="æ¤­åœ†å½¢å¤‡ä»½" fill="#D5D5D5" cx="384" cy="286" r="4"></circle>
                <circle id="æ¤­åœ†å½¢å¤‡ä»½-2" fill="#ED220D" cx="384" cy="335" r="4"></circle>
                <rect id="çŸ©å½¢" stroke="#9169CE" fill="#F0EAFA" x="50.5" y="39.5" width="409" height="15"></rect>
                <rect id="çŸ©å½¢å¤‡ä»½-18" stroke="#9169CE" fill="#F0EAFA" x="50.5" y="171.5" width="409" height="15"></rect>
                <rect id="çŸ©å½¢å¤‡ä»½-33" stroke="#9169CE" fill="#F0EAFA" x="50.5" y="358.5" width="409" height="15"></rect>
                <rect id="çŸ©å½¢å¤‡ä»½-8" stroke="#DA8B60" fill="#FAEFEA" x="50.5" y="119.5" width="409" height="23"></rect>
                <rect id="çŸ©å½¢å¤‡ä»½-6" stroke="#5770CF" fill="#EAF2FA" x="50.5" y="83.5" width="409" height="7"></rect>
                <rect id="çŸ©å½¢" fill="#D8D8D8" x="50" y="11" width="147" height="28"></rect>
                <rect id="çŸ©å½¢å¤‡ä»½" fill="#D8D8D8" x="50" y="55" width="410" height="28"></rect>
                <rect id="çŸ©å½¢å¤‡ä»½-3" fill="#D8D8D8" x="50" y="91" width="410" height="28"></rect>
                <rect id="çŸ©å½¢å¤‡ä»½-19" fill="#D8D8D8" x="50" y="187" width="410" height="28"></rect>
                <rect id="çŸ©å½¢å¤‡ä»½-22" fill="#D8D8D8" x="50" y="262" width="410" height="1"></rect>
                <rect id="çŸ©å½¢å¤‡ä»½-29" fill="#D8D8D8" x="50" y="357" width="410" height="1"></rect>
                <rect id="çŸ©å½¢å¤‡ä»½-5" fill="#B30000" x="50" y="143" width="60" height="28"></rect>
                <rect id="çŸ©å½¢å¤‡ä»½-21" fill="#B30000" x="72" y="234" width="16" height="16" rx="2"></rect>
                <rect id="çŸ©å½¢å¤‡ä»½-37" stroke="#9169CE" fill="#F0EAFA" x="468" y="39" width="16" height="16" rx="2"></rect>
                <rect id="çŸ©å½¢å¤‡ä»½-38" stroke="#5770CF" fill="#EAF2FA" x="468" y="71" width="16" height="16" rx="2"></rect>
                <rect id="çŸ©å½¢å¤‡ä»½-39" stroke="#DA8B60" fill="#FAEFEA" x="468" y="103" width="16" height="16" rx="2"></rect>
                <rect id="çŸ©å½¢å¤‡ä»½-25" stroke="#979797" x="72.5" y="278.5" width="15" height="15" rx="2"></rect>
                <rect id="çŸ©å½¢å¤‡ä»½-30" stroke="#979797" x="72.5" y="327.5" width="15" height="15" rx="2"></rect>
                <rect id="çŸ©å½¢å¤‡ä»½-9" fill="#D8D8D8" x="126" y="143" width="60" height="28"></rect>
                <rect id="çŸ©å½¢å¤‡ä»½-23" fill="#D8D8D8" x="124" y="235" width="184" height="14"></rect>
                <rect id="çŸ©å½¢å¤‡ä»½-26" fill="#D8D8D8" x="124" y="279" width="184" height="14"></rect>
                <rect id="çŸ©å½¢å¤‡ä»½-31" fill="#D8D8D8" x="124" y="328" width="184" height="14"></rect>
                <rect id="çŸ©å½¢å¤‡ä»½-24" fill="#D8D8D8" x="397" y="235" width="42" height="14"></rect>
                <rect id="çŸ©å½¢å¤‡ä»½-27" fill="#D8D8D8" x="397" y="279" width="42" height="14"></rect>
                <rect id="çŸ©å½¢å¤‡ä»½-32" fill="#D8D8D8" x="397" y="328" width="42" height="14"></rect>
                <rect id="çŸ©å½¢å¤‡ä»½-10" fill="#D8D8D8" x="202" y="143" width="60" height="28"></rect>
                <rect id="çŸ©å½¢å¤‡ä»½-17" fill="#D8D8D8" x="278" y="143" width="60" height="28"></rect>
                <rect id="çŸ©å½¢å¤‡ä»½-30" stroke="#979797" x="340.5" y="377.5" width="23" height="23" rx="2"></rect>
                <rect id="çŸ©å½¢å¤‡ä»½-34" stroke="#979797" x="372.5" y="377.5" width="23" height="23" rx="2"></rect>
                <rect id="çŸ©å½¢å¤‡ä»½-35" fill="#B30000" x="404" y="377" width="24" height="24" rx="2"></rect>
                <rect id="çŸ©å½¢å¤‡ä»½-36" stroke="#979797" x="436.5" y="377.5" width="23" height="23" rx="2"></rect>
                <rect id="çŸ©å½¢" fill="#B30000" x="38" y="39" width="9" height="1"></rect>
                <rect id="çŸ©å½¢å¤‡ä»½-42" fill="#B30000" x="38" y="83" width="9" height="1"></rect>
                <rect id="çŸ©å½¢å¤‡ä»½-45" fill="#B30000" x="37" y="119" width="9" height="1"></rect>
                <rect id="çŸ©å½¢å¤‡ä»½-40" fill="#B30000" x="38" y="54" width="9" height="1"></rect>
                <rect id="çŸ©å½¢å¤‡ä»½-44" fill="#B30000" x="38" y="90" width="9" height="1"></rect>
                <rect id="çŸ©å½¢å¤‡ä»½-46" fill="#B30000" x="37" y="142" width="9" height="1"></rect>
                <rect id="çŸ©å½¢" fill="#B30000" x="42" y="40" width="1" height="14"></rect>
                <rect id="çŸ©å½¢" fill="#B30000" x="42" y="84" width="1" height="7"></rect>
                <rect id="çŸ©å½¢å¤‡ä»½-47" fill="#B30000" x="41" y="120" width="1" height="22"></rect>
            </g>
        </g>
    </g>
</svg>