<?xml version="1.0" encoding="UTF-8"?>
<svg width="540px" height="262px" viewBox="0 0 540 262" version="1.1" xmlns="http://www.w3.org/2000/svg" xmlns:xlink="http://www.w3.org/1999/xlink">
    <title>2</title>
    <g id="ðŸ“è®¾è®¡å¸ˆæ¨¡å¼" stroke="none" stroke-width="1" fill="none" fill-rule="evenodd">
        <g id="è®¾è®¡åŽŸåˆ™-äº²å¯†æ€§" transform="translate(-720.000000, -1209.000000)">
            <g id="2" transform="translate(720.000000, 1209.000000)">
                <rect id="çŸ©å½¢å¤‡ä»½-77" fill="#FFFFFF" x="0" y="0" width="540" height="262"></rect>
                <text id="48px" font-family="PingFangSC-Regular, PingFang SC" font-size="14" font-weight="normal" fill="#000000" fill-opacity="0.645705857">
                    <tspan x="8" y="212">48px</tspan>
                </text>
                <text id="32px" font-family="PingFangSC-Regular, PingFang SC" font-size="14" font-weight="normal" fill="#000000" fill-opacity="0.645705857">
                    <tspan x="8" y="161">32px</tspan>
                </text>
                <text id="24px" font-family="PingFangSC-Regular, PingFang SC" font-size="14" font-weight="normal" fill="#000000" fill-opacity="0.645705857">
                    <tspan x="8" y="117">24px</tspan>
                </text>
                <text id="16px" font-family="PingFangSC-Regular, PingFang SC" font-size="14" font-weight="normal" fill="#000000" fill-opacity="0.645705857">
                    <tspan x="8" y="61">16px</tspan>
                </text>
                <rect id="çŸ©å½¢å¤‡ä»½-85" fill="#D8D8D8" x="50" y="100" width="410" height="1"></rect>
                <rect id="çŸ©å½¢å¤‡ä»½-90" fill="#D8D8D8" x="50" y="233" width="410" height="1"></rect>
                <rect id="çŸ©å½¢å¤‡ä»½-81" fill="#B30000" x="50" y="32" width="16" height="16" rx="2"></rect>
                <rect id="çŸ©å½¢å¤‡ä»½-86" fill="#B30000" x="50" y="125" width="16" height="16" rx="2"></rect>
                <rect id="çŸ©å½¢å¤‡ä»½-45" fill="#B30000" x="41" y="184" width="9" height="1"></rect>
                <rect id="çŸ©å½¢å¤‡ä»½-92" fill="#B30000" x="41" y="172" width="9" height="1"></rect>
                <rect id="çŸ©å½¢å¤‡ä»½-88" fill="#B30000" x="41" y="141" width="9" height="1"></rect>
                <rect id="çŸ©å½¢å¤‡ä»½-94" fill="#B30000" x="41" y="124" width="9" height="1"></rect>
                <rect id="çŸ©å½¢å¤‡ä»½-97" fill="#B30000" x="41" y="63" width="9" height="1"></rect>
                <rect id="çŸ©å½¢å¤‡ä»½-93" fill="#B30000" x="41" y="100" width="9" height="1"></rect>
                <rect id="çŸ©å½¢å¤‡ä»½-96" fill="#B30000" x="41" y="48" width="9" height="1"></rect>
                <rect id="çŸ©å½¢å¤‡ä»½-46" fill="#B30000" x="41" y="233" width="9" height="1"></rect>
                <rect id="çŸ©å½¢å¤‡ä»½-47" fill="#B30000" x="45" y="185" width="1" height="48"></rect>
                <rect id="çŸ©å½¢å¤‡ä»½-91" fill="#B30000" x="45" y="142" width="1" height="30"></rect>
                <rect id="çŸ©å½¢å¤‡ä»½-95" fill="#B30000" x="45" y="100" width="1" height="24"></rect>
                <rect id="çŸ©å½¢å¤‡ä»½-98" fill="#B30000" x="45" y="49" width="1" height="14"></rect>
                <rect id="çŸ©å½¢å¤‡ä»½-82" fill="#BEBEBE" x="74" y="34" width="60" height="12"></rect>
                <rect id="çŸ©å½¢å¤‡ä»½-87" fill="#BEBEBE" x="74" y="127" width="60" height="12"></rect>
                <rect id="çŸ©å½¢å¤‡ä»½-83" fill="#F1F1F1" x="50" y="64" width="106" height="12"></rect>
                <rect id="çŸ©å½¢å¤‡ä»½-89" fill="#F1F1F1" x="50" y="173" width="106" height="12"></rect>
                <rect id="çŸ©å½¢å¤‡ä»½-84" fill="#F1F1F1" x="290" y="60" width="106" height="12"></rect>
            </g>
        </g>
    </g>
</svg>