<?xml version="1.0" encoding="UTF-8"?>
<svg width="540px" height="949px" viewBox="0 0 540 949" version="1.1" xmlns="http://www.w3.org/2000/svg" xmlns:xlink="http://www.w3.org/1999/xlink">
    <title>2</title>
    <defs>
        <filter id="filter-1">
            <feColorMatrix in="SourceGraphic" type="matrix" values="0 0 0 0 0.000000 0 0 0 0 0.000000 0 0 0 0 0.000000 0 0 0 0.649885 0"></feColorMatrix>
        </filter>
        <rect id="path-2" x="33" y="354" width="218" height="252" rx="2"></rect>
        <filter x="-7.3%" y="-5.6%" width="114.7%" height="112.7%" filterUnits="objectBoundingBox" id="filter-3">
            <feOffset dx="0" dy="2" in="SourceAlpha" result="shadowOffsetOuter1"></feOffset>
            <feGaussianBlur stdDeviation="5" in="shadowOffsetOuter1" result="shadowBlurOuter1"></feGaussianBlur>
            <feColorMatrix values="0 0 0 0 0   0 0 0 0 0   0 0 0 0 0  0 0 0 0.154938811 0" type="matrix" in="shadowBlurOuter1"></feColorMatrix>
        </filter>
        <rect id="path-4" x="288" y="354" width="218" height="252" rx="2"></rect>
        <filter x="-7.3%" y="-5.6%" width="114.7%" height="112.7%" filterUnits="objectBoundingBox" id="filter-5">
            <feOffset dx="0" dy="2" in="SourceAlpha" result="shadowOffsetOuter1"></feOffset>
            <feGaussianBlur stdDeviation="5" in="shadowOffsetOuter1" result="shadowBlurOuter1"></feGaussianBlur>
            <feColorMatrix values="0 0 0 0 0   0 0 0 0 0   0 0 0 0 0  0 0 0 0.154938811 0" type="matrix" in="shadowBlurOuter1"></feColorMatrix>
        </filter>
        <filter id="filter-6">
            <feColorMatrix in="SourceGraphic" type="matrix" values="0 0 0 0 0.000000 0 0 0 0 0.000000 0 0 0 0 0.000000 0 0 0 0.649885 0"></feColorMatrix>
        </filter>
        <filter id="filter-7">
            <feColorMatrix in="SourceGraphic" type="matrix" values="0 0 0 0 1.000000 0 0 0 0 1.000000 0 0 0 0 1.000000 0 0 0 1.000000 0"></feColorMatrix>
        </filter>
        <path d="M425,754 C426.104569,754 427,754.895431 427,756 L427,838 C427,839.104569 426.104569,840 425,840 L405.999,840 L402.5,845 L399.001,840 L221,840 C219.895431,840 219,839.104569 219,838 L219,756 C219,754.895431 219.895431,754 221,754 L425,754 Z" id="path-8"></path>
        <filter x="-28.1%" y="-54.4%" width="156.2%" height="235.1%" filterUnits="objectBoundingBox" id="filter-9">
            <feMorphology radius="2" operator="erode" in="SourceAlpha" result="shadowSpreadOuter1"></feMorphology>
            <feOffset dx="0" dy="3" in="shadowSpreadOuter1" result="shadowOffsetOuter1"></feOffset>
            <feGaussianBlur stdDeviation="3" in="shadowOffsetOuter1" result="shadowBlurOuter1"></feGaussianBlur>
            <feColorMatrix values="0 0 0 0 0   0 0 0 0 0   0 0 0 0 0  0 0 0 0.12 0" type="matrix" in="shadowBlurOuter1" result="shadowMatrixOuter1"></feColorMatrix>
            <feMorphology radius="4" operator="dilate" in="SourceAlpha" result="shadowSpreadOuter2"></feMorphology>
            <feOffset dx="0" dy="9" in="shadowSpreadOuter2" result="shadowOffsetOuter2"></feOffset>
            <feGaussianBlur stdDeviation="14" in="shadowOffsetOuter2" result="shadowBlurOuter2"></feGaussianBlur>
            <feColorMatrix values="0 0 0 0 0   0 0 0 0 0   0 0 0 0 0  0 0 0 0.05 0" type="matrix" in="shadowBlurOuter2" result="shadowMatrixOuter2"></feColorMatrix>
            <feOffset dx="0" dy="6" in="SourceAlpha" result="shadowOffsetOuter3"></feOffset>
            <feGaussianBlur stdDeviation="8" in="shadowOffsetOuter3" result="shadowBlurOuter3"></feGaussianBlur>
            <feColorMatrix values="0 0 0 0 0   0 0 0 0 0   0 0 0 0 0  0 0 0 0.08 0" type="matrix" in="shadowBlurOuter3" result="shadowMatrixOuter3"></feColorMatrix>
            <feMerge>
                <feMergeNode in="shadowMatrixOuter1"></feMergeNode>
                <feMergeNode in="shadowMatrixOuter2"></feMergeNode>
                <feMergeNode in="shadowMatrixOuter3"></feMergeNode>
            </feMerge>
        </filter>
    </defs>
    <g id="📁设计师模式" stroke="none" stroke-width="1" fill="none" fill-rule="evenodd">
        <g id="交互原则-提供邀请" transform="translate(-720.000000, -1464.000000)">
            <g id="2" transform="translate(720.000000, 1464.000000)">
                <rect id="矩形备份-7" fill="#FFFFFF" x="0" y="0" width="540" height="949"></rect>
                <text id="鼠标悬停邀请1" font-family="PingFangSC-Regular, PingFang SC" font-size="14" font-weight="normal" fill="#000000" fill-opacity="0.85">
                    <tspan x="19" y="59">鼠标悬停邀请1</tspan>
                </text>
                <text id="鼠标『悬停』整个卡片时，可被点击部分变为" font-family="PingFangSC-Regular, PingFang SC" font-size="14" font-weight="normal" fill="#000000" fill-opacity="0.85">
                    <tspan x="19" y="103">鼠标『悬停』整个卡片时，可被</tspan>
                    <tspan x="19" y="123">点击部分变为红色的『文字链』</tspan>
                </text>
                <text id="鼠标悬停邀请2" font-family="PingFangSC-Regular, PingFang SC" font-size="14" font-weight="normal" fill="#000000" fill-opacity="0.85">
                    <tspan x="23" y="282">鼠标悬停邀请2</tspan>
                </text>
                <text id="鼠标『悬停』时，出现『选择此模板』的按钮" font-family="PingFangSC-Regular, PingFang SC" font-size="14" font-weight="normal" fill="#000000" fill-opacity="0.85">
                    <tspan x="23" y="309">鼠标『悬停』时，出现『选择此模板』的按钮</tspan>
                </text>
                <text id="推论邀请" font-family="PingFangSC-Regular, PingFang SC" font-size="14" font-weight="normal" fill="#000000" fill-opacity="0.85">
                    <tspan x="23" y="699">推论邀请</tspan>
                </text>
                <text id="用户点击『赞』后，同时系统分析并提供开启" font-family="PingFangSC-Regular, PingFang SC" font-size="14" font-weight="normal" fill="#000000" fill-opacity="0.85">
                    <tspan x="23" y="734">用户点击『赞』后，同时系统分析并提供开启相关内容的邀请。</tspan>
                </text>
                <rect id="矩形" stroke-opacity="0.35" stroke="#000000" fill="#FFFFFF" x="23.5" y="850.5" width="499" height="47" rx="2"></rect>
                <text id="请给予本项目进行评价：" font-family="PingFangSC-Regular, PingFang SC" font-size="14" font-weight="normal" fill="#000000" fill-opacity="0.649885271">
                    <tspan x="50" y="879">请给予本项目进行评价：</tspan>
                </text>
                <g filter="url(#filter-1)" id="投诉">
                    <g transform="translate(438.000000, 862.000000)">
                        <rect id="矩形" fill="#000000" fill-rule="nonzero" opacity="0" x="0" y="0" width="24" height="24"></rect>
                        <path d="M20.739,14.08275 L15.1635,14.08275 C17.3235,22.06275 13.67475,22.47 13.67475,22.47 C12.12825,22.47 12.4485,21.24675 12.33225,21.04275 C12.33225,17.1405 8.187,14.08275 8.187,14.08275 L8.187,3.015 C8.187,1.923 9.67575,1.53 10.25925,1.53 L18.63675,1.53 C19.42575,1.53 20.06775,3.597 20.06775,3.597 C22.14,10.6455 22.14,12.7425 22.14,12.7425 C22.14,14.199 20.73825,14.08275 20.73825,14.08275 L20.739,14.08275 Z M5.89875,14.0790031 L2.55975,14.0790031 C1.86975,14.0790031 1.85925,13.40175 1.85925,13.40175 L2.55,2.241 C2.55,1.53 3.26175,1.53 3.26175,1.53 L6.15,1.53 C6.7515,1.53 6.74625078,2.00025 6.74625078,2.00025 L6.74625078,13.23225 C6.74625078,14.0895 5.898,14.0790031 5.898,14.0790031 L5.89875,14.0790031 Z" id="形状" fill="#000000" fill-rule="nonzero"></path>
                    </g>
                </g>
                <rect id="矩形备份-42" fill="#FFCCC8" x="388" y="868" width="33" height="12"></rect>
                <rect id="矩形备份-43" fill="#BEBEBE" x="474" y="868" width="33" height="12"></rect>
                <rect id="矩形备份-9" stroke-opacity="0.35" stroke="#000000" fill="#FFFFFF" x="273.5" y="139.5" width="245" height="79" rx="2"></rect>
                <rect id="矩形备份" stroke-opacity="0.35" stroke="#000000" fill="#FFFFFF" x="273.5" y="44.5" width="245" height="79" rx="2"></rect>
                <path d="M275,139 L517,139 C518.104569,139 519,139.895431 519,141 L519,165 L519,165 L273,165 L273,141 C273,139.895431 273.895431,139 275,139 Z" id="矩形备份-10" fill-opacity="0.0468203671" fill="#000000"></path>
                <path d="M275,44 L517,44 C518.104569,44 519,44.8954305 519,46 L519,70 L519,70 L273,70 L273,46 C273,44.8954305 273.895431,44 275,44 Z" id="矩形备份-6" fill-opacity="0.0468203671" fill="#000000"></path>
                <rect id="矩形备份-63" fill="#BEBEBE" x="284" y="147" width="46" height="10"></rect>
                <rect id="矩形备份-55" fill="#BEBEBE" x="284" y="52" width="46" height="10"></rect>
                <rect id="矩形备份-64" fill="#BEBEBE" x="489" y="195" width="22" height="10"></rect>
                <rect id="矩形备份-56" fill="#BEBEBE" x="489" y="100" width="22" height="10"></rect>
                <rect id="矩形备份-65" fill="#B30000" x="284" y="175" width="106" height="10"></rect>
                <rect id="矩形备份-57" fill="#BEBEBE" x="284" y="80" width="106" height="10"></rect>
                <rect id="矩形备份-66" fill="#BEBEBE" x="284" y="195" width="147" height="10"></rect>
                <rect id="矩形备份-58" fill="#BEBEBE" x="284" y="100" width="147" height="10"></rect>
                <g id="提醒（面）" transform="translate(492.000000, 49.000000)" fill-rule="nonzero">
                    <rect id="矩形" fill="#000000" opacity="0" x="0" y="0.0156097561" width="15.9843902" height="15.9843902"></rect>
                    <path d="M12.900402,12.435481 L12.4838088,12.435481 L12.4838088,5.7560039 C12.4846415,3.33007866 10.6642957,1.29003598 8.25393951,1.01563317 L8.25393951,0.568070244 C8.26244689,0.371064271 8.16219175,0.185270865 7.99285653,0.0842297326 C7.8235213,-0.0168113996 7.61240455,-0.0168113996 7.44306933,0.0842297326 C7.2737341,0.185270865 7.17347896,0.371064271 7.18198634,0.568070244 L7.18198634,1.01463415 C4.77123397,1.28856727 2.95034302,3.32873908 2.95111805,5.75500488 L2.95111805,12.434482 L2.53452488,12.434482 C2.23796144,12.434482 1.99754927,12.6748941 1.99754927,12.9714576 C1.99754927,13.268021 2.23796144,13.5084332 2.53452488,13.5084332 L6.64551024,13.5084332 L6.64551024,14.2237346 C6.64551024,14.815758 7.12544003,15.2956878 7.71746341,15.2956878 C8.3094868,15.2956878 8.78941659,14.815758 8.78941659,14.2237346 L8.78941659,13.5084332 L12.900402,13.5084332 C13.1969654,13.5084332 13.4373776,13.268021 13.4373776,12.9714576 C13.4373776,12.6748941 13.1969654,12.434482 12.900402,12.434482 L12.900402,12.435481 Z" id="路径" fill="#FEAE00"></path>
                </g>
                <g id="提醒（面）备份" transform="translate(492.000000, 144.000000)" fill-rule="nonzero">
                    <rect id="矩形" fill="#000000" opacity="0" x="0" y="0.0156097561" width="15.9843902" height="15.9843902"></rect>
                    <path d="M12.900402,12.435481 L12.4838088,12.435481 L12.4838088,5.7560039 C12.4846415,3.33007866 10.6642957,1.29003598 8.25393951,1.01563317 L8.25393951,0.568070244 C8.26244689,0.371064271 8.16219175,0.185270865 7.99285653,0.0842297326 C7.8235213,-0.0168113996 7.61240455,-0.0168113996 7.44306933,0.0842297326 C7.2737341,0.185270865 7.17347896,0.371064271 7.18198634,0.568070244 L7.18198634,1.01463415 C4.77123397,1.28856727 2.95034302,3.32873908 2.95111805,5.75500488 L2.95111805,12.434482 L2.53452488,12.434482 C2.23796144,12.434482 1.99754927,12.6748941 1.99754927,12.9714576 C1.99754927,13.268021 2.23796144,13.5084332 2.53452488,13.5084332 L6.64551024,13.5084332 L6.64551024,14.2237346 C6.64551024,14.815758 7.12544003,15.2956878 7.71746341,15.2956878 C8.3094868,15.2956878 8.78941659,14.815758 8.78941659,14.2237346 L8.78941659,13.5084332 L12.900402,13.5084332 C13.1969654,13.5084332 13.4373776,13.268021 13.4373776,12.9714576 C13.4373776,12.6748941 13.1969654,12.434482 12.900402,12.434482 L12.900402,12.435481 Z" id="路径" fill="#FEAE00"></path>
                </g>
                <g id="鼠标指针" transform="translate(443.000000, 186.000000)" fill="#000000" fill-rule="nonzero">
                    <rect id="矩形" opacity="0" x="0" y="0" width="16" height="16"></rect>
                    <path d="M11.861,9.276 C12.004,9.415 12.0365,9.576 11.959,9.7575 C11.8795,9.9435 11.7445,10.0355 11.549,10.0355 L8.897,10.0355 L10.293,13.3555 C10.3395769,13.4647425 10.3395769,13.5882575 10.293,13.6975 C10.2489036,13.8064982 10.1640689,13.8940233 10.0565,13.9415 L8.8275,14.465 C8.71884741,14.5119119 8.59565259,14.5119119 8.487,14.465 C8.37838227,14.420343 8.29140997,14.3351639 8.2445,14.2275 L6.919,11.0745 L4.7555,13.254 C4.67406431,13.339434 4.56102729,13.3875425 4.443,13.387 C4.3856392,13.3863596 4.3290017,13.3741137 4.2765,13.351 C4.0915,13.271 4,13.135 4,12.9385 L4,2.4485 C4,2.2535 4.0915,2.1155 4.2765,2.036 C4.44064919,1.964116 4.63225034,2.00291623 4.7555,2.133 L11.861,9.276 L11.861,9.276 Z" id="路径"></path>
                </g>
                <g id="矩形备份-26">
                    <use fill="black" fill-opacity="1" filter="url(#filter-3)" xlink:href="#path-2"></use>
                    <use fill="#FFFFFF" fill-rule="evenodd" xlink:href="#path-2"></use>
                </g>
                <g id="矩形备份-27">
                    <use fill="black" fill-opacity="1" filter="url(#filter-5)" xlink:href="#path-4"></use>
                    <use fill="#FFFFFF" fill-rule="evenodd" xlink:href="#path-4"></use>
                </g>
                <rect id="矩形备份-30" fill-opacity="0.0468203671" fill="#000000" x="33" y="354" width="218" height="177" rx="2"></rect>
                <rect id="矩形备份-31" fill-opacity="0.649885271" fill="#000000" x="288" y="354" width="218" height="177" rx="2"></rect>
                <rect id="矩形备份-56" fill="#BEBEBE" x="83" y="547" width="119" height="16"></rect>
                <rect id="矩形备份-59" fill="#BEBEBE" x="336" y="547" width="119" height="16"></rect>
                <g id="编组备份-2" transform="translate(45.000000, 579.000000)">
                    <rect id="矩形备份-61" fill="#BEBEBE" x="16" y="0" width="37" height="16"></rect>
                    <circle id="椭圆形" fill="#1EB100" cx="4" cy="8" r="4"></circle>
                </g>
                <g id="编组备份-3" transform="translate(300.000000, 579.000000)">
                    <rect id="矩形备份-61" fill="#BEBEBE" x="16" y="0" width="37" height="16"></rect>
                    <circle id="椭圆形" fill="#1EB100" cx="4" cy="8" r="4"></circle>
                </g>
                <g id="编组-2备份-2" transform="translate(183.000000, 579.000000)">
                    <rect id="矩形备份-63" fill="#BEBEBE" x="16" y="7.10542736e-15" width="37" height="16"></rect>
                    <circle id="椭圆形备份-2" fill="#ED220D" cx="4" cy="8" r="4"></circle>
                </g>
                <g id="编组-2备份-3" transform="translate(438.000000, 579.000000)">
                    <rect id="矩形备份-63" fill="#BEBEBE" x="16" y="7.10542736e-15" width="37" height="16"></rect>
                    <circle id="椭圆形备份-2" fill="#ED220D" cx="4" cy="8" r="4"></circle>
                </g>
                <g id="编组-5备份-2" transform="translate(114.000000, 579.000000)">
                    <rect id="矩形备份-64" fill="#BEBEBE" x="16" y="0" width="37" height="16"></rect>
                    <circle id="椭圆形备份-3" fill="#D8D8D8" cx="4" cy="8" r="4"></circle>
                </g>
                <g id="编组-5备份-3" transform="translate(369.000000, 579.000000)">
                    <rect id="矩形备份-64" fill="#BEBEBE" x="16" y="0" width="37" height="16"></rect>
                    <circle id="椭圆形备份-3" fill="#D8D8D8" cx="4" cy="8" r="4"></circle>
                </g>
                <g filter="url(#filter-6)" id="更多操作备份-2">
                    <g transform="translate(43.000000, 373.000000)">
                        <rect id="矩形" fill="#000000" fill-rule="nonzero" opacity="0" x="0" y="0" width="16" height="16"></rect>
                        <path d="M8.2515,1.011 C12.1125,1.011 15.244,4.142 15.244,8.003 C15.244,11.864 12.1125,14.9955 8.2515,14.9955 C4.3905,14.9955 1.2595,11.864 1.2595,8.003 C1.2595,4.142 4.3905,1.011 8.2515,1.011 Z M4.255,7.006 C3.7043721,7.006 3.258,7.4523721 3.258,8.003 C3.258,8.5536279 3.7043721,9 4.255,9 C4.8056279,9 5.252,8.5536279 5.252,8.003 C5.252,7.4523721 4.8056279,7.006 4.255,7.006 Z M8.255,7.006 C7.7043721,7.006 7.258,7.4523721 7.258,8.003 C7.258,8.5536279 7.7043721,9 8.255,9 C8.8056279,9 9.252,8.5536279 9.252,8.003 C9.252,7.4523721 8.8056279,7.006 8.255,7.006 Z M12.246,7.006 C11.6953721,7.006 11.249,7.4523721 11.249,8.003 C11.249,8.5536279 11.6953721,9 12.246,9 C12.7966279,9 13.243,8.5536279 13.243,8.003 C13.243,7.4523721 12.7966279,7.006 12.246,7.006 Z" id="形状" fill="#000000" fill-rule="nonzero"></path>
                    </g>
                </g>
                <g filter="url(#filter-7)" id="更多操作备份-3">
                    <g transform="translate(298.000000, 373.000000)">
                        <rect id="矩形" fill="#000000" fill-rule="nonzero" opacity="0" x="0" y="0" width="16" height="16"></rect>
                        <path d="M8.2515,1.011 C12.1125,1.011 15.244,4.142 15.244,8.003 C15.244,11.864 12.1125,14.9955 8.2515,14.9955 C4.3905,14.9955 1.2595,11.864 1.2595,8.003 C1.2595,4.142 4.3905,1.011 8.2515,1.011 Z M4.255,7.006 C3.7043721,7.006 3.258,7.4523721 3.258,8.003 C3.258,8.5536279 3.7043721,9 4.255,9 C4.8056279,9 5.252,8.5536279 5.252,8.003 C5.252,7.4523721 4.8056279,7.006 4.255,7.006 Z M8.255,7.006 C7.7043721,7.006 7.258,7.4523721 7.258,8.003 C7.258,8.5536279 7.7043721,9 8.255,9 C8.8056279,9 9.252,8.5536279 9.252,8.003 C9.252,7.4523721 8.8056279,7.006 8.255,7.006 Z M12.246,7.006 C11.6953721,7.006 11.249,7.4523721 11.249,8.003 C11.249,8.5536279 11.6953721,9 12.246,9 C12.7966279,9 13.243,8.5536279 13.243,8.003 C13.243,7.4523721 12.7966279,7.006 12.246,7.006 Z" id="形状" fill="#000000" fill-rule="nonzero"></path>
                    </g>
                </g>
                <g id="鼠标指针" transform="translate(473.000000, 504.000000)" fill="#000000" fill-rule="nonzero">
                    <rect id="矩形" opacity="0" x="0" y="0" width="16" height="16"></rect>
                    <path d="M4.09347936,1.54518346 L12.2025798,8.91079254 C12.3601242,9.06145288 12.4474187,9.22802816 12.4826137,9.40095056 C12.5175976,9.57283591 12.5025776,9.75772628 12.4187641,9.95401207 C12.3361493,10.1472995 12.218252,10.2850603 12.0779236,10.3802098 C11.9328904,10.4785494 11.7588302,10.5355 11.549,10.5355 L11.549,10.5355 L9.64964278,10.5355 L10.7529396,13.1593991 C10.8529304,13.3939197 10.8529304,13.6590803 10.7565059,13.8850162 C10.6636303,14.1145876 10.4849518,14.2989325 10.2524428,14.401507 L10.2524428,14.401507 L9.02569558,14.9240409 C8.79055568,15.0255649 8.52394432,15.0255649 8.29687234,14.9274408 C8.06810226,14.8333844 7.88492166,14.6539807 7.78357369,14.4212703 L7.78357369,14.4212703 L6.74756588,11.9568926 L5.11742083,13.5989831 C4.94107174,13.7839904 4.69628995,13.8881696 4.4374185,13.8869688 C3.88557484,13.7266984 3.74825001,13.6081144 3.65345939,13.4666998 C3.55632032,13.3217817 3.5,13.1478933 3.5,12.9385 L3.5,12.9385 L3.5,2.4485 C3.5,2.01662679 3.74188629,1.72946449 4.09347936,1.54518346 L4.09347936,1.54518346 Z" id="路径" stroke="#FFFFFF"></path>
                </g>
                <rect id="矩形备份-77" fill="#FDB014" x="336" y="422" width="119" height="42" rx="2"></rect>
                <text id="选择此模版" font-family="PingFangSC-Regular, PingFang SC" font-size="16" font-weight="normal" fill="#FFFFFF">
                    <tspan x="356" y="449">选择此模版</tspan>
                </text>
                <g id="形状结合备份-2">
                    <use fill="black" fill-opacity="1" filter="url(#filter-9)" xlink:href="#path-8"></use>
                    <use fill="#FFFFFF" fill-rule="evenodd" xlink:href="#path-8"></use>
                </g>
                <text id="访问原文并留言" font-family="PingFangSC-Regular, PingFang SC" font-size="14" font-weight="normal" fill="#000000" fill-opacity="0.649885271">
                    <tspan x="274" y="783">访问原文并留言</tspan>
                </text>
                <rect id="矩形" fill="#B30000" x="335" y="797" width="70" height="24" rx="2"></rect>
                <text id="立即访问" font-family="PingFangSC-Regular, PingFang SC" font-size="14" font-weight="normal" fill="#FFFFFF">
                    <tspan x="342" y="814">立即访问</tspan>
                </text>
                <rect id="矩形备份" stroke-opacity="0.35" stroke="#000000" fill="#FFFFFF" x="241.5" y="797.5" width="69" height="23" rx="2"></rect>
                <text id="下次再说" font-family="PingFangSC-Regular, PingFang SC" font-size="14" font-weight="normal" fill="#000000" fill-opacity="0.35">
                    <tspan x="249" y="814">下次再说</tspan>
                </text>
                <g id="点赞2" transform="translate(352.000000, 860.000000)" fill-rule="nonzero">
                    <rect id="矩形" fill="#000000" opacity="0" x="0" y="0" width="24" height="24"></rect>
                    <path d="M20.739,9.91725 L15.1635,9.91725 C17.3235,1.93725 13.67475,1.53 13.67475,1.53 C12.12825,1.53 12.4485,2.75325 12.33225,2.95725 C12.33225,6.8595 8.187,9.91725 8.187,9.91725 L8.187,20.985 C8.187,22.077 9.67575,22.47 10.25925,22.47 L18.63675,22.47 C19.42575,22.47 20.06775,20.403 20.06775,20.403 C22.14,13.3545 22.14,11.2575 22.14,11.2575 C22.14,9.801 20.73825,9.91725 20.73825,9.91725 L20.739,9.91725 Z M5.89875,9.92099694 L2.55975,9.92099694 C1.86975,9.92099694 1.85925,10.59825 1.85925,10.59825 L2.54925,21.759 C2.54925,22.47 3.261,22.47 3.261,22.47 L6.15,22.47 C6.7515,22.47 6.74625078,21.99975 6.74625078,21.99975 L6.74625078,10.76775 C6.74625078,9.9105 5.898,9.92099694 5.898,9.92099694 L5.89875,9.92099694 Z" id="形状" fill="#B30000"></path>
                </g>
            </g>
        </g>
    </g>
</svg>